<svg xmlns="http://www.w3.org/2000/svg" xmlns:xlink="http://www.w3.org/1999/xlink" width="100" height="100" viewBox="0 0 100 100">
  <defs>
    <polygon id="ica-a" points=".114 .238 31.118 .238 31.118 27 .114 27"/>
    <polygon id="ica-c" points=".152 .007 69.788 .007 69.788 58.428 .152 58.428"/>
    <polygon id="ica-e" points="0 .41 43.528 .41 43.528 22.83 0 22.83"/>
  </defs>
  <g fill="none" fill-rule="evenodd">
    <polygon fill="#231F20" points="69.278 30.064 65.755 30.064 65.755 33.587 64.681 33.587 64.681 30.064 61.158 30.064 61.158 29.03 64.681 29.03 64.681 25.506 65.755 25.506 65.755 29.03 69.278 29.03"/>
    <g transform="translate(1 5)">
      <path fill="currentColor" d="M53.1008 25.3131L47.8898 25.3131 47.8898 24.3311 49.8938 24.3311 49.8938 17.8781 47.8898 17.8781 47.8898 16.9991C48.1618 16.9991 48.4528 16.9761 48.7618 16.9311 49.0728 16.8861 49.3078 16.8201 49.4668 16.7341 49.6648 16.6261 49.8218 16.4891 49.9358 16.3231 50.0498 16.1571 50.1158 15.9341 50.1328 15.6541L51.1348 15.6541 51.1348 24.3311 53.1008 24.3311 53.1008 25.3131zM53.7531 40.5441L47.2361 40.5441 47.2361 39.1921C47.6891 38.8051 48.1431 38.4171 48.5981 38.0291 49.0521 37.6411 49.4761 37.2551 49.8681 36.8721 50.6951 36.0701 51.2621 35.4331 51.5681 34.9611 51.8741 34.4891 52.0271 33.9801 52.0271 33.4321 52.0271 32.9321 51.8621 32.5411 51.5321 32.2591 51.2031 31.9761 50.7421 31.8351 50.1521 31.8351 49.7601 31.8351 49.3351 31.9041 48.8791 32.0421 48.4221 32.1801 47.9761 32.3911 47.5401 32.6761L47.4761 32.6761 47.4761 31.3181C47.7811 31.1671 48.1911 31.0291 48.7011 30.9041 49.2121 30.7791 49.7061 30.7171 50.1851 30.7171 51.1721 30.7171 51.9451 30.9551 52.5061 31.4311 53.0661 31.9071 53.3461 32.5531 53.3461 33.3671 53.3461 33.7341 53.3001 34.0751 53.2071 34.3921 53.1141 34.7091 52.9781 35.0101 52.7971 35.2941 52.6281 35.5611 52.4311 35.8241 52.2051 36.0831 51.9791 36.3411 51.7041 36.6281 51.3811 36.9421 50.9191 37.3951 50.4431 37.8341 49.9521 38.2581 49.4601 38.6831 49.0011 39.0761 48.5741 39.4381L53.7531 39.4381 53.7531 40.5441z"/>
      <path stroke="currentColor" stroke-width=".75" d="M45.6858,28.1979 L55.3038,28.1979"/>
      <path fill="currentColor" d="M82.3996 20.6779C82.6056 20.8629 82.7766 21.0959 82.9106 21.3759 83.0436 21.6559 83.1106 22.0179 83.1106 22.4619 83.1106 22.9019 83.0306 23.3049 82.8716 23.6709 82.7116 24.0369 82.4876 24.3569 82.1986 24.6279 81.8756 24.9299 81.4956 25.1529 81.0576 25.2969 80.6206 25.4419 80.1406 25.5139 79.6196 25.5139 79.0856 25.5139 78.5586 25.4499 78.0416 25.3229 77.5246 25.1959 77.0996 25.0569 76.7676 24.9059L76.7676 23.5549 76.8656 23.5549C77.2316 23.7959 77.6626 23.9959 78.1586 24.1559 78.6536 24.3159 79.1316 24.3949 79.5926 24.3949 79.8646 24.3949 80.1536 24.3499 80.4596 24.2599 80.7656 24.1689 81.0136 24.0349 81.2036 23.8589 81.4016 23.6689 81.5486 23.4599 81.6456 23.2319 81.7436 23.0029 81.7916 22.7139 81.7916 22.3649 81.7916 22.0199 81.7366 21.7349 81.6266 21.5089 81.5166 21.2819 81.3646 21.1039 81.1706 20.9749 80.9766 20.8419 80.7426 20.7499 80.4656 20.6999 80.1906 20.6509 79.8926 20.6259 79.5736 20.6259L78.9926 20.6259 78.9926 19.5529 79.4446 19.5529C80.0996 19.5529 80.6226 19.4159 81.0116 19.1419 81.4026 18.8679 81.5976 18.4689 81.5976 17.9429 81.5976 17.7099 81.5476 17.5069 81.4486 17.3319 81.3496 17.1569 81.2126 17.0139 81.0356 16.9019 80.8496 16.7899 80.6516 16.7129 80.4406 16.6689 80.2286 16.6259 79.9896 16.6049 79.7226 16.6049 79.3126 16.6049 78.8786 16.6779 78.4166 16.8239 77.9556 16.9709 77.5196 17.1779 77.1106 17.4449L77.0456 17.4449 77.0456 16.0939C77.3516 15.9429 77.7596 15.8039 78.2706 15.6769 78.7816 15.5499 79.2766 15.4859 79.7546 15.4859 80.2246 15.4859 80.6386 15.5299 80.9966 15.6159 81.3536 15.7019 81.6766 15.8399 81.9656 16.0299 82.2766 16.2359 82.5106 16.4859 82.6706 16.7789 82.8306 17.0729 82.9106 17.4149 82.9106 17.8069 82.9106 18.3419 82.7206 18.8079 82.3436 19.2069 81.9666 19.6059 81.5216 19.8569 81.0086 19.9599L81.0086 20.0509C81.2156 20.0849 81.4536 20.1569 81.7196 20.2669 81.9876 20.3769 82.2136 20.5139 82.3996 20.6779M80.9094 37.5885L80.9094 33.2445 77.1794 37.5885 80.9094 37.5885zM83.5794 38.6235L82.1504 38.6235 82.1504 41.3325 80.9094 41.3325 80.9094 38.6235 76.2994 38.6235 76.2994 37.1355 80.9614 31.7055 82.1504 31.7055 82.1504 37.5885 83.5794 37.5885 83.5794 38.6235z"/>
      <path stroke="currentColor" stroke-width=".75" d="M75.1301,28.1979 L84.7481,28.1979"/>
      <path fill="currentColor" d="M80.0764 54.5177L43.5194 54.5177C43.8714 55.3437 44.0864 56.2267 44.1504 57.1657 44.2054 57.9617 44.1314 58.7507 43.9664 59.5177L56.3354 59.5177C56.5244 59.1737 56.7324 58.8407 56.9744 58.5297 58.7254 56.2767 60.9954 55.1337 63.7194 55.1337 64.1284 55.1337 64.5524 55.1617 64.9794 55.2137 66.3294 55.3797 67.6084 55.9087 68.6794 56.7427 69.7124 57.5467 70.5024 58.4827 71.0664 59.5177L80.4684 59.5177C80.1354 58.7137 79.9364 57.8547 79.8744 56.9447 79.8184 56.1227 79.8984 55.3077 80.0764 54.5177M42.6545 57.2687C42.5515 55.7747 42.0105 54.4647 41.0325 53.3387 39.7165 51.8277 37.7575 50.9517 35.7585 50.9517 35.6045 50.9517 35.4505 50.9567 35.2965 50.9667 33.8005 51.0697 32.4885 51.6117 31.3625 52.5927 29.7365 54.0107 28.8475 56.1717 28.9955 58.3247 29.0975 59.8227 29.6405 61.1357 30.6255 62.2627 31.9415 63.7697 33.8965 64.6417 35.8895 64.6417 36.0445 64.6417 36.1985 64.6357 36.3525 64.6257 37.8475 64.5237 39.1585 63.9827 40.2845 63.0007 41.9125 61.5827 42.8005 59.4217 42.6545 57.2687M43.1848 66.4191C42.7538 66.2031 42.2828 66.0951 41.7708 66.0951 41.6028 66.0951 41.4298 66.1071 41.2528 66.1301 40.9218 66.1741 40.6218 66.2621 40.3378 66.3761L31.2048 66.3761C30.8528 66.2361 30.4778 66.1381 30.0548 66.1171 29.9888 66.1141 29.9218 66.1121 29.8568 66.1121 29.2168 66.1121 28.6438 66.2641 28.1358 66.5651 27.3788 67.0171 27.0038 67.7601 26.9558 68.5051L26.6228 83.5531 27.9988 83.6451 27.9988 85.1741 43.6498 85.3151 43.6498 83.5961 45.7868 83.3551C45.7868 83.3581 45.7878 83.3601 45.7878 83.3601 45.7998 83.3601 44.4588 68.2741 44.4548 68.2601 44.3698 67.5191 43.9598 66.8061 43.1848 66.4191M94.9953 55.7882C94.8933 54.2992 94.3543 52.9922 93.3783 51.8692 92.0643 50.3602 90.1113 49.4872 88.1183 49.4872 87.9643 49.4872 87.8103 49.4922 87.6563 49.5032 86.1643 49.6042 84.8553 50.1452 83.7323 51.1252 82.1103 52.5402 81.2243 54.6952 81.3713 56.8422 81.4733 58.3362 82.0153 59.6462 82.9973 60.7702 84.3093 62.2732 86.2603 63.1432 88.2483 63.1432 88.4023 63.1432 88.5563 63.1382 88.7103 63.1282 90.2013 63.0252 91.5093 62.4852 92.6323 61.5072 94.2553 60.0932 95.1423 57.9362 94.9953 55.7882M98.1213 81.8156C98.1343 81.8156 96.7963 66.7676 96.7923 66.7526 96.7073 66.0136 96.2993 65.3026 95.5253 64.9166 95.0963 64.7016 94.6253 64.5926 94.1143 64.5926 93.9463 64.5926 93.7743 64.6046 93.5983 64.6286 93.2673 64.6716 92.9683 64.7586 92.6853 64.8746L83.5743 64.8746C83.2243 64.7346 82.8503 64.6356 82.4283 64.6156 82.3613 64.6126 82.2963 64.6116 82.2303 64.6116 81.5933 64.6116 81.0203 64.7616 80.5143 65.0626 79.7593 65.5126 79.3853 66.2536 79.3373 66.9976L79.0043 82.0066 80.3773 82.0986 80.3773 83.6246 95.9893 83.7646 95.9893 82.0496 98.1203 81.8096C98.1203 81.8136 98.1213 81.8156 98.1213 81.8156"/>
      <path fill="currentColor" d="M69.2776,67.5157 C69.9406,66.6627 70.3666,65.6287 70.4986,64.5567 C70.8356,61.8217 69.9206,59.6117 67.7566,57.9257 C66.9036,57.2607 65.8696,56.8347 64.7966,56.7027 C64.4276,56.6577 64.0686,56.6337 63.7186,56.6337 C61.4716,56.6337 59.6176,57.5737 58.1596,59.4507 C57.4966,60.3027 57.0716,61.3357 56.9396,62.4077 C56.6036,65.1457 57.5206,67.3607 59.6926,69.0447 C60.5446,69.7057 61.5766,70.1297 62.6466,70.2617 C63.0136,70.3067 63.3716,70.3287 63.7186,70.3287 C65.9656,70.3287 67.8176,69.3917 69.2776,67.5157"/>
      <g transform="translate(46 64)">
        <mask id="ica-b" fill="#fff">
          <use xlink:href="#ica-a"/>
        </mask>
        <path fill="currentColor" d="M11.9944,7.9611 L5.3414,1.3081 C4.7124,0.6791 3.8734,0.2381 2.9914,0.2381 C2.9254,0.2381 2.8574,0.2411 2.7904,0.2461 C2.0854,0.3011 1.4774,0.5831 0.9684,1.0921 C0.4584,1.6031 0.1764,2.2101 0.1214,2.9161 C0.0484,3.8691 0.5074,4.7891 1.1834,5.4651 L9.7934,14.0751 C9.8574,14.1401 9.8934,14.2271 9.8934,14.3171 L9.8934,26.8581 L25.5454,27.0001 L25.5454,25.3751 C25.8104,25.9711 26.2994,26.4751 27.0264,26.6771 C27.2904,26.7501 27.5604,26.7871 27.8374,26.7871 C28.2074,26.7871 28.5874,26.7221 28.9784,26.5901 C29.6614,26.3611 30.2034,25.9891 30.6034,25.4771 C31.1464,24.7821 31.2254,23.9531 31.0004,23.2411 L28.8254,17.2641 C27.7304,13.4661 26.5804,9.4841 26.5764,9.4781 C26.3504,8.7671 25.8124,8.1461 24.9774,7.9131 C24.7134,7.8401 24.4434,7.8031 24.1664,7.8031 C23.7974,7.8031 23.4174,7.8681 23.0254,8.0001 C22.9784,8.0161 22.9454,8.0451 22.8994,8.0621 L12.2364,8.0621 C12.1454,8.0621 12.0584,8.0251 11.9944,7.9611" mask="url(#ica-b)"/>
      </g>
      <path fill="currentColor" d="M11.3274,25.1793 C12.3424,25.9663 13.5714,26.4713 14.8464,26.6273 C18.1024,27.0273 20.7334,25.9373 22.7404,23.3583 C23.5304,22.3433 24.0384,21.1113 24.1954,19.8343 C24.5964,16.5773 23.5074,13.9453 20.9304,11.9383 C19.9144,11.1463 18.6814,10.6393 17.4044,10.4813 C14.1434,10.0803 11.5084,11.1713 9.5014,13.7533 C8.7124,14.7683 8.2064,15.9993 8.0494,17.2753 C7.6484,20.5363 8.7404,23.1723 11.3274,25.1793"/>
      <g transform="translate(29)">
        <mask id="ica-d" fill="#fff">
          <use xlink:href="#ica-c"/>
        </mask>
        <path fill="currentColor" d="M63.7883,0.007 L6.1523,0.007 C2.8523,0.007 0.1523,2.707 0.1523,6.007 L0.1523,27.659 L5.1523,27.347 L5.1523,6.007 C5.1523,5.465 5.6103,5.007 6.1523,5.007 L63.7883,5.007 C64.3303,5.007 64.7883,5.465 64.7883,6.007 L64.7883,50.163 C65.0423,50.39 65.2853,50.628 65.5103,50.885 C66.7013,52.255 67.3683,53.87 67.4923,55.687 C67.5563,56.617 67.4543,57.542 67.2193,58.428 C68.7683,57.34 69.7883,55.543 69.7883,53.518 L69.7883,6.007 C69.7883,2.707 67.0883,0.007 63.7883,0.007" mask="url(#ica-d)"/>
      </g>
      <path fill="currentColor" d="M29.1526,52.8009 C29.5106,52.3169 29.9166,51.8639 30.3776,51.4629 C31.4816,50.4999 32.7526,49.8949 34.1526,49.6229 L34.1526,35.3959 L29.1526,35.8209 L29.1526,52.8009 Z"/>
      <g transform="translate(0 28)">
        <mask id="ica-f" fill="#fff">
          <use xlink:href="#ica-e"/>
        </mask>
        <path fill="currentColor" d="M28.841,1.1818 C25.875,1.2338 23.562,1.2738 23.447,1.2768 C23.226,1.2858 22.984,1.3468 22.712,1.4608 L22.423,1.5188 L9.127,1.4858 C8.761,1.3728 8.412,1.3168 8.075,1.3168 C7.82,1.3168 7.57,1.3488 7.322,1.4128 C7.285,1.4368 7.236,1.4588 7.183,1.4768 L7.153,1.4878 L7.112,1.5058 C6.51,1.7348 6.062,2.1858 5.852,2.7748 L2.653,13.0938 C1.318,16.5528 0.172,19.5198 0.128,19.6348 C-0.011,20.0258 -0.164,20.8048 0.411,21.5588 C0.783,22.0508 1.293,22.3998 1.967,22.6278 C2.365,22.7628 2.744,22.8298 3.112,22.8298 C3.374,22.8298 3.629,22.7958 3.883,22.7288 C4.574,22.5458 5.111,22.0498 5.356,21.3668 L7.551,14.2778 L7.551,22.4138 L24.694,22.5678 L24.694,6.6938 L34.274,5.8798 C35.214,5.8838 36.123,5.8848 36.959,5.8848 C37.82,5.8848 38.605,5.8838 39.266,5.8838 C40.538,5.8838 41.353,5.8878 41.385,5.9118 C41.797,5.9038 42.579,5.7698 43.081,4.9648 C43.406,4.4428 43.553,3.8418 43.525,3.1288 C43.498,2.4138 43.308,1.8178 42.94,1.3058 L42.94,1.3048 C42.545,0.7538 41.921,0.4098 41.258,0.4098 C41.219,0.4098 41.18,0.4108 41.142,0.4128 L28.841,1.1818 Z" mask="url(#ica-f)"/>
      </g>
    </g>
  </g>
</svg>
