<svg id="Layer_1" data-name="Layer 1" xmlns="http://www.w3.org/2000/svg" viewBox="0 0 100 100"><defs><style>.cls-1{fill:#231f20;}</style></defs><title> </title><path class="cls-1" d="M86.7,16.56H33.93a.44.44,0,0,0,0,.88H86.7a.44.44,0,1,0,0-.88Z"/><path class="cls-1" d="M83.93,25.53H31.16a.44.44,0,0,0-.44.44.44.44,0,0,0,.44.44H83.93a.44.44,0,0,0,.44-.44A.44.44,0,0,0,83.93,25.53Z"/><path class="cls-1" d="M81.15,34.49H28.38a.44.44,0,0,0,0,.88H81.15a.44.44,0,0,0,0-.88Z"/><path class="cls-1" d="M78.38,43.46H25.61a.44.44,0,1,0,0,.88H78.38a.44.44,0,0,0,0-.88Z"/><path class="cls-1" d="M75.61,52.42H22.83a.44.44,0,0,0-.44.44.44.44,0,0,0,.44.44H75.61a.44.44,0,0,0,.44-.44A.44.44,0,0,0,75.61,52.42Z"/><path class="cls-1" d="M99.65,52.58,96.49,48.5a1.74,1.74,0,0,0-1.75-.42,6,6,0,0,0-2.5,1.22l-5.58,4.33,5.57,7.24,5.59-4.35A6.27,6.27,0,0,0,99.6,54.4,1.84,1.84,0,0,0,99.65,52.58Z"/><path class="cls-1" d="M84.51,55.31l-.45.35L99.59,5.22a4.38,4.38,0,0,0-.34-3.61,3.35,3.35,0,0,0-3-1.58H33.66a6.21,6.21,0,0,0-5.47,4.39L.37,94.78A4.41,4.41,0,0,0,.7,98.39a3.35,3.35,0,0,0,3,1.59H66.29a6.2,6.2,0,0,0,5.47-4.39L79.37,70.9l10.71-8.35ZM57.92,80,59,77.7l3.07-2.39,3.14,4.1-3.06,2.38-2.52.47,1.3-2.79Zm6.88-5.94c-.3,0-.42-.1-.29-.39a1.1,1.1,0,0,1,.34-.4L79.73,61.7l-.36,1.17-14.1,11A1.13,1.13,0,0,1,64.8,74.09Zm-8.27,3-4.21,9.08,9.78-1.83,14-10.93L69.55,94.78a3.9,3.9,0,0,1-3.26,2.67H3.67a1.17,1.17,0,0,1-1-.48,1.73,1.73,0,0,1,0-1.38L30.41,5.22a3.88,3.88,0,0,1,3.25-2.66H96.29a1.15,1.15,0,0,1,1,.48,1.73,1.73,0,0,1,.05,1.38L80.82,58.18ZM83.84,59.25a1,1,0,0,1-.34.41l-.89.69L83,59.17l.09-.07a1.19,1.19,0,0,1,.47-.23C83.85,58.81,84,59,83.84,59.25Z"/></svg>