<?xml version="1.0" encoding="utf-8"?>
<!-- Generator: Adobe Illustrator 24.0.0, SVG Export Plug-In . SVG Version: 6.00 Build 0)  -->
<svg version="1.1" id="Layer_1" xmlns="http://www.w3.org/2000/svg" xmlns:xlink="http://www.w3.org/1999/xlink" x="0px" y="0px"
	 viewBox="0 0 100 100" style="enable-background:new 0 0 100 100;" xml:space="preserve">
<style type="text/css">
	.st0{fill:none;}
	.st1{fill:#FFFFFF;}
	.st2{fill:#FFFFFF;stroke:#FFFFFF;stroke-width:0.25;stroke-miterlimit:10;}
	.st3{fill:none;stroke:#000000;stroke-width:0.25;stroke-linecap:round;stroke-miterlimit:10;}
	.st4{fill:#D9D9D9;}
	.st5{fill:none;stroke:#000000;stroke-width:2;stroke-linejoin:round;stroke-miterlimit:10;}
	.st6{fill:none;stroke:#000000;stroke-width:0.4396;stroke-miterlimit:10;}
	.st7{fill:none;stroke:#000000;stroke-linecap:round;stroke-linejoin:round;}
	.st8{fill:none;stroke:#000000;stroke-linecap:round;stroke-linejoin:round;stroke-miterlimit:10;}
</style>
<g>
	<path d="M70.72,87.33H48.18c-0.1,0-0.19,0.12-0.19,0.27c0,0.15,0.08,0.27,0.19,0.27h22.54c0.1,0,0.19-0.12,0.19-0.27
		C70.9,87.45,70.82,87.33,70.72,87.33z"/>
	<path d="M46.31,93.04c0,0.15,0.12,0.27,0.27,0.27h31.95c0.15,0,0.27-0.12,0.27-0.27c0-0.15-0.12-0.27-0.27-0.27H46.58
		C46.43,92.77,46.31,92.89,46.31,93.04z"/>
	<path d="M99.81,71.12l-1.91-2.47c-0.2-0.25-0.58-0.35-1.06-0.26c-0.48,0.09-1.04,0.36-1.51,0.74l-3.37,2.63l3.37,4.4l3.38-2.64
		c0.47-0.37,0.87-0.84,1.08-1.29C99.98,71.77,99.99,71.38,99.81,71.12z"/>
	<path d="M90.64,72.78l-0.27,0.21l9.4-30.63c0.25-0.81,0.17-1.58-0.2-2.19c-0.39-0.62-1.02-0.96-1.8-0.96H64.41
		c0.06,0.09,0.13,0.18,0.18,0.27c0.06,0.09,0.11,0.18,0.17,0.27c0.09,0.15,0.17,0.31,0.26,0.47c0.05,0.09,0.1,0.18,0.15,0.27h32.6
		c0.38,0,0.68,0.15,0.85,0.41c0.17,0.27,0.19,0.64,0.06,1.06l-9.91,32.28L73.7,86.01l-2.55,5.51l5.92-1.11l8.86-6.92l-4.09,13.33
		c-0.3,0.98-1.32,1.81-2.23,1.81H41.69c-0.38,0-0.68-0.15-0.85-0.41c-0.17-0.27-0.19-0.65-0.06-1.06l9.04-29.46
		c-0.09,0-0.19,0.01-0.28,0.01c-0.13,0-0.25,0.01-0.38,0.01c-0.02,0-0.04,0-0.06,0c-0.07,0-0.15-0.01-0.22-0.01
		c-0.05,0-0.11,0-0.16-0.01l-0.11-0.01c0,0,0,0,0,0l-8.92,29.05c-0.24,0.79-0.17,1.59,0.2,2.19c0.39,0.62,1.02,0.96,1.8,0.96h37.92
		c1.4,0,2.85-1.17,3.31-2.67l4.6-14.99l6.49-5.07L90.64,72.78z M77.1,88.86l-1.52,0.29l0.78-1.7l-1.82,0.34l0.66-1.42l1.85-1.45
		l1.9,2.49L77.1,88.86z M78.99,84.04c-0.1,0.08-0.2,0.12-0.28,0.14c-0.18,0.03-0.26-0.06-0.18-0.23c0.04-0.08,0.1-0.16,0.2-0.24
		l9.38-7.33l-0.22,0.71L78.99,84.04z M90.23,75.17c-0.04,0.08-0.1,0.16-0.2,0.24l-0.54,0.42l0.22-0.71l0.06-0.05
		c0.1-0.08,0.2-0.12,0.29-0.14C90.24,74.91,90.31,75,90.23,75.17z"/>
	<path d="M51.95,57.74c0.11-0.04,0.21-0.08,0.31-0.12c0.15-0.06,0.29-0.12,0.44-0.19c0.11-0.05,0.22-0.09,0.32-0.14
		c0.12-0.06,0.22-0.13,0.34-0.19l3.63-11.84c-0.06-0.11-0.11-0.23-0.17-0.34c-0.06-0.1-0.13-0.2-0.19-0.29
		c-0.08-0.13-0.17-0.26-0.26-0.39c-0.06-0.09-0.13-0.18-0.19-0.27c-0.06-0.08-0.14-0.16-0.2-0.24l-4.33,14.11
		C51.75,57.8,51.85,57.77,51.95,57.74z"/>
	<path d="M92.23,49.05c0-0.15-0.12-0.27-0.27-0.27H67.44c0.01,0.18,0.02,0.35,0.02,0.53h24.51C92.11,49.31,92.23,49.2,92.23,49.05z"
		/>
	<path d="M66.64,54.76h23.65c0.15,0,0.27-0.12,0.27-0.27s-0.12-0.27-0.27-0.27H66.8C66.75,54.4,66.69,54.58,66.64,54.76z"/>
	<path d="M66.66,60.2h21.95c0.15,0,0.27-0.12,0.27-0.27c0-0.15-0.12-0.27-0.27-0.27H66.13L66.66,60.2z"/>
	<path d="M87.2,65.38c0-0.15-0.12-0.27-0.27-0.27H71.56l0.53,0.53h14.84C87.08,65.65,87.2,65.53,87.2,65.38z"/>
	<path d="M85.52,70.82c0-0.15-0.12-0.27-0.27-0.27H73.23c-0.06,0.18-0.14,0.36-0.22,0.53h12.24C85.4,71.09,85.52,70.97,85.52,70.82z
		"/>
	<path d="M64.14,71.09l-0.53-0.53H53.3c-0.15,0-0.27,0.12-0.27,0.27c0,0.15,0.12,0.27,0.27,0.27H64.14z"/>
	<path d="M81.38,76.24c0-0.15-0.11-0.27-0.25-0.27H51.6c-0.14,0-0.25,0.12-0.25,0.27c0,0.15,0.11,0.27,0.25,0.27h29.53
		C81.27,76.5,81.38,76.38,81.38,76.24z"/>
	<path d="M75.76,81.68c0-0.15-0.1-0.27-0.21-0.27H49.89c-0.12,0-0.21,0.12-0.21,0.27c0,0.15,0.1,0.27,0.21,0.27h25.66
		C75.67,81.95,75.76,81.83,75.76,81.68z"/>
	<path d="M48.67,65.7c0.15,0,0.29,0.02,0.44,0.02c0.04,0,0.08,0,0.11,0c0.09,0,0.19-0.01,0.28-0.01c0.09,0,0.19,0,0.28-0.01
		c0.13-0.01,0.26-0.01,0.38-0.02c0.1-0.01,0.19-0.02,0.29-0.03c0.1-0.01,0.19-0.02,0.29-0.03c0.74-0.08,1.48-0.2,2.2-0.37
		c1.95-0.47,3.81-1.29,5.44-2.42l0.2-0.14l2.42,2.42l0.53,0.53l4.91,4.91l0.41,0.41c0.04,0.05,0.1,0.08,0.14,0.12
		c0.49,0.44,1.12,0.7,1.78,0.7c0.68,0,1.3-0.27,1.78-0.7c0.18-0.16,0.35-0.33,0.49-0.53c0.3-0.44,0.47-0.96,0.47-1.52
		c0-0.71-0.3-1.44-0.79-1.93l-1.46-1.46l-0.53-0.53l-4.9-4.91l-0.53-0.53l-0.86-0.86l0.13-0.2c0.83-1.2,1.47-2.5,1.95-3.85
		c0.06-0.18,0.13-0.35,0.19-0.53c0.49-1.57,0.74-3.22,0.74-4.91c0,0,0,0,0,0c0-0.18-0.02-0.36-0.03-0.53
		c-0.1-2.94-0.96-5.68-2.41-8.03c-0.05-0.09-0.11-0.18-0.16-0.27c-0.06-0.09-0.13-0.18-0.19-0.27c-0.11-0.16-0.22-0.32-0.33-0.47
		c-0.06-0.09-0.12-0.18-0.19-0.27c-0.07-0.09-0.14-0.18-0.21-0.27c-0.27-0.34-0.54-0.67-0.83-0.99c-0.96-1.04-2.05-1.96-3.25-2.72
		c-0.37-0.24-0.75-0.46-1.14-0.66c0,0,0,0,0,0c-0.42-0.22-0.85-0.43-1.29-0.62c-0.09-0.04-0.17-0.07-0.26-0.11
		c-0.45-0.18-0.91-0.36-1.39-0.5c-1.49-0.45-3.06-0.7-4.69-0.7c-0.34,0-0.67,0.03-1.01,0.05l0.01-0.02c-0.1,0.01-0.2,0.02-0.3,0.03
		c-0.27,0.02-0.54,0.05-0.81,0.09c-0.25,0.03-0.5,0.07-0.75,0.11c-0.26,0.05-0.53,0.1-0.79,0.16c-0.24,0.06-0.48,0.12-0.72,0.19
		c-0.26,0.07-0.51,0.14-0.76,0.23c-0.23,0.08-0.46,0.17-0.69,0.26c-0.24,0.09-0.49,0.18-0.73,0.29c-0.23,0.1-0.45,0.21-0.67,0.32
		c-0.23,0.11-0.46,0.22-0.69,0.35c-0.22,0.12-0.43,0.26-0.64,0.39c-0.32,0.2-0.64,0.41-0.94,0.62c-0.29,0.2-0.57,0.41-0.84,0.63
		c-0.19,0.16-0.37,0.33-0.56,0.5c-0.19,0.17-0.38,0.33-0.55,0.5c-0.18,0.18-0.35,0.37-0.52,0.56c-0.17,0.18-0.33,0.36-0.49,0.54
		c-0.17,0.2-0.32,0.4-0.48,0.61c-0.15,0.19-0.29,0.38-0.43,0.58c-0.15,0.21-0.29,0.43-0.43,0.65c-0.13,0.2-0.26,0.41-0.38,0.62
		c-0.13,0.23-0.25,0.46-0.37,0.69c-0.11,0.22-0.21,0.43-0.31,0.65c-0.11,0.24-0.22,0.48-0.31,0.73c-0.09,0.23-0.17,0.45-0.25,0.68
		c-0.09,0.25-0.17,0.51-0.25,0.76c-0.07,0.23-0.12,0.47-0.18,0.71c-0.06,0.26-0.13,0.52-0.18,0.79c-0.05,0.24-0.08,0.49-0.11,0.74
		c-0.04,0.27-0.09,0.54-0.11,0.81c0,0.02-0.01,0.03-0.01,0.05h0c-0.04,0.49-0.08,0.99-0.08,1.5c0,1.12,0.12,2.21,0.34,3.27
		c0,0,0,0,0,0c0.17,0.85,0.41,1.68,0.71,2.47c0,0.01,0.01,0.02,0.01,0.03c0.14,0.38,0.3,0.76,0.47,1.13
		c0.01,0.02,0.02,0.04,0.02,0.06c0.18,0.38,0.37,0.75,0.58,1.12c0,0,0,0,0,0c1.81,3.19,4.66,5.72,8.08,7.12
		C44.73,65.23,46.66,65.64,48.67,65.7z M40.5,42.68c0.16-0.21,0.33-0.41,0.5-0.61c0,0,0,0,0,0c1.4-1.57,3.25-2.73,5.34-3.29v0
		c0.88-0.23,1.81-0.37,2.76-0.37c0.73,0,1.43,0.08,2.12,0.22c0.33,0.07,0.66,0.14,0.98,0.24c0.32,0.1,0.63,0.21,0.93,0.34
		c0.12,0.05,0.24,0.1,0.36,0.16c0.17,0.07,0.33,0.16,0.49,0.24c0.38,0.19,0.74,0.4,1.09,0.64c0.38,0.25,0.75,0.52,1.09,0.82
		c0.17,0.15,0.33,0.32,0.5,0.48c0.07,0.07,0.14,0.13,0.21,0.2c0.07,0.07,0.14,0.13,0.2,0.2c0.1,0.1,0.18,0.22,0.27,0.32
		c0.07,0.08,0.14,0.16,0.2,0.24c0.07,0.08,0.14,0.16,0.2,0.24c0.52,0.68,0.97,1.43,1.31,2.22c0.51,1.18,0.81,2.48,0.88,3.83
		c0.01,0.16,0.03,0.33,0.03,0.49c0,0.01,0,0.01,0,0.02c0,1.77-0.44,3.43-1.19,4.91c-0.09,0.18-0.18,0.36-0.28,0.53
		c-0.87,1.5-2.07,2.77-3.52,3.71c-0.75,0.48-1.56,0.87-2.41,1.16c-0.1,0.03-0.2,0.06-0.31,0.09c-0.1,0.03-0.2,0.06-0.31,0.09
		c-0.14,0.04-0.27,0.08-0.41,0.12c-0.1,0.02-0.2,0.03-0.29,0.05c-0.1,0.02-0.2,0.03-0.29,0.05c-0.2,0.03-0.4,0.08-0.6,0.11
		c-0.41,0.05-0.83,0.08-1.26,0.08c-1.12,0-2.19-0.17-3.21-0.49c-1.54-0.48-2.92-1.29-4.09-2.35c-1.05-0.96-1.92-2.12-2.54-3.43
		c0-0.01-0.01-0.02-0.01-0.03c-0.2-0.43-0.38-0.88-0.52-1.34c-0.32-1.03-0.51-2.13-0.51-3.27c0-0.51,0.05-1.01,0.11-1.5
		C38.61,45.9,39.37,44.15,40.5,42.68z"/>
	<path d="M45.63,41.13c0.03-0.11,0.07-0.22,0.1-0.33l0.11-0.35c-3.13,1.16-5.47,3.94-6.04,7.31c0.2-0.02,0.4-0.04,0.58-0.07
		C43.29,47.26,44.24,45.64,45.63,41.13z"/>
	<path d="M40.87,52.58h-0.62c0.72,1.99,2.1,3.69,3.92,4.8h0c0.34,0,0.68-0.03,1.02-0.09c2.86-0.45,5.58-2.72,6.41-5.56l2.88-9.48
		l0.18-0.58c-0.87-0.64-1.82-1.13-2.85-1.44c-0.33-0.1-0.66-0.17-0.99-0.23l-0.17,0.55l-3.03,9.9c-0.1,0.33-0.28,0.63-0.51,0.9
		c-0.69,0.78-1.85,1.22-2.89,1.22H40.87z"/>
	<polygon points="11.32,52.58 11.32,52.6 11.32,57.38 11.32,61.59 12.07,61.2 14.59,59.91 17.09,61.2 17.85,61.59 17.85,57.38 
		17.85,52.6 17.85,52.58 17.85,51.15 11.32,51.15 	"/>
	<path d="M4.34,49.99c-0.3-0.82-0.26-1.16,0.04-1.61c0.33-0.45,0.93-0.56,1.42-0.56h25.03c0.75-9.32,8.45-16.69,17.89-16.89
		l7.25-23.98c0.52-1.76,0.3-3.51-0.67-4.86C54.36,0.78,52.79,0,51.04,0H22.61c-0.64,0-1.27,0.19-1.91,0.33l0.04-0.11
		C16-1.12,15.7,4,14.13,6.31c-0.6,0.86-1.49,1.61-1.64,2.32c-0.11,0.67,0.26,1.31,0.19,1.94c-0.22,1.98-1.72,5.53-2.61,6.76
		c-0.56,0.75-1.38,1.12-1.64,1.98c-0.22,0.6,0.15,1.46,0.08,2.24c-0.19,1.75-1.5,5.08-2.5,6.8c-0.37,0.67-1.08,1.2-1.27,1.9
		c-0.19,0.63,0.19,1.46,0,2.17c-0.41,1.94-1.68,4.97-2.8,6.84c-0.6,1.01-1.38,1.64-1.53,2.54c-0.08,0.45,0.26,0.93,0.22,1.53
		c-0.04,0.9-0.19,1.64-0.26,2.39c-0.52,1.42-0.52,3.06,0.08,4.74c1.38,3.89,5.45,6.91,9.26,6.91h0.79V52.6H9.72
		C7.67,52.6,5.09,52.15,4.34,49.99z"/>
	<path d="M18.71,52.58v0.02v4.78h13.9c-0.73-1.51-1.25-3.12-1.55-4.8H18.71z"/>
	<path d="M53.43,31.44c0.32,0.08,0.63,0.15,0.95,0.25c1.01,0.3,1.99,0.71,2.95,1.2l4.55-14.99c0.52-1.72,0.26-3.47-0.67-4.82
		c-0.56-0.75-1.35-1.27-2.2-1.61c0.01,0.18,0.02,0.36,0.02,0.54c0.02,0.58-0.01,1.2-0.2,1.8L53.43,31.44z"/>
</g>
</svg>
