<?xml version="1.0" encoding="utf-8"?>
<!-- Generator: Adobe Illustrator 24.0.0, SVG Export Plug-In . SVG Version: 6.00 Build 0)  -->
<svg version="1.1" id="Layer_1" xmlns="http://www.w3.org/2000/svg" xmlns:xlink="http://www.w3.org/1999/xlink" x="0px" y="0px"
	 viewBox="0 0 100 100" style="enable-background:new 0 0 100 100;" xml:space="preserve">
<style type="text/css">
	.st0{fill:none;}
	.st1{fill:#FFFFFF;}
	.st2{fill:#FFFFFF;stroke:#FFFFFF;stroke-width:0.25;stroke-miterlimit:10;}
	.st3{fill:none;stroke:#000000;stroke-width:0.25;stroke-linecap:round;stroke-miterlimit:10;}
	.st4{fill:#D9D9D9;}
	.st5{fill:none;stroke:#000000;stroke-width:2;stroke-linejoin:round;stroke-miterlimit:10;}
	.st6{fill:none;stroke:#000000;stroke-width:0.4396;stroke-miterlimit:10;}
	.st7{fill:none;stroke:#000000;stroke-linecap:round;stroke-linejoin:round;}
	.st8{fill:none;stroke:#000000;stroke-linecap:round;stroke-linejoin:round;stroke-miterlimit:10;}
</style>
<path d="M64.51,89.16H11.74c-0.24,0-0.44-0.2-0.44-0.44s0.2-0.44,0.44-0.44h52.77c0.24,0,0.44,0.2,0.44,0.44
	S64.75,89.16,64.51,89.16z"/>
<g>
	<path d="M86.7,16.56H67.37c-2.51-4.79-9.33-8.25-17.35-8.25c-10.14,0-18.4,5.51-18.4,12.29c0,1.75,0.56,3.42,1.55,4.92h-2.01
		c-0.24,0-0.44,0.2-0.44,0.44s0.2,0.44,0.44,0.44h2.64c3.11,3.86,9.21,6.48,16.21,6.48s13.1-2.63,16.21-6.48h17.71
		c0.24,0,0.44-0.2,0.44-0.44s-0.2-0.44-0.44-0.44H66.85c0.99-1.51,1.55-3.17,1.55-4.92c0-1.09-0.24-2.15-0.64-3.16H86.7
		c0.24,0,0.44-0.2,0.44-0.44S86.94,16.56,86.7,16.56z M50.01,9.72c7.15,0,13.28,2.84,15.8,6.84h-31.6
		C36.73,12.56,42.86,9.72,50.01,9.72z M50.01,31.48c-6.05,0-11.36-2.03-14.38-5.07h28.76C61.37,29.45,56.06,31.48,50.01,31.48z
		 M67.04,20.6c0,1.77-0.68,3.44-1.87,4.92H34.84c-1.18-1.48-1.87-3.15-1.87-4.92c0-1.12,0.27-2.2,0.76-3.21
		c0.06,0.03,0.12,0.05,0.19,0.05H66.3C66.78,18.44,67.04,19.5,67.04,20.6z"/>
	<path d="M81.15,34.49H33.18l1.03-4.65l-7.81,2.47l2.38,2.18h-0.4c-0.24,0-0.44,0.2-0.44,0.44c0,0.2,0.14,0.37,0.33,0.42
		c-5.28,7.87-6.5,17.65-3.26,26.04h-4.96c-0.24,0-0.44,0.2-0.44,0.44s0.2,0.44,0.44,0.44h5.32c0.06,0.14,0.11,0.28,0.17,0.42
		l-2.79,1.76l7.25,3.82l-0.23-6h43.05c0.24,0,0.44-0.2,0.44-0.44s-0.2-0.44-0.44-0.44H29.75l-0.05-1.31l-2.08,1.31h-0.83
		c-2.23-5.36-2.49-11.38-0.89-17.05h52.48c0.24,0,0.44-0.2,0.44-0.44s-0.2-0.44-0.44-0.44H26.15c0.87-2.73,2.17-5.38,3.9-7.81
		l2.4,2.19l0.54-2.47h48.17c0.24,0,0.44-0.2,0.44-0.44S81.4,34.49,81.15,34.49z"/>
	<path d="M14.47,80.07h38.99c0.22,0,0.4-0.18,0.4-0.4c0-0.22-0.18-0.4-0.4-0.4H14.47c-0.22,0-0.4,0.18-0.4,0.4
		C14.07,79.89,14.25,80.07,14.47,80.07z"/>
	<path d="M84.51,55.31l-0.45,0.35L99.59,5.22c0.41-1.33,0.29-2.61-0.33-3.61c-0.64-1.02-1.69-1.58-2.96-1.58H33.66
		c-2.31,0-4.71,1.93-5.47,4.39L0.37,94.78c-0.4,1.31-0.28,2.62,0.34,3.61c0.64,1.02,1.69,1.59,2.96,1.59h62.62
		c2.31,0,4.71-1.93,5.47-4.39l7.6-24.69l10.72-8.35L84.51,55.31z M52.52,71.37c3.25,0.56,6.14,1.31,8.52,2.22l-4.51,3.51l-4.21,9.07
		l9.78-1.83l5.71-4.45c-0.7,4.77-13.24,8.72-28.01,8.72c-15.2,0-28.05-4.19-28.05-9.14c0-3.47,6.31-6.57,15.32-8.11H52.52z
		 M31.83,70.73c2.54-0.25,5.21-0.39,7.97-0.39c2.75,0,5.43,0.14,7.97,0.39H31.83z M57.92,80.03L59,77.7l3.06-2.38l3.15,4.09
		l-3.06,2.38l-2.52,0.47l1.3-2.79L57.92,80.03z M65.27,73.86c-0.12,0.09-0.22,0.14-0.33,0.18c-0.15-0.09-0.3-0.17-0.46-0.25
		c0.01-0.03,0.01-0.05,0.02-0.08c0.06-0.13,0.17-0.27,0.34-0.4l14.89-11.6l-0.36,1.17L65.27,73.86z M62.18,72.71
		c-1.19-0.49-2.52-0.93-3.95-1.33h3.33c0.25,0,0.45-0.14,0.45-0.32c0-0.18-0.2-0.32-0.45-0.32h-5.92c-4.55-1-9.97-1.58-15.84-1.58
		c-5.88,0-11.3,0.58-15.85,1.58H17.3c-0.25,0-0.45,0.14-0.45,0.32c0,0.18,0.2,0.32,0.45,0.32h4.07c-6.75,1.88-11.01,4.79-11.01,8.11
		c0,5.79,12.93,10.33,29.44,10.33c16.51,0,29.44-4.54,29.44-10.33c0-0.22-0.02-0.43-0.06-0.65l6.95-5.41l-6.58,21.36
		c-0.44,1.42-1.96,2.66-3.26,2.66H3.67c-0.48,0-0.84-0.17-1.03-0.47c-0.21-0.33-0.23-0.82-0.05-1.38L30.41,5.22
		c0.44-1.42,1.96-2.66,3.25-2.66h62.62c0.47,0,0.84,0.17,1.03,0.48c0.2,0.32,0.22,0.83,0.05,1.38L80.82,58.18L62.18,72.71z
		 M83.84,59.25c-0.06,0.13-0.17,0.27-0.34,0.4l-0.89,0.69l0.36-1.17l0.1-0.07c0.17-0.13,0.33-0.2,0.47-0.23
		C83.85,58.81,83.97,58.97,83.84,59.25z"/>
	<path d="M99.65,52.58l-3.16-4.07c-0.32-0.42-0.96-0.58-1.76-0.43c-0.8,0.15-1.72,0.6-2.5,1.22l-5.57,4.33l5.57,7.24l5.58-4.35
		c0.77-0.6,1.44-1.38,1.78-2.13C99.94,53.66,99.95,53,99.65,52.58z"/>
</g>
<g>
	<g>
		<path d="M23.24,52.42c0.01,0.29,0.02,0.59,0.04,0.88h1.64c-0.02-0.29-0.03-0.59-0.04-0.88H23.24z M75.61,52.42H25.83
			c0.01,0.29,0.02,0.59,0.04,0.88h49.74c0.24,0,0.44-0.2,0.44-0.44S75.85,52.42,75.61,52.42z"/>
	</g>
</g>
</svg>
