<svg id="Layer_1" data-name="Layer 1" xmlns="http://www.w3.org/2000/svg" viewBox="0 0 100 100"><title> </title><path d="M70.72,87.33H48.18c-.1,0-.19.12-.19.26s.09.27.19.27H70.72c.1,0,.18-.12.18-.27S70.82,87.33,70.72,87.33Z"/><path d="M46.31,93a.27.27,0,0,0,.27.26h32a.27.27,0,1,0,0-.53H46.58A.27.27,0,0,0,46.31,93Z"/><path d="M99.81,71.12,97.9,68.65a1.05,1.05,0,0,0-1.07-.26,3.6,3.6,0,0,0-1.51.74l-3.38,2.63,3.38,4.4,3.38-2.64a3.83,3.83,0,0,0,1.08-1.3A1.13,1.13,0,0,0,99.81,71.12Z"/><path d="M90.64,72.78l-.27.21,9.4-30.62a2.71,2.71,0,0,0-.2-2.2,2,2,0,0,0-1.8-1H64.41l.19.27.16.27c.09.15.18.31.26.47a1.35,1.35,0,0,1,.15.26h32.6a.94.94,0,0,1,.85.42A1.24,1.24,0,0,1,98.68,42L88.77,74.24,73.7,86l-2.55,5.51,5.92-1.11,8.86-6.92L81.84,96.83a2.62,2.62,0,0,1-2.23,1.8H41.69a1,1,0,0,1-.85-.41,1.27,1.27,0,0,1-.06-1.06l9-29.46H48.61L39.69,96.75a2.69,2.69,0,0,0,.21,2.19,2,2,0,0,0,1.79,1H79.61a3.76,3.76,0,0,0,3.31-2.66l4.61-15L94,77.18ZM77.1,88.86l-1.52.28.78-1.69-1.82.34.66-1.42,1.85-1.44L79,87.41ZM79,84a.73.73,0,0,1-.28.14c-.19,0-.26-.06-.18-.23a.73.73,0,0,1,.2-.25l9.38-7.33-.21.72Zm11.24-8.87a.63.63,0,0,1-.2.25l-.54.42.22-.71.06,0a.7.7,0,0,1,.29-.14C90.24,74.91,90.31,75,90.23,75.17Z"/><path d="M52,57.74l.31-.12.44-.19L53,57.3c.12-.06.22-.13.34-.2L57,45.27c-.06-.12-.11-.23-.17-.34s-.13-.2-.19-.3l-.26-.39a2.61,2.61,0,0,0-.19-.27l-.2-.25L51.64,57.83Z"/><path d="M92.23,49.05a.27.27,0,0,0-.26-.27H67.44c0,.18,0,.36,0,.53H92A.26.26,0,0,0,92.23,49.05Z"/><path d="M66.64,54.76H90.29a.27.27,0,0,0,0-.53H66.8C66.75,54.4,66.69,54.58,66.64,54.76Z"/><path d="M66.66,60.2h22a.27.27,0,0,0,0-.53H66.13Z"/><path d="M87.2,65.38a.27.27,0,0,0-.27-.27H71.56l.53.54H86.93A.27.27,0,0,0,87.2,65.38Z"/><path d="M85.52,70.82a.27.27,0,0,0-.27-.26h-12a3.49,3.49,0,0,1-.22.53H85.25A.27.27,0,0,0,85.52,70.82Z"/><path d="M64.14,71.09l-.53-.53H53.3a.27.27,0,1,0,0,.53Z"/><path d="M81.38,76.24a.26.26,0,0,0-.25-.27H51.6a.26.26,0,0,0-.25.27.26.26,0,0,0,.25.26H81.13A.26.26,0,0,0,81.38,76.24Z"/><path d="M75.76,81.68a.24.24,0,0,0-.21-.27H49.89a.28.28,0,0,0,0,.54H75.55A.24.24,0,0,0,75.76,81.68Z"/><path d="M48.67,65.7l.44,0h.67l.39,0,.28,0,.29,0a16.61,16.61,0,0,0,7.64-2.8l.19-.14L61,65.11l.54.54,4.91,4.91.41.41.14.12a2.67,2.67,0,0,0,1.78.7,2.71,2.71,0,0,0,1.79-.7,2.67,2.67,0,0,0,1-2,2.74,2.74,0,0,0-.79-1.93l-1.46-1.46-.53-.54L63.84,60.2l-.53-.53-.86-.86.13-.2a16.22,16.22,0,0,0,2-3.85c.06-.18.13-.35.19-.53a16.55,16.55,0,0,0,.74-4.91h0c0-.18,0-.35,0-.53a16.29,16.29,0,0,0-2.41-8l-.17-.27c0-.09-.12-.17-.18-.26l-.33-.47-.19-.27-.2-.27c-.27-.34-.54-.67-.84-1a16.53,16.53,0,0,0-3.24-2.72c-.38-.24-.76-.46-1.15-.67h0c-.42-.22-.85-.42-1.29-.61l-.26-.11a13.35,13.35,0,0,0-1.38-.5,16.18,16.18,0,0,0-4.69-.7c-.34,0-.67,0-1,.06v0c-.11,0-.2,0-.31,0l-.81.09-.74.11-.79.16-.72.19-.76.22-.7.26c-.24.09-.49.18-.72.29l-.67.32c-.23.12-.47.22-.69.35s-.43.26-.64.39-.64.41-1,.63-.57.41-.84.63l-.56.5-.55.5c-.18.18-.35.37-.53.56l-.49.54c-.17.2-.32.41-.48.61s-.29.38-.43.58-.29.44-.43.66-.26.4-.38.61-.25.46-.37.7-.21.43-.31.65-.22.48-.32.73-.17.46-.25.69-.17.5-.25.76-.12.47-.18.71-.13.53-.18.79-.08.5-.12.74-.08.54-.11.82a.09.09,0,0,1,0,0h0a14.76,14.76,0,0,0-.08,1.5,16.61,16.61,0,0,0,.34,3.26h0a15.58,15.58,0,0,0,.71,2.47v0c.14.39.3.76.47,1.13l0,.06c.17.38.37.75.57,1.11h0A16.28,16.28,0,0,0,48.67,65.7Zm-8.17-23c.16-.21.33-.41.5-.6h0a11,11,0,0,1,5.34-3.29h0a11,11,0,0,1,2.77-.37,10.66,10.66,0,0,1,2.12.22c.33.07.66.14,1,.24a9.33,9.33,0,0,1,.93.34,3.88,3.88,0,0,1,.36.15l.5.24a10,10,0,0,1,1.09.64,9.7,9.7,0,0,1,1.09.82c.18.15.33.31.5.47l.2.2.21.2.27.33.2.24.21.25A10.72,10.72,0,0,1,59.08,45,10.93,10.93,0,0,1,60,48.81c0,.16,0,.32,0,.49v0a10.82,10.82,0,0,1-1.19,4.91c-.09.18-.18.36-.28.53A11,11,0,0,1,55,58.47a10.31,10.31,0,0,1-2.41,1.16l-.3.09-.31.1-.42.11a2.5,2.5,0,0,1-.29,0L51,60c-.21,0-.4.08-.61.1a10.36,10.36,0,0,1-1.25.08A10.92,10.92,0,0,1,39.28,54l0,0a10.46,10.46,0,0,1-.52-1.35,11,11,0,0,1-.51-3.26,10.59,10.59,0,0,1,.12-1.5A10.78,10.78,0,0,1,40.5,42.68Z"/><path d="M45.63,41.13c0-.11.07-.22.1-.33l.11-.36a9.48,9.48,0,0,0-6,7.32l.58-.07C43.29,47.26,44.24,45.64,45.63,41.13Z"/><path d="M40.87,52.58h-.62a9.33,9.33,0,0,0,3.91,4.8h0a7,7,0,0,0,1-.08,8.26,8.26,0,0,0,6.41-5.56l2.88-9.48.17-.58a9.09,9.09,0,0,0-2.85-1.43,8.9,8.9,0,0,0-1-.24l-.17.56-3,9.9a2.4,2.4,0,0,1-.51.89,4,4,0,0,1-2.89,1.22Z"/><polygon points="11.32 52.58 11.32 52.6 11.32 57.38 11.32 61.59 12.07 61.2 14.59 59.91 17.09 61.2 17.85 61.59 17.85 57.38 17.85 52.6 17.85 52.58 17.85 51.16 11.32 51.16 11.32 52.58"/><path d="M4.34,50c-.3-.82-.26-1.16,0-1.61a1.73,1.73,0,0,1,1.42-.56h25A18.38,18.38,0,0,1,48.72,30.93L56,7a5.52,5.52,0,0,0-.67-4.86A5.18,5.18,0,0,0,51,0H22.61a8.9,8.9,0,0,0-1.9.33l0-.11C16-1.12,15.7,4,14.13,6.31c-.6.86-1.49,1.61-1.64,2.32s.26,1.31.18,1.94a19.81,19.81,0,0,1-2.61,6.77c-.56.74-1.39,1.12-1.65,2-.22.59.15,1.45.08,2.24A22.83,22.83,0,0,1,6,28.36c-.38.67-1.09,1.19-1.27,1.9s.18,1.46,0,2.17a26.58,26.58,0,0,1-2.81,6.83c-.59,1-1.38,1.65-1.53,2.54-.07.45.26.94.23,1.54,0,.89-.19,1.64-.27,2.39a6.91,6.91,0,0,0,.08,4.74c1.38,3.89,5.46,6.91,9.27,6.91h.78V52.6H9.72C7.67,52.6,5.09,52.15,4.34,50Z"/><path d="M18.71,52.58v4.8h13.9a18.24,18.24,0,0,1-1.56-4.8Z"/><path d="M53.43,31.44l.94.25a17.39,17.39,0,0,1,3,1.2l4.55-15a5.5,5.5,0,0,0-.67-4.81A5,5,0,0,0,59,11.47c0,.18,0,.36,0,.54a5.32,5.32,0,0,1-.19,1.8Z"/></svg>