<svg id="Layer_1" data-name="Layer 1" xmlns="http://www.w3.org/2000/svg" viewBox="0 0 100 100"><defs><style>.cls-1{fill:#231f20;}</style></defs><title> </title><path class="cls-1" d="M99.3,51.1A6.12,6.12,0,0,0,88,48l-6.9-9a6.08,6.08,0,0,0-9.66,0,6.11,6.11,0,0,0-8.57,6.7,6.22,6.22,0,0,0-2.39,9.49l.59.77a6.18,6.18,0,0,0-1.79,9.11l1,1.36H53.79a6.16,6.16,0,0,0-5.92,7.7,6.17,6.17,0,0,0-.07,10.93,6.18,6.18,0,0,0,6,7.76h.9a6.15,6.15,0,0,0,6,7H72.57a18.18,18.18,0,0,0,4.15-.49l8.87-2.12a6.79,6.79,0,0,0,5.19-6.62V78.86l6.49-5.13a6.85,6.85,0,0,0,2.58-5.58ZM65.87,60l.93,1.22a5.13,5.13,0,0,0,.13,6.3h-.79l-3.72-4.84A2.18,2.18,0,1,1,65.87,60Zm21,30.64a2.84,2.84,0,0,1-2.16,2.78L75.8,95.52a16.76,16.76,0,0,1-3.23.38H60.72a2.2,2.2,0,0,1-2.16-2.17,2.16,2.16,0,0,1,.64-1.58,2.2,2.2,0,0,1,1.59-.67h6.86a1,1,0,0,0,1-1v-.64a1,1,0,0,0-1-1H53.77c-2.89,0-3-4.42-.06-4.42H67.65a1,1,0,0,0,1-1v-.64a1,1,0,0,0-1-1h-17c-2.89,0-3-4.42-.06-4.42h17a1,1,0,0,0,1-1v-.64a1,1,0,0,0-1-1H53.85c-2.89,0-3-4.42-.06-4.42H72.38A1,1,0,0,0,73,68.59l-3.43-2.53c-2.37-1.74.25-5.27,2.53-3.59l13.6,10a2.84,2.84,0,0,1,1.16,2.3Zm8-20-5.13,4.06a5.79,5.79,0,0,0-2.32-4.49l-13.61-10a5,5,0,0,0-4.91-.57l-5.23-6.82C61.84,50.45,65.19,47.65,67,50l8.57,11.17a1.11,1.11,0,0,0,.65.38h.13a1.21,1.21,0,0,0,.61-.21l.5-.4a1.11,1.11,0,0,0,.37-.77,1.13,1.13,0,0,0-.2-.6L67.2,46c-1.78-2.32,1.57-5.12,3.37-2.78L81,56.84a1.17,1.17,0,0,0,.66.38h.13a1.12,1.12,0,0,0,.61-.21l.49-.39a1.08,1.08,0,0,0,.38-.77,1.2,1.2,0,0,0-.2-.61L74.61,44.19c-1.78-2.32,1.56-5.13,3.36-2.77L89.39,56.3a1.14,1.14,0,0,0,.79.38,1,1,0,0,0,1-1v0L91,51.37a2.17,2.17,0,1,1,4.33-.15l.55,17.06A2.88,2.88,0,0,1,94.82,70.63Z"/><path class="cls-1" d="M58,41l1.73-.87a4.21,4.21,0,0,0,2.13-3.45V30.87a30.87,30.87,0,0,0-61.74,0v5.79a4.22,4.22,0,0,0,2.14,3.45L4,41a13.5,13.5,0,0,0,13.5,13h2.89a2.89,2.89,0,0,0,2.9-2.89V29.91a2.9,2.9,0,0,0-2.9-2.9H17.46a13.44,13.44,0,0,0-9.65,4.06v-.2a23.16,23.16,0,0,1,46.31,0v.2A13.46,13.46,0,0,0,44.47,27H41.58a2.9,2.9,0,0,0-2.9,2.9V51.13A2.89,2.89,0,0,0,41.58,54h2.89A13.5,13.5,0,0,0,58,41Z"/></svg>