<?xml version="1.0" encoding="utf-8"?>
<!-- Generator: Adobe Illustrator 24.0.0, SVG Export Plug-In . SVG Version: 6.00 Build 0)  -->
<svg version="1.1" id="Layer_1" xmlns="http://www.w3.org/2000/svg" xmlns:xlink="http://www.w3.org/1999/xlink" x="0px" y="0px"
	 viewBox="0 0 100 100" style="enable-background:new 0 0 100 100;" xml:space="preserve">
<style type="text/css">
	.st0{fill:none;}
	.st1{fill:#FFFFFF;}
	.st2{fill:#FFFFFF;stroke:#FFFFFF;stroke-width:0.25;stroke-miterlimit:10;}
	.st3{fill:none;stroke:#000000;stroke-width:0.25;stroke-linecap:round;stroke-miterlimit:10;}
	.st4{fill:#D9D9D9;}
	.st5{fill:none;stroke:#000000;stroke-width:2;stroke-linejoin:round;stroke-miterlimit:10;}
	.st6{fill:none;stroke:#000000;stroke-width:0.4396;stroke-miterlimit:10;}
	.st7{fill:none;stroke:#000000;stroke-linecap:round;stroke-linejoin:round;}
	.st8{fill:none;stroke:#000000;stroke-linecap:round;stroke-linejoin:round;stroke-miterlimit:10;}
</style>
<g>
	<path d="M86.65,16.56H33.88c-0.24,0-0.44,0.2-0.44,0.44s0.2,0.44,0.44,0.44h52.77c0.24,0,0.44-0.2,0.44-0.44
		S86.9,16.56,86.65,16.56z"/>
	<path d="M83.88,25.53h-6.37l-0.45-0.6l3.26-2.81l-0.7-0.96l-3.27,2.82l-2.09-2.82l-1.1,0.96l2.08,2.81l-0.7,0.6H58.27
		c0.03-0.22,0.04-0.44,0.04-0.67c0-3.23-2.84-5.86-6.33-5.86s-6.33,2.63-6.33,5.86c0,0.23,0.02,0.45,0.04,0.67H31.11
		c-0.24,0-0.44,0.2-0.44,0.44s0.2,0.44,0.44,0.44h14.78c0.74,2.48,3.19,4.31,6.1,4.31s5.36-1.83,6.1-4.31h15.43l-1.54,1.32
		l0.72,0.96l2.65-2.28h1l1.7,2.28l1.12-0.96l-0.98-1.32h5.72c0.24,0,0.44-0.2,0.44-0.44S84.12,25.53,83.88,25.53z M47.1,24.86
		c0-2.33,2.19-4.22,4.89-4.22s4.89,1.89,4.89,4.22c0,0.23-0.04,0.45-0.08,0.67h-9.63C47.13,25.31,47.1,25.09,47.1,24.86z
		 M51.99,29.08c-2.06,0-3.82-1.11-4.54-2.68h9.08C55.81,27.97,54.05,29.08,51.99,29.08z"/>
	<path d="M81.11,34.49H28.34c-0.24,0-0.44,0.2-0.44,0.44s0.2,0.44,0.44,0.44h52.77c0.24,0,0.44-0.2,0.44-0.44
		S81.35,34.49,81.11,34.49z"/>
	<path d="M78.33,43.46H42.92c0.02-0.17,0.04-0.34,0.04-0.51c0-3.71-4.18-6.62-9.53-6.62s-9.53,2.91-9.53,6.62
		c0,3.72,4.18,6.63,9.53,6.63c4.66,0,8.43-2.21,9.32-5.24h35.59c0.24,0,0.44-0.2,0.44-0.44S78.58,43.46,78.33,43.46z M33.43,37.96
		c4.39,0,8.09,2.29,8.09,4.99c0,0.17-0.02,0.34-0.04,0.51H25.56c-0.06,0-0.12,0.01-0.17,0.04c-0.03-0.18-0.05-0.36-0.05-0.54
		C25.34,40.24,29.04,37.96,33.43,37.96z M33.43,47.94c-3.61,0-6.75-1.55-7.75-3.61h15.51C40.18,46.39,37.03,47.94,33.43,47.94z"/>
	<path d="M75.56,52.42H62.22l-0.3-0.4l3.26-2.81l-0.7-0.96l-3.28,2.82l-2.09-2.82L58,49.21l2.08,2.81l-0.47,0.4H22.79
		c-0.24,0-0.44,0.2-0.44,0.44s0.2,0.44,0.44,0.44h35.81l-1.77,1.52l0.72,0.96l2.88-2.48h0.62l1.84,2.48L64,54.82l-1.13-1.52h12.69
		c0.24,0,0.44-0.2,0.44-0.44S75.8,52.42,75.56,52.42z"/>
	<path d="M72.79,61.39H20.02c-0.24,0-0.44,0.2-0.44,0.44s0.2,0.44,0.44,0.44h52.77c0.24,0,0.44-0.2,0.44-0.44
		S73.03,61.39,72.79,61.39z"/>
	<path d="M60.07,70.35H17.24c-0.24,0-0.44,0.2-0.44,0.44s0.2,0.44,0.44,0.44h42.83c0.24,0,0.44-0.2,0.44-0.44
		S60.31,70.35,60.07,70.35z"/>
	<path d="M11.25,88.72c0,0.24,0.2,0.44,0.44,0.44h52.77c0.24,0,0.44-0.2,0.44-0.44s-0.2-0.44-0.44-0.44H11.69
		C11.45,88.28,11.25,88.48,11.25,88.72z"/>
	<path d="M84.47,55.31l-0.45,0.35L99.54,5.22c0.41-1.33,0.29-2.61-0.33-3.61c-0.64-1.02-1.69-1.58-2.96-1.58H33.62
		c-2.31,0-4.71,1.93-5.47,4.39L0.32,94.78c-0.4,1.31-0.28,2.62,0.34,3.61c0.64,1.02,1.69,1.59,2.96,1.59h62.62
		c2.31,0,4.71-1.93,5.47-4.39l7.6-24.69l10.72-8.35L84.47,55.31z M57.87,80.03l1.08-2.33l3.06-2.38l3.15,4.09l-3.06,2.38l-2.52,0.47
		l1.3-2.79L57.87,80.03z M64.76,74.09c-0.3,0.06-0.43-0.1-0.29-0.38c0.06-0.13,0.17-0.27,0.34-0.4l14.89-11.6l-0.36,1.17
		l-14.1,10.98C65.06,73.99,64.9,74.06,64.76,74.09z M56.48,77.1l-1.03,2.21h-5.6c-0.13-3.12-2.91-5.62-6.32-5.62
		c-3.4,0-6.18,2.5-6.31,5.62H14.47c-0.24,0-0.44,0.2-0.44,0.44s0.2,0.44,0.44,0.44h22.79c0.35,2.93,3.03,5.21,6.29,5.21
		c3.25,0,5.94-2.29,6.29-5.21h5.22l-2.78,5.98l9.78-1.83l14.02-10.93L69.5,94.78c-0.44,1.42-1.96,2.66-3.26,2.66H3.62
		c-0.48,0-0.84-0.17-1.03-0.47c-0.21-0.33-0.23-0.82-0.05-1.38L30.36,5.22c0.44-1.42,1.96-2.66,3.25-2.66h62.62
		c0.47,0,0.84,0.17,1.03,0.48c0.2,0.32,0.22,0.83,0.05,1.38L80.77,58.18L56.48,77.1z M38.68,79.32c0.14-2.22,2.26-3.99,4.86-3.99
		c2.6,0,4.72,1.77,4.86,3.99H38.68z M48.36,80.2c-0.36,2.02-2.37,3.58-4.82,3.58c-2.44,0-4.45-1.56-4.82-3.58H48.36z M83.79,59.25
		c-0.06,0.13-0.17,0.27-0.34,0.4l-0.89,0.69l0.36-1.17l0.1-0.07c0.17-0.13,0.33-0.2,0.47-0.23C83.8,58.81,83.92,58.97,83.79,59.25z"
		/>
	<path d="M99.6,52.58l-3.16-4.07c-0.32-0.42-0.96-0.58-1.76-0.43c-0.8,0.15-1.72,0.6-2.5,1.22l-5.57,4.33l5.57,7.24l5.58-4.35
		c0.77-0.6,1.44-1.38,1.78-2.13C99.9,53.66,99.9,53,99.6,52.58z"/>
</g>
</svg>
