<?xml version="1.0" encoding="utf-8"?>
<!-- Generator: Adobe Illustrator 24.0.0, SVG Export Plug-In . SVG Version: 6.00 Build 0)  -->
<svg version="1.1" id="Layer_1" xmlns="http://www.w3.org/2000/svg" xmlns:xlink="http://www.w3.org/1999/xlink" x="0px" y="0px"
	 viewBox="0 0 100 100" style="enable-background:new 0 0 100 100;" xml:space="preserve">
<style type="text/css">
	.st0{fill:none;}
	.st1{fill:#FFFFFF;}
	.st2{fill:#FFFFFF;stroke:#FFFFFF;stroke-width:0.25;stroke-miterlimit:10;}
	.st3{fill:none;stroke:#000000;stroke-width:0.25;stroke-linecap:round;stroke-miterlimit:10;}
	.st4{fill:#D9D9D9;}
	.st5{fill:none;stroke:#000000;stroke-width:2;stroke-linejoin:round;stroke-miterlimit:10;}
	.st6{fill:none;stroke:#000000;stroke-width:0.4396;stroke-miterlimit:10;}
	.st7{fill:none;stroke:#000000;stroke-linecap:round;stroke-linejoin:round;}
	.st8{fill:none;stroke:#000000;stroke-linecap:round;stroke-linejoin:round;stroke-miterlimit:10;}
</style>
<g>
	<path d="M99.65,52.58l-3.16-4.07c-0.32-0.42-0.96-0.58-1.76-0.43c-0.8,0.15-1.72,0.6-2.5,1.22l-5.57,4.33l5.57,7.24l5.58-4.35
		c0.77-0.6,1.44-1.38,1.78-2.13S99.95,53,99.65,52.58z"/>
	<path d="M84.51,55.31l-0.45,0.35L99.59,5.22c0.41-1.33,0.29-2.61-0.33-3.61c-0.64-1.02-1.69-1.58-2.96-1.58H33.66
		c-2.31,0-4.71,1.93-5.47,4.39L0.37,94.78c-0.4,1.31-0.28,2.62,0.34,3.61c0.64,1.02,1.69,1.59,2.96,1.59h62.62
		c2.31,0,4.71-1.93,5.47-4.39l7.6-24.69l10.72-8.35L84.51,55.31z M69.55,94.78c-0.44,1.42-1.96,2.66-3.26,2.66H3.67
		c-0.48,0-0.84-0.17-1.03-0.47c-0.21-0.33-0.23-0.82-0.05-1.38L30.41,5.22c0.44-1.42,1.96-2.66,3.25-2.66h62.62
		c0.47,0,0.84,0.17,1.03,0.48c0.2,0.32,0.22,0.83,0.05,1.38L80.82,58.18L56.53,77.1l-1.03,2.21H14.51c-0.24,0-0.44,0.2-0.44,0.44
		s0.2,0.44,0.44,0.44H55.1l-2.78,5.98l9.78-1.83l14.02-10.93L69.55,94.78z M57.92,80.03L59,77.7l3.06-2.38l3.15,4.09l-3.06,2.38
		l-2.52,0.47l1.3-2.79L57.92,80.03z M64.8,74.09c-0.3,0.06-0.43-0.1-0.29-0.38c0.06-0.13,0.17-0.27,0.34-0.4l14.89-11.6l-0.36,1.17
		l-14.1,10.98C65.11,73.99,64.94,74.06,64.8,74.09z M83.84,59.25c-0.06,0.13-0.17,0.27-0.34,0.4l-0.89,0.69l0.36-1.17l0.1-0.07
		c0.17-0.13,0.33-0.2,0.47-0.23C83.85,58.81,83.97,58.97,83.84,59.25z"/>
	<path d="M21.97,82.14c-3.81-0.15-7.03,2.48-7.16,5.86c0,0.09,0,0.19,0,0.28h-3.08c-0.24,0-0.44,0.2-0.44,0.44s0.2,0.44,0.44,0.44
		h3.15c0.5,2.86,3.22,5.13,6.59,5.26c3.58,0.14,6.64-2.17,7.1-5.26h35.93c0.24,0,0.44-0.2,0.44-0.44s-0.2-0.44-0.44-0.44H28.64
		C28.6,85.02,25.68,82.29,21.97,82.14z M15.32,88.03c0.12-3,3.09-5.32,6.62-5.18c3.43,0.14,6.14,2.55,6.18,5.44h-12.8
		C15.33,88.2,15.32,88.11,15.32,88.03z M21.51,93.72c-3.07-0.12-5.57-2.08-6.09-4.56h12.64C27.58,91.85,24.79,93.85,21.51,93.72z"/>
	<path d="M81.15,34.49h-3.68l2.75-2.37l-0.7-0.96l-3.27,2.82l-2.09-2.82l-1.1,0.96l1.76,2.37H56.96l-0.41,0.18
		c0.06,0.23,0.08,0.47,0.12,0.7h17.95l-2.75,2.37l0.72,0.96l3.26-2.81l2.08,2.81l1.12-0.96l-1.76-2.37h3.87
		c0.24,0,0.44-0.2,0.44-0.44S81.4,34.49,81.15,34.49z"/>
	<path d="M54.74,44.34C54.74,44.34,54.74,44.34,54.74,44.34c1.65-3.04,2.13-6.57,1.25-9.84c0,0,0,0,0,0l0,0
		c-0.01-0.03-0.02-0.07-0.03-0.1l1.45-0.63l-3.17-2.33l-0.43,3.91l1.42-0.63c0.06,0.22,0.09,0.44,0.13,0.66l0,0
		c0.57,2.71,0.17,5.55-1.08,8.09l0,0c-0.15,0.3-0.29,0.59-0.45,0.88c-0.53,0.91-1.17,1.78-1.93,2.56l-0.98-1.21l-1.41,3.67
		l3.88-0.62l-0.99-1.23C53.34,46.55,54.12,45.48,54.74,44.34L54.74,44.34z"/>
	<path d="M78.38,43.46H55.71c-0.13,0.3-0.27,0.59-0.42,0.88h23.09c0.24,0,0.44-0.2,0.44-0.44S78.62,43.46,78.38,43.46z"/>
	<path d="M25.61,44.34h27.62c0.18-0.29,0.35-0.58,0.51-0.88H25.61c-0.24,0-0.44,0.2-0.44,0.44S25.37,44.34,25.61,44.34z"/>
	<path d="M17.29,71.23h32.75l-2.75,2.37L48,74.56l3.26-2.81l2.08,2.81l1.12-0.96l-1.76-2.37h7.41c0.24,0,0.44-0.2,0.44-0.44
		s-0.2-0.44-0.44-0.44h-7.22l2.75-2.37l-0.7-0.96l-3.28,2.82l-2.09-2.82l-1.11,0.96l1.76,2.37H17.29c-0.24,0-0.44,0.2-0.44,0.44
		S17.04,71.23,17.29,71.23z"/>
	<path d="M20.06,62.27h52.77c0.24,0,0.44-0.2,0.44-0.44s-0.2-0.44-0.44-0.44H20.06c-0.24,0-0.44,0.2-0.44,0.44
		S19.82,62.27,20.06,62.27z"/>
	<path d="M22.83,53.3h3.1c1.43,2.75,5.85,4.88,11.14,5.09c5.89,0.24,10.87-1.98,11.94-5.09h26.59c0.24,0,0.44-0.2,0.44-0.44
		s-0.2-0.44-0.44-0.44h-26.4c0.01-0.07,0.03-0.14,0.03-0.22c0.15-3.67-5.07-6.88-11.63-7.14c-6.56-0.26-12.02,2.51-12.16,6.18
		c-0.02,0.4,0.04,0.79,0.15,1.17h-2.76c-0.24,0-0.44,0.2-0.44,0.44S22.59,53.3,22.83,53.3z M37.1,57.63
		c-4.77-0.19-8.76-1.99-10.2-4.33H48.1C47,55.97,42.45,57.84,37.1,57.63z M26.33,51.29c0.13-3.25,5.18-5.7,11.25-5.46
		c6.07,0.24,10.91,3.09,10.78,6.34c0,0.08-0.02,0.17-0.03,0.25H26.49C26.37,52.05,26.31,51.67,26.33,51.29z"/>
	<path d="M28.38,35.37H53.3l0.01-0.09l0.09-0.78H28.38c-0.24,0-0.44,0.2-0.44,0.44S28.14,35.37,28.38,35.37z"/>
	<path d="M31.16,26.41h4.57c2.97,2.22,7.9,3.66,13.61,3.67c5.75,0.01,10.73-1.43,13.7-3.67h20.89c0.24,0,0.44-0.2,0.44-0.44
		s-0.2-0.44-0.44-0.44H64.06c1.2-1.2,1.89-2.57,1.89-4.04c0-1.47-0.68-2.85-1.87-4.05H86.7c0.24,0,0.44-0.2,0.44-0.44
		s-0.2-0.44-0.44-0.44H63.06c-2.96-2.26-7.93-3.72-13.69-3.73c-5.81-0.01-10.83,1.45-13.79,3.73h-1.66c-0.24,0-0.44,0.2-0.44,0.44
		s0.2,0.44,0.44,0.44h0.67c-1.17,1.18-1.83,2.53-1.84,3.98c0,1.5,0.69,2.89,1.93,4.11h-3.54c-0.24,0-0.44,0.2-0.44,0.44
		S30.92,26.41,31.16,26.41z M49.34,29.09c-4.67-0.01-8.93-1.06-11.85-2.68H61.3C58.37,28.04,54.06,29.1,49.34,29.09z M49.37,13.82
		c4.73,0.01,9.04,1.09,11.96,2.74H37.3C40.23,14.89,44.59,13.81,49.37,13.82z M33.55,21.42c0-1.45,0.91-2.81,2.43-3.98h26.69
		c1.56,1.18,2.49,2.57,2.49,4.05c0,1.47-0.94,2.86-2.51,4.04H36.11C34.5,24.33,33.55,22.92,33.55,21.42z"/>
</g>
</svg>
