<?xml version="1.0" encoding="utf-8"?>
<!-- Generator: Adobe Illustrator 24.0.0, SVG Export Plug-In . SVG Version: 6.00 Build 0)  -->
<svg version="1.1" id="Layer_1" xmlns="http://www.w3.org/2000/svg" xmlns:xlink="http://www.w3.org/1999/xlink" x="0px" y="0px"
	 viewBox="0 0 100 100" style="enable-background:new 0 0 100 100;" xml:space="preserve">
<style type="text/css">
	.st0{fill:none;}
	.st1{fill:#FFFFFF;}
	.st2{fill:#FFFFFF;stroke:#FFFFFF;stroke-width:0.25;stroke-miterlimit:10;}
	.st3{fill:none;stroke:#000000;stroke-width:0.25;stroke-linecap:round;stroke-miterlimit:10;}
	.st4{fill:#D9D9D9;}
	.st5{fill:none;stroke:#000000;stroke-width:2;stroke-linejoin:round;stroke-miterlimit:10;}
	.st6{fill:none;stroke:#000000;stroke-width:0.4396;stroke-miterlimit:10;}
	.st7{fill:none;stroke:#000000;stroke-linecap:round;stroke-linejoin:round;}
	.st8{fill:none;stroke:#000000;stroke-linecap:round;stroke-linejoin:round;stroke-miterlimit:10;}
</style>
<g>
	<path d="M98.8,93.49L87.25,81.93l0.19-0.27c2.63-3.8,4.02-8.28,4.02-12.94c0-5.96-2.31-11.38-6.06-15.45
		c-1.34-1.45-2.86-2.72-4.53-3.79c-1.08-0.69-2.22-1.28-3.4-1.78c-0.12-0.05-0.24-0.1-0.36-0.15c-0.63-0.26-1.28-0.5-1.94-0.7
		c-2.08-0.62-4.27-0.97-6.55-0.97c-2.59,0-5.08,0.44-7.41,1.24c-0.03,0.01-0.05,0.02-0.08,0.03c-0.61,0.21-1.21,0.45-1.8,0.71
		c-0.03,0.01-0.06,0.03-0.1,0.04c-0.59,0.27-1.17,0.56-1.73,0.87c-0.01,0.01-0.02,0.01-0.04,0.02c-1.73,0.97-3.31,2.16-4.73,3.53
		c-0.01,0.01-0.03,0.03-0.05,0.04c-0.46,0.44-0.89,0.91-1.31,1.39c-0.02,0.03-0.05,0.05-0.07,0.08c-0.42,0.48-0.81,0.98-1.19,1.5
		c-0.01,0.02-0.03,0.04-0.04,0.06c-1.54,2.13-2.72,4.54-3.45,7.13c-0.01,0.03-0.02,0.05-0.02,0.08c-0.18,0.63-0.33,1.28-0.45,1.93
		c-0.01,0.03-0.01,0.05-0.01,0.08c-0.24,1.33-0.38,2.7-0.38,4.1c0,1.56,0.17,3.08,0.47,4.55l0,0c0,0,0,0,0,0
		c0.24,1.18,0.57,2.33,0.99,3.44c0,0.01,0.01,0.02,0.01,0.04c0.2,0.54,0.42,1.06,0.66,1.58c0.01,0.02,0.02,0.05,0.03,0.07
		c2.44,5.18,6.76,9.3,12.09,11.47c2.47,1.01,5.16,1.58,7.97,1.66c0.2,0.01,0.4,0.03,0.61,0.03c1.8,0,3.6-0.23,5.35-0.65
		c2.72-0.66,5.31-1.8,7.59-3.37l0.27-0.19l11.55,11.52c0.7,0.73,1.67,1.14,2.69,1.14c2.08,0,3.83-1.75,3.83-3.83
		C99.91,95.18,99.49,94.17,98.8,93.49z M76.84,81.46c-1.91,1.23-4.1,2.05-6.46,2.33c-0.58,0.07-1.16,0.11-1.75,0.11
		c-1.56,0-3.06-0.24-4.48-0.68c-2.15-0.66-4.08-1.8-5.71-3.27c-1.47-1.33-2.67-2.94-3.53-4.75c-0.01-0.03-0.03-0.05-0.04-0.08
		c-0.13-0.28-0.25-0.56-0.37-0.85c-0.01-0.04-0.03-0.07-0.04-0.11c-0.11-0.29-0.22-0.59-0.32-0.9l0,0
		c-0.45-1.44-0.71-2.96-0.71-4.55c0-0.71,0.07-1.4,0.16-2.09c0.42-3.05,1.75-5.81,3.7-8c0,0,0,0,0,0c1.95-2.19,4.53-3.81,7.46-4.58
		v0c1.24-0.33,2.52-0.52,3.86-0.52c1.02,0,2,0.11,2.96,0.3l0,0c0.46,0.09,0.92,0.2,1.37,0.33c0.44,0.13,0.88,0.29,1.3,0.47
		c0.17,0.07,0.34,0.14,0.5,0.22c0.23,0.1,0.46,0.22,0.69,0.33c0.52,0.27,1.04,0.56,1.52,0.89c0.53,0.35,1.05,0.73,1.53,1.14
		c1.73,1.48,3.12,3.34,4.05,5.45c0.81,1.85,1.26,3.9,1.26,6.05C83.8,74.06,81.02,78.76,76.84,81.46z"/>
	<path d="M63.91,56.85l0.15-0.49c-4.37,1.62-7.64,5.48-8.43,10.18C60.44,66.12,61.75,63.91,63.91,56.85z"/>
	<path d="M70.99,55.76l-4.46,14.55c-0.14,0.47-0.39,0.88-0.71,1.25c-0.96,1.09-2.58,1.7-4.03,1.7h-5.54
		c1.01,2.77,2.93,5.13,5.47,6.69h0c4.49,0,9.08-3.43,10.38-7.86l4.26-14c-1.22-0.89-2.55-1.57-3.98-2
		C71.92,55.95,71.46,55.85,70.99,55.76z"/>
	<polygon points="15.86,73.26 15.86,73.29 15.86,79.95 15.86,85.8 16.91,85.26 20.42,83.47 23.92,85.26 24.98,85.8 24.98,79.95 
		24.98,73.29 24.98,73.26 24.98,71.28 15.86,71.28 	"/>
	<path d="M6.12,69.65c-0.42-1.14-0.36-1.62,0.05-2.24c0.47-0.63,1.3-0.78,1.98-0.78h35.73C44.92,54.17,55.2,44.29,67.84,43.9
		L78.2,9.73c0.73-2.45,0.42-4.89-0.94-6.76c-1.3-1.82-3.49-2.91-5.94-2.91h-39.7c-0.89,0-1.78,0.26-2.66,0.47l0.05-0.16
		c-6.63-1.87-7.04,5.25-9.24,8.48c-0.83,1.2-2.08,2.24-2.29,3.23c-0.16,0.94,0.36,1.82,0.26,2.7c-0.31,2.76-2.4,7.7-3.65,9.42
		c-0.78,1.04-1.93,1.56-2.3,2.76c-0.31,0.83,0.21,2.03,0.11,3.12c-0.26,2.44-2.09,7.07-3.49,9.47c-0.52,0.93-1.51,1.66-1.78,2.65
		c-0.26,0.88,0.26,2.03,0,3.02c-0.57,2.7-2.35,6.92-3.91,9.52c-0.83,1.41-1.93,2.29-2.14,3.54c-0.11,0.63,0.37,1.3,0.31,2.13
		c-0.05,1.25-0.26,2.29-0.36,3.33c-0.73,1.98-0.73,4.27,0.11,6.6c1.93,5.41,7.62,9.62,12.94,9.62h1.1v-6.66h-1.04
		C10.76,73.29,7.16,72.66,6.12,69.65z"/>
	<path d="M26.17,73.26v0.03v6.66h20.3c-1.06-2.09-1.82-4.34-2.26-6.69H26.17z"/>
	<path d="M74.42,44.59c0.44,0.11,0.89,0.21,1.32,0.35c1.4,0.42,2.78,0.99,4.11,1.68l6.59-21.64c0.73-2.39,0.36-4.84-0.94-6.71
		c-0.78-1.04-1.88-1.77-3.08-2.24c0.01,0.24,0.02,0.5,0.02,0.75c0.02,0.81-0.01,1.67-0.28,2.51L74.42,44.59z"/>
</g>
</svg>
