<svg id="Layer_1" data-name="Layer 1" xmlns="http://www.w3.org/2000/svg" viewBox="0 0 100 100"><defs><style>.cls-1{fill:#231f20;}</style></defs><title> </title><path class="cls-1" d="M21.51,26.9a.35.35,0,0,0,.34.34H41.77l.21-.68H21.85A.34.34,0,0,0,21.51,26.9Z"/><path class="cls-1" d="M23.65,20a.34.34,0,0,0,.34.33H64.61a.34.34,0,1,0,0-.67H24A.34.34,0,0,0,23.65,20Z"/><path class="cls-1" d="M26.64,75H2.83a.91.91,0,0,1-.8-.36,1.33,1.33,0,0,1,0-1.07L23.41,4A3,3,0,0,1,25.92,2h48.2a.89.89,0,0,1,.8.37,1.3,1.3,0,0,1,0,1.06L69.33,21.7h1.89L76.66,4a3.32,3.32,0,0,0-.25-2.78A2.58,2.58,0,0,0,74.12,0H25.92a4.77,4.77,0,0,0-4.21,3.38L.29,73a3.35,3.35,0,0,0,.26,2.78A2.58,2.58,0,0,0,2.83,77H26Z"/><path class="cls-1" d="M19.38,33.8a.34.34,0,0,0,.34.34H39.58l.22-.68H19.72A.34.34,0,0,0,19.38,33.8Z"/><path class="cls-1" d="M66.75,12.76H26.12a.34.34,0,1,0,0,.67H66.75a.34.34,0,0,0,0-.67Z"/><path class="cls-1" d="M11.26,61.41a.34.34,0,0,0,.34.33H30.84l.22-.67H11.6A.34.34,0,0,0,11.26,61.41Z"/><path class="cls-1" d="M13.39,54.5a.34.34,0,0,0,.34.34H33l.21-.67H13.73A.34.34,0,0,0,13.39,54.5Z"/><path class="cls-1" d="M9.12,68.31a.34.34,0,0,0,.34.34h19.2l.21-.68H9.46A.34.34,0,0,0,9.12,68.31Z"/><path class="cls-1" d="M15.53,47.6a.34.34,0,0,0,.34.34H35.21l.22-.68H15.87A.34.34,0,0,0,15.53,47.6Z"/><path class="cls-1" d="M17.24,40.7a.34.34,0,0,0,.34.34H37.4l.21-.68h-20A.34.34,0,0,0,17.24,40.7Z"/><path class="cls-1" d="M89.67,36.24H74.92C73,32.58,67.81,30,61.69,30c-7.74,0-14,4.2-14,9.37a6.77,6.77,0,0,0,1.18,3.76H47.31a.34.34,0,1,0,0,.67h2c2.37,2.94,7,4.94,12.37,4.94s10-2,12.36-4.94h13.5a.34.34,0,1,0,0-.67h-13a6.78,6.78,0,0,0,1.19-3.76,6.44,6.44,0,0,0-.49-2.41H89.67a.34.34,0,0,0,0-.67ZM61.69,31c5.45,0,10.13,2.17,12,5.22H49.64C51.56,33.19,56.23,31,61.69,31Zm0,16.6c-4.62,0-8.66-1.55-11-3.87H72.65C70.35,46.07,66.3,47.62,61.69,47.62Zm13-8.3a6,6,0,0,1-1.43,3.76H50.12a6,6,0,0,1-1.42-3.76,5.48,5.48,0,0,1,.59-2.47s.08.06.13.06H74.11A5.47,5.47,0,0,1,74.68,39.32Z"/><path class="cls-1" d="M85.44,49.91H48.85l.78-3.54-6,1.88,1.81,1.66h-.3a.34.34,0,0,0-.33.34.31.31,0,0,0,.26.3,22.36,22.36,0,0,0-3.85,13h0l0,.67h0a20.16,20.16,0,0,0,1.33,6.17H38.85a.34.34,0,1,0,0,.67h4c.05.1.08.21.13.32l-2.12,1.34,5.52,2.91-.17-4.57H79.09a.34.34,0,1,0,0-.67H46.23l0-1-1.58,1H44a19,19,0,0,1-1.45-6.64c0-.06,0-.13,0-.2h0a20.62,20.62,0,0,1,.78-6.17h40a.34.34,0,1,0,0-.67H43.49a21.39,21.39,0,0,1,3-6l1.83,1.67.41-1.89H85.44a.34.34,0,0,0,0-.67Z"/><path class="cls-1" d="M64.62,84.37a.29.29,0,0,0-.3-.3H34.59a.3.3,0,0,0-.31.3.31.31,0,0,0,.31.31H64.32A.3.3,0,0,0,64.62,84.37Z"/><path class="cls-1" d="M99.54,63.7l-2.4-3.1a1.34,1.34,0,0,0-1.34-.33,4.66,4.66,0,0,0-1.91.94l-4.25,3.3L93.89,70l4.26-3.31a4.66,4.66,0,0,0,1.35-1.63A1.38,1.38,0,0,0,99.54,63.7Z"/><path class="cls-1" d="M88,65.79l-.35.27L99.49,27.59a3.32,3.32,0,0,0-.25-2.75A2.57,2.57,0,0,0,97,23.63H49.22A4.73,4.73,0,0,0,45.05,27L23.83,95.89a3.35,3.35,0,0,0,.25,2.76,2.57,2.57,0,0,0,2.26,1.21H74.1a4.75,4.75,0,0,0,4.18-3.35l5.79-18.83,8.18-6.37ZM48.25,90.94c-9-.83-15.74-3.57-15.74-6.71,0-2.65,4.81-5,11.68-6.19H63.6a34.91,34.91,0,0,1,6.5,1.69l-3.44,2.68-3.21,6.92,7.46-1.39,4.35-3.39c-.44,3-7.06,5.58-15.71,6.39Zm-.43-13.39c1.94-.19,4-.3,6.08-.3s4.14.11,6.07.3Zm19.9,7.09.83-1.78L70.88,81l2.4,3.13L71,86,69,86.34l1-2.13Zm5.61-4.71a.83.83,0,0,1-.26.14l-.34-.19a.13.13,0,0,1,0-.06.89.89,0,0,1,.26-.31l11.35-8.85-.27.9ZM71,79.06a28.56,28.56,0,0,0-3-1h2.54c.19,0,.35-.11.35-.24s-.16-.25-.35-.25H66a57.35,57.35,0,0,0-12.08-1.2,57.45,57.45,0,0,0-12.09,1.2H36.74c-.19,0-.35.11-.35.25s.16.24.35.24h3.1c-5.14,1.43-8.39,3.65-8.39,6.19,0,2.87,4.17,5.33,10.54,6.71H32.5a.34.34,0,1,0,0,.67H45.93a65.06,65.06,0,0,0,15.94,0H72.74a.34.34,0,1,0,0-.67H65.8c6.38-1.38,10.55-3.84,10.55-6.71a2.83,2.83,0,0,0,0-.5l5.3-4.13-5,16.29a3,3,0,0,1-2.49,2H26.34a.85.85,0,0,1-.78-.37,1.24,1.24,0,0,1,0-1L46.74,27.59a3,3,0,0,1,2.48-2H97a.88.88,0,0,1,.79.37,1.32,1.32,0,0,1,0,1.05L85.18,68ZM87.49,68.8a.87.87,0,0,1-.26.3l-.68.53.28-.89.07-.06a.83.83,0,0,1,.36-.17C87.49,68.46,87.59,68.58,87.49,68.8Z"/><path class="cls-1" d="M81.21,63.59h-38l0,.67H81.21a.34.34,0,0,0,0-.67Z"/></svg>