<svg id="Layer_1" data-name="Layer 1" xmlns="http://www.w3.org/2000/svg" viewBox="0 0 100 100"><defs><style>.cls-1{fill:#231f20;}</style></defs><title> </title><polygon class="cls-1" points="16.28 96.9 16.9 96.56 16.28 96.88 16.28 96.9"/><path class="cls-1" d="M98.49,20.87A8,8,0,0,0,95,18.31c0,.28,0,.57,0,.86A8.58,8.58,0,0,1,94.67,22l-18,58.56A4,4,0,0,1,75.86,82a6.39,6.39,0,0,1-4.65,2H71a6.33,6.33,0,0,0,4.63-2A6.37,6.37,0,0,1,71,84H30.28v7.67H71.15a13.09,13.09,0,0,0,11.93-9L99.57,28.57A8.84,8.84,0,0,0,98.49,20.87Z"/><polygon class="cls-1" points="18.48 82.74 18.48 82.78 18.48 91.76 18.48 99.65 19.69 98.93 23.7 96.51 27.7 98.92 28.92 99.65 28.92 91.76 28.92 82.78 28.92 82.74 28.92 80.06 18.48 80.06 18.48 82.74"/><path class="cls-1" d="M77.8,33.19c0-.07,0-.12,0-.14a.23.23,0,0,0-.17,0,2.77,2.77,0,0,0-1.42.71,11.79,11.79,0,0,0-1.65,1.61,8.53,8.53,0,0,0,2.18-.94C77.4,34,77.77,33.55,77.8,33.19Z"/><path class="cls-1" d="M37,25.45a.15.15,0,0,0,0-.07.14.14,0,0,0-.09,0c-.47,0-1.19.5-2.14,1.49a21.79,21.79,0,0,0-2.71,3.85,30.73,30.73,0,0,0,3.15-2.86C36.67,26.35,37,25.71,37,25.45Z"/><path class="cls-1" d="M43.8,33.19a.22.22,0,0,0,0-.14.27.27,0,0,0-.18,0,2.81,2.81,0,0,0-1.42.71,11.73,11.73,0,0,0-1.64,1.61,8.53,8.53,0,0,0,2.18-.94C43.4,34,43.76,33.55,43.8,33.19Z"/><path class="cls-1" d="M19.53,37.92a18.64,18.64,0,0,0,2.56-.17,17.35,17.35,0,0,0-4.23-1c-.81,0-1.24.15-1.27.47a.28.28,0,0,0,.07.19C16.85,37.67,17.51,37.92,19.53,37.92Z"/><path class="cls-1" d="M50.62,38.18c.29,0,1-.39,2.57-2.27a6.91,6.91,0,0,0,1.64-2.53.39.39,0,0,0-.06-.29.29.29,0,0,0-.23-.07c-.59,0-1.45.6-2.55,1.78a5.82,5.82,0,0,0-1.78,2.86.57.57,0,0,0,.08.42A.45.45,0,0,0,50.62,38.18Z"/><path class="cls-1" d="M7.2,79.84c-.48-1.32-.42-1.86.06-2.57a2.78,2.78,0,0,1,2.27-.9h52c7.59,0,9.14-2,12-11.22L89.81,11.09a8.8,8.8,0,0,0-1.08-7.77A8.29,8.29,0,0,0,81.92,0H36.43a13.58,13.58,0,0,0-3,.54l.06-.18c-7.59-2.15-8.07,6-10.58,9.73-.95,1.37-2.39,2.56-2.63,3.7s.42,2.09.3,3.1a31.49,31.49,0,0,1-4.18,10.81c-.9,1.19-2.22,1.78-2.64,3.16-.35.95.24,2.33.13,3.58-.3,2.8-2.4,8.11-4,10.86-.6,1.07-1.73,1.91-2,3s.3,2.33,0,3.47A42.37,42.37,0,0,1,3.31,62.7c-1,1.62-2.21,2.63-2.45,4.06-.12.72.42,1.5.36,2.45C1.17,70.64.93,71.84.8,73a11.06,11.06,0,0,0,.13,7.58c2.2,6.21,8.72,11,14.82,11H17V84h-1.2C12.52,84,8.39,83.29,7.2,79.84ZM18.83,36.22a24.16,24.16,0,0,1,5.58,1,6.84,6.84,0,0,0,2-1.25,18.34,18.34,0,0,0,1.87-2.06A9.34,9.34,0,0,1,23.07,36a3.73,3.73,0,0,1-2.86-1.09,3.64,3.64,0,0,1-.83-2.94,8.13,8.13,0,0,1,3.16-5.27,9.06,9.06,0,0,1,5.87-2.49,3.1,3.1,0,0,1,2.17.72,2.25,2.25,0,0,1,.66,2,7.43,7.43,0,0,1-2.41,4.36c-1.46,1.5-2.84,2.25-4.09,2.25a1.85,1.85,0,0,1-1.36-.52,1.53,1.53,0,0,1-.45-1.29,1.65,1.65,0,0,1,.46-1,1.28,1.28,0,0,1,.94-.44.73.73,0,0,1,.56.2.67.67,0,0,1,.14.56,1,1,0,0,1-.34.66.92.92,0,0,1-.66.3.57.57,0,0,1-.46-.17.5.5,0,0,1-.1-.43.13.13,0,0,1,0-.06,1.26,1.26,0,0,0-.09.42,1.09,1.09,0,0,0,.34,1,1.52,1.52,0,0,0,1.09.39c1.08,0,2.33-.72,3.71-2.14a7.12,7.12,0,0,0,2.27-4,1.93,1.93,0,0,0-.52-1.61,2.29,2.29,0,0,0-1.7-.63,7.8,7.8,0,0,0-5.35,2.64,9,9,0,0,0-3,5.49,2.37,2.37,0,0,0,.64,2,3.14,3.14,0,0,0,2.27.75,6.28,6.28,0,0,0,2.65-.64,19.62,19.62,0,0,0,3.41-2.22c1.23-1.76,2.13-3,2.68-3.68a20.06,20.06,0,0,1,1.87-2c1.43-1.34,2.46-2,3.17-2a.53.53,0,0,1,.41.15.43.43,0,0,1,.1.35c-.05.51-.73,1.44-2.09,2.83a24.71,24.71,0,0,1-3.78,3.27,15,15,0,0,1-3,4,9.16,9.16,0,0,1-3.44,1.76c2.31.62,3.79,1,4.29,1.12a6.52,6.52,0,0,0,1.49.18,2.63,2.63,0,0,0,.92-.17,1.06,1.06,0,0,1-.5-.31,1.23,1.23,0,0,1-.27-.93,4.64,4.64,0,0,1,.9-1.84l1.9-2.75.08,0a2,2,0,0,0,.47.07,5.39,5.39,0,0,0,.77-.07l.29,0-.17.24-2.69,3.76a3.09,3.09,0,0,0-.6,1.2.31.31,0,0,0,.05.24.34.34,0,0,0,.27.08.74.74,0,0,0,.25-.06c.08-.06.17-.11.25-.18s.16-.08.2-.08h0A16.35,16.35,0,0,0,35.71,35l0,0,1.39-2H36.06l.31-.4h1l1.39-2,.09,0a2.09,2.09,0,0,0,1.11,0l.33-.08-1.42,2h1.32L40,33H38.62L36,36.81a2.5,2.5,0,0,0-.5,1,.31.31,0,0,0,0,.24.33.33,0,0,0,.26.08c.37,0,1.19-.49,2.95-2.65a5.92,5.92,0,0,1,2.56-2.17,5.55,5.55,0,0,1,2.33-.74,1,1,0,0,1,.69.25.72.72,0,0,1,.25.63,1.79,1.79,0,0,1-1.15,1.34,13.83,13.83,0,0,1-3.29.95,3.77,3.77,0,0,0-.81,1.64.69.69,0,0,0,.13.54.82.82,0,0,0,.62.19c1,0,2.43-1,4.16-3.07a.9.9,0,0,1,.11-.1h0l.19-.24c1.63-1.9,2.17-2.12,2.44-2.12a.84.84,0,0,1,.64.24,1.23,1.23,0,0,1,.2.93A3.07,3.07,0,0,1,47.39,35l.3-.24a5.93,5.93,0,0,1,1.12-1.51A1.88,1.88,0,0,1,50,32.62a.42.42,0,0,1,.33.12.35.35,0,0,1,.08.29c0,.37-.55.84-1.61,1.48l-.58.33L48,35a3.09,3.09,0,0,0-.2.7.82.82,0,0,0,.11.6.43.43,0,0,0,.33.11c.49,0,1.09-.42,1.77-1.26l.07-.06a7.42,7.42,0,0,1,2.38-1.78,5,5,0,0,1,2.09-.68.7.7,0,0,1,.56.2.62.62,0,0,1,.14.35l.3-.49.09,0a2,2,0,0,0,.51.07,4.29,4.29,0,0,0,.7-.07l.29-.05-2.26,3.2a5.93,5.93,0,0,0-1.12,2,.41.41,0,0,0,0,.28.24.24,0,0,0,.18.06c.14,0,.49-.11,1.32-.89a19.76,19.76,0,0,0,2-2.27l.06-.06L58.75,33H57.69l.31-.4h1l1.4-2,.08,0a2.09,2.09,0,0,0,1.11,0l.33-.08-1.42,2h1.33l-.26.4H60.25l-2.61,3.79a2.65,2.65,0,0,0-.51,1.06.29.29,0,0,0,0,.23.34.34,0,0,0,.27.08c.39,0,1.3-.55,3.35-3.16l.08-.08,1.58-2.25h.08a2.41,2.41,0,0,0,.51.07,5.22,5.22,0,0,0,.68-.07l.29,0-3,4.19a2.33,2.33,0,0,0-.45,1,.34.34,0,0,0,0,.27.25.25,0,0,0,.17,0c.44,0,1.42-.65,3.58-3.75l1.21-1.75.08,0a2.05,2.05,0,0,0,.5.07,4.72,4.72,0,0,0,.71-.07l.29,0-2.06,2.87a7.05,7.05,0,0,0-1.37,2.36.32.32,0,0,0,0,.23c.17.19.83.22,3-2.44l.36-.44.21-.22s0,0,0,0l.2-.24c1.62-1.9,2.17-2.12,2.43-2.12a.83.83,0,0,1,.64.24,1.18,1.18,0,0,1,.21.93A3.41,3.41,0,0,1,70.43,35a3.15,3.15,0,0,1,.3-.24,5.71,5.71,0,0,1,1.12-1.51A1.86,1.86,0,0,1,73,32.62a.42.42,0,0,1,.33.12.32.32,0,0,1,.08.29c0,.37-.54.84-1.61,1.48l-.64.37L71,35a2.56,2.56,0,0,0-.19.7.78.78,0,0,0,.11.6.41.41,0,0,0,.33.11c.45,0,1-.38,1.62-1.1a6.35,6.35,0,0,1,2.44-1.94,5.51,5.51,0,0,1,2.32-.74,1,1,0,0,1,.69.25.7.7,0,0,1,.25.63,1.79,1.79,0,0,1-1.15,1.34,13.72,13.72,0,0,1-3.28.95,3.55,3.55,0,0,0-.81,1.64.69.69,0,0,0,.12.54.82.82,0,0,0,.62.19c1,0,2.44-1,4.17-3.07.12-.14.22-.2.31-.2h0a.17.17,0,0,1,.13.19h0c0,.05,0,.08-.24.34L78,36c-1.62,1.77-2.92,2.62-4,2.62A1.54,1.54,0,0,1,72.78,38a1.71,1.71,0,0,1-.39-1.37,2.7,2.7,0,0,1,.07-.41,2,2,0,0,1-1.23.52.8.8,0,0,1-.63-.23,1,1,0,0,1-.18-.79,2.33,2.33,0,0,1,.06-.33,7.73,7.73,0,0,0-.81.81c-.29.35-.83,1.1-1.6,2.21l0,.06H68l-.62,0-.62,0-.26,0,2.09-2.9A8.32,8.32,0,0,0,70,33.16c0-.09,0-.12,0-.12s0,0-.06,0c-.19,0-.73.28-2.19,2.13h0a11.73,11.73,0,0,1-1.68,2c-1,1-1.66,1.47-2.18,1.47a1,1,0,0,1-.82-.4,1.29,1.29,0,0,1-.26-1c0-.08,0-.16.05-.25a13.2,13.2,0,0,1-1.1,1.12c-.77.67-1.46.6-1.86.09a1.32,1.32,0,0,1-.25-.94,1.72,1.72,0,0,1,.08-.38q-1.57,1.71-2.4,1.71a1.08,1.08,0,0,1-.87-.39,1.21,1.21,0,0,1-.26-.94,2.55,2.55,0,0,1,.09-.43c-.08.1-.16.18-.26.29-.93,1-1.63,1.47-2.13,1.47a1,1,0,0,1-.84-.39,1.39,1.39,0,0,1-.24-1,3.14,3.14,0,0,1,.08-.4,12.23,12.23,0,0,1-1.18,1.23,1.86,1.86,0,0,1-1.18.52,1.14,1.14,0,0,1-1-.51,1.85,1.85,0,0,1-.28-1.24,2.8,2.8,0,0,1,.12-.56,2,2,0,0,1-1.2.5.79.79,0,0,1-.63-.23,1,1,0,0,1-.19-.79,1.51,1.51,0,0,1,.07-.33,6.19,6.19,0,0,0-.81.81c-.3.36-.84,1.1-1.6,2.21l0,.06h-.07l-.62,0-.62,0-.27,0,2.09-2.9A8.24,8.24,0,0,0,47,33.16c0-.09,0-.12,0-.12s0,0-.07,0c-.19,0-.73.28-2.19,2.13l0,0-.2.24L44,36c-1.62,1.77-2.92,2.62-4,2.62A1.57,1.57,0,0,1,38.77,38a1.78,1.78,0,0,1-.39-1.37l0-.14c-1.22,1.38-2.11,2.06-2.72,2.06a1.08,1.08,0,0,1-.87-.39,1.26,1.26,0,0,1-.27-.94,2.63,2.63,0,0,1,.1-.43,9,9,0,0,1-1.57,1.43,3,3,0,0,1-.55.43,5.64,5.64,0,0,1-3.05.7,13.74,13.74,0,0,1-2.7-.26c-.85-.18-2.1-.54-3.83-1.1a18.88,18.88,0,0,1-3.54.33c-1.69,0-2.7-.2-3.07-.61a.61.61,0,0,1-.17-.49C16.24,36.56,17.11,36.22,18.83,36.22Zm17.52-5.33h0a1.17,1.17,0,0,1-.4.74,1.14,1.14,0,0,1-.77.34.57.57,0,0,1-.43-.16.51.51,0,0,1-.11-.43,1.12,1.12,0,0,1,.41-.73,1.23,1.23,0,0,1,.78-.34.52.52,0,0,1,.41.16A.49.49,0,0,1,36.35,30.89Z"/></svg>