<svg id="Layer_1" data-name="Layer 1" xmlns="http://www.w3.org/2000/svg" viewBox="0 0 100 100"><defs><style>.cls-1{fill:#231f20;}</style></defs><title> </title><path class="cls-1" d="M11.35,36.38a16.2,16.2,0,0,0,13.06,5.38,14.66,14.66,0,0,0,8.92-3.68A16,16,0,0,0,38.72,25,14.57,14.57,0,0,0,35,16.1a16.15,16.15,0,0,0-12-5.44c-.35,0-.7,0-1.05,0A14.71,14.71,0,0,0,13,14.38,16,16,0,0,0,7.65,27.45,14.68,14.68,0,0,0,11.35,36.38Z"/><path class="cls-1" d="M97.87,2.05a6.41,6.41,0,0,0-4.7-2H26.59a6.39,6.39,0,0,0-4.7,2,6.48,6.48,0,0,0-1.95,4.73v.93a17.32,17.32,0,0,1,1.8-.27,18.82,18.82,0,0,1,3.52.13V6.78a1.26,1.26,0,0,1,.4-.94,1.24,1.24,0,0,1,.93-.4H93.17a1.24,1.24,0,0,1,.93.4,1.26,1.26,0,0,1,.4.94V47a1.26,1.26,0,0,1-.4.94,1.24,1.24,0,0,1-.93.4H46.59a9.28,9.28,0,0,1,1.35,3.84h0c0,.28.08.74.15,1.51h9.14V59H48.56L49,64.39H77.19a1.28,1.28,0,0,0,1.33-1.34V60.37a1.3,1.3,0,0,0-.37-1,1.27,1.27,0,0,0-1-.38H62.54V53.67H93.17a6.41,6.41,0,0,0,4.7-2A6.48,6.48,0,0,0,99.82,47V6.78A6.48,6.48,0,0,0,97.87,2.05Z"/><path class="cls-1" d="M45.65,16.7H89.18a.38.38,0,0,0,0-.75H45.65a.38.38,0,1,0,0,.75Z"/><path class="cls-1" d="M45.65,22.51H89.18a.38.38,0,0,0,0-.75H45.65a.38.38,0,1,0,0,.75Z"/><path class="cls-1" d="M45.65,28.32H89.18a.38.38,0,0,0,.37-.38.37.37,0,0,0-.37-.37H45.65a.37.37,0,0,0-.38.37A.38.38,0,0,0,45.65,28.32Z"/><path class="cls-1" d="M45.65,34.12H89.18a.38.38,0,0,0,0-.75H45.65a.38.38,0,1,0,0,.75Z"/><path class="cls-1" d="M45.65,39.93H89.18a.38.38,0,0,0,0-.75H45.65a.38.38,0,1,0,0,.75Z"/><path class="cls-1" d="M61.32,69.62a4.9,4.9,0,0,0-1.4.21L46.77,75.1c-.41-4.64-.94-10.52-1.34-15.08,0-.21,0-.45-.06-.65-.21-2.32-.38-4.23-.48-5.36V54c-.06-.67-.1-1.08-.1-1.08a6.48,6.48,0,0,0-.28-1.25,6,6,0,0,0-.43-.93L44,50.5a5.63,5.63,0,0,0-2.39-2.26A7.85,7.85,0,0,0,38,47.42a9.58,9.58,0,0,0-1.3.09,9.14,9.14,0,0,0-2.3.62h-23a8.8,8.8,0,0,0-2.88-.65H8.1a8.31,8.31,0,0,0-4.33,1.14,6,6,0,0,0-3,4.87L0,96.1c7.58,6.19,42.51,3.83,42.4,1l.07,0c.4,0-.8-8.13,1.55-10.12l18.7-7.7a4.9,4.9,0,0,0-1.4-9.59Z"/></svg>