<svg id="Layer_1" data-name="Layer 1" xmlns="http://www.w3.org/2000/svg" viewBox="0 0 100 100"><defs><style>.cls-1{fill:#231f20;}</style></defs><title> </title><path class="cls-1" d="M81.68,59.62a8.11,8.11,0,0,1-.59-2.57,8.25,8.25,0,0,1,.2-2.43H44.73a8.1,8.1,0,0,1,.63,2.65,8.37,8.37,0,0,1-.18,2.35H57.55a6.87,6.87,0,0,1,.64-1,8.2,8.2,0,0,1,6.74-3.4,10.93,10.93,0,0,1,1.26.08,7.5,7.5,0,0,1,3.7,1.53,9,9,0,0,1,2.39,2.77Z"/><path class="cls-1" d="M30.21,58.43a6.47,6.47,0,0,0,1.63,3.94,7,7,0,0,0,5.26,2.38l.46,0a6.52,6.52,0,0,0,3.94-1.62,7.09,7.09,0,0,0,2.37-5.74,6.53,6.53,0,0,0-1.63-3.92A7,7,0,0,0,37,51.06h-.46a6.59,6.59,0,0,0-3.94,1.63A7,7,0,0,0,30.21,58.43Z"/><path class="cls-1" d="M84.21,60.88a7,7,0,0,0,5.25,2.37l.46,0a6.46,6.46,0,0,0,3.92-1.62,7,7,0,0,0,2.37-5.72A6.43,6.43,0,0,0,94.59,52a7,7,0,0,0-5.26-2.39l-.46,0a6.51,6.51,0,0,0-3.93,1.62A7.06,7.06,0,0,0,82.58,57,6.52,6.52,0,0,0,84.21,60.88Z"/><path class="cls-1" d="M69,58a6.06,6.06,0,0,0-3-1.22,8,8,0,0,0-1.08-.07,6.75,6.75,0,0,0-5.56,2.82,6,6,0,0,0-1.22,2.95,6.83,6.83,0,0,0,2.75,6.64,6.1,6.1,0,0,0,3,1.22,9.87,9.87,0,0,0,1.07.06,6.74,6.74,0,0,0,5.56-2.81,6,6,0,0,0,1.22-3A6.84,6.84,0,0,0,69,58Z"/><path class="cls-1" d="M12.54,25.7a7.18,7.18,0,0,0,3.52,1.45A8.13,8.13,0,0,0,24,23.88a7.27,7.27,0,0,0,1.46-3.52,8.15,8.15,0,0,0-3.27-7.9A7.23,7.23,0,0,0,18.62,11a8.16,8.16,0,0,0-7.91,3.27A7.25,7.25,0,0,0,9.26,17.8,8.13,8.13,0,0,0,12.54,25.7Z"/><path class="cls-1" d="M94,.11H36.36a6,6,0,0,0-6,6V27.77l5-.32V6.11a1,1,0,0,1,1-1H94a1,1,0,0,1,1,1V50.27a8.15,8.15,0,0,1,.72.72,8,8,0,0,1,2,4.8,8.12,8.12,0,0,1-.27,2.74A6,6,0,0,0,100,53.62V6.11A6,6,0,0,0,94,.11Z"/><path class="cls-1" d="M35.36,49.73V35.5l-5,.43v17a8.22,8.22,0,0,1,1.23-1.34A7.94,7.94,0,0,1,35.36,49.73Z"/><path class="cls-1" d="M25.38,35.08l9.85-.84h5.13c1.31,0,2.14,0,2.18,0a2,2,0,0,0,1.74-1,3.25,3.25,0,0,0,.46-1.89,3.34,3.34,0,0,0-.61-1.87h0a2.12,2.12,0,0,0-1.72-.92h-.12l-12.65.79-5.54.1a2.17,2.17,0,0,0-.76.19l-.29.06-13.67,0a3.85,3.85,0,0,0-1.08-.17,2.86,2.86,0,0,0-.77.1l-.15.07h0l0,0A2.15,2.15,0,0,0,6,31.05L2.73,41.66C1.35,45.21.18,48.26.13,48.38a2.07,2.07,0,0,0,.29,2A3.26,3.26,0,0,0,2,51.45a3.63,3.63,0,0,0,1.18.21,3,3,0,0,0,.79-.1,2.19,2.19,0,0,0,1.51-1.4l2.26-7.29L8.14,59h1V79.49h.93v.12a2.65,2.65,0,0,0,2.65,2.65h.38a2.65,2.65,0,0,0,2.64-2.65v-.12h.55V59h1.15V79.49h.65v.12a2.65,2.65,0,0,0,2.65,2.65h.38a2.65,2.65,0,0,0,2.64-2.65v-.12h.84V59.09h1.12Z"/><path class="cls-1" d="M43.87,9.66l-3.74,8.4h2l.74-1.8h3.9l.75,1.8h2l-3.76-8.4Zm-.38,5.13,1.33-3.22,1.33,3.22Z"/><path class="cls-1" d="M50.55,14.79a1.67,1.67,0,0,0-.68,1.41,1.81,1.81,0,0,0,.29,1,1.92,1.92,0,0,0,.83.7,3.22,3.22,0,0,0,1.29.25,2.09,2.09,0,0,0,2-.9v.8H56V14.38a2.73,2.73,0,0,0-.8-2.15,3.36,3.36,0,0,0-2.31-.72,5.5,5.5,0,0,0-1.51.21,3.9,3.9,0,0,0-1.27.57l.67,1.31a2.84,2.84,0,0,1,.85-.44,3.18,3.18,0,0,1,1-.16,1.65,1.65,0,0,1,1.12.33,1.18,1.18,0,0,1,.37.94H52.64A3.4,3.4,0,0,0,50.55,14.79Zm3.58.57V16a1.21,1.21,0,0,1-.53.66,1.71,1.71,0,0,1-.85.22,1.26,1.26,0,0,1-.77-.21.68.68,0,0,1-.29-.57c0-.5.39-.76,1.16-.76Z"/><path class="cls-1" d="M64.82,12.94a2.09,2.09,0,0,0,.29-1.09,1.86,1.86,0,0,0-.82-1.6,4,4,0,0,0-2.36-.59h-4.1v8.4h4.34a4.34,4.34,0,0,0,2.5-.59,1.93,1.93,0,0,0,.86-1.7,2.09,2.09,0,0,0-.41-1.31A2.19,2.19,0,0,0,64,13.7,2.15,2.15,0,0,0,64.82,12.94Zm-5.06-1.81h1.93a2,2,0,0,1,1.09.24.84.84,0,0,1,.38.74.85.85,0,0,1-.38.75,2,2,0,0,1-1.09.25H59.76Zm3.42,5.22A2.09,2.09,0,0,1,62,16.6H59.76V14.52H62c1,0,1.55.35,1.55,1.05A.85.85,0,0,1,63.18,16.35Z"/><path class="cls-1" d="M66.88,9.16v8.9h1.78v-.74a2.49,2.49,0,0,0,2,.84,3.26,3.26,0,0,0,1.64-.42,2.94,2.94,0,0,0,1.16-1.16,3.5,3.5,0,0,0,.42-1.74,3.51,3.51,0,0,0-.42-1.75,2.94,2.94,0,0,0-1.16-1.16,3.26,3.26,0,0,0-1.64-.42,2.49,2.49,0,0,0-1.94.78V9.16Zm2.3,4.37a1.59,1.59,0,0,1,1.19-.48,1.57,1.57,0,0,1,1.18.48A1.82,1.82,0,0,1,72,14.84a1.81,1.81,0,0,1-.46,1.3,1.57,1.57,0,0,1-1.18.48,1.59,1.59,0,0,1-1.19-.48,1.86,1.86,0,0,1-.46-1.3A1.87,1.87,0,0,1,69.18,13.53Z"/><path class="cls-1" d="M78,11.52a2.79,2.79,0,0,1,1.4-.34,2.67,2.67,0,0,1,2.11,1L82.78,11A4,4,0,0,0,81.29,9.9a4.94,4.94,0,0,0-2-.38,4.75,4.75,0,0,0-2.33.56,4.2,4.2,0,0,0-1.64,1.54,4.55,4.55,0,0,0,0,4.48A4.15,4.15,0,0,0,77,17.65a5.15,5.15,0,0,0,4.3.17,3.82,3.82,0,0,0,1.49-1.11l-1.25-1.15a2.68,2.68,0,0,1-2.11,1,2.79,2.79,0,0,1-1.4-.34,2.55,2.55,0,0,1-1-1,2.82,2.82,0,0,1-.34-1.4,2.78,2.78,0,0,1,.34-1.39A2.41,2.41,0,0,1,78,11.52Z"/><path class="cls-1" d="M86.83,13.05a1.57,1.57,0,0,1,1.45.89l1.46-.78a2.58,2.58,0,0,0-1.11-1.22,3.57,3.57,0,0,0-1.79-.43,3.91,3.91,0,0,0-1.85.43,3.11,3.11,0,0,0-1.28,1.18,3.22,3.22,0,0,0-.47,1.72,3.18,3.18,0,0,0,.47,1.71A3,3,0,0,0,85,17.73a3.91,3.91,0,0,0,1.85.43,3.57,3.57,0,0,0,1.79-.43,2.68,2.68,0,0,0,1.11-1.2l-1.46-.79a1.56,1.56,0,0,1-1.45.88,1.64,1.64,0,0,1-1.21-.48,1.75,1.75,0,0,1-.48-1.3,1.76,1.76,0,0,1,.48-1.31A1.64,1.64,0,0,1,86.83,13.05Z"/><path class="cls-1" d="M48.17,25.3a.35.35,0,0,0,.35.34H89.68a.34.34,0,0,0,0-.68H48.52A.35.35,0,0,0,48.17,25.3Z"/><path class="cls-1" d="M48.52,30.73H89.68a.35.35,0,0,0,0-.69H48.52a.35.35,0,1,0,0,.69Z"/><path class="cls-1" d="M48.52,35.82H89.68a.35.35,0,0,0,0-.69H48.52a.35.35,0,1,0,0,.69Z"/><path class="cls-1" d="M48.52,40.9H89.68a.34.34,0,0,0,0-.68H48.52a.34.34,0,1,0,0,.68Z"/><path class="cls-1" d="M90,45.65a.34.34,0,0,0-.34-.34H48.52a.34.34,0,1,0,0,.68H89.68A.34.34,0,0,0,90,45.65Z"/><path class="cls-1" d="M44.4,66.52A3.22,3.22,0,0,0,43,66.2a3.12,3.12,0,0,0-.52,0,3.68,3.68,0,0,0-.91.24H32.42a3.58,3.58,0,0,0-1.15-.26h-.2a3.32,3.32,0,0,0-1.72.45,2.41,2.41,0,0,0-1.18,1.94l-.34,15,1.38.09v8.31l6,0h3.47l6.2.06V83.7L47,83.46h0s-1.33-15.09-1.33-15.1A2.34,2.34,0,0,0,44.4,66.52Z"/><path class="cls-1" d="M96.74,65a3.17,3.17,0,0,0-1.41-.32l-.52,0a4.19,4.19,0,0,0-.91.25H84.79a3.52,3.52,0,0,0-1.15-.26h-.2a3.26,3.26,0,0,0-1.71.45,2.39,2.39,0,0,0-1.18,1.93l-.33,15,1.37.09v13l15.61.14V82.16l2.13-.24h0S98,66.87,98,66.86A2.3,2.3,0,0,0,96.74,65Z"/><path class="cls-1" d="M76,81.37c-1.1-3.8-2.25-7.78-2.25-7.79A2.32,2.32,0,0,0,72.19,72a3.16,3.16,0,0,0-.81-.11,3.34,3.34,0,0,0-1.14.2.75.75,0,0,0-.13.06H59.45a.35.35,0,0,1-.24-.1l-6.66-6.66a3.45,3.45,0,0,0-2.35-1.07H50A2.94,2.94,0,0,0,47.33,67a3.34,3.34,0,0,0,1.07,2.55L57,78.18a.37.37,0,0,1,.1.24V99.66l15.65.14V89.48a2.23,2.23,0,0,0,1.48,1.3,2.73,2.73,0,0,0,.81.11,3.58,3.58,0,0,0,1.14-.19,3.35,3.35,0,0,0,1.63-1.12,2.38,2.38,0,0,0,.39-2.23Z"/></svg>