<?xml version="1.0" encoding="utf-8"?>
<!-- Generator: Adobe Illustrator 24.0.0, SVG Export Plug-In . SVG Version: 6.00 Build 0)  -->
<svg version="1.1" id="Layer_1" xmlns="http://www.w3.org/2000/svg" xmlns:xlink="http://www.w3.org/1999/xlink" x="0px" y="0px"
	 viewBox="0 0 100 100" style="enable-background:new 0 0 100 100;" xml:space="preserve">
<style type="text/css">
	.st0{fill:none;}
	.st1{fill:#FFFFFF;}
	.st2{fill:#FFFFFF;stroke:#FFFFFF;stroke-width:0.25;stroke-miterlimit:10;}
	.st3{fill:none;stroke:#000000;stroke-width:0.25;stroke-linecap:round;stroke-miterlimit:10;}
	.st4{fill:#D9D9D9;}
	.st5{fill:none;stroke:#000000;stroke-width:2;stroke-linejoin:round;stroke-miterlimit:10;}
	.st6{fill:none;stroke:#000000;stroke-width:0.4396;stroke-miterlimit:10;}
	.st7{fill:none;stroke:#000000;stroke-linecap:round;stroke-linejoin:round;}
	.st8{fill:none;stroke:#000000;stroke-linecap:round;stroke-linejoin:round;stroke-miterlimit:10;}
</style>
<g>
	<path d="M37.21,13.49h35.54c0.17,0,0.31-0.14,0.31-0.31s-0.14-0.31-0.31-0.31H37.21c-0.17,0-0.31,0.14-0.31,0.31
		S37.04,13.49,37.21,13.49z"/>
	<path d="M37.21,22.98h35.54c0.17,0,0.31-0.14,0.31-0.31s-0.14-0.31-0.31-0.31H37.21c-0.17,0-0.31,0.14-0.31,0.31
		S37.04,22.98,37.21,22.98z"/>
	<path d="M20.57,6.86V6.21c0-0.3,0.11-0.55,0.32-0.77c0.21-0.22,0.47-0.32,0.76-0.32h54.36c0.29,0,0.55,0.11,0.76,0.32
		c0.21,0.22,0.32,0.47,0.32,0.77v32.82c0,0.3-0.11,0.55-0.32,0.77c-0.22,0.22-0.47,0.32-0.76,0.32H37.98
		c0.57,0.93,0.97,1.98,1.11,3.14l-0.01,0c0.03,0.23,0.07,0.61,0.12,1.24h7.46v4.38h-7.06c0.11,1.19,0.23,2.64,0.39,4.38h9.25
		c1.31-1.64,2.82-3.11,4.49-4.38h-2.72V44.5h12.15c1.77-0.4,3.6-0.62,5.48-0.62c1.83,0,3.66,0.21,5.46,0.62h1.91
		c1.5,0,2.77-0.54,3.84-1.61c1.06-1.07,1.6-2.36,1.6-3.86V6.21c0-1.5-0.53-2.79-1.6-3.86c-1.07-1.07-2.34-1.61-3.84-1.61H21.65
		c-1.49,0-2.77,0.54-3.84,1.61c-1.06,1.07-1.6,2.36-1.6,3.86v0.76c0.49-0.08,0.97-0.18,1.47-0.22C18.65,6.68,19.61,6.74,20.57,6.86z
		"/>
	<path d="M37.21,18.24h35.54c0.17,0,0.31-0.14,0.31-0.31s-0.14-0.31-0.31-0.31H37.21c-0.17,0-0.31,0.14-0.31,0.31
		S37.04,18.24,37.21,18.24z"/>
	<path d="M9.21,30.38c2.6,2.98,6.65,4.65,10.66,4.4c2.79-0.19,5.18-1.18,7.28-3.01c3.03-2.64,4.68-6.63,4.4-10.67
		c-0.19-2.79-1.17-5.18-3-7.28c-2.42-2.78-6.09-4.44-9.81-4.44c-0.29,0-0.57,0.01-0.86,0.03c-2.79,0.19-5.18,1.18-7.29,3.01
		c-3.03,2.65-4.68,6.63-4.4,10.66C6.38,25.89,7.37,28.27,9.21,30.38z"/>
	<path d="M37.21,27.72h35.54c0.17,0,0.31-0.14,0.31-0.31s-0.14-0.31-0.31-0.31H37.21c-0.17,0-0.31,0.14-0.31,0.31
		S37.04,27.72,37.21,27.72z"/>
	<path d="M38.21,61.72c-0.34-3.79-0.76-8.59-1.1-12.31c-0.02-0.17-0.03-0.36-0.05-0.53c-0.17-1.89-0.31-3.45-0.39-4.38
		c0-0.02,0-0.03,0-0.05c-0.05-0.55-0.08-0.88-0.08-0.88c-0.04-0.35-0.12-0.69-0.23-1.02c-0.09-0.26-0.22-0.51-0.35-0.76
		c-0.03-0.05-0.04-0.1-0.07-0.15c-0.43-0.75-1.06-1.41-1.95-1.85c-0.88-0.44-1.85-0.66-2.9-0.66c-0.35,0-0.7,0.02-1.06,0.07
		c-0.68,0.09-1.3,0.27-1.88,0.51h-7.28h-4.57H9.39c-0.72-0.29-1.49-0.49-2.36-0.53c-0.14-0.01-0.27-0.01-0.41-0.01
		c-1.31,0-2.49,0.31-3.53,0.93c-1.55,0.92-2.32,2.45-2.42,3.98L0.01,70.7c4.81,7.89,31.75,7.63,34.72,1.6c0,0,0.61-0.89,0.93-0.99
		l8.16-3.27c0.09-3.35,0.85-6.54,2.14-9.44L38.21,61.72z"/>
	<path d="M98.82,93.49L87.27,81.93l0.19-0.27c2.63-3.8,4.02-8.28,4.02-12.94c0-5.96-2.31-11.38-6.06-15.45
		c-1.34-1.45-2.86-2.72-4.53-3.79c-1.75-1.12-3.66-2.02-5.69-2.63c-2.08-0.62-4.27-0.97-6.55-0.97c-12.59,0-22.84,10.24-22.84,22.84
		c0,9.56,5.91,17.75,14.25,21.15c2.47,1.01,5.16,1.58,7.97,1.66c0.2,0.01,0.4,0.03,0.61,0.03c1.8,0,3.6-0.23,5.35-0.65
		c2.72-0.66,5.31-1.8,7.59-3.37l0.27-0.19l11.55,11.52c0.7,0.73,1.67,1.14,2.69,1.14c2.08,0,3.83-1.75,3.83-3.83
		C99.93,95.18,99.52,94.17,98.82,93.49z M76.86,81.46c-1.91,1.23-4.1,2.05-6.46,2.33c-0.58,0.07-1.16,0.11-1.75,0.11
		c-1.56,0-3.06-0.24-4.48-0.68c-6.19-1.92-10.71-7.69-10.71-14.51c0-8.37,6.81-15.18,15.18-15.18c1.51,0,2.96,0.23,4.33,0.64
		c2.07,0.62,3.95,1.67,5.54,3.04c1.73,1.48,3.12,3.34,4.05,5.45c0.81,1.85,1.26,3.9,1.26,6.05C83.83,74.06,81.04,78.76,76.86,81.46z
		"/>
	<path d="M37.21,32.46h35.54c0.17,0,0.31-0.14,0.31-0.31c0-0.17-0.14-0.31-0.31-0.31H37.21c-0.17,0-0.31,0.14-0.31,0.31
		C36.91,32.32,37.04,32.46,37.21,32.46z"/>
</g>
</svg>
