<svg id="Layer_1" data-name="Layer 1" xmlns="http://www.w3.org/2000/svg" viewBox="0 0 100 100"><defs><style>.cls-1{fill:#231f20;}</style></defs><title> </title><path class="cls-1" d="M98.8,93.49,87.25,81.93l.19-.27a22.84,22.84,0,0,0-6.57-32.18,23.53,23.53,0,0,0-3.41-1.79l-.35-.15c-.64-.25-1.28-.49-1.94-.69a22.52,22.52,0,0,0-6.55-1,22.77,22.77,0,0,0-7.41,1.24l-.08,0c-.61.21-1.21.45-1.8.71l-.09,0a18.65,18.65,0,0,0-1.73.87l0,0a23,23,0,0,0-4.73,3.53l0,0c-.46.44-.89.91-1.31,1.39l-.07.08c-.42.48-.81,1-1.19,1.49l0,.06a22.87,22.87,0,0,0-3.44,7.13l0,.08c-.17.64-.32,1.28-.44,1.93l0,.08a23.16,23.16,0,0,0-.37,4.1,22.73,22.73,0,0,0,.47,4.55h0a22.7,22.7,0,0,0,1,3.44l0,0c.2.54.42,1.06.66,1.58l0,.07A23,23,0,0,0,60,89.86a22.73,22.73,0,0,0,8,1.66l.61,0a23.15,23.15,0,0,0,12.94-4l.28-.19L93.39,98.86A3.72,3.72,0,0,0,96.08,100a3.82,3.82,0,0,0,2.72-6.51Zm-22-12a15,15,0,0,1-6.46,2.33,14.59,14.59,0,0,1-1.76.11,15.25,15.25,0,0,1-13.71-8.7l0-.08c-.13-.28-.25-.56-.37-.85a.49.49,0,0,0,0-.11c-.11-.3-.22-.59-.31-.9h0a14.84,14.84,0,0,1-.71-4.55,15.91,15.91,0,0,1,.16-2.08,15.13,15.13,0,0,1,3.7-8h0a15.16,15.16,0,0,1,7.45-4.58h0a15,15,0,0,1,3.86-.52,14.36,14.36,0,0,1,3,.31h0q.7.13,1.38.33c.44.13.87.3,1.3.47l.5.22.69.33c.52.27,1,.56,1.52.88a17.36,17.36,0,0,1,1.53,1.14,15.05,15.05,0,0,1,5.3,11.5A15.16,15.16,0,0,1,76.84,81.46Z"/><path class="cls-1" d="M63.91,56.85l.15-.49a13.22,13.22,0,0,0-8.43,10.19C60.44,66.12,61.75,63.91,63.91,56.85Z"/><path class="cls-1" d="M71,55.76,66.53,70.32a3.34,3.34,0,0,1-.71,1.24,5.56,5.56,0,0,1-4,1.7H56.25A13.09,13.09,0,0,0,61.72,80h0A11.38,11.38,0,0,0,72.1,72.09l4.26-14a12.74,12.74,0,0,0-4-2A13.36,13.36,0,0,0,71,55.76Z"/><polygon class="cls-1" points="15.86 73.26 15.86 73.29 15.86 79.95 15.86 85.8 16.91 85.26 20.42 83.47 23.92 85.26 24.98 85.8 24.98 79.95 24.98 73.29 24.98 73.26 24.98 71.28 15.86 71.28 15.86 73.26"/><path class="cls-1" d="M6.12,69.65c-.42-1.14-.37-1.61,0-2.24a2.43,2.43,0,0,1,2-.78H43.88a24.86,24.86,0,0,1,24-22.73L78.2,9.73A7.65,7.65,0,0,0,77.27,3a7.25,7.25,0,0,0-6-2.92H31.63A12.47,12.47,0,0,0,29,.52L29,.37c-6.63-1.88-7,5.25-9.24,8.47C19,10,17.7,11.08,17.49,12.07s.36,1.82.26,2.7a27.34,27.34,0,0,1-3.65,9.42c-.79,1-1.93,1.56-2.3,2.76-.31.83.21,2,.11,3.12a31.13,31.13,0,0,1-3.5,9.46c-.52.94-1.51,1.67-1.77,2.66s.26,2,0,3a37.39,37.39,0,0,1-3.91,9.52C1.89,56.13.8,57,.59,58.26c-.11.62.36,1.3.31,2.13C.85,61.64.64,62.68.53,63.72a9.59,9.59,0,0,0,.11,6.61C2.57,75.74,8.26,80,13.58,80h1.09V73.29h-1C10.76,73.29,7.16,72.66,6.12,69.65Z"/><path class="cls-1" d="M26.17,73.26V80H46.48a24.57,24.57,0,0,1-2.26-6.69Z"/><path class="cls-1" d="M74.42,44.59c.44.1.89.21,1.33.34a24.15,24.15,0,0,1,4.11,1.68L86.45,25a7.73,7.73,0,0,0-.94-6.71A7,7,0,0,0,82.43,16c0,.25,0,.5,0,.76a7.69,7.69,0,0,1-.28,2.5Z"/></svg>