<svg id="Layer_1" data-name="Layer 1" xmlns="http://www.w3.org/2000/svg" viewBox="0 0 100 100"><defs><style>.cls-1{fill:#231f20;}</style></defs><title> </title><path class="cls-1" d="M63.56,34.88c-.16.34-.16.58,0,.72a.54.54,0,0,0,.41.15,2.14,2.14,0,0,0,.92-.24,1.18,1.18,0,0,0,.62-.55l.83-1.82a8.46,8.46,0,0,0-1.22.46A2.94,2.94,0,0,0,63.56,34.88Z"/><path class="cls-1" d="M90.4,25.47c.37-1.36.09-2.66-.64-2.9l-1.37,4.94C89.12,27.75,90,26.84,90.4,25.47Z"/><path class="cls-1" d="M79,58l-1.36,5c.72.24,1.62-.67,2-2S79.7,58.25,79,58Z"/><path class="cls-1" d="M50.62,36.28a2,2,0,0,0,1.4-.65,5.62,5.62,0,0,0,1.2-1.76,4.52,4.52,0,0,0,.44-2.1.82.82,0,0,0-.92-.88,1.9,1.9,0,0,0-1,.32,4.6,4.6,0,0,0-1.58,2,4.39,4.39,0,0,0-.44,2.15C49.75,36,50,36.28,50.62,36.28Z"/><path class="cls-1" d="M98.1,22.79A7.94,7.94,0,0,0,94.59,20a11.82,11.82,0,0,1-.3,3.71L76.4,88c-.65,2.34-3.21,3.71-5.42,3.71H16c-3.28,0-7.39-.79-8.58-4.56-.48-1.43-.42-2,.06-2.8a2.64,2.64,0,0,1,2.26-1H61.5c7.57,0,9.12-2.21,11.92-12.24l16.33-59a10.33,10.33,0,0,0-1.07-8.47A8,8,0,0,0,81.89,0H36.53a13,13,0,0,0-3,.58l.06-.19C26-2,25.5,7,23,11c-.95,1.5-2.38,2.8-2.62,4s.42,2.28.3,3.38A36.23,36.23,0,0,1,16.5,30.21c-.9,1.3-2.21,1.95-2.63,3.45-.35,1,.24,2.54.12,3.91-.3,3-2.38,8.85-4,11.85-.59,1.16-1.73,2.08-2,3.31s.3,2.54,0,3.78A48.66,48.66,0,0,1,3.5,68.42c-1,1.76-2.2,2.87-2.44,4.43-.12.78.42,1.63.36,2.67-.06,1.56-.3,2.86-.42,4.17A13,13,0,0,0,1.12,88c2.2,6.77,8.7,12,14.78,12h55c5.13,0,10.37-4.29,11.86-9.83l16.39-59A10.4,10.4,0,0,0,98.1,22.79Zm-31.58,8a1.81,1.81,0,0,0-.68.16.87.87,0,0,0-.47.43,1.13,1.13,0,0,0-.08.24c0,.14-.06.22-.08.27a1.16,1.16,0,0,1-.56.59,1,1,0,0,1-.45.1c-.35,0-.48-.16-.53-.29a.71.71,0,0,1,0-.55,2.68,2.68,0,0,1,1.09-1.05,3.9,3.9,0,0,1,2.06-.53c1,0,1.5.33,1.57,1a3.1,3.1,0,0,1-.37,1.42L66.85,35.2a2,2,0,0,0-.18.49s0,.06,0,.07,0,0,.09,0a.53.53,0,0,0,.23,0,3.54,3.54,0,0,0,.44-.22l.4-.2-.19.4-.16.35v0l0,0-.15.11a2.16,2.16,0,0,0,.83-.19,1.38,1.38,0,0,0,.46-.63l1.37-3a2.45,2.45,0,0,0,.29-.89.2.2,0,0,0,0-.09.31.31,0,0,0-.16,0l-.17,0-.21,0h0l-.29.05.12-.26.1-.22,0-.06.07,0,.92-.28.66-.2c.26-.08.54-.17.83-.28h0a.19.19,0,0,1,.15.06l0,.07v.07a.5.5,0,0,1-.06.19l-.24.52c.29-.22.55-.4.79-.55a2.23,2.23,0,0,1,1.08-.35.66.66,0,0,1,.61.27.37.37,0,0,1,0,.14l.08-.17,0-.09H77.9l-.1.21-.08.19,0,.09h-.1a1.66,1.66,0,0,0-.5.06.48.48,0,0,0-.37.26.42.42,0,0,0,0,.15,2.18,2.18,0,0,0,0,.28l.06,2.94,2.58-3.06.17-.24.15-.23a.43.43,0,0,0,0-.09.25.25,0,0,0-.17-.06h-.21l-.22,0,.09-.19.09-.19,0-.09h2.22l-.1.21-.09.19,0,.08h-.09a.86.86,0,0,0-.43.16,2.08,2.08,0,0,0-.42.42L75.63,37a16.78,16.78,0,0,1-2,2.11,2.72,2.72,0,0,1-1.69.68,1.12,1.12,0,0,1-.72-.22c-.14-.09-.33-.32-.12-.77a1.07,1.07,0,0,1,.46-.51,1.23,1.23,0,0,1,.66-.19,1.3,1.3,0,0,1,.53.14,1.06,1.06,0,0,0,.38.11c.11,0,.41-.11,1.1-.85a6.08,6.08,0,0,0,.93-1.17.23.23,0,0,0,0-.11.74.74,0,0,0,0-.12l-.1-4.55a1.2,1.2,0,0,0-.09-.58.46.46,0,0,0-.32-.13l-.08,0a.82.82,0,0,1-.07.3,1.28,1.28,0,0,1-.43.52.94.94,0,0,1-.59.22.64.64,0,0,1-.55-.3c-.1-.15-.16-.16-.18-.16s-.26,0-.67.34a2,2,0,0,0-.66.72l-1.36,3c-.21.44-.15.6-.11.64s.18.15.62.15h.31l-.1.22-.09.22,0,.09H66.94l.1-.22.08-.19a2.24,2.24,0,0,1-.36.21,2.1,2.1,0,0,1-1,.28c-.48,0-.64-.22-.69-.41a1.17,1.17,0,0,1,0-.42,8,8,0,0,1-.88.47,3.48,3.48,0,0,1-1.41.37,1,1,0,0,1-1-.47,1.22,1.22,0,0,1,0-1.17,3.7,3.7,0,0,1,1.79-1.69,24.87,24.87,0,0,1,3-1.08l.23-.51a2,2,0,0,0,.28-.87C67.13,31,67.11,30.75,66.52,30.75Zm-9.68.54H56.7l-.14,0-.28.05.12-.26.1-.24,0-.06.07,0,1.52-.41.74-.21h0a.22.22,0,0,1,.16.07l0,.07v.06a.27.27,0,0,1,0,.14l-.24.53a8.77,8.77,0,0,1,.94-.53,3,3,0,0,1,1.32-.34,1.17,1.17,0,0,1,.84.3c.38.39.37,1.05,0,2l-1.42,3.12c-.16.37-.14.52-.12.57s.2.13.43.14H61l-.1.21-.08.19,0,.09H57.49l.1-.22.09-.18,0-.08h.09a1.58,1.58,0,0,0,.75-.25,2,2,0,0,0,.55-.82l1.3-2.86a1.7,1.7,0,0,0,.2-.87c0-.06,0-.24-.49-.24a1.94,1.94,0,0,0-.87.25c-.19.1-.46.26-.78.47l-1.68,3.71c-.17.38-.1.47-.09.48s.15.12.5.13h.23l-.1.21-.08.19,0,.09H53.86l.1-.22.09-.18,0-.08h.09a1.65,1.65,0,0,0,.72-.22,1.6,1.6,0,0,0,.5-.72l1.54-3.4a1.68,1.68,0,0,0,.18-.53S57.1,31.29,56.84,31.29Zm-6.46-.16a4.67,4.67,0,0,1,2.74-.95,2.1,2.1,0,0,1,2,.95A2.7,2.7,0,0,1,55,33.58,6.2,6.2,0,0,1,53,36a4.62,4.62,0,0,1-2.78,1,2,2,0,0,1-1.93-1,2.8,2.8,0,0,1,.15-2.5A5.8,5.8,0,0,1,50.38,31.13Zm-2.53-3.22a1.34,1.34,0,0,1,.48-.56,1.23,1.23,0,0,1,.68-.23.58.58,0,0,1,.55.28.67.67,0,0,1,0,.63,1.37,1.37,0,0,1-.49.56,1.19,1.19,0,0,1-.68.22.56.56,0,0,1-.54-.28A.65.65,0,0,1,47.85,27.91Zm-2.2,3,.07,0,.34-.1c1-.27,1.57-.45,1.93-.57a1.32,1.32,0,0,1,.33-.09h.17l0,.18a1.21,1.21,0,0,1,0,.14l-2.17,4.8c-.31.67-.26.81-.25.82s.08.12.62.17l.21,0-.09.19-.08.19,0,.09H43l.1-.22.08-.18,0-.08h.09a2.39,2.39,0,0,0,1-.22,2.28,2.28,0,0,0,.57-.9L46.24,32a1.71,1.71,0,0,0,.2-.55.22.22,0,0,0,0-.08.31.31,0,0,0-.15,0h-.12l-.46.11-.3.07.13-.28.09-.21Zm-4-.17a.34.34,0,0,1,.12-.16,2.84,2.84,0,0,1,.29-.19,10.7,10.7,0,0,0,1-.6l1.55-1.25,0,0h0a.3.3,0,0,1,.2,0l0,0v0a.23.23,0,0,1,0,.24l-.65,1.43h1.39l-.1.21-.22.49,0,.08h-1.4l-1.72,3.77a2.57,2.57,0,0,0-.24.71.29.29,0,0,0,0,.23.3.3,0,0,0,.23.07.9.9,0,0,0,.42-.1,3.46,3.46,0,0,0,.55-.34l.12-.09.09.12.12.14.09.12-.12.09-.24.2a4.46,4.46,0,0,1-1.1.69,2.59,2.59,0,0,1-.91.2.94.94,0,0,1-.73-.25.79.79,0,0,1-.2-.61,3.1,3.1,0,0,1,.34-1.11l1.73-3.84h-.57l0,0a.22.22,0,0,1-.05-.26Zm-5.36.41a4.72,4.72,0,0,1,2.82-1,1.9,1.9,0,0,1,1.39.47.93.93,0,0,1,.22,1.11,1.13,1.13,0,0,1-.39.47,1,1,0,0,1-.66.22.52.52,0,0,1-.47-.22.73.73,0,0,1-.08-.58l.06-.33c0-.12,0-.29,0-.35a.67.67,0,0,0-.43-.11,2.56,2.56,0,0,0-1.53.63,4.56,4.56,0,0,0-1.3,1.72,2.49,2.49,0,0,0-.22,1.71,1,1,0,0,0,1.09.7,2.72,2.72,0,0,0,1.4-.44,8.11,8.11,0,0,0,1.07-.81l.09-.09.1.08.14.12.13.1-.11.12A11.2,11.2,0,0,1,38.17,36a4.22,4.22,0,0,1-2.42.92A1.73,1.73,0,0,1,34.1,36a2.61,2.61,0,0,1,.18-2.37A6.24,6.24,0,0,1,36.3,31.18Zm-2.5-3.27a1.34,1.34,0,0,1,.48-.56,1.26,1.26,0,0,1,.69-.23.57.57,0,0,1,.54.28.67.67,0,0,1,0,.63,1.42,1.42,0,0,1-.48.56,1.24,1.24,0,0,1-.68.22.57.57,0,0,1-.55-.28A.65.65,0,0,1,33.8,27.91Zm-2.32,3.3.09-.21,0-.06.07,0,.34-.1c1-.27,1.58-.45,1.93-.57a1.32,1.32,0,0,1,.33-.09h.17l0,.18a1.21,1.21,0,0,1-.05.14l-2.17,4.8c-.3.67-.26.81-.25.82s.08.12.62.17l.22,0-.09.19-.09.19,0,.09H28.9l.1-.22.09-.18,0-.08h.09a2.33,2.33,0,0,0,1-.22,2.28,2.28,0,0,0,.57-.9L32.2,32a1.82,1.82,0,0,0,.19-.55.08.08,0,0,0,0-.08.31.31,0,0,0-.15,0h-.12l-.46.11-.3.07ZM18.8,36.54l.12-.25,0-.08H19A2.71,2.71,0,0,0,20.1,36a2.12,2.12,0,0,0,.61-.89L23.47,29c.29-.65.23-.8.22-.83s-.12-.15-.77-.19H22.7l.09-.2.12-.26,0-.09h3.88a6.08,6.08,0,0,1,3,.64c1.33.78,1.55,2.17.66,4.14a7.29,7.29,0,0,1-1.34,2,8.07,8.07,0,0,1-3.47,2.21,9.87,9.87,0,0,1-2.88.4H18.7Z"/><path class="cls-1" d="M88.68,28.54l-1.37,5c.73.24,1.62-.67,2-2S89.41,28.78,88.68,28.54Z"/><path class="cls-1" d="M88.13,34.52l-1.36,4.95c.72.24,1.62-.67,2-2S88.86,34.76,88.13,34.52Z"/><path class="cls-1" d="M90.94,19.5c.38-1.37.09-2.67-.64-2.91l-1.36,4.94C89.66,21.77,90.56,20.86,90.94,19.5Z"/><path class="cls-1" d="M82.42,55l-1.37,4.94c.72.24,1.62-.67,2-2S83.14,55.19,82.42,55Z"/><path class="cls-1" d="M84.68,45.9c.37-1.37.09-2.67-.64-2.91l-1.37,4.95C83.4,48.18,84.3,47.27,84.68,45.9Z"/><path class="cls-1" d="M83,49l-1.37,5c.73.24,1.62-.68,2-2S83.69,49.21,83,49Z"/><path class="cls-1" d="M22.69,36a6.88,6.88,0,0,0,2.94-.62,6.35,6.35,0,0,0,3.07-3.27c.61-1.34.65-2.36.12-3a3.12,3.12,0,0,0-2.53-.86,1.48,1.48,0,0,0-.62.09.69.69,0,0,0-.3.37l-3.15,7c-.1.21-.07.27-.07.27S22.24,36,22.69,36Z"/><path class="cls-1" d="M84.59,37l-1.37,5c.72.24,1.62-.67,2-2S85.31,37.25,84.59,37Z"/><path class="cls-1" d="M76.8,76l-1.36,4.94c.72.24,1.62-.67,2-2S77.53,76.19,76.8,76Z"/><path class="cls-1" d="M79.07,66.9c.37-1.37.09-2.67-.64-2.91l-1.37,4.95C77.79,69.18,78.69,68.27,79.07,66.9Z"/><path class="cls-1" d="M77.35,70l-1.37,5c.73.24,1.62-.68,2-2S78.07,70.21,77.35,70Z"/></svg>