<svg id="Layer_1" data-name="Layer 1" xmlns="http://www.w3.org/2000/svg" viewBox="0 0 100 100"><defs><style>.cls-1{fill:#231f20;}</style></defs><title> </title><path class="cls-1" d="M86.65,16.56H33.88a.44.44,0,0,0,0,.88H86.65a.44.44,0,1,0,0-.88Z"/><path class="cls-1" d="M83.88,25.53H77.51l-.44-.6,3.25-2.81-.7-1L76.35,24l-2.1-2.82-1.1,1,2.08,2.81-.7.6H58.27a5,5,0,0,0,0-.67,6.35,6.35,0,0,0-12.66,0c0,.22,0,.45,0,.67H31.11a.44.44,0,0,0-.44.44.44.44,0,0,0,.44.44H45.89a6.47,6.47,0,0,0,12.19,0H73.51L72,27.73l.72,1,2.65-2.28h1L78,28.69l1.12-1-1-1.32h5.71a.44.44,0,0,0,.44-.44A.44.44,0,0,0,83.88,25.53ZM47.1,24.86c0-2.33,2.19-4.23,4.89-4.23s4.89,1.9,4.89,4.23a3.72,3.72,0,0,1-.08.67H47.18A3,3,0,0,1,47.1,24.86ZM52,29.08a4.92,4.92,0,0,1-4.54-2.67h9.08A4.94,4.94,0,0,1,52,29.08Z"/><path class="cls-1" d="M81.11,34.49H28.34a.44.44,0,0,0,0,.88H81.11a.44.44,0,0,0,0-.88Z"/><path class="cls-1" d="M78.33,43.46H42.92c0-.17,0-.34,0-.51,0-3.71-4.18-6.62-9.52-6.62S23.9,39.24,23.9,43s4.18,6.63,9.53,6.63c4.65,0,8.43-2.22,9.32-5.24H78.33a.44.44,0,0,0,0-.88ZM33.43,38c4.38,0,8.08,2.28,8.08,5a2.92,2.92,0,0,1,0,.51H25.56a.47.47,0,0,0-.17,0,3.29,3.29,0,0,1-.05-.54C25.34,40.24,29,38,33.43,38Zm0,10c-3.61,0-6.76-1.55-7.76-3.6H41.18C40.18,46.39,37,47.94,33.43,47.94Z"/><path class="cls-1" d="M75.56,52.42H62.22l-.3-.4,3.26-2.81-.7-1L61.2,51.07l-2.09-2.82-1.11,1L60.08,52l-.47.4H22.79a.44.44,0,0,0-.44.44.44.44,0,0,0,.44.44h35.8l-1.76,1.52.71,1,2.88-2.49H61l1.84,2.49,1.12-1L62.87,53.3H75.56a.44.44,0,0,0,.44-.44A.44.44,0,0,0,75.56,52.42Z"/><path class="cls-1" d="M72.79,61.39H20a.44.44,0,0,0,0,.88H72.79a.44.44,0,0,0,0-.88Z"/><path class="cls-1" d="M60.07,70.35H17.24a.44.44,0,0,0-.44.44.44.44,0,0,0,.44.44H60.07a.44.44,0,0,0,.44-.44A.44.44,0,0,0,60.07,70.35Z"/><path class="cls-1" d="M11.25,88.72a.44.44,0,0,0,.44.44H64.46a.43.43,0,0,0,.44-.44.44.44,0,0,0-.44-.44H11.69A.44.44,0,0,0,11.25,88.72Z"/><path class="cls-1" d="M84.47,55.31l-.46.35L99.54,5.22a4.34,4.34,0,0,0-.33-3.61,3.37,3.37,0,0,0-3-1.58H33.62a6.21,6.21,0,0,0-5.47,4.39L.32,94.78a4.38,4.38,0,0,0,.34,3.61,3.35,3.35,0,0,0,3,1.59H66.24a6.22,6.22,0,0,0,5.48-4.39l7.6-24.69L90,62.55ZM57.87,80,59,77.7,62,75.31l3.14,4.1L62.1,81.79l-2.51.47,1.29-2.79Zm6.89-5.94c-.31,0-.43-.1-.3-.39a1.1,1.1,0,0,1,.34-.4L79.69,61.7l-.36,1.17-14.1,11A1.19,1.19,0,0,1,64.76,74.09Zm-8.28,3-1,2.22h-5.6a6.36,6.36,0,0,0-12.63,0H14.47a.44.44,0,1,0,0,.88H37.26a6.4,6.4,0,0,0,12.57,0h5.22l-2.78,6,9.78-1.83,14-10.93L69.5,94.78a3.89,3.89,0,0,1-3.26,2.67H3.62a1.15,1.15,0,0,1-1-.48,1.65,1.65,0,0,1,0-1.38L30.36,5.22a3.91,3.91,0,0,1,3.26-2.66H96.24a1.14,1.14,0,0,1,1,.48,1.69,1.69,0,0,1,0,1.38L80.77,58.18Zm-17.8,2.22a4.63,4.63,0,0,1,4.86-4,4.64,4.64,0,0,1,4.87,4Zm9.68.88a4.72,4.72,0,0,1-4.82,3.58,4.71,4.71,0,0,1-4.81-3.58Zm35.43-21a1.11,1.11,0,0,1-.33.41l-.89.69.36-1.18.1-.07a1.19,1.19,0,0,1,.47-.23C83.8,58.81,83.92,59,83.79,59.25Z"/><path class="cls-1" d="M99.6,52.58,96.45,48.5a1.77,1.77,0,0,0-1.76-.42,6,6,0,0,0-2.5,1.22l-5.57,4.33,5.57,7.24,5.58-4.35a6.16,6.16,0,0,0,1.78-2.12A1.82,1.82,0,0,0,99.6,52.58Z"/></svg>