<?xml version="1.0" encoding="utf-8"?>
<!-- Generator: Adobe Illustrator 24.0.0, SVG Export Plug-In . SVG Version: 6.00 Build 0)  -->
<svg version="1.1" id="Layer_1" xmlns="http://www.w3.org/2000/svg" xmlns:xlink="http://www.w3.org/1999/xlink" x="0px" y="0px"
	 viewBox="0 0 100 100" style="enable-background:new 0 0 100 100;" xml:space="preserve">
<style type="text/css">
	.st0{fill:none;}
	.st1{fill:#FFFFFF;}
	.st2{fill:#FFFFFF;stroke:#FFFFFF;stroke-width:0.25;stroke-miterlimit:10;}
	.st3{fill:none;stroke:#000000;stroke-width:0.25;stroke-linecap:round;stroke-miterlimit:10;}
	.st4{fill:#D9D9D9;}
	.st5{fill:none;stroke:#000000;stroke-width:2;stroke-linejoin:round;stroke-miterlimit:10;}
	.st6{fill:none;stroke:#000000;stroke-width:0.4396;stroke-miterlimit:10;}
	.st7{fill:none;stroke:#000000;stroke-linecap:round;stroke-linejoin:round;}
	.st8{fill:none;stroke:#000000;stroke-linecap:round;stroke-linejoin:round;stroke-miterlimit:10;}
</style>
<g>
	<path d="M21.51,26.9c0,0.19,0.15,0.34,0.34,0.34h19.91l0.21-0.68H21.85C21.67,26.56,21.51,26.71,21.51,26.9z"/>
	<path d="M23.65,20c0,0.19,0.15,0.34,0.34,0.34h40.62c0.19,0,0.34-0.15,0.34-0.34c0-0.19-0.15-0.34-0.34-0.34H23.99
		C23.8,19.66,23.65,19.81,23.65,20z"/>
	<path d="M26.64,75.02H2.83c-0.37,0-0.65-0.13-0.8-0.37c-0.16-0.25-0.17-0.63-0.04-1.06L23.41,4.03c0.34-1.09,1.51-2.05,2.51-2.05
		h48.21c0.37,0,0.65,0.13,0.79,0.37c0.16,0.25,0.17,0.64,0.04,1.06L69.33,21.7h1.9l5.44-17.67c0.31-1.02,0.22-2.01-0.26-2.78
		c-0.49-0.79-1.3-1.22-2.28-1.22H25.92c-1.78,0-3.63,1.48-4.21,3.38L0.29,72.97c-0.31,1.01-0.21,2.02,0.26,2.78
		c0.49,0.79,1.3,1.22,2.28,1.22h23.2L26.64,75.02z"/>
	<path d="M19.38,33.8c0,0.19,0.15,0.34,0.34,0.34h19.86l0.21-0.68H19.72C19.53,33.46,19.38,33.61,19.38,33.8z"/>
	<path d="M66.75,12.76H26.12c-0.19,0-0.34,0.15-0.34,0.34s0.15,0.34,0.34,0.34h40.62c0.19,0,0.34-0.15,0.34-0.34
		S66.93,12.76,66.75,12.76z"/>
	<path d="M11.26,61.41c0,0.19,0.15,0.34,0.34,0.34h19.25l0.21-0.68H11.6C11.41,61.07,11.26,61.22,11.26,61.41z"/>
	<path d="M13.39,54.5c0,0.19,0.15,0.34,0.34,0.34h19.3l0.21-0.68H13.73C13.54,54.17,13.39,54.32,13.39,54.5z"/>
	<path d="M9.12,68.31c0,0.19,0.15,0.34,0.34,0.34h19.2l0.21-0.68H9.46C9.27,67.97,9.12,68.12,9.12,68.31z"/>
	<path d="M15.53,47.6c0,0.19,0.15,0.34,0.34,0.34h19.34l0.21-0.68H15.87C15.68,47.26,15.53,47.42,15.53,47.6z"/>
	<path d="M17.24,40.7c0,0.19,0.15,0.34,0.34,0.34H37.4l0.21-0.68H17.58C17.39,40.36,17.24,40.51,17.24,40.7z"/>
</g>
<g>
	<path d="M89.67,36.24H74.92c-1.91-3.66-7.12-6.29-13.24-6.29c-7.74,0-14.03,4.21-14.03,9.37c0,1.34,0.43,2.6,1.18,3.76h-1.53
		c-0.18,0-0.34,0.15-0.34,0.34s0.15,0.34,0.34,0.34h2.02c2.37,2.94,7.02,4.95,12.36,4.95s9.99-2,12.36-4.95h13.51
		c0.18,0,0.34-0.15,0.34-0.34s-0.15-0.34-0.34-0.34H74.53c0.76-1.15,1.18-2.42,1.18-3.76c0-0.84-0.18-1.64-0.49-2.41h14.44
		c0.18,0,0.34-0.15,0.34-0.34S89.85,36.24,89.67,36.24z M61.69,31.02c5.46,0,10.13,2.16,12.05,5.21h-24.1
		C51.56,33.19,56.23,31.02,61.69,31.02z M61.69,47.62c-4.61,0-8.66-1.55-10.97-3.87h21.93C70.35,46.07,66.3,47.62,61.69,47.62z
		 M74.68,39.32c0,1.35-0.52,2.63-1.42,3.76H50.12c-0.9-1.13-1.42-2.4-1.42-3.76c0-0.86,0.21-1.69,0.59-2.47
		c0.05,0.02,0.08,0.06,0.14,0.06h24.69C74.48,37.67,74.68,38.48,74.68,39.32z"/>
	<path d="M85.44,49.91H48.85l0.78-3.55l-5.96,1.88l1.82,1.66h-0.3c-0.18,0-0.34,0.15-0.34,0.34c0,0.16,0.12,0.27,0.26,0.31
		c-2.66,3.95-3.97,8.53-3.85,13.04l0,0c0.01,0.22,0.02,0.45,0.03,0.67l0,0c0.12,2.11,0.56,4.19,1.33,6.17h-3.78
		c-0.18,0-0.34,0.15-0.34,0.34s0.15,0.34,0.34,0.34h4.05c0.05,0.11,0.08,0.22,0.13,0.32l-2.13,1.34l5.53,2.91l-0.18-4.57h32.83
		c0.18,0,0.34-0.15,0.34-0.34s-0.15-0.34-0.34-0.34H46.23l-0.04-1l-1.59,1h-0.63c-0.88-2.11-1.36-4.36-1.44-6.63
		c0-0.07-0.01-0.14-0.01-0.2l0,0c-0.06-2.06,0.2-4.14,0.77-6.17h40.03c0.18,0,0.34-0.15,0.34-0.34s-0.15-0.34-0.34-0.34H43.49
		c0.66-2.09,1.66-4.1,2.97-5.96l1.83,1.67l0.42-1.88h36.73c0.18,0,0.34-0.15,0.34-0.34S85.62,49.91,85.44,49.91z"/>
	<path d="M64.62,84.37c0-0.17-0.14-0.31-0.31-0.31H34.59c-0.17,0-0.31,0.14-0.31,0.31c0,0.17,0.14,0.31,0.31,0.31h29.73
		C64.49,84.68,64.62,84.54,64.62,84.37z"/>
	<path d="M99.54,63.7l-2.41-3.11c-0.25-0.32-0.73-0.44-1.34-0.33c-0.61,0.11-1.31,0.46-1.91,0.93l-4.25,3.3l4.25,5.53l4.26-3.32
		c0.59-0.46,1.1-1.06,1.36-1.62C99.77,64.53,99.77,64.03,99.54,63.7z"/>
	<path d="M88,65.79l-0.35,0.27l11.84-38.46c0.31-1.01,0.22-1.99-0.25-2.75c-0.49-0.78-1.29-1.21-2.26-1.21H49.22
		c-1.76,0-3.59,1.47-4.17,3.35L23.83,95.89c-0.31,1-0.21,2,0.26,2.75c0.49,0.78,1.29,1.21,2.26,1.21H74.1
		c1.76,0,3.59-1.47,4.17-3.35l5.8-18.83l8.17-6.37L88,65.79z M48.25,90.94c-8.96-0.83-15.74-3.57-15.74-6.71
		c0-2.65,4.81-5.01,11.68-6.18H63.6c2.48,0.42,4.68,1,6.5,1.69l-3.44,2.68l-3.21,6.92l7.46-1.39l4.35-3.39
		c-0.44,3.01-7.06,5.59-15.71,6.39H48.25z M47.82,77.55c1.94-0.19,3.98-0.3,6.08-0.3s4.14,0.11,6.08,0.3H47.82z M67.72,84.64
		l0.83-1.78l2.33-1.82l2.4,3.12l-2.33,1.82l-1.92,0.36l0.99-2.13L67.72,84.64z M73.33,79.93c-0.09,0.07-0.17,0.11-0.25,0.14
		c-0.11-0.07-0.23-0.13-0.35-0.19c0.01-0.02,0.01-0.04,0.02-0.06c0.05-0.1,0.13-0.21,0.26-0.31l11.35-8.85l-0.28,0.89L73.33,79.93z
		 M70.96,79.06c-0.91-0.37-1.92-0.71-3.01-1.02h2.54c0.19,0,0.35-0.11,0.35-0.24c0-0.13-0.16-0.24-0.35-0.24h-4.51
		c-3.47-0.76-7.6-1.2-12.08-1.2c-4.48,0-8.62,0.44-12.08,1.2h-5.07c-0.19,0-0.35,0.11-0.35,0.24c0,0.13,0.16,0.24,0.35,0.24h3.1
		c-5.15,1.43-8.4,3.65-8.4,6.18c0,2.87,4.17,5.34,10.55,6.71h-9.5c-0.18,0-0.34,0.15-0.34,0.34s0.15,0.34,0.34,0.34h13.43
		c2.47,0.32,5.15,0.49,7.97,0.49s5.5-0.17,7.97-0.49h10.88c0.18,0,0.34-0.15,0.34-0.34s-0.15-0.34-0.34-0.34H65.8
		c6.38-1.37,10.55-3.84,10.55-6.71c0-0.17-0.02-0.33-0.05-0.49l5.3-4.13l-5.02,16.29c-0.33,1.08-1.49,2.03-2.48,2.03H26.34
		c-0.36,0-0.64-0.13-0.79-0.36c-0.16-0.25-0.17-0.63-0.04-1.05l21.22-68.92c0.33-1.08,1.49-2.03,2.48-2.03h47.76
		c0.36,0,0.64,0.13,0.79,0.36c0.15,0.25,0.17,0.63,0.04,1.05l-12.62,41L70.96,79.06z M87.49,68.8c-0.05,0.1-0.13,0.21-0.26,0.31
		l-0.68,0.53l0.28-0.89l0.07-0.06c0.13-0.1,0.25-0.15,0.36-0.17C87.49,68.46,87.59,68.58,87.49,68.8z"/>
	<path d="M81.21,63.59H43.24c0.01,0.22,0.01,0.45,0.03,0.67h37.94c0.18,0,0.34-0.15,0.34-0.34C81.54,63.74,81.39,63.59,81.21,63.59z
		"/>
</g>
</svg>
