<svg id="Layer_1" data-name="Layer 1" xmlns="http://www.w3.org/2000/svg" viewBox="0 0 100 100"><defs><style>.cls-1{fill:#231f20;}</style></defs><title> </title><polygon class="cls-1" points="18.22 83.02 18.22 83.06 18.22 91.98 18.22 99.82 19.42 99.1 23.41 96.7 27.38 99.09 28.59 99.82 28.59 91.98 28.59 83.06 28.59 83.02 28.59 80.36 18.22 80.36 18.22 83.02"/><path class="cls-1" d="M48.78,27.52h3.58a.76.76,0,0,0,.71-.59l.56-3a.48.48,0,0,0-.49-.6H49.56a.74.74,0,0,0-.71.6l-.56,3A.48.48,0,0,0,48.78,27.52Z"/><path class="cls-1" d="M43.25,44.26h8.36a.74.74,0,0,0,.71-.6l.56-3a.48.48,0,0,0-.49-.6H50.6l1.8-9.57a.48.48,0,0,0-.49-.59h-6a.74.74,0,0,0-.71.59l-.56,3a.48.48,0,0,0,.48.6H47l-1.12,6H44a.75.75,0,0,0-.71.6l-.56,3A.48.48,0,0,0,43.25,44.26Z"/><path class="cls-1" d="M98.38,20.92a8,8,0,0,0-3.54-2.58q0,.42,0,.87a8.57,8.57,0,0,1-.33,2.54l-18,59a3.88,3.88,0,0,1-.8,1.43,6.42,6.42,0,0,1-4.66,2H30v7.66H71a13.12,13.12,0,0,0,12-9L99.47,28.63A8.83,8.83,0,0,0,98.38,20.92Z"/><path class="cls-1" d="M6.94,80c-.49-1.32-.43-1.86.06-2.57a2.78,2.78,0,0,1,2.28-.9H61.49c7.63,0,9.2-2,12-11.24L90,11.11a8.79,8.79,0,0,0-1.08-7.78A8.34,8.34,0,0,0,82,0H36.32a13.65,13.65,0,0,0-3.07.54l.06-.18c-7.63-2.15-8.11,6-10.63,9.75-1,1.38-2.4,2.57-2.65,3.71s.43,2.09.3,3.11a31.36,31.36,0,0,1-4.2,10.82c-.9,1.2-2.23,1.79-2.65,3.17-.36,1,.24,2.33.13,3.59-.31,2.81-2.41,8.13-4,10.88-.6,1.08-1.74,1.92-2,3.05s.3,2.33,0,3.47A43,43,0,0,1,3,62.83C2.07,64.45.81,65.47.57,66.9c-.13.72.42,1.49.36,2.45C.87,70.79.63,72,.51,73.18a10.91,10.91,0,0,0,.12,7.59C2.85,87,9.4,91.84,15.53,91.84h1.26V84.18h-1.2C12.28,84.18,8.14,83.46,6.94,80ZM35.36,34.2c1.51-8,9.24-14.48,17.26-14.48s13.3,6.49,11.8,14.48S55.19,48.67,47.17,48.67,33.86,42.19,35.36,34.2Z"/></svg>