<?xml version="1.0" encoding="utf-8"?>
<!-- Generator: Adobe Illustrator 24.0.0, SVG Export Plug-In . SVG Version: 6.00 Build 0)  -->
<svg version="1.1" id="Layer_1" xmlns="http://www.w3.org/2000/svg" xmlns:xlink="http://www.w3.org/1999/xlink" x="0px" y="0px"
	 viewBox="0 0 100 100" style="enable-background:new 0 0 100 100;" xml:space="preserve">
<style type="text/css">
	.st0{fill:none;}
	.st1{fill:#FFFFFF;}
	.st2{fill:#FFFFFF;stroke:#FFFFFF;stroke-width:0.25;stroke-miterlimit:10;}
	.st3{fill:none;stroke:#000000;stroke-width:0.25;stroke-linecap:round;stroke-miterlimit:10;}
	.st4{fill:#D9D9D9;}
	.st5{fill:none;stroke:#000000;stroke-width:2;stroke-linejoin:round;stroke-miterlimit:10;}
	.st6{fill:none;stroke:#000000;stroke-width:0.4396;stroke-miterlimit:10;}
	.st7{fill:none;stroke:#000000;stroke-linecap:round;stroke-linejoin:round;}
	.st8{fill:none;stroke:#000000;stroke-linecap:round;stroke-linejoin:round;stroke-miterlimit:10;}
</style>
<g>
	<path d="M63.56,34.88c-0.15,0.34-0.16,0.59-0.02,0.73c0.09,0.1,0.23,0.14,0.41,0.14c0.28,0,0.59-0.08,0.92-0.23
		c0.32-0.15,0.53-0.33,0.63-0.55l0.83-1.82c-0.46,0.14-0.87,0.29-1.22,0.46C64.28,33.98,63.77,34.41,63.56,34.88z"/>
	<path d="M90.4,25.47c0.38-1.37,0.09-2.67-0.63-2.91l-1.37,4.94C89.12,27.75,90.02,26.84,90.4,25.47z"/>
	<path d="M78.97,58.01l-1.37,4.94c0.73,0.24,1.62-0.67,2-2.04C79.99,59.56,79.7,58.25,78.97,58.01z"/>
	<path d="M50.62,36.28c0.48,0,0.93-0.21,1.4-0.65c0.47-0.45,0.87-1.04,1.2-1.76c0.34-0.75,0.49-1.45,0.44-2.1
		c-0.04-0.6-0.33-0.88-0.92-0.88c-0.34,0-0.67,0.11-1.02,0.33c-0.61,0.38-1.14,1.07-1.58,2.03c-0.35,0.77-0.49,1.49-0.44,2.14
		C49.75,36,50.04,36.28,50.62,36.28z"/>
	<path d="M98.1,22.79c-0.9-1.31-2.15-2.22-3.52-2.8c0.06,1.17,0.06,2.47-0.3,3.71L76.4,87.96c-0.66,2.34-3.22,3.71-5.42,3.71H15.96
		c-3.28,0-7.4-0.78-8.59-4.56c-0.48-1.43-0.42-2.02,0.06-2.8c0.53-0.78,1.49-0.98,2.26-0.98h51.8c7.57,0,9.12-2.21,11.92-12.24
		l16.33-58.98c0.83-3.06,0.48-6.12-1.07-8.47C87.19,1.37,84.69,0,81.89,0H36.53c-1.02,0-2.03,0.33-3.04,0.58l0.06-0.19
		C25.97-1.96,25.5,6.97,22.99,11c-0.95,1.5-2.38,2.8-2.62,4.04c-0.18,1.17,0.42,2.28,0.3,3.38c-0.36,3.45-2.74,9.64-4.17,11.79
		c-0.9,1.3-2.21,1.95-2.62,3.45c-0.36,1.04,0.24,2.54,0.12,3.91c-0.3,3.06-2.39,8.85-3.99,11.85c-0.6,1.17-1.73,2.08-2.03,3.32
		c-0.3,1.11,0.3,2.54,0,3.78c-0.66,3.38-2.68,8.66-4.47,11.91c-0.95,1.76-2.2,2.87-2.44,4.43c-0.12,0.78,0.42,1.63,0.36,2.67
		c-0.06,1.56-0.3,2.86-0.42,4.17c-0.83,2.47-0.83,5.34,0.12,8.27C3.32,94.73,9.82,100,15.9,100h55.02c5.13,0,10.37-4.29,11.86-9.83
		l16.39-58.98C100.01,28.19,99.59,25.13,98.1,22.79z M66.52,30.75c-0.21,0-0.44,0.05-0.68,0.16c-0.23,0.11-0.39,0.24-0.47,0.42
		c-0.03,0.06-0.07,0.2-0.08,0.24c-0.04,0.14-0.07,0.22-0.08,0.27c-0.13,0.28-0.32,0.48-0.56,0.59c-0.14,0.07-0.29,0.1-0.45,0.1
		c-0.34,0-0.48-0.16-0.53-0.3c-0.07-0.17-0.05-0.36,0.04-0.55c0.15-0.34,0.52-0.69,1.1-1.05c0.57-0.35,1.26-0.53,2.05-0.53
		c0.97,0,1.5,0.33,1.57,0.98c0.03,0.34-0.09,0.8-0.37,1.42l-1.21,2.68c-0.14,0.3-0.17,0.43-0.18,0.49c0,0.05,0,0.07,0.01,0.07
		c0.01,0.01,0.03,0.02,0.1,0.02c0.09,0,0.16-0.01,0.23-0.04c0.09-0.03,0.28-0.14,0.44-0.22l0.39-0.21l-0.18,0.4l-0.16,0.35
		l-0.02,0.03l-0.03,0.02c-0.05,0.04-0.1,0.07-0.15,0.11c0.49-0.04,0.72-0.13,0.84-0.19c0.16-0.09,0.31-0.3,0.46-0.63l1.37-3.02
		c0.24-0.52,0.29-0.77,0.29-0.89c0-0.04-0.01-0.07-0.03-0.09c-0.03-0.03-0.08-0.04-0.16-0.04c-0.04,0-0.1,0-0.17,0.01
		c-0.07,0.01-0.14,0.02-0.21,0.04l-0.04,0.01l-0.28,0.05l0.12-0.26l0.1-0.22l0.03-0.06l0.07-0.02c0.3-0.09,0.61-0.18,0.93-0.28
		c0.31-0.09,0.53-0.16,0.66-0.2c0.26-0.08,0.54-0.18,0.83-0.29l0.03-0.01h0.03c0.08,0,0.12,0.03,0.15,0.06l0.05,0.07l-0.01,0.07
		c0,0.03-0.02,0.08-0.07,0.19l-0.24,0.52c0.29-0.22,0.55-0.4,0.8-0.55c0.39-0.24,0.76-0.35,1.08-0.35c0.29,0,0.5,0.09,0.61,0.27
		c0.03,0.04,0.03,0.1,0.04,0.14l0.08-0.18l0.04-0.09h0.1h2.9h0.23l-0.1,0.21l-0.09,0.19l-0.04,0.09l-0.09,0
		c-0.22,0-0.38,0.02-0.5,0.06c-0.19,0.05-0.31,0.13-0.37,0.26c-0.02,0.05-0.04,0.1-0.04,0.15c-0.01,0.07-0.01,0.16-0.01,0.28
		l0.06,2.95l2.58-3.06c0.03-0.03,0.09-0.11,0.17-0.24c0.08-0.12,0.13-0.2,0.15-0.24c0.03-0.06,0.03-0.09,0.03-0.09
		c-0.02-0.02-0.06-0.05-0.18-0.05l-0.21-0.01l-0.22-0.01l0.09-0.2l0.09-0.19l0.04-0.09h0.1h1.89h0.23l-0.1,0.21l-0.09,0.19
		l-0.04,0.08l-0.08,0.01c-0.17,0.02-0.31,0.07-0.44,0.17c-0.13,0.1-0.27,0.24-0.42,0.42l-4.69,5.58c-0.81,0.97-1.5,1.68-2.05,2.11
		c-0.56,0.45-1.13,0.68-1.69,0.68c-0.29,0-0.54-0.07-0.73-0.22c-0.13-0.1-0.32-0.33-0.12-0.78c0.09-0.2,0.25-0.37,0.46-0.51
		c0.21-0.13,0.43-0.19,0.66-0.19c0.14,0,0.32,0.04,0.53,0.14c0.21,0.09,0.32,0.11,0.38,0.11c0.12,0,0.42-0.11,1.1-0.86
		c0.68-0.74,0.88-1.04,0.94-1.16c0.01-0.03,0.02-0.06,0.03-0.11c0.01-0.05,0.02-0.09,0.02-0.12l-0.1-4.56
		c-0.01-0.41-0.06-0.53-0.09-0.57c-0.04-0.06-0.15-0.11-0.32-0.14l-0.08-0.01c-0.01,0.09-0.03,0.19-0.07,0.3
		c-0.09,0.21-0.24,0.38-0.42,0.52c-0.19,0.14-0.39,0.22-0.6,0.22c-0.22,0-0.41-0.1-0.54-0.3c-0.11-0.16-0.17-0.17-0.19-0.17
		c-0.07,0-0.26,0.04-0.67,0.35c-0.32,0.24-0.54,0.48-0.65,0.72l-1.37,3.02c-0.2,0.44-0.14,0.6-0.11,0.64
		c0.04,0.06,0.19,0.15,0.63,0.15l0.07,0l0.24,0l-0.1,0.22l-0.1,0.22l-0.04,0.09h-0.1h-3.38h-0.23l0.1-0.21l0.08-0.19
		c-0.12,0.08-0.24,0.15-0.36,0.21c-0.36,0.18-0.67,0.27-0.97,0.27c-0.48,0-0.64-0.22-0.69-0.41c-0.03-0.13-0.04-0.26-0.01-0.42
		c-0.35,0.2-0.63,0.36-0.88,0.47c-0.55,0.25-1.01,0.37-1.41,0.37c-0.45,0-0.77-0.16-0.97-0.47c-0.19-0.32-0.18-0.71,0.03-1.17
		c0.31-0.68,0.91-1.25,1.8-1.69c0.55-0.27,1.55-0.63,2.97-1.08l0.23-0.51c0.24-0.54,0.29-0.77,0.28-0.87
		C67.13,30.98,67.11,30.75,66.52,30.75z M56.84,31.29c-0.04,0-0.07,0-0.14,0.01c-0.04,0-0.08,0.01-0.14,0.02l-0.28,0.05l0.12-0.26
		l0.11-0.23l0.03-0.07l0.07-0.02c0.21-0.05,0.72-0.19,1.52-0.41l0.74-0.21l0.02-0.01h0.02c0.08,0,0.13,0.04,0.15,0.07l0.04,0.07
		l-0.01,0.06c0,0.04-0.02,0.08-0.04,0.14l-0.24,0.52c0.39-0.24,0.7-0.42,0.93-0.53c0.47-0.23,0.92-0.34,1.32-0.34
		c0.35,0,0.64,0.1,0.84,0.3c0.39,0.38,0.37,1.05-0.05,1.98l-1.41,3.12c-0.16,0.36-0.15,0.51-0.12,0.57c0.04,0.08,0.2,0.13,0.43,0.14
		l0.23,0l-0.1,0.21l-0.09,0.19l-0.04,0.09h-0.1h-2.93h-0.23l0.1-0.21l0.09-0.19l0.04-0.08l0.08-0.01c0.33-0.04,0.58-0.12,0.75-0.25
		c0.12-0.08,0.31-0.3,0.55-0.83l1.29-2.85c0.16-0.36,0.23-0.65,0.2-0.87c-0.01-0.07-0.03-0.24-0.49-0.24
		c-0.25,0-0.54,0.08-0.87,0.25c-0.19,0.1-0.46,0.26-0.78,0.48l-1.68,3.7c-0.17,0.38-0.11,0.47-0.1,0.48
		c0.04,0.04,0.15,0.12,0.5,0.13l0.23,0.01l-0.09,0.21l-0.09,0.19l-0.04,0.09h-0.1h-3h-0.23l0.1-0.21l0.09-0.19l0.04-0.08l0.08-0.01
		c0.32-0.04,0.56-0.11,0.73-0.21c0.11-0.07,0.28-0.25,0.5-0.73l1.54-3.4c0.16-0.36,0.18-0.49,0.17-0.53
		C57.1,31.38,57.1,31.29,56.84,31.29z M50.38,31.13c0.88-0.63,1.8-0.95,2.74-0.95c0.96,0,1.63,0.32,1.99,0.95
		c0.36,0.62,0.31,1.44-0.15,2.45c-0.41,0.91-1.07,1.7-1.96,2.37c-0.9,0.67-1.83,1.01-2.77,1.01c-0.94,0-1.59-0.35-1.94-1.03
		c-0.34-0.67-0.29-1.51,0.16-2.5C48.85,32.53,49.51,31.76,50.38,31.13z M47.85,27.91c0.1-0.22,0.26-0.4,0.48-0.56
		c0.22-0.15,0.45-0.23,0.68-0.23c0.32,0,0.47,0.15,0.54,0.28c0.1,0.18,0.1,0.39-0.01,0.63c-0.1,0.21-0.26,0.4-0.49,0.55
		c-0.23,0.15-0.45,0.23-0.68,0.23c-0.32,0-0.48-0.15-0.55-0.28C47.74,28.35,47.74,28.14,47.85,27.91z M45.65,30.94l0.07-0.02
		l0.34-0.09c0.98-0.27,1.58-0.45,1.93-0.58c0.22-0.07,0.28-0.09,0.33-0.09h0.18l-0.03,0.17c-0.01,0.04-0.02,0.09-0.04,0.14
		l-2.17,4.8c-0.3,0.67-0.26,0.81-0.25,0.83c0.01,0.01,0.08,0.12,0.62,0.17l0.21,0.02l-0.09,0.19l-0.09,0.19l-0.04,0.09h-0.1h-3.34
		h-0.23l0.1-0.21l0.09-0.19l0.04-0.08l0.09-0.01c0.6-0.05,0.85-0.15,0.97-0.22c0.11-0.07,0.3-0.28,0.57-0.9l1.44-3.19
		c0.16-0.36,0.19-0.5,0.2-0.55c0-0.02,0-0.06-0.01-0.08c-0.01-0.01-0.04-0.03-0.14-0.03c-0.04,0-0.09,0-0.12,0.01
		c-0.05,0.01-0.2,0.05-0.46,0.11l-0.3,0.07l0.13-0.28L45.62,31L45.65,30.94z M41.66,30.77c0.03-0.07,0.07-0.12,0.12-0.16
		c0.03-0.03,0.13-0.09,0.29-0.18c0.44-0.26,0.75-0.46,0.95-0.61c0.21-0.16,0.75-0.59,1.55-1.25l0.04-0.03h0.05
		c0.09,0,0.15,0.01,0.2,0.05l0.02,0.02l0.01,0.02c0.05,0.08,0.02,0.16-0.02,0.24l-0.65,1.43h1.15h0.23l-0.1,0.21l-0.22,0.48
		l-0.04,0.09h-0.1h-1.3l-1.72,3.76c-0.18,0.4-0.23,0.61-0.24,0.72c-0.01,0.11,0,0.18,0.04,0.23c0.05,0.06,0.16,0.07,0.24,0.07
		c0.14,0,0.28-0.03,0.41-0.1c0.15-0.07,0.34-0.19,0.56-0.35l0.12-0.09l0.09,0.12l0.11,0.15l0.09,0.12l-0.11,0.09l-0.24,0.2
		c-0.39,0.32-0.76,0.55-1.1,0.69c-0.34,0.13-0.65,0.2-0.91,0.2c-0.33,0-0.58-0.08-0.74-0.25c-0.14-0.15-0.21-0.35-0.2-0.61
		c0.01-0.27,0.12-0.64,0.33-1.11l1.74-3.84h-0.51h-0.06l-0.04-0.04c-0.02-0.02-0.05-0.05-0.07-0.09
		C41.63,30.89,41.63,30.83,41.66,30.77z M36.3,31.18c0.92-0.68,1.87-1.03,2.81-1.03c0.61,0,1.08,0.16,1.39,0.48
		c0.33,0.33,0.4,0.71,0.22,1.11c-0.08,0.17-0.21,0.32-0.39,0.47c-0.19,0.15-0.41,0.22-0.66,0.22c-0.21,0-0.37-0.08-0.47-0.23
		c-0.1-0.14-0.12-0.34-0.08-0.58l0.06-0.32c0.03-0.12,0.04-0.29-0.03-0.36c-0.08-0.07-0.23-0.1-0.43-0.1c-0.49,0-1,0.21-1.53,0.63
		c-0.54,0.43-0.98,1-1.3,1.71c-0.29,0.64-0.36,1.22-0.22,1.71c0.13,0.47,0.49,0.69,1.09,0.69c0.45,0,0.92-0.15,1.4-0.43
		c0.29-0.17,0.65-0.45,1.07-0.82l0.09-0.08l0.1,0.08l0.14,0.11l0.13,0.1l-0.11,0.12c-0.51,0.54-0.99,0.97-1.42,1.29
		c-0.85,0.61-1.66,0.92-2.42,0.92c-0.77,0-1.33-0.3-1.65-0.9c-0.32-0.59-0.26-1.39,0.18-2.37C34.71,32.67,35.39,31.85,36.3,31.18z
		 M33.8,27.91c0.1-0.22,0.26-0.4,0.48-0.56c0.22-0.15,0.45-0.23,0.68-0.23c0.32,0,0.47,0.15,0.54,0.28c0.1,0.18,0.1,0.39-0.01,0.63
		c-0.1,0.21-0.26,0.4-0.49,0.55c-0.23,0.15-0.45,0.23-0.68,0.23c-0.32,0-0.48-0.15-0.55-0.28C33.69,28.35,33.69,28.14,33.8,27.91z
		 M31.48,31.21L31.57,31l0.03-0.06l0.07-0.02l0.34-0.09c0.98-0.27,1.58-0.45,1.93-0.58c0.22-0.07,0.28-0.09,0.33-0.09h0.18
		l-0.03,0.17c-0.01,0.04-0.02,0.09-0.04,0.14l-2.17,4.8c-0.3,0.67-0.26,0.81-0.25,0.83c0.01,0.01,0.08,0.12,0.62,0.17l0.21,0.02
		l-0.09,0.19l-0.09,0.19l-0.04,0.09h-0.1h-3.34H28.9l0.1-0.21l0.09-0.19l0.04-0.08l0.09-0.01c0.6-0.05,0.85-0.15,0.97-0.22
		c0.11-0.07,0.3-0.28,0.57-0.9l1.44-3.19c0.16-0.36,0.19-0.5,0.2-0.55c0-0.02,0-0.06-0.01-0.08c-0.01-0.01-0.04-0.03-0.14-0.03
		c-0.04,0-0.09,0-0.12,0.01c-0.05,0.01-0.2,0.05-0.46,0.11l-0.3,0.07L31.48,31.21z M18.8,36.54l0.12-0.25l0.04-0.08l0.09-0.01
		c0.51-0.05,0.87-0.14,1.06-0.25c0.18-0.11,0.39-0.41,0.61-0.89l2.76-6.09c0.29-0.64,0.23-0.8,0.22-0.82
		c-0.01-0.02-0.12-0.15-0.77-0.19l-0.22-0.01l0.09-0.2l0.12-0.26l0.04-0.09h0.1h3.79c1.29,0,2.31,0.21,3.03,0.64
		c1.33,0.78,1.55,2.17,0.66,4.14c-0.31,0.69-0.76,1.36-1.34,1.98c-0.58,0.63-1.26,1.16-2.04,1.59c-0.49,0.27-0.98,0.48-1.44,0.62
		c-0.85,0.26-1.81,0.4-2.87,0.4h-3.91H18.7L18.8,36.54z"/>
	<path d="M88.68,28.54l-1.37,4.94c0.73,0.24,1.62-0.67,2-2.04C89.69,30.09,89.41,28.78,88.68,28.54z"/>
	<path d="M88.13,34.52l-1.37,4.94c0.73,0.24,1.62-0.67,2-2.04C89.15,36.06,88.86,34.76,88.13,34.52z"/>
	<path d="M90.94,19.5c0.38-1.37,0.09-2.67-0.63-2.91l-1.37,4.94C89.66,21.77,90.56,20.86,90.94,19.5z"/>
	<path d="M82.42,54.95l-1.37,4.94c0.73,0.24,1.62-0.67,2-2.04C83.43,56.49,83.14,55.19,82.42,54.95z"/>
	<path d="M84.68,45.9c0.38-1.37,0.09-2.67-0.63-2.91l-1.37,4.94C83.4,48.18,84.3,47.27,84.68,45.9z"/>
	<path d="M82.96,48.97l-1.37,4.94c0.73,0.24,1.62-0.67,2-2.04C83.97,50.51,83.69,49.21,82.96,48.97z"/>
	<path d="M22.69,35.95c1.07,0,2.06-0.21,2.94-0.62c1.35-0.63,2.38-1.73,3.07-3.27c0.61-1.34,0.65-2.36,0.11-3.01
		c-0.46-0.57-1.31-0.85-2.53-0.85c-0.36,0-0.54,0.05-0.62,0.09c-0.11,0.05-0.21,0.18-0.3,0.37l-3.16,6.97
		c-0.09,0.21-0.07,0.27-0.07,0.27C22.15,35.88,22.24,35.95,22.69,35.95z"/>
	<path d="M84.59,37.01l-1.37,4.94c0.73,0.24,1.62-0.67,2-2.04C85.6,38.56,85.31,37.25,84.59,37.01z"/>
	<path d="M76.8,75.95l-1.37,4.94c0.73,0.24,1.62-0.67,2-2.04C77.82,77.49,77.53,76.19,76.8,75.95z"/>
	<path d="M79.07,66.9c0.38-1.37,0.09-2.67-0.63-2.91l-1.37,4.94C77.79,69.18,78.69,68.27,79.07,66.9z"/>
	<path d="M77.35,69.97l-1.37,4.94c0.73,0.24,1.62-0.67,2-2.04C78.36,71.51,78.07,70.21,77.35,69.97z"/>
</g>
</svg>
