<svg id="Layer_1" data-name="Layer 1" xmlns="http://www.w3.org/2000/svg" viewBox="0 0 100 100"><defs><style>.cls-1{fill:#231f20;}</style></defs><title> </title><path class="cls-1" d="M99.65,52.58,96.49,48.5a1.74,1.74,0,0,0-1.75-.42,6,6,0,0,0-2.5,1.22l-5.58,4.33,5.57,7.24,5.59-4.35A6.27,6.27,0,0,0,99.6,54.4,1.84,1.84,0,0,0,99.65,52.58Z"/><path class="cls-1" d="M84.51,55.31l-.45.35L99.59,5.22a4.38,4.38,0,0,0-.34-3.61,3.35,3.35,0,0,0-3-1.58H33.66a6.21,6.21,0,0,0-5.47,4.39L.37,94.78A4.41,4.41,0,0,0,.7,98.39a3.35,3.35,0,0,0,3,1.59H66.29a6.2,6.2,0,0,0,5.47-4.39L79.37,70.9l10.71-8.35Zm-15,39.47a3.9,3.9,0,0,1-3.26,2.67H3.67a1.17,1.17,0,0,1-1-.48,1.73,1.73,0,0,1,0-1.38L30.41,5.22a3.88,3.88,0,0,1,3.25-2.66H96.29a1.15,1.15,0,0,1,1,.48,1.73,1.73,0,0,1,.05,1.38L80.82,58.18,56.53,77.1l-1,2.22h-41a.44.44,0,0,0,0,.88H55.1l-2.78,6,9.78-1.83,14-10.93ZM57.92,80,59,77.7l3.07-2.39,3.14,4.1-3.06,2.38-2.52.47,1.3-2.79Zm6.88-5.94c-.3,0-.42-.1-.29-.39a1.1,1.1,0,0,1,.34-.4L79.73,61.7l-.36,1.17-14.1,11A1.13,1.13,0,0,1,64.8,74.09Zm19-14.84a1,1,0,0,1-.34.41l-.89.69L83,59.17l.09-.07a1.19,1.19,0,0,1,.47-.23C83.85,58.81,84,59,83.84,59.25Z"/><path class="cls-1" d="M22,82.14C18.16,82,15,84.62,14.81,88a2.44,2.44,0,0,0,0,.27H11.74a.44.44,0,0,0-.44.44.44.44,0,0,0,.44.44h3.15a6.77,6.77,0,0,0,6.59,5.27c3.58.14,6.64-2.18,7.1-5.27H64.51a.44.44,0,0,0,.44-.44.44.44,0,0,0-.44-.44H28.64C28.6,85,25.68,82.29,22,82.14ZM15.32,88c.12-3,3.09-5.32,6.62-5.18s6.14,2.55,6.18,5.43H15.33C15.33,88.2,15.32,88.11,15.32,88Zm6.19,5.69a6.25,6.25,0,0,1-6.09-4.56H28.06C27.58,91.85,24.79,93.85,21.51,93.72Z"/><path class="cls-1" d="M81.15,34.49H77.47l2.75-2.36-.7-1L76.24,34l-2.09-2.82-1.11,1,1.76,2.36H57l-.41.18c.06.23.08.47.12.7h18l-2.75,2.37.72,1,3.25-2.81,2.09,2.81,1.12-1-1.76-2.37h3.86a.44.44,0,0,0,0-.88Z"/><path class="cls-1" d="M54.74,44.34h0A13.36,13.36,0,0,0,56,34.49h0s0-.07,0-.1l1.45-.64-3.17-2.32-.43,3.9,1.42-.62c.06.22.09.44.13.66h0a12.56,12.56,0,0,1-1.07,8.09h0c-.15.29-.29.59-.46.88A13.44,13.44,0,0,1,51.9,46.9l-1-1.21-1.4,3.67,3.88-.62-1-1.23a14.27,14.27,0,0,0,2.34-3.17Z"/><path class="cls-1" d="M78.38,43.46H55.71c-.13.29-.26.59-.42.88H78.38a.44.44,0,0,0,0-.88Z"/><path class="cls-1" d="M25.61,44.34H53.23c.18-.29.36-.58.51-.88H25.61a.44.44,0,1,0,0,.88Z"/><path class="cls-1" d="M17.29,71.23H50L47.29,73.6l.71,1,3.26-2.81,2.08,2.81,1.12-1L52.7,71.23h7.41a.43.43,0,0,0,.44-.44.44.44,0,0,0-.44-.44H52.89L55.64,68l-.7-1-3.28,2.82L49.57,67l-1.11,1,1.75,2.36H17.29a.44.44,0,0,0-.44.44A.43.43,0,0,0,17.29,71.23Z"/><path class="cls-1" d="M20.06,62.27H72.83a.44.44,0,0,0,0-.88H20.06a.44.44,0,1,0,0,.88Z"/><path class="cls-1" d="M22.83,53.3h3.1c1.43,2.75,5.85,4.88,11.14,5.09,5.89.24,10.88-2,12-5.09H75.61a.44.44,0,0,0,.44-.44.44.44,0,0,0-.44-.44H49.21l0-.21c.14-3.68-5.07-6.88-11.63-7.14s-12,2.51-12.16,6.18a3.83,3.83,0,0,0,.14,1.17H22.83a.44.44,0,0,0-.44.44A.44.44,0,0,0,22.83,53.3ZM37.1,57.63c-4.76-.19-8.76-2-10.19-4.33H48.1C47,56,42.45,57.84,37.1,57.63ZM26.33,51.29c.13-3.25,5.18-5.7,11.25-5.46s10.9,3.09,10.77,6.34a1.9,1.9,0,0,1,0,.25H26.49A3.13,3.13,0,0,1,26.33,51.29Z"/><path class="cls-1" d="M28.38,35.37H53.3v-.09l.09-.79h-25a.44.44,0,0,0,0,.88Z"/><path class="cls-1" d="M31.16,26.41h4.57c3,2.22,7.9,3.66,13.61,3.67S60.07,28.65,63,26.41H83.93a.44.44,0,0,0,.44-.44.44.44,0,0,0-.44-.44H64.06a5.72,5.72,0,0,0,1.88-4,5.69,5.69,0,0,0-1.87-4H86.7a.44.44,0,1,0,0-.88H63.06c-3-2.26-7.93-3.72-13.69-3.73s-10.83,1.45-13.78,3.73H33.93a.44.44,0,0,0,0,.88h.67a5.69,5.69,0,0,0-1.83,4,5.76,5.76,0,0,0,1.92,4.11H31.16a.44.44,0,0,0-.44.44A.44.44,0,0,0,31.16,26.41Zm18.18,2.68a25.35,25.35,0,0,1-11.85-2.68H61.3A25.34,25.34,0,0,1,49.34,29.09Zm0-15.27a25.25,25.25,0,0,1,12,2.74h-24A25.14,25.14,0,0,1,49.37,13.82Zm-15.82,7.6a5.26,5.26,0,0,1,2.43-4H62.67a5.29,5.29,0,0,1,2.49,4c0,1.47-.94,2.86-2.51,4H36.11C34.5,24.33,33.55,22.92,33.55,21.42Z"/></svg>