<svg id="Layer_1" data-name="Layer 1" xmlns="http://www.w3.org/2000/svg" viewBox="0 0 100 100"><title> </title><path d="M37.21,13.49H72.76a.29.29,0,0,0,.3-.3.3.3,0,0,0-.3-.31H37.21a.3.3,0,0,0-.3.31A.29.29,0,0,0,37.21,13.49Z"/><path d="M37.21,23H72.76a.31.31,0,0,0,0-.62H37.21a.31.31,0,0,0,0,.62Z"/><path d="M20.57,6.86V6.21a1.11,1.11,0,0,1,1.08-1.1H76a1,1,0,0,1,.77.33,1.06,1.06,0,0,1,.32.77V39a1.09,1.09,0,0,1-.32.77,1.07,1.07,0,0,1-.77.32H38a7.76,7.76,0,0,1,1.11,3.14h0c0,.23.07.61.13,1.24h7.46v4.37H39.59c.11,1.2.24,2.64.39,4.38h9.25a25.22,25.22,0,0,1,4.5-4.38H51V44.5H63.16a24.81,24.81,0,0,1,5.48-.62,24.51,24.51,0,0,1,5.46.62H76A5.48,5.48,0,0,0,81.45,39V6.21a5.29,5.29,0,0,0-1.6-3.87A5.2,5.2,0,0,0,76,.74H21.65a5.23,5.23,0,0,0-3.84,1.6,5.32,5.32,0,0,0-1.59,3.87V7a11.56,11.56,0,0,1,1.47-.22A14.62,14.62,0,0,1,20.57,6.86Z"/><path d="M37.21,18.24H72.76a.31.31,0,0,0,0-.62H37.21a.31.31,0,0,0,0,.62Z"/><path d="M9.21,30.38a13.24,13.24,0,0,0,10.66,4.4,12,12,0,0,0,7.28-3A13.09,13.09,0,0,0,31.56,21.1a11.94,11.94,0,0,0-3-7.28,13.17,13.17,0,0,0-9.81-4.44c-.29,0-.58,0-.86,0a11.93,11.93,0,0,0-7.29,3,13,13,0,0,0-4.4,10.66A11.94,11.94,0,0,0,9.21,30.38Z"/><path d="M37.21,27.72H72.76a.3.3,0,0,0,.3-.31.29.29,0,0,0-.3-.3H37.21a.29.29,0,0,0-.3.3A.3.3,0,0,0,37.21,27.72Z"/><path d="M38.21,61.72c-.34-3.79-.77-8.59-1.1-12.31,0-.18,0-.37,0-.54-.17-1.89-.31-3.45-.39-4.37v0l-.08-.89a5.18,5.18,0,0,0-.23-1,5.77,5.77,0,0,0-.35-.76l-.08-.15A4.63,4.63,0,0,0,34,39.78a6.48,6.48,0,0,0-2.91-.66,7.75,7.75,0,0,0-1.06.07,7.43,7.43,0,0,0-1.88.51H9.39A7.09,7.09,0,0,0,7,39.17h-.4a6.74,6.74,0,0,0-3.53.93,4.92,4.92,0,0,0-2.43,4L0,70.7c4.81,7.89,31.76,7.63,34.72,1.61,0,0,.61-.9.93-1L43.82,68A24.56,24.56,0,0,1,46,58.61Z"/><path d="M98.82,93.49,87.27,81.93l.19-.27A22.89,22.89,0,1,0,68,91.52l.61,0a23.15,23.15,0,0,0,13-4l.27-.19L93.41,98.86A3.74,3.74,0,0,0,96.1,100a3.88,3.88,0,0,0,3.83-3.83A3.81,3.81,0,0,0,98.82,93.49Zm-22-12a15,15,0,0,1-6.46,2.33,14.59,14.59,0,0,1-1.76.11,15,15,0,0,1-4.47-.68,15.21,15.21,0,1,1,12.69-1.76Z"/><path d="M37.21,32.46H72.76a.31.31,0,0,0,0-.61H37.21a.31.31,0,0,0,0,.61Z"/></svg>