<?xml version="1.0" encoding="utf-8"?>
<!-- Generator: Adobe Illustrator 24.0.0, SVG Export Plug-In . SVG Version: 6.00 Build 0)  -->
<svg version="1.1" id="Layer_1" xmlns="http://www.w3.org/2000/svg" xmlns:xlink="http://www.w3.org/1999/xlink" x="0px" y="0px"
	 viewBox="0 0 100 100" style="enable-background:new 0 0 100 100;" xml:space="preserve">
<style type="text/css">
	.st0{fill:none;}
	.st1{fill:#FFFFFF;}
	.st2{fill:#FFFFFF;stroke:#FFFFFF;stroke-width:0.25;stroke-miterlimit:10;}
	.st3{fill:none;stroke:#000000;stroke-width:0.25;stroke-linecap:round;stroke-miterlimit:10;}
	.st4{fill:#D9D9D9;}
	.st5{fill:none;stroke:#000000;stroke-width:2;stroke-linejoin:round;stroke-miterlimit:10;}
	.st6{fill:none;stroke:#000000;stroke-width:0.4396;stroke-miterlimit:10;}
	.st7{fill:none;stroke:#000000;stroke-linecap:round;stroke-linejoin:round;}
	.st8{fill:none;stroke:#000000;stroke-linecap:round;stroke-linejoin:round;stroke-miterlimit:10;}
</style>
<g>
	<polygon points="18.22,83.02 18.22,83.06 18.22,91.98 18.22,99.82 19.42,99.1 23.41,96.7 27.38,99.09 28.59,99.82 28.59,91.98 
		28.59,83.06 28.59,83.02 28.59,80.36 18.22,80.36 	"/>
	<path d="M48.78,27.52h3.58c0.34,0,0.65-0.26,0.71-0.6l0.56-2.99c0.06-0.34-0.15-0.6-0.49-0.6h-3.58c-0.34,0-0.65,0.26-0.71,0.6
		l-0.56,2.99C48.23,27.26,48.44,27.52,48.78,27.52z"/>
	<path d="M43.25,44.26h8.36c0.34,0,0.65-0.26,0.71-0.6l0.56-2.99c0.06-0.34-0.15-0.6-0.49-0.6H50.6l1.79-9.56
		c0.06-0.34-0.15-0.6-0.49-0.6h-5.97c-0.34,0-0.65,0.26-0.71,0.6l-0.56,2.99c-0.06,0.34,0.15,0.6,0.49,0.6h1.79l-1.12,5.98h-1.79
		c-0.34,0-0.65,0.26-0.71,0.6l-0.56,2.99C42.7,44,42.91,44.26,43.25,44.26z"/>
	<path d="M98.38,20.92c-0.9-1.2-2.16-2.04-3.54-2.57c0.01,0.28,0.02,0.57,0.03,0.86c0,0.83-0.06,1.7-0.33,2.55L76.51,80.77
		c-0.16,0.53-0.44,1.01-0.81,1.42c-1.11,1.27-2.98,1.99-4.66,1.99H30.04v7.65h40.95c5.17,0,10.45-3.95,11.96-9.03l16.52-54.18
		C100.31,25.88,99.89,23.06,98.38,20.92z"/>
	<path d="M6.94,80C6.45,78.68,6.51,78.14,7,77.43c0.54-0.72,1.5-0.9,2.28-0.9h52.22c7.63,0,9.19-2.03,12.01-11.24l16.46-54.18
		c0.84-2.81,0.48-5.62-1.08-7.78c-1.5-2.09-4.02-3.35-6.85-3.35H36.32c-1.02,0-2.05,0.3-3.07,0.54l0.06-0.18
		c-7.63-2.15-8.11,6.04-10.64,9.75c-0.96,1.38-2.4,2.57-2.64,3.71c-0.18,1.08,0.42,2.09,0.3,3.11c-0.36,3.17-2.76,8.85-4.2,10.83
		c-0.9,1.19-2.22,1.79-2.65,3.17c-0.36,0.95,0.24,2.33,0.12,3.59c-0.3,2.81-2.4,8.13-4.03,10.88c-0.6,1.07-1.74,1.91-2.05,3.05
		c-0.3,1.02,0.3,2.33,0,3.47C6.87,55,4.83,59.84,3.03,62.83c-0.96,1.62-2.22,2.63-2.46,4.07c-0.12,0.72,0.42,1.5,0.36,2.45
		c-0.06,1.43-0.3,2.63-0.42,3.83c-0.84,2.27-0.84,4.9,0.12,7.59c2.22,6.22,8.77,11.06,14.9,11.06h1.26v-7.65h-1.2
		C12.28,84.18,8.14,83.46,6.94,80z M35.36,34.2c1.5-7.99,9.23-14.47,17.25-14.47s13.31,6.48,11.8,14.47
		c-1.5,7.99-9.23,14.47-17.25,14.47S33.86,42.19,35.36,34.2z"/>
</g>
</svg>
