<?xml version="1.0" encoding="utf-8"?>
<!-- Generator: Adobe Illustrator 24.0.0, SVG Export Plug-In . SVG Version: 6.00 Build 0)  -->
<svg version="1.1" id="Layer_1" xmlns="http://www.w3.org/2000/svg" xmlns:xlink="http://www.w3.org/1999/xlink" x="0px" y="0px"
	 viewBox="0 0 100 100" style="enable-background:new 0 0 100 100;" xml:space="preserve">
<style type="text/css">
	.st0{fill:none;}
	.st1{fill:#FFFFFF;}
	.st2{fill:#FFFFFF;stroke:#FFFFFF;stroke-width:0.25;stroke-miterlimit:10;}
	.st3{fill:none;stroke:#000000;stroke-width:0.25;stroke-linecap:round;stroke-miterlimit:10;}
	.st4{fill:#D9D9D9;}
	.st5{fill:none;stroke:#000000;stroke-width:2;stroke-linejoin:round;stroke-miterlimit:10;}
	.st6{fill:none;stroke:#000000;stroke-width:0.4396;stroke-miterlimit:10;}
	.st7{fill:none;stroke:#000000;stroke-linecap:round;stroke-linejoin:round;}
	.st8{fill:none;stroke:#000000;stroke-linecap:round;stroke-linejoin:round;stroke-miterlimit:10;}
</style>
<g>
	<polygon points="16.28,96.9 16.9,96.56 16.28,96.88 	"/>
	<path d="M98.49,20.87c-0.9-1.2-2.16-2.03-3.54-2.57c0.01,0.28,0.02,0.57,0.03,0.86c0.03,0.93-0.01,1.92-0.32,2.88L76.68,80.6
		c-0.17,0.53-0.45,1.01-0.82,1.43c-1.1,1.27-2.98,1.98-4.65,1.98h-0.2c1.67,0,3.53-0.71,4.63-1.98c-1.1,1.25-2.96,1.95-4.61,1.95
		H30.28v0.03v7.64h40.87c5.16,0,10.43-3.94,11.93-9.01l16.49-54.07C100.41,25.82,99.99,23.02,98.49,20.87z"/>
	<polygon points="18.48,82.74 18.48,82.78 18.48,91.76 18.48,99.65 19.69,98.93 23.7,96.51 27.7,98.92 28.92,99.65 28.92,91.76 
		28.92,82.78 28.92,82.74 28.92,80.06 18.48,80.06 	"/>
	<path d="M77.8,33.19c0.01-0.07,0-0.11-0.03-0.14C77.74,33.01,77.66,33,77.6,33c-0.33,0-0.81,0.24-1.42,0.72
		c-0.54,0.42-1.09,0.96-1.65,1.6c0.83-0.24,1.56-0.55,2.18-0.94C77.4,33.95,77.77,33.55,77.8,33.19z"/>
	<path d="M37.02,25.45c0-0.04,0-0.06-0.01-0.07c-0.01-0.01-0.04-0.02-0.09-0.02c-0.47,0-1.18,0.5-2.13,1.49
		c-0.78,0.82-1.69,2.11-2.71,3.85c1.07-0.84,2.13-1.8,3.15-2.86C36.67,26.35,37,25.71,37.02,25.45z"/>
	<path d="M43.8,33.19c0.01-0.07,0-0.11-0.03-0.14C43.73,33.01,43.65,33,43.59,33c-0.33,0-0.81,0.24-1.42,0.72
		c-0.54,0.42-1.09,0.96-1.64,1.6c0.83-0.24,1.56-0.55,2.18-0.94C43.4,33.95,43.76,33.55,43.8,33.19z"/>
	<path d="M19.53,37.92c0.91,0,1.77-0.06,2.56-0.17c-2.02-0.63-3.45-0.96-4.23-0.96c-0.81,0-1.24,0.16-1.27,0.47
		c-0.01,0.07,0.01,0.13,0.07,0.19C16.85,37.67,17.51,37.92,19.53,37.92z"/>
	<path d="M50.62,38.18c0.3,0,0.98-0.39,2.57-2.27c1.05-1.24,1.6-2.09,1.64-2.54c0.01-0.13-0.01-0.23-0.06-0.28
		c-0.04-0.05-0.12-0.07-0.23-0.07c-0.59,0-1.45,0.6-2.55,1.78c-1.11,1.19-1.71,2.15-1.78,2.87c-0.02,0.19,0.01,0.33,0.08,0.41
		C50.36,38.15,50.47,38.18,50.62,38.18z"/>
	<path d="M7.2,79.84c-0.48-1.31-0.42-1.85,0.06-2.57c0.54-0.72,1.49-0.9,2.27-0.9h51.95c7.59,0,9.15-2.03,11.95-11.22l16.38-54.07
		c0.84-2.81,0.48-5.61-1.08-7.76c-1.49-2.09-4-3.34-6.81-3.34H36.43c-1.02,0-2.03,0.3-3.05,0.54l0.06-0.18
		c-7.59-2.15-8.07,6.03-10.58,9.73c-0.95,1.37-2.39,2.57-2.63,3.7c-0.18,1.07,0.42,2.09,0.3,3.1c-0.36,3.17-2.75,8.84-4.18,10.81
		c-0.9,1.19-2.21,1.79-2.63,3.16c-0.36,0.95,0.24,2.33,0.12,3.58c-0.3,2.8-2.39,8.11-4,10.86c-0.6,1.07-1.73,1.91-2.03,3.04
		c-0.3,1.01,0.3,2.33,0,3.46c-0.66,3.1-2.69,7.93-4.48,10.92c-0.95,1.61-2.21,2.63-2.45,4.06c-0.12,0.72,0.42,1.49,0.36,2.45
		c-0.06,1.43-0.3,2.62-0.42,3.82c-0.84,2.27-0.84,4.89,0.12,7.58c2.21,6.21,8.73,11.04,14.82,11.04h1.26v-7.64h-1.2
		C12.52,84.01,8.39,83.29,7.2,79.84z M18.83,36.22c1.27,0,3.14,0.32,5.57,0.96c0.75-0.28,1.44-0.7,2.05-1.25
		c0.5-0.45,1.13-1.14,1.86-2.06c-1.91,1.37-3.67,2.07-5.25,2.07c-1.23,0-2.19-0.37-2.86-1.09c-0.67-0.72-0.95-1.71-0.83-2.93
		c0.18-1.85,1.24-3.62,3.16-5.27c1.92-1.65,3.89-2.48,5.86-2.48c0.93,0,1.66,0.24,2.17,0.72c0.52,0.48,0.74,1.14,0.66,1.96
		c-0.13,1.4-0.95,2.87-2.41,4.36c-1.47,1.49-2.84,2.25-4.09,2.25c-0.55,0-1.01-0.18-1.36-0.52c-0.35-0.35-0.51-0.78-0.46-1.29
		c0.04-0.39,0.19-0.73,0.47-1.02c0.28-0.29,0.59-0.44,0.94-0.44c0.25,0,0.44,0.07,0.56,0.2c0.12,0.13,0.17,0.32,0.14,0.56
		c-0.02,0.25-0.14,0.48-0.34,0.67c-0.2,0.19-0.42,0.29-0.66,0.29c-0.21,0-0.37-0.06-0.46-0.17c-0.09-0.1-0.12-0.25-0.1-0.43
		c0-0.02,0-0.04,0.01-0.05c-0.03,0.08-0.07,0.2-0.09,0.42c-0.04,0.39,0.08,0.7,0.34,0.96c0.28,0.26,0.63,0.39,1.08,0.39
		c1.08,0,2.33-0.72,3.71-2.14c1.38-1.42,2.15-2.78,2.27-4.03c0.06-0.66-0.11-1.19-0.52-1.61c-0.41-0.42-0.98-0.63-1.69-0.63
		c-1.76,0-3.57,0.89-5.36,2.64c-1.79,1.75-2.8,3.6-2.98,5.5c-0.08,0.87,0.13,1.55,0.64,2.04c0.51,0.49,1.28,0.74,2.27,0.74
		c0.86,0,1.75-0.21,2.65-0.63c0.9-0.42,2.05-1.17,3.41-2.23c1.23-1.75,2.13-2.99,2.68-3.68c0.52-0.66,1.15-1.33,1.87-2.01
		c1.42-1.34,2.46-1.99,3.17-1.99c0.19,0,0.32,0.05,0.41,0.14c0.08,0.09,0.11,0.21,0.1,0.36c-0.05,0.51-0.73,1.44-2.08,2.83
		c-1.31,1.35-2.58,2.45-3.78,3.26c-1.03,1.84-2.05,3.2-3.04,4.05c-0.91,0.78-2.06,1.37-3.45,1.76c2.31,0.62,3.79,1.01,4.29,1.12
		c0.51,0.11,1.01,0.17,1.49,0.17c0.31,0,0.62-0.06,0.92-0.17c-0.19-0.06-0.37-0.15-0.5-0.31c-0.21-0.25-0.31-0.56-0.27-0.94
		c0.04-0.41,0.33-1.01,0.9-1.84l1.9-2.75l0.08,0.02c0.2,0.04,0.35,0.07,0.47,0.07c0.18,0,0.44-0.02,0.77-0.07l0.29-0.04l-0.17,0.24
		l-2.68,3.77c-0.37,0.53-0.57,0.93-0.6,1.2c-0.01,0.11,0.01,0.19,0.05,0.24c0.05,0.05,0.14,0.08,0.26,0.08
		c0.07,0,0.15-0.02,0.25-0.06c0.08-0.06,0.17-0.11,0.25-0.18c0.13-0.07,0.16-0.08,0.2-0.08l0,0c0.55-0.39,1.4-1.22,2.72-2.84
		c0,0,0.02-0.02,0.02-0.03l1.38-1.97h-1.06l0.31-0.4h1.02l1.4-1.98l0.08,0.02c0.38,0.1,0.73,0.1,1.11,0l0.33-0.08l-1.42,2.04h1.33
		l-0.25,0.4h-1.34L36,36.81c-0.31,0.45-0.48,0.8-0.5,1.05c-0.01,0.11,0.01,0.19,0.05,0.24c0.05,0.05,0.14,0.08,0.26,0.08
		c0.37,0,1.19-0.5,2.95-2.66c0.45-0.8,1.3-1.52,2.56-2.17c0.96-0.49,1.74-0.74,2.32-0.74c0.28,0,0.51,0.08,0.69,0.25
		c0.19,0.17,0.27,0.39,0.25,0.64c-0.05,0.53-0.44,0.98-1.15,1.34c-0.68,0.34-1.79,0.66-3.29,0.95c-0.5,0.66-0.77,1.21-0.81,1.64
		c-0.02,0.24,0.02,0.42,0.13,0.53c0.12,0.13,0.33,0.2,0.62,0.2c1.03,0,2.44-1.03,4.16-3.07c0.04-0.05,0.07-0.07,0.11-0.1
		c0,0,0-0.01,0.01-0.01l0.19-0.24c1.63-1.9,2.17-2.12,2.44-2.12c0.28,0,0.49,0.08,0.64,0.24c0.18,0.2,0.25,0.51,0.21,0.93
		c-0.03,0.34-0.18,0.75-0.45,1.21c0.1-0.09,0.2-0.17,0.3-0.24c0.32-0.6,0.7-1.11,1.12-1.51c0.45-0.43,0.84-0.64,1.18-0.64
		c0.15,0,0.26,0.04,0.33,0.12c0.07,0.07,0.09,0.17,0.08,0.29c-0.04,0.38-0.55,0.85-1.62,1.48c-0.13,0.08-0.33,0.19-0.57,0.33
		l-0.23,0.15c-0.11,0.29-0.18,0.52-0.2,0.7c-0.03,0.28,0.01,0.48,0.11,0.6c0.07,0.08,0.18,0.12,0.33,0.12
		c0.49,0,1.09-0.42,1.77-1.26c0.03-0.03,0.04-0.04,0.06-0.06c0.53-0.64,1.32-1.24,2.38-1.78c0.86-0.45,1.57-0.68,2.08-0.68
		c0.25,0,0.44,0.07,0.56,0.2c0.08,0.09,0.13,0.21,0.14,0.35l0.31-0.49l0.09,0.02c0.19,0.04,0.36,0.07,0.51,0.07
		c0.18,0,0.41-0.02,0.7-0.07l0.29-0.05l-2.27,3.2c-0.88,1.26-1.09,1.78-1.11,1.99c-0.01,0.13,0,0.23,0.05,0.28
		c0.03,0.04,0.09,0.06,0.18,0.06c0.13,0,0.48-0.12,1.31-0.89c0.65-0.61,1.34-1.38,2.04-2.27c0.01-0.02,0.04-0.04,0.06-0.06
		l1.36-1.94h-1.06l0.31-0.4h1.02l1.4-1.98l0.08,0.02c0.38,0.1,0.73,0.1,1.11,0l0.33-0.08l-1.42,2.04h1.33l-0.25,0.4h-1.34
		l-2.61,3.79c-0.31,0.44-0.48,0.8-0.5,1.05c-0.01,0.11,0.01,0.19,0.05,0.24c0.05,0.05,0.14,0.08,0.26,0.08c0.4,0,1.3-0.55,3.35-3.16
		c0.02-0.03,0.05-0.06,0.08-0.08l1.58-2.26l0.08,0.02c0.22,0.04,0.39,0.07,0.51,0.07c0.12,0,0.35-0.02,0.68-0.07l0.29-0.04
		l-2.98,4.19c-0.27,0.38-0.42,0.72-0.45,1.01c-0.01,0.12,0,0.21,0.05,0.26c0.03,0.04,0.09,0.05,0.17,0.05
		c0.44,0,1.42-0.65,3.58-3.75l1.21-1.75l0.08,0.02c0.2,0.04,0.37,0.07,0.5,0.07c0.16,0,0.4-0.02,0.71-0.07l0.29-0.04l-2.06,2.87
		c-1.1,1.53-1.35,2.13-1.37,2.35c-0.01,0.11,0.01,0.19,0.05,0.23c0.17,0.19,0.83,0.22,3.02-2.44l0.36-0.43l0.21-0.23
		c0.01-0.01,0.01-0.03,0.02-0.04l0.19-0.24c1.63-1.9,2.17-2.12,2.44-2.12c0.28,0,0.49,0.08,0.64,0.24c0.18,0.2,0.25,0.51,0.21,0.93
		c-0.03,0.34-0.18,0.75-0.45,1.21c0.1-0.08,0.2-0.17,0.3-0.24c0.32-0.6,0.7-1.11,1.12-1.51c0.45-0.43,0.84-0.64,1.18-0.64
		c0.15,0,0.26,0.04,0.33,0.12c0.07,0.07,0.09,0.17,0.08,0.29c-0.04,0.38-0.55,0.85-1.62,1.48c-0.15,0.09-0.36,0.21-0.64,0.37
		l-0.17,0.11c-0.11,0.29-0.18,0.52-0.2,0.7c-0.03,0.28,0.01,0.48,0.11,0.6c0.07,0.08,0.18,0.12,0.33,0.12c0.46,0,1-0.38,1.63-1.1
		c0.48-0.71,1.29-1.36,2.43-1.95c0.96-0.49,1.74-0.74,2.32-0.74c0.28,0,0.51,0.08,0.69,0.25c0.19,0.17,0.27,0.39,0.25,0.64
		c-0.05,0.53-0.44,0.98-1.15,1.34c-0.68,0.34-1.79,0.66-3.29,0.95c-0.5,0.66-0.77,1.21-0.81,1.64c-0.02,0.24,0.02,0.42,0.12,0.54
		c0.12,0.13,0.33,0.2,0.62,0.2c1.04,0,2.44-1.03,4.17-3.07c0.12-0.14,0.22-0.2,0.32-0.2l0.03,0c0.09,0.02,0.14,0.1,0.13,0.19l0,0
		c0,0.05-0.02,0.08-0.24,0.33L78,35.96c-1.62,1.76-2.92,2.62-3.97,2.62c-0.51,0-0.93-0.19-1.25-0.55c-0.31-0.36-0.45-0.82-0.39-1.37
		c0.01-0.14,0.04-0.27,0.08-0.41c-0.44,0.35-0.85,0.53-1.23,0.53c-0.28,0-0.49-0.08-0.63-0.23c-0.16-0.17-0.22-0.44-0.19-0.79
		c0.01-0.1,0.03-0.21,0.06-0.33c-0.31,0.27-0.58,0.54-0.81,0.81c-0.3,0.35-0.84,1.1-1.6,2.21l-0.04,0.06l-0.07,0
		c-0.38-0.03-0.57-0.04-0.62-0.04c-0.03,0-0.24,0.01-0.62,0.04l-0.27,0.02l2.09-2.9c1.18-1.65,1.46-2.24,1.48-2.44
		c0.01-0.09-0.01-0.12-0.02-0.13c-0.01-0.02-0.05-0.02-0.07-0.02c-0.19,0-0.73,0.28-2.19,2.13c0,0-0.01,0.01-0.01,0.01
		c-0.06,0.15-0.34,0.55-1.68,1.95c-0.94,0.99-1.66,1.47-2.17,1.47c-0.34,0-0.62-0.14-0.83-0.41c-0.2-0.26-0.29-0.58-0.25-0.95
		c0.01-0.07,0.02-0.16,0.05-0.24c-0.48,0.53-0.85,0.9-1.11,1.12c-0.76,0.67-1.46,0.6-1.85,0.09c-0.2-0.26-0.29-0.57-0.25-0.94
		c0.01-0.12,0.04-0.25,0.08-0.38c-1.05,1.15-1.85,1.72-2.4,1.72c-0.36,0-0.65-0.13-0.87-0.39c-0.21-0.25-0.3-0.57-0.27-0.95
		c0.01-0.13,0.05-0.27,0.1-0.42c-0.09,0.1-0.17,0.18-0.27,0.28c-0.93,0.99-1.63,1.47-2.13,1.47c-0.35,0-0.63-0.13-0.83-0.4
		c-0.19-0.26-0.27-0.58-0.24-0.96c0.01-0.13,0.04-0.26,0.07-0.39c-0.49,0.57-0.89,0.98-1.18,1.23c-0.41,0.35-0.81,0.52-1.18,0.52
		c-0.4,0-0.73-0.17-0.97-0.51c-0.23-0.33-0.33-0.75-0.28-1.24c0.02-0.19,0.06-0.37,0.12-0.56c-0.43,0.33-0.83,0.5-1.2,0.5
		c-0.28,0-0.49-0.08-0.63-0.23c-0.16-0.17-0.22-0.44-0.19-0.79c0.01-0.1,0.03-0.21,0.06-0.33c-0.31,0.27-0.58,0.54-0.81,0.81
		c-0.3,0.36-0.84,1.1-1.6,2.21L45,38.5l-0.07,0c-0.35-0.03-0.56-0.04-0.62-0.04c-0.03,0-0.24,0.01-0.62,0.04l-0.27,0.02l2.09-2.9
		c1.18-1.65,1.46-2.24,1.48-2.44c0.01-0.09-0.01-0.12-0.02-0.13c-0.01-0.02-0.05-0.02-0.07-0.02c-0.19,0-0.73,0.28-2.19,2.13
		c-0.01,0.01-0.02,0.02-0.03,0.03c-0.03,0.05-0.09,0.11-0.2,0.24L44,35.96c-1.62,1.76-2.92,2.62-3.97,2.62
		c-0.51,0-0.93-0.19-1.25-0.55c-0.31-0.36-0.45-0.82-0.39-1.37c0-0.05,0.02-0.09,0.03-0.14c-1.22,1.39-2.11,2.07-2.72,2.07
		c-0.36,0-0.65-0.13-0.87-0.39c-0.21-0.25-0.3-0.57-0.27-0.95c0.01-0.13,0.05-0.27,0.1-0.42c-0.61,0.66-1.13,1.14-1.58,1.42
		c-0.09,0.1-0.24,0.24-0.55,0.44c-0.73,0.46-1.75,0.7-3.05,0.7c-0.95,0-1.85-0.09-2.7-0.27c-0.85-0.17-2.1-0.53-3.83-1.09
		c-1.15,0.22-2.34,0.33-3.54,0.33c-1.69,0-2.7-0.2-3.07-0.61c-0.13-0.14-0.19-0.31-0.17-0.5C16.24,36.56,17.11,36.22,18.83,36.22z
		 M36.35,30.89L36.35,30.89c-0.03,0.27-0.16,0.52-0.4,0.74c-0.24,0.23-0.5,0.34-0.77,0.34c-0.19,0-0.33-0.05-0.43-0.16
		c-0.09-0.1-0.13-0.25-0.11-0.44c0.02-0.25,0.17-0.5,0.42-0.72c0.25-0.23,0.51-0.34,0.78-0.34c0.18,0,0.32,0.05,0.41,0.15
		C36.33,30.57,36.37,30.72,36.35,30.89z"/>
</g>
</svg>
