<svg id="Layer_1" data-name="Layer 1" xmlns="http://www.w3.org/2000/svg" viewBox="0 0 100 100"><defs><style>.cls-1{fill:#231f20;}</style></defs><title> </title><path class="cls-1" d="M98.82,93.49,87.27,81.93l.19-.27a22.84,22.84,0,0,0-6.57-32.18,23.94,23.94,0,0,0-3.4-1.79l-.36-.15c-.63-.25-1.28-.49-1.94-.69a22.47,22.47,0,0,0-6.55-1,22.77,22.77,0,0,0-7.41,1.24l-.08,0c-.61.21-1.21.45-1.8.71l-.09,0a18.65,18.65,0,0,0-1.73.87l0,0a23,23,0,0,0-4.72,3.53l-.05,0c-.45.44-.89.91-1.31,1.39l-.07.08c-.41.48-.81,1-1.18,1.49l0,.06a22.67,22.67,0,0,0-3.45,7.13l0,.08c-.17.64-.32,1.28-.44,1.93l0,.08a23.16,23.16,0,0,0-.37,4.1,22.73,22.73,0,0,0,.47,4.55h0a21.62,21.62,0,0,0,1,3.44v0c.2.54.42,1.06.66,1.58l0,.07A23,23,0,0,0,60.06,89.86a22.73,22.73,0,0,0,8,1.66l.61,0a23.15,23.15,0,0,0,13-4l.27-.19L93.41,98.86A3.74,3.74,0,0,0,96.1,100a3.88,3.88,0,0,0,3.83-3.83A3.81,3.81,0,0,0,98.82,93.49Zm-22-12a15,15,0,0,1-6.46,2.33,14.59,14.59,0,0,1-1.76.11,15.13,15.13,0,0,1-10.18-4,15.19,15.19,0,0,1-3.53-4.75.59.59,0,0,1,0-.08c-.13-.28-.25-.56-.36-.85l-.05-.11c-.11-.3-.22-.59-.31-.9h0a14.84,14.84,0,0,1-.71-4.55,15.91,15.91,0,0,1,.16-2.08,15.13,15.13,0,0,1,3.7-8h0a15.16,15.16,0,0,1,7.45-4.58h0a15,15,0,0,1,3.86-.52,14.53,14.53,0,0,1,3,.31h0c.46.09.92.2,1.37.33s.87.3,1.3.47l.5.22c.24.1.46.21.69.33a16.25,16.25,0,0,1,1.52.88,17.36,17.36,0,0,1,1.53,1.14,15.33,15.33,0,0,1,4,5.46,15.14,15.14,0,0,1-5.71,18.79Z"/><path class="cls-1" d="M63.93,56.85l.15-.49a13.19,13.19,0,0,0-8.42,10.19C60.46,66.12,61.78,63.91,63.93,56.85Z"/><path class="cls-1" d="M71,55.76,66.55,70.32a3.34,3.34,0,0,1-.71,1.24,5.56,5.56,0,0,1-4,1.7H56.27A13.09,13.09,0,0,0,61.74,80h0a11.38,11.38,0,0,0,10.38-7.86l4.27-14a13,13,0,0,0-4-2A14,14,0,0,0,71,55.76Z"/><polygon class="cls-1" points="15.88 73.26 15.88 73.29 15.88 79.95 15.88 85.8 16.93 85.26 20.45 83.47 23.94 85.26 25 85.8 25 79.95 25 73.29 25 73.26 25 71.28 15.88 71.28 15.88 73.26"/><path class="cls-1" d="M26.19,73.26V80H46.5a24.57,24.57,0,0,1-2.26-6.69Z"/><path class="cls-1" d="M74.44,44.59c.45.1.89.21,1.33.34a23.83,23.83,0,0,1,4.11,1.68L86.47,25a7.73,7.73,0,0,0-.94-6.71A7,7,0,0,0,82.45,16c0,.25,0,.5,0,.76a7.69,7.69,0,0,1-.28,2.5Z"/><path class="cls-1" d="M38.3,32.47h6.38a.56.56,0,0,0,.54-.46l.43-2.28a.36.36,0,0,0-.37-.46H43.91L45.28,22a.36.36,0,0,0-.37-.45H40.35a.57.57,0,0,0-.54.45l-.43,2.29a.36.36,0,0,0,.37.45h1.37l-.85,4.56H38.9a.56.56,0,0,0-.54.46L37.93,32A.36.36,0,0,0,38.3,32.47Z"/><path class="cls-1" d="M42.52,19.69h2.73a.56.56,0,0,0,.54-.45L46.22,17a.36.36,0,0,0-.37-.45H43.12a.58.58,0,0,0-.55.45l-.42,2.29A.36.36,0,0,0,42.52,19.69Z"/><path class="cls-1" d="M6.14,69.65c-.42-1.14-.37-1.61.05-2.24a2.44,2.44,0,0,1,2-.78H43.9a24.87,24.87,0,0,1,24-22.73L78.23,9.73A7.65,7.65,0,0,0,77.29,3a7.25,7.25,0,0,0-6-2.92H31.65A12.28,12.28,0,0,0,29,.52L29,.37c-6.63-1.88-7,5.25-9.24,8.47-.83,1.2-2.08,2.24-2.29,3.23s.37,1.82.26,2.7a27.34,27.34,0,0,1-3.65,9.42c-.78,1-1.93,1.56-2.3,2.76-.31.83.21,2,.11,3.12a31.37,31.37,0,0,1-3.49,9.46c-.53.94-1.52,1.67-1.78,2.66s.26,2,0,3a37,37,0,0,1-3.91,9.52C1.91,56.13.82,57,.61,58.26c-.11.62.37,1.3.31,2.13C.87,61.64.66,62.68.56,63.72a9.65,9.65,0,0,0,.1,6.61C2.59,75.74,8.28,80,13.6,80h1.09V73.29h-1C10.78,73.29,7.18,72.66,6.14,69.65ZM32.28,24.78a14,14,0,0,1,13.17-11c6.12,0,10.16,5,9,11a14,14,0,0,1-13.17,11C35.17,35.83,31.13,30.88,32.28,24.78Z"/></svg>