<?xml version="1.0" encoding="utf-8"?>
<!-- Generator: Adobe Illustrator 24.0.0, SVG Export Plug-In . SVG Version: 6.00 Build 0)  -->
<svg version="1.1" id="Layer_1" xmlns="http://www.w3.org/2000/svg" xmlns:xlink="http://www.w3.org/1999/xlink" x="0px" y="0px"
	 viewBox="0 0 100 100" style="enable-background:new 0 0 100 100;" xml:space="preserve">
<style type="text/css">
	.st0{fill:none;}
	.st1{fill:#FFFFFF;}
	.st2{fill:#FFFFFF;stroke:#FFFFFF;stroke-width:0.25;stroke-miterlimit:10;}
	.st3{fill:none;stroke:#000000;stroke-width:0.25;stroke-linecap:round;stroke-miterlimit:10;}
	.st4{fill:#D9D9D9;}
	.st5{fill:none;stroke:#000000;stroke-width:2;stroke-linejoin:round;stroke-miterlimit:10;}
	.st6{fill:none;stroke:#000000;stroke-width:0.4396;stroke-miterlimit:10;}
	.st7{fill:none;stroke:#000000;stroke-linecap:round;stroke-linejoin:round;}
	.st8{fill:none;stroke:#000000;stroke-linecap:round;stroke-linejoin:round;stroke-miterlimit:10;}
</style>
<g>
	<path d="M81.68,59.62c-0.33-0.8-0.53-1.66-0.59-2.57c-0.06-0.82,0.02-1.64,0.2-2.43H44.73c0.35,0.83,0.57,1.71,0.63,2.65
		c0.05,0.8-0.02,1.58-0.18,2.35h12.37c0.19-0.34,0.4-0.68,0.64-0.99c1.75-2.25,4.02-3.4,6.74-3.4c0.41,0,0.83,0.03,1.26,0.08
		c1.35,0.17,2.63,0.69,3.7,1.53c1.03,0.8,1.82,1.74,2.39,2.78H81.68z"/>
	<path d="M30.21,58.43c0.1,1.5,0.65,2.81,1.63,3.94c1.32,1.51,3.27,2.38,5.26,2.38c0.15,0,0.31-0.01,0.46-0.02
		c1.5-0.1,2.81-0.64,3.93-1.62c1.63-1.42,2.52-3.58,2.37-5.73c-0.1-1.49-0.64-2.8-1.62-3.93c-1.32-1.51-3.27-2.39-5.27-2.39
		c-0.15,0-0.31,0.01-0.46,0.02c-1.5,0.1-2.81,0.64-3.93,1.63C30.95,54.12,30.06,56.28,30.21,58.43z"/>
	<path d="M84.21,60.88c1.31,1.5,3.26,2.37,5.25,2.37c0.15,0,0.31-0.01,0.46-0.02c1.49-0.1,2.8-0.64,3.92-1.62
		c1.62-1.41,2.51-3.57,2.36-5.72c-0.1-1.49-0.64-2.8-1.62-3.92c-1.31-1.51-3.27-2.38-5.26-2.38c-0.15,0-0.31,0.01-0.46,0.02
		c-1.49,0.1-2.8,0.64-3.92,1.62c-1.62,1.41-2.51,3.57-2.36,5.72C82.68,58.44,83.23,59.75,84.21,60.88z"/>
	<path d="M68.97,58.03c-0.85-0.66-1.89-1.09-2.96-1.22c-0.37-0.05-0.73-0.07-1.08-0.07c-2.25,0-4.1,0.94-5.56,2.82
		c-0.66,0.85-1.09,1.89-1.22,2.96c-0.34,2.74,0.58,4.95,2.75,6.64c0.85,0.66,1.88,1.08,2.95,1.22c0.37,0.04,0.72,0.07,1.07,0.07
		c2.25,0,4.1-0.94,5.56-2.81c0.66-0.85,1.09-1.89,1.22-2.96C72.05,61.93,71.13,59.72,68.97,58.03z"/>
	<path d="M12.54,25.7c1.01,0.79,2.24,1.29,3.52,1.45c3.26,0.4,5.89-0.69,7.9-3.27c0.79-1.02,1.3-2.25,1.45-3.52
		c0.4-3.26-0.69-5.89-3.27-7.9c-1.02-0.79-2.25-1.3-3.53-1.46c-3.26-0.4-5.9,0.69-7.9,3.27c-0.79,1.02-1.29,2.25-1.45,3.52
		C8.86,21.06,9.95,23.69,12.54,25.7z"/>
	<path d="M94,0.11H36.36c-3.3,0-6,2.7-6,6v21.65l5-0.31V6.11c0-0.54,0.46-1,1-1H94c0.54,0,1,0.46,1,1v44.16
		c0.25,0.23,0.5,0.46,0.72,0.72c1.19,1.37,1.86,2.99,1.98,4.8c0.06,0.93-0.04,1.86-0.27,2.74c1.55-1.09,2.57-2.88,2.57-4.91V6.11
		C100,2.81,97.3,0.11,94,0.11z"/>
	<path d="M35.36,49.73V35.5l-5,0.43v16.98c0.36-0.48,0.76-0.94,1.22-1.34C32.69,50.61,33.96,50,35.36,49.73z"/>
	<path d="M25.38,35.08l9.85-0.84c0.97,0,1.9,0.01,2.76,0.01c0.89,0,1.69,0,2.37,0c1.31,0,2.14,0,2.18,0.03
		c0.42-0.01,1.23-0.15,1.74-0.97c0.33-0.54,0.48-1.15,0.46-1.89c-0.03-0.74-0.22-1.35-0.6-1.87v0c-0.41-0.57-1.05-0.92-1.73-0.92
		c-0.04,0-0.08,0-0.12,0l-12.64,0.79c-3.05,0.05-5.43,0.09-5.54,0.1c-0.23,0.01-0.48,0.07-0.76,0.19l-0.3,0.06L9.38,29.72
		C9,29.61,8.65,29.55,8.3,29.55c-0.26,0-0.52,0.03-0.77,0.1c-0.04,0.02-0.09,0.05-0.14,0.07l-0.03,0.01l-0.04,0.02
		c-0.62,0.24-1.08,0.7-1.29,1.3L2.73,41.66c-1.37,3.55-2.55,6.6-2.59,6.72c-0.14,0.4-0.3,1.2,0.29,1.98c0.38,0.51,0.91,0.86,1.6,1.1
		c0.41,0.14,0.8,0.21,1.18,0.21c0.27,0,0.53-0.03,0.79-0.1c0.71-0.19,1.26-0.7,1.51-1.4l2.26-7.29l0.38,16.07l1.04,0.01v20.53h0.93
		v0.13c0,1.46,1.19,2.65,2.65,2.65h0.38c1.46,0,2.65-1.19,2.65-2.65v-0.13h0.55V59.02l1.15,0.01v20.46h0.65v0.13
		c0,1.46,1.19,2.65,2.65,2.65h0.38c1.46,0,2.65-1.19,2.65-2.65v-0.13h0.83V59.09l1.13,0.01L25.38,35.08z"/>
	<path d="M43.87,9.66l-3.74,8.4h1.99l0.74-1.8h3.9l0.74,1.8h2.04l-3.76-8.4H43.87z M43.49,14.79l1.33-3.22l1.33,3.22H43.49z"/>
	<path d="M50.55,14.79c-0.45,0.34-0.68,0.82-0.68,1.42c0,0.38,0.1,0.71,0.29,1.01c0.19,0.3,0.47,0.53,0.83,0.7
		c0.36,0.17,0.79,0.25,1.29,0.25c0.96,0,1.62-0.3,1.97-0.9v0.8H56v-3.68c0-0.96-0.27-1.68-0.8-2.15c-0.54-0.48-1.3-0.71-2.3-0.71
		c-0.52,0-1.03,0.07-1.52,0.2c-0.49,0.14-0.91,0.33-1.27,0.58l0.67,1.31c0.23-0.18,0.51-0.33,0.85-0.44
		C51.96,13.05,52.3,13,52.64,13c0.5,0,0.87,0.11,1.12,0.33c0.25,0.22,0.37,0.53,0.37,0.94h-1.49C51.7,14.27,51,14.44,50.55,14.79z
		 M54.13,15.36v0.66c-0.1,0.29-0.28,0.51-0.53,0.65c-0.25,0.15-0.53,0.22-0.85,0.22c-0.33,0-0.59-0.07-0.77-0.21
		c-0.19-0.14-0.28-0.33-0.28-0.57c0-0.5,0.38-0.76,1.15-0.76H54.13z"/>
	<path d="M64.82,12.94c0.2-0.32,0.29-0.68,0.29-1.09c0-0.67-0.27-1.2-0.82-1.6c-0.55-0.39-1.33-0.59-2.36-0.59h-4.1v8.4h4.34
		c1.1,0,1.93-0.2,2.5-0.59c0.57-0.4,0.86-0.96,0.86-1.7c0-0.52-0.14-0.96-0.41-1.31c-0.27-0.36-0.65-0.61-1.13-0.76
		C64.35,13.51,64.62,13.26,64.82,12.94z M59.76,11.13h1.93c0.48,0,0.84,0.08,1.09,0.25c0.25,0.16,0.37,0.41,0.37,0.74
		s-0.12,0.58-0.37,0.74s-0.61,0.25-1.09,0.25h-1.93V11.13z M63.18,16.35c-0.26,0.17-0.65,0.25-1.16,0.25h-2.27v-2.08h2.27
		c1.03,0,1.55,0.35,1.55,1.04C63.58,15.92,63.45,16.18,63.18,16.35z"/>
	<path d="M66.88,9.16v8.9h1.79v-0.74c0.46,0.56,1.14,0.84,2.03,0.84c0.6,0,1.15-0.14,1.64-0.41c0.49-0.28,0.88-0.66,1.16-1.16
		c0.28-0.5,0.42-1.08,0.42-1.75s-0.14-1.25-0.42-1.75c-0.28-0.5-0.67-0.89-1.16-1.16c-0.49-0.28-1.04-0.41-1.64-0.41
		c-0.82,0-1.47,0.26-1.94,0.78V9.16H66.88z M69.18,13.53c0.31-0.32,0.7-0.49,1.18-0.49c0.48,0,0.87,0.16,1.18,0.49
		c0.31,0.32,0.46,0.76,0.46,1.3s-0.15,0.98-0.46,1.3c-0.31,0.32-0.7,0.49-1.18,0.49c-0.48,0-0.88-0.16-1.18-0.49
		c-0.31-0.32-0.46-0.76-0.46-1.3S68.88,13.86,69.18,13.53z"/>
	<path d="M78.02,11.52c0.41-0.23,0.87-0.34,1.39-0.34c0.84,0,1.54,0.33,2.11,0.98l1.25-1.15c-0.4-0.48-0.89-0.85-1.48-1.1
		s-1.25-0.38-1.97-0.38c-0.86,0-1.64,0.19-2.33,0.56c-0.69,0.37-1.24,0.89-1.63,1.55c-0.4,0.66-0.59,1.41-0.59,2.24
		s0.2,1.58,0.59,2.24c0.4,0.66,0.94,1.18,1.63,1.55c0.69,0.37,1.47,0.56,2.32,0.56c0.73,0,1.39-0.13,1.98-0.38s1.09-0.63,1.49-1.12
		l-1.25-1.15c-0.57,0.66-1.27,1-2.11,1c-0.52,0-0.98-0.11-1.39-0.34c-0.41-0.23-0.73-0.55-0.95-0.95c-0.23-0.41-0.34-0.87-0.34-1.39
		c0-0.52,0.11-0.98,0.34-1.39C77.3,12.06,77.62,11.74,78.02,11.52z"/>
	<path d="M86.83,13.05c0.63,0,1.12,0.3,1.45,0.89l1.45-0.78c-0.23-0.53-0.6-0.93-1.11-1.22c-0.51-0.28-1.1-0.43-1.78-0.43
		c-0.69,0-1.31,0.14-1.85,0.43s-0.98,0.68-1.28,1.18c-0.31,0.5-0.46,1.08-0.46,1.72c0,0.64,0.15,1.21,0.46,1.72
		c0.31,0.5,0.74,0.9,1.28,1.18s1.17,0.43,1.85,0.43c0.68,0,1.27-0.14,1.78-0.43c0.51-0.29,0.88-0.69,1.11-1.2l-1.45-0.79
		c-0.33,0.59-0.81,0.89-1.45,0.89c-0.49,0-0.89-0.16-1.21-0.48c-0.32-0.32-0.48-0.76-0.48-1.31c0-0.55,0.16-0.99,0.48-1.31
		C85.94,13.21,86.34,13.05,86.83,13.05z"/>
	<path d="M48.17,25.3c0,0.19,0.15,0.34,0.34,0.34h41.16c0.19,0,0.34-0.15,0.34-0.34s-0.15-0.34-0.34-0.34H48.52
		C48.33,24.96,48.17,25.11,48.17,25.3z"/>
	<path d="M48.52,30.73h41.16c0.19,0,0.34-0.15,0.34-0.34s-0.15-0.34-0.34-0.34H48.52c-0.19,0-0.34,0.15-0.34,0.34
		S48.33,30.73,48.52,30.73z"/>
	<path d="M48.52,35.82h41.16c0.19,0,0.34-0.15,0.34-0.34s-0.15-0.34-0.34-0.34H48.52c-0.19,0-0.34,0.15-0.34,0.34
		S48.33,35.82,48.52,35.82z"/>
	<path d="M48.52,40.9h41.16c0.19,0,0.34-0.15,0.34-0.34s-0.15-0.34-0.34-0.34H48.52c-0.19,0-0.34,0.15-0.34,0.34
		S48.33,40.9,48.52,40.9z"/>
	<path d="M90.02,45.65c0-0.19-0.15-0.34-0.34-0.34H48.52c-0.19,0-0.34,0.15-0.34,0.34s0.15,0.34,0.34,0.34h41.16
		C89.87,45.99,90.02,45.84,90.02,45.65z"/>
	<path d="M44.4,66.52c-0.43-0.22-0.9-0.32-1.41-0.32c-0.17,0-0.34,0.01-0.52,0.04c-0.33,0.04-0.63,0.13-0.91,0.25h-9.13
		c-0.35-0.14-0.73-0.24-1.15-0.26c-0.07,0-0.13,0-0.2,0c-0.64,0-1.21,0.15-1.72,0.45c-0.76,0.45-1.13,1.19-1.18,1.94l-0.33,15.05
		l1.38,0.09v8.31l5.98,0.05l1.12,0.01l0.63,0.01l1.72,0.02l6.2,0.06v-8.5L47,83.46c0,0,0,0.01,0,0.01c0.01,0-1.33-15.09-1.33-15.1
		C45.58,67.62,45.17,66.91,44.4,66.52z"/>
	<path d="M96.74,65.02c-0.43-0.22-0.9-0.32-1.41-0.32c-0.17,0-0.34,0.01-0.52,0.04c-0.33,0.04-0.63,0.13-0.91,0.25h-9.11
		c-0.35-0.14-0.72-0.24-1.15-0.26c-0.07,0-0.13,0-0.2,0c-0.64,0-1.21,0.15-1.72,0.45c-0.76,0.45-1.13,1.19-1.18,1.93l-0.33,15.01
		l1.37,0.09v12.99l15.61,0.14V82.16l2.13-0.24c0,0,0,0.01,0,0.01c0.01,0-1.33-15.05-1.33-15.06C97.92,66.12,97.51,65.41,96.74,65.02
		z"/>
	<path d="M76.04,81.37c-1.1-3.8-2.25-7.78-2.25-7.79c-0.23-0.71-0.76-1.33-1.6-1.56c-0.26-0.07-0.53-0.11-0.81-0.11
		c-0.37,0-0.75,0.07-1.14,0.2c-0.05,0.02-0.08,0.04-0.13,0.06H59.45c-0.09,0-0.18-0.04-0.24-0.1l-6.65-6.65
		c-0.63-0.63-1.47-1.07-2.35-1.07c-0.07,0-0.13,0-0.2,0.01c-0.71,0.05-1.31,0.34-1.82,0.85c-0.51,0.51-0.79,1.12-0.85,1.82
		c-0.07,0.95,0.39,1.87,1.06,2.55l8.61,8.61c0.06,0.06,0.1,0.15,0.1,0.24v21.24l15.65,0.14V89.48c0.27,0.6,0.75,1.1,1.48,1.3
		c0.26,0.07,0.53,0.11,0.81,0.11c0.37,0,0.75-0.07,1.14-0.2c0.68-0.23,1.23-0.6,1.63-1.11c0.54-0.69,0.62-1.52,0.4-2.24L76.04,81.37
		z"/>
</g>
</svg>
