<?xml version="1.0" encoding="utf-8"?>
<!-- Generator: Adobe Illustrator 24.0.0, SVG Export Plug-In . SVG Version: 6.00 Build 0)  -->
<svg version="1.1" id="Layer_1" xmlns="http://www.w3.org/2000/svg" xmlns:xlink="http://www.w3.org/1999/xlink" x="0px" y="0px"
	 viewBox="0 0 100 100" style="enable-background:new 0 0 100 100;" xml:space="preserve">
<style type="text/css">
	.st0{fill:none;}
	.st1{fill:#FFFFFF;}
	.st2{fill:#FFFFFF;stroke:#FFFFFF;stroke-width:0.25;stroke-miterlimit:10;}
	.st3{fill:none;stroke:#000000;stroke-width:0.25;stroke-linecap:round;stroke-miterlimit:10;}
	.st4{fill:#D9D9D9;}
	.st5{fill:none;stroke:#000000;stroke-width:2;stroke-linejoin:round;stroke-miterlimit:10;}
	.st6{fill:none;stroke:#000000;stroke-width:0.4396;stroke-miterlimit:10;}
	.st7{fill:none;stroke:#000000;stroke-linecap:round;stroke-linejoin:round;}
	.st8{fill:none;stroke:#000000;stroke-linecap:round;stroke-linejoin:round;stroke-miterlimit:10;}
</style>
<g>
	<path d="M99.3,51.1c-0.2-6-8.04-8.25-11.29-3.09l-6.91-9c-1.16-1.52-2.93-2.39-4.84-2.39c-1.97,0-3.72,0.94-4.82,2.37
		c-4.45-2.08-9.48,1.7-8.57,6.71c-3.72,1.61-4.82,6.32-2.39,9.48l0.59,0.78c-3.18,1.82-4.09,6.12-1.79,9.11l1.04,1.36h-6.54
		c-4.04,0-6.92,3.86-5.92,7.7c-1.92,0.98-3.3,2.99-3.34,5.38c-0.05,2.43,1.32,4.51,3.28,5.55c-1.07,4.01,2.02,7.77,5.97,7.77h0.9
		c-0.53,3.7,2.33,7.03,6.05,7.03h11.85c1.39,0,2.79-0.16,4.15-0.49l8.87-2.12c3.04-0.73,5.19-3.46,5.19-6.62V78.86l6.49-5.13
		c1.68-1.33,2.65-3.42,2.58-5.58L99.3,51.1z M65.87,59.98l0.94,1.22c-1.43,1.9-1.32,4.52,0.13,6.3h-0.79l-3.72-4.84
		C60.63,60.32,64.08,57.66,65.87,59.98z M86.83,90.62c0,1.33-0.89,2.47-2.16,2.77l-8.88,2.12c-0.88,0.21-2.33,0.38-3.23,0.38H60.72
		c-1.17,0-2.14-0.97-2.16-2.17c-0.01-0.59,0.22-1.15,0.64-1.58c0.43-0.43,0.99-0.67,1.59-0.67h6.86c0.55,0,0.99-0.44,0.99-0.99
		v-0.64c0-0.55-0.44-0.99-0.99-0.99H53.77c-2.89,0-2.97-4.42-0.06-4.42h13.94c0.55,0,0.99-0.44,0.99-0.99v-0.64
		c0-0.55-0.44-0.99-0.99-0.99H50.7c-2.89,0-2.96-4.42-0.06-4.42h17.01c0.55,0,0.99-0.44,0.99-0.99v-0.64c0-0.55-0.44-0.99-0.99-0.99
		h-13.8c-2.9,0-2.97-4.42-0.06-4.42h18.59c0.95,0,1.35-1.22,0.59-1.79l-3.43-2.53c-2.37-1.74,0.25-5.27,2.53-3.59l13.6,10.04
		c0.73,0.53,1.16,1.39,1.16,2.31V90.62z M94.82,70.63l-5.14,4.06c-0.04-1.77-0.91-3.44-2.32-4.49l-13.6-10.04
		c-1.44-1.06-3.32-1.25-4.91-0.58l-5.23-6.81c-1.78-2.32,1.56-5.13,3.37-2.78l8.57,11.17c0.14,0.18,0.43,0.35,0.66,0.38
		c0.04,0.01,0.09,0.01,0.12,0.01c0.19,0,0.46-0.1,0.61-0.21l0.5-0.4c0.21-0.16,0.38-0.51,0.38-0.77c0-0.19-0.09-0.46-0.21-0.6
		L67.2,45.99c-1.78-2.32,1.56-5.13,3.37-2.78l10.45,13.63c0.14,0.18,0.44,0.35,0.66,0.38c0.04,0,0.09,0.01,0.12,0.01
		c0.19,0,0.46-0.1,0.61-0.21l0.49-0.4c0.21-0.16,0.38-0.51,0.38-0.77c0-0.19-0.09-0.46-0.2-0.6l-8.48-11.05
		c-1.78-2.32,1.56-5.13,3.37-2.77L89.39,56.3c0.16,0.22,0.51,0.39,0.79,0.39c0.55,0,0.99-0.44,0.99-0.99c0-0.01,0-0.02,0-0.03
		l-0.14-4.3c-0.09-2.99,4.23-3.02,4.32-0.15l0.56,17.06C95.93,69.19,95.53,70.07,94.82,70.63z"/>
	<path d="M57.97,40.98l1.73-0.87c1.18-0.59,2.14-2.14,2.14-3.45v-5.79C61.83,13.81,48.03,0,30.96,0S0.09,13.81,0.09,30.87v5.79
		c0,1.32,0.95,2.86,2.14,3.45l1.73,0.87c0.24,7.25,6.19,13.04,13.5,13.04h2.89c1.6,0,2.89-1.3,2.89-2.89V29.91
		c0-1.6-1.3-2.89-2.89-2.89h-2.89c-3.78,0-7.2,1.55-9.65,4.05v-0.2C7.81,18.1,18.2,7.72,30.96,7.72c12.77,0,23.15,10.39,23.15,23.15
		v0.2c-2.45-2.5-5.87-4.05-9.65-4.05h-2.89c-1.6,0-2.89,1.3-2.89,2.89v21.22c0,1.6,1.3,2.89,2.89,2.89h2.89
		C51.78,54.02,57.72,48.23,57.97,40.98z"/>
</g>
</svg>
