<?xml version="1.0" encoding="utf-8"?>
<!-- Generator: Adobe Illustrator 24.0.0, SVG Export Plug-In . SVG Version: 6.00 Build 0)  -->
<svg version="1.1" id="Layer_1" xmlns="http://www.w3.org/2000/svg" xmlns:xlink="http://www.w3.org/1999/xlink" x="0px" y="0px"
	 viewBox="0 0 100 100" style="enable-background:new 0 0 100 100;" xml:space="preserve">
<style type="text/css">
	.st0{fill:none;}
	.st1{fill:#FFFFFF;}
	.st2{fill:#FFFFFF;stroke:#FFFFFF;stroke-width:0.25;stroke-miterlimit:10;}
	.st3{fill:none;stroke:#000000;stroke-width:0.25;stroke-linecap:round;stroke-miterlimit:10;}
	.st4{fill:#D9D9D9;}
	.st5{fill:none;stroke:#000000;stroke-width:2;stroke-linejoin:round;stroke-miterlimit:10;}
	.st6{fill:none;stroke:#000000;stroke-width:0.4396;stroke-miterlimit:10;}
	.st7{fill:none;stroke:#000000;stroke-linecap:round;stroke-linejoin:round;}
	.st8{fill:none;stroke:#000000;stroke-linecap:round;stroke-linejoin:round;stroke-miterlimit:10;}
</style>
<g>
	<path d="M86.7,16.56H33.93c-0.24,0-0.44,0.2-0.44,0.44s0.2,0.44,0.44,0.44H86.7c0.24,0,0.44-0.2,0.44-0.44S86.94,16.56,86.7,16.56z
		"/>
	<path d="M83.93,25.53H31.16c-0.24,0-0.44,0.2-0.44,0.44s0.2,0.44,0.44,0.44h52.77c0.24,0,0.44-0.2,0.44-0.44
		S84.17,25.53,83.93,25.53z"/>
	<path d="M81.15,34.49H28.38c-0.24,0-0.44,0.2-0.44,0.44s0.2,0.44,0.44,0.44h52.77c0.24,0,0.44-0.2,0.44-0.44
		S81.4,34.49,81.15,34.49z"/>
	<path d="M78.38,43.46H25.61c-0.24,0-0.44,0.2-0.44,0.44s0.2,0.44,0.44,0.44h52.77c0.24,0,0.44-0.2,0.44-0.44
		S78.62,43.46,78.38,43.46z"/>
	<path d="M75.61,52.42H22.83c-0.24,0-0.44,0.2-0.44,0.44s0.2,0.44,0.44,0.44h52.77c0.24,0,0.44-0.2,0.44-0.44
		S75.85,52.42,75.61,52.42z"/>
	<path d="M99.65,52.58l-3.16-4.07c-0.32-0.42-0.96-0.58-1.76-0.43c-0.8,0.15-1.72,0.6-2.5,1.22l-5.57,4.33l5.57,7.24l5.58-4.35
		c0.77-0.6,1.44-1.38,1.78-2.13C99.94,53.66,99.95,53,99.65,52.58z"/>
	<path d="M84.51,55.31l-0.45,0.35L99.59,5.22c0.41-1.33,0.29-2.61-0.33-3.61c-0.64-1.02-1.69-1.58-2.96-1.58H33.66
		c-2.31,0-4.71,1.93-5.47,4.39L0.37,94.78c-0.4,1.31-0.28,2.62,0.34,3.61c0.64,1.02,1.69,1.59,2.96,1.59h62.62
		c2.31,0,4.71-1.93,5.47-4.39l7.6-24.69l10.72-8.35L84.51,55.31z M57.92,80.03L59,77.7l3.06-2.38l3.15,4.09l-3.06,2.38l-2.52,0.47
		l1.3-2.79L57.92,80.03z M64.8,74.09c-0.3,0.06-0.43-0.1-0.29-0.38c0.06-0.13,0.17-0.27,0.34-0.4l14.89-11.6l-0.36,1.17l-14.1,10.98
		C65.11,73.99,64.94,74.06,64.8,74.09z M56.53,77.1l-4.21,9.07l9.78-1.83l14.02-10.93l-6.58,21.36c-0.44,1.42-1.96,2.66-3.26,2.66
		H3.67c-0.48,0-0.84-0.17-1.03-0.47c-0.21-0.33-0.23-0.82-0.05-1.38L30.41,5.22c0.44-1.42,1.96-2.66,3.25-2.66h62.63
		c0.47,0,0.84,0.17,1.03,0.48c0.2,0.32,0.22,0.83,0.05,1.38L80.82,58.18L56.53,77.1z M83.84,59.25c-0.06,0.13-0.17,0.27-0.34,0.4
		l-0.89,0.69l0.36-1.17l0.1-0.07c0.17-0.13,0.33-0.2,0.47-0.23C83.85,58.81,83.97,58.97,83.84,59.25z"/>
</g>
</svg>
