<svg id="Layer_1" data-name="Layer 1" xmlns="http://www.w3.org/2000/svg" viewBox="0 0 100 100"><defs><style>.cls-1{fill:#231f20;}</style></defs><title> </title><path class="cls-1" d="M64.51,89.16H11.74a.44.44,0,0,1-.44-.44.44.44,0,0,1,.44-.44H64.51a.44.44,0,0,1,.44.44A.44.44,0,0,1,64.51,89.16Z"/><path class="cls-1" d="M86.7,16.56H67.37C64.85,11.77,58,8.31,50,8.31c-10.14,0-18.4,5.52-18.4,12.29a8.88,8.88,0,0,0,1.56,4.93h-2a.44.44,0,0,0-.44.44.44.44,0,0,0,.44.44H33.8C36.91,30.26,43,32.89,50,32.89s13.1-2.63,16.21-6.48H83.93a.44.44,0,0,0,.44-.44.44.44,0,0,0-.44-.44H66.85a8.88,8.88,0,0,0,1.56-4.93,8.57,8.57,0,0,0-.64-3.16H86.7a.44.44,0,1,0,0-.88ZM50,9.72c7.15,0,13.28,2.84,15.8,6.84H34.21C36.73,12.56,42.86,9.72,50,9.72Zm0,21.76c-6,0-11.36-2-14.38-5.07H64.39C61.37,29.45,56.06,31.48,50,31.48ZM67,20.6a7.87,7.87,0,0,1-1.86,4.93H34.84A7.87,7.87,0,0,1,33,20.6a7.38,7.38,0,0,1,.76-3.21.41.41,0,0,0,.19.05H66.3A7.25,7.25,0,0,1,67,20.6Z"/><path class="cls-1" d="M81.15,34.49h-48l1-4.65L26.4,32.31l2.38,2.18h-.4a.44.44,0,0,0-.44.44.44.44,0,0,0,.34.42,28.51,28.51,0,0,0-3.26,26h-5a.44.44,0,1,0,0,.88h5.32l.17.42-2.79,1.75L30,68.26l-.23-6H72.83a.44.44,0,0,0,0-.88H29.75l-.05-1.31-2.09,1.31h-.82a26,26,0,0,1-.89-17H78.38a.44.44,0,0,0,0-.88H26.15A28.39,28.39,0,0,1,30,35.65l2.4,2.19L33,35.37H81.15a.44.44,0,0,0,0-.88Z"/><path class="cls-1" d="M14.47,80.07h39a.4.4,0,1,0,0-.8h-39a.4.4,0,1,0,0,.8Z"/><path class="cls-1" d="M84.51,55.31l-.45.35L99.59,5.22a4.38,4.38,0,0,0-.34-3.61,3.35,3.35,0,0,0-3-1.58H33.66a6.21,6.21,0,0,0-5.47,4.39L.37,94.78A4.41,4.41,0,0,0,.7,98.39a3.35,3.35,0,0,0,3,1.59H66.29a6.2,6.2,0,0,0,5.47-4.39L79.37,70.9l10.71-8.35Zm-32,16.06A47,47,0,0,1,61,73.59L56.53,77.1l-4.21,9.08,9.78-1.83,5.71-4.45c-.7,4.77-13.24,8.73-28,8.73-15.21,0-28-4.19-28-9.15,0-3.47,6.31-6.56,15.32-8.11Zm-20.69-.64c2.54-.25,5.21-.39,8-.39s5.43.14,8,.39ZM57.92,80,59,77.7l3.07-2.39,3.14,4.1-3.06,2.38-2.52.47,1.3-2.79Zm7.35-6.17a1.08,1.08,0,0,1-.33.18l-.45-.25a.15.15,0,0,1,0-.09,1.1,1.1,0,0,1,.34-.4L79.73,61.7l-.36,1.17Zm-3.09-1.15a36.43,36.43,0,0,0-4-1.34h3.33c.25,0,.45-.14.45-.32s-.2-.32-.45-.32H55.64A75,75,0,0,0,39.8,69.15,75,75,0,0,0,24,70.73H17.3c-.25,0-.45.15-.45.32s.2.32.45.32h4.07c-6.75,1.88-11,4.79-11,8.11,0,5.79,12.93,10.33,29.44,10.33s29.44-4.54,29.44-10.33a4.62,4.62,0,0,0-.06-.64l6.94-5.42L69.55,94.78a3.9,3.9,0,0,1-3.26,2.67H3.67a1.17,1.17,0,0,1-1-.48,1.73,1.73,0,0,1,0-1.38L30.41,5.22a3.88,3.88,0,0,1,3.25-2.66H96.29a1.15,1.15,0,0,1,1,.48,1.73,1.73,0,0,1,.05,1.38L80.82,58.18ZM83.84,59.25a1,1,0,0,1-.34.41l-.89.69L83,59.17l.09-.07a1.19,1.19,0,0,1,.47-.23C83.85,58.81,84,59,83.84,59.25Z"/><path class="cls-1" d="M99.65,52.58,96.49,48.5a1.74,1.74,0,0,0-1.75-.42,6,6,0,0,0-2.5,1.22l-5.58,4.33,5.57,7.24,5.59-4.35A6.27,6.27,0,0,0,99.6,54.4,1.84,1.84,0,0,0,99.65,52.58Z"/><path class="cls-1" d="M23.24,52.42c0,.3,0,.59,0,.88h1.64c0-.29,0-.58,0-.88Zm52.37,0H25.83c0,.3,0,.59,0,.88H75.61a.44.44,0,0,0,.44-.44A.44.44,0,0,0,75.61,52.42Z"/></svg>