<svg id="Layer_1" data-name="Layer 1" xmlns="http://www.w3.org/2000/svg" viewBox="0 0 100 100"><defs><style>.cls-1{fill:#231f20;}</style></defs><title> </title><path class="cls-1" d="M45.05,11.92l-3.64,8.15h1.94l.72-1.74h3.78l.73,1.74h2l-3.65-8.15Zm-.38,5L46,13.77l1.29,3.12Z"/><path class="cls-1" d="M51.53,16.89a1.65,1.65,0,0,0-.66,1.38,1.75,1.75,0,0,0,.28,1,1.93,1.93,0,0,0,.81.67,3,3,0,0,0,1.25.25,2,2,0,0,0,1.91-.88v.78h1.7V16.5A2.65,2.65,0,0,0,56,14.41a3.21,3.21,0,0,0-2.23-.7,5.62,5.62,0,0,0-1.48.2,4.09,4.09,0,0,0-1.23.56l.66,1.27a2.65,2.65,0,0,1,.82-.43,3.28,3.28,0,0,1,1-.15,1.59,1.59,0,0,1,1.09.32,1.15,1.15,0,0,1,.36.91H53.56A3.39,3.39,0,0,0,51.53,16.89Zm3.48.56v.64a1.22,1.22,0,0,1-.52.64,1.59,1.59,0,0,1-.82.21,1.19,1.19,0,0,1-.75-.2.64.64,0,0,1-.28-.55c0-.49.38-.74,1.12-.74Z"/><path class="cls-1" d="M65.38,15.1A2,2,0,0,0,65.67,14a1.82,1.82,0,0,0-.8-1.55,3.91,3.91,0,0,0-2.29-.57h-4v8.15h4.22a4.3,4.3,0,0,0,2.43-.57,1.89,1.89,0,0,0,.83-1.65,2.07,2.07,0,0,0-.39-1.28,2.22,2.22,0,0,0-1.1-.74A2,2,0,0,0,65.38,15.1Zm-4.91-1.76h1.88a1.93,1.93,0,0,1,1.06.24.81.81,0,0,1,.36.72.82.82,0,0,1-.36.72,1.93,1.93,0,0,1-1.06.24H60.47Zm3.33,5.07a2.16,2.16,0,0,1-1.13.24h-2.2v-2h2.2c1,0,1.5.33,1.5,1A.85.85,0,0,1,63.8,18.41Z"/><path class="cls-1" d="M67.38,11.43v8.64h1.73v-.72a2.4,2.4,0,0,0,2,.82,3.19,3.19,0,0,0,1.59-.41,2.86,2.86,0,0,0,1.13-1.13,3.38,3.38,0,0,0,.4-1.69,3.41,3.41,0,0,0-.4-1.69,2.86,2.86,0,0,0-1.13-1.13,3.19,3.19,0,0,0-1.59-.41,2.41,2.41,0,0,0-1.88.76v-3Zm2.24,4.25a1.5,1.5,0,0,1,1.15-.48,1.48,1.48,0,0,1,1.14.48,1.74,1.74,0,0,1,.45,1.26,1.74,1.74,0,0,1-.45,1.26,1.48,1.48,0,0,1-1.14.48,1.5,1.5,0,0,1-1.15-.48,1.74,1.74,0,0,1-.45-1.26A1.74,1.74,0,0,1,69.62,15.68Z"/><path class="cls-1" d="M78.2,13.72a2.75,2.75,0,0,1,1.35-.33,2.61,2.61,0,0,1,2,.95l1.21-1.12a3.94,3.94,0,0,0-1.44-1.07,5.07,5.07,0,0,0-4.18.17,4,4,0,0,0-1.58,1.5,4.37,4.37,0,0,0,0,4.35,4,4,0,0,0,1.58,1.5,4.72,4.72,0,0,0,2.26.54,4.8,4.8,0,0,0,1.92-.37,3.86,3.86,0,0,0,1.44-1.08L81.6,17.64a2.6,2.6,0,0,1-2,1,2.66,2.66,0,0,1-1.35-.34,2.35,2.35,0,0,1-.93-.92A2.75,2.75,0,0,1,76.94,16a2.7,2.7,0,0,1,.33-1.35A2.31,2.31,0,0,1,78.2,13.72Z"/><path class="cls-1" d="M86.75,15.2a1.55,1.55,0,0,1,1.41.87l1.41-.76a2.43,2.43,0,0,0-1.08-1.18,3.44,3.44,0,0,0-1.73-.42,3.79,3.79,0,0,0-1.8.42,3,3,0,0,0-1.24,1.14,3.32,3.32,0,0,0,0,3.34A3,3,0,0,0,85,19.75a3.79,3.79,0,0,0,1.8.42,3.44,3.44,0,0,0,1.73-.42,2.5,2.5,0,0,0,1.08-1.17l-1.41-.77a1.53,1.53,0,0,1-1.41.87,1.61,1.61,0,0,1-1.18-.47,1.71,1.71,0,0,1-.46-1.27,1.71,1.71,0,0,1,.46-1.27A1.61,1.61,0,0,1,86.75,15.2Z"/><path class="cls-1" d="M11.35,36.38a16.2,16.2,0,0,0,13.06,5.38,14.66,14.66,0,0,0,8.92-3.68A16,16,0,0,0,38.72,25,14.57,14.57,0,0,0,35,16.1a16.15,16.15,0,0,0-12-5.44c-.35,0-.7,0-1.05,0A14.71,14.71,0,0,0,13,14.38,16,16,0,0,0,7.65,27.45,14.68,14.68,0,0,0,11.35,36.38Z"/><path class="cls-1" d="M97.87,2.05a6.41,6.41,0,0,0-4.7-2H26.59a6.39,6.39,0,0,0-4.7,2,6.48,6.48,0,0,0-1.95,4.73v.93a17.32,17.32,0,0,1,1.8-.27,18.82,18.82,0,0,1,3.52.13V6.78a1.26,1.26,0,0,1,.4-.94,1.24,1.24,0,0,1,.93-.4H93.17a1.24,1.24,0,0,1,.93.4,1.26,1.26,0,0,1,.4.94V47a1.26,1.26,0,0,1-.4.94,1.24,1.24,0,0,1-.93.4H46.59a9.28,9.28,0,0,1,1.35,3.84h0c0,.28.08.74.15,1.51h9.14V59H48.56L49,64.39H77.19a1.28,1.28,0,0,0,1.33-1.34V60.37a1.3,1.3,0,0,0-.37-1,1.27,1.27,0,0,0-1-.38H62.54V53.67H93.17a6.41,6.41,0,0,0,4.7-2A6.48,6.48,0,0,0,99.82,47V6.78A6.48,6.48,0,0,0,97.87,2.05Z"/><path class="cls-1" d="M45.27,27.94a.38.38,0,0,0,.38.38H89.18a.38.38,0,0,0,.37-.38.37.37,0,0,0-.37-.37H45.65A.37.37,0,0,0,45.27,27.94Z"/><path class="cls-1" d="M89.18,33.37H45.65a.38.38,0,1,0,0,.75H89.18a.38.38,0,0,0,0-.75Z"/><path class="cls-1" d="M89.18,39.18H45.65a.38.38,0,1,0,0,.75H89.18a.38.38,0,0,0,0-.75Z"/><path class="cls-1" d="M61.32,69.62a4.9,4.9,0,0,0-1.4.21L46.77,75.1c-.41-4.64-.94-10.52-1.34-15.08,0-.21,0-.45-.06-.65-.21-2.32-.38-4.23-.48-5.36V54c-.06-.67-.1-1.08-.1-1.08a6.48,6.48,0,0,0-.28-1.25,6,6,0,0,0-.43-.93L44,50.5a5.63,5.63,0,0,0-2.39-2.26A7.85,7.85,0,0,0,38,47.42a9.58,9.58,0,0,0-1.3.09,9.14,9.14,0,0,0-2.3.62h-23a8.8,8.8,0,0,0-2.88-.65H8.1a8.31,8.31,0,0,0-4.33,1.14,6,6,0,0,0-3,4.87L0,96.1c7.58,6.19,42.51,3.83,42.4,1l.07,0c.4,0-.8-8.13,1.55-10.12l18.7-7.7a4.9,4.9,0,0,0-1.4-9.59Z"/></svg>