<?xml version="1.0" encoding="utf-8"?>
<!-- Generator: Adobe Illustrator 24.0.0, SVG Export Plug-In . SVG Version: 6.00 Build 0)  -->
<svg version="1.1" id="Layer_1" xmlns="http://www.w3.org/2000/svg" xmlns:xlink="http://www.w3.org/1999/xlink" x="0px" y="0px"
	 viewBox="0 0 100 100" style="enable-background:new 0 0 100 100;" xml:space="preserve">
<style type="text/css">
	.st0{fill:none;}
	.st1{fill:#FFFFFF;}
	.st2{fill:#FFFFFF;stroke:#FFFFFF;stroke-width:0.25;stroke-miterlimit:10;}
	.st3{fill:none;stroke:#000000;stroke-width:0.25;stroke-linecap:round;stroke-miterlimit:10;}
	.st4{fill:#D9D9D9;}
	.st5{fill:none;stroke:#000000;stroke-width:2;stroke-linejoin:round;stroke-miterlimit:10;}
	.st6{fill:none;stroke:#000000;stroke-width:0.4396;stroke-miterlimit:10;}
	.st7{fill:none;stroke:#000000;stroke-linecap:round;stroke-linejoin:round;}
	.st8{fill:none;stroke:#000000;stroke-linecap:round;stroke-linejoin:round;stroke-miterlimit:10;}
</style>
<g>
	<path d="M45.05,11.92l-3.63,8.15h1.93l0.72-1.75h3.79l0.72,1.75h1.98l-3.65-8.15H45.05z M44.67,16.89l1.29-3.12l1.29,3.12H44.67z"
		/>
	<path d="M51.53,16.89c-0.44,0.33-0.66,0.79-0.66,1.37c0,0.37,0.09,0.69,0.28,0.98c0.19,0.29,0.46,0.51,0.81,0.67
		c0.35,0.16,0.77,0.24,1.25,0.24c0.93,0,1.57-0.29,1.91-0.87v0.78h1.7V16.5c0-0.93-0.26-1.63-0.78-2.09
		c-0.52-0.46-1.27-0.69-2.24-0.69c-0.5,0-1,0.07-1.47,0.2c-0.48,0.13-0.89,0.32-1.23,0.56l0.65,1.27c0.22-0.18,0.5-0.32,0.82-0.43
		c0.32-0.1,0.65-0.16,0.98-0.16c0.48,0,0.84,0.11,1.08,0.32c0.24,0.21,0.36,0.52,0.36,0.91h-1.44
		C52.65,16.39,51.97,16.56,51.53,16.89z M55.01,17.45v0.64c-0.1,0.28-0.27,0.49-0.51,0.64c-0.24,0.14-0.52,0.22-0.83,0.22
		c-0.32,0-0.57-0.07-0.75-0.2c-0.18-0.14-0.27-0.32-0.27-0.55c0-0.49,0.37-0.73,1.12-0.73H55.01z"/>
	<path d="M65.38,15.1c0.19-0.31,0.29-0.66,0.29-1.06c0-0.65-0.27-1.17-0.8-1.55c-0.53-0.38-1.29-0.57-2.29-0.57h-3.98v8.15h4.22
		c1.06,0,1.87-0.19,2.43-0.58c0.56-0.38,0.83-0.93,0.83-1.65c0-0.5-0.13-0.93-0.4-1.28c-0.26-0.35-0.63-0.59-1.09-0.74
		C64.92,15.66,65.19,15.41,65.38,15.1z M60.47,13.34h1.88c0.47,0,0.82,0.08,1.06,0.24c0.24,0.16,0.36,0.4,0.36,0.72
		c0,0.32-0.12,0.56-0.36,0.72c-0.24,0.16-0.59,0.24-1.06,0.24h-1.88V13.34z M63.8,18.41c-0.25,0.16-0.63,0.24-1.12,0.24h-2.2v-2.02
		h2.2c1,0,1.5,0.34,1.5,1.01C64.17,17.99,64.05,18.24,63.8,18.41z"/>
	<path d="M67.38,11.43v8.64h1.74v-0.72c0.45,0.54,1.11,0.82,1.97,0.82c0.58,0,1.11-0.13,1.59-0.4c0.48-0.27,0.85-0.64,1.12-1.13
		c0.27-0.48,0.41-1.05,0.41-1.69c0-0.64-0.14-1.21-0.41-1.7c-0.27-0.49-0.65-0.86-1.12-1.13c-0.48-0.27-1.01-0.4-1.59-0.4
		c-0.8,0-1.43,0.25-1.89,0.76v-3.04H67.38z M69.62,15.68c0.3-0.31,0.68-0.47,1.15-0.47c0.47,0,0.85,0.16,1.15,0.47
		c0.3,0.31,0.45,0.74,0.45,1.26s-0.15,0.95-0.45,1.26c-0.3,0.31-0.68,0.47-1.15,0.47c-0.47,0-0.85-0.16-1.15-0.47
		c-0.3-0.31-0.45-0.74-0.45-1.26S69.32,15.99,69.62,15.68z"/>
	<path d="M78.2,13.72c0.4-0.22,0.85-0.33,1.35-0.33c0.82,0,1.5,0.32,2.05,0.95l1.21-1.12c-0.39-0.47-0.87-0.82-1.44-1.07
		c-0.57-0.25-1.21-0.37-1.92-0.37c-0.84,0-1.59,0.18-2.27,0.54c-0.67,0.36-1.2,0.86-1.59,1.5c-0.38,0.64-0.58,1.37-0.58,2.17
		s0.19,1.53,0.58,2.17c0.38,0.64,0.91,1.14,1.59,1.5c0.67,0.36,1.42,0.54,2.25,0.54c0.71,0,1.35-0.12,1.92-0.37
		c0.57-0.25,1.06-0.61,1.44-1.08l-1.21-1.12c-0.55,0.64-1.24,0.97-2.05,0.97c-0.51,0-0.96-0.11-1.35-0.33
		c-0.4-0.22-0.71-0.53-0.93-0.93c-0.22-0.4-0.33-0.85-0.33-1.35c0-0.5,0.11-0.95,0.33-1.35C77.49,14.25,77.8,13.94,78.2,13.72z"/>
	<path d="M86.75,15.2c0.61,0,1.08,0.29,1.41,0.86l1.41-0.76c-0.23-0.51-0.58-0.91-1.08-1.18c-0.49-0.28-1.07-0.41-1.73-0.41
		c-0.67,0-1.27,0.14-1.8,0.41s-0.95,0.66-1.25,1.15c-0.3,0.49-0.45,1.04-0.45,1.67c0,0.62,0.15,1.18,0.45,1.67
		c0.3,0.49,0.71,0.87,1.25,1.15c0.53,0.28,1.13,0.41,1.8,0.41c0.66,0,1.24-0.14,1.73-0.42c0.49-0.28,0.85-0.67,1.08-1.17l-1.41-0.77
		c-0.32,0.57-0.79,0.86-1.41,0.86c-0.47,0-0.87-0.15-1.18-0.47c-0.31-0.31-0.47-0.73-0.47-1.27c0-0.54,0.15-0.96,0.47-1.27
		C85.88,15.36,86.28,15.2,86.75,15.2z"/>
	<path d="M11.35,36.38c3.19,3.65,8.14,5.69,13.05,5.38c3.42-0.24,6.34-1.44,8.92-3.69c3.72-3.24,5.73-8.12,5.39-13.06
		c-0.23-3.42-1.43-6.34-3.68-8.91c-2.97-3.41-7.46-5.44-12.02-5.44c-0.35,0-0.7,0.01-1.05,0.04c-3.42,0.24-6.34,1.44-8.92,3.69
		c-3.71,3.24-5.73,8.12-5.39,13.06C7.89,30.88,9.1,33.8,11.35,36.38z"/>
	<path d="M97.87,2.05c-1.3-1.31-2.87-1.97-4.7-1.97H26.59c-1.83,0-3.4,0.66-4.7,1.97c-1.3,1.31-1.96,2.89-1.96,4.73v0.93
		c0.6-0.1,1.18-0.22,1.8-0.27c1.18-0.08,2.36-0.01,3.52,0.13V6.78c0-0.36,0.13-0.68,0.4-0.94c0.26-0.27,0.58-0.4,0.94-0.4h66.57
		c0.36,0,0.67,0.13,0.94,0.4c0.26,0.27,0.4,0.58,0.4,0.94v40.19c0,0.36-0.13,0.68-0.4,0.94c-0.26,0.27-0.58,0.4-0.94,0.4H46.59
		c0.7,1.14,1.19,2.42,1.35,3.84l-0.01,0c0.03,0.28,0.08,0.75,0.15,1.51h9.14v5.36h-8.65c0.13,1.46,0.29,3.24,0.47,5.36h28.15
		c0.39,0,0.71-0.13,0.96-0.38c0.25-0.25,0.37-0.57,0.37-0.96v-2.68c0-0.39-0.12-0.71-0.37-0.96c-0.25-0.25-0.57-0.38-0.96-0.38
		H62.54v-5.36h30.62c1.83,0,3.4-0.66,4.7-1.97c1.3-1.31,1.96-2.89,1.96-4.73V6.78C99.82,4.94,99.17,3.36,97.87,2.05z"/>
	<path d="M45.27,27.94c0,0.21,0.17,0.38,0.38,0.38h43.53c0.21,0,0.38-0.17,0.38-0.38s-0.17-0.38-0.38-0.38H45.65
		C45.44,27.57,45.27,27.73,45.27,27.94z"/>
	<path d="M89.18,33.37H45.65c-0.21,0-0.38,0.17-0.38,0.38s0.17,0.38,0.38,0.38h43.53c0.21,0,0.38-0.17,0.38-0.38
		S89.38,33.37,89.18,33.37z"/>
	<path d="M89.18,39.18H45.65c-0.21,0-0.38,0.17-0.38,0.38s0.17,0.38,0.38,0.38h43.53c0.21,0,0.38-0.17,0.38-0.38
		S89.38,39.18,89.18,39.18z"/>
	<path d="M61.32,69.62c-0.47,0-0.94,0.07-1.41,0.21L46.77,75.1c-0.41-4.64-0.94-10.52-1.34-15.08c-0.02-0.21-0.04-0.45-0.06-0.65
		c-0.21-2.32-0.38-4.22-0.48-5.36c0-0.03,0-0.04-0.01-0.06c-0.06-0.67-0.1-1.08-0.1-1.08c-0.05-0.43-0.15-0.84-0.29-1.25
		c-0.11-0.32-0.27-0.63-0.43-0.93c-0.03-0.06-0.05-0.12-0.09-0.18c-0.53-0.92-1.3-1.72-2.39-2.27c-1.08-0.54-2.27-0.81-3.55-0.81
		c-0.42,0-0.86,0.03-1.3,0.09c-0.83,0.11-1.59,0.33-2.3,0.62h-8.92h-5.6h-8.43c-0.88-0.35-1.83-0.6-2.89-0.65
		c-0.17-0.01-0.33-0.01-0.5-0.01c-1.61,0-3.05,0.38-4.32,1.14c-1.9,1.13-2.84,3-2.96,4.87L0,96.1c7.58,6.19,42.51,3.83,42.4,0.98
		l0.07-0.06c0.39-0.02-0.8-8.13,1.55-10.11l18.71-7.71c2.59-0.77,4.06-3.5,3.29-6.09C65.38,70.99,63.43,69.62,61.32,69.62z"/>
</g>
</svg>
