<svg id="Layer_1" data-name="Layer 1" xmlns="http://www.w3.org/2000/svg" viewBox="0 0 100 100"><defs><style>.cls-1{fill:#231f20;}</style></defs><title> </title><path class="cls-1" d="M33.92,83.07v-.61H17.61V79a1.85,1.85,0,0,0,1.63-1.83,1.93,1.93,0,0,0-.23-.89l7.81-7.85A.62.62,0,0,0,27,68a.64.64,0,0,0-.18-.43.61.61,0,0,0-.86,0l-7.85,7.89a1.66,1.66,0,0,0-.5-.12V65.82H17v9.55a1.85,1.85,0,0,0-1.46,1.81,1.8,1.8,0,0,0,.15.73l-3.16,3.17a1.86,1.86,0,0,0-.81-.19,1.78,1.78,0,0,0-.8.19l-9.7-9.65a.6.6,0,0,0-.43-.18h0a.57.57,0,0,0-.43.18.58.58,0,0,0-.18.43.6.6,0,0,0,.18.43l9.7,9.65a1.87,1.87,0,0,0-.17.52H0v.61H9.9a1.88,1.88,0,0,0,.16.49L6.81,86.83a.6.6,0,0,0-.18.43.61.61,0,0,0,.61.61.6.6,0,0,0,.43-.18l3.26-3.28a1.76,1.76,0,0,0,.79.18,1.82,1.82,0,0,0,.81-.19L17,88.85V99.72h.61V89.45l2,2a.62.62,0,0,0,.43.18.64.64,0,0,0,.43-.18.6.6,0,0,0,.18-.43.6.6,0,0,0-.18-.43l-2.86-2.84V83.07ZM13.39,81.94l3.12-3.14A2.26,2.26,0,0,0,17,79v3.47H13.55A2,2,0,0,0,13.39,81.94Zm0,1.6a1.84,1.84,0,0,0,.15-.47H17v4.06Zm61-11.88L64,61.25l.31-.45a19.92,19.92,0,0,0-1.65-24.6l0,0A19.87,19.87,0,0,0,28,49.52a18.57,18.57,0,0,0,.12,2.12A19.57,19.57,0,0,0,30,58.05v0a19.87,19.87,0,0,0,29.23,7.85l.45-.31L70.06,76a3,3,0,0,0,2.17.91,3.08,3.08,0,0,0,2.2-5.24ZM37.24,58.05a13.63,13.63,0,0,1-2.84-6.41,13.48,13.48,0,0,1-.21-2.12,13.7,13.7,0,0,1,26.15-5.79.05.05,0,0,1,0,0,13.51,13.51,0,0,1,1.31,5.75,13.68,13.68,0,0,1-24.41,8.55ZM31.77,6.35a.82.82,0,0,0-.07-.3.36.36,0,0,0,0-.07.91.91,0,0,0-.17-.23h0l0,0-.1-.08h0L26.78,3.15,21.13.08h0L21,0l-.1,0a.93.93,0,0,0-.29,0h0L.69,2.79h0a.6.6,0,0,0-.19.06A.88.88,0,0,0,0,3.65l0,21.51h0a.73.73,0,0,0,.07.3.14.14,0,0,0,0,.06.64.64,0,0,0,.18.25h0l0,0,.11.08,10.21,5.55h0a.77.77,0,0,0,.34.08h.11l0,0L31,28.73a.57.57,0,0,0,.22-.07.85.85,0,0,0,.52-.77h0ZM3.5,25.6l6.65-.93v4.55l-3.71-2Zm8.3-2.85,0-12.84,8.06-1.13,0,12.84ZM28.18,5.92l-6.64.93V2.31l.2.11ZM19.91,1.78V7.09L11.13,8.32,3.38,4.1l2-.27ZM10.17,9.59V14l0,9-8.57,1.2,0-19.25L6.05,7.35ZM21.51,21.93l0-13.39,8.58-1.2,0,19.2v.05Zm-9.72,7.82V24.44l8.76-1.23,7.76,4.21-2.11.3Zm86.36-6.52v1a22.06,22.06,0,0,1-3.26,1.12,34.53,34.53,0,0,1-3.4.73H90.28V4.43H81v9.23q0,1.56-.12,3.21c-.08,1.1-.21,2.18-.39,3.23s-.39,2-.63,3a20.84,20.84,0,0,1-.81,2.55,2.88,2.88,0,0,1-1.26.27c-.55,0-1.08,0-1.6,0a12.07,12.07,0,0,1-1.36-.12c-.39-.07-.58-.12-.58-.15L74,25.27A19.56,19.56,0,0,0,76,21a47.94,47.94,0,0,0,1.48-5.48q.6-2.93.92-5.86a50,50,0,0,0,.32-5.27h-.83a5.29,5.29,0,0,0-2.62.71A7.68,7.68,0,0,0,72.84,7.3l-.63-.39a15.65,15.65,0,0,1,.63-2.29A5.37,5.37,0,0,1,74,2.76a5.13,5.13,0,0,1,2-1.27,8.87,8.87,0,0,1,3.18-.41l2,0,3.35.09,4.11.1a32.56,32.56,0,0,0,4.18.05l2.59,0a10,10,0,0,0,1.75-.17A5,5,0,0,0,98.29.79a4.45,4.45,0,0,0,1-.68l.68.43a4.82,4.82,0,0,1-1.27,2.72,4.05,4.05,0,0,1-3.16,1.17h-.58V22.84Zm-22,62.35a1.58,1.58,0,0,0-.47,1l-.07.55H78l-.25,2.14H75.42l-.89,7.09A4,4,0,0,1,73.28,99a3.86,3.86,0,0,1-2.72,1,5.36,5.36,0,0,1-1.24-.13,2.62,2.62,0,0,1-.94-.4l.94-2a1.74,1.74,0,0,0,1.1.34,1.26,1.26,0,0,0,.91-.35,1.56,1.56,0,0,0,.42-1l.89-7H71.15l.27-2.14h1.49l.07-.58A4,4,0,0,1,74.23,84,4,4,0,0,1,77,83a4.73,4.73,0,0,1,1.19.15,2.61,2.61,0,0,1,1,.39l-1,2a1.94,1.94,0,0,0-1.09-.34A1.36,1.36,0,0,0,76.12,85.58ZM79.3,97.47a14.75,14.75,0,0,1-.27-2.8,18.69,18.69,0,0,1,1.07-6.24,16,16,0,0,1,3-5.26h2.78a19.78,19.78,0,0,0-3.09,5.59,18,18,0,0,0-1,6,16.13,16.13,0,0,0,.81,5H80A10.5,10.5,0,0,1,79.3,97.47Zm11.64-5.9,2.66,4.78H90.67l-1.56-2.93-2.76,2.93H83.19L88,91.45l-2.54-4.66h2.88l1.51,2.81,2.66-2.81h3.06Zm5.28,2.63a18.1,18.1,0,0,0,1-6,16.13,16.13,0,0,0-.81-5H99a10.4,10.4,0,0,1,.69,2.32A14.94,14.94,0,0,1,100,88.3a18.78,18.78,0,0,1-1.07,6.24,16,16,0,0,1-3,5.26H93.12A20,20,0,0,0,96.22,94.2Z"/></svg>