<?xml version="1.0" encoding="utf-8"?>
<!-- Generator: Adobe Illustrator 24.0.0, SVG Export Plug-In . SVG Version: 6.00 Build 0)  -->
<svg version="1.1" id="Layer_1" xmlns="http://www.w3.org/2000/svg" xmlns:xlink="http://www.w3.org/1999/xlink" x="0px" y="0px"
	 viewBox="0 0 100 100" style="enable-background:new 0 0 100 100;" xml:space="preserve">
<style type="text/css">
	.st0{fill:none;}
	.st1{fill:#FFFFFF;}
	.st2{fill:#FFFFFF;stroke:#FFFFFF;stroke-width:0.25;stroke-miterlimit:10;}
	.st3{fill:none;stroke:#000000;stroke-width:0.25;stroke-linecap:round;stroke-miterlimit:10;}
	.st4{fill:#D9D9D9;}
	.st5{fill:none;stroke:#000000;stroke-width:2;stroke-linejoin:round;stroke-miterlimit:10;}
	.st6{fill:none;stroke:#000000;stroke-width:0.4396;stroke-miterlimit:10;}
	.st7{fill:none;stroke:#000000;stroke-linecap:round;stroke-linejoin:round;}
	.st8{fill:none;stroke:#000000;stroke-linecap:round;stroke-linejoin:round;stroke-miterlimit:10;}
</style>
<path d="M99.86,50.5v-1H51.35V37.23c2.03-0.13,3.64-1.8,3.64-3.87c0-0.62-0.16-1.2-0.42-1.72L78.92,7.17
	c0.58-0.59,0.58-1.54-0.01-2.12c-0.58-0.58-1.54-0.58-2.12,0.01l-24.5,24.63c-0.3-0.1-0.61-0.16-0.94-0.18V0h-1v29.55
	c-1.79,0.35-3.15,1.92-3.15,3.82c0,0.43,0.09,0.83,0.21,1.22L35.74,46.33c-0.46-0.19-0.97-0.3-1.5-0.3c-0.52,0-1.02,0.11-1.47,0.29
	L2.77,16.48c-0.59-0.58-1.54-0.58-2.12,0.01c-0.58,0.59-0.58,1.54,0.01,2.12l29.98,29.82c-0.14,0.33-0.21,0.69-0.25,1.07H-0.19v1
	h30.6c0.05,0.33,0.13,0.64,0.25,0.94L19.84,62.31c-0.58,0.59-0.58,1.54,0.01,2.12c0.29,0.29,0.67,0.44,1.06,0.44
	c0.38,0,0.77-0.15,1.06-0.44l10.84-10.9c0.44,0.18,0.92,0.28,1.43,0.28c0.53,0,1.04-0.11,1.5-0.3l14.61,14.54V100h1V69.04l6.57,6.53
	c0.29,0.29,0.67,0.44,1.06,0.44c0.38,0,0.77-0.15,1.06-0.44c0.58-0.59,0.58-1.54-0.01-2.12l-8.68-8.64V50.5H99.86z M38.09,49.5
	c-0.04-0.36-0.11-0.71-0.24-1.03l11.55-11.61c0.3,0.15,0.62,0.27,0.96,0.33V49.5H38.09z M50.35,63.81L37.84,51.37
	c0.11-0.27,0.18-0.56,0.23-0.87h12.28V63.81z M25.15,98.07c0,1.06-0.88,1.93-1.93,1.93H1.95c-1.06,0-1.93-0.88-1.93-1.93v-23.2
	c0-1.06,0.88-1.93,1.93-1.93h21.26c1.06,0,1.93,0.88,1.93,1.93V98.07z M23.22,75.84c0-0.53-0.44-0.97-0.97-0.97H2.92
	c-0.53,0-0.97,0.44-0.97,0.97v3.87c0,0.53,0.44,0.97,0.97,0.97h19.33c0.53,0,0.97-0.44,0.97-0.97V75.84z M3.89,82.6
	c-1.07,0-1.93,0.86-1.93,1.93c0,1.07,0.86,1.93,1.93,1.93s1.93-0.86,1.93-1.93C5.82,83.46,4.96,82.6,3.89,82.6z M3.89,88.4
	c-1.07,0-1.93,0.86-1.93,1.93c0,1.07,0.86,1.93,1.93,1.93s1.93-0.86,1.93-1.93C5.82,89.26,4.96,88.4,3.89,88.4z M3.89,94.2
	c-1.07,0-1.93,0.86-1.93,1.93c0,1.07,0.86,1.93,1.93,1.93s1.93-0.86,1.93-1.93C5.82,95.06,4.96,94.2,3.89,94.2z M9.69,82.6
	c-1.07,0-1.93,0.86-1.93,1.93c0,1.07,0.86,1.93,1.93,1.93s1.93-0.86,1.93-1.93C11.62,83.46,10.76,82.6,9.69,82.6z M9.69,88.4
	c-1.07,0-1.93,0.86-1.93,1.93c0,1.07,0.86,1.93,1.93,1.93s1.93-0.86,1.93-1.93C11.62,89.26,10.76,88.4,9.69,88.4z M9.69,94.2
	c-1.07,0-1.93,0.86-1.93,1.93c0,1.07,0.86,1.93,1.93,1.93s1.93-0.86,1.93-1.93C11.62,95.06,10.76,94.2,9.69,94.2z M15.49,82.6
	c-1.07,0-1.93,0.86-1.93,1.93c0,1.07,0.86,1.93,1.93,1.93s1.93-0.86,1.93-1.93C17.42,83.46,16.56,82.6,15.49,82.6z M15.49,88.4
	c-1.07,0-1.93,0.86-1.93,1.93c0,1.07,0.86,1.93,1.93,1.93s1.93-0.86,1.93-1.93C17.42,89.26,16.56,88.4,15.49,88.4z M15.49,94.2
	c-1.07,0-1.93,0.86-1.93,1.93c0,1.07,0.86,1.93,1.93,1.93s1.93-0.86,1.93-1.93C17.42,95.06,16.56,94.2,15.49,94.2z M21.29,82.6
	c-1.07,0-1.93,0.86-1.93,1.93c0,1.07,0.86,1.93,1.93,1.93s1.93-0.86,1.93-1.93C23.22,83.46,22.36,82.6,21.29,82.6z M23.22,90.33
	c0-1.06-0.88-1.93-1.93-1.93s-1.93,0.88-1.93,1.93v5.8c0,1.06,0.88,1.93,1.93,1.93s1.93-0.88,1.93-1.93V90.33z M72.6,91.39
	l-4.78,1.7l4.78,1.7v1.88l-7.35-2.61v-1.95l7.35-2.61V91.39z M65.25,97.68h7.35v1.88h-7.35V97.68z M86.21,92.12v1.95l-7.35,2.61
	v-1.88l4.78-1.7l-4.78-1.7v-1.88L86.21,92.12z M78.87,97.68h7.35v1.88h-7.35V97.68z M97.64,93.18l-1,1.95h3.2v1.88h-4.18l-0.9,1.7
	h-1.96l0.89-1.7h-1.2v-1.88h2.19l1-1.95h-3.19V91.3h4.18l0.9-1.7h1.96l-0.9,1.7h1.2v1.88H97.64z M74.42,70.39
	c-0.26,0.23-0.41,0.58-0.47,1.04l-0.07,0.55h2.45l-0.25,2.13h-2.36l-0.89,7.09c-0.13,1.09-0.55,1.96-1.24,2.59
	c-0.7,0.64-1.61,0.96-2.72,0.96c-0.45,0-0.86-0.04-1.25-0.13c-0.38-0.09-0.69-0.22-0.94-0.4l0.94-2.01c0.3,0.23,0.66,0.34,1.1,0.34
	c0.37,0,0.67-0.12,0.91-0.35c0.24-0.23,0.38-0.58,0.43-1.04l0.89-7.05h-1.49l0.27-2.13h1.49l0.07-0.59
	c0.13-1.09,0.55-1.96,1.25-2.59c0.7-0.64,1.63-0.96,2.78-0.96c0.4,0,0.8,0.05,1.19,0.14c0.39,0.09,0.71,0.22,0.94,0.39l-0.96,2.01
	c-0.34-0.22-0.7-0.34-1.08-0.34C75.01,70.04,74.68,70.15,74.42,70.39z M77.61,82.28c-0.18-0.94-0.27-1.87-0.27-2.81
	c0-2.13,0.36-4.21,1.07-6.24c0.71-2.03,1.71-3.78,2.99-5.26h2.77c-1.36,1.76-2.39,3.63-3.09,5.6c-0.7,1.97-1.05,3.98-1.05,6.04
	c0,1.66,0.27,3.32,0.82,4.99H78.3C78.01,84,77.78,83.22,77.61,82.28z M89.24,76.38l2.67,4.78h-2.93l-1.56-2.93l-2.76,2.93h-3.16
	l4.78-4.9l-2.54-4.66h2.88l1.51,2.81l2.67-2.81h3.06L89.24,76.38z M94.52,79.01c0.7-1.97,1.05-3.98,1.05-6.04
	c0-1.66-0.27-3.32-0.82-4.99h2.54c0.28,0.62,0.51,1.39,0.69,2.33c0.18,0.94,0.27,1.87,0.27,2.81c0,2.13-0.36,4.21-1.07,6.24
	c-0.71,2.03-1.71,3.78-2.99,5.26h-2.77C92.79,82.85,93.82,80.98,94.52,79.01z"/>
</svg>
