<?xml version="1.0" encoding="utf-8"?>
<!-- Generator: Adobe Illustrator 24.0.0, SVG Export Plug-In . SVG Version: 6.00 Build 0)  -->
<svg version="1.1" id="Layer_1" xmlns="http://www.w3.org/2000/svg" xmlns:xlink="http://www.w3.org/1999/xlink" x="0px" y="0px"
	 viewBox="0 0 100 100" style="enable-background:new 0 0 100 100;" xml:space="preserve">
<style type="text/css">
	.st0{fill:none;}
	.st1{fill:#FFFFFF;}
	.st2{fill:#FFFFFF;stroke:#FFFFFF;stroke-width:0.25;stroke-miterlimit:10;}
	.st3{fill:none;stroke:#000000;stroke-width:0.25;stroke-linecap:round;stroke-miterlimit:10;}
	.st4{fill:#D9D9D9;}
	.st5{fill:none;stroke:#000000;stroke-width:2;stroke-linejoin:round;stroke-miterlimit:10;}
	.st6{fill:none;stroke:#000000;stroke-width:0.4396;stroke-miterlimit:10;}
	.st7{fill:none;stroke:#000000;stroke-linecap:round;stroke-linejoin:round;}
	.st8{fill:none;stroke:#000000;stroke-linecap:round;stroke-linejoin:round;stroke-miterlimit:10;}
</style>
<g>
	<path d="M7.69,81.22c0.22,0,0.44-0.05,0.66-0.15l52.72-25.69c0.41,0.31,0.92,0.51,1.48,0.51c1.35,0,2.44-1.09,2.46-2.43L94.26,39.2
		c0.74-0.36,1.05-1.26,0.69-2.01c-0.36-0.75-1.26-1.05-2.01-0.69L63.13,51.03c-0.19-0.05-0.38-0.08-0.59-0.08
		c-1,0-1.86,0.6-2.25,1.46l-9.8,4.78c0.1-0.27,0.15-0.55,0.15-0.84c0-0.66-0.26-1.28-0.72-1.74c-0.96-0.96-2.53-0.96-3.48,0
		c-0.47,0.47-0.72,1.08-0.72,1.74c0,0.66,0.26,1.28,0.72,1.74c0.28,0.28,0.62,0.47,0.98,0.59L7.03,78.37
		c-0.74,0.36-1.05,1.26-0.69,2.01C6.6,80.91,7.13,81.22,7.69,81.22z"/>
	<path d="M13,70.56c1.36,0,2.47-1.11,2.47-2.47s-1.11-2.46-2.47-2.46s-2.46,1.11-2.46,2.46S11.64,70.56,13,70.56z"/>
	<path d="M28.91,75.47c0,1.36,1.11,2.47,2.46,2.47s2.47-1.11,2.47-2.47s-1.11-2.46-2.47-2.46S28.91,74.12,28.91,75.47z"/>
	<path d="M52.75,74.96c-0.58,1.23-0.04,2.7,1.19,3.28c0.34,0.16,0.69,0.23,1.04,0.23c0.93,0,1.82-0.53,2.24-1.42
		c0.58-1.23,0.04-2.7-1.19-3.28v0C54.8,73.2,53.33,73.73,52.75,74.96z"/>
	<path d="M41.73,69.21c0,1.36,1.11,2.47,2.47,2.47c1.36,0,2.46-1.11,2.46-2.47s-1.11-2.46-2.46-2.46
		C42.83,66.75,41.73,67.86,41.73,69.21z"/>
	<path d="M48.22,45.22c0.3,0.12,0.61,0.18,0.92,0.18c0.33,0,0.65-0.07,0.96-0.2c0.61-0.26,1.08-0.74,1.32-1.35
		c0.25-0.61,0.24-1.28-0.02-1.89c-0.26-0.61-0.74-1.08-1.35-1.32c-1.26-0.51-2.7,0.11-3.21,1.37c-0.25,0.61-0.24,1.28,0.02,1.89
		C47.13,44.5,47.61,44.97,48.22,45.22z"/>
	<path d="M30.65,36.89c0.3,0.12,0.61,0.18,0.92,0.18c0.33,0,0.65-0.07,0.96-0.2c0.61-0.26,1.08-0.74,1.32-1.35
		c0.25-0.61,0.24-1.28-0.02-1.89c-0.26-0.61-0.74-1.08-1.35-1.32c-0.61-0.25-1.28-0.24-1.89,0.02c-0.61,0.26-1.08,0.74-1.32,1.35
		C28.78,34.94,29.39,36.38,30.65,36.89z"/>
	<path d="M60.59,30.13c0.3,0.12,0.61,0.18,0.92,0.18c0.33,0,0.65-0.07,0.96-0.2c0.61-0.26,1.08-0.74,1.32-1.35v0
		c0.51-1.26-0.11-2.7-1.37-3.21c-1.26-0.51-2.7,0.11-3.21,1.37c-0.25,0.61-0.24,1.28,0.02,1.89C59.5,29.42,59.98,29.89,60.59,30.13z
		"/>
	<path d="M74.48,39.16c0.3,0.12,0.61,0.18,0.92,0.18c0.33,0,0.66-0.07,0.97-0.2c0.61-0.26,1.08-0.74,1.32-1.35
		c0.25-0.61,0.24-1.28-0.02-1.89c-0.26-0.61-0.74-1.08-1.35-1.32c-1.26-0.51-2.7,0.1-3.21,1.36c-0.25,0.61-0.24,1.28,0.02,1.89
		C73.39,38.44,73.87,38.91,74.48,39.16z"/>
	<path d="M37.86,24.65c0.3,0.12,0.61,0.18,0.92,0.18c0.98,0,1.9-0.58,2.29-1.54v0c0.51-1.26-0.11-2.7-1.37-3.21
		c-0.61-0.25-1.28-0.24-1.89,0.02c-0.61,0.26-1.08,0.74-1.32,1.35c-0.25,0.61-0.24,1.28,0.02,1.89
		C36.77,23.94,37.24,24.41,37.86,24.65z"/>
	<path d="M61.08,46.35c0.63,0,1.26-0.24,1.74-0.72c0.96-0.96,0.96-2.53,0-3.49s-2.53-0.96-3.49,0s-0.96,2.53,0,3.49
		C59.82,46.11,60.45,46.35,61.08,46.35z"/>
	<path d="M75.71,54.42c0.63,0,1.26-0.24,1.74-0.72c0.96-0.96,0.96-2.53,0-3.49s-2.53-0.96-3.49,0s-0.96,2.53,0,3.49
		C74.44,54.18,75.07,54.42,75.71,54.42z"/>
	<path d="M81.1,27.84c0.63,0,1.26-0.24,1.74-0.72c0.96-0.96,0.96-2.53,0-3.49s-2.53-0.96-3.49,0s-0.96,2.53,0,3.49
		C79.84,27.6,80.47,27.84,81.1,27.84z"/>
	<path d="M82.26,87c0.26,0.09,0.53,0.13,0.79,0.13c0.37,0,0.75-0.09,1.09-0.26c0.59-0.29,1.03-0.8,1.24-1.42
		c0.43-1.29-0.26-2.69-1.55-3.12l0,0c-1.28-0.43-2.69,0.26-3.12,1.55c-0.21,0.62-0.17,1.29,0.13,1.88
		C81.13,86.35,81.64,86.79,82.26,87z"/>
	<path d="M62.55,61.81c-1.36,0-2.47,1.11-2.47,2.46c0,1.36,1.11,2.47,2.47,2.47s2.46-1.11,2.46-2.47
		C65.01,62.91,63.91,61.81,62.55,61.81z"/>
	<path d="M36.9,53.32c1.36,0,2.47-1.11,2.47-2.46s-1.11-2.47-2.47-2.47s-2.46,1.11-2.46,2.47S35.54,53.32,36.9,53.32z"/>
	<path d="M24.3,80.29c-0.5,0.43-0.79,1.03-0.83,1.69c-0.04,0.66,0.17,1.29,0.61,1.79c0.43,0.5,1.03,0.79,1.69,0.83
		c0.06,0,0.11,0.01,0.17,0.01c0.6,0,1.17-0.21,1.62-0.61c0.5-0.43,0.79-1.03,0.84-1.69s-0.17-1.29-0.6-1.79
		C26.88,79.49,25.32,79.39,24.3,80.29z"/>
	<path d="M90.63,44.92c-1.02,0.9-1.12,2.46-0.23,3.48c0.43,0.5,1.03,0.79,1.69,0.83c0.06,0,0.11,0.01,0.17,0.01
		c0.6,0,1.17-0.21,1.62-0.61c0.5-0.43,0.79-1.04,0.84-1.69s-0.17-1.29-0.6-1.79C93.22,44.13,91.65,44.02,90.63,44.92z"/>
	<path d="M14.65,82.81c-1.02,0.9-1.13,2.46-0.23,3.48c0.49,0.56,1.17,0.84,1.86,0.84c0.58,0,1.16-0.2,1.62-0.61
		c0.5-0.43,0.79-1.03,0.83-1.69c0.04-0.66-0.17-1.29-0.6-1.79c-0.43-0.5-1.04-0.79-1.69-0.84C15.79,82.17,15.14,82.38,14.65,82.81z"
		/>
	<path d="M82.57,62.85c0.09,0,0.19-0.01,0.28-0.02c0.65-0.07,1.24-0.4,1.65-0.92s0.59-1.16,0.52-1.81
		c-0.15-1.35-1.38-2.33-2.73-2.17c-1.35,0.15-2.32,1.38-2.17,2.73C80.26,61.92,81.33,62.85,82.57,62.85z"/>
	<path d="M25.92,60.15c1.36,0,2.46-1.11,2.46-2.46s-1.11-2.47-2.46-2.47s-2.47,1.11-2.47,2.47S24.56,60.15,25.92,60.15z"/>
	<path d="M71.88,64.12c-0.64-0.16-1.3-0.07-1.87,0.27s-0.97,0.87-1.13,1.51c-0.33,1.32,0.46,2.66,1.78,3
		c0.2,0.05,0.41,0.08,0.61,0.08c1.1,0,2.11-0.74,2.39-1.86c0.16-0.64,0.07-1.3-0.27-1.87C73.05,64.68,72.51,64.28,71.88,64.12z"/>
	<path d="M98.45,97H3V1.52c0-0.83-0.67-1.5-1.5-1.5S0,0.69,0,1.52v96.95c0,0.01,0,0.01,0,0.02c0,0,0,0.01,0,0.01
		c0,0.83,0.67,1.5,1.5,1.5h96.95c0.83,0,1.5-0.67,1.5-1.5C99.95,97.67,99.28,97,98.45,97z"/>
</g>
</svg>
