<svg id="Layer_1" data-name="Layer 1" xmlns="http://www.w3.org/2000/svg" viewBox="0 0 100 100"><defs><style>.cls-1{fill:#231f20;}</style></defs><title> </title><path class="cls-1" d="M99.86,50.5v-1H51.35V37.23A3.88,3.88,0,0,0,55,33.37a3.83,3.83,0,0,0-.42-1.72L78.92,7.17A1.5,1.5,0,1,0,76.8,5.05L52.29,29.69a4.13,4.13,0,0,0-.94-.19V0h-1V29.55a3.9,3.9,0,0,0-3.14,3.82,3.7,3.7,0,0,0,.21,1.21L35.74,46.33a3.77,3.77,0,0,0-3,0l-30-29.84A1.5,1.5,0,1,0,.66,18.61l30,29.82a3.88,3.88,0,0,0-.25,1.07H-.19v1h30.6a3.35,3.35,0,0,0,.25.94L19.84,62.31a1.5,1.5,0,0,0,0,2.12,1.51,1.51,0,0,0,2.13,0l10.84-10.9a4,4,0,0,0,1.43.28,3.76,3.76,0,0,0,1.5-.31L50.35,68v32h1V69l6.57,6.53a1.51,1.51,0,0,0,2.12,0,1.5,1.5,0,0,0,0-2.12L51.35,64.8V50.5Zm-61.77-1a3.88,3.88,0,0,0-.25-1L49.39,36.85a3.64,3.64,0,0,0,1,.33V49.5ZM50.35,63.81,37.84,51.37a4.29,4.29,0,0,0,.23-.87H50.35ZM25.15,98.07A1.94,1.94,0,0,1,23.22,100H2A2,2,0,0,1,0,98.07V74.87A1.94,1.94,0,0,1,2,72.94H23.22a1.94,1.94,0,0,1,1.93,1.93ZM23.22,75.84a1,1,0,0,0-1-1H2.92a1,1,0,0,0-1,1V79.7a1,1,0,0,0,1,1H22.25a1,1,0,0,0,1-1ZM3.89,82.6a1.94,1.94,0,1,0,1.93,1.93A1.93,1.93,0,0,0,3.89,82.6Zm0,5.8a1.94,1.94,0,1,0,1.93,1.93A1.93,1.93,0,0,0,3.89,88.4Zm0,5.8a1.94,1.94,0,1,0,1.93,1.93A1.93,1.93,0,0,0,3.89,94.2Zm5.8-11.6a1.94,1.94,0,1,0,1.93,1.93A1.93,1.93,0,0,0,9.69,82.6Zm0,5.8a1.94,1.94,0,1,0,1.93,1.93A1.93,1.93,0,0,0,9.69,88.4Zm0,5.8a1.94,1.94,0,1,0,1.93,1.93A1.93,1.93,0,0,0,9.69,94.2Zm5.8-11.6a1.94,1.94,0,1,0,1.93,1.93A1.93,1.93,0,0,0,15.49,82.6Zm0,5.8a1.94,1.94,0,1,0,1.93,1.93A1.93,1.93,0,0,0,15.49,88.4Zm0,5.8a1.94,1.94,0,1,0,1.93,1.93A1.93,1.93,0,0,0,15.49,94.2Zm5.8-11.6a1.94,1.94,0,1,0,1.93,1.93A1.93,1.93,0,0,0,21.29,82.6Zm1.93,7.73a1.94,1.94,0,0,0-3.87,0v5.8a1.94,1.94,0,1,0,3.87,0ZM72.6,91.39l-4.79,1.7,4.79,1.7v1.88l-7.35-2.61V92.12l7.35-2.61Zm-7.35,6.29H72.6v1.88H65.25Zm21-5.56v1.94l-7.34,2.61V94.79l4.78-1.7-4.78-1.7V89.51Zm-7.34,5.56h7.34v1.88H78.87Zm18.77-4.5-1,1.95h3.2V97H95.64l-.89,1.7h-2l.89-1.7h-1.2V95.13h2.19l1-1.95H92.48V91.3h4.18l.9-1.7h2l-.9,1.7h1.21v1.88ZM74.42,70.39a1.63,1.63,0,0,0-.47,1l-.07.56h2.45l-.25,2.13H73.72l-.89,7.09a4,4,0,0,1-1.24,2.59,3.88,3.88,0,0,1-2.72,1,5.45,5.45,0,0,1-1.25-.13,2.7,2.7,0,0,1-.94-.4l.94-2a1.77,1.77,0,0,0,1.11.34,1.2,1.2,0,0,0,.9-.35,1.61,1.61,0,0,0,.43-1l.89-7H69.46L69.72,72h1.5l.07-.59a3.8,3.8,0,0,1,4-3.56,4.79,4.79,0,0,1,1.19.15,2.56,2.56,0,0,1,.94.39l-1,2A1.89,1.89,0,0,0,75.41,70,1.4,1.4,0,0,0,74.42,70.39ZM77.6,82.28a15.6,15.6,0,0,1-.26-2.8,18.68,18.68,0,0,1,1.06-6.24,16,16,0,0,1,3-5.26h2.77a20.2,20.2,0,0,0-3.09,5.6,17.86,17.86,0,0,0-1,6,15.85,15.85,0,0,0,.82,5H78.3A9.81,9.81,0,0,1,77.6,82.28Zm11.64-5.9,2.67,4.78H89l-1.56-2.93-2.75,2.93H81.49l4.78-4.9L83.73,71.6h2.88l1.51,2.81,2.67-2.81h3ZM94.52,79a17.86,17.86,0,0,0,1-6,15.85,15.85,0,0,0-.82-5h2.54a9.81,9.81,0,0,1,.7,2.33,15.6,15.6,0,0,1,.26,2.8,18.68,18.68,0,0,1-1.06,6.24,16,16,0,0,1-3,5.26H91.43A20.2,20.2,0,0,0,94.52,79Z"/></svg>