<svg id="Layer_1" data-name="Layer 1" xmlns="http://www.w3.org/2000/svg" viewBox="0 0 100 100"><defs><style>.cls-1{fill:#231f20;}</style></defs><title> </title><rect class="cls-1" x="66.22" y="81.82" width="11.03" height="2.83"/><rect class="cls-1" x="66.22" y="76.07" width="11.03" height="2.83"/><path class="cls-1" d="M45.71,62.78l2.6,1.68a3.47,3.47,0,0,1,1.37-1.16,4.17,4.17,0,0,1,1.83-.39,2.92,2.92,0,0,1,1.84.5A1.71,1.71,0,0,1,54,64.83a2.81,2.81,0,0,1-.33,1.29,6.21,6.21,0,0,1-1.28,1.56l-6,5.62v2.32H58.08V72.71H51.44L55,69.36a9.25,9.25,0,0,0,2.06-2.52,5.4,5.4,0,0,0,.53-2.36,4.06,4.06,0,0,0-.72-2.41,4.59,4.59,0,0,0-2-1.59,7.38,7.38,0,0,0-3-.57,8.29,8.29,0,0,0-3.64.77A6,6,0,0,0,45.71,62.78Z"/><path class="cls-1" d="M53.75,90.58l3.48-4V84.29H46.43v2.87H53l-3.18,3.6v2.36h1.63c1.93,0,2.9.63,2.9,1.89a1.65,1.65,0,0,1-.78,1.47,3.71,3.71,0,0,1-2.12.52,8,8,0,0,1-2.37-.36,7,7,0,0,1-2-1l-1.39,2.74a8.38,8.38,0,0,0,2.68,1.22,12,12,0,0,0,3.21.43,8.31,8.31,0,0,0,3.54-.68,5,5,0,0,0,2.15-1.82A4.56,4.56,0,0,0,57.94,95a4.17,4.17,0,0,0-1.08-2.92A5.24,5.24,0,0,0,53.75,90.58Z"/><path class="cls-1" d="M92.67,72.37a3.82,3.82,0,0,1-2.12.52,7.93,7.93,0,0,1-2.37-.37,6.51,6.51,0,0,1-2-1l-1.39,2.73a8.08,8.08,0,0,0,2.68,1.22,12,12,0,0,0,3.21.43,8.22,8.22,0,0,0,3.54-.68,4.88,4.88,0,0,0,2.15-1.82A4.61,4.61,0,0,0,97,70.9,4.15,4.15,0,0,0,96,68a5.15,5.15,0,0,0-3.11-1.51l3.49-4V60.18H85.52v2.87h6.57l-3.17,3.59V69h1.63c1.92,0,2.89.63,2.89,1.9A1.69,1.69,0,0,1,92.67,72.37Z"/><polygon class="cls-1" points="96.17 90.69 92.8 90.69 92.8 93.58 88.65 93.58 95.4 84.29 91.65 84.29 84.37 94.09 84.37 96.49 92.69 96.49 92.69 99.74 96.17 99.74 96.17 96.49 98.69 96.49 98.69 93.58 96.17 93.58 96.17 90.69"/><rect class="cls-1" x="43.48" y="79.7" width="17.43" height="1.25"/><rect class="cls-1" x="82.57" y="79.7" width="17.43" height="1.25"/><polygon class="cls-1" points="0.03 19.38 6.5 19.38 6.5 14.25 16.93 14.25 5.65 39.78 13.56 39.78 25.24 13.04 25.24 8.32 0.03 8.32 0.03 19.38"/><path class="cls-1" d="M8.62,76.56a3.08,3.08,0,0,1,1.5-.35,2.36,2.36,0,0,1,1.42.38,1.25,1.25,0,0,1,.53,1,1.39,1.39,0,0,1-.28.84,7.59,7.59,0,0,1-.87.91,8.57,8.57,0,0,0-1.24,1.35,2.64,2.64,0,0,0-.42,1.54H12a1.61,1.61,0,0,1,.3-1,7.85,7.85,0,0,1,1-1c.37-.34.68-.64.91-.89a3.33,3.33,0,0,0,.59-1A3.06,3.06,0,0,0,15,77.18a2.84,2.84,0,0,0-1.25-2.45,5.65,5.65,0,0,0-3.32-.88,6.89,6.89,0,0,0-3,.63,5.11,5.11,0,0,0-2,1.78l2.18,1.28A3.21,3.21,0,0,1,8.62,76.56Z"/><path class="cls-1" d="M10.63,83.56A1.7,1.7,0,0,0,9.39,84a1.47,1.47,0,0,0-.49,1.14,1.55,1.55,0,0,0,.5,1.16,1.82,1.82,0,0,0,2.46,0,1.54,1.54,0,0,0,.49-1.16A1.5,1.5,0,0,0,11.87,84,1.71,1.71,0,0,0,10.63,83.56Z"/><path class="cls-1" d="M18.56,70.15H1.78A1.79,1.79,0,0,0,0,71.94V88.71a1.78,1.78,0,0,0,1.78,1.78H18.56a1.78,1.78,0,0,0,1.78-1.78V71.94A1.79,1.79,0,0,0,18.56,70.15Zm-.55,18H2.33V72.48H18Z"/><rect class="cls-1" x="25.87" y="78.9" width="11.11" height="2.85"/><path class="cls-1" d="M30.05,74.07a1.81,1.81,0,0,0-.56,1.38,1.94,1.94,0,1,0,3.87,0,1.81,1.81,0,0,0-.56-1.38,2,2,0,0,0-2.75,0Z"/><path class="cls-1" d="M31.42,83.24a1.89,1.89,0,0,0-1.37.54,1.81,1.81,0,0,0-.56,1.38,1.9,1.9,0,0,0,.56,1.4,2,2,0,0,0,2.75,0,1.9,1.9,0,0,0,.56-1.4,1.81,1.81,0,0,0-.56-1.38A1.9,1.9,0,0,0,31.42,83.24Z"/><path class="cls-1" d="M91.85,14.37a4.42,4.42,0,0,1-2.5.61,9.11,9.11,0,0,1-2.78-.43,7.72,7.72,0,0,1-2.4-1.2l-1.64,3.21A9.69,9.69,0,0,0,85.69,18a14.1,14.1,0,0,0,3.77.51,9.61,9.61,0,0,0,4.16-.81,5.75,5.75,0,0,0,2.53-2.14A5.44,5.44,0,0,0,97,12.65a4.88,4.88,0,0,0-1.27-3.44,6.16,6.16,0,0,0-3.66-1.78l4.1-4.67V0H83.44V3.41h7.73L87.44,7.64v2.77h1.91c2.27,0,3.4.75,3.4,2.24A2,2,0,0,1,91.85,14.37Z"/><polygon class="cls-1" points="89.9 28.39 81.34 39.91 81.34 42.73 91.12 42.73 91.12 46.55 95.22 46.55 95.22 42.73 98.17 42.73 98.17 39.31 95.22 39.31 95.22 35.91 91.25 35.91 91.25 39.31 86.37 39.31 94.31 28.39 89.9 28.39"/><polygon class="cls-1" points="35.84 18.2 40.05 18.2 40.05 0.04 32.21 0.04 32.21 3.42 35.84 3.42 35.84 18.2"/><path class="cls-1" d="M45.56,43.12h-7.8l4.17-3.94a10.55,10.55,0,0,0,2.41-3A6.29,6.29,0,0,0,45,33.45a4.83,4.83,0,0,0-.84-2.84,5.54,5.54,0,0,0-2.36-1.87,8.89,8.89,0,0,0-3.55-.66A9.71,9.71,0,0,0,34,29,7.06,7.06,0,0,0,31,31.45l3.06,2a4.18,4.18,0,0,1,1.6-1.36,5,5,0,0,1,2.16-.45,3.41,3.41,0,0,1,2.16.58,2,2,0,0,1,.74,1.67,3.3,3.3,0,0,1-.39,1.52,7.52,7.52,0,0,1-1.5,1.83l-7,6.61v2.73H45.56Z"/><rect class="cls-1" x="79.51" y="23.31" width="20.49" height="1.47"/><rect class="cls-1" x="28.05" y="23.31" width="20.49" height="1.47"/><path class="cls-1" d="M67.25,29.73a2.14,2.14,0,0,0-.66-1.62,2.4,2.4,0,0,0-3.24,0,2.17,2.17,0,0,0-.65,1.62,2.27,2.27,0,0,0,.65,1.65,2.32,2.32,0,0,0,3.24,0A2.24,2.24,0,0,0,67.25,29.73Z"/><path class="cls-1" d="M65,20.62A2.2,2.2,0,0,0,66.59,20a2.23,2.23,0,0,0,.66-1.64,2.14,2.14,0,0,0-.66-1.62,2.4,2.4,0,0,0-3.24,0,2.17,2.17,0,0,0-.65,1.62A2.26,2.26,0,0,0,63.35,20,2.2,2.2,0,0,0,65,20.62Z"/><rect class="cls-1" x="58.44" y="22.38" width="13.06" height="3.35"/></svg>