<svg id="Layer_1" data-name="Layer 1" xmlns="http://www.w3.org/2000/svg" viewBox="0 0 100 100"><defs><style>.cls-1{fill:#231f20;}</style></defs><title> </title><rect class="cls-1" x="71.3" y="15.22" width="8.83" height="2.26"/><rect class="cls-1" x="71.3" y="19.82" width="8.83" height="2.26"/><polygon class="cls-1" points="28.48 14.42 26.12 14.42 26.12 17.53 22.95 17.53 22.95 19.77 26.12 19.77 26.12 22.89 28.48 22.89 28.48 19.77 31.67 19.77 31.67 17.53 28.48 17.53 28.48 14.42"/><polygon class="cls-1" points="52.55 59.78 46.45 59.78 46.45 67.81 38.28 67.81 38.28 73.58 46.45 73.58 46.45 81.61 52.55 81.61 52.55 73.58 60.77 73.58 60.77 67.81 52.55 67.81 52.55 59.78"/><path class="cls-1" d="M7.55,2.82A3.56,3.56,0,0,1,9.07,2.5a2.41,2.41,0,0,1,1.53.41,1.4,1.4,0,0,1,.52,1.18,2.36,2.36,0,0,1-.27,1.07,5.47,5.47,0,0,1-1.06,1.3L4.84,11.13v1.92h9.69V10.63H9l3-2.78a7.5,7.5,0,0,0,1.7-2.09,4.53,4.53,0,0,0,.44-2,3.48,3.48,0,0,0-.59-2A3.88,3.88,0,0,0,11.85.47,6.26,6.26,0,0,0,9.35,0a7,7,0,0,0-3,.64A5,5,0,0,0,4.25,2.39L6.41,3.78A2.91,2.91,0,0,1,7.55,2.82Z"/><polygon class="cls-1" points="2.57 36.14 5.54 36.14 5.54 23.32 0.01 23.32 0.01 25.7 2.57 25.7 2.57 36.14"/><path class="cls-1" d="M16.12,23.88a5.25,5.25,0,0,0-2.84-.79,5.23,5.23,0,0,0-2.84.79,5.43,5.43,0,0,0-2,2.28,8.33,8.33,0,0,0-.7,3.57,8.25,8.25,0,0,0,.7,3.56,5.31,5.31,0,0,0,2,2.28,5.14,5.14,0,0,0,2.84.79,5.17,5.17,0,0,0,2.84-.79,5.23,5.23,0,0,0,1.95-2.28,8.25,8.25,0,0,0,.7-3.56,8.33,8.33,0,0,0-.7-3.57A5.34,5.34,0,0,0,16.12,23.88Zm-1,9a2.17,2.17,0,0,1-3.67,0,5.77,5.77,0,0,1-.67-3.11,5.78,5.78,0,0,1,.67-3.12,2.18,2.18,0,0,1,3.67,0,5.69,5.69,0,0,1,.67,3.12A5.68,5.68,0,0,1,15.12,32.84Z"/><path class="cls-1" d="M46.14,10.56a3.23,3.23,0,0,1-1.78.43,6.76,6.76,0,0,1-2-.3,5.48,5.48,0,0,1-1.71-.85L39.49,12.1a7.28,7.28,0,0,0,2.25,1,10.7,10.7,0,0,0,2.7.35,7.12,7.12,0,0,0,3-.56,4.2,4.2,0,0,0,1.81-1.5,3.82,3.82,0,0,0,.59-2.05,3.38,3.38,0,0,0-.91-2.41A4.34,4.34,0,0,0,46.29,5.7l2.93-3.28V.52H40.14V2.88h5.52L43,5.84v2h1.37q2.43,0,2.43,1.56A1.36,1.36,0,0,1,46.14,10.56Z"/><path class="cls-1" d="M53.89,12.68a5.67,5.67,0,0,0,5.74,0,5.23,5.23,0,0,0,2-2.27,8,8,0,0,0,.72-3.53,8,8,0,0,0-.72-3.54,5.2,5.2,0,0,0-2-2.26,5.67,5.67,0,0,0-5.74,0,5.29,5.29,0,0,0-2,2.26,8.19,8.19,0,0,0-.71,3.54,8.11,8.11,0,0,0,.71,3.53A5.32,5.32,0,0,0,53.89,12.68Zm1-8.89a2.1,2.1,0,0,1,1.84-1,2.12,2.12,0,0,1,1.86,1,5.57,5.57,0,0,1,.68,3.09A5.62,5.62,0,0,1,58.62,10a2.14,2.14,0,0,1-1.86,1,2.12,2.12,0,0,1-1.84-1,5.53,5.53,0,0,1-.68-3.09A5.48,5.48,0,0,1,54.92,3.79Z"/><polygon class="cls-1" points="40.73 36.14 40.73 23.42 35.13 23.42 35.13 25.78 37.72 25.78 37.72 36.14 40.73 36.14"/><path class="cls-1" d="M51.41,24a5.67,5.67,0,0,0-5.74,0,5.23,5.23,0,0,0-2,2.27A8,8,0,0,0,43,29.78a8,8,0,0,0,.71,3.54,5.2,5.2,0,0,0,2,2.26,5.67,5.67,0,0,0,5.74,0,5.29,5.29,0,0,0,2-2.26,8.19,8.19,0,0,0,.71-3.54,8.11,8.11,0,0,0-.71-3.53A5.32,5.32,0,0,0,51.41,24Zm-1,8.89a2.15,2.15,0,0,1-1.87,1,2.11,2.11,0,0,1-1.84-1A5.62,5.62,0,0,1,46,29.78a5.62,5.62,0,0,1,.68-3.09,2.13,2.13,0,0,1,1.84-1,2.17,2.17,0,0,1,1.87,1,5.62,5.62,0,0,1,.67,3.09A5.62,5.62,0,0,1,50.41,32.87Z"/><path class="cls-1" d="M64,24a5.67,5.67,0,0,0-5.74,0,5.23,5.23,0,0,0-2,2.27,8,8,0,0,0-.72,3.53,8,8,0,0,0,.72,3.54,5.2,5.2,0,0,0,2,2.26,5.67,5.67,0,0,0,5.74,0,5.29,5.29,0,0,0,2-2.26,8.19,8.19,0,0,0,.71-3.54A8.11,8.11,0,0,0,66,26.25,5.32,5.32,0,0,0,64,24Zm-1,8.89a2.21,2.21,0,0,1-3.7,0,5.62,5.62,0,0,1-.68-3.09,5.62,5.62,0,0,1,.68-3.09,2.21,2.21,0,0,1,3.7,0,5.53,5.53,0,0,1,.68,3.09A5.53,5.53,0,0,1,63,32.87Z"/><rect class="cls-1" x="0.21" y="17.84" width="18.37" height="1.62"/><polygon class="cls-1" points="87.5 62.82 87.5 40.93 78.06 40.93 78.06 45 82.43 45 82.43 62.82 87.5 62.82"/><path class="cls-1" d="M90.59,95.87l5-4.75a13,13,0,0,0,2.91-3.57,7.64,7.64,0,0,0,.75-3.35,5.81,5.81,0,0,0-1-3.42,6.5,6.5,0,0,0-2.84-2.25,10.66,10.66,0,0,0-4.27-.8A11.79,11.79,0,0,0,86,78.81a8.67,8.67,0,0,0-3.54,3l3.69,2.37a5.08,5.08,0,0,1,1.94-1.64,6.08,6.08,0,0,1,2.6-.55,4.14,4.14,0,0,1,2.61.71,2.4,2.4,0,0,1,.89,2,4,4,0,0,1-.47,1.84,9.21,9.21,0,0,1-1.81,2.2l-8.44,8V100H100V95.87Z"/><polygon class="cls-1" points="70.13 82.17 74.51 82.17 74.51 100 79.57 100 79.57 78.11 70.13 78.11 70.13 82.17"/><rect class="cls-1" x="71.24" y="69.12" width="27.65" height="2.76"/><rect class="cls-1" x="36.05" y="17.85" width="29.72" height="1.61"/><path class="cls-1" d="M26.13,69.14Q22.37,66,14.42,66H11.36L12,58.85H27.61v-7H4.72L2.79,73h9.59q4.83,0,6.78,1.23a4,4,0,0,1,2,3.65,4.1,4.1,0,0,1-1.88,3.59,8.94,8.94,0,0,1-5.14,1.29,18.86,18.86,0,0,1-5.74-.89,16.45,16.45,0,0,1-4.93-2.49L0,86a20.36,20.36,0,0,0,6.51,3,29.44,29.44,0,0,0,7.8,1A20,20,0,0,0,23,88.36a12,12,0,0,0,5.23-4.51,11.75,11.75,0,0,0,1.71-6.24A10.48,10.48,0,0,0,26.13,69.14Z"/><path class="cls-1" d="M95.1,14.5a4.18,4.18,0,0,0-2.47-.66,5.12,5.12,0,0,0-2.26.47,3.75,3.75,0,0,0-1.52,1.32l1.62.95a2.49,2.49,0,0,1,.82-.73,2.4,2.4,0,0,1,1.12-.26,1.79,1.79,0,0,1,1,.29.91.91,0,0,1,.39.78,1,1,0,0,1-.21.62A6,6,0,0,1,93,18a5.74,5.74,0,0,0-.92,1,2,2,0,0,0-.31,1.15h2a1.18,1.18,0,0,1,.23-.73,5.27,5.27,0,0,1,.72-.74c.28-.25.5-.47.68-.66a2.7,2.7,0,0,0,.44-.7,2.43,2.43,0,0,0,.18-1A2.09,2.09,0,0,0,95.1,14.5Z"/><path class="cls-1" d="M92.78,21.06a1.28,1.28,0,0,0-.92.34,1.18,1.18,0,0,0,0,1.71,1.28,1.28,0,0,0,.91.35,1.3,1.3,0,0,0,.92-.35,1.16,1.16,0,0,0,.36-.86,1.13,1.13,0,0,0-.36-.85A1.26,1.26,0,0,0,92.78,21.06Z"/><path class="cls-1" d="M86.21,26.21H98.68A1.33,1.33,0,0,0,100,24.89V12.42a1.33,1.33,0,0,0-1.32-1.33H86.21a1.34,1.34,0,0,0-1.33,1.33V24.89A1.33,1.33,0,0,0,86.21,26.21Zm.4-13.38H98.27V24.48H86.61Z"/></svg>