<?xml version="1.0" encoding="utf-8"?>
<!-- Generator: Adobe Illustrator 24.0.0, SVG Export Plug-In . SVG Version: 6.00 Build 0)  -->
<svg version="1.1" id="Layer_1" xmlns="http://www.w3.org/2000/svg" xmlns:xlink="http://www.w3.org/1999/xlink" x="0px" y="0px"
	 viewBox="0 0 100 100" style="enable-background:new 0 0 100 100;" xml:space="preserve">
<style type="text/css">
	.st0{fill:none;}
	.st1{fill:#FFFFFF;}
	.st2{fill:#FFFFFF;stroke:#FFFFFF;stroke-width:0.25;stroke-miterlimit:10;}
	.st3{fill:none;stroke:#000000;stroke-width:0.25;stroke-linecap:round;stroke-miterlimit:10;}
	.st4{fill:#D9D9D9;}
	.st5{fill:none;stroke:#000000;stroke-width:2;stroke-linejoin:round;stroke-miterlimit:10;}
	.st6{fill:none;stroke:#000000;stroke-width:0.4396;stroke-miterlimit:10;}
	.st7{fill:none;stroke:#000000;stroke-linecap:round;stroke-linejoin:round;}
	.st8{fill:none;stroke:#000000;stroke-linecap:round;stroke-linejoin:round;stroke-miterlimit:10;}
</style>
<g>
	<path d="M6.87,93.77c0.43,0.39,0.65,0.94,0.65,1.65c0,0.27-0.03,0.53-0.09,0.79L6.7,99.85H4.8l0.71-3.52
		c0.03-0.14,0.05-0.29,0.05-0.45c0-0.34-0.09-0.6-0.28-0.78c-0.19-0.18-0.47-0.27-0.84-0.27c-0.49,0-0.89,0.14-1.21,0.42
		c-0.32,0.28-0.54,0.7-0.65,1.26L1.9,99.85H0l1.31-6.57h1.81l-0.15,0.71c0.59-0.54,1.31-0.81,2.16-0.81
		C5.86,93.19,6.44,93.38,6.87,93.77z"/>
	<path d="M16.91,96.33h-2.12v2.07h-1.57v-2.07H11.1v-1.49h2.11v-2.08h1.57v2.08h2.12V96.33z"/>
	<path d="M19.81,99.61c-0.23-0.23-0.34-0.51-0.34-0.85c0-0.35,0.11-0.63,0.34-0.85c0.23-0.22,0.51-0.32,0.84-0.32
		c0.33,0,0.61,0.11,0.84,0.32c0.23,0.22,0.34,0.5,0.34,0.85c0,0.34-0.11,0.63-0.34,0.85s-0.51,0.34-0.84,0.34
		C20.32,99.95,20.04,99.84,19.81,99.61z"/>
	<path d="M24.95,99.48c-0.55-0.35-0.99-0.86-1.3-1.52c-0.31-0.66-0.47-1.45-0.47-2.37s0.16-1.71,0.47-2.37
		c0.31-0.66,0.75-1.17,1.3-1.52c0.55-0.35,1.18-0.53,1.89-0.53s1.34,0.18,1.89,0.53c0.55,0.35,0.99,0.86,1.3,1.52
		c0.31,0.66,0.47,1.45,0.47,2.37s-0.16,1.71-0.47,2.37c-0.31,0.66-0.75,1.17-1.3,1.52c-0.55,0.35-1.18,0.52-1.89,0.52
		S25.5,99.83,24.95,99.48z M28.07,97.66c0.3-0.45,0.45-1.14,0.45-2.07s-0.15-1.63-0.45-2.08c-0.3-0.45-0.71-0.67-1.23-0.67
		c-0.51,0-0.92,0.22-1.21,0.67c-0.3,0.45-0.45,1.14-0.45,2.08s0.15,1.63,0.45,2.07c0.3,0.45,0.7,0.67,1.21,0.67
		C27.36,98.33,27.77,98.1,28.07,97.66z"/>
	<path d="M38.39,98.24v1.61h-6.46v-1.28l3.3-3.11c0.35-0.33,0.59-0.62,0.71-0.86c0.12-0.24,0.18-0.48,0.18-0.71
		c0-0.34-0.12-0.6-0.35-0.79c-0.23-0.18-0.57-0.27-1.02-0.27c-0.37,0-0.71,0.07-1.01,0.21c-0.3,0.14-0.55,0.36-0.76,0.64l-1.44-0.93
		c0.33-0.5,0.79-0.88,1.38-1.17c0.59-0.28,1.26-0.42,2.01-0.42c0.63,0,1.19,0.1,1.67,0.31c0.48,0.21,0.85,0.5,1.11,0.88
		c0.26,0.38,0.4,0.82,0.4,1.34c0,0.46-0.1,0.9-0.29,1.31c-0.2,0.41-0.57,0.87-1.14,1.39l-1.97,1.85H38.39z"/>
	<path d="M45.41,95.24c0.57,0.48,0.86,1.12,0.86,1.93c0,0.52-0.13,0.99-0.39,1.42c-0.26,0.43-0.66,0.77-1.19,1.03
		c-0.53,0.26-1.19,0.38-1.97,0.38c-0.6,0-1.19-0.08-1.78-0.24c-0.58-0.16-1.08-0.38-1.48-0.68l0.78-1.51
		c0.33,0.24,0.7,0.43,1.12,0.57c0.42,0.13,0.86,0.2,1.31,0.2c0.5,0,0.89-0.1,1.17-0.29c0.28-0.2,0.43-0.47,0.43-0.82
		c0-0.37-0.15-0.64-0.45-0.83c-0.3-0.19-0.81-0.28-1.54-0.28h-2.18l0.44-4.81h5.21v1.59h-3.56l-0.13,1.62h0.7
		C43.95,94.52,44.84,94.76,45.41,95.24z"/>
	<path d="M54.31,93.77c0.43,0.39,0.65,0.94,0.65,1.65c0,0.27-0.03,0.53-0.09,0.79l-0.73,3.64h-1.9l0.71-3.52
		C52.98,96.2,53,96.05,53,95.89c0-0.34-0.09-0.6-0.28-0.78c-0.19-0.18-0.47-0.27-0.84-0.27c-0.49,0-0.89,0.14-1.21,0.42
		c-0.32,0.28-0.54,0.7-0.65,1.26l-0.66,3.33h-1.9l1.31-6.57h1.81l-0.15,0.71c0.59-0.54,1.31-0.81,2.16-0.81
		C53.3,93.19,53.88,93.38,54.31,93.77z"/>
	<path d="M58.54,93.32h5.81v1.49h-5.81V93.32z M58.54,96.35h5.81v1.49h-5.81V96.35z"/>
	<path d="M71.01,91.31v8.54h-1.98V92.9h-1.71v-1.59H71.01z"/>
	<path d="M73.39,99.61c-0.23-0.23-0.34-0.51-0.34-0.85c0-0.35,0.11-0.63,0.34-0.85c0.23-0.22,0.51-0.32,0.84-0.32
		s0.61,0.11,0.84,0.32c0.23,0.22,0.34,0.5,0.34,0.85c0,0.34-0.11,0.63-0.34,0.85s-0.51,0.34-0.84,0.34S73.62,99.84,73.39,99.61z"/>
	<path d="M83.42,98.24v1.61h-6.46v-1.28l3.3-3.11c0.35-0.33,0.59-0.62,0.71-0.86c0.12-0.24,0.18-0.48,0.18-0.71
		c0-0.34-0.12-0.6-0.35-0.79c-0.23-0.18-0.57-0.27-1.02-0.27c-0.37,0-0.71,0.07-1.01,0.21c-0.3,0.14-0.55,0.36-0.76,0.64l-1.44-0.93
		c0.33-0.5,0.79-0.88,1.38-1.17c0.59-0.28,1.26-0.42,2.01-0.42c0.63,0,1.19,0.1,1.67,0.31c0.48,0.21,0.85,0.5,1.11,0.88
		c0.26,0.38,0.4,0.82,0.4,1.34c0,0.46-0.1,0.9-0.29,1.31c-0.2,0.41-0.57,0.87-1.14,1.39l-1.97,1.85H83.42z"/>
	<path d="M90.45,95.24c0.57,0.48,0.86,1.12,0.86,1.93c0,0.52-0.13,0.99-0.39,1.42c-0.26,0.43-0.66,0.77-1.19,1.03
		c-0.53,0.26-1.19,0.38-1.97,0.38c-0.6,0-1.19-0.08-1.78-0.24c-0.58-0.16-1.08-0.38-1.48-0.68l0.78-1.51
		c0.33,0.24,0.7,0.43,1.12,0.57c0.42,0.13,0.86,0.2,1.31,0.2c0.5,0,0.89-0.1,1.17-0.29c0.28-0.2,0.43-0.47,0.43-0.82
		c0-0.37-0.15-0.64-0.45-0.83c-0.3-0.19-0.81-0.28-1.54-0.28h-2.18l0.44-4.81h5.21v1.59h-3.56l-0.13,1.62h0.7
		C88.99,94.52,89.88,94.76,90.45,95.24z"/>
	<path d="M99.35,93.77c0.43,0.39,0.65,0.94,0.65,1.65c0,0.27-0.03,0.53-0.09,0.79l-0.73,3.64h-1.9l0.71-3.52
		c0.03-0.14,0.05-0.29,0.05-0.45c0-0.34-0.09-0.6-0.28-0.78c-0.19-0.18-0.47-0.27-0.84-0.27c-0.49,0-0.89,0.14-1.21,0.42
		c-0.32,0.28-0.54,0.7-0.65,1.26l-0.66,3.33h-1.9l1.31-6.57h1.81l-0.15,0.71c0.59-0.54,1.31-0.81,2.16-0.81
		C98.34,93.19,98.92,93.38,99.35,93.77z"/>
</g>
<g>
	<polygon points="83.62,71.25 87.16,71.25 87.16,55.99 80.57,55.99 80.57,58.82 83.62,58.82 	"/>
	<path d="M95.68,68.04c-0.51,0.34-1.21,0.51-2.09,0.51c-0.8,0-1.58-0.12-2.34-0.36c-0.76-0.24-1.44-0.58-2.02-1.02l-1.37,2.7
		c0.73,0.52,1.61,0.93,2.65,1.21c1.04,0.28,2.1,0.42,3.17,0.42c1.38,0,2.55-0.22,3.5-0.67c0.95-0.45,1.66-1.05,2.13-1.8
		c0.46-0.75,0.7-1.57,0.7-2.45c0-1.15-0.36-2.11-1.07-2.89c-0.71-0.78-1.74-1.27-3.08-1.49l3.45-3.93v-2.29H88.62v2.83h6.5
		l-3.14,3.55v2.33h1.61c1.91,0,2.86,0.63,2.86,1.88C96.45,67.21,96.19,67.69,95.68,68.04z"/>
	<polygon points="75.1,62.2 64.72,58.26 64.72,60.96 71.98,63.62 64.72,66.26 64.72,68.98 75.1,65.04 	"/>
	<path d="M7.83,68.04c-0.51,0.34-1.21,0.51-2.09,0.51c-0.8,0-1.58-0.12-2.34-0.36c-0.76-0.24-1.44-0.58-2.02-1.02L0,69.88
		c0.73,0.52,1.61,0.93,2.65,1.21c1.04,0.28,2.1,0.42,3.17,0.42c1.38,0,2.55-0.22,3.5-0.67c0.95-0.45,1.66-1.05,2.13-1.8
		c0.46-0.75,0.7-1.57,0.7-2.45c0-1.15-0.36-2.11-1.07-2.89C10.37,62.92,9.34,62.42,8,62.2l3.45-3.93v-2.29H0.76v2.83h6.5l-3.14,3.55
		v2.33h1.61c1.91,0,2.86,0.63,2.86,1.88C8.59,67.21,8.34,67.69,7.83,68.04z"/>
	<polygon points="10.69,71.25 14.57,71.25 17.95,67.66 19.87,71.25 23.46,71.25 20.19,65.39 25.84,59.52 22.09,59.52 18.82,62.97 
		16.97,59.52 13.43,59.52 16.55,65.23 	"/>
	<polygon points="33.93,68.66 36.74,68.66 36.74,64.95 40.54,64.95 40.54,62.29 36.74,62.29 36.74,58.58 33.93,58.58 33.93,62.29 
		30.16,62.29 30.16,64.95 33.93,64.95 	"/>
	<polygon points="49.56,58.87 54.62,58.87 49.15,71.25 52.99,71.25 58.66,58.28 58.66,55.99 46.42,55.99 46.42,61.35 49.56,61.35 	
		"/>
</g>
<g>
	<path d="M49.48,28.46c-0.43,0-0.78,0.19-1.03,0.57s-0.38,0.96-0.38,1.75c0,0.79,0.12,1.37,0.38,1.75c0.25,0.38,0.59,0.57,1.03,0.57
		c0.44,0,0.79-0.19,1.04-0.57c0.25-0.38,0.38-0.96,0.38-1.75c0-0.79-0.12-1.38-0.38-1.75S49.92,28.46,49.48,28.46z"/>
	<path d="M75.28,9.74c0.77,0,1.39-0.6,1.39-1.34c0-0.74-0.62-1.34-1.39-1.34s-1.39,0.6-1.39,1.34C73.89,9.14,74.51,9.74,75.28,9.74z
		"/>
	<g>
		<rect x="17.44" y="30.84" class="st0" width="2.92" height="1.29"/>
		<path class="st0" d="M66.85,9.55l-1.82-0.64h8.52c0.23,0.71,0.91,1.24,1.73,1.24c1,0,1.82-0.78,1.82-1.75
			c0-0.96-0.82-1.75-1.82-1.75c-0.82,0-1.5,0.52-1.73,1.24h-8.52l1.82-0.64l-0.18-0.48L62,8.4l4.66,1.63L66.85,9.55z"/>
		<rect x="31.84" y="30.84" class="st0" width="2.92" height="1.29"/>
		<polygon class="st0" points="88.01,14.22 88.01,18 75.81,18 75.81,13.46 74.77,13.46 74.77,18 63.1,18 63.1,13.46 62.06,13.46 
			62.06,18 50.39,18 50.39,13.46 49.34,13.46 49.34,18 37.67,18 37.67,13.46 36.63,13.46 36.63,18 24.96,18 24.96,13.46 
			23.91,13.46 23.91,18 11.85,18 11.85,14.16 7.83,16.47 3.82,18.79 7.83,21.11 11.85,23.43 11.85,19.61 23.91,19.61 23.91,24.25 
			24.96,24.25 24.96,19.61 36.63,19.61 36.63,24.25 37.67,24.25 37.67,19.61 49.34,19.61 49.34,24.25 50.39,24.25 50.39,19.61 
			62.06,19.61 62.06,24.25 63.1,24.25 63.1,19.61 74.77,19.61 74.77,24.25 75.81,24.25 75.81,19.61 88.01,19.61 88.01,23.5 
			92.02,21.18 96.04,18.86 92.02,16.54 		"/>
		<path class="st0" d="M76.53,31.46c0.47-0.44,0.79-0.83,0.96-1.18s0.25-0.71,0.25-1.1c0-0.43-0.11-0.81-0.34-1.13
			c-0.22-0.32-0.54-0.57-0.94-0.74c-0.4-0.18-0.87-0.26-1.41-0.26c-0.64,0-1.21,0.12-1.7,0.36s-0.88,0.57-1.17,0.98l1.22,0.78
			c0.17-0.24,0.38-0.42,0.64-0.54c0.25-0.12,0.54-0.18,0.86-0.18c0.38,0,0.67,0.08,0.86,0.23c0.2,0.16,0.29,0.38,0.29,0.67
			c0,0.2-0.05,0.4-0.15,0.6c-0.1,0.2-0.3,0.45-0.6,0.73l-2.78,2.63v1.08h5.46v-1.36h-3.1L76.53,31.46z"/>
		<polygon class="st0" points="60.51,28.51 61.96,28.51 61.96,34.39 63.63,34.39 63.63,27.17 60.51,27.17 		"/>
		<path class="st0" d="M25.07,31.46c0.47-0.44,0.79-0.83,0.96-1.18s0.25-0.71,0.25-1.1c0-0.43-0.11-0.81-0.34-1.13
			c-0.22-0.32-0.54-0.57-0.94-0.74c-0.4-0.18-0.87-0.26-1.41-0.26c-0.64,0-1.21,0.12-1.7,0.36s-0.88,0.57-1.17,0.98l1.22,0.78
			c0.17-0.24,0.38-0.42,0.64-0.54c0.25-0.12,0.54-0.18,0.86-0.18c0.38,0,0.67,0.08,0.86,0.23c0.2,0.16,0.29,0.38,0.29,0.67
			c0,0.2-0.05,0.4-0.15,0.6c-0.1,0.2-0.3,0.45-0.6,0.73l-2.78,2.63v1.08h5.46v-1.36h-3.1L25.07,31.46z"/>
		<polygon class="st0" points="35.14,28.51 36.58,28.51 36.58,34.39 38.26,34.39 38.26,27.17 35.14,27.17 		"/>
		<path class="st0" d="M51.08,27.49c-0.47-0.3-1-0.44-1.6-0.44c-0.6,0-1.13,0.15-1.6,0.44s-0.83,0.72-1.1,1.28
			c-0.26,0.56-0.4,1.23-0.4,2.01c0,0.78,0.13,1.45,0.4,2.01s0.63,0.99,1.1,1.28c0.47,0.29,1,0.44,1.6,0.44c0.6,0,1.13-0.15,1.6-0.44
			c0.47-0.3,0.83-0.72,1.1-1.28s0.4-1.23,0.4-2.01c0-0.78-0.13-1.45-0.4-2.01C51.91,28.21,51.54,27.79,51.08,27.49z"/>
		<path d="M0,0.22v42.13h100V0.22H0z M66.67,6.77l0.18,0.48l-1.82,0.64h8.52c0.23-0.71,0.91-1.24,1.73-1.24c1,0,1.82,0.78,1.82,1.75
			c0,0.96-0.82,1.75-1.82,1.75c-0.82,0-1.5-0.52-1.73-1.24h-8.52l1.82,0.64l-0.18,0.48L62,8.4L66.67,6.77z M20.36,32.13h-2.92v-1.29
			h2.92V32.13z M26.51,34.39h-5.46v-1.08l2.78-2.63c0.3-0.28,0.5-0.52,0.6-0.73c0.1-0.2,0.15-0.4,0.15-0.6
			c0-0.29-0.1-0.51-0.29-0.67c-0.2-0.15-0.48-0.23-0.86-0.23c-0.32,0-0.6,0.06-0.86,0.18c-0.25,0.12-0.47,0.3-0.64,0.54l-1.22-0.78
			c0.28-0.42,0.67-0.75,1.17-0.98s1.06-0.36,1.7-0.36c0.54,0,1.01,0.09,1.41,0.26c0.4,0.17,0.71,0.42,0.94,0.74
			c0.22,0.32,0.34,0.7,0.34,1.13c0,0.39-0.08,0.76-0.25,1.1s-0.48,0.74-0.96,1.18l-1.66,1.57h3.1V34.39z M34.76,32.13h-2.92v-1.29
			h2.92V32.13z M38.26,34.39h-1.67v-5.88h-1.44v-1.34h3.11V34.39z M52.17,32.78c-0.26,0.56-0.63,0.99-1.1,1.28
			c-0.47,0.29-1,0.44-1.6,0.44c-0.6,0-1.13-0.15-1.6-0.44c-0.47-0.3-0.83-0.72-1.1-1.28s-0.4-1.23-0.4-2.01
			c0-0.78,0.13-1.45,0.4-2.01c0.26-0.56,0.63-0.99,1.1-1.28s1-0.44,1.6-0.44c0.6,0,1.13,0.15,1.6,0.44c0.47,0.3,0.83,0.72,1.1,1.28
			c0.26,0.56,0.4,1.23,0.4,2.01C52.57,31.56,52.44,32.22,52.17,32.78z M63.63,34.39h-1.67v-5.88h-1.44v-1.34h3.11V34.39z
			 M77.97,34.39h-5.46V33.3l2.78-2.63c0.3-0.28,0.5-0.52,0.6-0.73c0.1-0.2,0.15-0.4,0.15-0.6c0-0.29-0.1-0.51-0.29-0.67
			c-0.2-0.15-0.48-0.23-0.86-0.23c-0.32,0-0.6,0.06-0.86,0.18c-0.25,0.12-0.47,0.3-0.64,0.54l-1.22-0.78
			c0.28-0.42,0.67-0.75,1.17-0.98s1.06-0.36,1.7-0.36c0.54,0,1.01,0.09,1.41,0.26c0.4,0.17,0.71,0.42,0.94,0.74
			c0.22,0.32,0.34,0.7,0.34,1.13c0,0.39-0.08,0.76-0.25,1.1s-0.48,0.74-0.96,1.18l-1.66,1.57h3.1V34.39z M92.02,21.18l-4.02,2.32
			v-3.89H75.81v4.64h-1.04v-4.64H63.1v4.64h-1.04v-4.64H50.39v4.64h-1.04v-4.64H37.67v4.64h-1.04v-4.64H24.96v4.64h-1.04v-4.64
			H11.85v3.82l-4.02-2.32l-4.02-2.32l4.02-2.32l4.02-2.32V18h12.06v-4.54h1.04V18h11.67v-4.54h1.04V18h11.67v-4.54h1.04V18h11.67
			v-4.54h1.04V18h11.67v-4.54h1.04V18h12.19v-3.78l4.02,2.32l4.02,2.32L92.02,21.18z"/>
	</g>
</g>
</svg>
