<?xml version="1.0" encoding="utf-8"?>
<!-- Generator: Adobe Illustrator 24.0.0, SVG Export Plug-In . SVG Version: 6.00 Build 0)  -->
<svg version="1.1" id="Layer_1" xmlns="http://www.w3.org/2000/svg" xmlns:xlink="http://www.w3.org/1999/xlink" x="0px" y="0px"
	 viewBox="0 0 100 100" style="enable-background:new 0 0 100 100;" xml:space="preserve">
<style type="text/css">
	.st0{fill:none;}
	.st1{fill:#FFFFFF;}
	.st2{fill:#FFFFFF;stroke:#FFFFFF;stroke-width:0.25;stroke-miterlimit:10;}
	.st3{fill:none;stroke:#000000;stroke-width:0.25;stroke-linecap:round;stroke-miterlimit:10;}
	.st4{fill:#D9D9D9;}
	.st5{fill:none;stroke:#000000;stroke-width:2;stroke-linejoin:round;stroke-miterlimit:10;}
	.st6{fill:none;stroke:#000000;stroke-width:0.4396;stroke-miterlimit:10;}
	.st7{fill:none;stroke:#000000;stroke-linecap:round;stroke-linejoin:round;}
	.st8{fill:none;stroke:#000000;stroke-linecap:round;stroke-linejoin:round;stroke-miterlimit:10;}
</style>
<g>
	<path d="M28.6,90.74c-0.27,0-0.49,0.08-0.67,0.23c-0.18,0.15-0.29,0.36-0.33,0.62h2c-0.04-0.26-0.15-0.46-0.33-0.61
		C29.08,90.82,28.86,90.74,28.6,90.74z"/>
	<path d="M15.06,90.82c-0.31,0-0.57,0.09-0.77,0.28c-0.2,0.18-0.3,0.42-0.3,0.72c0,0.3,0.1,0.54,0.3,0.72
		c0.2,0.18,0.46,0.27,0.77,0.27c0.31,0,0.57-0.09,0.76-0.27c0.2-0.18,0.3-0.42,0.3-0.72c0-0.3-0.1-0.54-0.3-0.72
		C15.63,90.91,15.37,90.82,15.06,90.82z"/>
	<polygon points="35.11,91.91 36.78,91.91 35.95,89.89 	"/>
	<path d="M99.22,97.29L2.57,30.82c-0.49-0.34-1.14-0.39-1.68-0.13C0.34,30.94,0,31.46,0,32.02V98.5c0,0.83,0.72,1.5,1.61,1.5h96.66
		c0.69,0,1.31-0.42,1.53-1.03C100.01,98.35,99.78,97.68,99.22,97.29z M10.17,89.67H7.4v1.39h2.44v0.98H7.4v1.92H6.18v-5.27h3.98
		V89.67z M12.01,93.97h-1.17v-4.05h1.17V93.97z M11.95,89.16c-0.14,0.13-0.31,0.19-0.53,0.19c-0.22,0-0.39-0.06-0.53-0.19
		c-0.14-0.13-0.2-0.28-0.2-0.47c0-0.19,0.07-0.34,0.2-0.47c0.14-0.12,0.31-0.19,0.53-0.19c0.22,0,0.39,0.06,0.53,0.18
		c0.14,0.12,0.2,0.27,0.2,0.45C12.15,88.87,12.09,89.03,11.95,89.16z M17.28,93.29c0,0.74-0.19,1.3-0.58,1.66
		c-0.39,0.36-0.95,0.54-1.69,0.54c-0.39,0-0.76-0.05-1.11-0.14c-0.35-0.1-0.64-0.23-0.87-0.41l0.47-0.84
		c0.17,0.14,0.39,0.25,0.65,0.33c0.26,0.08,0.52,0.12,0.78,0.12c0.41,0,0.71-0.09,0.9-0.27c0.19-0.18,0.29-0.46,0.29-0.83v-0.17
		c-0.31,0.34-0.73,0.5-1.28,0.5c-0.37,0-0.71-0.08-1.02-0.24c-0.31-0.16-0.55-0.39-0.73-0.69c-0.18-0.3-0.27-0.64-0.27-1.02
		c0-0.39,0.09-0.73,0.27-1.02c0.18-0.3,0.43-0.53,0.73-0.69c0.31-0.16,0.65-0.24,1.02-0.24c0.75,0,1.09,0.24,1.34,0.58v-0.52h1.11
		V93.29z M22.46,93.97h-1.11v-0.48c-0.16,0.18-0.34,0.31-0.56,0.4c-0.22,0.09-0.45,0.14-0.7,0.14c-0.53,0-0.95-0.15-1.27-0.46
		c-0.31-0.31-0.47-0.76-0.47-1.36v-2.29h1.17v2.12c0,0.65,0.27,0.98,0.82,0.98c0.28,0,0.51-0.09,0.68-0.27
		c0.17-0.18,0.26-0.46,0.26-0.82v-2h1.17V93.97z M26.06,90.94c-0.13-0.01-0.22-0.02-0.26-0.02c-0.34,0-0.6,0.09-0.79,0.28
		c-0.19,0.19-0.29,0.47-0.29,0.85v1.91h-1.17v-4.05h1.12v0.53c0.14-0.2,0.33-0.34,0.57-0.44c0.24-0.1,0.51-0.15,0.82-0.15V90.94z
		 M30.67,92.27h-3.07c0.06,0.25,0.19,0.45,0.39,0.59c0.21,0.15,0.46,0.22,0.77,0.22c0.21,0,0.4-0.03,0.56-0.09
		c0.16-0.06,0.32-0.16,0.46-0.3l0.63,0.68c-0.38,0.44-0.94,0.66-1.67,0.66c-0.46,0-0.86-0.09-1.21-0.27
		c-0.35-0.18-0.62-0.43-0.81-0.74c-0.19-0.32-0.29-0.67-0.29-1.08c0-0.4,0.09-0.75,0.28-1.07c0.19-0.32,0.45-0.57,0.78-0.75
		c0.33-0.18,0.7-0.27,1.1-0.27c0.4,0,0.76,0.09,1.08,0.26c0.32,0.17,0.57,0.42,0.76,0.73c0.18,0.32,0.28,0.69,0.28,1.11
		C30.7,91.97,30.69,92.07,30.67,92.27z M37.63,93.97l-0.47-1.13h-2.45l-0.47,1.13H33l2.35-5.27h1.2l2.36,5.27H37.63z"/>
	<path d="M47.91,39.19c0.31,0,0.57-0.09,0.76-0.28c0.2-0.18,0.3-0.42,0.3-0.72c0-0.3-0.1-0.54-0.3-0.72
		c-0.2-0.18-0.45-0.27-0.76-0.27c-0.31,0-0.57,0.09-0.77,0.27c-0.2,0.18-0.3,0.42-0.3,0.72c0,0.3,0.1,0.54,0.3,0.72
		C47.34,39.1,47.6,39.19,47.91,39.19z"/>
	<path d="M69.65,37.08c0.16-0.11,0.23-0.26,0.23-0.47c0-0.21-0.08-0.36-0.23-0.46C69.5,36.05,69.27,36,68.97,36h-1.21v1.24h1.21
		C69.27,37.24,69.5,37.19,69.65,37.08z"/>
	<path d="M62.11,37.36c-0.18-0.15-0.4-0.23-0.66-0.23c-0.27,0-0.49,0.08-0.67,0.23c-0.18,0.15-0.29,0.36-0.33,0.62h2
		C62.4,37.72,62.29,37.51,62.11,37.36z"/>
	<path d="M70.15,38.79c0-0.44-0.32-0.66-0.97-0.66h-1.42v1.3h1.42c0.32,0,0.56-0.05,0.73-0.16C70.07,39.17,70.15,39.01,70.15,38.79z
		"/>
	<path d="M34.11,46.5H98.8c0.47,0,0.88-0.28,1.02-0.69c0.15-0.41-0.01-0.86-0.38-1.12L34.75,0.2c-0.33-0.23-0.76-0.26-1.12-0.09
		c-0.36,0.17-0.59,0.52-0.59,0.9V45.5C33.03,46.05,33.51,46.5,34.11,46.5z M44.86,40.35h-1.17V36.3h1.17V40.35z M66.54,35.08h2.58
		c0.64,0,1.14,0.12,1.48,0.37c0.34,0.25,0.52,0.58,0.52,1c0,0.26-0.06,0.48-0.18,0.69c-0.12,0.2-0.3,0.36-0.52,0.47
		c0.3,0.1,0.54,0.26,0.71,0.48c0.17,0.22,0.26,0.5,0.26,0.82c0,0.46-0.18,0.82-0.54,1.07c-0.36,0.25-0.88,0.37-1.57,0.37h-2.73
		V35.08z M59.56,37.25c0.19-0.32,0.45-0.57,0.78-0.75c0.33-0.18,0.7-0.27,1.1-0.27c0.4,0,0.76,0.09,1.08,0.26
		c0.32,0.17,0.57,0.42,0.76,0.73c0.18,0.32,0.28,0.69,0.28,1.11c0,0.02-0.01,0.12-0.02,0.32h-3.07c0.06,0.25,0.19,0.45,0.39,0.59
		c0.21,0.15,0.46,0.22,0.77,0.22c0.21,0,0.4-0.03,0.56-0.09c0.16-0.06,0.31-0.16,0.46-0.3l0.63,0.68c-0.38,0.44-0.94,0.66-1.67,0.66
		c-0.46,0-0.86-0.09-1.21-0.27c-0.35-0.18-0.62-0.43-0.81-0.74c-0.19-0.32-0.29-0.68-0.29-1.08C59.28,37.93,59.37,37.57,59.56,37.25
		z M56.4,36.3h1.12v0.54c0.14-0.2,0.33-0.34,0.57-0.44c0.24-0.1,0.51-0.15,0.82-0.15v1.08c-0.13-0.01-0.22-0.01-0.26-0.01
		c-0.34,0-0.6,0.09-0.79,0.28c-0.19,0.19-0.29,0.47-0.29,0.85v1.91H56.4V36.3z M51.2,36.3h1.17v2.12c0,0.65,0.27,0.98,0.82,0.98
		c0.28,0,0.51-0.09,0.68-0.27c0.17-0.18,0.26-0.46,0.26-0.82v-2h1.17v4.05h-1.11v-0.48c-0.16,0.18-0.34,0.31-0.56,0.4
		c-0.22,0.09-0.45,0.14-0.7,0.14c-0.53,0-0.95-0.15-1.27-0.46s-0.47-0.76-0.47-1.36V36.3z M45.92,37.17
		c0.18-0.3,0.43-0.53,0.73-0.69c0.31-0.16,0.65-0.25,1.02-0.24c0.78,0.01,1.13,0.32,1.34,0.58V36.3h1.11v3.37
		c0,0.74-0.19,1.3-0.58,1.66c-0.39,0.36-0.95,0.54-1.69,0.54c-0.39,0-0.76-0.05-1.11-0.14c-0.35-0.1-0.64-0.23-0.87-0.41l0.47-0.84
		c0.17,0.14,0.39,0.25,0.65,0.33c0.26,0.08,0.52,0.12,0.78,0.12c0.41,0,0.71-0.09,0.9-0.27c0.19-0.18,0.29-0.46,0.29-0.83v-0.17
		c-0.31,0.34-0.73,0.5-1.28,0.5c-0.37,0-0.71-0.08-1.02-0.25c-0.31-0.16-0.55-0.39-0.73-0.69c-0.18-0.3-0.27-0.64-0.27-1.02
		C45.65,37.81,45.74,37.47,45.92,37.17z M43.75,34.61c0.14-0.13,0.31-0.19,0.53-0.19c0.22,0,0.39,0.06,0.53,0.18
		c0.14,0.12,0.2,0.27,0.2,0.45c0,0.2-0.07,0.36-0.2,0.49c-0.14,0.13-0.31,0.19-0.53,0.19c-0.22,0-0.39-0.06-0.53-0.19
		c-0.14-0.13-0.2-0.28-0.2-0.47C43.54,34.9,43.61,34.74,43.75,34.61z M39.03,35.08h3.98v0.98h-2.76v1.39h2.44v0.98h-2.44v1.92h-1.22
		V35.08z"/>
	<polygon points="67.84,58.22 65.27,60.93 63.82,58.22 61.05,58.22 63.5,62.7 58.9,67.42 61.94,67.42 64.59,64.6 66.1,67.42 
		68.92,67.42 66.35,62.82 70.78,58.22 	"/>
	<path d="M73.57,18.66c-0.4,0.27-0.95,0.41-1.64,0.41c-0.63,0-1.24-0.09-1.83-0.28s-1.12-0.45-1.57-0.79l-1.09,2.12
		c0.57,0.41,1.26,0.73,2.08,0.95c0.82,0.22,1.64,0.33,2.49,0.33c1.09,0,2.01-0.18,2.76-0.54c0.75-0.36,1.3-0.84,1.67-1.44
		c0.36-0.6,0.55-1.26,0.55-1.99c0-1.13-0.4-2.03-1.21-2.7c-0.8-0.67-2.05-1.01-3.74-1.01h-0.97l0.19-2.27h4.99V9.22h-7.3l-0.62,6.74
		h3.06c1.03,0,1.75,0.13,2.16,0.39c0.42,0.26,0.62,0.65,0.62,1.16C74.16,18,73.96,18.39,73.57,18.66z"/>
</g>
</svg>
