<svg id="Layer_1" data-name="Layer 1" xmlns="http://www.w3.org/2000/svg" viewBox="0 0 100 100"><defs><style>.cls-1{fill:#231f20;}</style></defs><title> </title><path class="cls-1" d="M11.7,11.48,84.52,4.34c0,.16,0,.32,0,.48a10.62,10.62,0,0,0,9.58,10.55L88.41,43.64a1.5,1.5,0,0,0,1.18,1.77,1.53,1.53,0,0,0,.3,0,1.5,1.5,0,0,0,1.47-1.21L99.88,1.76A1.53,1.53,0,0,0,99.52.45,1.54,1.54,0,0,0,98.26,0L11.4,8.48a1.51,1.51,0,0,0,.3,3Zm82.58,2.9A9.62,9.62,0,0,1,85.5,4.82c0-.19,0-.39,0-.58l11-1.08Z"/><rect class="cls-1" x="85.98" y="41.71" width="1" height="1.51" transform="translate(13.12 104.91) rotate(-66.56)"/><rect class="cls-1" x="53.5" y="26.87" width="1" height="3.01" transform="translate(6.47 66.61) rotate(-66.54)"/><rect class="cls-1" x="42.44" y="22.08" width="1" height="3.01" transform="translate(4.21 53.58) rotate(-66.54)"/><rect class="cls-1" x="47.97" y="24.48" width="1" height="3.01" transform="translate(5.35 60.12) rotate(-66.56)"/><rect class="cls-1" x="36.91" y="19.68" width="1" height="3.01" transform="translate(3.08 47.08) rotate(-66.55)"/><rect class="cls-1" x="81.14" y="38.86" width="1" height="3.01" transform="translate(12.15 99.23) rotate(-66.57)"/><rect class="cls-1" x="75.62" y="36.46" width="1" height="3.01" transform="translate(11.02 92.71) rotate(-66.57)"/><rect class="cls-1" x="31.38" y="17.28" width="1" height="3.01" transform="translate(1.96 40.57) rotate(-66.56)"/><rect class="cls-1" x="64.56" y="31.66" width="1" height="3.01" transform="translate(8.73 79.64) rotate(-66.54)"/><rect class="cls-1" x="59.03" y="29.27" width="1" height="3.01" transform="translate(7.62 73.16) rotate(-66.57)"/><rect class="cls-1" x="70.09" y="34.06" width="1" height="3.01" transform="translate(9.89 86.19) rotate(-66.57)"/><rect class="cls-1" x="20.32" y="12.49" width="1" height="3.01" transform="translate(-0.3 27.54) rotate(-66.57)"/><rect class="cls-1" x="25.85" y="14.89" width="1" height="3.01" transform="translate(0.83 34.05) rotate(-66.56)"/><rect class="cls-1" x="15.48" y="11.15" width="1" height="1.51" transform="translate(-1.3 21.82) rotate(-66.54)"/><path class="cls-1" d="M56.3,38.34a1.52,1.52,0,0,0-2-.83l-2.59,1.06,0-.44L50.28,38l-.08,1,.41,0L11.8,55A6.35,6.35,0,0,0,5,50.75L3,34.38a1.51,1.51,0,1,0-3,.37l3.1,25A1.51,1.51,0,0,0,4.6,61a1.56,1.56,0,0,0,.57-.11L55.48,40.3A1.51,1.51,0,0,0,56.3,38.34ZM5.16,51.74a5.41,5.41,0,0,1,3.05.53,5.35,5.35,0,0,1,2.66,3.06l-5,2.05Z"/><rect class="cls-1" x="3.48" y="34.02" width="1" height="1.51" transform="translate(-31.01 35.93) rotate(-85.37)"/><rect class="cls-1" x="8.78" y="33.68" width="1" height="3.04" transform="translate(-26.56 41.63) rotate(-85.4)"/><rect class="cls-1" x="14.85" y="34.17" width="1" height="3.04" transform="translate(-21.46 48.13) rotate(-85.4)"/><rect class="cls-1" x="20.91" y="34.66" width="1" height="3.04" transform="translate(-16.37 54.63) rotate(-85.4)"/><rect class="cls-1" x="33.05" y="35.64" width="1" height="3.04" transform="translate(-6.18 67.62) rotate(-85.4)"/><rect class="cls-1" x="26.98" y="35.15" width="1" height="3.04" transform="translate(-11.28 61.12) rotate(-85.4)"/><rect class="cls-1" x="39.12" y="36.13" width="1" height="3.04" transform="translate(-1.09 74.12) rotate(-85.4)"/><rect class="cls-1" x="45.19" y="36.62" width="1" height="3.04" transform="translate(4 80.62) rotate(-85.4)"/><path class="cls-1" d="M99.93,77.92a1.5,1.5,0,0,0-1.83-1.08L38.37,92.25,38.31,92a9.24,9.24,0,0,0-8.89-7.11L40,61.64a1.51,1.51,0,1,0-2.74-1.25L20.37,97.47a1.51,1.51,0,0,0,1.37,2.14,1.65,1.65,0,0,0,.38,0l76.73-19.8A1.5,1.5,0,0,0,99.93,77.92ZM29.08,85.61a8.52,8.52,0,0,1,8.5,6.55c0,.1,0,.19.06.28L24.42,95.85Z"/><rect class="cls-1" x="41.55" y="61.25" width="1" height="1.51" transform="translate(-29.18 85.22) rotate(-73.9)"/><rect class="cls-1" x="46.72" y="61.95" width="1" height="3.09" transform="translate(-26.88 91.26) rotate(-73.9)"/><rect class="cls-1" x="82.29" y="72.23" width="1" height="3.09" transform="translate(-11.05 132.85) rotate(-73.89)"/><rect class="cls-1" x="88.22" y="73.94" width="1" height="3.09" transform="translate(-8.43 139.75) rotate(-73.87)"/><rect class="cls-1" x="58.58" y="65.38" width="1" height="3.09" transform="translate(-21.62 105.09) rotate(-73.87)"/><rect class="cls-1" x="64.51" y="67.09" width="1" height="3.09" transform="translate(-18.97 112.05) rotate(-73.89)"/><rect class="cls-1" x="70.44" y="68.8" width="1" height="3.09" transform="translate(-16.33 118.98) rotate(-73.89)"/><rect class="cls-1" x="76.36" y="70.52" width="1" height="3.08" transform="translate(-13.69 125.91) rotate(-73.89)"/><rect class="cls-1" x="52.65" y="63.67" width="1" height="3.09" transform="translate(-24.24 98.2) rotate(-73.9)"/><rect class="cls-1" x="93.39" y="76.22" width="1" height="1.51" transform="translate(-6.1 145.84) rotate(-73.9)"/></svg>