<svg id="Layer_1" data-name="Layer 1" xmlns="http://www.w3.org/2000/svg" viewBox="0 0 100 100"><defs><style>.cls-1{fill:#231f20;}</style></defs><title> </title><path class="cls-1" d="M25.24,13.45a6.41,6.41,0,0,0-.13,1.21,3.55,3.55,0,0,0,1.18,2.83,4.61,4.61,0,0,0,3.13,1,6.43,6.43,0,0,0,3.43-.82l-.59-2.85a3.19,3.19,0,0,1-1.61.49c-1,0-1.46-.45-1.46-1.34a2.22,2.22,0,0,1,0-.57l1.1-5.55h3.43l.62-3.09H31l.67-3.37h-4L27,4.78H24.83l-.62,3.09h2.13Z"/><rect class="cls-1" x="40.75" y="4.55" width="12.2" height="3.14"/><rect class="cls-1" x="40.75" y="10.93" width="12.2" height="3.14"/><path class="cls-1" d="M68.23,18.62a8.14,8.14,0,0,0,3.45-.73,5.82,5.82,0,0,0,2.44-2.1,5.6,5.6,0,0,0,.9-3.16,5.3,5.3,0,0,0-.82-3,5.54,5.54,0,0,0-2.23-2A7,7,0,0,0,68.84,7a6,6,0,0,0-4.43,1.59,5.66,5.66,0,0,1,1.43-3.88,4.9,4.9,0,0,1,3.62-1.34,5.88,5.88,0,0,1,3.36.9l1.53-3.06A7.54,7.54,0,0,0,72.11.32,11.83,11.83,0,0,0,69.36,0a9.79,9.79,0,0,0-4.78,1.13,7.88,7.88,0,0,0-3.22,3.32A11.12,11.12,0,0,0,60.2,9.7q0,4.29,2.13,6.6A7.6,7.6,0,0,0,68.23,18.62Zm-2.51-7.73A3.24,3.24,0,0,1,68,10.13a3.21,3.21,0,0,1,2.21.74,2.46,2.46,0,0,1,.84,2,2.44,2.44,0,0,1-.84,2,3.17,3.17,0,0,1-2.16.72,3.34,3.34,0,0,1-2.31-.75,2.47,2.47,0,0,1-.85-1.93A2.44,2.44,0,0,1,65.72,10.89Z"/><polygon class="cls-1" points="86.66 9.7 88.25 18.31 92.2 18.31 99.81 4.47 96.04 4.47 90.92 13.78 89.35 4.47 85.92 4.47 80.74 13.78 79.23 4.47 75.58 4.47 78.02 18.31 81.92 18.31 86.66 9.7"/><path class="cls-1" d="M.58,17.51a3.64,3.64,0,0,0-.07.68,2,2,0,0,0,.67,1.61A2.6,2.6,0,0,0,3,20.38a3.63,3.63,0,0,0,2-.47l-.34-1.62a1.75,1.75,0,0,1-.92.28c-.55,0-.83-.25-.83-.76a1.33,1.33,0,0,1,0-.32l.63-3.15H5.43l.35-1.76H3.83l.38-1.91H1.94l-.38,1.91H.35L0,14.34H1.21Z"/><polygon class="cls-1" points="89.95 97.43 89.06 92.14 87.11 92.14 84.17 97.43 83.31 92.14 81.25 92.14 82.63 100 84.84 100 87.53 95.11 88.44 100 90.68 100 95 92.14 92.86 92.14 89.95 97.43"/><path class="cls-1" d="M76.76,23.66H2a1.37,1.37,0,0,0-.58-.13h0A1.43,1.43,0,0,0,0,25v73.6A1.43,1.43,0,0,0,1.44,100H75.85a1.42,1.42,0,0,0,1.42-1.33h0v-75h-.52Zm-.48,20.05v18h-18V46.6a3.39,3.39,0,0,0,2-1,3.51,3.51,0,0,0,1-1.93Zm-34.17,18a3.4,3.4,0,0,0-1-2,3.45,3.45,0,0,0-1.93-1v-15H54.44a3.38,3.38,0,0,0,1,1.93,3.45,3.45,0,0,0,1.84,1V61.74Zm-18.9,19a3.48,3.48,0,0,0-.95-1.8,3.38,3.38,0,0,0-2.09-1V62.74H35.32a3.39,3.39,0,0,0,2.88,2.81V80.77Zm15-22a3.51,3.51,0,0,0-1.93,1,3.44,3.44,0,0,0-1,2H20.17v-18h18Zm19-18.94a3.38,3.38,0,0,0-1.84,1,3.32,3.32,0,0,0-1,1.93H39.21v-18h18Zm-19,2.88h-18v-18h18Zm-19,0H2.87V25a1.33,1.33,0,0,0,0-.28H19.17Zm0,1v18H2.87v-18Zm0,19V78a3.46,3.46,0,0,0-2.73,2.75H2.87v-18Zm-2.75,19a3.39,3.39,0,0,0,1,2.06,3.47,3.47,0,0,0,1.78.94V97.13H2.87V81.78Zm3.75,3a3.36,3.36,0,0,0,3.06-3h15V97.13h-18Zm19-3h18V97.13h-18Zm0-1V65.55a3.39,3.39,0,0,0,2.88-2.81H57.24v18Zm19-18h18v18h-18Zm18-20H61.23a3.45,3.45,0,0,0-1-1.93,3.4,3.4,0,0,0-2-1V24.67h18Zm-18,54.43V81.78h18V97.2a1.55,1.55,0,0,0-.43-.07Z"/></svg>