<svg id="Layer_1" data-name="Layer 1" xmlns="http://www.w3.org/2000/svg" viewBox="0 0 100 100"><defs><style>.cls-1{fill:#231f20;}</style></defs><title> </title><path class="cls-1" d="M6,65.12a7.2,7.2,0,0,0-3.08.65A5.21,5.21,0,0,0,.73,67.64a5,5,0,0,0-.81,2.82,4.72,4.72,0,0,0,.74,2.62,4.83,4.83,0,0,0,2,1.75,6.16,6.16,0,0,0,2.8.62,5.42,5.42,0,0,0,4-1.44,5,5,0,0,1-1.29,3.47,4.34,4.34,0,0,1-3.23,1.2,5.16,5.16,0,0,1-3-.8L.54,80.61a6.64,6.64,0,0,0,2,.81A10.28,10.28,0,0,0,5,81.71a8.89,8.89,0,0,0,4.29-1,7,7,0,0,0,2.87-3,10,10,0,0,0,1-4.68,8.36,8.36,0,0,0-1.9-5.9A6.83,6.83,0,0,0,6,65.12ZM8.26,72a2.93,2.93,0,0,1-2,.68,2.93,2.93,0,0,1-2-.65,2.21,2.21,0,0,1-.74-1.76,2.17,2.17,0,0,1,.74-1.74,2.86,2.86,0,0,1,1.94-.64,3,3,0,0,1,2,.66,2.36,2.36,0,0,1,0,3.45Z"/><path class="cls-1" d="M23.78,67.27a1.77,1.77,0,0,0-.55,1.35A1.87,1.87,0,0,0,23.78,70a1.94,1.94,0,0,0,2.71,0A1.91,1.91,0,0,0,27,68.62a1.81,1.81,0,0,0-.55-1.35,2,2,0,0,0-2.71,0Z"/><path class="cls-1" d="M25.13,76.28a1.89,1.89,0,0,0-1.35.52,1.81,1.81,0,0,0-.55,1.36,1.92,1.92,0,0,0,3.26,1.37A1.87,1.87,0,0,0,27,78.16a1.85,1.85,0,0,0-.55-1.36A1.9,1.9,0,0,0,25.13,76.28Z"/><rect class="cls-1" x="19.68" y="72.02" width="10.91" height="2.8"/><path class="cls-1" d="M44.57,71.92l3.62-4.12V65.39H37v3h6.83l-3.3,3.74v2.45h1.69c2,0,3,.66,3,2a1.71,1.71,0,0,1-.81,1.52,3.87,3.87,0,0,1-2.2.54,7.9,7.9,0,0,1-2.46-.38,6.91,6.91,0,0,1-2.12-1.06L36.16,80a8.59,8.59,0,0,0,2.78,1.27,12.51,12.51,0,0,0,3.34.45A8.58,8.58,0,0,0,46,81a5.09,5.09,0,0,0,2.24-1.89,4.8,4.8,0,0,0,.73-2.58,4.33,4.33,0,0,0-1.12-3A5.46,5.46,0,0,0,44.57,71.92Z"/><polygon class="cls-1" points="54.94 39.72 51.21 39.72 51.21 42.91 46.63 42.91 54.09 32.66 49.94 32.66 41.91 43.47 41.91 46.13 51.09 46.13 51.09 49.71 54.94 49.71 54.94 46.13 57.71 46.13 57.71 42.91 54.94 42.91 54.94 39.72"/><polygon class="cls-1" points="69.06 46.37 72.13 43.28 75.2 46.37 77.25 44.23 74.22 41.18 77.25 38.14 75.2 35.99 72.13 39.09 69.06 35.99 67.02 38.14 70.04 41.18 67.02 44.23 69.06 46.37"/><path class="cls-1" d="M86,42.4a4.18,4.18,0,0,0-.67,2.36,4.44,4.44,0,0,0,.89,2.77,5.63,5.63,0,0,0,2.51,1.82,10.1,10.1,0,0,0,3.76.65,10.25,10.25,0,0,0,3.78-.65,5.75,5.75,0,0,0,2.53-1.82,4.44,4.44,0,0,0,.9-2.77A4.18,4.18,0,0,0,99,42.4a4.91,4.91,0,0,0-1.94-1.66,4.12,4.12,0,0,0,1.49-1.47,4,4,0,0,0,.51-2,4.22,4.22,0,0,0-.83-2.59A5.31,5.31,0,0,0,95.94,33a9.24,9.24,0,0,0-3.45-.6,9.06,9.06,0,0,0-3.41.6,5.28,5.28,0,0,0-2.31,1.69,4.16,4.16,0,0,0-.83,2.59,4,4,0,0,0,.51,2,4.19,4.19,0,0,0,1.46,1.47A5,5,0,0,0,86,42.4Zm4.58-6.56a2.92,2.92,0,0,1,1.91-.58,3,3,0,0,1,2,.58,1.87,1.87,0,0,1,.73,1.57,1.81,1.81,0,0,1-.73,1.53,3.16,3.16,0,0,1-2,.56,3,3,0,0,1-1.92-.56,1.82,1.82,0,0,1-.71-1.53A1.89,1.89,0,0,1,90.58,35.84Zm-.4,7a3.67,3.67,0,0,1,2.31-.65,3.77,3.77,0,0,1,2.35.65,2.11,2.11,0,0,1,.87,1.78,2.14,2.14,0,0,1-.87,1.79,3.71,3.71,0,0,1-2.35.67,3.67,3.67,0,0,1-2.31-.66,2.16,2.16,0,0,1-.86-1.8A2.13,2.13,0,0,1,90.18,42.86Z"/><polygon class="cls-1" points="99.97 66.99 91.79 58.43 79.52 70.79 67.25 58.43 59.07 66.99 71.15 79.16 59.07 91.33 67.25 99.9 79.52 87.54 91.79 99.9 99.97 91.33 87.89 79.16 99.97 66.99"/><path class="cls-1" d="M25.2,39.11a6.1,6.1,0,0,0-1.88-4.63,6.41,6.41,0,0,0-4.63-1.81,6.45,6.45,0,0,0-4.64,1.81,6.13,6.13,0,0,0-1.88,4.63,6.42,6.42,0,0,0,1.88,4.71,6.34,6.34,0,0,0,4.64,1.88,6.31,6.31,0,0,0,4.63-1.88A6.38,6.38,0,0,0,25.2,39.11Z"/><rect class="cls-1" y="18.06" width="37.38" height="9.59"/><path class="cls-1" d="M18.69,13a6.28,6.28,0,0,0,4.63-1.89A6.37,6.37,0,0,0,25.2,6.44a6.11,6.11,0,0,0-1.88-4.63A6.41,6.41,0,0,0,18.69,0a6.45,6.45,0,0,0-4.64,1.81,6.15,6.15,0,0,0-1.88,4.63,6.41,6.41,0,0,0,1.88,4.71A6.31,6.31,0,0,0,18.69,13Z"/></svg>