<?xml version="1.0" encoding="utf-8"?>
<!-- Generator: Adobe Illustrator 24.0.0, SVG Export Plug-In . SVG Version: 6.00 Build 0)  -->
<svg version="1.1" id="Layer_1" xmlns="http://www.w3.org/2000/svg" xmlns:xlink="http://www.w3.org/1999/xlink" x="0px" y="0px"
	 viewBox="0 0 100 100" style="enable-background:new 0 0 100 100;" xml:space="preserve">
<style type="text/css">
	.st0{fill:none;}
	.st1{fill:#FFFFFF;}
	.st2{fill:#FFFFFF;stroke:#FFFFFF;stroke-width:0.25;stroke-miterlimit:10;}
	.st3{fill:none;stroke:#000000;stroke-width:0.25;stroke-linecap:round;stroke-miterlimit:10;}
	.st4{fill:#D9D9D9;}
	.st5{fill:none;stroke:#000000;stroke-width:2;stroke-linejoin:round;stroke-miterlimit:10;}
	.st6{fill:none;stroke:#000000;stroke-width:0.4396;stroke-miterlimit:10;}
	.st7{fill:none;stroke:#000000;stroke-linecap:round;stroke-linejoin:round;}
	.st8{fill:none;stroke:#000000;stroke-linecap:round;stroke-linejoin:round;stroke-miterlimit:10;}
</style>
<polygon points="0,60.18 5.14,60.18 9.61,55.42 12.15,60.18 16.92,60.18 12.58,52.42 20.06,44.65 15.1,44.65 10.77,49.21 
	8.31,44.65 3.64,44.65 7.76,52.22 "/>
<polygon points="26.62,57.18 40.36,51.96 40.36,48.2 26.62,42.98 26.62,46.56 36.24,50.08 26.62,53.57 "/>
<rect x="50.29" y="50.66" width="14.43" height="2.8"/>
<polygon points="68.97,60.18 73.65,60.18 73.65,39.98 64.93,39.98 64.93,43.73 68.97,43.73 "/>
<path d="M82.62,57.59c0-0.83-0.27-1.5-0.81-2.01c-0.54-0.51-1.2-0.77-1.99-0.77c-0.79,0-1.45,0.26-1.99,0.77
	c-0.54,0.51-0.81,1.18-0.81,2.01c0,0.81,0.27,1.48,0.81,2.02c0.54,0.54,1.2,0.81,1.99,0.81c0.79,0,1.45-0.27,1.99-0.81
	C82.35,59.07,82.62,58.39,82.62,57.59z"/>
<path d="M90.56,51.35c1.73,0,2.95,0.22,3.65,0.66c0.7,0.44,1.05,1.1,1.05,1.96c0,0.83-0.34,1.47-1.01,1.93
	c-0.67,0.46-1.6,0.69-2.77,0.69c-1.06,0-2.09-0.16-3.09-0.48s-1.89-0.76-2.66-1.34l-1.85,3.58c0.96,0.69,2.13,1.23,3.51,1.6
	c1.37,0.38,2.77,0.56,4.2,0.56c1.85,0,3.4-0.3,4.66-0.91c1.26-0.61,2.2-1.41,2.81-2.42c0.62-1.01,0.93-2.13,0.93-3.36
	c0-1.91-0.68-3.42-2.04-4.56c-1.36-1.13-3.46-1.7-6.31-1.7h-1.64l0.32-3.84h8.43v-3.75H86.43l-1.04,11.37H90.56z"/>
<path d="M5.01,4.2c0.67-0.32,1.43-0.48,2.27-0.48c1,0,1.76,0.21,2.28,0.62c0.52,0.41,0.78,1,0.78,1.76c0,0.53-0.14,1.06-0.41,1.6
	c-0.27,0.54-0.8,1.18-1.59,1.93L0.96,16.6v2.87h14.46v-3.61H7.19l4.4-4.16c1.26-1.17,2.1-2.2,2.54-3.11
	c0.44-0.91,0.66-1.89,0.66-2.93c0-1.15-0.3-2.15-0.89-2.99c-0.59-0.85-1.42-1.5-2.49-1.97C10.35,0.23,9.11,0,7.68,0
	c-1.7,0-3.2,0.32-4.51,0.94c-1.31,0.63-2.34,1.5-3.09,2.61l3.23,2.08C3.77,4.99,4.33,4.52,5.01,4.2z"/>
<polygon points="25.91,16.21 29.43,16.21 29.43,11.56 34.19,11.56 34.19,8.23 29.43,8.23 29.43,3.58 25.91,3.58 25.91,8.23 
	21.18,8.23 21.18,11.56 25.91,11.56 "/>
<path d="M45.41,12c0.26-1.26,0.74-2.2,1.46-2.83c0.72-0.63,1.63-0.94,2.72-0.94c0.84,0,1.47,0.2,1.89,0.6
	c0.42,0.4,0.63,0.99,0.63,1.75c0,0.36-0.04,0.7-0.11,1.01l-1.58,7.87h4.26l1.64-8.15c0.13-0.58,0.19-1.17,0.19-1.78
	c0-1.6-0.48-2.84-1.45-3.7c-0.97-0.87-2.27-1.3-3.91-1.3c-1.91,0-3.53,0.6-4.84,1.8l0.33-1.59h-4.05l-2.93,14.71h4.26L45.41,12z"/>
<rect x="64.09" y="11.62" width="13.01" height="3.33"/>
<rect x="64.09" y="4.84" width="13.01" height="3.34"/>
<path d="M92.75,19.79c1.35,0,2.57-0.26,3.68-0.78c1.1-0.52,1.97-1.26,2.61-2.23c0.64-0.97,0.96-2.09,0.96-3.36
	c0-1.19-0.29-2.23-0.88-3.13c-0.58-0.9-1.38-1.6-2.38-2.09c-1-0.49-2.11-0.74-3.33-0.74c-2.02,0-3.6,0.57-4.73,1.7
	c0.07-1.8,0.59-3.18,1.53-4.13c0.95-0.95,2.23-1.42,3.85-1.42c1.44,0,2.63,0.32,3.58,0.96l1.64-3.25c-0.66-0.42-1.45-0.74-2.39-0.97
	C95.96,0.11,94.98,0,93.96,0c-1.93,0-3.63,0.4-5.1,1.2c-1.47,0.8-2.61,1.98-3.43,3.53c-0.82,1.55-1.23,3.41-1.23,5.58
	c0,3.04,0.76,5.39,2.27,7.03C87.98,18.97,90.08,19.79,92.75,19.79z M90.08,11.58c0.62-0.54,1.41-0.81,2.38-0.81
	c0.99,0,1.77,0.26,2.36,0.78c0.59,0.52,0.89,1.22,0.89,2.09c0,0.87-0.3,1.57-0.89,2.08c-0.59,0.51-1.36,0.77-2.31,0.77
	c-1.04,0-1.86-0.26-2.46-0.79c-0.6-0.53-0.9-1.21-0.9-2.05S89.46,12.12,90.08,11.58z"/>
<polygon points="95.64,91.64 91.29,89.12 91.29,93.22 78.07,93.22 78.07,88.3 76.94,88.3 76.94,93.22 64.28,93.22 64.28,88.3 
	63.15,88.3 63.15,93.22 50.49,93.22 50.49,88.3 49.36,88.3 49.36,93.22 36.71,93.22 36.71,88.3 35.58,88.3 35.58,93.22 22.92,93.22 
	22.92,88.3 21.79,88.3 21.79,93.22 8.71,93.22 8.71,89.05 4.36,91.57 0,94.08 4.36,96.6 8.71,99.11 8.71,94.97 21.79,94.97 
	21.79,100 22.92,100 22.92,94.97 35.58,94.97 35.58,100 36.71,100 36.71,94.97 49.36,94.97 49.36,100 50.49,100 50.49,94.97 
	63.15,94.97 63.15,100 64.28,100 64.28,94.97 76.94,94.97 76.94,100 78.07,100 78.07,94.97 91.29,94.97 91.29,99.18 95.64,96.67 
	100,94.15 "/>
<path d="M49.83,86.08c1.17,0,2.13-0.96,2.13-2.13s-0.96-2.13-2.13-2.13c-1,0-1.84,0.7-2.06,1.63H24.84l3.55-1.29l-0.27-0.75
	l-6.99,2.54l6.99,2.54l0.27-0.75l-3.55-1.29h22.92C47.99,85.38,48.83,86.08,49.83,86.08z M48.28,83.45
	c0.21-0.65,0.82-1.13,1.54-1.13c0.9,0,1.63,0.73,1.63,1.63s-0.73,1.63-1.63,1.63c-0.72,0-1.33-0.48-1.54-1.13
	c-0.05-0.16-0.09-0.32-0.09-0.5S48.23,83.61,48.28,83.45z"/>
</svg>
