<svg id="Layer_1" data-name="Layer 1" xmlns="http://www.w3.org/2000/svg" viewBox="0 0 100 100"><defs><style>.cls-1{fill:#231f20;}</style></defs><title> </title><polygon class="cls-1" points="8.24 88.49 5.88 90.97 4.55 88.49 2.01 88.49 4.25 92.6 0.04 96.93 2.83 96.93 5.26 94.34 6.64 96.93 9.22 96.93 6.87 92.71 10.93 88.49 8.24 88.49"/><rect class="cls-1" x="14.48" y="92.43" width="7.46" height="1.91"/><rect class="cls-1" x="14.48" y="88.54" width="7.46" height="1.91"/><rect class="cls-1" x="27.18" y="90.48" width="7.46" height="1.91"/><path class="cls-1" d="M42,92.47a6.33,6.33,0,0,0,1.46-1.78A3.9,3.9,0,0,0,43.8,89a2.93,2.93,0,0,0-.51-1.72,3.39,3.39,0,0,0-1.43-1.13,5.41,5.41,0,0,0-2.14-.4,6,6,0,0,0-2.59.54,4.42,4.42,0,0,0-1.77,1.5L37.21,89a2.5,2.5,0,0,1,1-.82,3,3,0,0,1,1.3-.27,2.07,2.07,0,0,1,1.31.35,1.22,1.22,0,0,1,.44,1,2.12,2.12,0,0,1-.23.92,4.55,4.55,0,0,1-.91,1.1l-4.23,4v1.65h8.29V94.86H39.44Z"/><polygon class="cls-1" points="54.74 86.67 52.72 86.67 52.72 89.24 50.01 89.24 50.01 91.09 52.72 91.09 52.72 93.67 54.74 93.67 54.74 91.09 57.47 91.09 57.47 89.24 54.74 89.24 54.74 86.67"/><rect class="cls-1" x="50.01" y="95.01" width="7.46" height="1.91"/><polygon class="cls-1" points="71.74 90.5 69.34 90.5 69.34 92.55 66.39 92.55 71.19 85.95 68.53 85.95 63.35 92.91 63.35 94.62 69.26 94.62 69.26 96.93 71.74 96.93 71.74 94.62 73.53 94.62 73.53 92.55 71.74 92.55 71.74 90.5"/><polygon class="cls-1" points="73.97 96.93 76.4 96.93 78.08 88.49 75.64 88.49 73.97 96.93"/><path class="cls-1" d="M77.46,84.59a1.69,1.69,0,0,0-1.17.41,1.4,1.4,0,0,0-.44,1,1.18,1.18,0,0,0,.4.9,1.47,1.47,0,0,0,1,.36,1.64,1.64,0,0,0,1.17-.41,1.43,1.43,0,0,0,.46-1.09,1.14,1.14,0,0,0-.4-.87A1.52,1.52,0,0,0,77.46,84.59Z"/><polygon class="cls-1" points="89.1 85.29 85.3 96.91 83.2 90.48 79.35 90.48 79.35 92.38 81.4 92.38 84.03 99.97 86.56 99.97 91.37 85.29 89.1 85.29"/><path class="cls-1" d="M97,90.42l2.48-2.82V86H91.76v2h4.68l-2.26,2.56v1.67h1.16c1.37,0,2,.45,2,1.35a1.16,1.16,0,0,1-.55,1,2.6,2.6,0,0,1-1.5.37,5.38,5.38,0,0,1-1.69-.26A4.8,4.8,0,0,1,92.2,94l-1,1.94a5.79,5.79,0,0,0,1.91.87,8.82,8.82,0,0,0,2.28.31,6,6,0,0,0,2.52-.49,3.58,3.58,0,0,0,1.53-1.29,3.34,3.34,0,0,0,.5-1.77,3,3,0,0,0-.77-2.08A3.7,3.7,0,0,0,97,90.42Z"/><path class="cls-1" d="M43.12,13.09A2.12,2.12,0,0,0,42,13.4a2.15,2.15,0,0,0-.78.88,2.86,2.86,0,0,0-.28,1.3,1.65,1.65,0,0,0,.45,1.22,1.69,1.69,0,0,0,1.26.45,2.12,2.12,0,0,0,1.94-1.2,2.79,2.79,0,0,0,.28-1.29,1.65,1.65,0,0,0-.45-1.22A1.75,1.75,0,0,0,43.12,13.09Z"/><path class="cls-1" d="M93.91,10.87a1.58,1.58,0,0,0-1.4.77A4.4,4.4,0,0,0,92,14a4.42,4.42,0,0,0,.51,2.39,1.67,1.67,0,0,0,2.81,0A4.42,4.42,0,0,0,95.83,14a4.4,4.4,0,0,0-.51-2.39A1.59,1.59,0,0,0,93.91,10.87Z"/><path class="cls-1" d="M0,0V27.64H100V0ZM7.44,19l.14-.74a3.31,3.31,0,0,1-2.32.85,3.36,3.36,0,0,1-1.63-.4,3.21,3.21,0,0,1-1.19-1.18A3.59,3.59,0,0,1,2,15.67a4.58,4.58,0,0,1,.56-2.25,4.1,4.1,0,0,1,1.51-1.58,4,4,0,0,1,2.11-.57,2.68,2.68,0,0,1,2.46,1.14l.2-1H11L9.53,19Zm8.67,0-1.24-2.32L12.69,19h-2.5L14,15.07l-2-3.69h2.28l1.19,2.23,2.11-2.23H20l-3.64,3.79L18.43,19Zm8.32-4H19.52V14L22,11.89a2.7,2.7,0,0,0,.54-.57.78.78,0,0,0,.14-.44.56.56,0,0,0-.25-.48,1.31,1.31,0,0,0-.76-.18,1.73,1.73,0,0,0-.76.16,1.51,1.51,0,0,0-.55.44l-1.12-.67a2.4,2.4,0,0,1,1-.85A3.68,3.68,0,0,1,21.76,9a2.88,2.88,0,0,1,1.79.49,1.52,1.52,0,0,1,.66,1.28,1.63,1.63,0,0,1-.24.85,4,4,0,0,1-.88,1l-1.35,1.18h2.69Zm10.31,0H32.29v2.39H30.48V14.89H28.05V13.17h2.43V10.78h1.81v2.39h2.45ZM45,18.49a4.09,4.09,0,0,1-2.13.57,3.45,3.45,0,0,1-1.53-.31,2.23,2.23,0,0,1-1-.92L40.13,19H38.05L40.13,8.52h2.19L41.62,12a3.33,3.33,0,0,1,2.18-.76,3.44,3.44,0,0,1,1.64.41,2.94,2.94,0,0,1,1.19,1.18,3.48,3.48,0,0,1,.44,1.8,4.58,4.58,0,0,1-.55,2.26A4.14,4.14,0,0,1,45,18.49Zm9.38.46H52.07l-1.24-2.32L48.65,19h-2.5l3.78-3.88-2-3.69H50.2l1.19,2.23,2.11-2.23h2.42l-3.64,3.79ZM65,14.89H62.56v2.39H60.74V14.89H58.31V13.17h2.43V10.78h1.82v2.39H65Zm6.13,1.9a1.74,1.74,0,0,0,1.29.46,2.08,2.08,0,0,0,1.86-1l1.61,1a3.63,3.63,0,0,1-1.49,1.33,5,5,0,0,1-4.14.06,3.14,3.14,0,0,1-1.35-1.19,3.35,3.35,0,0,1-.47-1.78A4.39,4.39,0,0,1,69,13.42a4.23,4.23,0,0,1,1.65-1.57,4.89,4.89,0,0,1,2.37-.58,4.17,4.17,0,0,1,2.09.5,3.13,3.13,0,0,1,1.32,1.42l-1.86.92a1.73,1.73,0,0,0-1.69-1,2.12,2.12,0,0,0-2,1.19,2.8,2.8,0,0,0-.29,1.28A1.63,1.63,0,0,0,71.14,16.79Zm15-.16H79.41V14.91H86.1Zm0-3.49H79.41V11.43H86.1Zm11.49,3.62a4.12,4.12,0,0,1-1.5,1.75,4,4,0,0,1-5.86-1.75A6.33,6.33,0,0,1,89.69,14a6.41,6.41,0,0,1,.54-2.74,4.1,4.1,0,0,1,1.5-1.75,4.26,4.26,0,0,1,4.36,0,4.24,4.24,0,0,1,1.5,1.75A6.41,6.41,0,0,1,98.13,14,6.33,6.33,0,0,1,97.59,16.76Z"/><path class="cls-1" d="M6.43,13.09a2.13,2.13,0,0,0-1.15.31,2.17,2.17,0,0,0-.79.88,2.86,2.86,0,0,0-.28,1.3,1.62,1.62,0,0,0,.46,1.22,1.71,1.71,0,0,0,1.27.45,2.12,2.12,0,0,0,1.94-1.2,2.79,2.79,0,0,0,.28-1.29,1.62,1.62,0,0,0-.46-1.22A1.71,1.71,0,0,0,6.43,13.09Z"/><path class="cls-1" d="M4.18,49H1.93a10.68,10.68,0,0,0-1.4,3.19A15.69,15.69,0,0,0,.53,60a10.91,10.91,0,0,0,1.4,3.19H4.18a13.76,13.76,0,0,1-1.39-3.41,15.53,15.53,0,0,1,0-7.34A13.91,13.91,0,0,1,4.18,49Z"/><polygon class="cls-1" points="11.45 52.12 9.18 54.51 7.89 52.12 5.44 52.12 7.6 56.08 3.53 60.26 6.22 60.26 8.57 57.76 9.9 60.26 12.4 60.26 10.13 56.19 14.05 52.12 11.45 52.12"/><polygon class="cls-1" points="22.03 51.47 20.08 51.47 20.08 54.04 17.46 54.04 17.46 55.88 20.08 55.88 20.08 58.46 22.03 58.46 22.03 55.88 24.66 55.88 24.66 54.04 22.03 54.04 22.03 51.47"/><path class="cls-1" d="M36.7,58.72a3.19,3.19,0,0,0,.48-1.7,2.8,2.8,0,0,0-.74-2,3.48,3.48,0,0,0-2.13-1l2.39-2.73V49.67H29.29v2h4.5L31.61,54.1v1.62h1.13c1.32,0,2,.43,2,1.3a1.16,1.16,0,0,1-.53,1,2.66,2.66,0,0,1-1.45.35,5.28,5.28,0,0,1-1.63-.25,4.49,4.49,0,0,1-1.4-.7l-.95,1.87a5.33,5.33,0,0,0,1.83.84,8.29,8.29,0,0,0,2.21.3A5.67,5.67,0,0,0,35.22,60,3.36,3.36,0,0,0,36.7,58.72Z"/><path class="cls-1" d="M37.88,63.19h2.25A10.5,10.5,0,0,0,41.56,60a15.21,15.21,0,0,0,.48-3.9,14.91,14.91,0,0,0-.49-3.91A10.34,10.34,0,0,0,40.13,49H37.88a14.36,14.36,0,0,1,1.4,3.41,15.19,15.19,0,0,1,0,7.34A14.19,14.19,0,0,1,37.88,63.19Z"/><path class="cls-1" d="M47.61,53.4a4.52,4.52,0,0,0,.94-1,1.79,1.79,0,0,0,.25-.92,1.66,1.66,0,0,0-.7-1.38,3.16,3.16,0,0,0-1.93-.53,3.87,3.87,0,0,0-1.68.34,2.52,2.52,0,0,0-1.07.91l1.21.72a1.36,1.36,0,0,1,.58-.47,1.86,1.86,0,0,1,.82-.18,1.39,1.39,0,0,1,.82.2.6.6,0,0,1,.27.51.88.88,0,0,1-.16.48,2.82,2.82,0,0,1-.58.61l-2.62,2.27v1H49V54.67H46.16Z"/><polygon class="cls-1" points="58.34 51.47 56.39 51.47 56.39 54.04 53.77 54.04 53.77 55.88 56.39 55.88 56.39 58.46 58.34 58.46 58.34 55.88 60.98 55.88 60.98 54.04 58.34 54.04 58.34 51.47"/><polygon class="cls-1" points="68.72 55.31 69.97 49.03 67.61 49.03 65.37 60.26 67.73 60.26 68.13 58.29 69.56 57.09 71.5 60.26 74.24 60.26 71.44 55.66 75.69 52.12 72.62 52.12 68.72 55.31"/><rect class="cls-1" x="78.97" y="52.16" width="7.2" height="1.85"/><rect class="cls-1" x="78.97" y="55.91" width="7.2" height="1.85"/><path class="cls-1" d="M97.75,50.14a4.21,4.21,0,0,0-2.34-.66,4.27,4.27,0,0,0-2.35.66A4.39,4.39,0,0,0,91.45,52a7.74,7.74,0,0,0,0,5.88,4.42,4.42,0,0,0,1.61,1.89,4.35,4.35,0,0,0,2.35.65,4.29,4.29,0,0,0,2.34-.65,4.38,4.38,0,0,0,1.62-1.89,7.74,7.74,0,0,0,0-5.88A4.35,4.35,0,0,0,97.75,50.14Zm-.82,7.39a1.79,1.79,0,0,1-3,0A4.79,4.79,0,0,1,93.35,55a4.79,4.79,0,0,1,.55-2.57,1.8,1.8,0,0,1,3,0A4.7,4.7,0,0,1,97.48,55,4.7,4.7,0,0,1,96.93,57.53Z"/></svg>