<?xml version="1.0" encoding="utf-8"?>
<!-- Generator: Adobe Illustrator 24.0.0, SVG Export Plug-In . SVG Version: 6.00 Build 0)  -->
<svg version="1.1" id="Layer_1" xmlns="http://www.w3.org/2000/svg" xmlns:xlink="http://www.w3.org/1999/xlink" x="0px" y="0px"
	 viewBox="0 0 100 100" style="enable-background:new 0 0 100 100;" xml:space="preserve">
<style type="text/css">
	.st0{fill:none;}
	.st1{fill:#FFFFFF;}
	.st2{fill:#FFFFFF;stroke:#FFFFFF;stroke-width:0.25;stroke-miterlimit:10;}
	.st3{fill:none;stroke:#000000;stroke-width:0.25;stroke-linecap:round;stroke-miterlimit:10;}
	.st4{fill:#D9D9D9;}
	.st5{fill:none;stroke:#000000;stroke-width:2;stroke-linejoin:round;stroke-miterlimit:10;}
	.st6{fill:none;stroke:#000000;stroke-width:0.4396;stroke-miterlimit:10;}
	.st7{fill:none;stroke:#000000;stroke-linecap:round;stroke-linejoin:round;}
	.st8{fill:none;stroke:#000000;stroke-linecap:round;stroke-linejoin:round;stroke-miterlimit:10;}
</style>
<g>
	<path d="M47.52,30.31c0.56-0.3,1.2-0.45,1.91-0.45c0.75,0,1.35,0.16,1.8,0.49c0.45,0.33,0.68,0.78,0.68,1.34
		c0,0.4-0.12,0.75-0.36,1.07c-0.24,0.31-0.61,0.7-1.11,1.16c-0.69,0.63-1.21,1.2-1.57,1.72c-0.36,0.52-0.54,1.18-0.54,1.97h3.46
		c0-0.49,0.13-0.91,0.39-1.25s0.67-0.77,1.24-1.27c0.47-0.43,0.86-0.81,1.16-1.13c0.3-0.33,0.55-0.73,0.76-1.2s0.31-1.02,0.31-1.65
		c0-1.33-0.53-2.37-1.59-3.12c-1.06-0.75-2.47-1.12-4.23-1.12c-1.5,0-2.79,0.27-3.88,0.8c-1.09,0.54-1.96,1.29-2.6,2.27l2.77,1.63
		C46.5,31.02,46.97,30.6,47.52,30.31z"/>
	<path d="M50.08,39.23c-0.64,0-1.17,0.2-1.58,0.58c-0.41,0.39-0.62,0.88-0.62,1.46c0,0.58,0.21,1.07,0.63,1.48
		c0.42,0.41,0.94,0.61,1.57,0.61c0.63,0,1.15-0.2,1.57-0.61c0.42-0.41,0.63-0.9,0.63-1.48c0-0.58-0.21-1.07-0.62-1.46
		C51.25,39.43,50.72,39.23,50.08,39.23z"/>
	<rect x="0" y="33.14" width="24" height="2.36"/>
	<rect x="76" y="33.36" width="23.97" height="2.35"/>
	<polygon points="10.29,28.21 16.79,28.21 16.79,0.15 4.68,0.15 4.68,5.36 10.29,5.36 	"/>
	<path d="M12.86,53.43L2.04,63.65v4.21h21.21v-5.29H11.18l6.46-6.09c1.84-1.71,3.09-3.23,3.73-4.57c0.64-1.34,0.96-2.77,0.96-4.29
		c0-1.68-0.43-3.15-1.3-4.39c-0.87-1.24-2.08-2.21-3.65-2.88c-1.57-0.68-3.39-1.02-5.47-1.02c-2.49,0-4.69,0.46-6.61,1.38
		c-1.92,0.92-3.44,2.2-4.53,3.83l4.73,3.05c0.67-0.94,1.5-1.64,2.49-2.11c0.99-0.47,2.1-0.7,3.33-0.7c1.47,0,2.59,0.3,3.35,0.9
		c0.76,0.6,1.14,1.46,1.14,2.58c0,0.78-0.2,1.56-0.6,2.35C14.79,51.39,14.01,52.33,12.86,53.43z"/>
	<path d="M90.93,22.29c-0.93,0.63-2.22,0.94-3.84,0.94c-1.47,0-2.9-0.22-4.3-0.66c-1.4-0.44-2.64-1.06-3.7-1.86l-2.52,4.97
		c1.33,0.96,2.95,1.7,4.86,2.22c1.91,0.52,3.85,0.78,5.83,0.78c2.53,0,4.68-0.41,6.42-1.24c1.75-0.83,3.05-1.93,3.9-3.3
		s1.28-2.88,1.28-4.5c0-2.11-0.65-3.88-1.96-5.31c-1.31-1.43-3.19-2.34-5.65-2.74l6.33-7.21v-4.2H77.96v5.2h11.93l-5.77,6.53v4.28
		h2.96c3.5,0,5.25,1.15,5.25,3.44C92.33,20.78,91.87,21.66,90.93,22.29z"/>
	<polygon points="89.08,67.55 95.4,67.55 95.4,61.67 99.96,61.67 99.96,56.38 95.4,56.38 95.4,51.14 89.27,51.14 89.27,56.38 
		81.75,56.38 94,39.53 87.19,39.53 73.98,57.31 73.98,61.67 89.08,61.67 	"/>
	<path d="M40.07,47.1h19.89c1.16,0,2.11-0.95,2.11-2.11V25.1c0-1.16-0.95-2.11-2.11-2.11H40.07c-1.16,0-2.11,0.95-2.11,2.11v19.89
		C37.95,46.15,38.9,47.1,40.07,47.1z M39.36,25.1c0-0.38,0.32-0.7,0.7-0.7h19.89c0.38,0,0.7,0.32,0.7,0.7v19.89
		c0,0.38-0.32,0.7-0.7,0.7H40.07c-0.38,0-0.7-0.32-0.7-0.7V25.1z"/>
	<path d="M23.46,78.23H7.77c-0.3,0-0.56,0.25-0.56,0.56v15.7c0,0.3,0.25,0.56,0.56,0.56h15.7c0.3,0,0.56-0.25,0.56-0.56v-15.7
		C24.02,78.48,23.77,78.23,23.46,78.23z M20.9,83.81l-7.75,2.82l7.75,2.84v2.89L9.82,88.14v-3.03L20.9,80.9V83.81z"/>
	<path d="M57.85,78.23h-15.7c-0.3,0-0.56,0.25-0.56,0.56v15.7c0,0.3,0.25,0.56,0.56,0.56h15.7c0.3,0,0.56-0.25,0.56-0.56v-15.7
		C58.4,78.48,58.15,78.23,57.85,78.23z M55.63,91.01H44.37v-2.89h11.27V91.01z M55.63,85.14H44.37v-2.89h11.27V85.14z"/>
	<path d="M0,73.08V100h100V73.08H0z M25.13,94.48c0,0.92-0.75,1.67-1.67,1.67H7.77c-0.92,0-1.67-0.75-1.67-1.67v-15.7
		c0-0.92,0.75-1.67,1.67-1.67h15.7c0.92,0,1.67,0.75,1.67,1.67V94.48z M59.52,94.48c0,0.92-0.75,1.67-1.67,1.67h-15.7
		c-0.92,0-1.67-0.75-1.67-1.67v-15.7c0-0.92,0.75-1.67,1.67-1.67h15.7c0.92,0,1.67,0.75,1.67,1.67V94.48z M93.9,94.48
		c0,0.92-0.75,1.67-1.67,1.67h-15.7c-0.92,0-1.67-0.75-1.67-1.67v-15.7c0-0.92,0.75-1.67,1.67-1.67h15.7c0.92,0,1.67,0.75,1.67,1.67
		V94.48z"/>
	<path d="M92.23,78.23h-15.7c-0.3,0-0.56,0.25-0.56,0.56v15.7c0,0.3,0.25,0.56,0.56,0.56h15.7c0.3,0,0.56-0.25,0.56-0.56v-15.7
		C92.79,78.48,92.53,78.23,92.23,78.23z M89.92,88.14l-11.08,4.21v-2.91l7.75-2.82l-7.75-2.84V80.9l11.08,4.21V88.14z"/>
</g>
</svg>
