<?xml version="1.0" encoding="utf-8"?>
<!-- Generator: Adobe Illustrator 24.0.0, SVG Export Plug-In . SVG Version: 6.00 Build 0)  -->
<svg version="1.1" id="Layer_1" xmlns="http://www.w3.org/2000/svg" xmlns:xlink="http://www.w3.org/1999/xlink" x="0px" y="0px"
	 viewBox="0 0 100 100" style="enable-background:new 0 0 100 100;" xml:space="preserve">
<style type="text/css">
	.st0{fill:none;}
	.st1{fill:#FFFFFF;}
	.st2{fill:#FFFFFF;stroke:#FFFFFF;stroke-width:0.25;stroke-miterlimit:10;}
	.st3{fill:none;stroke:#000000;stroke-width:0.25;stroke-linecap:round;stroke-miterlimit:10;}
	.st4{fill:#D9D9D9;}
	.st5{fill:none;stroke:#000000;stroke-width:2;stroke-linejoin:round;stroke-miterlimit:10;}
	.st6{fill:none;stroke:#000000;stroke-width:0.4396;stroke-miterlimit:10;}
	.st7{fill:none;stroke:#000000;stroke-linecap:round;stroke-linejoin:round;}
	.st8{fill:none;stroke:#000000;stroke-linecap:round;stroke-linejoin:round;stroke-miterlimit:10;}
</style>
<path d="M33.92,83.07v-0.61H17.61v-3.45c0.92-0.11,1.63-0.89,1.63-1.83c0-0.32-0.09-0.62-0.23-0.88l7.81-7.85
	c0.12-0.12,0.18-0.27,0.18-0.43s-0.06-0.32-0.18-0.43c-0.24-0.24-0.62-0.24-0.86,0l-7.84,7.89c-0.16-0.07-0.32-0.1-0.5-0.12v-9.52
	H17v9.54c-0.84,0.18-1.47,0.92-1.47,1.81c0,0.26,0.05,0.51,0.15,0.73l-3.16,3.17c-0.25-0.12-0.52-0.19-0.81-0.19
	c-0.29,0-0.56,0.07-0.8,0.19l-9.7-9.65c-0.11-0.12-0.27-0.18-0.43-0.18c0,0,0,0,0,0c-0.16,0-0.32,0.06-0.43,0.18
	c-0.12,0.11-0.18,0.27-0.18,0.43s0.06,0.32,0.18,0.43l9.7,9.65c-0.08,0.16-0.13,0.34-0.16,0.53H0.01v0.61H9.9
	c0.03,0.17,0.09,0.33,0.16,0.48l-3.26,3.28c-0.11,0.12-0.18,0.27-0.18,0.43c0,0.16,0.06,0.32,0.18,0.43
	c0.11,0.12,0.27,0.18,0.43,0.18c0.16,0,0.32-0.06,0.43-0.18l3.26-3.28c0.24,0.11,0.51,0.18,0.79,0.18c0.29,0,0.57-0.07,0.81-0.2
	L17,88.85v10.87h0.61V89.45l2,1.99c0.11,0.12,0.27,0.18,0.43,0.18c0.16,0,0.31-0.06,0.43-0.18c0.12-0.12,0.18-0.27,0.18-0.43
	c0-0.16-0.06-0.32-0.18-0.43l-2.86-2.84v-4.66H33.92z M13.39,81.94l3.13-3.14c0.15,0.08,0.31,0.15,0.49,0.19v3.47h-3.46
	C13.52,82.28,13.47,82.11,13.39,81.94z M13.39,83.54c0.07-0.15,0.12-0.3,0.15-0.46H17v4.06L13.39,83.54z M74.43,71.66L64.02,61.25
	l0.31-0.45c2.29-3.31,3.5-7.21,3.5-11.28c0-2.43-0.46-4.75-1.26-6.9c-0.89-2.39-2.22-4.56-3.9-6.42c-0.01-0.01-0.02-0.02-0.03-0.03
	c-1.5-1.65-3.26-3.06-5.23-4.14c-2.82-1.54-6.05-2.41-9.49-2.41c-10.98,0-19.91,8.93-19.91,19.91c0,0.72,0.04,1.42,0.12,2.12
	c0.24,2.27,0.89,4.43,1.83,6.41c0,0.01,0.01,0.02,0.01,0.03c1.18,2.47,2.85,4.65,4.89,6.43c3.5,3.05,8.06,4.92,13.06,4.92
	c4.01,0,8.01-1.25,11.28-3.51l0.45-0.31l10.41,10.38c0.56,0.59,1.35,0.92,2.17,0.92c1.67,0,3.08-1.41,3.08-3.08
	C75.31,73.02,74.98,72.21,74.43,71.66z M37.24,58.05c-1.46-1.82-2.46-4-2.84-6.41c-0.11-0.7-0.21-1.39-0.21-2.12
	c0-7.58,6.16-13.74,13.74-13.74c2.83,0,5.46,0.86,7.65,2.33c2.07,1.39,3.7,3.34,4.77,5.62c0.01,0.01,0.01,0.02,0.02,0.03
	c0.82,1.76,1.31,3.69,1.31,5.76c0,7.58-6.16,13.74-13.74,13.74c-4.33,0-8.15-2.05-10.67-5.19C37.25,58.06,37.25,58.06,37.24,58.05z
	 M31.77,6.35c0-0.11-0.03-0.21-0.06-0.3c-0.01-0.02-0.02-0.05-0.03-0.07c-0.04-0.09-0.1-0.17-0.17-0.23c0,0-0.01-0.01-0.01-0.01h0
	c0,0,0,0,0,0c-0.01-0.01-0.03-0.01-0.04-0.02c-0.03-0.03-0.07-0.06-0.11-0.08l0,0l0,0l-4.56-2.48l-5.65-3.08c0,0,0,0,0,0l0,0
	c-0.03-0.02-0.06-0.02-0.09-0.03c-0.03-0.01-0.07-0.03-0.1-0.03c-0.09-0.02-0.19-0.03-0.29-0.02c0,0,0,0,0,0h0c0,0,0,0,0,0
	c0,0,0,0,0,0h0c0,0,0,0,0,0c0,0,0,0,0,0L0.69,2.79c-0.01,0-0.02,0.01-0.03,0.01C0.6,2.81,0.54,2.83,0.48,2.86
	C0.18,3-0.04,3.3-0.04,3.65l-0.04,21.52l0,0v0l0,0l0,0v0c0,0,0,0,0,0c0,0.11,0.03,0.21,0.06,0.3c0.01,0.02,0.01,0.04,0.02,0.06
	c0.04,0.09,0.1,0.18,0.18,0.25c0,0,0,0.01,0.01,0.01c0,0,0,0,0,0c0.01,0.01,0.02,0.01,0.03,0.02c0.04,0.03,0.07,0.06,0.11,0.08
	l10.21,5.55c0,0,0,0,0,0l0.01,0.01l0,0l0.03,0.01c0.11,0.05,0.22,0.09,0.34,0.09c0,0,0,0,0,0h0c0,0,0,0,0,0l0.11-0.01
	c0.01,0,0.03-0.01,0.04-0.01l19.91-2.79c0.08-0.01,0.15-0.04,0.21-0.07c0.31-0.13,0.52-0.43,0.52-0.77c0,0,0,0,0,0c0,0,0,0,0,0
	L31.77,6.35z M3.5,25.6l6.65-0.93l-0.01,4.54L6.43,27.2L3.5,25.6z M11.8,22.75l0.02-12.84l8.07-1.13l-0.02,12.84L11.8,22.75z
	 M28.18,5.92l-6.64,0.93l0.01-4.54l0.2,0.11L28.18,5.92z M19.91,1.78l-0.01,5.3l-8.77,1.23L3.38,4.1l1.98-0.28L19.91,1.78z
	 M10.17,9.59l-0.01,4.41l-0.02,8.98l-8.57,1.2L1.61,4.94l4.44,2.41L10.17,9.59z M21.51,21.93l0.02-13.38l8.58-1.21l-0.03,19.2
	l0,0.05L21.51,21.93z M11.79,29.75l0.01-5.31l8.76-1.23l7.75,4.22l-2.11,0.3L11.79,29.75z M98.15,23.23v1.02
	c-0.94,0.42-2.03,0.79-3.25,1.12c-1.23,0.32-2.37,0.56-3.4,0.73h-1.21V4.43H81v9.23c0,1.03-0.04,2.11-0.12,3.21
	c-0.08,1.1-0.21,2.18-0.39,3.23c-0.18,1.05-0.39,2.05-0.63,3.01c-0.24,0.96-0.51,1.81-0.8,2.55c-0.29,0.16-0.71,0.25-1.26,0.27
	c-0.55,0.02-1.09,0.02-1.6,0c-0.52-0.01-0.97-0.06-1.36-0.12c-0.39-0.07-0.58-0.11-0.58-0.15L74,25.27c0.71-1.1,1.36-2.51,1.95-4.23
	c0.58-1.72,1.07-3.54,1.48-5.49s0.71-3.9,0.92-5.85c0.21-1.96,0.32-3.71,0.32-5.27h-0.83c-0.91,0-1.78,0.24-2.62,0.71
	c-0.84,0.47-1.63,1.19-2.38,2.16l-0.63-0.39c0.16-0.81,0.37-1.57,0.63-2.28c0.26-0.71,0.64-1.34,1.14-1.87
	c0.5-0.54,1.17-0.95,1.99-1.26s1.89-0.45,3.18-0.41c0.36,0,1.01,0.01,1.97,0.05c0.95,0.03,2.07,0.07,3.35,0.09
	c1.28,0.03,2.65,0.07,4.1,0.1c7.84,0.18-3.57,0.05,4.18,0.05c1.03,0,1.9-0.01,2.6-0.02c0.7-0.01,1.28-0.07,1.75-0.17
	c0.47-0.09,0.87-0.23,1.19-0.39c0.32-0.16,0.65-0.39,0.97-0.68l0.68,0.44c-0.13,1.03-0.55,1.95-1.26,2.72
	c-0.71,0.78-1.76,1.17-3.16,1.17h-0.58v18.41L98.15,23.23z M76.12,85.58c-0.26,0.23-0.41,0.58-0.47,1.04l-0.07,0.55h2.45l-0.25,2.13
	h-2.36l-0.89,7.09c-0.13,1.09-0.55,1.96-1.24,2.59c-0.7,0.64-1.61,0.96-2.72,0.96c-0.45,0-0.86-0.04-1.25-0.13
	c-0.38-0.09-0.69-0.22-0.94-0.4l0.94-2.01c0.3,0.23,0.66,0.34,1.1,0.34c0.37,0,0.67-0.12,0.91-0.35c0.24-0.23,0.38-0.58,0.43-1.04
	l0.89-7.05h-1.49l0.27-2.13h1.49l0.07-0.59c0.13-1.09,0.55-1.96,1.25-2.59c0.7-0.64,1.63-0.96,2.78-0.96c0.4,0,0.8,0.05,1.19,0.14
	c0.39,0.09,0.71,0.22,0.94,0.39l-0.96,2.01c-0.34-0.22-0.7-0.34-1.08-0.34C76.7,85.23,76.37,85.34,76.12,85.58z M79.3,97.47
	c-0.18-0.94-0.27-1.87-0.27-2.81c0-2.13,0.36-4.21,1.07-6.24c0.71-2.03,1.71-3.78,2.99-5.26h2.77c-1.36,1.76-2.39,3.63-3.09,5.6
	c-0.7,1.97-1.05,3.98-1.05,6.04c0,1.66,0.27,3.32,0.82,4.99h-2.54C79.71,99.18,79.48,98.41,79.3,97.47z M90.94,91.57l2.67,4.78
	h-2.93l-1.56-2.93l-2.76,2.93h-3.16l4.78-4.9l-2.54-4.66h2.88l1.51,2.81l2.67-2.81h3.06L90.94,91.57z M96.22,94.2
	c0.7-1.97,1.05-3.98,1.05-6.04c0-1.66-0.27-3.32-0.82-4.99h2.54c0.28,0.62,0.51,1.39,0.69,2.33c0.18,0.94,0.27,1.87,0.27,2.81
	c0,2.13-0.36,4.21-1.07,6.24c-0.71,2.03-1.71,3.78-2.99,5.26h-2.77C94.49,98.04,95.52,96.17,96.22,94.2z"/>
</svg>
