<svg id="Layer_1" data-name="Layer 1" xmlns="http://www.w3.org/2000/svg" viewBox="0 0 100 100"><defs><style>.cls-1{fill:#231f20;}</style></defs><title> </title><path class="cls-1" d="M100,8.22V8H92.06V0h-.25V8H84V0h-.25V8H75.89V0h-.25V8H67.81V0h-.25V8H59.73V0h-.25V8H51.65V0H51.4V8H43.57V0h-.25V8H35.48V0h-.25V8H27.4V0h-.25V8H19.32V0h-.25V8H11.24V0H11V8H3V0H0v100H0v0H100V97H92.06V89H100v-.25H92.06V80.94H100v-.25H92.06V72.86H100v-.25H92.06V64.78H100v-.25H92.06V56.7H100v-.25H92.06V48.62H100v-.25H92.06V40.54H100v-.25H92.06V32.46H100v-.25H92.06V24.38H100v-.25H92.06V16.3H100v-.25H92.06V8.22Zm-16.25,0v7.83H75.89V8.22ZM72.2,33.58l-4.39,3.79V32.46h3.42Zm-4.64,4-3.14,2.71H59.73V32.46h7.83ZM23.67,80.69a4.44,4.44,0,0,0-.61-2.12L27.15,75v5.65ZM59.48,44.55l-4.43,3.82h-3a2.71,2.71,0,0,0-.4,0V40.54h7.83Zm.25-4h4.4l-4.4,3.79Zm-24.25,24V56.7h7.84v1.77l-7,6.06Zm.52.25-.52.44v-.44Zm12.87-8.45a.88.88,0,0,1,.15.12h-.29Zm-.5-6.71a4.45,4.45,0,0,0-.79,5.18l-1.91,1.65h-2.1V48.62h6.36A4.43,4.43,0,0,0,48.37,49.62Zm-3,7.08-1.81,1.56V56.7Zm-2.06-.25H35.48V48.62h7.84Zm0,4.66v3.42h-4Zm.25-.21,4.87-4.2h1a4.55,4.55,0,0,0,1.93.51v7.32H43.57ZM54.12,49.17a4.27,4.27,0,0,0-1-.55h1.63Zm-2.72-.84a2.85,2.85,0,0,0-.41,0H43.57V40.54H51.4Zm-8.08,0H35.48V40.54h7.84Zm-8.09,0H27.4V40.54h7.83Zm0,.25v7.83H27.4V48.62Zm0,8.08v7.83H27.4V56.7Zm0,8.08v.66L27.4,72.19V64.78Zm0,3.3v4.53H30Zm.25-.22,3.58-3.08h4.26v7.83H35.48Zm8.09-3.08H51.4v7.83H43.57Zm8.08,0h7.83v7.83H51.65Zm0-.25V57.21a4.5,4.5,0,0,0,1.92-.51h5.91v7.83ZM54,56.45a4.7,4.7,0,0,0,.65-.53,4.44,4.44,0,0,0,.76-5.24l2.39-2.06h1.66v7.83Zm4.09-8.08,1.37-1.18v1.18Zm-6.46-8.08V32.46h7.83v7.83Zm-.25,0H43.57V32.46H51.4Zm-8.08,0H35.48V32.46h7.84Zm-8.09,0H27.4V32.46h7.83Zm-8.08,0H19.32V32.46h7.83Zm0,.25v7.83H19.32V40.54Zm0,8.08v7.83H19.32V48.62Zm0,8.08v7.83H19.32V56.7Zm0,8.08V72.4l-.24.21H19.32V64.78Zm-.53,8.08L21.7,77.1a4.55,4.55,0,0,0-2.38-.73V72.86Zm.78,2,2.29-2h5.54v7.83H27.4Zm8.08-2h7.84v7.83H35.48Zm8.09,0H51.4v7.83H43.57Zm8.08,0h7.83v7.83H51.65Zm8.08,0h7.83v7.83H59.73Zm0-.25V64.78h7.83v7.83Zm0-8.08V56.7h7.83v7.83Zm0-8.08V48.62h7.83v7.83Zm0-8.08V47l7.47-6.43h.36v7.83Zm7.76-8.08.07-.07v.07Zm-7.76-8.08V24.38h7.83v7.83Zm-.25,0H51.65V24.38h7.83Zm-8.08,0H43.57V24.38H51.4Zm-8.08,0H35.48V24.38h7.84Zm-8.09,0H27.4V24.38h7.83Zm-8.08,0H19.32V24.38h7.83Zm-8.08,0H11.24V24.38h7.83Zm0,.25v7.83H11.24V32.46Zm0,8.08v7.83H11.24V40.54Zm0,8.08v7.83H11.24V48.62Zm0,8.08v7.83H11.24V56.7Zm0,8.08v7.83H11.24V64.78Zm0,8.08v3.52a4.41,4.41,0,0,0-4.28,4.31H11.24V72.86Zm-4.28,8.08a4.41,4.41,0,0,0,4.28,4.31v3.52H11.24V80.94Zm4.53,4.32a4.42,4.42,0,0,0,4.35-4.32h3.48v7.83H19.32Zm8.08-4.32h7.83v7.83H27.4Zm8.08,0h7.84v7.83H35.48Zm8.09,0H51.4v7.83H43.57Zm8.08,0h7.83v7.83H51.65Zm8.08,0h7.83v7.83H59.73Zm8.08,0h7.83v7.83H67.81Zm0-.25V72.86h7.83v7.83Zm0-8.08V64.78h7.83v7.83Zm0-8.08V56.7h7.83v7.83Zm0-8.08V48.62h7.83v7.83Zm0-8.08V40.54h7.83v7.83Zm0-8.08V40l5.7-4.91,2.13,2.47v2.72ZM71,32.21H67.81V24.38h7.83v5l-6,1.14Zm-3.21-8.08V16.3h7.83v7.83Zm-.25,0H59.73V16.3h7.83Zm-8.08,0H51.65V16.3h7.83Zm-8.08,0H43.57V16.3H51.4Zm-8.08,0H35.48V16.3h7.84Zm-8.09,0H27.4V16.3h7.83Zm-8.08,0H19.32V16.3h7.83Zm-8.08,0H11.24V16.3h7.83Zm-8.08,0H3V16.3h8Zm0,.25v7.83H3V24.38Zm0,8.08v7.83H3V32.46Zm0,8.08v7.83H3V40.54Zm0,8.08v7.83H3V48.62Zm0,8.08v7.83H3V56.7Zm0,8.08v7.83H3V64.78Zm0,8.08v7.83H3V72.86Zm0,8.08v7.83H3V80.94ZM11,89v8H3V89Zm.25,0h7.83v8H11.24Zm8.08,0h7.83v8H19.32Zm8.08,0h7.83v8H27.4Zm8.08,0h7.84v8H35.48Zm8.09,0H51.4v8H43.57Zm8.08,0h7.83v8H51.65Zm8.08,0h7.83v8H59.73Zm8.08,0h7.83v8H67.81Zm8.08,0h7.84v8H75.89Zm0-.25V80.94h7.84v7.83Zm0-8.08V72.86h7.84v7.83Zm0-8.08V64.78h7.84v7.83Zm0-8.08V56.7h7.84v7.83Zm0-8.08V48.62h7.84v7.83Zm0-8.08V40.54h7.84v7.83Zm0-8.08V37.86l.22.26,2-5.66h5.64v7.83Zm2.29-8.08L79.4,28.7l-3.51.67v-5h3.52a4.41,4.41,0,0,0,4.32,4.31v3.52Zm5.55-12.4a4.41,4.41,0,0,0-4.32,4.32H75.89V16.3h7.84ZM75.64,8.22v7.83H67.81V8.22Zm-8.08,0v7.83H59.73V8.22Zm-8.08,0v7.83H51.65V8.22Zm-8.08,0v7.83H43.57V8.22Zm-8.08,0v7.83H35.48V8.22Zm-8.09,0v7.83H27.4V8.22Zm-8.08,0v7.83H19.32V8.22Zm-8.08,0v7.83H11.24V8.22ZM11,8.22v7.83H3V8.22ZM91.81,97H84V89h7.83Zm0-8.21H84V80.94h7.83Zm0-8.08H84V72.86h7.83Zm0-8.08H84V64.78h7.83Zm0-8.08H84V56.7h7.83Zm0-8.08H84V48.62h7.83Zm0-8.08H84V40.54h7.83Zm0-8.08H84V32.46h7.83Zm0-8.08H84V28.69a4.41,4.41,0,0,0,4.31-4.31h3.52Zm0-8.08H88.29A4.41,4.41,0,0,0,84,19.81V16.3h7.83Zm0-8.08H84V8.22h7.83Z"/></svg>