<?xml version="1.0" encoding="utf-8"?>
<!-- Generator: Adobe Illustrator 24.0.0, SVG Export Plug-In . SVG Version: 6.00 Build 0)  -->
<svg version="1.1" id="Layer_1" xmlns="http://www.w3.org/2000/svg" xmlns:xlink="http://www.w3.org/1999/xlink" x="0px" y="0px"
	 viewBox="0 0 100 100" style="enable-background:new 0 0 100 100;" xml:space="preserve">
<style type="text/css">
	.st0{fill:none;}
	.st1{fill:#FFFFFF;}
	.st2{fill:#FFFFFF;stroke:#FFFFFF;stroke-width:0.25;stroke-miterlimit:10;}
	.st3{fill:none;stroke:#000000;stroke-width:0.25;stroke-linecap:round;stroke-miterlimit:10;}
	.st4{fill:#D9D9D9;}
	.st5{fill:none;stroke:#000000;stroke-width:2;stroke-linejoin:round;stroke-miterlimit:10;}
	.st6{fill:none;stroke:#000000;stroke-width:0.4396;stroke-miterlimit:10;}
	.st7{fill:none;stroke:#000000;stroke-linecap:round;stroke-linejoin:round;}
	.st8{fill:none;stroke:#000000;stroke-linecap:round;stroke-linejoin:round;stroke-miterlimit:10;}
</style>
<g>
	<path d="M11.7,11.48l72.83-7.14C84.52,4.5,84.5,4.66,84.5,4.82c0,5.5,4.21,10.03,9.58,10.55l-5.67,28.27
		c-0.16,0.82,0.36,1.61,1.18,1.77c0.1,0.02,0.2,0.03,0.3,0.03c0.7,0,1.33-0.49,1.47-1.21l8.52-42.47c0.09-0.47-0.04-0.95-0.36-1.31
		c-0.32-0.35-0.79-0.54-1.26-0.49L11.4,8.48c-0.83,0.08-1.43,0.82-1.35,1.65C10.13,10.95,10.86,11.56,11.7,11.48z M94.28,14.38
		c-4.91-0.42-8.77-4.54-8.77-9.56c0-0.19,0.02-0.39,0.03-0.58l10.99-1.08L94.28,14.38z"/>
	<rect x="85.98" y="41.71" transform="matrix(0.3978 -0.9175 0.9175 0.3978 13.1238 104.9135)" width="1" height="1.51"/>
	<rect x="53.5" y="26.87" transform="matrix(0.3982 -0.9173 0.9173 0.3982 6.4675 66.6141)" width="1" height="3.01"/>
	<rect x="42.44" y="22.08" transform="matrix(0.3982 -0.9173 0.9173 0.3982 4.2081 53.5844)" width="1" height="3.01"/>
	<rect x="47.97" y="24.48" transform="matrix(0.3977 -0.9175 0.9175 0.3977 5.3536 60.1192)" width="1" height="3.01"/>
	<rect x="36.91" y="19.68" transform="matrix(0.398 -0.9174 0.9174 0.398 3.0834 47.0752)" width="1" height="3.01"/>
	<rect x="81.14" y="38.86" transform="matrix(0.3976 -0.9176 0.9176 0.3976 12.1492 99.2295)" width="1" height="3.01"/>
	<rect x="75.62" y="36.46" transform="matrix(0.3976 -0.9176 0.9176 0.3976 11.0173 92.7122)" width="1" height="3.01"/>
	<rect x="31.38" y="17.28" transform="matrix(0.3977 -0.9175 0.9175 0.3977 1.9602 40.5685)" width="1" height="3.01"/>
	<rect x="64.56" y="31.66" transform="matrix(0.3982 -0.9173 0.9173 0.3982 8.7265 79.6434)" width="1" height="3.01"/>
	<rect x="59.03" y="29.27" transform="matrix(0.3976 -0.9176 0.9176 0.3976 7.6223 73.1598)" width="1" height="3.01"/>
	<rect x="70.09" y="34.06" transform="matrix(0.3976 -0.9176 0.9176 0.3976 9.8853 86.1949)" width="1" height="3.01"/>
	<rect x="20.32" y="12.49" transform="matrix(0.3976 -0.9176 0.9176 0.3976 -0.3012 27.5373)" width="1" height="3.01"/>
	<rect x="25.85" y="14.89" transform="matrix(0.3977 -0.9175 0.9175 0.3977 0.8288 34.0518)" width="1" height="3.01"/>
	<rect x="15.48" y="11.15" transform="matrix(0.3982 -0.9173 0.9173 0.3982 -1.2973 21.825)" width="1" height="1.51"/>
	<path d="M56.3,38.34c-0.31-0.77-1.19-1.14-1.97-0.82l-2.59,1.06l0.04-0.45l-1.5-0.12l-0.08,1l0.41,0.03L11.8,54.95
		c-0.55-1.56-1.66-2.83-3.14-3.57c-1.14-0.57-2.39-0.78-3.62-0.63L3,34.38c-0.1-0.83-0.86-1.41-1.68-1.31
		c-0.83,0.1-1.41,0.85-1.31,1.68l3.1,24.96c0.06,0.47,0.33,0.88,0.73,1.11c0.23,0.14,0.5,0.21,0.76,0.21c0.19,0,0.39-0.04,0.57-0.11
		l50.3-20.62C56.25,39.99,56.61,39.1,56.3,38.34z M5.16,51.74c1.04-0.13,2.09,0.05,3.05,0.53c1.27,0.63,2.21,1.72,2.67,3.05
		l-5.02,2.06L5.16,51.74z"/>
	<rect x="3.48" y="34.02" transform="matrix(0.0807 -0.9967 0.9967 0.0807 -31.0075 35.9347)" width="1" height="1.51"/>
	<rect x="8.78" y="33.68" transform="matrix(0.0802 -0.9968 0.9968 0.0802 -26.5563 41.6298)" width="1" height="3.04"/>
	<rect x="14.85" y="34.17" transform="matrix(0.0802 -0.9968 0.9968 0.0802 -21.463 48.1282)" width="1" height="3.04"/>
	<rect x="20.91" y="34.66" transform="matrix(0.0802 -0.9968 0.9968 0.0802 -16.3696 54.6265)" width="1" height="3.04"/>
	<rect x="33.05" y="35.64" transform="matrix(0.0802 -0.9968 0.9968 0.0802 -6.1817 67.6247)" width="1" height="3.04"/>
	<rect x="26.98" y="35.15" transform="matrix(0.0802 -0.9968 0.9968 0.0802 -11.2763 61.1249)" width="1" height="3.04"/>
	<rect x="39.12" y="36.13" transform="matrix(0.0802 -0.9968 0.9968 0.0802 -1.0887 74.1225)" width="1" height="3.04"/>
	<rect x="45.19" y="36.62" transform="matrix(0.0802 -0.9968 0.9968 0.0802 4.0047 80.6209)" width="1" height="3.04"/>
	<path d="M99.93,77.92c-0.21-0.81-1.03-1.29-1.83-1.08L38.37,92.25c-0.02-0.09-0.03-0.18-0.06-0.28c-1.08-4.26-4.69-7.04-8.89-7.11
		L40,61.64c0.34-0.76,0.01-1.65-0.75-2c-0.76-0.34-1.65-0.01-2,0.75L20.37,97.47c-0.24,0.53-0.16,1.15,0.22,1.59
		c0.29,0.35,0.71,0.54,1.15,0.54c0.13,0,0.25-0.02,0.38-0.05l76.73-19.8C99.66,79.55,100.14,78.73,99.93,77.92z M29.08,85.61
		c3.98-0.08,7.48,2.51,8.5,6.55c0.02,0.09,0.04,0.19,0.06,0.28l-13.22,3.41L29.08,85.61z"/>
	<rect x="41.55" y="61.25" transform="matrix(0.2773 -0.9608 0.9608 0.2773 -29.1781 85.2154)" width="1" height="1.51"/>
	<rect x="46.72" y="61.95" transform="matrix(0.2773 -0.9608 0.9608 0.2773 -26.8765 91.2621)" width="1" height="3.09"/>
	<rect x="82.29" y="72.23" transform="matrix(0.2774 -0.9607 0.9607 0.2774 -11.0502 132.8469)" width="1" height="3.09"/>
	<rect x="88.22" y="73.94" transform="matrix(0.2777 -0.9607 0.9607 0.2777 -8.4314 139.7505)" width="1" height="3.09"/>
	<rect x="58.58" y="65.38" transform="matrix(0.2777 -0.9607 0.9607 0.2777 -21.616 105.0912)" width="1" height="3.09"/>
	<rect x="64.51" y="67.09" transform="matrix(0.2774 -0.9607 0.9607 0.2774 -18.966 112.0491)" width="1" height="3.09"/>
	<rect x="70.44" y="68.8" transform="matrix(0.2774 -0.9607 0.9607 0.2774 -16.3271 118.982)" width="1" height="3.09"/>
	<rect x="76.36" y="70.52" transform="matrix(0.2775 -0.9607 0.9607 0.2775 -13.6934 125.9065)" width="1" height="3.08"/>
	<rect x="52.65" y="63.67" transform="matrix(0.2773 -0.9608 0.9608 0.2773 -24.2369 98.1955)" width="1" height="3.09"/>
	<rect x="93.39" y="76.22" transform="matrix(0.2773 -0.9608 0.9608 0.2773 -6.101 145.841)" width="1" height="1.51"/>
</g>
</svg>
