<svg id="Layer_1" data-name="Layer 1" xmlns="http://www.w3.org/2000/svg" viewBox="0 0 100 100"><defs><style>.cls-1{fill:#231f20;}</style></defs><title> </title><path class="cls-1" d="M7.3,89.38A1.67,1.67,0,0,0,9,87.71C9,71.31,13.92,58.3,23.7,49,36.35,37,56.52,31.49,83.63,32.49l-.51,6.39A1.11,1.11,0,0,0,84.71,40l14.56-6.92a1.11,1.11,0,0,0,.15-1.92L86.15,22a1.12,1.12,0,0,0-1.74.83l-.51,6.35C55.78,28.1,34.75,34,21.41,46.6,10.94,56.53,5.63,70.36,5.63,87.71A1.66,1.66,0,0,0,7.3,89.38Z"/><path class="cls-1" d="M42.9,60.56a2.9,2.9,0,0,1,2-.7,3.94,3.94,0,0,1,2.18.68l1.94-4a5.41,5.41,0,0,0-1.9-.79,10.23,10.23,0,0,0-2.4-.29,7.66,7.66,0,0,0-8.15,7.18l-.15,1.19h-3l-.54,4.3h3L34.09,82.34a3.34,3.34,0,0,1-.86,2.1,2.54,2.54,0,0,1-1.83.7,3.55,3.55,0,0,1-2.23-.69l-1.9,4.06a5.27,5.27,0,0,0,1.9.81,11,11,0,0,0,2.52.27,7.85,7.85,0,0,0,5.49-1.94,8.12,8.12,0,0,0,2.51-5.24l1.79-14.33h4.78l.5-4.3H41.81L42,62.66A3.33,3.33,0,0,1,42.9,60.56Z"/><path class="cls-1" d="M62.58,55.7H57a32.26,32.26,0,0,0-6,10.63,37.68,37.68,0,0,0-2.16,12.6,30.24,30.24,0,0,0,.54,5.67,20.64,20.64,0,0,0,1.4,4.7h5.13a32.39,32.39,0,0,1-1.65-10.09A36.22,36.22,0,0,1,56.33,67,40.84,40.84,0,0,1,62.58,55.7Z"/><polygon class="cls-1" points="63.57 82.34 69.14 76.41 72.3 82.34 78.22 82.34 72.84 72.68 82.14 63.02 75.96 63.02 70.57 68.69 67.52 63.02 61.71 63.02 66.84 72.43 57.19 82.34 63.57 82.34"/><path class="cls-1" d="M88.89,78.68A38,38,0,0,0,91,66.07a30.24,30.24,0,0,0-.54-5.67,20.15,20.15,0,0,0-1.4-4.7H84a32.39,32.39,0,0,1,1.65,10.09A36.22,36.22,0,0,1,83.5,78,40.8,40.8,0,0,1,77.26,89.3h5.6A32.67,32.67,0,0,0,88.89,78.68Z"/><path class="cls-1" d="M98.45,97H3V1.52a1.5,1.5,0,0,0-3,0v97H0A1.5,1.5,0,0,0,1.5,100h97a1.5,1.5,0,0,0,0-3Z"/></svg>