<?xml version="1.0" encoding="utf-8"?>
<!-- Generator: Adobe Illustrator 24.0.0, SVG Export Plug-In . SVG Version: 6.00 Build 0)  -->
<svg version="1.1" id="Layer_1" xmlns="http://www.w3.org/2000/svg" xmlns:xlink="http://www.w3.org/1999/xlink" x="0px" y="0px"
	 viewBox="0 0 100 100" style="enable-background:new 0 0 100 100;" xml:space="preserve">
<style type="text/css">
	.st0{fill:none;}
	.st1{fill:#FFFFFF;}
	.st2{fill:#FFFFFF;stroke:#FFFFFF;stroke-width:0.25;stroke-miterlimit:10;}
	.st3{fill:none;stroke:#000000;stroke-width:0.25;stroke-linecap:round;stroke-miterlimit:10;}
	.st4{fill:#D9D9D9;}
	.st5{fill:none;stroke:#000000;stroke-width:2;stroke-linejoin:round;stroke-miterlimit:10;}
	.st6{fill:none;stroke:#000000;stroke-width:0.4396;stroke-miterlimit:10;}
	.st7{fill:none;stroke:#000000;stroke-linecap:round;stroke-linejoin:round;}
	.st8{fill:none;stroke:#000000;stroke-linecap:round;stroke-linejoin:round;stroke-miterlimit:10;}
</style>
<g>
	<rect x="35.38" y="49.83" width="5.77" height="2.55"/>
	<path d="M49.23,48.38l3.22-3.67v-2.14h-9.98v2.65h6.07l-2.93,3.32v2.18h1.51c1.78,0,2.67,0.58,2.67,1.75
		c0,0.58-0.24,1.04-0.71,1.36c-0.48,0.32-1.13,0.48-1.96,0.48c-0.75,0-1.48-0.11-2.19-0.34c-0.71-0.22-1.34-0.54-1.88-0.95
		l-1.28,2.53c0.68,0.49,1.5,0.87,2.48,1.13c0.97,0.26,1.96,0.4,2.96,0.4c1.29,0,2.38-0.21,3.27-0.63c0.89-0.42,1.55-0.98,1.99-1.68
		c0.43-0.7,0.65-1.46,0.65-2.29c0-1.07-0.33-1.97-1-2.7C51.44,49.05,50.48,48.59,49.23,48.38z"/>
	<path d="M56.5,53.05c-0.56,0-1.03,0.18-1.41,0.54c-0.38,0.36-0.57,0.83-0.57,1.42c0,0.57,0.19,1.05,0.57,1.43
		C55.48,56.81,55.95,57,56.5,57c0.56,0,1.03-0.19,1.41-0.57c0.38-0.38,0.57-0.86,0.57-1.43c0-0.58-0.19-1.06-0.57-1.42
		C57.53,53.23,57.06,53.05,56.5,53.05z"/>
	<path d="M71.14,53.67c0.52-1.11,0.78-2.43,0.78-3.96c0-1.53-0.26-2.86-0.78-3.96c-0.52-1.11-1.25-1.95-2.17-2.54
		s-1.98-0.88-3.16-0.88s-2.23,0.29-3.16,0.88c-0.92,0.58-1.65,1.43-2.17,2.54c-0.52,1.11-0.78,2.43-0.78,3.96
		c0,1.54,0.26,2.86,0.78,3.96c0.52,1.11,1.25,1.95,2.17,2.54c0.92,0.58,1.98,0.88,3.16,0.88s2.23-0.29,3.16-0.88
		S70.62,54.78,71.14,53.67z M67.86,53.17c-0.5,0.75-1.18,1.12-2.05,1.12c-0.86,0-1.53-0.37-2.03-1.12c-0.5-0.75-0.74-1.9-0.74-3.46
		c0-1.56,0.25-2.72,0.74-3.46c0.5-0.75,1.17-1.12,2.03-1.12c0.87,0,1.55,0.37,2.05,1.12c0.5,0.75,0.74,1.9,0.74,3.46
		C68.61,51.27,68.36,52.43,67.86,53.17z"/>
	<polygon points="76.12,45.27 80.85,45.27 75.74,56.84 79.32,56.84 84.62,44.72 84.62,42.58 73.19,42.58 73.19,47.59 76.12,47.59 	
		"/>
	<path d="M92.46,53.82c-0.48,0.33-1.13,0.49-1.96,0.49c-0.75,0-1.47-0.11-2.18-0.34c-0.71-0.22-1.33-0.54-1.87-0.95l-1.3,2.53
		c0.68,0.49,1.5,0.87,2.47,1.13c0.97,0.26,1.96,0.4,2.96,0.4c1.3,0,2.4-0.21,3.29-0.64s1.55-1,1.99-1.71s0.65-1.5,0.65-2.37
		c0-1.34-0.48-2.42-1.44-3.22c-0.96-0.8-2.44-1.2-4.45-1.2h-1.16l0.22-2.71h5.95v-2.65h-8.7l-0.73,8.03h3.65
		c1.22,0,2.08,0.16,2.58,0.47c0.5,0.31,0.74,0.77,0.74,1.39C93.18,53.04,92.94,53.5,92.46,53.82z"/>
	<rect x="78.38" y="0" width="21.62" height="5.54"/>
	<rect x="78.38" y="11.26" width="21.62" height="5.54"/>
	<path d="M98.05,70.13c-0.38,0.19-0.85,0.35-1.4,0.46c-0.56,0.12-1.24,0.18-2.07,0.2c-0.82,0.02-1.84,0.03-3.07,0.03
		c-1.57,0-3.21-0.02-4.93-0.06c-1.72-0.04-3.33-0.08-4.84-0.12c-1.51-0.03-2.83-0.07-3.96-0.11c-1.13-0.04-1.9-0.06-2.32-0.06
		c-1.53-0.04-2.78,0.12-3.75,0.49c-0.97,0.36-1.76,0.86-2.35,1.49c-0.59,0.63-1.04,1.37-1.35,2.21c-0.31,0.84-0.55,1.74-0.74,2.69
		l0.74,0.46c0.88-1.15,1.81-1.99,2.81-2.55c0.99-0.55,2.03-0.83,3.1-0.83h0.97c0,1.84-0.12,3.91-0.37,6.22
		c-0.25,2.31-0.61,4.61-1.09,6.91c-0.48,2.3-1.06,4.45-1.75,6.48c-0.69,2.03-1.46,3.69-2.3,4.99l0.29,0.46
		c0,0.04,0.23,0.1,0.69,0.17c0.46,0.07,0.99,0.12,1.61,0.14c0.61,0.02,1.24,0.02,1.89,0c0.65-0.02,1.14-0.12,1.49-0.31
		c0.34-0.88,0.66-1.88,0.95-3.01c0.29-1.13,0.53-2.31,0.74-3.55c0.21-1.24,0.36-2.51,0.46-3.81c0.1-1.3,0.14-2.56,0.14-3.78V74.43
		h10.95V100h1.43c1.22-0.19,2.56-0.48,4.01-0.86c1.45-0.39,2.73-0.82,3.84-1.32v-1.2l-3.78-0.46V74.43h0.69
		c1.64,0,2.89-0.46,3.73-1.38c0.84-0.91,1.34-1.99,1.49-3.21l-0.8-0.52C98.81,69.67,98.43,69.94,98.05,70.13z"/>
	<polygon points="11.08,34.69 17.03,34.69 28.4,0.04 23.03,0.04 14.07,27.47 9.11,12.29 0.01,12.29 0.01,16.77 4.86,16.77 	"/>
	<path d="M40,14.18l-9.99,9.44v3.89h19.58v-4.89H38.44L44.4,17c1.7-1.58,2.85-2.98,3.44-4.22c0.59-1.23,0.89-2.55,0.89-3.96
		c0-1.55-0.4-2.9-1.2-4.05c-0.8-1.15-1.92-2.04-3.37-2.67c-1.45-0.63-3.13-0.94-5.05-0.94c-2.3,0-4.33,0.42-6.1,1.28
		c-1.78,0.85-3.17,2.03-4.18,3.53l4.37,2.81c0.62-0.86,1.38-1.51,2.29-1.94s1.94-0.65,3.07-0.65c1.36,0,2.39,0.28,3.09,0.83
		c0.7,0.56,1.05,1.35,1.05,2.39c0,0.72-0.18,1.44-0.55,2.17C41.77,12.3,41.06,13.17,40,14.18z"/>
	<polygon points="23.53,70.24 14.73,79.11 5.93,70.24 0.06,76.39 8.72,85.12 0.06,93.85 5.93,100 14.73,91.13 23.53,100 29.4,93.85 
		20.74,85.12 29.4,76.39 	"/>
</g>
</svg>
