<?xml version="1.0" encoding="utf-8"?>
<!-- Generator: Adobe Illustrator 24.0.0, SVG Export Plug-In . SVG Version: 6.00 Build 0)  -->
<svg version="1.1" id="Layer_1" xmlns="http://www.w3.org/2000/svg" xmlns:xlink="http://www.w3.org/1999/xlink" x="0px" y="0px"
	 viewBox="0 0 100 100" style="enable-background:new 0 0 100 100;" xml:space="preserve">
<style type="text/css">
	.st0{fill:none;}
	.st1{fill:#FFFFFF;}
	.st2{fill:#FFFFFF;stroke:#FFFFFF;stroke-width:0.25;stroke-miterlimit:10;}
	.st3{fill:none;stroke:#000000;stroke-width:0.25;stroke-linecap:round;stroke-miterlimit:10;}
	.st4{fill:#D9D9D9;}
	.st5{fill:none;stroke:#000000;stroke-width:2;stroke-linejoin:round;stroke-miterlimit:10;}
	.st6{fill:none;stroke:#000000;stroke-width:0.4396;stroke-miterlimit:10;}
	.st7{fill:none;stroke:#000000;stroke-linecap:round;stroke-linejoin:round;}
	.st8{fill:none;stroke:#000000;stroke-linecap:round;stroke-linejoin:round;stroke-miterlimit:10;}
</style>
<g>
	<path d="M6,65.12c-1.13,0-2.16,0.22-3.08,0.65c-0.92,0.44-1.65,1.06-2.19,1.87c-0.54,0.81-0.8,1.75-0.8,2.82
		c0,0.99,0.24,1.87,0.73,2.62c0.49,0.76,1.15,1.34,1.99,1.75c0.84,0.41,1.77,0.62,2.8,0.62c1.7,0,3.03-0.48,3.99-1.44
		c-0.06,1.51-0.49,2.67-1.28,3.47c-0.79,0.8-1.87,1.2-3.23,1.2c-1.22,0-2.22-0.27-3-0.8l-1.38,2.73c0.55,0.35,1.21,0.62,1.99,0.81
		c0.78,0.19,1.6,0.29,2.45,0.29c1.62,0,3.05-0.34,4.29-1.01c1.24-0.67,2.2-1.66,2.88-2.96c0.68-1.3,1.02-2.86,1.02-4.68
		c0-2.57-0.63-4.53-1.9-5.9C10,65.8,8.24,65.12,6,65.12z M8.26,72c-0.51,0.45-1.17,0.68-1.98,0.68c-0.83,0-1.49-0.22-1.98-0.65
		c-0.5-0.44-0.75-1.02-0.75-1.75s0.25-1.31,0.75-1.74c0.5-0.43,1.14-0.64,1.94-0.64c0.87,0,1.55,0.22,2.05,0.67
		c0.5,0.44,0.75,1.02,0.75,1.72C9.02,70.98,8.77,71.55,8.26,72z"/>
	<path d="M23.78,67.27c-0.37,0.35-0.55,0.8-0.55,1.35s0.18,1.01,0.55,1.38c0.37,0.37,0.82,0.55,1.35,0.55
		c0.54,0,0.99-0.18,1.35-0.55c0.37-0.37,0.55-0.83,0.55-1.38s-0.18-1-0.55-1.35c-0.37-0.35-0.82-0.53-1.35-0.53
		C24.6,66.74,24.15,66.92,23.78,67.27z"/>
	<path d="M25.13,76.28c-0.53,0-0.99,0.18-1.35,0.53c-0.37,0.35-0.55,0.8-0.55,1.35s0.18,1.01,0.55,1.38
		c0.37,0.37,0.82,0.55,1.35,0.55c0.54,0,0.99-0.18,1.35-0.55c0.37-0.37,0.55-0.83,0.55-1.38s-0.18-1-0.55-1.35
		C26.12,76.45,25.67,76.28,25.13,76.28z"/>
	<rect x="19.68" y="72.02" width="10.91" height="2.8"/>
	<path d="M44.57,71.92l3.62-4.13v-2.41H36.96v2.98h6.83l-3.3,3.74v2.45h1.7c2,0,3,0.66,3,1.97c0,0.66-0.27,1.17-0.8,1.52
		c-0.54,0.36-1.27,0.54-2.2,0.54c-0.84,0-1.66-0.13-2.46-0.38c-0.8-0.25-1.51-0.61-2.12-1.07l-1.44,2.84
		c0.76,0.55,1.69,0.97,2.78,1.27c1.09,0.3,2.2,0.45,3.33,0.45c1.45,0,2.68-0.24,3.68-0.71s1.75-1.1,2.23-1.89s0.73-1.65,0.73-2.58
		c0-1.21-0.37-2.22-1.12-3.04C47.05,72.68,45.97,72.15,44.57,71.92z"/>
	<polygon points="54.94,39.72 51.21,39.72 51.21,42.91 46.63,42.91 54.08,32.66 49.94,32.66 41.91,43.47 41.91,46.13 51.09,46.13 
		51.09,49.71 54.94,49.71 54.94,46.13 57.71,46.13 57.71,42.91 54.94,42.91 	"/>
	<polygon points="69.06,46.37 72.13,43.28 75.2,46.37 77.25,44.23 74.23,41.18 77.25,38.14 75.2,35.99 72.13,39.09 69.06,35.99 
		67.02,38.14 70.04,41.18 67.02,44.23 	"/>
	<path d="M86,42.4c-0.45,0.68-0.67,1.47-0.67,2.36c0,1.05,0.3,1.98,0.89,2.76c0.59,0.79,1.43,1.4,2.51,1.83
		c1.08,0.43,2.33,0.65,3.76,0.65c1.43,0,2.69-0.22,3.77-0.65c1.09-0.43,1.93-1.04,2.53-1.83c0.6-0.79,0.9-1.71,0.9-2.76
		c0-0.89-0.22-1.68-0.67-2.36c-0.45-0.68-1.09-1.23-1.94-1.66c0.65-0.39,1.15-0.88,1.49-1.47c0.34-0.59,0.51-1.27,0.51-2.03
		c0-0.99-0.28-1.85-0.83-2.58c-0.55-0.73-1.33-1.29-2.33-1.69c-1-0.4-2.15-0.6-3.45-0.6c-1.28,0-2.42,0.2-3.41,0.6
		c-0.99,0.4-1.76,0.96-2.31,1.69c-0.55,0.73-0.83,1.59-0.83,2.58c0,0.76,0.17,1.44,0.51,2.03c0.34,0.59,0.83,1.08,1.46,1.47
		C87.08,41.17,86.45,41.72,86,42.4z M90.58,35.84c0.48-0.38,1.12-0.57,1.91-0.57c0.81,0,1.46,0.19,1.95,0.57
		c0.49,0.38,0.73,0.91,0.73,1.57c0,0.65-0.24,1.16-0.73,1.53c-0.49,0.37-1.14,0.56-1.95,0.56c-0.81,0-1.45-0.19-1.92-0.56
		c-0.47-0.37-0.71-0.88-0.71-1.53C89.86,36.74,90.1,36.22,90.58,35.84z M90.18,42.86c0.57-0.44,1.34-0.66,2.32-0.66
		c0.99,0,1.77,0.22,2.35,0.66c0.57,0.44,0.86,1.03,0.86,1.78c0,0.75-0.29,1.34-0.86,1.79c-0.58,0.45-1.36,0.67-2.35,0.67
		c-0.98,0-1.75-0.22-2.32-0.66c-0.57-0.44-0.85-1.04-0.85-1.8C89.32,43.89,89.61,43.3,90.18,42.86z"/>
	<polygon points="99.97,66.99 91.79,58.43 79.52,70.79 67.25,58.43 59.07,66.99 71.15,79.16 59.07,91.34 67.25,99.9 79.52,87.54 
		91.79,99.9 99.97,91.34 87.89,79.16 	"/>
	<path d="M25.2,39.11c0-1.89-0.63-3.43-1.89-4.63c-1.25-1.21-2.8-1.81-4.63-1.81c-1.83,0-3.37,0.6-4.63,1.81
		c-1.25,1.2-1.89,2.75-1.89,4.63c0,1.88,0.63,3.45,1.89,4.71c1.26,1.25,2.81,1.89,4.63,1.89c1.83,0,3.38-0.63,4.63-1.89
		C24.58,42.56,25.2,40.99,25.2,39.11z"/>
	<rect x="0" y="18.06" width="37.38" height="9.59"/>
	<path d="M18.69,13.04c1.83,0,3.38-0.63,4.63-1.89c1.26-1.26,1.89-2.82,1.89-4.71s-0.63-3.43-1.89-4.63C22.07,0.6,20.52,0,18.69,0
		c-1.83,0-3.37,0.6-4.63,1.81c-1.25,1.2-1.89,2.75-1.89,4.63s0.63,3.45,1.89,4.71C15.31,12.41,16.86,13.04,18.69,13.04z"/>
</g>
</svg>
