<?xml version="1.0" encoding="utf-8"?>
<!-- Generator: Adobe Illustrator 24.0.0, SVG Export Plug-In . SVG Version: 6.00 Build 0)  -->
<svg version="1.1" id="Layer_1" xmlns="http://www.w3.org/2000/svg" xmlns:xlink="http://www.w3.org/1999/xlink" x="0px" y="0px"
	 viewBox="0 0 100 100" style="enable-background:new 0 0 100 100;" xml:space="preserve">
<style type="text/css">
	.st0{fill:none;}
	.st1{fill:#FFFFFF;}
	.st2{fill:#FFFFFF;stroke:#FFFFFF;stroke-width:0.25;stroke-miterlimit:10;}
	.st3{fill:none;stroke:#000000;stroke-width:0.25;stroke-linecap:round;stroke-miterlimit:10;}
	.st4{fill:#D9D9D9;}
	.st5{fill:none;stroke:#000000;stroke-width:2;stroke-linejoin:round;stroke-miterlimit:10;}
	.st6{fill:none;stroke:#000000;stroke-width:0.4396;stroke-miterlimit:10;}
	.st7{fill:none;stroke:#000000;stroke-linecap:round;stroke-linejoin:round;}
	.st8{fill:none;stroke:#000000;stroke-linecap:round;stroke-linejoin:round;stroke-miterlimit:10;}
</style>
<g>
	<polygon points="99.19,87.9 97.95,87.9 97.95,91.23 88.03,91.23 88.03,87.9 87.03,87.9 87.03,91.23 76.8,91.23 76.8,87.9 
		75.8,87.9 75.8,91.23 65.57,91.23 65.57,87.9 64.57,87.9 64.57,91.23 54.77,91.23 54.77,87.9 53.52,87.9 53.52,95.38 54.77,95.38 
		54.77,92.9 64.57,92.9 64.57,95.38 65.57,95.38 65.57,92.9 75.8,92.9 75.8,95.38 76.8,95.38 76.8,92.9 87.03,92.9 87.03,95.38 
		88.03,95.38 88.03,92.9 97.95,92.9 97.95,95.38 99.19,95.38 99.19,92.9 99.2,92.9 99.2,91.23 99.19,91.23 	"/>
	<rect x="12.62" y="78.97" width="4.16" height="16.63"/>
	<rect x="18.85" y="83.13" width="4.16" height="12.47"/>
	<rect x="25.09" y="76.89" width="4.16" height="18.71"/>
	<rect x="6.38" y="87.29" width="4.16" height="8.32"/>
	<polygon points="2.22,74.81 0.14,74.81 0.14,99.76 33.41,99.76 33.41,97.68 2.22,97.68 	"/>
	<path d="M59.66,65.61l10.41,10.38c0.56,0.59,1.35,0.92,2.17,0.92c1.67,0,3.08-1.41,3.08-3.08c0-0.8-0.33-1.61-0.89-2.16
		L64.02,61.25l0.31-0.45c2.29-3.31,3.5-7.21,3.5-11.28c0-2.43-0.46-4.75-1.26-6.9c-0.89-2.39-2.22-4.56-3.9-6.42
		c-0.01-0.01-0.02-0.02-0.03-0.03c-1.5-1.65-3.26-3.06-5.23-4.14c-2.82-1.54-6.05-2.41-9.49-2.41c-10.98,0-19.91,8.93-19.91,19.91
		c0,0.72,0.04,1.42,0.12,2.12c0.24,2.27,0.89,4.43,1.83,6.41c0,0.01,0.01,0.02,0.01,0.03c1.18,2.47,2.85,4.65,4.89,6.43
		c3.5,3.05,8.06,4.92,13.06,4.92c4.01,0,8.01-1.25,11.28-3.51L59.66,65.61z M47.93,63.26c-4.33,0-8.15-2.05-10.67-5.19
		c-0.01-0.01-0.01-0.02-0.02-0.03c-1.46-1.82-2.46-4-2.84-6.41c-0.11-0.7-0.21-1.39-0.21-2.12c0-7.58,6.16-13.74,13.74-13.74
		c2.83,0,5.46,0.86,7.65,2.33c2.07,1.39,3.7,3.34,4.77,5.62c0.01,0.01,0.01,0.02,0.02,0.03c0.82,1.76,1.31,3.69,1.31,5.76
		C61.67,57.1,55.5,63.26,47.93,63.26z"/>
	<path d="M1.09,23.19c0.09,0,0.17-0.01,0.26-0.03l41.11-9.77c0.59-0.14,0.96-0.74,0.82-1.33s-0.74-0.96-1.33-0.82L7.63,19.39
		c-0.42-2.49-2.54-4.29-4.99-4.38L3.5,1.22c0.04-0.61-0.43-1.14-1.04-1.17c-0.6-0.04-1.14,0.43-1.17,1.04l-1.31,20.93
		c-0.02,0.35,0.12,0.69,0.39,0.92C0.58,23.1,0.83,23.19,1.09,23.19z M5.19,16.66c0.94,0.71,1.54,1.74,1.72,2.9l-4.63,1.1l0.31-4.91
		C3.53,15.78,4.43,16.08,5.19,16.66z"/>
	<rect x="5.79" y="0.92" transform="matrix(0.2694 -0.963 0.963 0.2694 2.488 7.8416)" width="1.24" height="2.71"/>
	<rect x="28.35" y="6.33" transform="matrix(0.2699 -0.9629 0.9629 0.2699 12.8602 34.1731)" width="1.24" height="4.56"/>
	<rect x="20.53" y="4.14" transform="matrix(0.2697 -0.9629 0.9629 0.2697 9.2703 25.0516)" width="1.24" height="4.56"/>
	<rect x="12.72" y="1.94" transform="matrix(0.2703 -0.9628 0.9628 0.2703 5.6681 15.9219)" width="1.24" height="4.56"/>
	<rect x="35.27" y="9.19" transform="matrix(0.2694 -0.963 0.963 0.2694 16.0638 42.2684)" width="1.24" height="2.71"/>
	<polygon points="99.32,6.75 93.45,0.61 84.65,9.48 75.85,0.61 69.98,6.75 78.64,15.49 69.98,24.22 75.85,30.36 84.65,21.5 
		93.45,30.36 99.32,24.22 90.66,15.49 	"/>
</g>
</svg>
