<?xml version="1.0" encoding="utf-8"?>
<!-- Generator: Adobe Illustrator 24.0.0, SVG Export Plug-In . SVG Version: 6.00 Build 0)  -->
<svg version="1.1" id="Layer_1" xmlns="http://www.w3.org/2000/svg" xmlns:xlink="http://www.w3.org/1999/xlink" x="0px" y="0px"
	 viewBox="0 0 100 100" style="enable-background:new 0 0 100 100;" xml:space="preserve">
<style type="text/css">
	.st0{fill:none;}
	.st1{fill:#FFFFFF;}
	.st2{fill:#FFFFFF;stroke:#FFFFFF;stroke-width:0.25;stroke-miterlimit:10;}
	.st3{fill:none;stroke:#000000;stroke-width:0.25;stroke-linecap:round;stroke-miterlimit:10;}
	.st4{fill:#D9D9D9;}
	.st5{fill:none;stroke:#000000;stroke-width:2;stroke-linejoin:round;stroke-miterlimit:10;}
	.st6{fill:none;stroke:#000000;stroke-width:0.4396;stroke-miterlimit:10;}
	.st7{fill:none;stroke:#000000;stroke-linecap:round;stroke-linejoin:round;}
	.st8{fill:none;stroke:#000000;stroke-linecap:round;stroke-linejoin:round;stroke-miterlimit:10;}
</style>
<g>
	<path d="M25.24,13.45c-0.09,0.46-0.13,0.87-0.13,1.21c0,1.2,0.39,2.14,1.18,2.83s1.83,1.03,3.13,1.03c1.4,0,2.55-0.27,3.43-0.82
		l-0.59-2.85c-0.55,0.33-1.08,0.49-1.61,0.49c-0.97,0-1.46-0.45-1.46-1.34c0-0.24,0.02-0.43,0.05-0.57l1.1-5.55h3.44l0.62-3.09
		h-3.44l0.67-3.37h-4l-0.67,3.37h-2.13l-0.62,3.09h2.13L25.24,13.45z"/>
	<rect x="40.75" y="4.55" width="12.2" height="3.14"/>
	<rect x="40.75" y="10.93" width="12.2" height="3.14"/>
	<path d="M68.23,18.62c1.27,0,2.41-0.25,3.45-0.73c1.03-0.49,1.85-1.19,2.45-2.1c0.6-0.91,0.9-1.96,0.9-3.16
		c0-1.11-0.27-2.1-0.82-2.94c-0.55-0.85-1.29-1.5-2.23-1.97c-0.94-0.46-1.98-0.69-3.13-0.69c-1.9,0-3.37,0.53-4.43,1.59
		c0.07-1.7,0.55-2.99,1.44-3.88c0.89-0.89,2.09-1.34,3.61-1.34c1.35,0,2.47,0.3,3.36,0.9l1.54-3.06c-0.62-0.39-1.36-0.7-2.24-0.91
		C71.23,0.11,70.31,0,69.36,0c-1.81,0-3.41,0.38-4.78,1.13c-1.38,0.75-2.45,1.86-3.22,3.32C60.59,5.91,60.2,7.66,60.2,9.7
		c0,2.86,0.71,5.07,2.13,6.61C63.75,17.85,65.72,18.62,68.23,18.62z M65.72,10.89c0.58-0.51,1.32-0.76,2.23-0.76
		c0.92,0,1.66,0.24,2.22,0.73c0.56,0.49,0.83,1.14,0.83,1.97c0,0.82-0.28,1.47-0.83,1.95c-0.56,0.48-1.28,0.72-2.17,0.72
		c-0.98,0-1.74-0.25-2.31-0.75c-0.56-0.5-0.85-1.14-0.85-1.93C64.84,12.04,65.13,11.4,65.72,10.89z"/>
	<polygon points="86.66,9.7 88.25,18.31 92.2,18.31 99.81,4.47 96.04,4.47 90.92,13.78 89.35,4.47 85.92,4.47 80.74,13.78 
		79.23,4.47 75.59,4.47 78.02,18.31 81.92,18.31 	"/>
	<path d="M0.58,17.51C0.53,17.77,0.51,18,0.51,18.19c0,0.68,0.22,1.22,0.67,1.61c0.45,0.39,1.04,0.58,1.78,0.58
		c0.8,0,1.45-0.16,1.95-0.47l-0.33-1.62c-0.31,0.19-0.62,0.28-0.92,0.28c-0.55,0-0.83-0.25-0.83-0.76c0-0.14,0.01-0.24,0.03-0.32
		l0.63-3.15h1.95l0.35-1.75H3.83l0.38-1.91H1.94l-0.38,1.91H0.35L0,14.34h1.21L0.58,17.51z"/>
	<polygon points="89.95,97.43 89.06,92.14 87.11,92.14 84.17,97.43 83.31,92.14 81.25,92.14 82.63,100 84.84,100 87.53,95.11 
		88.44,100 90.68,100 95,92.14 92.86,92.14 	"/>
	<path d="M76.76,23.66H2.03c-0.18-0.08-0.38-0.13-0.59-0.13H1.44c-0.78,0-1.42,0.64-1.42,1.42v73.52c0,0.01,0,0.01,0,0.02
		c0,0.02-0.01,0.04-0.01,0.06c0,0.79,0.64,1.43,1.43,1.43h74.41c0.76,0,1.37-0.59,1.42-1.33h0.02V23.69h-0.52V23.66z M76.28,43.71
		v18.03H58.25V46.6c0.74-0.09,1.45-0.4,2.02-0.97c0.54-0.54,0.85-1.22,0.96-1.93H76.28z M42.11,61.74c-0.09-0.74-0.4-1.45-0.97-2.02
		c-0.54-0.54-1.23-0.86-1.93-0.96V43.71h15.23c0.1,0.71,0.42,1.39,0.96,1.93c0.52,0.52,1.17,0.83,1.84,0.95v15.15H42.11z
		 M23.21,80.77c-0.12-0.66-0.44-1.3-0.95-1.81c-0.58-0.58-1.32-0.9-2.09-0.97V62.74h15.15c0.12,0.68,0.43,1.33,0.95,1.85
		c0.54,0.54,1.22,0.85,1.93,0.96v15.22H23.21z M38.2,58.76c-0.71,0.1-1.39,0.42-1.93,0.96c-0.56,0.56-0.88,1.28-0.97,2.02H20.17
		V43.71H38.2V58.76z M57.24,39.82c-0.68,0.12-1.32,0.43-1.84,0.95c-0.54,0.54-0.86,1.23-0.96,1.93H39.21V24.67h18.03V39.82z
		 M38.2,42.7H20.17V24.67H38.2V42.7z M19.17,42.7H2.87V24.95c0-0.1-0.01-0.19-0.03-0.28h16.33V42.7z M19.17,43.71v18.03H2.87V43.71
		H19.17z M19.17,62.74v15.28c-0.65,0.13-1.28,0.44-1.78,0.94c-0.51,0.51-0.82,1.14-0.95,1.81H2.87V62.74H19.17z M16.42,81.78
		c0.08,0.75,0.4,1.48,0.97,2.06c0.5,0.5,1.13,0.82,1.78,0.94v12.34H2.87V81.78H16.42z M20.17,84.81c0.76-0.08,1.5-0.39,2.09-0.97
		c0.57-0.57,0.89-1.31,0.97-2.06H38.2v15.35H20.17V84.81z M39.21,81.78h18.03v15.35H39.21V81.78z M39.21,80.77V65.55
		c0.71-0.1,1.39-0.42,1.93-0.96c0.52-0.52,0.83-1.17,0.95-1.85h15.15v18.03H39.21z M58.25,62.74h18.03v18.03H58.25V62.74z
		 M76.28,42.7H61.23c-0.1-0.71-0.42-1.39-0.96-1.93c-0.57-0.57-1.28-0.88-2.02-0.97V24.67h18.03V42.7z M58.25,97.13V81.78h18.03
		V97.2c-0.14-0.04-0.28-0.07-0.43-0.07H58.25z"/>
</g>
</svg>
