<svg id="Layer_1" data-name="Layer 1" xmlns="http://www.w3.org/2000/svg" viewBox="0 0 100 100"><defs><style>.cls-1{fill:#231f20;}</style></defs><title> </title><path class="cls-1" d="M2.64,30.45a1.47,1.47,0,0,0-1.56-.13,1.49,1.49,0,0,0-.83,1.34V98.13a1.5,1.5,0,0,0,1.5,1.5H91.83a1.49,1.49,0,0,0,.89-2.7Zm.61,66.18v-62l84,62Z"/><path class="cls-1" d="M51.54,48.27a1.77,1.77,0,0,0,1.07.36,1.82,1.82,0,0,0,1.81-1.81V12.41a1.81,1.81,0,0,0-1.81-1.81H6a1.81,1.81,0,0,0-1.07,3.26Z"/><path class="cls-1" d="M99.62.87a1.53,1.53,0,0,0-1.27-.7H67.79a1.5,1.5,0,0,0-1.5,1.5V65a1.49,1.49,0,0,0,1.16,1.46,1.32,1.32,0,0,0,.34,0,1.51,1.51,0,0,0,1.35-.85L99.7,2.32A1.53,1.53,0,0,0,99.62.87ZM69.29,58.47V3.17H96Z"/></svg>