<?xml version="1.0" encoding="utf-8"?>
<!-- Generator: Adobe Illustrator 24.0.0, SVG Export Plug-In . SVG Version: 6.00 Build 0)  -->
<svg version="1.1" id="Layer_1" xmlns="http://www.w3.org/2000/svg" xmlns:xlink="http://www.w3.org/1999/xlink" x="0px" y="0px"
	 viewBox="0 0 100 100" style="enable-background:new 0 0 100 100;" xml:space="preserve">
<style type="text/css">
	.st0{fill:none;}
	.st1{fill:#FFFFFF;}
	.st2{fill:#FFFFFF;stroke:#FFFFFF;stroke-width:0.25;stroke-miterlimit:10;}
	.st3{fill:none;stroke:#000000;stroke-width:0.25;stroke-linecap:round;stroke-miterlimit:10;}
	.st4{fill:#D9D9D9;}
	.st5{fill:none;stroke:#000000;stroke-width:2;stroke-linejoin:round;stroke-miterlimit:10;}
	.st6{fill:none;stroke:#000000;stroke-width:0.4396;stroke-miterlimit:10;}
	.st7{fill:none;stroke:#000000;stroke-linecap:round;stroke-linejoin:round;}
	.st8{fill:none;stroke:#000000;stroke-linecap:round;stroke-linejoin:round;stroke-miterlimit:10;}
</style>
<path d="M25.31,98.07c0,1.06-0.88,1.93-1.93,1.93H2.11c-1.06,0-1.93-0.88-1.93-1.93v-23.2c0-1.06,0.88-1.93,1.93-1.93h21.26
	c1.06,0,1.93,0.88,1.93,1.93V98.07z M23.37,75.84c0-0.53-0.44-0.97-0.97-0.97H3.08c-0.53,0-0.97,0.44-0.97,0.97v3.87
	c0,0.53,0.44,0.97,0.97,0.97h19.33c0.53,0,0.97-0.44,0.97-0.97V75.84z M4.04,82.6c-1.07,0-1.93,0.86-1.93,1.93
	c0,1.07,0.86,1.93,1.93,1.93s1.93-0.86,1.93-1.93C5.98,83.46,5.12,82.6,4.04,82.6z M4.04,88.4c-1.07,0-1.93,0.86-1.93,1.93
	c0,1.07,0.86,1.93,1.93,1.93s1.93-0.86,1.93-1.93C5.98,89.26,5.12,88.4,4.04,88.4z M4.04,94.2c-1.07,0-1.93,0.86-1.93,1.93
	c0,1.07,0.86,1.93,1.93,1.93s1.93-0.86,1.93-1.93C5.98,95.06,5.12,94.2,4.04,94.2z M9.84,82.6c-1.07,0-1.93,0.86-1.93,1.93
	c0,1.07,0.86,1.93,1.93,1.93s1.93-0.86,1.93-1.93C11.78,83.46,10.91,82.6,9.84,82.6z M9.84,88.4c-1.07,0-1.93,0.86-1.93,1.93
	c0,1.07,0.86,1.93,1.93,1.93s1.93-0.86,1.93-1.93C11.78,89.26,10.91,88.4,9.84,88.4z M9.84,94.2c-1.07,0-1.93,0.86-1.93,1.93
	c0,1.07,0.86,1.93,1.93,1.93s1.93-0.86,1.93-1.93C11.78,95.06,10.91,94.2,9.84,94.2z M15.64,82.6c-1.07,0-1.93,0.86-1.93,1.93
	c0,1.07,0.86,1.93,1.93,1.93s1.93-0.86,1.93-1.93C17.58,83.46,16.71,82.6,15.64,82.6z M15.64,88.4c-1.07,0-1.93,0.86-1.93,1.93
	c0,1.07,0.86,1.93,1.93,1.93s1.93-0.86,1.93-1.93C17.58,89.26,16.71,88.4,15.64,88.4z M15.64,94.2c-1.07,0-1.93,0.86-1.93,1.93
	c0,1.07,0.86,1.93,1.93,1.93s1.93-0.86,1.93-1.93C17.58,95.06,16.71,94.2,15.64,94.2z M21.44,82.6c-1.07,0-1.93,0.86-1.93,1.93
	c0,1.07,0.86,1.93,1.93,1.93s1.93-0.86,1.93-1.93C23.37,83.46,22.51,82.6,21.44,82.6z M23.37,90.33c0-1.06-0.88-1.93-1.93-1.93
	s-1.93,0.88-1.93,1.93v5.8c0,1.06,0.88,1.93,1.93,1.93s1.93-0.88,1.93-1.93V90.33z M99.83,49.5H75.32
	c-0.19-1.24-1.05-2.26-2.22-2.66c-1.49-22.48-5.96-23.92-9.11-24.91c-4.3-1.36-9.19,2.75-14.21,8.81V0h-1v31.96
	c-2.65,3.31-5.33,7.08-7.98,10.81c-1.55,2.18-3.2,4.52-4.85,6.72H23.72c-0.18-1.16-0.94-2.14-1.99-2.59
	c-0.12-2.02-0.19-4.36-0.19-7.08V20.22c0-0.72-0.59-1.31-1.31-1.31c-0.72,0-1.31,0.59-1.31,1.31v19.61c0,2.6,0.06,4.95,0.18,7.07
	c-1.07,0.45-1.84,1.42-2.02,2.6H0.18v1h16.9c0.21,1.41,1.29,2.53,2.68,2.8c0.85,5.1,2.36,7.85,4.63,8.57
	c3.93,1.24,8.68-4.03,14.09-11.36h10.31V100h1V50.5h18.9c0.18,1.21,1.01,2.21,2.12,2.63c0.13,3.48,0.19,7.3,0.19,11.47
	c0,0.72,0.59,1.31,1.31,1.31c0.72,0,1.31-0.59,1.31-1.31c0-4.29-0.07-8.11-0.2-11.56c1.01-0.47,1.74-1.41,1.91-2.54h24.51V49.5z
	 M25.18,59.37c-0.7-0.22-2.01-1.39-2.85-6.62c0.74-0.52,1.25-1.32,1.39-2.25h11.48C31.19,55.77,27.32,60.05,25.18,59.37z
	 M39.21,49.5c1.21-1.67,2.46-3.42,3.74-5.22c1.9-2.68,3.87-5.46,5.83-8.06V49.5H39.21z M49.78,34.91
	c5.05-6.53,9.96-11.59,13.42-10.49c3.99,1.26,6.34,8.39,7.29,22.59c-0.96,0.48-1.65,1.39-1.81,2.49h-18.9V34.91z M72.73,91.39
	l-4.78,1.7l4.78,1.7v1.88l-7.35-2.61v-1.95l7.35-2.61V91.39z M65.38,97.68h7.35v1.88h-7.35V97.68z M86.35,92.12v1.95L79,96.67v-1.88
	l4.78-1.7L79,91.39v-1.88L86.35,92.12z M79,97.68h7.35v1.88H79V97.68z M97.77,93.18l-1,1.95h3.2v1.88h-4.18l-0.9,1.7h-1.96l0.89-1.7
	h-1.2v-1.88h2.19l1-1.95h-3.19V91.3h4.18l0.9-1.7h1.96l-0.9,1.7h1.2v1.88H97.77z M74.56,70.39c-0.26,0.23-0.41,0.58-0.47,1.04
	l-0.07,0.55h2.45l-0.25,2.13h-2.36l-0.89,7.09c-0.13,1.09-0.55,1.96-1.24,2.59c-0.7,0.64-1.61,0.96-2.72,0.96
	c-0.45,0-0.86-0.04-1.25-0.13c-0.38-0.09-0.69-0.22-0.94-0.4l0.94-2.01c0.3,0.23,0.66,0.34,1.1,0.34c0.37,0,0.67-0.12,0.91-0.35
	c0.24-0.23,0.38-0.58,0.43-1.04l0.89-7.05h-1.49l0.27-2.13h1.49l0.07-0.59c0.13-1.09,0.55-1.96,1.25-2.59
	c0.7-0.64,1.63-0.96,2.78-0.96c0.4,0,0.8,0.05,1.19,0.14c0.39,0.09,0.71,0.22,0.94,0.39l-0.96,2.01c-0.34-0.22-0.7-0.34-1.08-0.34
	C75.14,70.04,74.81,70.15,74.56,70.39z M77.74,82.28c-0.18-0.94-0.27-1.87-0.27-2.81c0-2.13,0.36-4.21,1.07-6.24
	c0.71-2.03,1.71-3.78,2.99-5.26h2.77c-1.36,1.76-2.39,3.63-3.09,5.6c-0.7,1.97-1.05,3.98-1.05,6.04c0,1.66,0.27,3.32,0.82,4.99
	h-2.54C78.15,84,77.92,83.22,77.74,82.28z M89.37,76.38l2.67,4.78h-2.93l-1.56-2.93l-2.76,2.93h-3.16l4.78-4.9l-2.54-4.66h2.88
	l1.51,2.81l2.67-2.81h3.06L89.37,76.38z M94.65,79.01c0.7-1.97,1.05-3.98,1.05-6.04c0-1.66-0.27-3.32-0.82-4.99h2.54
	c0.28,0.62,0.51,1.39,0.69,2.33c0.18,0.94,0.27,1.87,0.27,2.81c0,2.13-0.36,4.21-1.07,6.24c-0.71,2.03-1.71,3.78-2.99,5.26h-2.77
	C92.92,82.85,93.95,80.98,94.65,79.01z"/>
</svg>
