<?xml version="1.0" encoding="utf-8"?>
<!-- Generator: Adobe Illustrator 24.0.0, SVG Export Plug-In . SVG Version: 6.00 Build 0)  -->
<svg version="1.1" id="Layer_1" xmlns="http://www.w3.org/2000/svg" xmlns:xlink="http://www.w3.org/1999/xlink" x="0px" y="0px"
	 viewBox="0 0 100 100" style="enable-background:new 0 0 100 100;" xml:space="preserve">
<style type="text/css">
	.st0{fill:none;}
	.st1{fill:#FFFFFF;}
	.st2{fill:#FFFFFF;stroke:#FFFFFF;stroke-width:0.25;stroke-miterlimit:10;}
	.st3{fill:none;stroke:#000000;stroke-width:0.25;stroke-linecap:round;stroke-miterlimit:10;}
	.st4{fill:#D9D9D9;}
	.st5{fill:none;stroke:#000000;stroke-width:2;stroke-linejoin:round;stroke-miterlimit:10;}
	.st6{fill:none;stroke:#000000;stroke-width:0.4396;stroke-miterlimit:10;}
	.st7{fill:none;stroke:#000000;stroke-linecap:round;stroke-linejoin:round;}
	.st8{fill:none;stroke:#000000;stroke-linecap:round;stroke-linejoin:round;stroke-miterlimit:10;}
</style>
<g>
	<polygon points="3.3,32.63 8.58,32.63 2.87,45.54 6.87,45.54 12.78,32.02 12.78,29.63 0.03,29.63 0.03,35.22 3.3,35.22 	"/>
	<polygon points="19.58,32.33 19.58,36.2 15.65,36.2 15.65,38.97 19.58,38.97 19.58,42.84 22.51,42.84 22.51,38.97 26.47,38.97 
		26.47,36.2 22.51,36.2 22.51,32.33 	"/>
	<path d="M37.62,28.67h-3.39c-0.91,1.36-1.61,2.96-2.1,4.79c-0.49,1.82-0.74,3.78-0.74,5.85c0,2.08,0.25,4.02,0.74,5.84
		c0.49,1.82,1.2,3.42,2.1,4.8h3.39c-0.95-1.68-1.65-3.39-2.09-5.13c-0.44-1.74-0.66-3.57-0.66-5.51c0-1.94,0.22-3.78,0.66-5.51
		C35.97,32.07,36.66,30.36,37.62,28.67z"/>
	<path d="M44.14,45.82c1.45,0,2.68-0.24,3.67-0.72c0.99-0.48,1.73-1.11,2.22-1.91c0.48-0.8,0.73-1.68,0.73-2.65
		c0-1.5-0.53-2.7-1.6-3.59c-1.07-0.9-2.72-1.34-4.97-1.34h-1.3l0.25-3.02h6.64v-2.95h-9.71l-0.82,8.96h4.07
		c1.37,0,2.32,0.17,2.88,0.52c0.55,0.35,0.83,0.86,0.83,1.54c0,0.65-0.26,1.16-0.8,1.52c-0.53,0.36-1.26,0.55-2.18,0.55
		c-0.83,0-1.65-0.13-2.43-0.38c-0.79-0.25-1.49-0.6-2.09-1.06l-1.45,2.82c0.76,0.55,1.68,0.97,2.76,1.26
		C41.92,45.67,43.02,45.82,44.14,45.82z"/>
	<polygon points="64.16,32.74 61.29,35.63 58.43,32.74 56.52,34.74 59.34,37.59 56.52,40.43 58.43,42.43 61.29,39.54 64.16,42.43 
		66.07,40.43 63.25,37.59 66.07,34.74 	"/>
	<polygon points="74.53,45.54 78.22,45.54 78.22,29.63 71.35,29.63 71.35,32.58 74.53,32.58 	"/>
	<path d="M86.99,37.36l-6.14,5.8v2.39h12.03v-3h-6.84l3.66-3.46c1.05-0.97,1.75-1.83,2.11-2.59c0.36-0.76,0.55-1.57,0.55-2.43
		c0-0.95-0.25-1.79-0.74-2.49c-0.49-0.71-1.18-1.25-2.07-1.64c-0.89-0.39-1.92-0.58-3.1-0.58c-1.41,0-2.66,0.26-3.75,0.78
		c-1.09,0.52-1.95,1.25-2.57,2.17l2.68,1.73c0.38-0.53,0.85-0.93,1.41-1.19c0.56-0.27,1.19-0.4,1.89-0.4c0.83,0,1.47,0.17,1.9,0.51
		c0.43,0.34,0.65,0.83,0.65,1.47c0,0.44-0.11,0.88-0.34,1.33C88.09,36.2,87.65,36.74,86.99,37.36z"/>
	<path d="M93.75,49.95h3.39c0.94-1.38,1.65-2.98,2.14-4.78c0.48-1.81,0.73-3.76,0.73-5.85c0-2.09-0.25-4.05-0.74-5.88
		c-0.49-1.83-1.2-3.41-2.13-4.76h-3.39c0.95,1.68,1.66,3.39,2.1,5.13c0.45,1.74,0.67,3.57,0.67,5.51c0,1.94-0.22,3.78-0.67,5.51
		C95.4,46.56,94.7,48.27,93.75,49.95z"/>
</g>
<g>
	<path d="M3.85,0H1.77C1.21,0.84,0.78,1.82,0.48,2.94c-0.3,1.12-0.45,2.32-0.45,3.6c0,1.28,0.15,2.47,0.45,3.59
		c0.3,1.12,0.73,2.1,1.29,2.95h2.08c-0.59-1.03-1.02-2.08-1.29-3.15c-0.27-1.07-0.4-2.19-0.4-3.39c0-1.19,0.14-2.32,0.4-3.39
		C2.84,2.08,3.27,1.03,3.85,0z"/>
	<path d="M11.33,2.4V0.59H5.36l-0.5,5.5h2.5c0.84,0,1.43,0.11,1.77,0.32c0.34,0.21,0.51,0.53,0.51,0.95c0,0.4-0.16,0.71-0.49,0.94
		C8.82,8.52,8.37,8.63,7.81,8.63c-0.51,0-1.01-0.08-1.49-0.23C5.83,8.25,5.4,8.03,5.03,7.75L4.13,9.48c0.46,0.34,1.03,0.59,1.7,0.78
		c0.66,0.18,1.34,0.27,2.03,0.27c0.89,0,1.65-0.15,2.26-0.44c0.61-0.29,1.06-0.68,1.36-1.17c0.3-0.49,0.45-1.03,0.45-1.63
		c0-0.92-0.33-1.66-0.99-2.21c-0.66-0.55-1.67-0.82-3.05-0.82h-0.8L7.25,2.4H11.33z"/>
	<polygon points="15.31,3.73 17.04,5.47 15.31,7.22 16.49,8.45 18.24,6.68 20.01,8.45 21.18,7.22 19.45,5.47 21.18,3.73 20.01,2.5 
		18.24,4.27 16.49,2.5 	"/>
	<polygon points="26.23,10.36 28.49,10.36 28.49,0.59 24.27,0.59 24.27,2.4 26.23,2.4 	"/>
	<path d="M32.18,2.56c0.34-0.16,0.73-0.24,1.16-0.24c0.51,0,0.9,0.1,1.17,0.31c0.27,0.21,0.4,0.51,0.4,0.9
		c0,0.27-0.07,0.54-0.21,0.82c-0.14,0.27-0.41,0.6-0.81,0.98L30.11,8.9v1.47h7.39V8.52h-4.2l2.25-2.12c0.64-0.6,1.08-1.13,1.3-1.59
		c0.22-0.46,0.34-0.96,0.34-1.49c0-0.59-0.15-1.1-0.45-1.53c-0.3-0.43-0.73-0.77-1.27-1.01c-0.55-0.24-1.18-0.36-1.91-0.36
		c-0.87,0-1.63,0.16-2.3,0.48c-0.67,0.32-1.2,0.77-1.58,1.33l1.65,1.06C31.54,2.97,31.83,2.73,32.18,2.56z"/>
	<path d="M38.03,13.07h2.08c0.58-0.85,1.01-1.83,1.31-2.94c0.3-1.11,0.45-2.31,0.45-3.6c0-1.29-0.15-2.49-0.45-3.61
		c-0.3-1.12-0.74-2.1-1.31-2.93h-2.08c0.59,1.03,1.02,2.08,1.29,3.15c0.27,1.07,0.41,2.19,0.41,3.39c0,1.19-0.14,2.32-0.41,3.39
		C39.05,10.99,38.61,12.04,38.03,13.07z"/>
	<polygon points="46.73,2.25 46.73,4.62 44.31,4.62 44.31,6.33 46.73,6.33 46.73,8.7 48.53,8.7 48.53,6.33 50.96,6.33 50.96,4.62 
		48.53,4.62 48.53,2.25 	"/>
	<path d="M53.4,6.54c0,1.28,0.15,2.47,0.45,3.59c0.3,1.12,0.73,2.1,1.29,2.95h2.08c-0.59-1.03-1.02-2.08-1.29-3.15
		c-0.27-1.07-0.4-2.19-0.4-3.39c0-1.19,0.14-2.32,0.4-3.39c0.27-1.07,0.7-2.12,1.29-3.15h-2.08c-0.56,0.84-0.99,1.82-1.29,2.94
		C53.55,4.06,53.4,5.26,53.4,6.54z"/>
	<path d="M58.95,0.9c-0.67,0.32-1.2,0.77-1.58,1.33l1.65,1.06c0.23-0.33,0.52-0.57,0.87-0.73c0.34-0.16,0.73-0.24,1.16-0.24
		c0.51,0,0.9,0.1,1.17,0.31c0.27,0.21,0.4,0.51,0.4,0.9c0,0.27-0.07,0.54-0.21,0.82c-0.14,0.27-0.41,0.6-0.81,0.98L57.82,8.9v1.47
		h7.39V8.52h-4.2l2.25-2.12c0.64-0.6,1.08-1.13,1.3-1.59c0.22-0.46,0.34-0.96,0.34-1.49c0-0.59-0.15-1.1-0.45-1.53
		c-0.3-0.43-0.73-0.77-1.27-1.01c-0.55-0.24-1.18-0.36-1.91-0.36C60.39,0.42,59.62,0.58,58.95,0.9z"/>
	<polygon points="67.95,2.43 71.19,2.43 67.68,10.36 70.14,10.36 73.77,2.05 73.77,0.59 65.94,0.59 65.94,4.02 67.95,4.02 	"/>
	<path d="M81,3.39c0.22-0.22,0.34-0.5,0.34-0.84c0-0.34-0.11-0.61-0.34-0.82c-0.22-0.21-0.5-0.32-0.82-0.32
		c-0.32,0-0.6,0.11-0.82,0.32c-0.22,0.21-0.34,0.49-0.34,0.82c0,0.34,0.11,0.61,0.34,0.84c0.22,0.22,0.5,0.34,0.82,0.34
		C80.5,3.73,80.78,3.62,81,3.39z"/>
	<rect x="76.85" y="4.62" width="6.65" height="1.7"/>
	<path d="M79.35,7.54c-0.22,0.21-0.34,0.49-0.34,0.82c0,0.33,0.11,0.61,0.34,0.84c0.22,0.22,0.5,0.34,0.82,0.34
		c0.33,0,0.6-0.11,0.82-0.34c0.22-0.22,0.34-0.5,0.34-0.84c0-0.34-0.11-0.61-0.34-0.82c-0.22-0.21-0.5-0.32-0.82-0.32
		C79.85,7.22,79.57,7.33,79.35,7.54z"/>
	<path d="M87.97,1.95c-0.33,0.49-0.49,1.07-0.49,1.72c0,0.6,0.15,1.14,0.45,1.6c0.3,0.46,0.7,0.82,1.21,1.07
		c0.51,0.25,1.08,0.38,1.7,0.38c1.03,0,1.84-0.29,2.43-0.88c-0.04,0.92-0.3,1.63-0.78,2.12c-0.48,0.49-1.14,0.73-1.97,0.73
		c-0.75,0-1.35-0.16-1.83-0.49l-0.84,1.66c0.33,0.21,0.74,0.38,1.21,0.5c0.47,0.12,0.97,0.17,1.49,0.17c0.99,0,1.86-0.2,2.61-0.61
		c0.75-0.41,1.34-1.01,1.75-1.8c0.41-0.79,0.62-1.74,0.62-2.85c0-1.57-0.39-2.76-1.16-3.6c-0.77-0.83-1.84-1.25-3.21-1.25
		c-0.69,0-1.32,0.13-1.88,0.4C88.74,1.08,88.3,1.46,87.97,1.95z M90.14,2.5c0.3-0.26,0.7-0.39,1.18-0.39c0.53,0,0.95,0.13,1.25,0.4
		c0.3,0.27,0.45,0.62,0.45,1.05c0,0.43-0.16,0.78-0.47,1.05c-0.31,0.28-0.71,0.41-1.21,0.41c-0.5,0-0.91-0.13-1.21-0.4
		c-0.3-0.27-0.45-0.62-0.45-1.07C89.69,3.11,89.84,2.76,90.14,2.5z"/>
	<path d="M96.24,13.07h2.08c0.58-0.85,1.01-1.83,1.31-2.94c0.3-1.11,0.45-2.31,0.45-3.6c0-1.29-0.15-2.49-0.45-3.61
		c-0.3-1.12-0.74-2.1-1.31-2.93h-2.08c0.59,1.03,1.02,2.08,1.29,3.15c0.27,1.07,0.41,2.19,0.41,3.39c0,1.19-0.14,2.32-0.41,3.39
		C97.26,10.99,96.83,12.04,96.24,13.07z"/>
</g>
<path d="M100,66.49L100,66.49l0-4.93H0v4.93v0.31v27.96v0.09V100h100v-5.15h0V66.49z M93.65,77.42c-0.33-1.28-0.85-2.55-1.56-3.79
	h2.51c0.68,1,1.21,2.17,1.57,3.52c0.36,1.35,0.55,2.8,0.55,4.35c0,1.55-0.18,2.99-0.54,4.33c-0.36,1.34-0.89,2.52-1.58,3.54h-2.51
	c0.71-1.24,1.22-2.51,1.56-3.79c0.33-1.28,0.5-2.64,0.5-4.08C94.14,80.07,93.98,78.71,93.65,77.42z M84.2,85.58
	c0.33,1.28,0.84,2.55,1.55,3.79h-2.51c-0.67-1.02-1.19-2.2-1.56-3.55c-0.36-1.35-0.55-2.79-0.55-4.32c0-1.54,0.18-2.98,0.55-4.33
	c0.36-1.35,0.88-2.53,1.56-3.54h2.51c-0.71,1.24-1.22,2.51-1.55,3.79c-0.32,1.28-0.49,2.64-0.49,4.08
	C83.71,82.94,83.87,84.3,84.2,85.58z M62.94,83.26v-3.51h13.68v3.51H62.94z M72.17,87.45c0,0.69-0.23,1.26-0.69,1.72
	c-0.46,0.46-1.02,0.69-1.7,0.69c-0.67,0-1.24-0.23-1.7-0.69c-0.46-0.46-0.69-1.04-0.69-1.72c0-0.69,0.23-1.26,0.69-1.7
	c0.46-0.44,1.03-0.66,1.7-0.66c0.67,0,1.24,0.22,1.7,0.66C71.94,86.2,72.17,86.76,72.17,87.45z M67.39,75.49
	c0-0.69,0.23-1.26,0.69-1.7c0.46-0.44,1.03-0.66,1.7-0.66c0.67,0,1.24,0.22,1.7,0.66c0.46,0.44,0.69,1.01,0.69,1.7
	c0,0.69-0.23,1.26-0.69,1.72c-0.46,0.46-1.02,0.69-1.7,0.69c-0.67,0-1.24-0.23-1.7-0.69C67.62,76.76,67.39,76.18,67.39,75.49z
	 M58.42,85.94l-2.98,3.12l-4.48-4.51l-4.47,4.51l-2.98-3.12l4.4-4.44l-4.4-4.44l2.98-3.12l4.47,4.51l4.48-4.51l2.98,3.12l-4.4,4.44
	L58.42,85.94z M39,79.53v3.95h-15.4v-3.95H39z M3.8,83.46v-3.92h5.55v-5.46h4.14v5.46h5.58v3.92h-5.58v5.46H9.35v-5.46H3.8z"/>
</svg>
