<?xml version="1.0" encoding="utf-8"?>
<!-- Generator: Adobe Illustrator 24.0.0, SVG Export Plug-In . SVG Version: 6.00 Build 0)  -->
<svg version="1.1" id="Layer_1" xmlns="http://www.w3.org/2000/svg" xmlns:xlink="http://www.w3.org/1999/xlink" x="0px" y="0px"
	 viewBox="0 0 100 100" style="enable-background:new 0 0 100 100;" xml:space="preserve">
<style type="text/css">
	.st0{fill:none;}
	.st1{fill:#FFFFFF;}
	.st2{fill:#FFFFFF;stroke:#FFFFFF;stroke-width:0.25;stroke-miterlimit:10;}
	.st3{fill:none;stroke:#000000;stroke-width:0.25;stroke-linecap:round;stroke-miterlimit:10;}
	.st4{fill:#D9D9D9;}
	.st5{fill:none;stroke:#000000;stroke-width:2;stroke-linejoin:round;stroke-miterlimit:10;}
	.st6{fill:none;stroke:#000000;stroke-width:0.4396;stroke-miterlimit:10;}
	.st7{fill:none;stroke:#000000;stroke-linecap:round;stroke-linejoin:round;}
	.st8{fill:none;stroke:#000000;stroke-linecap:round;stroke-linejoin:round;stroke-miterlimit:10;}
</style>
<path d="M17.38,6.58c0.93,0.78,1.39,1.81,1.39,3.11c0,0.84-0.21,1.61-0.63,2.3s-1.06,1.24-1.92,1.66c-0.86,0.41-1.92,0.62-3.18,0.62
	c-0.97,0-1.93-0.13-2.87-0.38c-0.94-0.26-1.74-0.62-2.39-1.09l1.26-2.44c0.53,0.39,1.13,0.7,1.81,0.92
	c0.68,0.22,1.39,0.33,2.11,0.33c0.8,0,1.43-0.16,1.89-0.47c0.46-0.32,0.69-0.76,0.69-1.32c0-0.59-0.24-1.04-0.72-1.34
	C14.33,8.15,13.5,8,12.32,8H8.79L9.5,0.24h8.41V2.8h-5.75l-0.22,2.62h1.12C15.01,5.42,16.45,5.81,17.38,6.58z M22.92,13.42
	c-0.89-0.56-1.59-1.38-2.1-2.45c-0.51-1.07-0.76-2.35-0.76-3.83c0-1.48,0.25-2.76,0.76-3.83c0.51-1.07,1.21-1.89,2.1-2.45
	C23.82,0.28,24.83,0,25.98,0c1.14,0,2.16,0.28,3.05,0.85c0.89,0.56,1.59,1.38,2.1,2.45c0.51,1.07,0.76,2.35,0.76,3.83
	c0,1.49-0.25,2.76-0.76,3.83c-0.51,1.07-1.21,1.89-2.1,2.45c-0.89,0.57-1.91,0.85-3.05,0.85C24.83,14.27,23.82,13.99,22.92,13.42z
	 M27.96,10.49c0.48-0.72,0.72-1.84,0.72-3.35c0-1.51-0.24-2.63-0.72-3.35c-0.48-0.72-1.14-1.08-1.98-1.08
	c-0.83,0-1.48,0.36-1.96,1.08c-0.48,0.72-0.72,1.84-0.72,3.35c0,1.51,0.24,2.63,0.72,3.35c0.48,0.72,1.14,1.08,1.96,1.08
	C26.82,11.57,27.48,11.21,27.96,10.49z M49.1,12.37h12.97v3.32H49.1V12.37z M49.1,19.13h12.97v3.32H49.1V19.13z M12.39,32.97v2.6
	H1.96v-2.07l5.32-5.02c0.56-0.54,0.94-1,1.14-1.39c0.2-0.39,0.3-0.77,0.3-1.15c0-0.55-0.19-0.98-0.56-1.27
	c-0.37-0.3-0.92-0.44-1.65-0.44c-0.6,0-1.15,0.12-1.64,0.34c-0.49,0.23-0.89,0.57-1.22,1.04l-2.33-1.5c0.54-0.8,1.28-1.43,2.23-1.88
	c0.95-0.45,2.03-0.68,3.25-0.68c1.02,0,1.92,0.17,2.69,0.5c0.77,0.33,1.37,0.81,1.79,1.42c0.43,0.61,0.64,1.33,0.64,2.16
	c0,0.75-0.16,1.45-0.47,2.11c-0.32,0.66-0.93,1.41-1.83,2.25l-3.17,3H12.39z M16.53,34.96c-0.89-0.56-1.59-1.38-2.1-2.45
	c-0.51-1.07-0.76-2.35-0.76-3.83s0.25-2.76,0.76-3.83c0.51-1.07,1.21-1.89,2.1-2.45c0.89-0.56,1.91-0.85,3.05-0.85
	c1.14,0,2.16,0.28,3.06,0.85c0.89,0.56,1.59,1.38,2.1,2.45s0.76,2.35,0.76,3.83s-0.25,2.76-0.76,3.83s-1.21,1.89-2.1,2.45
	c-0.89,0.56-1.91,0.85-3.06,0.85C18.44,35.81,17.42,35.53,16.53,34.96z M21.56,32.03c0.48-0.72,0.72-1.84,0.72-3.35
	s-0.24-2.63-0.72-3.35c-0.48-0.72-1.14-1.08-1.98-1.08c-0.83,0-1.48,0.36-1.96,1.08c-0.48,0.72-0.72,1.84-0.72,3.35
	s0.24,2.63,0.72,3.35c0.48,0.72,1.13,1.08,1.96,1.08C20.42,33.11,21.08,32.75,21.56,32.03z M33.83,30.27l2.96,5.3h-3.25l-1.73-3.25
	l-3.06,3.25h-3.51l5.3-5.44l-2.82-5.16h3.19l1.67,3.11l2.96-3.11h3.39L33.83,30.27z M40.19,17.26H0.06v1.12h40.12V17.26z
	 M87.52,0.24v13.8h-3.19V2.8h-2.76V0.24H87.52z M85.58,32.68h-2.25v2.9h-3.11v-2.9h-7.43v-2.15l6.5-8.75h3.35l-6.03,8.29h3.7V27.5
	h3.01v2.58h2.25V32.68z M93.31,30.27l2.96,5.3h-3.25l-1.73-3.25l-3.06,3.25h-3.51l5.3-5.44l-2.82-5.16h3.19l1.67,3.11l2.96-3.11
	h3.39L93.31,30.27z M99.93,17.67H70.67v1.12h29.26V17.67z M19.29,97.9v1.92h-7.71V98.3l3.93-3.71c0.42-0.4,0.7-0.74,0.84-1.03
	c0.15-0.29,0.22-0.57,0.22-0.85c0-0.41-0.14-0.72-0.41-0.94c-0.28-0.22-0.68-0.33-1.22-0.33c-0.45,0-0.85,0.09-1.21,0.25
	c-0.36,0.17-0.66,0.43-0.9,0.77l-1.72-1.11c0.4-0.59,0.95-1.06,1.65-1.39c0.7-0.33,1.5-0.5,2.4-0.5c0.76,0,1.42,0.12,1.99,0.37
	c0.57,0.25,1.01,0.6,1.33,1.05s0.47,0.98,0.47,1.6c0,0.55-0.12,1.07-0.35,1.56c-0.23,0.48-0.68,1.04-1.35,1.66L14.9,97.9H19.29z
	 M26.01,95.91l2.18,3.92h-2.4l-1.28-2.4l-2.26,2.4h-2.59l3.92-4.02l-2.08-3.82h2.36l1.24,2.3l2.19-2.3h2.51L26.01,95.91z
	 M39.84,95.62H37.3v2.48h-1.88v-2.48H32.9v-1.78h2.52v-2.48h1.88v2.48h2.53V95.62z M51.02,94.78c0.48,0.52,0.71,1.16,0.71,1.93
	c0,0.59-0.16,1.14-0.47,1.64c-0.31,0.5-0.78,0.9-1.42,1.2c-0.64,0.3-1.42,0.45-2.34,0.45c-0.72,0-1.42-0.09-2.12-0.28
	s-1.28-0.46-1.77-0.81l0.92-1.81c0.39,0.29,0.84,0.52,1.35,0.68c0.51,0.16,1.03,0.24,1.56,0.24c0.59,0,1.06-0.11,1.4-0.34
	c0.34-0.23,0.51-0.55,0.51-0.97c0-0.84-0.64-1.25-1.91-1.25h-1.08V93.9l2.1-2.37h-4.34v-1.89h7.14v1.53l-2.3,2.62
	C49.86,93.93,50.54,94.26,51.02,94.78z M63,95.62h-2.53v2.48h-1.88v-2.48h-2.52v-1.78h2.52v-2.48h1.88v2.48H63V95.62z M74.05,93.83
	c0.53,0.26,0.96,0.63,1.27,1.11c0.31,0.48,0.47,1.04,0.47,1.67c0,0.68-0.17,1.28-0.51,1.79c-0.34,0.51-0.8,0.91-1.39,1.19
	c-0.59,0.28-1.24,0.41-1.96,0.41c-1.43,0-2.54-0.44-3.35-1.31c-0.81-0.87-1.21-2.12-1.21-3.74c0-1.16,0.22-2.15,0.66-2.97
	c0.44-0.83,1.05-1.45,1.83-1.88c0.78-0.43,1.69-0.64,2.72-0.64c0.54,0,1.07,0.06,1.57,0.18c0.5,0.12,0.92,0.29,1.27,0.52l-0.87,1.73
	c-0.5-0.34-1.14-0.51-1.91-0.51c-0.86,0-1.55,0.25-2.05,0.76c-0.5,0.5-0.78,1.24-0.82,2.2c0.6-0.6,1.44-0.9,2.52-0.9
	C72.93,93.43,73.52,93.56,74.05,93.83z M73.03,97.83c0.32-0.27,0.47-0.64,0.47-1.11c0-0.47-0.16-0.84-0.47-1.11
	c-0.32-0.28-0.73-0.41-1.26-0.41c-0.51,0-0.94,0.14-1.27,0.43c-0.33,0.29-0.5,0.65-0.5,1.1c0,0.45,0.16,0.81,0.48,1.09
	c0.32,0.28,0.76,0.42,1.31,0.42C72.3,98.24,72.71,98.1,73.03,97.83z M79.89,92.03h6.93v1.78h-6.93V92.03z M79.89,95.65h6.93v1.78
	h-6.93V95.65z M93.3,99.37c-0.66-0.42-1.18-1.02-1.55-1.81c-0.37-0.79-0.56-1.74-0.56-2.83c0-1.1,0.19-2.04,0.56-2.83
	c0.37-0.79,0.89-1.4,1.55-1.81c0.66-0.42,1.41-0.63,2.26-0.63c0.84,0,1.6,0.21,2.26,0.63c0.66,0.42,1.18,1.02,1.55,1.81
	c0.37,0.79,0.56,1.74,0.56,2.83c0,1.1-0.19,2.04-0.56,2.83c-0.37,0.79-0.89,1.4-1.55,1.81c-0.66,0.42-1.41,0.63-2.26,0.63
	C94.71,100,93.96,99.79,93.3,99.37z M97.02,97.2c0.35-0.53,0.53-1.36,0.53-2.48c0-1.12-0.18-1.94-0.53-2.48
	c-0.36-0.53-0.84-0.8-1.46-0.8c-0.61,0-1.1,0.27-1.45,0.8c-0.35,0.53-0.53,1.36-0.53,2.48c0,1.12,0.18,1.94,0.53,2.48
	c0.35,0.53,0.84,0.8,1.45,0.8C96.18,98,96.67,97.74,97.02,97.2z M51.73,86.29h-40.5l0-0.01H9.12L5.6,97.07L3.64,91.1H0.06v1.76h1.91
	l2.45,7.05h2.34l3.87-11.8h41.1V86.29z M0,43.22v35.65h100V43.22H0z M10.4,66.79c-0.75,0.36-1.68,0.53-2.77,0.53
	c-0.85,0-1.69-0.11-2.51-0.34c-0.82-0.22-1.52-0.54-2.1-0.96l1.09-2.14c0.46,0.35,0.99,0.61,1.6,0.8c0.61,0.19,1.22,0.29,1.86,0.29
	c0.7,0,1.25-0.14,1.66-0.41c0.4-0.27,0.6-0.65,0.6-1.15c0-0.99-0.75-1.48-2.26-1.48H6.28v-1.85l2.49-2.81H3.62v-2.24h8.46v1.81
	l-2.73,3.11c1.06,0.17,1.87,0.57,2.43,1.18c0.56,0.62,0.85,1.38,0.85,2.29c0,0.7-0.18,1.35-0.55,1.94S11.15,66.43,10.4,66.79z
	 M22.45,67.11h-2.85l-1.52-2.85l-2.68,2.85h-3.07l4.64-4.76l-2.47-4.52h2.8l1.47,2.73l2.59-2.73h2.97l-4.47,4.64L22.45,67.11z
	 M37.69,64.27h-8.22v-2.11h8.22V64.27z M37.69,59.99h-8.22v-2.11h8.22V59.99z M55.37,64.58H53.4v2.54h-2.73v-2.54h-6.51V62.7
	l5.7-7.66h2.93l-5.28,7.27h3.24v-2.26h2.64v2.26h1.97V64.58z M69.69,62.13h-3v2.93h-2.23v-2.93h-2.99v-2.11h2.99v-2.93h2.23v2.93h3
	V62.13z M83.2,66.78c-0.75,0.36-1.68,0.54-2.79,0.54c-0.85,0-1.69-0.11-2.51-0.34c-0.82-0.22-1.52-0.54-2.1-0.96l1.1-2.14
	c0.46,0.35,0.99,0.61,1.59,0.8c0.6,0.19,1.21,0.29,1.85,0.29c0.7,0,1.25-0.14,1.66-0.41c0.4-0.28,0.6-0.66,0.6-1.16
	c0-0.52-0.21-0.91-0.63-1.17c-0.42-0.27-1.15-0.4-2.18-0.4H76.7l0.62-6.8h7.37v2.24h-5.04l-0.19,2.3h0.98c1.7,0,2.96,0.34,3.77,1.02
	c0.81,0.68,1.22,1.59,1.22,2.73c0,0.74-0.19,1.41-0.55,2.01C84.51,65.93,83.95,66.42,83.2,66.78z M95.1,67.11h-2.85l-1.52-2.85
	l-2.68,2.85h-3.07l4.64-4.76l-2.47-4.52h2.8l1.47,2.73l2.59-2.73h2.97l-4.47,4.64L95.1,67.11z"/>
</svg>
