<svg id="Layer_1" data-name="Layer 1" xmlns="http://www.w3.org/2000/svg" viewBox="0 0 100 100"><defs><style>.cls-1{fill:#231f20;}.cls-2{fill:none;}</style></defs><title> </title><path class="cls-1" d="M6.87,93.77a2.12,2.12,0,0,1,.65,1.65,3.57,3.57,0,0,1-.09.8L6.7,99.85H4.8l.7-3.51a1.64,1.64,0,0,0,0-.45,1,1,0,0,0-.28-.78,1.16,1.16,0,0,0-.84-.27,1.76,1.76,0,0,0-1.21.42,2.18,2.18,0,0,0-.66,1.26L1.9,99.85H0l1.31-6.56h1.8L3,94a3.09,3.09,0,0,1,2.16-.8A2.49,2.49,0,0,1,6.87,93.77Z"/><path class="cls-1" d="M16.91,96.33H14.79V98.4H13.21V96.33H11.1V94.84h2.11V92.76h1.58v2.08h2.12Z"/><path class="cls-1" d="M19.81,99.61a1.15,1.15,0,0,1-.34-.85,1.1,1.1,0,0,1,.34-.85,1.17,1.17,0,0,1,.84-.33,1.15,1.15,0,0,1,.84.33,1.1,1.1,0,0,1,.34.85,1.15,1.15,0,0,1-.34.85,1.12,1.12,0,0,1-.84.34A1.14,1.14,0,0,1,19.81,99.61Z"/><path class="cls-1" d="M25,99.48A3.48,3.48,0,0,1,23.65,98a5.46,5.46,0,0,1-.47-2.38,5.39,5.39,0,0,1,.47-2.37,3.55,3.55,0,0,1,5.08-1.52A3.49,3.49,0,0,1,30,93.21a5.53,5.53,0,0,1,.47,2.37A5.61,5.61,0,0,1,30,98a3.54,3.54,0,0,1-1.3,1.52,3.69,3.69,0,0,1-3.78,0Zm3.12-1.82a3.9,3.9,0,0,0,.44-2.08,3.86,3.86,0,0,0-.44-2.07,1.45,1.45,0,0,0-2.45,0,3.86,3.86,0,0,0-.44,2.07,3.9,3.9,0,0,0,.44,2.08,1.45,1.45,0,0,0,2.45,0Z"/><path class="cls-1" d="M38.39,98.24v1.61H31.93V98.57l3.29-3.11a3.4,3.4,0,0,0,.71-.86,1.61,1.61,0,0,0,.19-.71.94.94,0,0,0-.35-.79,1.57,1.57,0,0,0-1-.28,2.21,2.21,0,0,0-1,.22,1.81,1.81,0,0,0-.76.64l-1.44-.93a3.38,3.38,0,0,1,1.38-1.17,4.6,4.6,0,0,1,2-.42,4.29,4.29,0,0,1,1.67.31,2.64,2.64,0,0,1,1.11.88,2.33,2.33,0,0,1,.4,1.34,3,3,0,0,1-.3,1.31,5,5,0,0,1-1.13,1.39l-2,1.85Z"/><path class="cls-1" d="M45.41,95.24a2.39,2.39,0,0,1,.86,1.93,2.68,2.68,0,0,1-.39,1.42,2.76,2.76,0,0,1-1.19,1,4.61,4.61,0,0,1-2,.38,6.75,6.75,0,0,1-1.78-.24,4.49,4.49,0,0,1-1.48-.68l.78-1.51a3.82,3.82,0,0,0,1.12.57,4.48,4.48,0,0,0,1.31.2,2.06,2.06,0,0,0,1.17-.29.94.94,0,0,0,.43-.82.92.92,0,0,0-.45-.83,3,3,0,0,0-1.54-.28H40.09l.44-4.81h5.22V92.9H42.18l-.13,1.62h.69A4.1,4.1,0,0,1,45.41,95.24Z"/><path class="cls-1" d="M54.31,93.77A2.08,2.08,0,0,1,55,95.42a4.26,4.26,0,0,1-.08.8l-.74,3.63h-1.9L53,96.34a2.14,2.14,0,0,0,0-.45,1,1,0,0,0-.28-.78,1.19,1.19,0,0,0-.85-.27,1.76,1.76,0,0,0-1.21.42A2.17,2.17,0,0,0,50,96.52l-.66,3.33H47.44l1.31-6.56h1.81l-.15.7a3.09,3.09,0,0,1,2.16-.8A2.49,2.49,0,0,1,54.31,93.77Z"/><path class="cls-1" d="M58.54,93.32h5.81v1.49H58.54Zm0,3h5.81v1.49H58.54Z"/><path class="cls-1" d="M71,91.31v8.54H69V92.9h-1.7V91.31Z"/><path class="cls-1" d="M73.39,99.61a1.15,1.15,0,0,1-.34-.85,1.1,1.1,0,0,1,.34-.85,1.25,1.25,0,0,1,1.69,0,1.14,1.14,0,0,1,.34.85,1.19,1.19,0,0,1-.34.85,1.22,1.22,0,0,1-1.69,0Z"/><path class="cls-1" d="M83.42,98.24v1.61H77V98.57l3.29-3.11A3.4,3.4,0,0,0,81,94.6a1.59,1.59,0,0,0,.18-.71.94.94,0,0,0-.34-.79,1.61,1.61,0,0,0-1-.28,2.28,2.28,0,0,0-1,.22,1.84,1.84,0,0,0-.75.64l-1.44-.93A3.38,3.38,0,0,1,78,91.58a4.57,4.57,0,0,1,2-.42,4.29,4.29,0,0,1,1.67.31,2.64,2.64,0,0,1,1.11.88,2.32,2.32,0,0,1,.39,1.34A3,3,0,0,1,82.85,95a5,5,0,0,1-1.13,1.39l-2,1.85Z"/><path class="cls-1" d="M90.45,95.24a2.39,2.39,0,0,1,.86,1.93,2.68,2.68,0,0,1-.39,1.42,2.76,2.76,0,0,1-1.19,1,4.61,4.61,0,0,1-2,.38A6.7,6.7,0,0,1,86,99.76a4.49,4.49,0,0,1-1.48-.68l.78-1.51a3.82,3.82,0,0,0,1.12.57,4.48,4.48,0,0,0,1.31.2,2.06,2.06,0,0,0,1.17-.29.94.94,0,0,0,.43-.82.92.92,0,0,0-.45-.83,3,3,0,0,0-1.54-.28H85.13l.44-4.81h5.21V92.9H87.22l-.13,1.62h.69A4.1,4.1,0,0,1,90.45,95.24Z"/><path class="cls-1" d="M99.35,93.77a2.12,2.12,0,0,1,.65,1.65,3.57,3.57,0,0,1-.09.8l-.73,3.63h-1.9L98,96.34a2.15,2.15,0,0,0,0-.45,1,1,0,0,0-.28-.78,1.15,1.15,0,0,0-.84-.27,1.76,1.76,0,0,0-1.21.42A2.24,2.24,0,0,0,95,96.52l-.65,3.33H92.48l1.31-6.56h1.8l-.14.7a3.09,3.09,0,0,1,2.16-.8A2.49,2.49,0,0,1,99.35,93.77Z"/><polygon class="cls-1" points="83.62 71.25 87.16 71.25 87.16 55.99 80.57 55.99 80.57 58.82 83.62 58.82 83.62 71.25"/><path class="cls-1" d="M95.68,68a3.71,3.71,0,0,1-2.09.51,7.84,7.84,0,0,1-2.35-.36,6.56,6.56,0,0,1-2-1l-1.38,2.71a8.2,8.2,0,0,0,2.65,1.21,12.18,12.18,0,0,0,3.18.42,8.19,8.19,0,0,0,3.5-.67A4.82,4.82,0,0,0,99.3,69a4.53,4.53,0,0,0,.7-2.45,4.13,4.13,0,0,0-1.07-2.89,5.14,5.14,0,0,0-3.07-1.5l3.44-3.92V56H88.62v2.83h6.5L92,62.38v2.33h1.61c1.9,0,2.86.63,2.86,1.88A1.67,1.67,0,0,1,95.68,68Z"/><polygon class="cls-1" points="75.1 62.2 64.72 58.26 64.72 60.96 71.98 63.62 64.72 66.26 64.72 68.98 75.1 65.04 75.1 62.2"/><path class="cls-1" d="M7.83,68a3.74,3.74,0,0,1-2.09.51,7.84,7.84,0,0,1-2.35-.36,6.56,6.56,0,0,1-2-1L0,69.88a8.2,8.2,0,0,0,2.65,1.21,12.16,12.16,0,0,0,3.17.42,8.15,8.15,0,0,0,3.5-.67A4.9,4.9,0,0,0,11.45,69a4.62,4.62,0,0,0,.7-2.45,4.13,4.13,0,0,0-1.07-2.89A5.14,5.14,0,0,0,8,62.2l3.45-3.92V56H.76v2.83h6.5L4.12,62.38v2.33H5.74c1.9,0,2.85.63,2.85,1.88A1.66,1.66,0,0,1,7.83,68Z"/><polygon class="cls-1" points="10.69 71.25 14.57 71.25 17.95 67.66 19.87 71.25 23.46 71.25 20.19 65.39 25.84 59.52 22.09 59.52 18.82 62.97 16.97 59.52 13.43 59.52 16.55 65.23 10.69 71.25"/><polygon class="cls-1" points="33.93 68.66 36.74 68.66 36.74 64.95 40.54 64.95 40.54 62.29 36.74 62.29 36.74 58.58 33.93 58.58 33.93 62.29 30.16 62.29 30.16 64.95 33.93 64.95 33.93 68.66"/><polygon class="cls-1" points="49.56 58.87 54.62 58.87 49.15 71.25 52.99 71.25 58.66 58.28 58.66 55.99 46.42 55.99 46.42 61.35 49.56 61.35 49.56 58.87"/><path class="cls-1" d="M49.48,28.46a1.17,1.17,0,0,0-1,.57,3.21,3.21,0,0,0-.37,1.75,3.23,3.23,0,0,0,.37,1.75,1.22,1.22,0,0,0,2.06,0,3.22,3.22,0,0,0,.38-1.75A3.2,3.2,0,0,0,50.51,29,1.17,1.17,0,0,0,49.48,28.46Z"/><path class="cls-1" d="M75.28,9.74A1.34,1.34,0,1,0,73.89,8.4,1.36,1.36,0,0,0,75.28,9.74Z"/><rect class="cls-2" x="17.44" y="30.84" width="2.92" height="1.29"/><path class="cls-2" d="M66.85,9.55,65,8.91h8.52a1.81,1.81,0,0,0,1.73,1.24,1.75,1.75,0,1,0,0-3.5,1.81,1.81,0,0,0-1.73,1.24H65l1.82-.64-.18-.48L62,8.4,66.67,10Z"/><rect class="cls-2" x="31.84" y="30.84" width="2.92" height="1.29"/><polygon class="cls-2" points="88.01 14.22 88.01 18 75.81 18 75.81 13.46 74.77 13.46 74.77 18 63.1 18 63.1 13.46 62.06 13.46 62.06 18 50.39 18 50.39 13.46 49.34 13.46 49.34 18 37.67 18 37.67 13.46 36.63 13.46 36.63 18 24.96 18 24.96 13.46 23.91 13.46 23.91 18 11.85 18 11.85 14.15 7.83 16.48 3.82 18.79 7.83 21.11 11.85 23.43 11.85 19.61 23.91 19.61 23.91 24.25 24.96 24.25 24.96 19.61 36.63 19.61 36.63 24.25 37.67 24.25 37.67 19.61 49.34 19.61 49.34 24.25 50.39 24.25 50.39 19.61 62.06 19.61 62.06 24.25 63.1 24.25 63.1 19.61 74.77 19.61 74.77 24.25 75.81 24.25 75.81 19.61 88.01 19.61 88.01 23.5 92.02 21.18 96.04 18.86 92.02 16.54 88.01 14.22"/><path class="cls-2" d="M76.53,31.46a4.35,4.35,0,0,0,1-1.18,2.56,2.56,0,0,0,.24-1.1,2,2,0,0,0-.33-1.13,2.12,2.12,0,0,0-.94-.74,3.41,3.41,0,0,0-1.41-.26,3.86,3.86,0,0,0-1.7.35,2.89,2.89,0,0,0-1.16,1l1.21.78a1.66,1.66,0,0,1,.64-.54,2,2,0,0,1,.86-.18,1.4,1.4,0,0,1,.86.23.79.79,0,0,1,.29.66,1.34,1.34,0,0,1-.15.61,3,3,0,0,1-.6.73L72.52,33.3v1.09H78V33h-3.1Z"/><polygon class="cls-2" points="60.51 28.51 61.95 28.51 61.95 34.39 63.63 34.39 63.63 27.17 60.51 27.17 60.51 28.51"/><path class="cls-2" d="M25.07,31.46a4.16,4.16,0,0,0,1-1.18,2.57,2.57,0,0,0,.25-1.1,1.89,1.89,0,0,0-.34-1.13,2.07,2.07,0,0,0-.94-.74,3.4,3.4,0,0,0-1.4-.26,4,4,0,0,0-1.71.35,2.89,2.89,0,0,0-1.16,1l1.22.78a1.59,1.59,0,0,1,.64-.54,2,2,0,0,1,.85-.18,1.38,1.38,0,0,1,.86.23.81.81,0,0,1,.3.67,1.23,1.23,0,0,1-.16.6,3,3,0,0,1-.6.73l-2.78,2.63v1.08h5.45V33h-3.1Z"/><polygon class="cls-2" points="35.14 28.51 36.58 28.51 36.58 34.39 38.26 34.39 38.26 27.17 35.14 27.17 35.14 28.51"/><path class="cls-2" d="M51.08,27.49a3.13,3.13,0,0,0-3.2,0,3,3,0,0,0-1.1,1.28,4.74,4.74,0,0,0-.4,2,4.69,4.69,0,0,0,.4,2,3,3,0,0,0,1.1,1.29,3.13,3.13,0,0,0,3.2,0,3,3,0,0,0,1.09-1.29,5.23,5.23,0,0,0,0-4A3,3,0,0,0,51.08,27.49Z"/><path d="M0,.22V42.35H100V.22ZM66.67,6.77l.18.48L65,7.89h8.52a1.81,1.81,0,0,1,1.73-1.24,1.75,1.75,0,1,1,0,3.5,1.81,1.81,0,0,1-1.73-1.24H65l1.82.64-.18.48L62,8.4ZM20.36,32.13H17.44V30.84h2.92Zm6.15,2.26H21.06V33.31l2.78-2.63a3,3,0,0,0,.6-.73,1.23,1.23,0,0,0,.16-.6.81.81,0,0,0-.3-.67,1.38,1.38,0,0,0-.86-.23,2,2,0,0,0-.85.18,1.59,1.59,0,0,0-.64.54l-1.22-.78a2.89,2.89,0,0,1,1.16-1,4,4,0,0,1,1.71-.35,3.4,3.4,0,0,1,1.4.26,2.07,2.07,0,0,1,.94.74,1.89,1.89,0,0,1,.34,1.13,2.57,2.57,0,0,1-.25,1.1,4.16,4.16,0,0,1-1,1.18L23.41,33h3.1Zm8.25-2.26H31.84V30.84h2.92Zm3.5,2.26H36.58V28.51H35.14V27.17h3.12Zm13.91-1.61a3,3,0,0,1-1.09,1.29,3.13,3.13,0,0,1-3.2,0,3,3,0,0,1-1.1-1.29,4.69,4.69,0,0,1-.4-2,4.74,4.74,0,0,1,.4-2,3,3,0,0,1,1.1-1.28,3.13,3.13,0,0,1,3.2,0,3,3,0,0,1,1.09,1.28,5.23,5.23,0,0,1,0,4Zm11.46,1.61H62V28.51H60.51V27.17h3.12Zm14.34,0H72.52V33.3l2.78-2.62a3,3,0,0,0,.6-.73,1.34,1.34,0,0,0,.15-.61.79.79,0,0,0-.29-.66,1.4,1.4,0,0,0-.86-.23,2,2,0,0,0-.86.18,1.66,1.66,0,0,0-.64.54l-1.21-.78a2.89,2.89,0,0,1,1.16-1,3.86,3.86,0,0,1,1.7-.35,3.41,3.41,0,0,1,1.41.26,2.12,2.12,0,0,1,.94.74,2,2,0,0,1,.33,1.13,2.56,2.56,0,0,1-.24,1.1,4.35,4.35,0,0,1-1,1.18L74.87,33H78ZM92,21.18,88,23.5V19.61H75.81v4.64h-1V19.61H63.1v4.64h-1V19.61H50.39v4.64h-1V19.61H37.67v4.64h-1V19.61H25v4.64H23.91V19.61H11.85v3.82l-4-2.32-4-2.32,4-2.32,4-2.31V18H23.91V13.46H25V18H36.63V13.46h1V18H49.34V13.46h1V18H62.06V13.46h1V18H74.77V13.46h1V18H88V14.22l4,2.32,4,2.32Z"/></svg>