<?xml version="1.0" encoding="utf-8"?>
<!-- Generator: Adobe Illustrator 24.0.0, SVG Export Plug-In . SVG Version: 6.00 Build 0)  -->
<svg version="1.1" id="Layer_1" xmlns="http://www.w3.org/2000/svg" xmlns:xlink="http://www.w3.org/1999/xlink" x="0px" y="0px"
	 viewBox="0 0 100 100" style="enable-background:new 0 0 100 100;" xml:space="preserve">
<style type="text/css">
	.st0{fill:none;}
	.st1{fill:#FFFFFF;}
	.st2{fill:#FFFFFF;stroke:#FFFFFF;stroke-width:0.25;stroke-miterlimit:10;}
	.st3{fill:none;stroke:#000000;stroke-width:0.25;stroke-linecap:round;stroke-miterlimit:10;}
	.st4{fill:#D9D9D9;}
	.st5{fill:none;stroke:#000000;stroke-width:2;stroke-linejoin:round;stroke-miterlimit:10;}
	.st6{fill:none;stroke:#000000;stroke-width:0.4396;stroke-miterlimit:10;}
	.st7{fill:none;stroke:#000000;stroke-linecap:round;stroke-linejoin:round;}
	.st8{fill:none;stroke:#000000;stroke-linecap:round;stroke-linejoin:round;stroke-miterlimit:10;}
</style>
<g>
	<rect x="41.58" y="19.84" width="16.76" height="4.29"/>
	<rect x="41.58" y="28.57" width="16.76" height="4.3"/>
	<rect x="41.58" y="63.32" width="16.76" height="4.29"/>
	<rect x="41.58" y="72.05" width="16.76" height="4.3"/>
	<rect x="6.25" y="6.88" width="9" height="1.75"/>
	<polygon points="18.31,2.59 22.49,2.59 17.97,12.82 21.14,12.82 25.82,2.1 25.82,0.22 15.72,0.22 15.72,4.64 18.31,4.64 	"/>
	<path d="M29.67,2.76c0.44-0.21,0.94-0.31,1.49-0.31c0.66,0,1.16,0.13,1.5,0.4c0.34,0.27,0.51,0.66,0.51,1.16
		c0,0.35-0.09,0.7-0.27,1.05c-0.18,0.35-0.53,0.78-1.04,1.27L27,10.93v1.89h9.07h0.45h2.75l2.79-2.97l1.58,2.97h2.97l-2.7-4.84
		l4.66-4.84h-3.1l-2.7,2.84l-1.53-2.84h-2.92l2.57,4.72l-4.39,4.51v-1.91h-5.42l2.9-2.74c0.83-0.77,1.39-1.45,1.67-2.05
		c0.29-0.6,0.43-1.24,0.43-1.93c0-0.76-0.19-1.41-0.58-1.97s-0.94-0.99-1.64-1.3C33.19,0.15,32.37,0,31.43,0
		c-1.12,0-2.1,0.21-2.97,0.62c-0.86,0.41-1.54,0.99-2.03,1.72l2.12,1.37C28.85,3.29,29.22,2.97,29.67,2.76z"/>
	<polygon points="57.06,10.67 59.38,10.67 59.38,7.61 62.52,7.61 62.52,5.42 59.38,5.42 59.38,2.36 57.06,2.36 57.06,5.42 
		53.95,5.42 53.95,7.61 57.06,7.61 	"/>
	<path d="M79.18,11.05c0.42-0.64,0.63-1.37,0.63-2.21c0-0.78-0.19-1.47-0.58-2.06c-0.38-0.59-0.91-1.05-1.57-1.38
		c-0.66-0.32-1.39-0.49-2.2-0.49c-1.33,0-2.37,0.37-3.11,1.12c0.05-1.19,0.39-2.09,1.01-2.72c0.62-0.62,1.47-0.94,2.54-0.94
		c0.95,0,1.73,0.21,2.36,0.63l1.08-2.14c-0.43-0.28-0.96-0.49-1.57-0.64C77.15,0.07,76.51,0,75.83,0c-1.27,0-2.39,0.26-3.36,0.79
		c-0.97,0.53-1.72,1.3-2.26,2.32c-0.54,1.02-0.81,2.24-0.81,3.67c0,2,0.5,3.55,1.49,4.63c1,1.08,2.38,1.62,4.14,1.62
		c0.89,0,1.69-0.17,2.42-0.51C78.19,12.18,78.76,11.69,79.18,11.05z M76.4,10.35c-0.39,0.34-0.9,0.5-1.52,0.5
		c-0.68,0-1.22-0.17-1.62-0.52c-0.4-0.35-0.59-0.8-0.59-1.35c0-0.55,0.21-1,0.61-1.36c0.41-0.35,0.93-0.53,1.57-0.53
		c0.65,0,1.17,0.17,1.56,0.51c0.39,0.34,0.58,0.8,0.58,1.38C76.99,9.56,76.79,10.01,76.4,10.35z"/>
	<path d="M83.48,12.26c0.82,0.52,1.75,0.77,2.79,0.77c1.04,0,1.97-0.26,2.79-0.77c0.82-0.52,1.45-1.26,1.92-2.24
		c0.46-0.98,0.69-2.14,0.69-3.5c0-1.36-0.23-2.52-0.69-3.5c-0.46-0.98-1.1-1.73-1.92-2.24C88.25,0.26,87.32,0,86.27,0
		c-1.04,0-1.97,0.26-2.79,0.77s-1.45,1.26-1.92,2.24c-0.46,0.98-0.69,2.14-0.69,3.5c0,1.36,0.23,2.52,0.69,3.5
		C82.03,10.99,82.67,11.74,83.48,12.26z M84.48,3.46c0.44-0.66,1.04-0.99,1.79-0.99c0.77,0,1.37,0.33,1.81,0.99
		c0.44,0.66,0.66,1.68,0.66,3.06c0,1.38-0.22,2.4-0.66,3.06c-0.44,0.66-1.04,0.99-1.81,0.99c-0.76,0-1.35-0.33-1.79-0.99
		c-0.44-0.66-0.66-1.68-0.66-3.06C83.82,5.14,84.04,4.12,84.48,3.46z"/>
	<path d="M8.05,52.73c0.73-0.34,1.3-0.83,1.72-1.47c0.42-0.64,0.63-1.37,0.63-2.21c0-0.78-0.19-1.47-0.58-2.06
		c-0.38-0.59-0.91-1.05-1.57-1.38c-0.66-0.32-1.39-0.49-2.2-0.49c-1.33,0-2.37,0.37-3.11,1.12c0.05-1.19,0.39-2.09,1.01-2.72
		c0.62-0.62,1.47-0.94,2.54-0.94c0.95,0,1.73,0.21,2.36,0.63l1.08-2.14c-0.43-0.28-0.96-0.49-1.57-0.64
		c-0.62-0.15-1.26-0.22-1.93-0.22c-1.27,0-2.39,0.26-3.36,0.79c-0.97,0.53-1.72,1.3-2.26,2.32C0.27,44.34,0,45.57,0,46.99
		c0,2,0.5,3.55,1.49,4.62c1,1.08,2.38,1.62,4.14,1.62C6.52,53.24,7.33,53.07,8.05,52.73z M3.85,50.54c-0.4-0.35-0.59-0.8-0.59-1.35
		c0-0.55,0.2-1,0.61-1.36c0.41-0.35,0.93-0.53,1.57-0.53c0.65,0,1.17,0.17,1.56,0.51c0.39,0.34,0.58,0.8,0.58,1.38
		c0,0.58-0.19,1.03-0.58,1.37c-0.39,0.34-0.9,0.5-1.52,0.5C4.79,51.06,4.25,50.89,3.85,50.54z"/>
	<path d="M17,39.67h-2.68c-0.72,1.08-1.28,2.34-1.67,3.79c-0.39,1.45-0.58,2.99-0.58,4.63s0.19,3.19,0.58,4.62
		c0.39,1.44,0.95,2.7,1.67,3.8H17c-0.76-1.33-1.31-2.68-1.66-4.06c-0.35-1.37-0.52-2.83-0.52-4.36s0.17-2.99,0.52-4.36
		C15.7,42.35,16.25,41,17,39.67z"/>
	<rect x="17.18" y="47.08" width="9" height="1.75"/>
	<polygon points="26.31,42.77 28.83,42.77 28.83,53.02 31.74,53.02 31.74,40.43 26.31,40.43 	"/>
	<path d="M38.69,46.54l-4.86,4.59v1.89h9.07h0.45h2.75l2.79-2.97l1.58,2.97h2.97l-2.7-4.84l4.66-4.84h-3.1l-2.7,2.84l-1.53-2.84
		h-2.92l2.57,4.71l-4.39,4.51v-1.91h-5.42l2.9-2.74c0.83-0.77,1.39-1.45,1.67-2.05c0.29-0.6,0.43-1.24,0.43-1.93
		c0-0.76-0.19-1.41-0.58-1.97c-0.39-0.56-0.94-0.99-1.64-1.3c-0.7-0.31-1.52-0.46-2.46-0.46c-1.12,0-2.1,0.21-2.97,0.62
		c-0.86,0.41-1.54,0.99-2.03,1.72l2.12,1.37c0.3-0.42,0.67-0.74,1.12-0.94s0.94-0.31,1.49-0.31c0.66,0,1.16,0.13,1.5,0.4
		c0.34,0.27,0.51,0.66,0.51,1.16c0,0.35-0.09,0.7-0.27,1.05C39.55,45.63,39.2,46.05,38.69,46.54z"/>
	<polygon points="66.2,50.88 66.2,47.82 69.33,47.82 69.33,45.63 66.2,45.63 66.2,42.57 63.88,42.57 63.88,45.63 60.77,45.63 
		60.77,47.82 63.88,47.82 63.88,50.88 	"/>
	<polygon points="81.08,53.02 81.08,40.43 75.65,40.43 75.65,42.77 78.17,42.77 78.17,53.02 	"/>
	<path d="M88.68,40.21c-1.04,0-1.97,0.26-2.79,0.77c-0.82,0.52-1.45,1.26-1.92,2.24c-0.46,0.98-0.69,2.14-0.69,3.5
		c0,1.36,0.23,2.52,0.69,3.5c0.46,0.98,1.1,1.73,1.92,2.24c0.82,0.52,1.75,0.77,2.79,0.77c1.04,0,1.97-0.26,2.79-0.77
		c0.82-0.52,1.45-1.26,1.92-2.24c0.46-0.98,0.69-2.14,0.69-3.5c0-1.36-0.23-2.52-0.69-3.5c-0.46-0.98-1.1-1.73-1.92-2.24
		C90.65,40.47,89.72,40.21,88.68,40.21z M90.49,49.78c-0.44,0.66-1.04,0.99-1.81,0.99c-0.76,0-1.35-0.33-1.79-0.99
		c-0.44-0.66-0.66-1.68-0.66-3.06c0-1.38,0.22-2.4,0.66-3.06c0.44-0.66,1.04-0.99,1.79-0.99c0.77,0,1.37,0.33,1.81,0.99
		c0.44,0.66,0.66,1.68,0.66,3.06C91.14,48.1,90.92,49.12,90.49,49.78z"/>
	<path d="M99.34,43.44c-0.39-1.45-0.95-2.7-1.68-3.77h-2.68c0.76,1.33,1.31,2.68,1.67,4.06c0.35,1.37,0.53,2.83,0.53,4.36
		s-0.18,2.99-0.53,4.36c-0.35,1.37-0.91,2.73-1.67,4.06h2.68c0.74-1.09,1.31-2.35,1.69-3.79c0.38-1.43,0.58-2.98,0.58-4.63
		C99.92,46.44,99.73,44.89,99.34,43.44z"/>
	<rect x="4.81" y="90.57" width="9" height="1.75"/>
	<polygon points="13.94,86.25 16.46,86.25 16.46,96.51 19.37,96.51 19.37,83.91 13.94,83.91 	"/>
	<path d="M28.46,91.4c0.83-0.77,1.39-1.45,1.67-2.05c0.29-0.6,0.43-1.24,0.43-1.93c0-0.76-0.19-1.41-0.58-1.97
		c-0.39-0.56-0.94-0.99-1.64-1.29c-0.7-0.31-1.52-0.46-2.46-0.46c-1.12,0-2.1,0.21-2.97,0.62c-0.86,0.41-1.54,0.99-2.03,1.72
		l2.12,1.37c0.3-0.42,0.67-0.74,1.12-0.95c0.44-0.21,0.94-0.31,1.49-0.31c0.66,0,1.16,0.14,1.5,0.41c0.34,0.27,0.51,0.66,0.51,1.16
		c0,0.35-0.09,0.7-0.27,1.05c-0.18,0.35-0.53,0.78-1.04,1.27l-4.86,4.59v1.89h9.52v-2.38h-5.42L28.46,91.4z"/>
	<path d="M37.73,83.15h-2.68c-0.72,1.08-1.28,2.34-1.67,3.79c-0.39,1.45-0.58,2.99-0.58,4.63c0,1.64,0.19,3.19,0.58,4.63
		c0.39,1.44,0.95,2.71,1.67,3.8h2.68c-0.76-1.33-1.31-2.68-1.66-4.06c-0.35-1.37-0.52-2.83-0.52-4.36c0-1.54,0.17-2.99,0.52-4.36
		C36.42,85.84,36.98,84.49,37.73,83.15z"/>
	<path d="M48.44,90.47c-0.38-0.59-0.91-1.05-1.57-1.38c-0.66-0.33-1.39-0.49-2.2-0.49c-1.33,0-2.37,0.37-3.11,1.12
		c0.05-1.19,0.39-2.09,1.01-2.72c0.62-0.62,1.47-0.94,2.54-0.94c0.95,0,1.73,0.21,2.36,0.63l1.08-2.14
		c-0.43-0.28-0.96-0.49-1.57-0.64c-0.62-0.15-1.26-0.23-1.93-0.23c-1.27,0-2.39,0.26-3.36,0.79c-0.97,0.53-1.72,1.3-2.26,2.32
		c-0.54,1.02-0.81,2.24-0.81,3.67c0,2,0.5,3.55,1.49,4.63c1,1.08,2.38,1.62,4.14,1.62c0.89,0,1.69-0.17,2.42-0.51
		c0.73-0.34,1.3-0.83,1.72-1.47c0.42-0.64,0.63-1.37,0.63-2.21C49.02,91.75,48.83,91.06,48.44,90.47z M45.61,94.04
		c-0.39,0.34-0.9,0.5-1.52,0.5c-0.68,0-1.22-0.17-1.62-0.52c-0.4-0.35-0.59-0.8-0.59-1.35c0-0.55,0.21-1,0.61-1.36
		c0.41-0.35,0.93-0.53,1.57-0.53c0.65,0,1.17,0.17,1.56,0.51c0.39,0.34,0.58,0.8,0.58,1.38C46.19,93.25,46,93.71,45.61,94.04z"/>
	<polygon points="57.84,86.82 55.14,89.67 53.61,86.82 50.69,86.82 53.27,91.54 48.42,96.51 51.63,96.51 54.42,93.54 56,96.51 
		58.97,96.51 56.27,91.67 60.93,86.82 	"/>
	<rect x="65.18" y="90.57" width="9" height="1.75"/>
	<path d="M84.29,88.64h-1.03l0.2-2.39h5.26v-2.34h-7.69L80.39,91h3.22c1.08,0,1.84,0.14,2.28,0.41c0.44,0.28,0.66,0.68,0.66,1.22
		c0,0.52-0.21,0.92-0.63,1.21c-0.42,0.29-1,0.43-1.73,0.43c-0.66,0-1.3-0.1-1.93-0.3s-1.18-0.48-1.66-0.84l-1.15,2.23
		c0.6,0.43,1.33,0.76,2.19,1c0.86,0.23,1.73,0.35,2.62,0.35c1.15,0,2.12-0.19,2.91-0.57c0.79-0.38,1.37-0.88,1.75-1.51
		c0.38-0.63,0.58-1.33,0.58-2.1c0-1.19-0.42-2.14-1.27-2.84C87.38,89,86.07,88.64,84.29,88.64z"/>
	<path d="M92.84,83.15h-2.68c0.76,1.33,1.31,2.68,1.67,4.06c0.35,1.38,0.53,2.83,0.53,4.36c0,1.54-0.18,2.99-0.53,4.36
		c-0.35,1.37-0.91,2.73-1.67,4.06h2.68c0.74-1.09,1.31-2.36,1.69-3.79c0.38-1.43,0.58-2.98,0.58-4.63c0-1.66-0.19-3.21-0.58-4.65
		C94.14,85.48,93.57,84.22,92.84,83.15z"/>
</g>
</svg>
