<?xml version="1.0" encoding="utf-8"?>
<!-- Generator: Adobe Illustrator 24.0.0, SVG Export Plug-In . SVG Version: 6.00 Build 0)  -->
<svg version="1.1" id="Layer_1" xmlns="http://www.w3.org/2000/svg" xmlns:xlink="http://www.w3.org/1999/xlink" x="0px" y="0px"
	 viewBox="0 0 100 100" style="enable-background:new 0 0 100 100;" xml:space="preserve">
<style type="text/css">
	.st0{fill:none;}
	.st1{fill:#FFFFFF;}
	.st2{fill:#FFFFFF;stroke:#FFFFFF;stroke-width:0.25;stroke-miterlimit:10;}
	.st3{fill:none;stroke:#000000;stroke-width:0.25;stroke-linecap:round;stroke-miterlimit:10;}
	.st4{fill:#D9D9D9;}
	.st5{fill:none;stroke:#000000;stroke-width:2;stroke-linejoin:round;stroke-miterlimit:10;}
	.st6{fill:none;stroke:#000000;stroke-width:0.4396;stroke-miterlimit:10;}
	.st7{fill:none;stroke:#000000;stroke-linecap:round;stroke-linejoin:round;}
	.st8{fill:none;stroke:#000000;stroke-linecap:round;stroke-linejoin:round;stroke-miterlimit:10;}
</style>
<g>
	<path d="M98.41,55.09c-0.82,0-1.49,0.67-1.49,1.49V87.5c-4.77,0.68-8.55,4.55-9.2,9.43H39.89c-0.82,0-1.49,0.67-1.49,1.49
		s0.67,1.49,1.49,1.49h58.52c0.82,0,1.49-0.67,1.49-1.49V56.59C99.9,55.76,99.24,55.09,98.41,55.09z M88.73,96.93
		c0.63-4.33,3.97-7.76,8.19-8.43v8.43H88.73z"/>
	<rect x="93.57" y="58.38" transform="matrix(0.8151 -0.5794 0.5794 0.8151 -16.6673 65.5331)" width="1.49" height="0.99"/>
	<rect x="74.58" y="71.37" transform="matrix(0.8152 -0.5792 0.5792 0.8152 -27.575 57.3199)" width="2.89" height="0.99"/>
	<rect x="79.3" y="68.02" transform="matrix(0.8151 -0.5794 0.5794 0.8151 -24.7643 59.4531)" width="2.89" height="0.99"/>
	<rect x="69.86" y="74.72" transform="matrix(0.8153 -0.579 0.579 0.8153 -30.3821 55.1798)" width="2.89" height="0.99"/>
	<rect x="88.73" y="61.32" transform="matrix(0.8151 -0.5794 0.5794 0.8151 -19.1373 63.6778)" width="2.89" height="0.99"/>
	<rect x="84.01" y="64.67" transform="matrix(0.8151 -0.5794 0.5794 0.8151 -21.9507 61.5652)" width="2.89" height="0.99"/>
	<rect x="51" y="88.12" transform="matrix(0.8151 -0.5794 0.5794 0.8151 -41.6459 46.7765)" width="2.89" height="0.99"/>
	<rect x="60.43" y="81.42" transform="matrix(0.8153 -0.579 0.579 0.8153 -36.0041 50.9558)" width="2.89" height="0.99"/>
	<rect x="55.72" y="84.77" transform="matrix(0.8153 -0.579 0.579 0.8153 -38.8149 48.8441)" width="2.89" height="0.99"/>
	<rect x="46.28" y="91.47" transform="matrix(0.8152 -0.5792 0.5792 0.8152 -44.4502 44.6456)" width="2.89" height="0.99"/>
	<rect x="65.15" y="78.07" transform="matrix(0.8152 -0.5792 0.5792 0.8152 -33.1981 53.0873)" width="2.89" height="0.99"/>
	<rect x="42.92" y="94.36" transform="matrix(0.8151 -0.5793 0.5793 0.8151 -46.8773 42.8278)" width="1.49" height="0.99"/>
	<path d="M85.42,49.37c0.29,0.35,0.71,0.52,1.14,0.52c0.34,0,0.69-0.12,0.97-0.36c0.63-0.53,0.7-1.48,0.17-2.1L61.36,16.52
		c2.15-1.75,2.85-4.73,1.78-7.23l14.43-6.42c0.75-0.33,1.09-1.22,0.76-1.97c-0.33-0.75-1.21-1.09-1.97-0.76L54.34,9.94
		c-0.43,0.19-0.75,0.57-0.85,1.03c-0.1,0.46,0.01,0.94,0.32,1.3L85.42,49.37z M62.22,9.7c0.89,2.1,0.29,4.59-1.52,6.06l-3.32-3.9
		L62.22,9.7z"/>
	<polygon points="77.41,6.21 77.74,7.68 78.71,7.46 78.39,6 	"/>
	<rect x="84.13" y="35.05" transform="matrix(0.9765 -0.2157 0.2157 0.9765 -5.9056 19.1143)" width="1" height="3.13"/>
	<rect x="78.74" y="10.6" transform="matrix(0.9765 -0.2157 0.2157 0.9765 -0.7595 17.3764)" width="1" height="3.13"/>
	<rect x="82.78" y="28.94" transform="matrix(0.9765 -0.2157 0.2157 0.9765 -4.6191 18.6798)" width="1" height="3.13"/>
	<rect x="80.09" y="16.72" transform="matrix(0.9765 -0.2157 0.2157 0.9765 -2.046 17.811)" width="1" height="3.13"/>
	<rect x="81.43" y="22.83" transform="matrix(0.9765 -0.2157 0.2157 0.9765 -3.3326 18.2453)" width="1" height="3.13"/>
	<rect x="85.33" y="41.32" transform="matrix(0.9764 -0.2161 0.2161 0.9764 -7.0632 19.5412)" width="0.99" height="1.5"/>
	<path d="M71.24,64.95l0.12-0.1c0.08-0.09,0.1-0.18,0.13-0.25c0.05-0.07,0.11-0.17,0.14-0.31l0.01-0.11l-0.01-0.04
		c0-0.08-0.02-0.15-0.04-0.24c-0.01-0.09-0.03-0.21-0.09-0.32l-0.01-0.07L35.63,11.12c-0.08-0.11-0.17-0.16-0.25-0.21
		c-0.05-0.05-0.13-0.14-0.26-0.2l-0.11-0.04l-0.04,0c-0.1-0.02-0.19-0.02-0.32-0.01c-0.1-0.02-0.18,0-0.29,0.03l-0.08,0l-0.09,0.05
		c-0.11,0.06-0.17,0.14-0.19,0.17c-0.06,0.03-0.15,0.08-0.23,0.19L0.89,57.47l-0.08,0.15l0,0.04c-0.04,0.06-0.1,0.15-0.12,0.27
		c-0.02,0.1,0,0.19,0.01,0.26c-0.01,0.05-0.02,0.12,0,0.2l0.05,0.14l0.03,0.03c0.1,0.26,0.26,0.45,0.48,0.58l23.56,12.95
		c0.17,0.09,0.36,0.14,0.54,0.14c0.06,0,0.12,0,0.17-0.01l45.14-6.99C70.89,65.18,71.07,65.09,71.24,64.95z M32.82,16.38
		l-5.77,36.69L4.3,56.59L32.82,16.38z M29.41,52.7l5.65-35.94l10.42,33.45L29.41,52.7z M47.9,50.36l-9.88-31.7l28.85,42.13
		L47.9,50.36z M29.03,55.07l17.71-2.75l20.27,11.14l-40.29,6.24L29.03,55.07z M26.68,55.44L24.5,69.3L5.3,58.75L26.68,55.44z
		 M71.24,64.04C71.24,64.04,71.24,64.04,71.24,64.04L71.24,64.04L71.24,64.04z"/>
</g>
</svg>
