<svg id="Layer_1" data-name="Layer 1" xmlns="http://www.w3.org/2000/svg" viewBox="0 0 100 100"><defs><style>.cls-1{fill:#231f20;}</style></defs><title> </title><polygon class="cls-1" points="19.06 70.64 10.91 70.64 10.91 81.38 -0.01 81.38 -0.01 89.08 10.91 89.08 10.91 99.82 19.06 99.82 19.06 89.08 30.05 89.08 30.05 81.38 19.06 81.38 19.06 70.64"/><path class="cls-1" d="M5.5,44.51H3.18a11.1,11.1,0,0,0-1.44,3.27,15.3,15.3,0,0,0-.51,4,15.06,15.06,0,0,0,.51,4,11.47,11.47,0,0,0,1.44,3.29H5.5a13.8,13.8,0,0,1-1.43-3.51,15.72,15.72,0,0,1,0-7.55A13.8,13.8,0,0,1,5.5,44.51Z"/><path class="cls-1" d="M11.68,53.76a2.67,2.67,0,0,1-1.49.37,5.55,5.55,0,0,1-1.67-.26,4.69,4.69,0,0,1-1.43-.72l-1,1.93A5.88,5.88,0,0,0,8,55.94a8.34,8.34,0,0,0,2.27.31,5.85,5.85,0,0,0,2.51-.49,3.53,3.53,0,0,0,1.52-1.31,3.46,3.46,0,0,0,.5-1.82,3.07,3.07,0,0,0-1.1-2.46,5.23,5.23,0,0,0-3.4-.91H9.39l.17-2.07h4.55v-2H7.46L6.9,51.3H9.69a3.94,3.94,0,0,1,2,.35,1.17,1.17,0,0,1,.57,1.06A1.21,1.21,0,0,1,11.68,53.76Z"/><polygon class="cls-1" points="21.89 47.3 19.93 49.27 17.97 47.3 16.66 48.66 18.59 50.61 16.66 52.56 17.97 53.93 19.93 51.95 21.89 53.93 23.2 52.56 21.27 50.61 23.2 48.66 21.89 47.3"/><path class="cls-1" d="M30,49.6l2.46-2.8V45.16H24.81v2h4.64l-2.24,2.53v1.67h1.15c1.36,0,2,.45,2,1.34a1.16,1.16,0,0,1-.55,1,2.59,2.59,0,0,1-1.49.37,5.55,5.55,0,0,1-1.67-.26,4.63,4.63,0,0,1-1.44-.72l-1,1.93a5.69,5.69,0,0,0,1.89.86,8.22,8.22,0,0,0,2.26.31,5.83,5.83,0,0,0,2.5-.49,3.47,3.47,0,0,0,1.52-1.28,3.27,3.27,0,0,0,.5-1.75,3,3,0,0,0-.77-2.07A3.64,3.64,0,0,0,30,49.6Z"/><path class="cls-1" d="M41.58,45.64a4.46,4.46,0,0,0-6.49,1.94,8,8,0,0,0,0,6.06,4.53,4.53,0,0,0,1.66,1.94,4.44,4.44,0,0,0,6.48-1.94,8,8,0,0,0,0-6.06A4.51,4.51,0,0,0,41.58,45.64Zm-.85,7.62a1.86,1.86,0,0,1-3.12,0,5,5,0,0,1-.56-2.65A5,5,0,0,1,37.61,48a1.86,1.86,0,0,1,3.12,0,4.87,4.87,0,0,1,.57,2.65A4.87,4.87,0,0,1,40.73,53.26Z"/><path class="cls-1" d="M47.11,44.51H44.79A14.61,14.61,0,0,1,46.23,48a15.72,15.72,0,0,1,0,7.55,14.61,14.61,0,0,1-1.44,3.51h2.32a10.78,10.78,0,0,0,1.46-3.28,15.51,15.51,0,0,0,.5-4,15.26,15.26,0,0,0-.51-4A10.46,10.46,0,0,0,47.11,44.51Z"/><polygon class="cls-1" points="55.91 47.01 53.9 47.01 53.9 49.66 51.21 49.66 51.21 51.56 53.9 51.56 53.9 54.21 55.91 54.21 55.91 51.56 58.62 51.56 58.62 49.66 55.91 49.66 55.91 47.01"/><path class="cls-1" d="M65,44.51H62.69a11.1,11.1,0,0,0-1.44,3.27,15.3,15.3,0,0,0-.5,4,15.06,15.06,0,0,0,.5,4,11.47,11.47,0,0,0,1.44,3.29H65a14.17,14.17,0,0,1-1.43-3.51,16.06,16.06,0,0,1,0-7.55A14.17,14.17,0,0,1,65,44.51Z"/><path class="cls-1" d="M73.8,54.45a3.45,3.45,0,0,0,.49-1.82,3.06,3.06,0,0,0-1.09-2.46,5.28,5.28,0,0,0-3.41-.91h-.88l.17-2.07h4.54v-2H67l-.56,6.14H69.2a3.91,3.91,0,0,1,2,.35,1.17,1.17,0,0,1,.57,1.06,1.19,1.19,0,0,1-.55,1,2.67,2.67,0,0,1-1.49.37A5.55,5.55,0,0,1,68,53.87a4.93,4.93,0,0,1-1.43-.72l-1,1.93a5.88,5.88,0,0,0,1.89.86,8.22,8.22,0,0,0,2.26.31,5.89,5.89,0,0,0,2.52-.49A3.59,3.59,0,0,0,73.8,54.45Z"/><polygon class="cls-1" points="81.4 47.3 79.44 49.27 77.48 47.3 76.17 48.66 78.1 50.61 76.17 52.56 77.48 53.93 79.44 51.95 81.4 53.93 82.71 52.56 80.78 50.61 82.71 48.66 81.4 47.3"/><polygon class="cls-1" points="89.27 56.06 93.32 46.8 93.32 45.16 84.58 45.16 84.58 48.99 86.82 48.99 86.82 47.22 90.44 47.22 86.53 56.06 89.27 56.06"/><path class="cls-1" d="M94.49,59.08h2.32a10.78,10.78,0,0,0,1.46-3.28,15.51,15.51,0,0,0,.5-4,15.26,15.26,0,0,0-.51-4,10.46,10.46,0,0,0-1.45-3.26H94.49A14.61,14.61,0,0,1,95.93,48a15.72,15.72,0,0,1,0,7.55A14.61,14.61,0,0,1,94.49,59.08Z"/><polygon class="cls-1" points="99.87 76.39 94.01 70.24 85.2 79.11 76.4 70.24 70.53 76.39 79.2 85.12 70.53 93.85 76.4 100 85.2 91.13 94.01 100 99.87 93.85 91.21 85.12 99.87 76.39"/><rect class="cls-1" x="68.1" y="22.83" width="31.61" height="8.1"/><rect class="cls-1" x="68.1" y="6.36" width="31.61" height="8.1"/><path class="cls-1" d="M15.19,10.66A5.13,5.13,0,0,0,19,9.13,5.2,5.2,0,0,0,20.49,5.3,5,5,0,0,0,19,1.53,5.24,5.24,0,0,0,15.19.06a5.23,5.23,0,0,0-3.76,1.47A5,5,0,0,0,9.89,5.3a5.21,5.21,0,0,0,1.54,3.83A5.12,5.12,0,0,0,15.19,10.66Z"/><path class="cls-1" d="M19,35.69a5.2,5.2,0,0,0,1.53-3.83A5,5,0,0,0,19,28.09a5.24,5.24,0,0,0-3.77-1.47,5.23,5.23,0,0,0-3.76,1.47,5,5,0,0,0-1.54,3.77,5.21,5.21,0,0,0,1.54,3.83,5.12,5.12,0,0,0,3.76,1.53A5.13,5.13,0,0,0,19,35.69Z"/><rect class="cls-1" y="14.75" width="30.39" height="7.79"/></svg>