<svg id="Layer_1" data-name="Layer 1" xmlns="http://www.w3.org/2000/svg" viewBox="0 0 100 100"><defs><style>.cls-1{fill:#231f20;}</style></defs><title> </title><path class="cls-1" d="M23.24,73H2.05A1.94,1.94,0,0,0,.12,74.88V98a1.94,1.94,0,0,0,1.93,1.92H23.24A1.94,1.94,0,0,0,25.17,98V74.88A1.94,1.94,0,0,0,23.24,73ZM4,98A1.93,1.93,0,1,1,5.9,96.07,1.92,1.92,0,0,1,4,98Zm0-5.78A1.93,1.93,0,1,1,5.9,90.29,1.92,1.92,0,0,1,4,92.22Zm0-5.78A1.93,1.93,0,1,1,5.9,84.51,1.92,1.92,0,0,1,4,86.44ZM9.76,98a1.93,1.93,0,1,1,1.92-1.93A1.92,1.92,0,0,1,9.76,98Zm0-5.78a1.93,1.93,0,1,1,1.92-1.93A1.92,1.92,0,0,1,9.76,92.22Zm0-5.78a1.93,1.93,0,1,1,1.92-1.93A1.92,1.92,0,0,1,9.76,86.44ZM15.54,98a1.93,1.93,0,1,1,1.92-1.93A1.92,1.92,0,0,1,15.54,98Zm0-5.78a1.93,1.93,0,1,1,1.92-1.93A1.92,1.92,0,0,1,15.54,92.22Zm0-5.78a1.93,1.93,0,1,1,1.92-1.93A1.92,1.92,0,0,1,15.54,86.44Zm7.7,9.63a1.93,1.93,0,1,1-3.85,0V90.29a1.93,1.93,0,1,1,3.85,0Zm-1.92-9.63a1.93,1.93,0,1,1,1.92-1.93A1.92,1.92,0,0,1,21.32,86.44Zm1.92-6.75a1,1,0,0,1-1,1H3a1,1,0,0,1-1-1V75.84a1,1,0,0,1,1-1H22.28a1,1,0,0,1,1,1Z"/><path class="cls-1" d="M68.78,81.21a1.84,1.84,0,0,1,1.28-.45,2.5,2.5,0,0,1,1.4.43l1.25-2.6a3.45,3.45,0,0,0-1.22-.51,6.7,6.7,0,0,0-1.55-.18,4.9,4.9,0,0,0-5.23,4.61l-.09.76H62.68L62.33,86h1.94l-1.15,9.15a2.16,2.16,0,0,1-.56,1.35,1.6,1.6,0,0,1-1.17.45A2.24,2.24,0,0,1,60,96.55l-1.23,2.61a3.57,3.57,0,0,0,1.23.52,7.36,7.36,0,0,0,1.61.17,5,5,0,0,0,3.53-1.24,5.18,5.18,0,0,0,1.61-3.37L67.87,86h3.07l.32-2.77H68.08l.09-.72A2.08,2.08,0,0,1,68.78,81.21Z"/><path class="cls-1" d="M81.42,78.08h-3.6A20.84,20.84,0,0,0,74,84.91,24.06,24.06,0,0,0,72.56,93a19.62,19.62,0,0,0,.35,3.65,13.13,13.13,0,0,0,.9,3H77.1A21,21,0,0,1,76,93.19a23.39,23.39,0,0,1,1.36-7.84A26.2,26.2,0,0,1,81.42,78.08Z"/><polygon class="cls-1" points="88.01 88.99 93.98 82.78 90.01 82.78 86.55 86.43 84.59 82.78 80.86 82.78 84.16 88.83 77.95 95.19 82.06 95.19 85.63 91.39 87.66 95.19 91.47 95.19 88.01 88.99"/><path class="cls-1" d="M98.46,78.08h-3.3a20.73,20.73,0,0,1,1.06,6.48,23.39,23.39,0,0,1-1.36,7.84,26.57,26.57,0,0,1-4,7.27h3.59a21,21,0,0,0,3.88-6.83,24.35,24.35,0,0,0,1.38-8.09,19.6,19.6,0,0,0-.34-3.65A13.64,13.64,0,0,0,98.46,78.08Z"/><polygon class="cls-1" points="9.75 7.14 3.4 4.89 9.75 2.63 9.75 0.13 0 3.6 0 6.18 9.75 9.64 9.75 7.14"/><rect class="cls-1" y="10.97" width="9.75" height="2.5"/><polygon class="cls-1" points="27.82 3.6 18.07 0.13 18.07 2.63 24.42 4.89 18.07 7.14 18.07 9.64 27.82 6.18 27.82 3.6"/><rect class="cls-1" x="18.07" y="10.97" width="9.75" height="2.5"/><polygon class="cls-1" points="34.55 12.34 37.15 12.34 38.33 10.09 43.88 10.09 43.88 7.59 39.64 7.59 40.98 5.01 43.88 5.01 43.88 2.51 42.29 2.51 43.48 0.26 40.88 0.26 39.69 2.51 34.13 2.51 34.13 5.01 38.37 5.01 37.04 7.59 34.13 7.59 34.13 10.09 35.73 10.09 34.55 12.34"/><path class="cls-1" d="M51.5,48.45V34.73l15.91-16a3.73,3.73,0,0,0,1.46.29,3.9,3.9,0,0,0,3.6-5.37l6.45-6.49A1.5,1.5,0,1,0,76.8,5.05l-6.46,6.49a4,4,0,0,0-1.47-.29,3.88,3.88,0,0,0-3.59,5.38L51.5,30.48V0h-3V33.5L35.74,46.33a3.76,3.76,0,0,0-1.5-.31,3.89,3.89,0,0,0-3.6,2.43H0v3H30.64L19.84,62.31a1.5,1.5,0,0,0,0,2.12,1.51,1.51,0,0,0,2.13,0l10.84-10.9a4,4,0,0,0,1.43.28,3.89,3.89,0,0,0,3.57-2.36H48.5V100h3V51.45H100v-3Zm-13.64,0L48.5,37.75v10.7Z"/></svg>