<?xml version="1.0" encoding="utf-8"?>
<!-- Generator: Adobe Illustrator 24.0.0, SVG Export Plug-In . SVG Version: 6.00 Build 0)  -->
<svg version="1.1" id="Layer_1" xmlns="http://www.w3.org/2000/svg" xmlns:xlink="http://www.w3.org/1999/xlink" x="0px" y="0px"
	 viewBox="0 0 100 100" style="enable-background:new 0 0 100 100;" xml:space="preserve">
<style type="text/css">
	.st0{fill:none;}
	.st1{fill:#FFFFFF;}
	.st2{fill:#FFFFFF;stroke:#FFFFFF;stroke-width:0.25;stroke-miterlimit:10;}
	.st3{fill:none;stroke:#000000;stroke-width:0.25;stroke-linecap:round;stroke-miterlimit:10;}
	.st4{fill:#D9D9D9;}
	.st5{fill:none;stroke:#000000;stroke-width:2;stroke-linejoin:round;stroke-miterlimit:10;}
	.st6{fill:none;stroke:#000000;stroke-width:0.4396;stroke-miterlimit:10;}
	.st7{fill:none;stroke:#000000;stroke-linecap:round;stroke-linejoin:round;}
	.st8{fill:none;stroke:#000000;stroke-linecap:round;stroke-linejoin:round;stroke-miterlimit:10;}
</style>
<g>
	<rect x="44.23" y="52.15" width="19.19" height="4.92"/>
	<polygon points="33.13,45.56 27.97,45.56 27.97,52.36 21.05,52.36 21.05,57.24 27.97,57.24 27.97,64.03 33.13,64.03 33.13,57.24 
		40.09,57.24 40.09,52.36 33.13,52.36 	"/>
	<polygon points="36.37,22.46 30.8,28.07 25.23,22.46 21.51,26.35 27,31.88 21.51,37.41 25.23,41.3 30.8,35.68 36.37,41.3 
		40.09,37.41 34.6,31.88 40.09,26.35 	"/>
	<path d="M53.83,27.03c0.94,0,1.74-0.32,2.39-0.97c0.65-0.65,0.97-1.45,0.97-2.42c0-0.97-0.32-1.77-0.97-2.39
		c-0.64-0.62-1.44-0.93-2.39-0.93c-0.94,0-1.74,0.31-2.39,0.93c-0.64,0.62-0.97,1.41-0.97,2.39c0,0.97,0.33,1.78,0.97,2.42
		C52.09,26.7,52.89,27.03,53.83,27.03z"/>
	<rect x="44.21" y="29.61" width="19.24" height="4.93"/>
	<path d="M56.21,42.87c0.65-0.65,0.97-1.46,0.97-2.42c0-0.97-0.32-1.77-0.97-2.39c-0.64-0.62-1.44-0.93-2.39-0.93
		c-0.94,0-1.74,0.31-2.39,0.93c-0.64,0.62-0.97,1.41-0.97,2.39c0,0.97,0.33,1.78,0.97,2.42c0.65,0.64,1.44,0.97,2.39,0.97
		C54.77,43.84,55.57,43.52,56.21,42.87z"/>
	<path d="M98,88.92L76.03,66.95L76.69,66c4.84-6.99,7.4-15.23,7.4-23.82c0-5.13-0.97-10.03-2.66-14.58
		c-1.88-5.05-4.68-9.63-8.23-13.55c-0.02-0.02-0.04-0.05-0.07-0.07c-3.17-3.48-6.87-6.47-11.04-8.74
		C56.13,1.98,49.3,0.14,42.05,0.14C18.88,0.14,0.02,19,0.02,42.17c0,1.51,0.09,3,0.25,4.48c0.51,4.8,1.87,9.34,3.86,13.53
		c0.01,0.02,0.02,0.04,0.03,0.06c2.49,5.21,6.01,9.83,10.32,13.59c7.39,6.45,17.02,10.39,27.58,10.39c8.46,0,16.92-2.63,23.82-7.41
		l0.95-0.66l21.97,21.91c1.19,1.24,2.85,1.94,4.57,1.94c3.53,0,6.51-2.98,6.51-6.51C99.87,91.79,99.18,90.09,98,88.92z M42.05,71.19
		c-9.14,0-17.2-4.33-22.53-10.96c-0.01-0.02-0.03-0.04-0.05-0.06c-3.08-3.85-5.19-8.45-5.99-13.53c-0.23-1.47-0.45-2.94-0.45-4.48
		c0-16,13.02-29.02,29.02-29.02c5.97,0,11.53,1.82,16.14,4.93c4.36,2.94,7.82,7.06,10.07,11.86c0.01,0.03,0.03,0.05,0.04,0.07
		c1.72,3.71,2.76,7.8,2.76,12.15C71.06,58.17,58.05,71.19,42.05,71.19z"/>
</g>
</svg>
