<svg id="Layer_1" data-name="Layer 1" xmlns="http://www.w3.org/2000/svg" viewBox="0 0 100 100"><defs><style>.cls-1{fill:#231f20;}</style></defs><title> </title><path class="cls-1" d="M98.67,97H23.78A22.29,22.29,0,0,0,3.07,76.29V37a1.5,1.5,0,0,0-3,0V98.5a1.5,1.5,0,0,0,1.5,1.5h97.1a1.5,1.5,0,1,0,0-3ZM3.07,77.81A20.78,20.78,0,0,1,22.26,97H3.07Z"/><rect class="cls-1" x="4.18" y="37.18" width="0.5" height="1.5" transform="translate(-30.05 21.51) rotate(-57.87)"/><polygon class="cls-1" points="57.24 70.55 54.23 68.66 53.7 69.51 56.71 71.4 57.24 70.55"/><polygon class="cls-1" points="58.87 72.76 61.88 74.65 62.41 73.8 59.4 71.91 58.87 72.76"/><polygon class="cls-1" points="67.58 77.05 64.57 75.16 64.04 76.01 67.05 77.9 67.58 77.05"/><polygon class="cls-1" points="43.36 63.01 46.37 64.9 46.9 64.05 43.89 62.16 43.36 63.01"/><polygon class="cls-1" points="52.07 67.3 49.06 65.41 48.53 66.26 51.54 68.15 52.07 67.3"/><polygon class="cls-1" points="41.73 60.8 38.72 58.91 38.19 59.75 41.2 61.65 41.73 60.8"/><polygon class="cls-1" points="77.92 83.56 74.91 81.67 74.38 82.51 77.38 84.4 77.92 83.56"/><polygon class="cls-1" points="83.08 86.81 80.08 84.92 79.55 85.76 82.55 87.66 83.08 86.81"/><polygon class="cls-1" points="93.42 93.31 90.42 91.42 89.88 92.27 92.89 94.16 93.42 93.31"/><polygon class="cls-1" points="72.22 81.15 72.75 80.31 69.74 78.41 69.21 79.26 72.22 81.15"/><polygon class="cls-1" points="88.25 90.06 85.25 88.17 84.72 89.02 87.72 90.91 88.25 90.06"/><polygon class="cls-1" points="26.22 51.04 23.21 49.15 22.68 50 25.69 51.89 26.22 51.04"/><polygon class="cls-1" points="21.05 47.79 18.04 45.9 17.51 46.75 20.52 48.64 21.05 47.79"/><polygon class="cls-1" points="31.39 54.3 28.38 52.4 27.85 53.25 30.86 55.14 31.39 54.3"/><polygon class="cls-1" points="15.88 44.54 12.87 42.65 12.34 43.5 15.35 45.39 15.88 44.54"/><polygon class="cls-1" points="10.71 41.29 7.71 39.4 7.17 40.25 10.18 42.14 10.71 41.29"/><polygon class="cls-1" points="36.56 57.55 33.55 55.66 33.02 56.5 36.03 58.39 36.56 57.55"/><polygon class="cls-1" points="96.93 95.81 95.67 95.02 95.4 95.44 96.67 96.24 96.93 95.81"/><path class="cls-1" d="M1.5,15.33H36.37A7.4,7.4,0,0,0,41.67,21V38.57a1.5,1.5,0,1,0,3,0V13.83a1.5,1.5,0,0,0-1.5-1.5H1.5a1.5,1.5,0,0,0,0,3Zm40.17,4.06a5.9,5.9,0,0,1-3.75-4.06h3.75Z"/><rect class="cls-1" x="38.61" y="36.25" width="0.5" height="1.5" transform="translate(-12.9 51.14) rotate(-58.88)"/><polygon class="cls-1" points="20.79 25.5 17.8 23.7 17.29 24.55 20.27 26.36 20.79 25.5"/><polygon class="cls-1" points="15.67 22.41 12.69 20.61 12.17 21.47 15.16 23.27 15.67 22.41"/><polygon class="cls-1" points="36.13 34.77 33.15 32.97 32.63 33.82 35.62 35.63 36.13 34.77"/><polygon class="cls-1" points="31.02 31.68 28.03 29.88 27.52 30.73 30.5 32.54 31.02 31.68"/><polygon class="cls-1" points="10.56 19.32 7.57 17.52 7.06 18.38 10.04 20.18 10.56 19.32"/><polygon class="cls-1" points="25.9 28.59 22.92 26.79 22.4 27.64 25.39 29.45 25.9 28.59"/><polygon class="cls-1" points="5.1 16.32 3.81 15.54 3.56 15.97 4.84 16.75 5.1 16.32"/><path class="cls-1" d="M58.05,60.29a1.5,1.5,0,0,0,1.5-1.5V13.2a11.4,11.4,0,0,0,10.22-10H98.49a1.5,1.5,0,0,0,0-3H58.05a1.5,1.5,0,0,0-1.5,1.5V58.79A1.5,1.5,0,0,0,58.05,60.29ZM68.26,3.16a9.92,9.92,0,0,1-8.71,8.53V3.16Z"/><rect class="cls-1" x="96.44" y="3.86" width="1.5" height="0.5" transform="matrix(0.57, -0.82, 0.82, 0.57, 38.08, 81.37)"/><rect class="cls-1" x="92.52" y="7.83" width="3.43" height="1" transform="matrix(0.57, -0.82, 0.82, 0.57, 33.37, 80.75)"/><polygon class="cls-1" points="91.45 11.44 89.48 14.24 90.3 14.82 92.27 12.01 91.45 11.44"/><rect class="cls-1" x="65.64" y="46.23" width="3.43" height="1" transform="translate(-9.54 75.14) rotate(-55.03)"/><rect class="cls-1" x="62.28" y="51.03" width="3.43" height="1" transform="translate(-14.91 74.44) rotate(-55.03)"/><rect class="cls-1" x="69" y="41.43" width="3.43" height="1" transform="matrix(0.57, -0.82, 0.82, 0.57, -4.19, 75.82)"/><polygon class="cls-1" points="82.19 26.41 81.37 25.84 79.4 28.65 80.22 29.22 82.19 26.41"/><rect class="cls-1" x="72.36" y="36.63" width="3.43" height="1" transform="translate(1.16 76.48) rotate(-54.98)"/><rect class="cls-1" x="85.8" y="17.43" width="3.43" height="1" transform="translate(22.64 79.34) rotate(-55)"/><rect class="cls-1" x="82.44" y="22.23" width="3.43" height="1" transform="matrix(0.57, -0.82, 0.82, 0.57, 17.28, 78.64)"/><rect class="cls-1" x="75.72" y="31.83" width="3.43" height="1" transform="translate(6.56 77.25) rotate(-55.03)"/><rect class="cls-1" x="60.29" y="55.5" width="1.5" height="0.5" transform="translate(-19.64 73.77) rotate(-55)"/></svg>