<?xml version="1.0" encoding="utf-8"?>
<!-- Generator: Adobe Illustrator 24.0.0, SVG Export Plug-In . SVG Version: 6.00 Build 0)  -->
<svg version="1.1" id="Layer_1" xmlns="http://www.w3.org/2000/svg" xmlns:xlink="http://www.w3.org/1999/xlink" x="0px" y="0px"
	 viewBox="0 0 100 100" style="enable-background:new 0 0 100 100;" xml:space="preserve">
<style type="text/css">
	.st0{fill:none;}
	.st1{fill:#FFFFFF;}
	.st2{fill:#FFFFFF;stroke:#FFFFFF;stroke-width:0.25;stroke-miterlimit:10;}
	.st3{fill:none;stroke:#000000;stroke-width:0.25;stroke-linecap:round;stroke-miterlimit:10;}
	.st4{fill:#D9D9D9;}
	.st5{fill:none;stroke:#000000;stroke-width:2;stroke-linejoin:round;stroke-miterlimit:10;}
	.st6{fill:none;stroke:#000000;stroke-width:0.4396;stroke-miterlimit:10;}
	.st7{fill:none;stroke:#000000;stroke-linecap:round;stroke-linejoin:round;}
	.st8{fill:none;stroke:#000000;stroke-linecap:round;stroke-linejoin:round;stroke-miterlimit:10;}
</style>
<g>
	<rect x="71.3" y="15.22" width="8.83" height="2.26"/>
	<rect x="71.3" y="19.82" width="8.83" height="2.26"/>
	<polygon points="28.48,14.42 26.12,14.42 26.12,17.53 22.95,17.53 22.95,19.77 26.12,19.77 26.12,22.89 28.48,22.89 28.48,19.77 
		31.67,19.77 31.67,17.53 28.48,17.53 	"/>
	<polygon points="52.55,59.78 46.45,59.78 46.45,67.81 38.28,67.81 38.28,73.58 46.45,73.58 46.45,81.61 52.55,81.61 52.55,73.58 
		60.77,73.58 60.77,67.81 52.55,67.81 	"/>
	<path d="M7.55,2.82C8,2.61,8.51,2.5,9.07,2.5c0.67,0,1.18,0.14,1.53,0.41c0.35,0.27,0.52,0.67,0.52,1.18
		c0,0.35-0.09,0.71-0.27,1.07c-0.18,0.36-0.54,0.79-1.06,1.29l-4.95,4.67v1.92h9.69v-2.42H9.02l2.95-2.79
		c0.84-0.78,1.41-1.48,1.7-2.09c0.29-0.61,0.44-1.26,0.44-1.96c0-0.77-0.2-1.44-0.6-2.01c-0.4-0.57-0.95-1.01-1.67-1.32
		C11.13,0.16,10.3,0,9.35,0C8.21,0,7.2,0.22,6.32,0.64C5.44,1.06,4.75,1.64,4.25,2.39l2.16,1.39C6.72,3.35,7.1,3.03,7.55,2.82z"/>
	<polygon points="2.57,36.14 5.54,36.14 5.54,23.31 0.01,23.31 0.01,25.7 2.57,25.7 	"/>
	<path d="M16.12,23.88c-0.83-0.52-1.78-0.79-2.84-0.79c-1.06,0-2.01,0.26-2.84,0.79c-0.83,0.53-1.48,1.29-1.95,2.28
		c-0.47,1-0.71,2.18-0.71,3.56s0.24,2.57,0.71,3.56c0.47,1,1.12,1.76,1.95,2.28c0.83,0.53,1.78,0.79,2.84,0.79
		c1.06,0,2.01-0.26,2.84-0.79c0.83-0.52,1.48-1.29,1.95-2.28c0.47-1,0.71-2.18,0.71-3.56s-0.24-2.57-0.71-3.56
		C17.6,25.17,16.95,24.41,16.12,23.88z M15.12,32.84c-0.45,0.67-1.06,1.01-1.84,1.01c-0.77,0-1.38-0.34-1.82-1.01
		c-0.45-0.67-0.67-1.71-0.67-3.12s0.22-2.44,0.67-3.12c0.45-0.67,1.05-1.01,1.82-1.01c0.78,0,1.39,0.34,1.84,1.01
		c0.45,0.67,0.67,1.71,0.67,3.12S15.57,32.17,15.12,32.84z"/>
	<path d="M46.14,10.56c-0.43,0.29-1.03,0.43-1.78,0.43c-0.68,0-1.34-0.1-1.99-0.3c-0.65-0.2-1.22-0.48-1.71-0.84l-1.17,2.25
		c0.62,0.44,1.37,0.77,2.25,1.01c0.88,0.24,1.78,0.35,2.7,0.35c1.17,0,2.16-0.19,2.97-0.56c0.81-0.38,1.41-0.88,1.81-1.5
		s0.59-1.3,0.59-2.04c0-0.96-0.3-1.76-0.91-2.41c-0.6-0.65-1.48-1.06-2.61-1.25l2.93-3.27V0.52h-9.08v2.36h5.52l-2.67,2.96v1.95
		h1.37c1.62,0,2.43,0.52,2.43,1.56C46.79,9.87,46.58,10.27,46.14,10.56z"/>
	<path d="M53.89,12.68c0.84,0.52,1.8,0.78,2.87,0.78c1.07,0,2.03-0.26,2.87-0.78c0.84-0.52,1.5-1.28,1.97-2.26
		c0.47-0.99,0.71-2.17,0.71-3.54c0-1.37-0.24-2.55-0.71-3.54c-0.48-0.99-1.13-1.74-1.97-2.26c-0.84-0.52-1.8-0.78-2.87-0.78
		c-1.07,0-2.03,0.26-2.87,0.78c-0.84,0.52-1.5,1.28-1.97,2.26c-0.47,0.99-0.71,2.17-0.71,3.54c0,1.37,0.24,2.55,0.71,3.54
		C52.39,11.4,53.05,12.16,53.89,12.68z M54.92,3.79c0.45-0.67,1.07-1,1.84-1c0.79,0,1.41,0.33,1.86,1c0.45,0.67,0.68,1.7,0.68,3.09
		c0,1.4-0.22,2.42-0.68,3.09c-0.45,0.67-1.07,1-1.86,1c-0.78,0-1.39-0.33-1.84-1c-0.45-0.67-0.68-1.7-0.68-3.09
		C54.24,5.48,54.46,4.45,54.92,3.79z"/>
	<polygon points="40.73,36.14 40.73,23.42 35.13,23.42 35.13,25.78 37.72,25.78 37.72,36.14 	"/>
	<path d="M51.41,23.98c-0.84-0.52-1.8-0.78-2.87-0.78c-1.08,0-2.03,0.26-2.87,0.78s-1.5,1.28-1.97,2.26
		c-0.47,0.99-0.71,2.17-0.71,3.54c0,1.37,0.24,2.55,0.71,3.54c0.48,0.99,1.13,1.74,1.97,2.26s1.8,0.78,2.87,0.78
		c1.07,0,2.03-0.26,2.87-0.78c0.84-0.52,1.5-1.28,1.97-2.26c0.47-0.99,0.71-2.17,0.71-3.54c0-1.37-0.24-2.55-0.71-3.54
		C52.91,25.26,52.25,24.5,51.41,23.98z M50.41,32.87c-0.45,0.67-1.07,1-1.86,1c-0.78,0-1.39-0.33-1.84-1
		c-0.45-0.67-0.68-1.7-0.68-3.09c0-1.39,0.23-2.42,0.68-3.09c0.45-0.67,1.07-1,1.84-1c0.79,0,1.41,0.33,1.86,1
		c0.45,0.67,0.68,1.7,0.68,3.09C51.08,31.17,50.86,32.2,50.41,32.87z"/>
	<path d="M63.99,23.98c-0.84-0.52-1.8-0.78-2.87-0.78c-1.08,0-2.03,0.26-2.87,0.78s-1.5,1.28-1.97,2.26
		c-0.47,0.99-0.71,2.17-0.71,3.54c0,1.37,0.24,2.55,0.71,3.54c0.48,0.99,1.13,1.74,1.97,2.26s1.8,0.78,2.87,0.78
		c1.07,0,2.03-0.26,2.87-0.78c0.84-0.52,1.5-1.28,1.97-2.26c0.47-0.99,0.71-2.17,0.71-3.54c0-1.37-0.24-2.55-0.71-3.54
		C65.49,25.26,64.83,24.5,63.99,23.98z M62.98,32.87c-0.45,0.67-1.07,1-1.86,1c-0.78,0-1.39-0.33-1.84-1
		c-0.45-0.67-0.68-1.7-0.68-3.09c0-1.39,0.23-2.42,0.68-3.09c0.45-0.67,1.07-1,1.84-1c0.79,0,1.41,0.33,1.86,1
		c0.45,0.67,0.68,1.7,0.68,3.09C63.66,31.17,63.44,32.2,62.98,32.87z"/>
	<rect x="0.21" y="17.84" width="18.37" height="1.62"/>
	<polygon points="87.5,62.82 87.5,40.93 78.06,40.93 78.06,45 82.43,45 82.43,62.82 	"/>
	<path d="M90.59,95.87l5.04-4.75c1.44-1.33,2.41-2.52,2.91-3.57c0.5-1.04,0.75-2.16,0.75-3.35c0-1.31-0.34-2.45-1.02-3.43
		c-0.68-0.97-1.63-1.72-2.85-2.25c-1.22-0.53-2.64-0.8-4.27-0.8c-1.94,0-3.66,0.36-5.16,1.08c-1.5,0.72-2.68,1.72-3.54,2.99
		l3.69,2.38c0.52-0.73,1.17-1.28,1.94-1.64c0.77-0.36,1.64-0.54,2.6-0.54c1.15,0,2.02,0.23,2.61,0.7c0.6,0.47,0.89,1.14,0.89,2.02
		c0,0.61-0.16,1.22-0.47,1.83c-0.31,0.61-0.92,1.35-1.81,2.2l-8.44,7.98V100H100v-4.13H90.59z"/>
	<polygon points="70.13,82.17 74.51,82.17 74.51,100 79.57,100 79.57,78.11 70.13,78.11 	"/>
	<rect x="71.24" y="69.12" width="27.65" height="2.76"/>
	<rect x="36.05" y="17.85" width="29.72" height="1.61"/>
	<path d="M26.13,69.14c-2.52-2.11-6.42-3.16-11.71-3.16h-3.06l0.59-7.13h15.65v-6.97H4.72L2.79,73h9.6c3.22,0,5.48,0.41,6.78,1.23
		c1.3,0.82,1.96,2.04,1.96,3.65c0,1.54-0.62,2.73-1.88,3.59c-1.25,0.86-2.97,1.29-5.15,1.29c-1.97,0-3.88-0.29-5.74-0.89
		c-1.86-0.59-3.5-1.42-4.93-2.49L0,86.03C1.79,87.31,3.96,88.3,6.51,89c2.56,0.7,5.16,1.05,7.8,1.05c3.43,0,6.32-0.56,8.66-1.69
		c2.34-1.13,4.08-2.63,5.23-4.5c1.14-1.88,1.72-3.96,1.72-6.25C29.91,74.07,28.65,71.25,26.13,69.14z"/>
	<path d="M95.1,14.5c-0.62-0.44-1.44-0.65-2.47-0.65c-0.87,0-1.63,0.16-2.27,0.47c-0.64,0.31-1.14,0.75-1.52,1.32l1.62,0.95
		c0.22-0.31,0.5-0.55,0.82-0.73c0.33-0.17,0.7-0.26,1.12-0.26c0.44,0,0.79,0.1,1.05,0.29c0.26,0.19,0.39,0.45,0.39,0.78
		c0,0.23-0.07,0.44-0.21,0.62c-0.14,0.18-0.35,0.41-0.65,0.67c-0.4,0.37-0.71,0.7-0.92,1c-0.21,0.3-0.31,0.69-0.31,1.15h2.02
		c0-0.28,0.08-0.53,0.23-0.73c0.15-0.2,0.39-0.45,0.72-0.74c0.28-0.25,0.5-0.47,0.68-0.66c0.17-0.19,0.32-0.43,0.44-0.7
		c0.12-0.28,0.18-0.6,0.18-0.96C96.03,15.54,95.72,14.93,95.1,14.5z"/>
	<path d="M92.78,21.06c-0.37,0-0.68,0.11-0.92,0.34c-0.24,0.23-0.36,0.51-0.36,0.85c0,0.34,0.12,0.63,0.37,0.86
		c0.24,0.24,0.55,0.35,0.92,0.35c0.36,0,0.67-0.12,0.92-0.35c0.24-0.24,0.37-0.52,0.37-0.86c0-0.34-0.12-0.62-0.36-0.85
		C93.46,21.17,93.16,21.06,92.78,21.06z"/>
	<path d="M86.21,26.21h12.47c0.73,0,1.32-0.6,1.32-1.32V12.42c0-0.73-0.6-1.32-1.32-1.32H86.21c-0.73,0-1.32,0.6-1.32,1.32v12.47
		C84.88,25.61,85.48,26.21,86.21,26.21z M86.61,12.83h11.65v11.65H86.61V12.83z"/>
</g>
</svg>
