<svg id="Layer_1" data-name="Layer 1" xmlns="http://www.w3.org/2000/svg" viewBox="0 0 100 100"><title> </title><polygon points="0 60.18 5.14 60.18 9.61 55.42 12.15 60.18 16.92 60.18 12.58 52.42 20.06 44.65 15.1 44.65 10.77 49.21 8.31 44.65 3.64 44.65 7.76 52.22 0 60.18"/><polygon points="26.62 57.18 40.36 51.96 40.36 48.2 26.62 42.98 26.62 46.56 36.24 50.08 26.62 53.57 26.62 57.18"/><rect x="50.29" y="50.66" width="14.43" height="2.8"/><polygon points="68.97 60.18 73.64 60.18 73.64 39.98 64.93 39.98 64.93 43.73 68.97 43.73 68.97 60.18"/><path d="M82.62,57.59a2.67,2.67,0,0,0-.8-2,3,3,0,0,0-4,0,2.64,2.64,0,0,0-.81,2,2.83,2.83,0,0,0,4.8,2A2.78,2.78,0,0,0,82.62,57.59Z"/><path d="M90.56,51.35a7.3,7.3,0,0,1,3.65.66,2.36,2.36,0,0,1,0,3.9,4.83,4.83,0,0,1-2.77.69,10.31,10.31,0,0,1-3.08-.47,9,9,0,0,1-2.66-1.34l-1.85,3.58A10.93,10.93,0,0,0,87.4,60a16,16,0,0,0,4.2.56,10.64,10.64,0,0,0,4.66-.91,6.43,6.43,0,0,0,2.81-2.42,6.33,6.33,0,0,0,.93-3.37,5.65,5.65,0,0,0-2-4.56q-2-1.7-6.3-1.7H90l.32-3.84h8.43V40H86.43l-1,11.37Z"/><path d="M5,4.2a5.2,5.2,0,0,1,2.26-.48,3.64,3.64,0,0,1,2.29.61,2.12,2.12,0,0,1,.78,1.77,3.55,3.55,0,0,1-.41,1.6A8.12,8.12,0,0,1,8.34,9.62L1,16.6v2.86H15.42v-3.6H7.19l4.4-4.16a11.37,11.37,0,0,0,2.55-3.11,6.82,6.82,0,0,0,.65-2.93,5,5,0,0,0-.89-3,5.7,5.7,0,0,0-2.48-2A9.21,9.21,0,0,0,7.68,0,10.48,10.48,0,0,0,3.17.94,7.57,7.57,0,0,0,.08,3.56L3.31,5.63A4.33,4.33,0,0,1,5,4.2Z"/><polygon points="25.91 16.21 29.43 16.21 29.43 11.56 34.19 11.56 34.19 8.23 29.43 8.23 29.43 3.58 25.91 3.58 25.91 8.23 21.18 8.23 21.18 11.56 25.91 11.56 25.91 16.21"/><path d="M45.41,12a4.94,4.94,0,0,1,1.46-2.83,4,4,0,0,1,2.72-.94,2.65,2.65,0,0,1,1.89.6,2.31,2.31,0,0,1,.63,1.75,4.53,4.53,0,0,1-.11,1l-1.59,7.87h4.27l1.64-8.14a8.22,8.22,0,0,0,.19-1.78,4.69,4.69,0,0,0-1.45-3.7,5.63,5.63,0,0,0-3.91-1.3,6.91,6.91,0,0,0-4.84,1.8l.33-1.58h-4l-2.92,14.7h4.26Z"/><rect x="64.09" y="11.62" width="13.01" height="3.33"/><rect x="64.09" y="4.84" width="13.01" height="3.34"/><path d="M92.75,19.79A8.51,8.51,0,0,0,96.43,19,6.23,6.23,0,0,0,99,16.79a6,6,0,0,0,1-3.37,5.61,5.61,0,0,0-.88-3.13A5.76,5.76,0,0,0,96.74,8.2a7.47,7.47,0,0,0-3.33-.74,6.4,6.4,0,0,0-4.73,1.7A6,6,0,0,1,90.21,5a5.2,5.2,0,0,1,3.86-1.42,6.26,6.26,0,0,1,3.58,1l1.64-3.26a7.91,7.91,0,0,0-2.39-1A12.33,12.33,0,0,0,94,0a10.5,10.5,0,0,0-5.1,1.2,8.35,8.35,0,0,0-3.43,3.53,11.79,11.79,0,0,0-1.23,5.58c0,3,.75,5.38,2.27,7A8.12,8.12,0,0,0,92.75,19.79Zm-2.67-8.21a3.93,3.93,0,0,1,4.74,0,2.66,2.66,0,0,1,.89,2.09,2.61,2.61,0,0,1-.89,2.08,3.41,3.41,0,0,1-2.31.77,3.59,3.59,0,0,1-2.46-.8,2.75,2.75,0,0,1,0-4.11Z"/><polygon points="95.64 91.64 91.29 89.12 91.29 93.22 78.07 93.22 78.07 88.3 76.94 88.3 76.94 93.22 64.28 93.22 64.28 88.3 63.15 88.3 63.15 93.22 50.49 93.22 50.49 88.3 49.36 88.3 49.36 93.22 36.71 93.22 36.71 88.3 35.58 88.3 35.58 93.22 22.92 93.22 22.92 88.3 21.79 88.3 21.79 93.22 8.71 93.22 8.71 89.05 4.36 91.57 0 94.08 4.36 96.6 8.71 99.11 8.71 94.97 21.79 94.97 21.79 100 22.92 100 22.92 94.97 35.58 94.97 35.58 100 36.71 100 36.71 94.97 49.36 94.97 49.36 100 50.49 100 50.49 94.97 63.15 94.97 63.15 100 64.28 100 64.28 94.97 76.94 94.97 76.94 100 78.07 100 78.07 94.97 91.29 94.97 91.29 99.18 95.64 96.67 100 94.15 95.64 91.64"/><path d="M49.83,86.08a2.13,2.13,0,1,0-2.07-2.63H24.84l3.55-1.29-.27-.75-7,2.54,7,2.55.27-.76-3.55-1.29H47.76A2.14,2.14,0,0,0,49.83,86.08Zm-1.55-2.63a1.6,1.6,0,1,1-.08.5A1.69,1.69,0,0,1,48.28,83.45Z"/></svg>