<svg id="Layer_1" data-name="Layer 1" xmlns="http://www.w3.org/2000/svg" viewBox="0 0 100 100"><defs><style>.cls-1{fill:#231f20;}</style></defs><title> </title><path class="cls-1" d="M100,8.22V8H92.05V0H91.8V8H87.44l1.08-5L84,4.41V0h-.25V4.49L79,6,81.2,8H75.89V0h-.25V8H67.8V0h-.25V8H59.72V0h-.25V8H51.64V0h-.25V8H43.56V0h-.25V8H35.48V0h-.25V8H27.4V0h-.25V8H19.31V0h-.25V8H11.23V0H11V8H3V0H0v100H0v0H100V97H92.05V89H100v-.25H92.05V80.94H100v-.25H92.05V72.86H100v-.25H92.05V64.78H100v-.25H92.05V56.7H100v-.25H92.05V48.62H100v-.25H92.05V44.68l3-4.14H100v-.25H95.24l.72-1-3.91-.41V32.46H100v-.25H92.05V24.38H100v-.25H92.05V16.3H100v-.25H92.05V8.22ZM87.33,17.76a1.56,1.56,0,0,1-1,.25h-1.7L85,16.39h1.68c.67,0,1,.22,1,.66A.83.83,0,0,1,87.33,17.76Zm.08,2.6a.83.83,0,0,1-.36.74,1.7,1.7,0,0,1-1,.26H84l.33-1.71h2.1a1.32,1.32,0,0,1,.72.17A.61.61,0,0,1,87.41,20.36Zm.25,21.54L84,43.55v-3h3.09Zm-3.94,1.76-7.83,3.5V40.54h7.83Zm3.35,8.94H84.9l1.61-2.73ZM84,50.38V48.62H85.1Zm-.25.39L80.37,56h2.51l.84-1.4v1.87H75.89v-7.1l1.63-.73h6.2ZM11.23,78.21l7.83-3.5V78l-2.41,2.66H11.23ZM11,80.69H5.67L11,78.32ZM67.55,24.58l-6.92,7.63h-.91V24.38h7.83Zm0,26.3-7.83,3.49V48.62h7.83Zm.25-2.26h4.81L67.8,50.76ZM59.47,33.49l-6.17,6.8H51.64V32.46h7.83Zm.25-1h.69l-.69.75Zm-8.33,9.93-5.42,6H43.56V40.54h7.83Zm.25-1.85h1.43l-1.43,1.58Zm-.25,17.55-7.83,3.5V56.7h7.83Zm.25-1.39h2.87L51.64,58ZM35.23,64.78v.53L32,66.75l1.79-2ZM34,64.53l1.22-1.34v1.34Zm1.47.25h.93l-.93.42Zm0-.25V62.91l5.63-6.21h2.2v5L37,64.53ZM43.31,51.3l-4.67,5.15H35.48V48.62h7.83Zm.25-2.68h2.18L43.56,51Zm-.25,5.66v2.17h-2Zm-4.9,2.42-2.93,3.23V56.7Zm4.9,7.19v.64H41.88Zm.25-.11,7.83-3.5v4.25H43.56Zm0-7.33V54l4.88-5.38h3v7.83Zm5.11-8.08,2.72-3v3Zm-5.36,0H35.48V40.54h7.83Zm-8.08,0H27.4V40.54h7.83Zm0,.25v7.83H27.4V48.62Zm0,8.08v3.51l-3.92,4.32H27.4V56.7Zm-4.15,8.08-3.62,4-.06,0v-4Zm-3.93,7.31v.52h-.47ZM24,72.61h-.21l.35-.15Zm3.42-.79,1.25-1.39,6.58-2.93v5.11H27.4Zm8.08-4.44,5.84-2.6h2v7.83H35.48Zm8.08-2.6h7.83v7.83H43.56Zm8.08,0h7.83v7.83H51.64Zm0-.25V60.17l7.78-3.47h0v7.83Zm3.43-8.08H51.64V48.62h7.83v5.86Zm-3.43-8.08V45.09l4.13-4.55h3.7v7.83ZM56,40.29l3.47-3.83v3.83Zm-4.61,0H43.56V32.46h7.83Zm-8.08,0H35.48V32.46h7.83Zm-8.08,0H27.4V32.46h7.83Zm-8.08,0H19.31V32.46h7.84Zm0,.25v7.83H19.31V40.54Zm0,8.08v7.83H19.31V48.62Zm0,8.08v7.83H19.31V56.7Zm0,8.08v4.13l-7.84,3.5V64.78Zm-3.94,8.08h.54l-4.44,4.89V74.6Zm3.24,0h.7v7.83h-7.8Zm.95,0h7.83v7.83H27.4Zm8.08,0h7.83v7.83H35.48Zm8.08,0h7.83v7.83H43.56Zm8.08,0h7.83v7.83H51.64Zm8.08,0h7.83v7.83H59.72Zm0-.25V64.78h7.83v7.83Zm0-8.08V56.7h7.83v7.83ZM60,56.45l7.57-3.38v3.38Zm-.26-8.08V40.54h7.83v7.83Zm0-8.08v-4.1l3.39-3.73h4.44v7.83Zm3.61-8.08,4.22-4.66v4.66Zm-3.86,0H51.64V24.38h7.83Zm-8.08,0H43.56V24.38h7.83Zm-8.08,0H35.48V24.38h7.83Zm-8.08,0H27.4V24.38h7.83Zm-8.08,0H19.31V24.38h7.84Zm-8.09,0H11.23V24.38h7.83Zm0,.25v7.83H11.23V32.46Zm0,8.08v7.83H11.23V40.54Zm0,8.08v7.83H11.23V48.62Zm0,8.08v7.83H11.23V56.7Zm0,8.08v7.74l-.19.09H11.23V64.78Zm-.75,8.08L11.23,76V72.86Zm-1.89,8.08-5.19,5.72V80.94Zm2.64.06v7.77H12Zm.25-.06h7.84v7.83H19.31Zm8.09,0h7.83v7.83H27.4Zm8.08,0h7.83v7.83H35.48Zm8.08,0h7.83v7.83H43.56Zm8.08,0h7.83v7.83H51.64Zm8.08,0h7.83v7.83H59.72Zm8.08,0h7.84v7.83H67.8Zm0-.25V72.86h7.84v7.83Zm0-8.08V64.78h7.84v7.83Zm0-8.08V56.7h7.84v7.83Zm0-8.08V53l7.84-3.49v7Zm5.37-8.08H67.8V40.54h7.84v6.73ZM67.8,40.29V32.46h7.84v7.83Zm0-8.08V27.28l2.64-2.9h5.2v7.83Zm2.86-8.08,5-5.48v5.48Zm-2.7,0H67.8V16.3h7.27Zm-.41,0H59.72V16.3h7.83Zm-8.08,0H51.64V16.3h7.83Zm-8.08,0H43.56V16.3h7.83Zm-8.08,0H35.48V16.3h7.83Zm-8.08,0H27.4V16.3h7.83Zm-8.08,0H19.31V16.3h7.84Zm-8.09,0H11.23V16.3h7.83Zm-8.08,0H3V16.3h8Zm0,.25v7.83H3V24.38Zm0,8.08v7.83H3V32.46Zm0,8.08v7.83H3V40.54Zm0,8.08v7.83H3V48.62Zm0,8.08v7.83H3V56.7Zm0,8.08v7.83H3V64.78Zm0,8.08v3.27L3,79.69V72.86Zm-8,9,2.1-.94H11v6L9.32,88.77H3ZM9.09,89,3,95.72V89Zm1.89.89V97H4.57Zm.25-.28.56-.61h7.27v8H11.23ZM19.31,89h7.84v8H19.31Zm8.09,0h7.83v8H27.4Zm8.08,0h7.83v8H35.48Zm8.08,0h7.83v8H43.56Zm8.08,0h7.83v8H51.64Zm8.08,0h7.83v8H59.72Zm8.08,0h7.84v8H67.8Zm8.09,0h7.83v8H75.89Zm0-.25V80.94h7.83v7.83Zm0-8.08V72.86h7.83v7.83Zm0-8.08V64.78h7.83v7.83Zm0-8.08V56.7h7.83v7.83Zm2.19-16.16,5.64-2.52v2.52Zm-2.19-8.08V32.46h7.83v7.83Zm0-8.08V24.38h7.83v7.83Zm0-8.08V18.37l1.88-2.07h4.88L81.3,23.07h2.42v1.06ZM83,14.67l-.28,1.38H78l5.47-6,.26.23v4.42Zm-1.5-6.45.5.46-6.09,6.71V8.22Zm-5.84,0v7.45l-.35.38H67.8V8.22Zm-8.09,0v7.83H59.72V8.22Zm-8.08,0v7.83H51.64V8.22Zm-8.08,0v7.83H43.56V8.22Zm-8.08,0v7.83H35.48V8.22Zm-8.08,0v7.83H27.4V8.22Zm-8.08,0v7.83H19.31V8.22Zm-8.09,0v7.83H11.23V8.22ZM11,8.22v7.83H3V8.22ZM91.8,97H84V89H91.8Zm0-8.21H84V80.94H91.8Zm0-8.08H84V72.86H91.8Zm0-8.08H84V64.78H91.8Zm0-8.08H84V56.7H91.8Zm0-8.08H84v-2.1h3.46L87.77,56h2.36l-1.78-7.36H91.8Zm0-8.08H88.29l-.19-.79H85.76l-.5.79H84V45.74l4.51-2,1.62,3.64L91.8,45Zm0-9.51L86,38.26l.91,2H84V32.46H91.8Zm0-6.65H84V24.38H91.8Zm0-8.08H84V23.07h2a5,5,0,0,0,2.78-.68,2.18,2.18,0,0,0,1.07-2,1.79,1.79,0,0,0-.29-1,2,2,0,0,0-.84-.66,2.58,2.58,0,0,0,1.11-.84,2.05,2.05,0,0,0,.39-1.26,1.87,1.87,0,0,0,0-.34H91.8Zm0-8.08H90a1.59,1.59,0,0,0-.65-.87,3.83,3.83,0,0,0-2.16-.51H84V10.48l2.45,2.22,1-4.48H91.8Z"/></svg>