<svg id="Layer_1" data-name="Layer 1" xmlns="http://www.w3.org/2000/svg" viewBox="0 0 100 100"><defs><style>.cls-1{fill:#231f20;}</style></defs><title> </title><rect class="cls-1" x="-0.07" y="32.7" width="23.38" height="2.29"/><rect class="cls-1" x="76.62" y="32.7" width="23.38" height="2.29"/><polygon class="cls-1" points="8.9 27.89 15.22 27.89 15.22 0.56 3.43 0.56 3.43 5.63 8.9 5.63 8.9 27.89"/><path class="cls-1" d="M12.46,52.47l-10.54,10v4.11H22.58V61.37H10.82l6.29-5.94A15.85,15.85,0,0,0,20.74,51a9.44,9.44,0,0,0,.94-4.18,7.28,7.28,0,0,0-1.27-4.28,8.29,8.29,0,0,0-3.55-2.81,13.39,13.39,0,0,0-5.34-1,14.86,14.86,0,0,0-6.44,1.34A10.74,10.74,0,0,0,.67,43.8l4.6,3a6.3,6.3,0,0,1,2.43-2A7.54,7.54,0,0,1,10.94,44a5.15,5.15,0,0,1,3.26.88,3,3,0,0,1,1.11,2.52,5,5,0,0,1-.58,2.28A11.24,11.24,0,0,1,12.46,52.47Z"/><path class="cls-1" d="M91.45,21.9a6.67,6.67,0,0,1-3.75.92,14,14,0,0,1-4.2-.65,11.78,11.78,0,0,1-3.61-1.82L77.43,25.2a14.66,14.66,0,0,0,4.75,2.17,21.78,21.78,0,0,0,5.68.76,14.73,14.73,0,0,0,6.27-1.21,8.76,8.76,0,0,0,3.81-3.23,8.18,8.18,0,0,0,1.25-4.39,7.4,7.4,0,0,0-1.92-5.18,9.19,9.19,0,0,0-5.51-2.67l6.18-7V.32H78.8V5.4H90.44l-5.63,6.36v4.18H87.7c3.42,0,5.12,1.12,5.12,3.36A3,3,0,0,1,91.45,21.9Z"/><polygon class="cls-1" points="89.21 66.06 95.38 66.06 95.38 60.31 99.84 60.31 99.84 55.16 95.38 55.16 95.38 50.05 89.41 50.05 89.41 55.16 82.06 55.16 94.02 38.72 87.38 38.72 74.49 56.06 74.49 60.31 89.21 60.31 89.21 66.06"/><polygon class="cls-1" points="47.24 43.17 52.65 43.17 52.65 36.04 59.95 36.04 59.95 30.91 52.65 30.91 52.65 23.78 47.24 23.78 47.24 30.91 39.98 30.91 39.98 36.04 47.24 36.04 47.24 43.17"/><path class="cls-1" d="M9.31,92.35a2.14,2.14,0,0,0,1.87-1,7.76,7.76,0,0,0,0-6.31,2.14,2.14,0,0,0-1.87-1,2.11,2.11,0,0,0-1.85,1,7.66,7.66,0,0,0,0,6.31A2.11,2.11,0,0,0,9.31,92.35Z"/><path class="cls-1" d="M-.07,100h100V75.44H-.07ZM90.56,81.73h5.56V94.61h-3V84.12H90.56ZM17.75,86.36h1.77v1h16V82.7h.39v4.66H52.59V82.7H53v4.66H69.66V82.7H70v4.66H86v-1h1.77v3.49H86v-1H70v4.78h-.38V88.87H53v4.78h-.38V88.87H35.9v4.78h-.39V88.87h-16v1H17.75Zm-13.3-1.8a5.37,5.37,0,0,1,2-2.31,5.29,5.29,0,0,1,2.88-.8,5.15,5.15,0,0,1,4.85,3.11,9.44,9.44,0,0,1,0,7.23,5.4,5.4,0,0,1-2,2.31,5.3,5.3,0,0,1-2.88.79,5.28,5.28,0,0,1-2.88-.79,5.49,5.49,0,0,1-2-2.31,9.56,9.56,0,0,1,0-7.23Z"/></svg>