<svg id="Layer_1" data-name="Layer 1" xmlns="http://www.w3.org/2000/svg" viewBox="0 0 100 100"><defs><style>.cls-1{fill:#231f20;}</style></defs><title> </title><polygon class="cls-1" points="85.24 76.89 78.12 76.89 73.1 83.63 68.21 76.89 60.7 76.89 69.28 88.34 60.4 99.97 67.69 99.97 72.93 92.89 77.99 99.97 85.58 99.97 76.66 88.17 85.24 76.89"/><path class="cls-1" d="M95.93,80.53a13,13,0,0,0,2.68-2.93,5.14,5.14,0,0,0,.71-2.6,4.67,4.67,0,0,0-2-3.9,8.84,8.84,0,0,0-5.47-1.5,10.92,10.92,0,0,0-4.76.94,7.39,7.39,0,0,0-3,2.57l3.43,2.06a4.1,4.1,0,0,1,1.65-1.35,5.48,5.48,0,0,1,2.34-.49,4,4,0,0,1,2.32.56,1.69,1.69,0,0,1,.77,1.46,2.55,2.55,0,0,1-.45,1.35,8.61,8.61,0,0,1-1.65,1.73L85,84.87v2.87h15v-3.6H91.81Z"/><path class="cls-1" d="M77.6,48.52a4.12,4.12,0,0,0-3-2.61c-1.12-10.3-3.41-14-7.63-15.35-4.72-1.48-10,3.61-15.45,10.54V.05h-3v45c-.83,1.13-1.65,2.28-2.47,3.43H28.82a4.12,4.12,0,0,0-2.3-2.26l-.05-17A1.53,1.53,0,0,0,25,27.79h0a1.52,1.52,0,0,0-1.51,1.52l.05,17a4.16,4.16,0,0,0-2.28,2.25H.05v3H21.17a4.11,4.11,0,0,0,2.46,2.4c.46,9.77,2.13,14.52,5.35,15.52,4.93,1.54,11-7,18-17l.64-.92h.88V100h3V51.52H69.92a4.14,4.14,0,0,0,2.21,2.2c.21,4.18.33,9.25.35,15.41A1.52,1.52,0,0,0,74,70.64h0a1.47,1.47,0,0,0,1.07-.45,1.51,1.51,0,0,0,.45-1.07c0-6-.12-11.05-.33-15.36a4.11,4.11,0,0,0,2.35-2.24H100v-3Zm-47.71,18c-.68-.21-2.67-1.79-3.22-12.73a4.12,4.12,0,0,0,2.18-2.31H43.94C39,58.49,32.61,67.4,29.89,66.56ZM51.53,46.12c5.33-7.25,10.94-13.81,14.54-12.67,2.27.71,4.38,1.91,5.53,13a4.09,4.09,0,0,0-1.74,2.1H51.53Z"/></svg>