<svg id="Layer_1" data-name="Layer 1" xmlns="http://www.w3.org/2000/svg" viewBox="0 0 100 100"><defs><style>.cls-1{fill:#231f20;}</style></defs><title> </title><path class="cls-1" d="M52.18,28.08a9.49,9.49,0,0,1-2.38.78,19.25,19.25,0,0,1-3.5.34c-1.39,0-3.13.05-5.2.05H36.93l-4.19-.1L24.53,29c-2.56-.06-4.79-.13-6.7-.19s-3.23-.1-3.94-.1a17.21,17.21,0,0,0-6.36.83,10.27,10.27,0,0,0-4,2.52,10.82,10.82,0,0,0-2.28,3.74A30.69,30.69,0,0,0,0,40.32l1.26.78A15.79,15.79,0,0,1,6,36.79a10.68,10.68,0,0,1,5.25-1.42h1.65a99.91,99.91,0,0,1-.63,10.54q-.63,5.88-1.85,11.71a94.22,94.22,0,0,1-3,11,37.75,37.75,0,0,1-3.89,8.46l.49.78c0,.06.39.16,1.16.29A22.18,22.18,0,0,0,8,78.37c1,0,2.1,0,3.2,0a5.72,5.72,0,0,0,2.53-.53,42.6,42.6,0,0,0,1.6-5.11q.73-2.87,1.26-6c.36-2.1.62-4.26.78-6.46s.24-4.34.24-6.41V35.37H36.14V78.71h2.43a69,69,0,0,0,6.81-1.45A44,44,0,0,0,51.89,75V73l-6.42-.78V35.37h1.17c2.79,0,4.89-.78,6.32-2.33a9.66,9.66,0,0,0,2.52-5.44l-1.36-.87A8.75,8.75,0,0,1,52.18,28.08Z"/><polygon class="cls-1" points="63.8 33.62 69.58 33.62 80.61 0 75.4 0 66.7 26.61 61.89 11.88 53.06 11.88 53.06 16.23 57.76 16.23 63.8 33.62"/><rect class="cls-1" x="80.55" y="14.29" width="10.16" height="4.49"/><polygon class="cls-1" points="93.48 26.65 99.3 26.65 99.3 1.51 88.45 1.51 88.45 6.18 93.48 6.18 93.48 26.65"/><polygon class="cls-1" points="83.47 74.08 75.53 74.08 69.92 81.6 64.46 74.08 56.08 74.08 65.66 86.86 55.75 99.84 63.89 99.84 69.73 91.94 75.38 99.84 83.86 99.84 73.9 86.67 83.47 74.08"/><path class="cls-1" d="M90.8,82.17l4.6-4a14.24,14.24,0,0,0,3-3.27,5.67,5.67,0,0,0,.79-2.9A5.22,5.22,0,0,0,97,67.61a9.94,9.94,0,0,0-6.11-1.68A12.2,12.2,0,0,0,85.54,67a8.21,8.21,0,0,0-3.41,2.87L86,72.16a4.53,4.53,0,0,1,1.84-1.51,6.16,6.16,0,0,1,2.61-.55,4.48,4.48,0,0,1,2.59.62,1.94,1.94,0,0,1,.86,1.63,2.85,2.85,0,0,1-.5,1.51,10.11,10.11,0,0,1-1.85,1.94L83.24,83v3.21H100v-4Z"/></svg>