<svg id="Layer_1" data-name="Layer 1" xmlns="http://www.w3.org/2000/svg" viewBox="0 0 100 100"><defs><style>.cls-1{fill:#231f20;}</style></defs><title> </title><path class="cls-1" d="M65.83,36.39a7.54,7.54,0,0,0,7.81,0,7.31,7.31,0,0,0,2.69-3.14,11.45,11.45,0,0,0,1-4.9,11.48,11.48,0,0,0-1-4.9,7.31,7.31,0,0,0-2.69-3.14,7.6,7.6,0,0,0-7.81,0,7.24,7.24,0,0,0-2.69,3.14,11.48,11.48,0,0,0-1,4.9,11.45,11.45,0,0,0,1,4.9A7.24,7.24,0,0,0,65.83,36.39Zm1.4-12.32a2.85,2.85,0,0,1,2.5-1.39,2.89,2.89,0,0,1,2.54,1.39,7.89,7.89,0,0,1,.92,4.28,8,8,0,0,1-.92,4.29A2.9,2.9,0,0,1,69.73,34a2.86,2.86,0,0,1-2.5-1.38,7.86,7.86,0,0,1-.92-4.29A7.8,7.8,0,0,1,67.23,24.07Z"/><path class="cls-1" d="M81.57,37.37a2.36,2.36,0,0,0,1.74-.7A2.4,2.4,0,0,0,84,34.91a2.32,2.32,0,0,0-.71-1.76,2.62,2.62,0,0,0-3.48,0,2.31,2.31,0,0,0-.7,1.76,2.39,2.39,0,0,0,.7,1.76A2.36,2.36,0,0,0,81.57,37.37Z"/><path class="cls-1" d="M90.3,23.1a4.78,4.78,0,0,1,2.09-.45,3.34,3.34,0,0,1,2.11.57,2,2,0,0,1,.72,1.63,3.22,3.22,0,0,1-.38,1.47,7.17,7.17,0,0,1-1.46,1.78l-6.81,6.43v2.64H99.91V33.85H92.32L96.38,30a10.2,10.2,0,0,0,2.34-2.87,6.07,6.07,0,0,0,.61-2.7,4.76,4.76,0,0,0-.82-2.76,5.32,5.32,0,0,0-2.3-1.81,8.52,8.52,0,0,0-3.44-.64,9.48,9.48,0,0,0-4.15.87,7,7,0,0,0-2.85,2.4l3,1.92A4,4,0,0,1,90.3,23.1Z"/><rect class="cls-1" y="27.19" width="32" height="2.16"/><path class="cls-1" d="M13.45,4.49A5.38,5.38,0,0,1,15.78,4a3.74,3.74,0,0,1,2.35.64,2.17,2.17,0,0,1,.8,1.81,3.6,3.6,0,0,1-.42,1.64,7.88,7.88,0,0,1-1.63,2L9.29,17.23v2.95H24.16V16.47H15.7l4.52-4.27A11.6,11.6,0,0,0,22.84,9a6.87,6.87,0,0,0,.67-3,5.23,5.23,0,0,0-.91-3.08A5.92,5.92,0,0,0,20,.89,9.48,9.48,0,0,0,16.21.17a10.69,10.69,0,0,0-4.64,1A7.78,7.78,0,0,0,8.39,3.83L11.71,6A4.55,4.55,0,0,1,13.45,4.49Z"/><polygon class="cls-1" points="9.43 56.03 9.43 36.37 0.95 36.37 0.95 40.02 4.88 40.02 4.88 56.03 9.43 56.03"/><path class="cls-1" d="M25.77,37.24A7.91,7.91,0,0,0,21.42,36a8,8,0,0,0-4.36,1.21,8.07,8.07,0,0,0-3,3.5A12.66,12.66,0,0,0,13,46.2a12.66,12.66,0,0,0,1.08,5.46,8.07,8.07,0,0,0,3,3.5,8,8,0,0,0,4.36,1.21,7.91,7.91,0,0,0,4.35-1.21,8.09,8.09,0,0,0,3-3.5,12.66,12.66,0,0,0,1.08-5.46,12.66,12.66,0,0,0-1.08-5.46A8.09,8.09,0,0,0,25.77,37.24ZM24.24,51a3.33,3.33,0,0,1-5.62,0,8.85,8.85,0,0,1-1-4.78,8.82,8.82,0,0,1,1-4.78,3.33,3.33,0,0,1,5.62,0,8.81,8.81,0,0,1,1,4.78A8.84,8.84,0,0,1,24.24,51Z"/><rect class="cls-1" x="40.25" y="30.31" width="15.36" height="3.94"/><rect class="cls-1" x="40.25" y="22.3" width="15.36" height="3.94"/><polygon class="cls-1" points="13.97 92.25 15.79 92.25 15.79 99.66 17.9 99.66 17.9 90.56 13.97 90.56 13.97 92.25"/><path class="cls-1" d="M20.9,97.24a1.25,1.25,0,0,0-.9.35,1.18,1.18,0,0,0-.36.9,1.24,1.24,0,0,0,.36.91,1.27,1.27,0,0,0,2.16-.91,1.15,1.15,0,0,0-.37-.9A1.25,1.25,0,0,0,20.9,97.24Z"/><path class="cls-1" d="M28.53,96a5.18,5.18,0,0,0,1.21-1.49,3.12,3.12,0,0,0,.32-1.39,2.43,2.43,0,0,0-.43-1.42,2.79,2.79,0,0,0-1.18-.94,4.45,4.45,0,0,0-1.78-.33,4.88,4.88,0,0,0-2.14.45,3.65,3.65,0,0,0-1.47,1.24l1.53,1a2.11,2.11,0,0,1,.81-.68,2.52,2.52,0,0,1,1.08-.23,1.72,1.72,0,0,1,1.08.29,1,1,0,0,1,.38.84,1.66,1.66,0,0,1-.2.76A3.77,3.77,0,0,1,27,95l-3.51,3.31v1.37h6.87V97.94H26.44Z"/><polygon class="cls-1" points="68.97 92.2 70.79 92.2 70.79 99.61 72.9 99.61 72.9 90.51 68.97 90.51 68.97 92.2"/><path class="cls-1" d="M75.9,97.19a1.25,1.25,0,0,0-.9.34,1.2,1.2,0,0,0-.36.91,1.26,1.26,0,0,0,.36.91,1.27,1.27,0,0,0,2.16-.91,1.17,1.17,0,0,0-.37-.91A1.24,1.24,0,0,0,75.9,97.19Z"/><path class="cls-1" d="M84.1,94.25a3.6,3.6,0,0,0-1.59-.35,3,3,0,0,0-2.24.8,2.81,2.81,0,0,1,.72-2,2.49,2.49,0,0,1,1.84-.67,3,3,0,0,1,1.7.45L85.31,91a3.72,3.72,0,0,0-1.14-.46,5.75,5.75,0,0,0-1.39-.16,5,5,0,0,0-2.43.57,4,4,0,0,0-1.63,1.68,5.6,5.6,0,0,0-.59,2.65,4.74,4.74,0,0,0,1.08,3.34,3.87,3.87,0,0,0,3,1.17A4,4,0,0,0,84,99.39a2.93,2.93,0,0,0,1.24-1.06,2.78,2.78,0,0,0,.46-1.6,2.68,2.68,0,0,0-.42-1.49A2.79,2.79,0,0,0,84.1,94.25Zm-.92,3.57a1.57,1.57,0,0,1-1.09.37,1.7,1.7,0,0,1-1.17-.38,1.21,1.21,0,0,1-.43-1,1.24,1.24,0,0,1,.44-1,1.68,1.68,0,0,1,1.13-.38,1.66,1.66,0,0,1,1.12.37,1.25,1.25,0,0,1,.43,1A1.21,1.21,0,0,1,83.18,97.82Z"/><polygon class="cls-1" points="95.64 80.14 91.29 77.63 91.29 81.73 78.07 81.73 78.07 76.81 76.94 76.81 76.94 81.73 64.28 81.73 64.28 76.81 63.15 76.81 63.15 81.73 50.49 81.73 50.49 76.81 49.36 76.81 49.36 81.73 36.71 81.73 36.71 76.81 35.58 76.81 35.58 81.73 22.92 81.73 22.92 76.81 21.79 76.81 21.79 81.73 8.71 81.73 8.71 77.56 4.36 80.07 0 82.59 4.36 85.1 8.71 87.62 8.71 83.47 21.79 83.47 21.79 88.5 22.92 88.5 22.92 83.47 35.58 83.47 35.58 88.5 36.71 88.5 36.71 83.47 49.36 83.47 49.36 88.5 50.49 88.5 50.49 83.47 63.15 83.47 63.15 88.5 64.28 88.5 64.28 83.47 76.94 83.47 76.94 88.5 78.07 88.5 78.07 83.47 91.29 83.47 91.29 87.69 95.64 85.17 100 82.66 95.64 80.14"/><path class="cls-1" d="M51.19,73.45h1.5l.71-3.55a5.42,5.42,0,0,0,.08-.77,2,2,0,0,0-.63-1.6A2.5,2.5,0,0,0,51.14,67a3.17,3.17,0,0,0-2.21.78l.15-.71H47.65l-1.27,6.41h1.5l.67-3.32a2.41,2.41,0,0,1,.73-1.39,2,2,0,0,1,1.37-.46c.85,0,1.28.39,1.28,1.16a2,2,0,0,1,0,.49Z"/></svg>