<svg id="Layer_1" data-name="Layer 1" xmlns="http://www.w3.org/2000/svg" viewBox="0 0 100 100"><defs><style>.cls-1{fill:#231f20;}</style></defs><title> </title><path class="cls-1" d="M4.67,4.1a5,5,0,0,1,2.16-.45A3.46,3.46,0,0,1,9,4.23a2,2,0,0,1,.74,1.68,3.3,3.3,0,0,1-.39,1.51A7.61,7.61,0,0,1,7.84,9.25l-7,6.62V18.6H14.56V15.17H6.75l4.18-3.94a10.75,10.75,0,0,0,2.41-3A6.29,6.29,0,0,0,14,5.49a4.77,4.77,0,0,0-.85-2.84A5.41,5.41,0,0,0,10.76.78,8.8,8.8,0,0,0,7.22.12,9.8,9.8,0,0,0,2.93,1,7.21,7.21,0,0,0,0,3.49l3.06,2A4.2,4.2,0,0,1,4.67,4.1Z"/><polygon class="cls-1" points="31.83 18.6 26.43 11.46 31.62 4.63 27.31 4.63 24.27 8.71 21.31 4.63 16.77 4.63 21.96 11.56 16.59 18.6 21 18.6 24.17 14.32 27.23 18.6 31.83 18.6"/><rect class="cls-1" x="34.84" y="4.71" width="12.36" height="3.17"/><rect class="cls-1" x="34.84" y="11.15" width="12.36" height="3.17"/><path class="cls-1" d="M51.7,10.81A4.48,4.48,0,0,0,51,13.33a4.79,4.79,0,0,0,.94,3,6.06,6.06,0,0,0,2.68,1.94,10.72,10.72,0,0,0,4,.69,10.85,10.85,0,0,0,4-.69,6.12,6.12,0,0,0,2.7-1.94,4.74,4.74,0,0,0,1-3,4.56,4.56,0,0,0-.71-2.52,5.15,5.15,0,0,0-2.07-1.76,4.43,4.43,0,0,0,1.59-1.57,4.34,4.34,0,0,0,.54-2.17,4.41,4.41,0,0,0-.88-2.75A5.65,5.65,0,0,0,62.29.75,9.94,9.94,0,0,0,58.62.12,9.81,9.81,0,0,0,55,.75a5.7,5.7,0,0,0-2.46,1.81,4.42,4.42,0,0,0-.89,2.75,4.35,4.35,0,0,0,.55,2.17,4.42,4.42,0,0,0,1.56,1.57A5.13,5.13,0,0,0,51.7,10.81Zm4.88-7a3.16,3.16,0,0,1,2-.61,3.23,3.23,0,0,1,2.07.61,2,2,0,0,1,.78,1.67,2,2,0,0,1-.78,1.64,3.35,3.35,0,0,1-2.07.59,3.25,3.25,0,0,1-2-.59,2,2,0,0,1-.76-1.64A2,2,0,0,1,56.58,3.82Zm-.43,7.48a4,4,0,0,1,2.47-.7,4.08,4.08,0,0,1,2.5.7A2.25,2.25,0,0,1,62,13.2a2.28,2.28,0,0,1-.92,1.91,4,4,0,0,1-2.5.71,3.94,3.94,0,0,1-2.47-.7,2.32,2.32,0,0,1-.91-1.92A2.29,2.29,0,0,1,56.15,11.3Z"/><path class="cls-1" d="M9.76,78.58a18.54,18.54,0,0,0-4.89.65A13,13,0,0,0,.79,81.09L3,85.3a8.79,8.79,0,0,1,2.73-1.41,10.43,10.43,0,0,1,3.26-.52,5.28,5.28,0,0,1,3.6,1.06,3.85,3.85,0,0,1,1.2,3H8.94q-4.56,0-6.74,1.66A5.42,5.42,0,0,0,0,93.69a5.85,5.85,0,0,0,.93,3.25,6.24,6.24,0,0,0,2.69,2.24,9.86,9.86,0,0,0,4.16.81q4.64,0,6.33-2.9v2.59h5.65V87.81q0-4.64-2.59-6.94T9.76,78.58Zm4,14.53A3.94,3.94,0,0,1,12,95.22a5.34,5.34,0,0,1-2.75.71,4.09,4.09,0,0,1-2.49-.67,2.18,2.18,0,0,1-.91-1.84C5.89,91.8,7.13,91,9.6,91h4.14Z"/><polygon class="cls-1" points="38.44 77.22 33.45 77.22 33.45 83.79 26.76 83.79 26.76 88.51 33.45 88.51 33.45 95.08 38.44 95.08 38.44 88.51 45.16 88.51 45.16 83.79 38.44 83.79 38.44 77.22"/><path class="cls-1" d="M69.81,79.91a10.59,10.59,0,0,0-5.28-1.33,8,8,0,0,0-6.26,2.51V71h-6V99.68H58V97.29a8,8,0,0,0,6.53,2.7,10.59,10.59,0,0,0,5.28-1.33,9.61,9.61,0,0,0,3.73-3.75,12.39,12.39,0,0,0,0-11.25A9.61,9.61,0,0,0,69.81,79.91ZM67.3,93.48a5.43,5.43,0,0,1-7.62,0,6.65,6.65,0,0,1,0-8.39,5.41,5.41,0,0,1,7.62,0,6.69,6.69,0,0,1,0,8.39Z"/><polygon class="cls-1" points="49.51 45.17 56.66 35.77 50.72 35.77 46.54 41.38 42.46 35.77 36.2 35.77 43.35 45.31 35.95 55.01 42.03 55.01 46.4 49.11 50.62 55.01 56.95 55.01 49.51 45.17"/><polygon class="cls-1" points="60.73 39.81 70.71 43.47 60.73 47.09 60.73 50.84 75 45.42 75 41.52 60.73 36.1 60.73 39.81"/><path class="cls-1" d="M94.63,35.77l-5.43,13-5.4-13H78l8.33,19.38-.07.18A4.64,4.64,0,0,1,85,57.17a2.92,2.92,0,0,1-1.86.56,4.5,4.5,0,0,1-1.66-.33A4.6,4.6,0,0,1,80,56.51l-2,4a6.49,6.49,0,0,0,2.39,1.29,9.79,9.79,0,0,0,3,.46A8,8,0,0,0,88,60.87a10,10,0,0,0,3.27-4.68L100,35.77Z"/></svg>