<?xml version="1.0" encoding="utf-8"?>
<!-- Generator: Adobe Illustrator 24.0.0, SVG Export Plug-In . SVG Version: 6.00 Build 0)  -->
<svg version="1.1" id="Layer_1" xmlns="http://www.w3.org/2000/svg" xmlns:xlink="http://www.w3.org/1999/xlink" x="0px" y="0px"
	 viewBox="0 0 100 100" style="enable-background:new 0 0 100 100;" xml:space="preserve">
<style type="text/css">
	.st0{fill:none;}
	.st1{fill:#FFFFFF;}
	.st2{fill:#FFFFFF;stroke:#FFFFFF;stroke-width:0.25;stroke-miterlimit:10;}
	.st3{fill:none;stroke:#000000;stroke-width:0.25;stroke-linecap:round;stroke-miterlimit:10;}
	.st4{fill:#D9D9D9;}
	.st5{fill:none;stroke:#000000;stroke-width:2;stroke-linejoin:round;stroke-miterlimit:10;}
	.st6{fill:none;stroke:#000000;stroke-width:0.4396;stroke-miterlimit:10;}
	.st7{fill:none;stroke:#000000;stroke-linecap:round;stroke-linejoin:round;}
	.st8{fill:none;stroke:#000000;stroke-linecap:round;stroke-linejoin:round;stroke-miterlimit:10;}
</style>
<g>
	<polygon points="8.24,88.49 5.88,90.97 4.55,88.49 2.01,88.49 4.25,92.6 0.04,96.93 2.83,96.93 5.26,94.34 6.64,96.93 9.22,96.93 
		6.87,92.71 10.93,88.49 	"/>
	<rect x="14.48" y="92.43" width="7.46" height="1.91"/>
	<rect x="14.48" y="88.54" width="7.46" height="1.91"/>
	<rect x="27.18" y="90.48" width="7.46" height="1.91"/>
	<path d="M41.96,92.47c0.72-0.67,1.21-1.26,1.46-1.79c0.25-0.52,0.38-1.08,0.38-1.68c0-0.66-0.17-1.23-0.51-1.72
		c-0.34-0.49-0.82-0.86-1.43-1.13c-0.61-0.27-1.33-0.4-2.14-0.4c-0.97,0-1.83,0.18-2.59,0.54c-0.75,0.36-1.34,0.86-1.77,1.5
		l1.85,1.19c0.26-0.36,0.58-0.64,0.97-0.82s0.82-0.27,1.3-0.27c0.57,0,1.01,0.12,1.31,0.35c0.3,0.24,0.45,0.57,0.45,1.01
		c0,0.3-0.08,0.61-0.24,0.92c-0.16,0.31-0.46,0.68-0.91,1.11l-4.23,4v1.65h8.29v-2.07h-4.72L41.96,92.47z"/>
	<polygon points="54.74,86.67 52.72,86.67 52.72,89.24 50.01,89.24 50.01,91.09 52.72,91.09 52.72,93.67 54.74,93.67 54.74,91.09 
		57.47,91.09 57.47,89.24 54.74,89.24 	"/>
	<rect x="50.01" y="95.01" width="7.46" height="1.91"/>
	<polygon points="71.74,90.5 69.34,90.5 69.34,92.55 66.39,92.55 71.19,85.95 68.53,85.95 63.35,92.91 63.35,94.62 69.26,94.62 
		69.26,96.93 71.74,96.93 71.74,94.62 73.53,94.62 73.53,92.55 71.74,92.55 	"/>
	<polygon points="73.97,96.93 76.4,96.93 78.07,88.49 75.65,88.49 	"/>
	<path d="M77.46,84.59c-0.48,0-0.87,0.14-1.17,0.42c-0.3,0.28-0.45,0.62-0.45,1.04c0,0.36,0.13,0.66,0.4,0.9
		c0.27,0.25,0.61,0.37,1.03,0.37c0.48,0,0.87-0.14,1.18-0.41c0.3-0.28,0.45-0.64,0.45-1.09c0-0.34-0.13-0.64-0.4-0.87
		C78.24,84.7,77.89,84.59,77.46,84.59z"/>
	<polygon points="89.1,85.29 85.3,96.91 83.2,90.48 79.35,90.48 79.35,92.38 81.4,92.38 84.03,99.97 86.56,99.97 91.37,85.29 	"/>
	<path d="M96.97,90.42l2.48-2.82v-1.65h-7.68v2.04h4.67l-2.26,2.56v1.68h1.16c1.37,0,2.05,0.45,2.05,1.35c0,0.45-0.18,0.8-0.55,1.04
		c-0.37,0.25-0.87,0.37-1.5,0.37c-0.58,0-1.14-0.09-1.69-0.26c-0.55-0.17-1.03-0.41-1.45-0.73l-0.99,1.94
		c0.52,0.38,1.16,0.67,1.91,0.87c0.75,0.2,1.51,0.31,2.28,0.31c0.99,0,1.83-0.16,2.52-0.49c0.68-0.32,1.19-0.76,1.53-1.29
		c0.33-0.54,0.5-1.13,0.5-1.76c0-0.82-0.26-1.52-0.77-2.08C98.67,90.93,97.93,90.58,96.97,90.42z"/>
</g>
<g>
	<path d="M43.12,13.09c-0.42,0-0.8,0.1-1.14,0.32c-0.34,0.21-0.6,0.5-0.79,0.88c-0.19,0.37-0.28,0.81-0.28,1.29
		c0,0.52,0.15,0.92,0.45,1.22c0.3,0.3,0.72,0.45,1.26,0.45c0.43,0,0.82-0.11,1.15-0.32c0.34-0.21,0.6-0.5,0.79-0.88
		c0.19-0.38,0.28-0.81,0.28-1.29c0-0.52-0.15-0.92-0.46-1.22C44.09,13.24,43.67,13.09,43.12,13.09z"/>
	<path d="M93.91,10.87c-0.59,0-1.06,0.26-1.4,0.77S92,12.95,92,14.03c0,1.08,0.17,1.88,0.51,2.39s0.81,0.77,1.4,0.77
		c0.6,0,1.07-0.26,1.41-0.77c0.34-0.52,0.51-1.31,0.51-2.39c0-1.08-0.17-1.88-0.51-2.39C94.98,11.12,94.51,10.87,93.91,10.87z"/>
	<path d="M0,0v27.64h100V0H0z M7.44,18.95l0.14-0.75c-0.63,0.57-1.4,0.86-2.32,0.86c-0.59,0-1.13-0.14-1.63-0.41
		c-0.5-0.27-0.89-0.66-1.19-1.17S2,16.37,2,15.67c0-0.83,0.18-1.59,0.55-2.26c0.37-0.67,0.87-1.2,1.51-1.57s1.34-0.57,2.11-0.57
		c1.16,0,1.98,0.38,2.46,1.14l0.2-1.03h2.19l-1.5,7.57H7.44z M16.11,18.95l-1.24-2.32l-2.18,2.32h-2.5l3.78-3.88l-2.01-3.68h2.28
		l1.2,2.22l2.11-2.22h2.42l-3.64,3.78l2.11,3.78H16.11z M24.43,14.94h-4.91V14l2.43-2.11c0.26-0.23,0.44-0.41,0.54-0.57
		c0.1-0.15,0.15-0.3,0.15-0.44c0-0.2-0.08-0.36-0.25-0.48s-0.42-0.18-0.76-0.18c-0.28,0-0.54,0.05-0.77,0.16
		c-0.23,0.11-0.41,0.26-0.54,0.44l-1.12-0.67c0.23-0.36,0.57-0.64,1-0.84C20.63,9.1,21.15,9,21.76,9c0.76,0,1.36,0.16,1.79,0.49
		c0.44,0.33,0.65,0.75,0.65,1.28c0,0.3-0.08,0.58-0.23,0.85c-0.16,0.27-0.45,0.59-0.88,0.96l-1.35,1.18h2.69V14.94z M34.74,14.89
		h-2.45v2.39h-1.81v-2.39h-2.43v-1.71h2.43v-2.39h1.81v2.39h2.45V14.89z M45.01,18.49c-0.64,0.38-1.35,0.57-2.12,0.57
		c-0.59,0-1.1-0.1-1.53-0.31c-0.43-0.21-0.76-0.52-1-0.93l-0.23,1.12h-2.08l2.08-10.43h2.19l-0.7,3.52
		c0.61-0.51,1.34-0.76,2.18-0.76c0.59,0,1.14,0.14,1.64,0.41c0.5,0.27,0.9,0.66,1.2,1.17s0.44,1.11,0.44,1.81
		c0,0.83-0.18,1.59-0.55,2.26C46.15,17.59,45.64,18.11,45.01,18.49z M54.39,18.95h-2.32l-1.24-2.32l-2.18,2.32h-2.5l3.78-3.88
		l-2.01-3.68h2.28l1.2,2.22l2.11-2.22h2.42l-3.64,3.78L54.39,18.95z M65.01,14.89h-2.45v2.39h-1.81v-2.39h-2.43v-1.71h2.43v-2.39
		h1.81v2.39h2.45V14.89z M71.14,16.79c0.31,0.3,0.74,0.46,1.29,0.46c0.81,0,1.43-0.34,1.86-1.01l1.62,1.01
		c-0.37,0.57-0.86,1.02-1.5,1.34c-0.63,0.32-1.33,0.48-2.1,0.48c-0.78,0-1.46-0.14-2.04-0.42c-0.58-0.28-1.03-0.68-1.34-1.19
		c-0.31-0.51-0.47-1.1-0.47-1.78c0-0.83,0.2-1.58,0.59-2.25c0.39-0.67,0.94-1.19,1.65-1.57c0.7-0.38,1.49-0.58,2.38-0.58
		c0.81,0,1.5,0.17,2.09,0.5c0.59,0.33,1.02,0.8,1.32,1.41l-1.86,0.93c-0.33-0.68-0.89-1.03-1.69-1.03c-0.43,0-0.82,0.1-1.16,0.32
		c-0.34,0.21-0.61,0.5-0.8,0.88c-0.19,0.37-0.29,0.8-0.29,1.28C70.67,16.08,70.83,16.49,71.14,16.79z M86.1,16.63h-6.69v-1.72h6.69
		V16.63z M86.1,13.14h-6.69v-1.71h6.69V13.14z M97.59,16.76c-0.36,0.76-0.86,1.35-1.5,1.75s-1.36,0.61-2.18,0.61
		c-0.81,0-1.54-0.2-2.18-0.61c-0.64-0.4-1.14-0.99-1.5-1.75c-0.36-0.76-0.54-1.68-0.54-2.74s0.18-1.97,0.54-2.74
		c0.36-0.76,0.86-1.35,1.5-1.75c0.64-0.4,1.36-0.6,2.18-0.6c0.82,0,1.54,0.2,2.18,0.6c0.64,0.4,1.14,0.99,1.5,1.75
		c0.36,0.76,0.54,1.68,0.54,2.74S97.95,16,97.59,16.76z"/>
	<path d="M6.43,13.09c-0.43,0-0.81,0.1-1.15,0.32c-0.34,0.21-0.6,0.5-0.79,0.88c-0.19,0.37-0.28,0.81-0.28,1.29
		c0,0.52,0.15,0.92,0.46,1.22c0.3,0.3,0.73,0.45,1.27,0.45c0.43,0,0.82-0.11,1.15-0.32c0.34-0.21,0.6-0.5,0.79-0.88
		c0.19-0.38,0.28-0.81,0.28-1.29c0-0.52-0.15-0.92-0.46-1.22C7.4,13.24,6.98,13.09,6.43,13.09z"/>
</g>
<g>
	<path d="M4.18,49.03H1.93c-0.61,0.91-1.07,1.97-1.4,3.19c-0.33,1.22-0.49,2.51-0.49,3.9c0,1.38,0.16,2.68,0.49,3.89
		c0.33,1.21,0.79,2.27,1.4,3.19h2.25c-0.63-1.12-1.1-2.26-1.39-3.41c-0.29-1.16-0.44-2.38-0.44-3.67c0-1.29,0.15-2.51,0.44-3.67
		C3.08,51.29,3.55,50.15,4.18,49.03z"/>
	<polygon points="11.44,52.12 9.18,54.51 7.89,52.12 5.44,52.12 7.6,56.08 3.53,60.26 6.22,60.26 8.57,57.76 9.9,60.26 12.4,60.26 
		10.13,56.19 14.05,52.12 	"/>
	<polygon points="22.03,51.47 20.08,51.47 20.08,54.04 17.46,54.04 17.46,55.89 20.08,55.89 20.08,58.46 22.03,58.46 22.03,55.89 
		24.66,55.89 24.66,54.04 22.03,54.04 	"/>
	<path d="M36.7,58.72c0.32-0.52,0.48-1.09,0.48-1.7c0-0.8-0.25-1.46-0.74-2c-0.49-0.54-1.21-0.89-2.13-1.04l2.39-2.72v-1.59h-7.41
		v1.97h4.51l-2.18,2.47v1.62h1.12c1.32,0,1.98,0.43,1.98,1.3c0,0.43-0.18,0.77-0.53,1.01c-0.35,0.24-0.84,0.36-1.45,0.36
		c-0.56,0-1.1-0.08-1.63-0.25c-0.53-0.17-1-0.4-1.4-0.7l-0.95,1.88c0.5,0.36,1.12,0.64,1.84,0.84c0.72,0.2,1.45,0.3,2.2,0.3
		c0.96,0,1.77-0.16,2.43-0.47C35.88,59.66,36.38,59.24,36.7,58.72z"/>
	<path d="M37.88,63.19h2.25c0.63-0.92,1.1-1.98,1.42-3.18c0.32-1.21,0.48-2.5,0.48-3.9c0-1.39-0.16-2.7-0.49-3.91
		s-0.8-2.27-1.41-3.17h-2.25c0.64,1.12,1.1,2.26,1.4,3.41c0.3,1.15,0.45,2.38,0.45,3.67c0,1.29-0.15,2.51-0.45,3.67
		C38.98,60.94,38.51,62.07,37.88,63.19z"/>
	<path d="M47.61,53.4c0.46-0.4,0.78-0.75,0.95-1.04c0.17-0.29,0.25-0.59,0.25-0.92c0-0.56-0.23-1.02-0.7-1.38
		c-0.47-0.35-1.11-0.53-1.93-0.53c-0.66,0-1.22,0.11-1.68,0.33c-0.46,0.22-0.82,0.52-1.07,0.91l1.21,0.73
		c0.14-0.2,0.33-0.36,0.58-0.48c0.25-0.12,0.52-0.17,0.83-0.17c0.36,0,0.64,0.07,0.82,0.2c0.18,0.13,0.27,0.3,0.27,0.51
		c0,0.15-0.05,0.31-0.16,0.48c-0.11,0.17-0.3,0.37-0.58,0.61l-2.62,2.27v1.01h5.28v-1.27h-2.89L47.61,53.4z"/>
	<polygon points="58.34,51.47 56.39,51.47 56.39,54.04 53.78,54.04 53.78,55.89 56.39,55.89 56.39,58.46 58.34,58.46 58.34,55.89 
		60.98,55.89 60.98,54.04 58.34,54.04 	"/>
	<polygon points="68.72,55.31 69.97,49.03 67.61,49.03 65.37,60.26 67.73,60.26 68.13,58.29 69.56,57.1 71.5,60.26 74.24,60.26 
		71.44,55.66 75.69,52.12 72.62,52.12 	"/>
	<rect x="78.97" y="52.16" width="7.2" height="1.85"/>
	<rect x="78.97" y="55.91" width="7.2" height="1.85"/>
	<path d="M97.75,50.14c-0.69-0.43-1.47-0.65-2.35-0.65c-0.88,0-1.66,0.22-2.34,0.65c-0.69,0.43-1.22,1.06-1.61,1.88
		c-0.39,0.82-0.58,1.8-0.58,2.94s0.19,2.12,0.58,2.94c0.39,0.82,0.93,1.45,1.61,1.88c0.69,0.43,1.47,0.65,2.34,0.65
		c0.88,0,1.66-0.22,2.35-0.65c0.69-0.43,1.22-1.06,1.61-1.88c0.39-0.82,0.58-1.8,0.58-2.94s-0.19-2.12-0.58-2.94
		C98.98,51.2,98.44,50.57,97.75,50.14z M96.93,57.53c-0.37,0.55-0.88,0.83-1.52,0.83c-0.64,0-1.14-0.28-1.51-0.83
		c-0.37-0.55-0.55-1.41-0.55-2.57c0-1.16,0.18-2.02,0.55-2.57c0.37-0.55,0.87-0.83,1.51-0.83c0.65,0,1.15,0.28,1.52,0.83
		c0.37,0.56,0.55,1.41,0.55,2.57C97.48,56.12,97.3,56.98,96.93,57.53z"/>
</g>
</svg>
