<?xml version="1.0" encoding="utf-8"?>
<!-- Generator: Adobe Illustrator 24.0.0, SVG Export Plug-In . SVG Version: 6.00 Build 0)  -->
<svg version="1.1" id="Layer_1" xmlns="http://www.w3.org/2000/svg" xmlns:xlink="http://www.w3.org/1999/xlink" x="0px" y="0px"
	 viewBox="0 0 100 100" style="enable-background:new 0 0 100 100;" xml:space="preserve">
<style type="text/css">
	.st0{fill:none;}
	.st1{fill:#FFFFFF;}
	.st2{fill:#FFFFFF;stroke:#FFFFFF;stroke-width:0.25;stroke-miterlimit:10;}
	.st3{fill:none;stroke:#000000;stroke-width:0.25;stroke-linecap:round;stroke-miterlimit:10;}
	.st4{fill:#D9D9D9;}
	.st5{fill:none;stroke:#000000;stroke-width:2;stroke-linejoin:round;stroke-miterlimit:10;}
	.st6{fill:none;stroke:#000000;stroke-width:0.4396;stroke-miterlimit:10;}
	.st7{fill:none;stroke:#000000;stroke-linecap:round;stroke-linejoin:round;}
	.st8{fill:none;stroke:#000000;stroke-linecap:round;stroke-linejoin:round;stroke-miterlimit:10;}
</style>
<g>
	<path d="M11.32,22.74c3.98,0,7.56-2.46,10.73-7.38c3.18,4.92,6.74,7.38,10.69,7.38v-4.21c-1.69,0-3.25-0.7-4.68-2.1
		c-0.94-0.92-2.16-2.56-3.65-4.94c2.95-4.69,5.72-7.04,8.33-7.04V0.25c-3.95,0-7.51,2.46-10.69,7.38
		c-3.18-4.92-6.75-7.38-10.73-7.38c-3.12,0-5.77,1.09-7.96,3.28c-2.19,2.19-3.28,4.84-3.28,7.96s1.09,5.77,3.28,7.96
		C5.55,21.65,8.2,22.74,11.32,22.74z M6.34,6.51c1.37-1.37,3.03-2.06,4.98-2.06c2.6,0,5.38,2.35,8.33,7.04
		c-1.49,2.38-2.7,4.02-3.65,4.94c-1.43,1.4-2.99,2.1-4.68,2.1c-1.95,0-3.61-0.69-4.98-2.06c-1.37-1.37-2.06-3.03-2.06-4.98
		C4.28,9.55,4.97,7.89,6.34,6.51z"/>
	<polygon points="74.34,84.21 70.87,84.21 68.42,87.49 66.03,84.21 62.37,84.21 66.56,89.79 62.22,95.47 65.78,95.47 68.34,92.01 
		70.8,95.47 74.51,95.47 70.16,89.71 	"/>
	<polygon points="76.72,85.73 82.56,87.87 76.72,89.99 76.72,92.18 85.07,89.01 85.07,86.73 76.72,83.56 	"/>
	<path d="M93.37,91.84l-3.16-7.64h-3.37l4.88,11.34l-0.04,0.1c-0.22,0.5-0.47,0.86-0.75,1.08c-0.28,0.22-0.64,0.32-1.09,0.32
		c-0.32,0-0.65-0.06-0.97-0.19c-0.33-0.13-0.62-0.3-0.87-0.52l-1.19,2.32c0.36,0.32,0.83,0.57,1.4,0.75
		c0.57,0.18,1.15,0.27,1.74,0.27c1.07,0,1.99-0.26,2.75-0.79c0.76-0.53,1.4-1.44,1.91-2.74l5.08-11.95h-3.14L93.37,91.84z"/>
	<path d="M100,25.66c0-0.04-0.01-0.08-0.02-0.12c-0.01-0.04-0.02-0.1-0.04-0.16L82.72,0.46l-0.07-0.08l-0.06-0.03
		c-0.03-0.03-0.08-0.09-0.17-0.12L82.35,0.2l-0.03,0c-0.05-0.01-0.1-0.01-0.15,0c-0.04,0-0.1,0-0.16,0.01l-0.05,0l-0.07,0.04
		c-0.07,0.04-0.12,0.1-0.09,0.08L81.7,0.4L65.9,22.46c-0.03,0.04-0.04,0.08-0.05,0.11c-0.02,0.03-0.05,0.09-0.06,0.15
		c-0.01,0.05-0.01,0.1,0,0.13l-0.01,0.03l0.04,0.19l0.03,0.03c0.07,0.17,0.18,0.26,0.27,0.3l11.3,6.15c0.1,0.05,0.2,0.08,0.31,0.08
		l21.74-3.33c0.11-0.02,0.21-0.06,0.29-0.13l0.1-0.08c0.05-0.06,0.07-0.12,0.07-0.12c0.03-0.04,0.07-0.1,0.09-0.2l0.01-0.07
		L100,25.66z M81.11,3.44l-2.68,16.89l-10.58,1.62L81.11,3.44z M79.57,21.47l8.38-1.29l9.41,5.12L78.5,28.2L79.57,21.47z
		 M88.6,19.07L84.09,4.73l13.18,19.05L88.6,19.07z M79.78,20.13l2.62-16.47l4.82,15.33L79.78,20.13z M78.22,21.68l-1,6.29
		l-8.79-4.78L78.22,21.68z"/>
	<path d="M64.02,61.25l0.31-0.45c2.29-3.31,3.5-7.21,3.5-11.28c0-2.43-0.46-4.75-1.26-6.9c-0.89-2.39-2.22-4.56-3.9-6.42
		c-0.01-0.01-0.02-0.02-0.03-0.03c-1.5-1.65-3.26-3.06-5.23-4.14c-2.82-1.54-6.05-2.41-9.49-2.41c-10.98,0-19.91,8.93-19.91,19.91
		c0,0.72,0.04,1.42,0.12,2.12c0.24,2.27,0.89,4.43,1.83,6.41c0,0.01,0.01,0.02,0.01,0.03c1.18,2.47,2.85,4.65,4.89,6.43
		c3.5,3.05,8.06,4.92,13.06,4.92c4.01,0,8.01-1.25,11.28-3.51l0.45-0.31l10.41,10.38c0.56,0.59,1.35,0.92,2.17,0.92
		c1.67,0,3.08-1.41,3.08-3.08c0-0.8-0.33-1.61-0.89-2.16L64.02,61.25z M47.93,63.26c-4.33,0-8.15-2.05-10.67-5.19
		c-0.01-0.01-0.01-0.02-0.02-0.03c-1.46-1.82-2.46-4-2.84-6.41c-0.11-0.7-0.21-1.39-0.21-2.12c0-7.58,6.16-13.74,13.74-13.74
		c2.83,0,5.46,0.86,7.65,2.33c2.07,1.39,3.7,3.34,4.77,5.62c0.01,0.01,0.01,0.02,0.02,0.03c0.82,1.76,1.31,3.69,1.31,5.76
		C61.67,57.1,55.5,63.26,47.93,63.26z"/>
	<path d="M42.04,92.7c-0.17-0.1-0.38,0.02-0.38,0.22v2.35H6.16l17.33-17.33l1.66,1.66c0.14,0.14,0.37,0.07,0.42-0.11l1.7-6.33
		c0.05-0.19-0.12-0.36-0.31-0.31l-6.33,1.7c-0.19,0.05-0.25,0.28-0.11,0.42l1.66,1.66L4.84,93.95v-30.1h2.35
		c0.19,0,0.31-0.21,0.22-0.38L4.13,57.8c-0.1-0.17-0.34-0.17-0.43,0l-3.28,5.67c-0.1,0.17,0.02,0.38,0.22,0.38h2.35v32.34
		c0,0.52,0.42,0.94,0.93,0.94c0,0,0,0,0,0s0,0,0,0h37.74v2.35c0,0.19,0.21,0.31,0.38,0.22l5.67-3.28c0.17-0.1,0.17-0.34,0-0.43
		L42.04,92.7z"/>
</g>
</svg>
