<?xml version="1.0" encoding="utf-8"?>
<!-- Generator: Adobe Illustrator 24.0.0, SVG Export Plug-In . SVG Version: 6.00 Build 0)  -->
<svg version="1.1" id="Layer_1" xmlns="http://www.w3.org/2000/svg" xmlns:xlink="http://www.w3.org/1999/xlink" x="0px" y="0px"
	 viewBox="0 0 100 100" style="enable-background:new 0 0 100 100;" xml:space="preserve">
<style type="text/css">
	.st0{fill:none;}
	.st1{fill:#FFFFFF;}
	.st2{fill:#FFFFFF;stroke:#FFFFFF;stroke-width:0.25;stroke-miterlimit:10;}
	.st3{fill:none;stroke:#000000;stroke-width:0.25;stroke-linecap:round;stroke-miterlimit:10;}
	.st4{fill:#D9D9D9;}
	.st5{fill:none;stroke:#000000;stroke-width:2;stroke-linejoin:round;stroke-miterlimit:10;}
	.st6{fill:none;stroke:#000000;stroke-width:0.4396;stroke-miterlimit:10;}
	.st7{fill:none;stroke:#000000;stroke-linecap:round;stroke-linejoin:round;}
	.st8{fill:none;stroke:#000000;stroke-linecap:round;stroke-linejoin:round;stroke-miterlimit:10;}
</style>
<g>
	<path d="M52.18,28.08c-0.65,0.32-1.44,0.59-2.38,0.78c-0.94,0.2-2.11,0.31-3.5,0.34c-1.39,0.03-3.13,0.05-5.2,0.05
		c-1.94,0-3.28,0-4.17,0.01c-0.91-0.03-2.25-0.06-4.19-0.11c-2.91-0.07-5.65-0.13-8.21-0.2c-2.56-0.06-4.8-0.12-6.7-0.19
		c-1.91-0.07-3.23-0.09-3.94-0.09c-2.59-0.07-4.71,0.21-6.36,0.83c-1.65,0.62-2.98,1.45-3.99,2.52c-1.01,1.06-1.77,2.32-2.28,3.74
		C0.74,37.18,0.32,38.71,0,40.32l1.26,0.78c1.49-1.95,3.07-3.38,4.76-4.32c1.68-0.94,3.44-1.41,5.25-1.41h1.65
		c0,3.11-0.21,6.62-0.63,10.54c-0.42,3.92-1.03,7.82-1.85,11.71c-0.81,3.89-1.8,7.54-2.96,10.98c-1.17,3.44-2.47,6.25-3.89,8.46
		l0.49,0.78c0,0.07,0.39,0.16,1.16,0.29c0.78,0.12,1.68,0.21,2.72,0.24c1.03,0.04,2.1,0.04,3.21,0c1.1-0.03,1.94-0.21,2.52-0.53
		c0.58-1.49,1.12-3.19,1.6-5.11c0.49-1.91,0.91-3.92,1.26-6.02c0.36-2.11,0.62-4.26,0.78-6.46c0.16-2.2,0.24-4.35,0.24-6.41V35.37
		h18.56v43.34h2.43c2.07-0.32,4.34-0.81,6.8-1.45c2.46-0.65,4.63-1.4,6.51-2.24v-2.04l-6.41-0.78V35.37h1.17
		c2.79,0,4.89-0.78,6.32-2.33c1.42-1.55,2.27-3.37,2.53-5.44l-1.36-0.87C53.47,27.31,52.83,27.76,52.18,28.08z"/>
	<polygon points="63.8,33.61 69.58,33.61 80.6,0 75.4,0 66.7,26.61 61.89,11.88 53.06,11.88 53.06,16.23 57.76,16.23 	"/>
	<rect x="80.55" y="14.29" width="10.16" height="4.49"/>
	<polygon points="93.48,26.65 99.3,26.65 99.3,1.51 88.45,1.51 88.45,6.18 93.48,6.18 	"/>
	<polygon points="83.47,74.08 75.52,74.08 69.92,81.6 64.46,74.08 56.08,74.08 65.66,86.86 55.75,99.84 63.89,99.84 69.73,91.94 
		75.38,99.84 83.86,99.84 73.9,86.67 	"/>
	<path d="M90.8,82.17l4.6-4.02c1.47-1.27,2.47-2.37,2.99-3.28s0.79-1.87,0.79-2.9c0-1.79-0.74-3.24-2.23-4.36s-3.52-1.68-6.1-1.68
		c-2.08,0-3.85,0.35-5.32,1.06c-1.47,0.7-2.6,1.66-3.4,2.87l3.83,2.3c0.45-0.64,1.06-1.14,1.84-1.5c0.78-0.37,1.65-0.55,2.61-0.55
		c1.15,0,2.01,0.21,2.59,0.62c0.57,0.41,0.86,0.96,0.86,1.63c0,0.48-0.17,0.98-0.5,1.51s-0.95,1.17-1.84,1.94l-8.29,7.19v3.21h16.71
		v-4.03H90.8z"/>
</g>
</svg>
