<svg id="Layer_1" data-name="Layer 1" xmlns="http://www.w3.org/2000/svg" viewBox="0 0 100 100"><defs><style>.cls-1{fill:#231f20;}</style></defs><title> </title><path class="cls-1" d="M4.94,68.77l-.07,3.6,1.6,0c1.07,0,2.1,0,3.09,0,9.33,0,14.94-1.47,19.36-5.08,5-4.12,8.31-11.15,12.37-20.63a54.22,54.22,0,0,1,5.89-11c1.57-2.08,3-3.13,4.22-3.13,1.79,0,4.9,2.3,9.61,13.26l1.6,3.75c3.42,8.12,5.9,14,10.56,17.84,4.81,4,11.62,5.46,22.8,4.94l1.59-.07-.11-3.59-1.64.07c-10.24.46-16.34-.77-20.42-4.15-3.62-3-5.89-7.84-8.69-14.42h.71v-1H66.28l-.44-1c-.51-1.22-1-2.47-1.61-3.78a52.21,52.21,0,0,0-6.05-11.15C56,30.37,53.75,29,51.39,29s-4.7,1.48-7,4.51a58,58,0,0,0-6.33,11.82c-.57,1.35-1.13,2.64-1.68,3.89h-2v1h1.52C33,56.74,30.3,61.66,26.72,64.58c-4.12,3.36-9.78,4.55-20.15,4.24Z"/><rect class="cls-1" x="70.41" y="49.2" width="3" height="1"/><rect class="cls-1" x="28.41" y="49.2" width="3" height="1"/><rect class="cls-1" x="22.41" y="49.2" width="3" height="1"/><rect class="cls-1" x="76.41" y="49.2" width="3" height="1"/><rect class="cls-1" x="94.41" y="49.2" width="3" height="1"/><rect class="cls-1" x="16.41" y="49.2" width="3" height="1"/><rect class="cls-1" x="88.41" y="49.2" width="3" height="1"/><rect class="cls-1" x="82.41" y="49.2" width="3" height="1"/><rect class="cls-1" x="10.41" y="49.2" width="3" height="1"/><rect class="cls-1" x="4.41" y="49.2" width="3" height="1"/><rect class="cls-1" x="46.41" y="49.2" width="3" height="1"/><rect class="cls-1" x="40.41" y="49.2" width="3" height="1"/><rect class="cls-1" x="58.41" y="49.2" width="3" height="1"/><rect class="cls-1" x="52.41" y="49.2" width="3" height="1"/><path class="cls-1" d="M98.48,97H3V1.52a1.5,1.5,0,0,0-3,0v97H0a1.5,1.5,0,0,0,1.5,1.5h97a1.5,1.5,0,1,0,0-3Z"/></svg>