<svg id="Layer_1" data-name="Layer 1" xmlns="http://www.w3.org/2000/svg" viewBox="0 0 100 100"><defs><style>.cls-1{fill:#231f20;}</style></defs><title> </title><path class="cls-1" d="M11.32,22.74q6,0,10.74-7.38,4.76,7.38,10.69,7.38V18.53a6.58,6.58,0,0,1-4.68-2.1,28.14,28.14,0,0,1-3.65-4.94q4.42-7,8.33-7V.25q-5.92,0-10.69,7.38Q17.29.25,11.32.25a10.83,10.83,0,0,0-8,3.28,10.83,10.83,0,0,0-3.28,8,10.85,10.85,0,0,0,3.28,8A10.83,10.83,0,0,0,11.32,22.74Zm-5-16.23a6.82,6.82,0,0,1,5-2.06q3.91,0,8.33,7A28.14,28.14,0,0,1,16,16.43a6.58,6.58,0,0,1-4.68,2.1,6.78,6.78,0,0,1-5-2.06,6.79,6.79,0,0,1-2.06-5A6.82,6.82,0,0,1,6.34,6.51Z"/><polygon class="cls-1" points="74.34 84.21 70.87 84.21 68.42 87.49 66.03 84.21 62.37 84.21 66.56 89.79 62.23 95.47 65.78 95.47 68.33 92.01 70.8 95.47 74.51 95.47 70.16 89.71 74.34 84.21"/><polygon class="cls-1" points="76.72 85.73 82.56 87.87 76.72 89.99 76.72 92.18 85.07 89.01 85.07 86.73 76.72 83.56 76.72 85.73"/><path class="cls-1" d="M93.37,91.84l-3.15-7.63H86.85l4.87,11.34,0,.1a2.69,2.69,0,0,1-.75,1.08,1.73,1.73,0,0,1-1.09.33,2.79,2.79,0,0,1-1-.19,2.75,2.75,0,0,1-.87-.53l-1.2,2.33a3.86,3.86,0,0,0,1.41.75,5.73,5.73,0,0,0,1.73.27,4.67,4.67,0,0,0,2.75-.79,6,6,0,0,0,1.92-2.74l5.08-12H96.55Z"/><path class="cls-1" d="M100,25.66s0-.08,0-.12,0-.1,0-.16L82.72.46,82.65.38l-.06,0a.31.31,0,0,0-.17-.12l-.07,0h0a.75.75,0,0,0-.15,0,.5.5,0,0,0-.16,0H82l-.07,0c-.07,0-.12.11-.09.08L81.7.4,65.9,22.46a.22.22,0,0,0-.05.11.36.36,0,0,0-.06.15.28.28,0,0,0,0,.13v0l0,.19,0,0a.54.54,0,0,0,.27.3l11.29,6.15a.68.68,0,0,0,.31.08L99.45,26.3a.67.67,0,0,0,.3-.13l.09-.08a.4.4,0,0,0,.07-.13.47.47,0,0,0,.09-.2v-.1ZM81.11,3.44l-2.68,16.9L67.85,22Zm-1.54,18L88,20.19l9.4,5.12L78.5,28.2Zm9-2.4L84.09,4.73,97.27,23.78Zm-8.82,1.06L82.39,3.66,87.22,19Zm-1.56,1.55-1,6.29-8.79-4.79Z"/><path class="cls-1" d="M64,61.25l.31-.45a19.92,19.92,0,0,0-1.65-24.6l0,0A19.87,19.87,0,0,0,28,49.52a18.57,18.57,0,0,0,.12,2.12A19.57,19.57,0,0,0,30,58.05v0a19.87,19.87,0,0,0,29.23,7.85l.45-.31L70.06,76a3,3,0,0,0,2.17.91,3.08,3.08,0,0,0,2.2-5.24Zm-16.09,2a13.66,13.66,0,0,1-10.67-5.19l0,0a13.63,13.63,0,0,1-2.84-6.41,13.48,13.48,0,0,1-.21-2.12,13.7,13.7,0,0,1,26.15-5.79.05.05,0,0,1,0,0,13.51,13.51,0,0,1,1.31,5.75A13.76,13.76,0,0,1,47.93,63.26Z"/><path class="cls-1" d="M42,92.7a.26.26,0,0,0-.38.22v2.35H6.16L23.49,77.93l1.66,1.66a.25.25,0,0,0,.42-.11l1.7-6.33a.26.26,0,0,0-.31-.31l-6.33,1.7a.25.25,0,0,0-.11.42l1.66,1.66L4.84,94V63.85H7.19a.26.26,0,0,0,.22-.38L4.13,57.8a.24.24,0,0,0-.43,0L.42,63.47a.25.25,0,0,0,.22.38H3V96.19a.94.94,0,0,0,.93.94H41.66v2.34a.25.25,0,0,0,.38.22l5.67-3.28a.24.24,0,0,0,0-.43Z"/></svg>