<svg id="Layer_1" data-name="Layer 1" xmlns="http://www.w3.org/2000/svg" viewBox="0 0 100 100"><defs><style>.cls-1{fill:#231f20;}</style></defs><title> </title><path class="cls-1" d="M98.41,55.09a1.5,1.5,0,0,0-1.49,1.5V87.5a10.94,10.94,0,0,0-9.2,9.43H39.89a1.5,1.5,0,0,0,0,3H98.41a1.49,1.49,0,0,0,1.49-1.5V56.59A1.49,1.49,0,0,0,98.41,55.09ZM88.73,96.93a9.94,9.94,0,0,1,8.19-8.43v8.43Z"/><rect class="cls-1" x="93.57" y="58.38" width="1.49" height="0.99" transform="translate(-16.67 65.53) rotate(-35.41)"/><rect class="cls-1" x="74.58" y="71.37" width="2.89" height="0.99" transform="translate(-27.57 57.32) rotate(-35.4)"/><rect class="cls-1" x="79.3" y="68.02" width="2.89" height="0.99" transform="translate(-24.76 59.45) rotate(-35.41)"/><rect class="cls-1" x="69.86" y="74.72" width="2.89" height="0.99" transform="translate(-30.38 55.18) rotate(-35.38)"/><rect class="cls-1" x="88.73" y="61.32" width="2.89" height="0.99" transform="translate(-19.14 63.68) rotate(-35.41)"/><rect class="cls-1" x="84.01" y="64.67" width="2.89" height="0.99" transform="translate(-21.95 61.57) rotate(-35.41)"/><rect class="cls-1" x="51" y="88.12" width="2.89" height="0.99" transform="translate(-41.65 46.78) rotate(-35.41)"/><rect class="cls-1" x="60.43" y="81.42" width="2.89" height="0.99" transform="translate(-36 50.96) rotate(-35.38)"/><rect class="cls-1" x="55.72" y="84.77" width="2.89" height="0.99" transform="translate(-38.81 48.84) rotate(-35.38)"/><rect class="cls-1" x="46.28" y="91.47" width="2.89" height="0.99" transform="translate(-44.45 44.65) rotate(-35.4)"/><rect class="cls-1" x="65.15" y="78.07" width="2.89" height="0.99" transform="matrix(0.82, -0.58, 0.58, 0.82, -33.2, 53.09)"/><rect class="cls-1" x="42.92" y="94.36" width="1.49" height="0.99" transform="translate(-46.88 42.83) rotate(-35.4)"/><path class="cls-1" d="M85.42,49.37a1.49,1.49,0,1,0,2.27-1.94L61.36,16.52a6.21,6.21,0,0,0,1.77-7.23L77.57,2.87A1.5,1.5,0,0,0,76.35.14l-22,9.8a1.5,1.5,0,0,0-.85,1,1.53,1.53,0,0,0,.32,1.3ZM62.22,9.7a5.18,5.18,0,0,1-1.52,6.05l-3.32-3.9Z"/><polygon class="cls-1" points="77.41 6.21 77.74 7.68 78.71 7.46 78.39 6 77.41 6.21"/><rect class="cls-1" x="84.13" y="35.05" width="1" height="3.13" transform="translate(-5.91 19.11) rotate(-12.46)"/><rect class="cls-1" x="78.74" y="10.6" width="1" height="3.13" transform="translate(-0.76 17.38) rotate(-12.46)"/><rect class="cls-1" x="82.78" y="28.94" width="1" height="3.13" transform="translate(-4.62 18.68) rotate(-12.46)"/><rect class="cls-1" x="80.09" y="16.72" width="1" height="3.13" transform="translate(-2.05 17.81) rotate(-12.46)"/><rect class="cls-1" x="81.43" y="22.83" width="1" height="3.13" transform="translate(-3.33 18.25) rotate(-12.46)"/><rect class="cls-1" x="85.33" y="41.32" width="0.99" height="1.5" transform="translate(-7.06 19.54) rotate(-12.48)"/><path class="cls-1" d="M71.24,65l.12-.1a.86.86,0,0,0,.13-.25.74.74,0,0,0,.14-.31v-.15a2.24,2.24,0,0,0,0-.24,1.57,1.57,0,0,0-.09-.32v-.07L35.63,11.12a.9.9,0,0,0-.25-.21.86.86,0,0,0-.26-.2l-.11,0h0a1.11,1.11,0,0,0-.32,0,.59.59,0,0,0-.29,0h-.08l-.09,0a.45.45,0,0,0-.2.18.58.58,0,0,0-.22.19L.89,57.47l-.08.15v0a.81.81,0,0,0-.12.28.65.65,0,0,0,0,.25.43.43,0,0,0,0,.2l.06.15,0,0a1,1,0,0,0,.48.58L24.83,72.08a1.14,1.14,0,0,0,.54.14h.17l45.15-7A1.12,1.12,0,0,0,71.24,65ZM32.82,16.38,27.05,53.07,4.3,56.59ZM29.41,52.7l5.65-35.94L45.48,50.21ZM47.9,50.36,38,18.65,66.87,60.78ZM29,55.07l17.72-2.74L67,63.47,26.73,69.71Zm-2.35.37L24.5,69.3,5.3,58.75ZM71.24,64Z"/></svg>