<svg id="Layer_1" data-name="Layer 1" xmlns="http://www.w3.org/2000/svg" viewBox="0 0 100 100"><defs><style>.cls-1{fill:#231f20;}</style></defs><title> </title><path class="cls-1" d="M25.31,98.07A2,2,0,0,1,23.37,100H2.11A1.94,1.94,0,0,1,.18,98.07V74.87a1.94,1.94,0,0,1,1.93-1.93H23.37a2,2,0,0,1,1.94,1.93ZM23.37,75.84a1,1,0,0,0-1-1H3.08a1,1,0,0,0-1,1V79.7a1,1,0,0,0,1,1H22.41a1,1,0,0,0,1-1ZM4,82.6A1.94,1.94,0,1,0,6,84.53,1.92,1.92,0,0,0,4,82.6Zm0,5.8A1.94,1.94,0,1,0,6,90.33,1.92,1.92,0,0,0,4,88.4Zm0,5.8A1.94,1.94,0,1,0,6,96.13,1.92,1.92,0,0,0,4,94.2Zm5.8-11.6a1.94,1.94,0,1,0,1.94,1.93A1.92,1.92,0,0,0,9.84,82.6Zm0,5.8a1.94,1.94,0,1,0,1.94,1.93A1.92,1.92,0,0,0,9.84,88.4Zm0,5.8a1.94,1.94,0,1,0,1.94,1.93A1.92,1.92,0,0,0,9.84,94.2Zm5.8-11.6a1.94,1.94,0,1,0,1.94,1.93A1.92,1.92,0,0,0,15.64,82.6Zm0,5.8a1.94,1.94,0,1,0,1.94,1.93A1.92,1.92,0,0,0,15.64,88.4Zm0,5.8a1.94,1.94,0,1,0,1.94,1.93A1.92,1.92,0,0,0,15.64,94.2Zm5.8-11.6a1.94,1.94,0,1,0,1.93,1.93A1.92,1.92,0,0,0,21.44,82.6Zm1.93,7.73a1.93,1.93,0,0,0-3.86,0v5.8a1.93,1.93,0,1,0,3.86,0ZM99.83,49.5H75.32a3.34,3.34,0,0,0-2.22-2.66c-1.49-22.48-6-23.92-9.11-24.91-4.3-1.37-9.18,2.75-14.21,8.8V0h-1V32c-2.65,3.31-5.33,7.08-8,10.82C39.25,45,37.6,47.29,36,49.5H23.72a3.37,3.37,0,0,0-2-2.59c-.11-2-.18-4.35-.18-7.07V20.22a1.32,1.32,0,0,0-2.63,0V39.84q0,3.9.18,7.06a3.39,3.39,0,0,0-2,2.6H.18v1H17.07a3.37,3.37,0,0,0,2.69,2.8c.84,5.09,2.35,7.84,4.62,8.56,3.93,1.24,8.68-4,14.09-11.36H48.78V100h1V50.5h18.9a3.35,3.35,0,0,0,2.12,2.63Q71,58.35,71,64.6a1.31,1.31,0,0,0,2.62,0c0-4.29-.07-8.11-.19-11.56a3.36,3.36,0,0,0,1.9-2.54H99.83ZM25.18,59.37c-.71-.22-2-1.39-2.86-6.62a3.36,3.36,0,0,0,1.4-2.25H35.19C31.19,55.77,27.32,60.05,25.18,59.37Zm14-9.87c1.21-1.67,2.46-3.42,3.73-5.22,1.91-2.68,3.88-5.46,5.84-8.06V49.5ZM49.78,34.91c5-6.53,10-11.59,13.42-10.49,4,1.26,6.34,8.39,7.29,22.59a3.31,3.31,0,0,0-1.81,2.49H49.78Zm23,56.48L68,93.09l4.78,1.7v1.88l-7.35-2.61V92.12l7.35-2.61Zm-7.35,6.29h7.35v1.88H65.38Zm21-5.56v1.94L79,96.67V94.79l4.78-1.7L79,91.39V89.51ZM79,97.68h7.35v1.88H79Zm18.77-4.5-1,1.95H100V97H95.78l-.9,1.7h-2l.9-1.7H92.61V95.13H94.8l1-1.95h-3.2V91.3H96.8l.89-1.7h2l-.89,1.7H100v1.88ZM74.56,70.39a1.59,1.59,0,0,0-.48,1L74,72h2.46l-.25,2.13H73.85L73,81.2a4,4,0,0,1-1.25,2.59,3.86,3.86,0,0,1-2.72,1,5.36,5.36,0,0,1-1.24-.13,2.54,2.54,0,0,1-.94-.4l.94-2a1.72,1.72,0,0,0,1.1.34,1.22,1.22,0,0,0,.91-.35,1.66,1.66,0,0,0,.42-1l.89-7H69.59L69.85,72h1.5l.07-.59a4,4,0,0,1,1.25-2.59,3.94,3.94,0,0,1,2.78-1,4.73,4.73,0,0,1,1.19.15,2.69,2.69,0,0,1,1,.39l-1,2A1.94,1.94,0,0,0,75.54,70,1.36,1.36,0,0,0,74.56,70.39Zm3.18,11.89a14.75,14.75,0,0,1-.27-2.8,18.69,18.69,0,0,1,1.07-6.24,16,16,0,0,1,3-5.26H84.3a20,20,0,0,0-3.1,5.6,17.86,17.86,0,0,0-1,6,16.14,16.14,0,0,0,.82,5H78.43A10.34,10.34,0,0,1,77.74,82.28Zm11.63-5.9L92,81.16H89.11l-1.57-2.93-2.75,2.93H81.63l4.78-4.9L83.86,71.6h2.88l1.51,2.81,2.67-2.81H94ZM94.65,79a17.86,17.86,0,0,0,1-6,15.85,15.85,0,0,0-.82-5h2.55a10.34,10.34,0,0,1,.69,2.33,14.75,14.75,0,0,1,.27,2.8,18.69,18.69,0,0,1-1.07,6.24,16,16,0,0,1-3,5.26H91.56A20.2,20.2,0,0,0,94.65,79Z"/></svg>