<?xml version="1.0" encoding="utf-8"?>
<!-- Generator: Adobe Illustrator 24.0.0, SVG Export Plug-In . SVG Version: 6.00 Build 0)  -->
<svg version="1.1" id="Layer_1" xmlns="http://www.w3.org/2000/svg" xmlns:xlink="http://www.w3.org/1999/xlink" x="0px" y="0px"
	 viewBox="0 0 100 100" style="enable-background:new 0 0 100 100;" xml:space="preserve">
<style type="text/css">
	.st0{fill:none;}
	.st1{fill:#FFFFFF;}
	.st2{fill:#FFFFFF;stroke:#FFFFFF;stroke-width:0.25;stroke-miterlimit:10;}
	.st3{fill:none;stroke:#000000;stroke-width:0.25;stroke-linecap:round;stroke-miterlimit:10;}
	.st4{fill:#D9D9D9;}
	.st5{fill:none;stroke:#000000;stroke-width:2;stroke-linejoin:round;stroke-miterlimit:10;}
	.st6{fill:none;stroke:#000000;stroke-width:0.4396;stroke-miterlimit:10;}
	.st7{fill:none;stroke:#000000;stroke-linecap:round;stroke-linejoin:round;}
	.st8{fill:none;stroke:#000000;stroke-linecap:round;stroke-linejoin:round;stroke-miterlimit:10;}
</style>
<g>
	<polygon points="61.93,27.26 54.01,35.24 46.1,27.26 40.82,32.79 48.61,40.64 40.82,48.49 46.1,54.02 54.01,46.04 61.93,54.02 
		67.2,48.49 59.41,40.64 67.2,32.79 	"/>
	<path d="M27.05,35.24c1.1,0,2.02-0.38,2.77-1.13c0.75-0.75,1.13-1.69,1.13-2.82c0-1.13-0.38-2.05-1.13-2.77
		c-0.75-0.72-1.68-1.08-2.77-1.08c-1.09,0-2.02,0.36-2.77,1.08c-0.75,0.72-1.13,1.65-1.13,2.77c0,1.13,0.38,2.07,1.13,2.82
		C25.03,34.87,25.96,35.24,27.05,35.24z"/>
	<path d="M27.05,47c-1.09,0-2.02,0.36-2.77,1.08c-0.75,0.72-1.13,1.65-1.13,2.77c0,1.12,0.38,2.07,1.13,2.82
		c0.75,0.75,1.68,1.13,2.77,1.13c1.1,0,2.02-0.38,2.77-1.13c0.75-0.75,1.13-1.7,1.13-2.82c0-1.13-0.38-2.05-1.13-2.77
		C29.08,47.36,28.15,47,27.05,47z"/>
	<rect x="15.87" y="38.25" width="22.38" height="5.74"/>
	<path d="M98.01,88.9L76.11,67l0.65-0.95c4.83-6.97,7.37-15.18,7.37-23.74c0-5.11-0.97-9.99-2.65-14.53
		c-1.87-5.03-4.67-9.6-8.2-13.51c-0.02-0.02-0.04-0.05-0.07-0.07c-3.16-3.47-6.85-6.45-11-8.71c-5.94-3.23-12.74-5.07-19.96-5.07
		c-23.1,0-41.89,18.79-41.89,41.89c0,1.51,0.09,2.99,0.24,4.46c0.51,4.79,1.86,9.31,3.85,13.48c0.01,0.02,0.02,0.04,0.03,0.06
		c2.48,5.19,5.99,9.79,10.28,13.54c7.37,6.43,16.97,10.36,27.49,10.36c8.44,0,16.87-2.62,23.73-7.38l0.95-0.66l21.9,21.84
		c1.19,1.24,2.84,1.93,4.56,1.93c3.52,0,6.49-2.97,6.49-6.49C99.87,91.76,99.18,90.06,98.01,88.9z M42.25,71.23
		c-9.11,0-17.15-4.32-22.45-10.92c-0.01-0.02-0.03-0.04-0.05-0.06c-3.07-3.84-5.18-8.42-5.97-13.48c-0.23-1.46-0.45-2.93-0.45-4.46
		c0-15.94,12.97-28.92,28.92-28.92c5.95,0,11.49,1.81,16.09,4.91c4.35,2.92,7.79,7.04,10.04,11.82c0.01,0.03,0.03,0.05,0.04,0.07
		c1.72,3.7,2.75,7.77,2.75,12.11C71.16,58.26,58.19,71.23,42.25,71.23z"/>
</g>
</svg>
