<?xml version="1.0" encoding="utf-8"?>
<!-- Generator: Adobe Illustrator 24.0.0, SVG Export Plug-In . SVG Version: 6.00 Build 0)  -->
<svg version="1.1" id="Layer_1" xmlns="http://www.w3.org/2000/svg" xmlns:xlink="http://www.w3.org/1999/xlink" x="0px" y="0px"
	 viewBox="0 0 100 100" style="enable-background:new 0 0 100 100;" xml:space="preserve">
<style type="text/css">
	.st0{fill:none;}
	.st1{fill:#FFFFFF;}
	.st2{fill:#FFFFFF;stroke:#FFFFFF;stroke-width:0.25;stroke-miterlimit:10;}
	.st3{fill:none;stroke:#000000;stroke-width:0.25;stroke-linecap:round;stroke-miterlimit:10;}
	.st4{fill:#D9D9D9;}
	.st5{fill:none;stroke:#000000;stroke-width:2;stroke-linejoin:round;stroke-miterlimit:10;}
	.st6{fill:none;stroke:#000000;stroke-width:0.4396;stroke-miterlimit:10;}
	.st7{fill:none;stroke:#000000;stroke-linecap:round;stroke-linejoin:round;}
	.st8{fill:none;stroke:#000000;stroke-linecap:round;stroke-linejoin:round;stroke-miterlimit:10;}
</style>
<g>
	<path d="M4.67,4.1c0.64-0.3,1.36-0.45,2.15-0.45C7.78,3.65,8.5,3.84,9,4.23c0.49,0.39,0.74,0.95,0.74,1.67
		c0,0.5-0.13,1.01-0.39,1.52C9.09,7.93,8.58,8.54,7.84,9.25l-7.01,6.62v2.73h13.73v-3.43H6.75l4.18-3.95c1.19-1.11,2-2.09,2.41-2.96
		c0.42-0.87,0.62-1.79,0.62-2.78c0-1.09-0.28-2.04-0.84-2.84c-0.56-0.81-1.35-1.43-2.36-1.87S8.57,0.12,7.22,0.12
		c-1.61,0-3.04,0.3-4.28,0.89C1.69,1.61,0.71,2.43,0,3.49l3.06,1.97C3.5,4.86,4.03,4.4,4.67,4.1z"/>
	<polygon points="31.83,18.6 26.43,11.46 31.62,4.63 27.31,4.63 24.27,8.71 21.31,4.63 16.77,4.63 21.96,11.56 16.59,18.6 21,18.6 
		24.17,14.32 27.23,18.6 	"/>
	<rect x="34.84" y="4.71" width="12.36" height="3.17"/>
	<rect x="34.84" y="11.15" width="12.36" height="3.17"/>
	<path d="M51.7,10.81c-0.48,0.73-0.71,1.57-0.71,2.52c0,1.12,0.32,2.11,0.95,2.95c0.63,0.84,1.52,1.49,2.67,1.95
		c1.15,0.46,2.49,0.69,4.01,0.69c1.52,0,2.86-0.23,4.02-0.69c1.16-0.46,2.06-1.11,2.7-1.95c0.64-0.84,0.96-1.82,0.96-2.95
		c0-0.95-0.24-1.79-0.71-2.52c-0.48-0.73-1.16-1.32-2.06-1.77c0.69-0.42,1.22-0.94,1.58-1.57c0.36-0.63,0.55-1.35,0.55-2.17
		c0-1.06-0.29-1.97-0.88-2.75c-0.59-0.78-1.41-1.38-2.48-1.8C61.23,0.33,60,0.12,58.62,0.12c-1.37,0-2.58,0.21-3.63,0.64
		c-1.06,0.42-1.88,1.03-2.47,1.8c-0.59,0.78-0.88,1.7-0.88,2.75c0,0.81,0.18,1.54,0.55,2.17c0.36,0.63,0.88,1.15,1.56,1.57
		C52.85,9.5,52.18,10.08,51.7,10.81z M56.58,3.82c0.51-0.41,1.19-0.61,2.04-0.61c0.87,0,1.56,0.2,2.08,0.61
		c0.52,0.41,0.78,0.96,0.78,1.67c0,0.69-0.26,1.24-0.78,1.63c-0.52,0.4-1.21,0.6-2.08,0.6c-0.87,0-1.55-0.2-2.05-0.6
		c-0.5-0.4-0.75-0.94-0.75-1.63C55.81,4.78,56.07,4.22,56.58,3.82z M56.15,11.3c0.61-0.47,1.43-0.7,2.47-0.7
		c1.06,0,1.89,0.23,2.51,0.7c0.61,0.47,0.92,1.1,0.92,1.9c0,0.8-0.31,1.43-0.92,1.91c-0.62,0.48-1.45,0.71-2.51,0.71
		c-1.04,0-1.86-0.23-2.47-0.7c-0.61-0.47-0.91-1.11-0.91-1.92C55.24,12.4,55.55,11.77,56.15,11.3z"/>
	<path d="M9.76,78.58c-1.67,0-3.31,0.22-4.89,0.66c-1.59,0.44-2.94,1.06-4.08,1.86l2.16,4.21c0.75-0.59,1.66-1.06,2.72-1.41
		c1.07-0.35,2.16-0.52,3.27-0.52c1.6,0,2.8,0.35,3.59,1.06c0.8,0.71,1.2,1.72,1.2,3.03H8.94c-3.04,0-5.29,0.55-6.75,1.66
		c-1.46,1.11-2.18,2.63-2.18,4.56c0,1.21,0.31,2.29,0.93,3.25c0.62,0.95,1.51,1.7,2.69,2.24c1.17,0.54,2.56,0.81,4.16,0.81
		c3.09,0,5.2-0.97,6.34-2.9v2.59h5.64V87.81c0-3.09-0.86-5.41-2.59-6.94C15.45,79.34,12.98,78.58,9.76,78.58z M13.74,93.11
		c-0.33,0.93-0.9,1.63-1.7,2.11c-0.8,0.48-1.71,0.72-2.75,0.72c-1.06,0-1.89-0.23-2.49-0.68c-0.61-0.45-0.91-1.06-0.91-1.84
		c0-1.62,1.24-2.44,3.71-2.44h4.14V93.11z"/>
	<polygon points="38.44,77.22 33.45,77.22 33.45,83.79 26.76,83.79 26.76,88.51 33.45,88.51 33.45,95.08 38.44,95.08 38.44,88.51 
		45.17,88.51 45.17,83.79 38.44,83.79 	"/>
	<path d="M69.81,79.91c-1.59-0.89-3.34-1.33-5.28-1.33c-2.66,0-4.74,0.84-6.26,2.51V71h-6.03v28.68H58v-2.4
		c1.49,1.8,3.67,2.71,6.53,2.71c1.93,0,3.69-0.44,5.28-1.33c1.59-0.89,2.83-2.14,3.73-3.75c0.9-1.61,1.35-3.48,1.35-5.62
		c0-2.14-0.45-4.01-1.35-5.63C72.64,82.05,71.39,80.8,69.81,79.91z M67.3,93.48c-0.99,1.04-2.26,1.57-3.81,1.57
		c-1.55,0-2.82-0.52-3.81-1.57c-0.99-1.04-1.49-2.44-1.49-4.19c0-1.75,0.5-3.15,1.49-4.19c0.99-1.04,2.26-1.57,3.81-1.57
		c1.55,0,2.82,0.52,3.81,1.57c0.99,1.04,1.49,2.44,1.49,4.19C68.78,91.04,68.29,92.43,67.3,93.48z"/>
	<polygon points="49.51,45.17 56.66,35.77 50.72,35.77 46.54,41.38 42.46,35.77 36.2,35.77 43.35,45.31 35.95,55.01 42.03,55.01 
		46.39,49.11 50.62,55.01 56.95,55.01 	"/>
	<polygon points="60.74,39.81 70.71,43.47 60.74,47.09 60.74,50.84 75,45.42 75,41.52 60.74,36.1 	"/>
	<path d="M94.63,35.77L89.2,48.82l-5.4-13.06h-5.76l8.33,19.39l-0.07,0.18c-0.38,0.86-0.81,1.47-1.29,1.84
		c-0.48,0.37-1.1,0.55-1.86,0.55c-0.55,0-1.1-0.11-1.66-0.32c-0.56-0.21-1.05-0.51-1.48-0.89l-2.04,3.97
		c0.62,0.55,1.42,0.98,2.4,1.29c0.98,0.31,1.97,0.46,2.97,0.46c1.84,0,3.4-0.45,4.7-1.36c1.3-0.91,2.39-2.47,3.27-4.69L100,35.77
		H94.63z"/>
</g>
</svg>
