<?xml version="1.0" encoding="utf-8"?>
<!-- Generator: Adobe Illustrator 24.0.0, SVG Export Plug-In . SVG Version: 6.00 Build 0)  -->
<svg version="1.1" id="Layer_1" xmlns="http://www.w3.org/2000/svg" xmlns:xlink="http://www.w3.org/1999/xlink" x="0px" y="0px"
	 viewBox="0 0 100 100" style="enable-background:new 0 0 100 100;" xml:space="preserve">
<style type="text/css">
	.st0{fill:none;}
	.st1{fill:#FFFFFF;}
	.st2{fill:#FFFFFF;stroke:#FFFFFF;stroke-width:0.25;stroke-miterlimit:10;}
	.st3{fill:none;stroke:#000000;stroke-width:0.25;stroke-linecap:round;stroke-miterlimit:10;}
	.st4{fill:#D9D9D9;}
	.st5{fill:none;stroke:#000000;stroke-width:2;stroke-linejoin:round;stroke-miterlimit:10;}
	.st6{fill:none;stroke:#000000;stroke-width:0.4396;stroke-miterlimit:10;}
	.st7{fill:none;stroke:#000000;stroke-linecap:round;stroke-linejoin:round;}
	.st8{fill:none;stroke:#000000;stroke-linecap:round;stroke-linejoin:round;stroke-miterlimit:10;}
</style>
<g>
	<path d="M23.24,72.95H2.05c-1.05,0-1.93,0.87-1.93,1.93V98c0,1.05,0.87,1.93,1.93,1.93h21.19c1.05,0,1.93-0.87,1.93-1.93V74.88
		C25.17,73.82,24.3,72.95,23.24,72.95z M3.98,98c-1.07,0-1.93-0.86-1.93-1.93s0.86-1.93,1.93-1.93S5.9,95,5.9,96.07S5.05,98,3.98,98
		z M3.98,92.22c-1.07,0-1.93-0.86-1.93-1.93c0-1.07,0.86-1.93,1.93-1.93s1.93,0.86,1.93,1.93C5.9,91.36,5.05,92.22,3.98,92.22z
		 M3.98,86.44c-1.07,0-1.93-0.86-1.93-1.93c0-1.07,0.86-1.93,1.93-1.93s1.93,0.86,1.93,1.93C5.9,85.58,5.05,86.44,3.98,86.44z
		 M9.76,98c-1.07,0-1.93-0.86-1.93-1.93s0.86-1.93,1.93-1.93s1.93,0.86,1.93,1.93S10.82,98,9.76,98z M9.76,92.22
		c-1.07,0-1.93-0.86-1.93-1.93c0-1.07,0.86-1.93,1.93-1.93s1.93,0.86,1.93,1.93C11.68,91.36,10.82,92.22,9.76,92.22z M9.76,86.44
		c-1.07,0-1.93-0.86-1.93-1.93c0-1.07,0.86-1.93,1.93-1.93s1.93,0.86,1.93,1.93C11.68,85.58,10.82,86.44,9.76,86.44z M15.54,98
		c-1.07,0-1.93-0.86-1.93-1.93s0.86-1.93,1.93-1.93s1.93,0.86,1.93,1.93S16.6,98,15.54,98z M15.54,92.22
		c-1.07,0-1.93-0.86-1.93-1.93c0-1.07,0.86-1.93,1.93-1.93s1.93,0.86,1.93,1.93C17.46,91.36,16.6,92.22,15.54,92.22z M15.54,86.44
		c-1.07,0-1.93-0.86-1.93-1.93c0-1.07,0.86-1.93,1.93-1.93s1.93,0.86,1.93,1.93C17.46,85.58,16.6,86.44,15.54,86.44z M23.24,96.07
		c0,1.05-0.87,1.93-1.93,1.93c-1.05,0-1.93-0.87-1.93-1.93v-5.78c0-1.05,0.87-1.93,1.93-1.93c1.05,0,1.93,0.87,1.93,1.93V96.07z
		 M21.32,86.44c-1.07,0-1.93-0.86-1.93-1.93c0-1.07,0.86-1.93,1.93-1.93s1.93,0.86,1.93,1.93C23.24,85.58,22.38,86.44,21.32,86.44z
		 M23.24,79.69c0,0.53-0.44,0.96-0.96,0.96H3.01c-0.53,0-0.96-0.44-0.96-0.96v-3.85c0-0.53,0.44-0.96,0.96-0.96h19.27
		c0.53,0,0.96,0.44,0.96,0.96V79.69z"/>
	<path d="M68.78,81.21c0.33-0.3,0.76-0.45,1.28-0.45c0.49,0,0.96,0.15,1.41,0.44l1.25-2.6c-0.31-0.22-0.72-0.38-1.22-0.51
		c-0.51-0.12-1.02-0.19-1.54-0.19c-1.49,0-2.7,0.41-3.61,1.25c-0.91,0.83-1.46,1.95-1.63,3.37l-0.09,0.76h-1.94l-0.35,2.77h1.94
		l-1.15,9.15c-0.06,0.6-0.25,1.05-0.55,1.35s-0.7,0.45-1.18,0.45c-0.57,0-1.05-0.15-1.43-0.44l-1.22,2.61
		c0.32,0.23,0.73,0.4,1.22,0.52c0.49,0.12,1.03,0.17,1.62,0.17c1.45,0,2.62-0.41,3.53-1.24c0.91-0.83,1.45-1.95,1.61-3.37l1.15-9.2
		h3.07l0.32-2.77h-3.18l0.09-0.71C68.24,81.96,68.45,81.51,68.78,81.21z"/>
	<path d="M81.42,78.08h-3.6c-1.66,1.92-2.95,4.2-3.87,6.83c-0.92,2.63-1.39,5.33-1.39,8.09c0,1.21,0.12,2.43,0.35,3.64
		c0.23,1.21,0.53,2.22,0.9,3.02h3.3c-0.71-2.17-1.06-4.33-1.06-6.48c0-2.67,0.45-5.29,1.36-7.84
		C78.31,82.79,79.65,80.37,81.42,78.08z"/>
	<polygon points="88.01,88.99 93.98,82.79 90.01,82.79 86.55,86.43 84.59,82.79 80.86,82.79 84.16,88.83 77.95,95.19 82.06,95.19 
		85.63,91.39 87.66,95.19 91.47,95.19 	"/>
	<path d="M98.46,78.08h-3.3c0.71,2.17,1.06,4.33,1.06,6.48c0,2.68-0.45,5.29-1.36,7.84c-0.91,2.55-2.24,4.97-4.01,7.26h3.6
		c1.66-1.92,2.95-4.2,3.87-6.83c0.92-2.63,1.39-5.33,1.39-8.09c0-1.21-0.12-2.43-0.35-3.64C99.12,79.89,98.83,78.88,98.46,78.08z"/>
	<polygon points="9.75,7.14 3.4,4.89 9.75,2.63 9.75,0.13 0,3.59 0,6.18 9.75,9.64 	"/>
	<rect x="0" y="10.97" width="9.75" height="2.5"/>
	<polygon points="27.82,3.59 18.07,0.13 18.07,2.63 24.42,4.89 18.07,7.14 18.07,9.64 27.82,6.18 	"/>
	<rect x="18.07" y="10.97" width="9.75" height="2.5"/>
	<polygon points="34.54,12.34 37.15,12.34 38.33,10.09 43.89,10.09 43.89,7.59 39.64,7.59 40.98,5.01 43.89,5.01 43.89,2.51 
		42.29,2.51 43.48,0.26 40.87,0.26 39.69,2.51 34.13,2.51 34.13,5.01 38.37,5.01 37.04,7.59 34.13,7.59 34.13,10.09 35.73,10.09 	
		"/>
	<path d="M51.5,48.45V34.73l15.91-15.99c0.45,0.18,0.95,0.29,1.47,0.29c2.15,0,3.89-1.74,3.89-3.89c0-0.53-0.11-1.03-0.3-1.49
		l6.46-6.49c0.58-0.59,0.58-1.54-0.01-2.12c-0.59-0.58-1.54-0.58-2.12,0.01l-6.46,6.49c-0.45-0.18-0.95-0.29-1.47-0.29
		c-2.15,0-3.89,1.74-3.89,3.89c0,0.53,0.11,1.03,0.3,1.49L51.5,30.48V0h-3v33.5L35.74,46.33c-0.46-0.19-0.97-0.3-1.5-0.3
		c-1.63,0-3.02,1-3.6,2.42H0v3h30.64L19.84,62.31c-0.58,0.59-0.58,1.54,0.01,2.12c0.29,0.29,0.67,0.44,1.06,0.44
		c0.38,0,0.77-0.15,1.06-0.44l10.84-10.9c0.44,0.18,0.92,0.28,1.43,0.28c1.6,0,2.98-0.97,3.58-2.36H48.5v48.5h3v-48.5h48.45v-3H51.5
		z M37.86,48.45l10.64-10.7v10.7H37.86z"/>
</g>
</svg>
