<svg id="Layer_1" data-name="Layer 1" xmlns="http://www.w3.org/2000/svg" viewBox="0 0 100 100"><defs><style>.cls-1{fill:#231f20;}</style></defs><title> </title><path class="cls-1" d="M72.23,76.9a3.08,3.08,0,0,0,2.2-5.24L64,61.25l.31-.45a19.92,19.92,0,0,0-1.65-24.6l0,0A19.87,19.87,0,0,0,28,49.52a18.57,18.57,0,0,0,.12,2.12A19.57,19.57,0,0,0,30,58.05v0a19.87,19.87,0,0,0,29.23,7.85l.45-.31L70.06,76A3,3,0,0,0,72.23,76.9ZM47.93,63.26a13.66,13.66,0,0,1-10.67-5.19l0,0a13.63,13.63,0,0,1-2.84-6.41,13.48,13.48,0,0,1-.21-2.12,13.7,13.7,0,0,1,26.15-5.79.05.05,0,0,1,0,0,13.51,13.51,0,0,1,1.31,5.75A13.76,13.76,0,0,1,47.93,63.26Z"/><path class="cls-1" d="M3.52,5.8a6.16,6.16,0,0,1,3-.82h1a58.06,58.06,0,0,1-.36,6.08c-.25,2.26-.6,4.5-1.07,6.75a54.79,54.79,0,0,1-1.7,6.32A22.28,22.28,0,0,1,2.12,29l.29.45s.22.1.67.17a12.88,12.88,0,0,0,1.57.14c.59,0,1.21,0,1.84,0A3.24,3.24,0,0,0,8,29.45a25.8,25.8,0,0,0,.92-2.94c.28-1.1.52-2.26.73-3.47s.35-2.45.45-3.72.14-2.5.14-3.7V5H20.88V30h1.4c1.2-.19,2.51-.47,3.92-.84A24.92,24.92,0,0,0,30,27.83V26.65l-3.7-.44V5h.67a4.7,4.7,0,0,0,3.64-1.34A5.55,5.55,0,0,0,32,.5L31.24,0a4.84,4.84,0,0,1-1.12.78,5.37,5.37,0,0,1-1.37.45,10.81,10.81,0,0,1-2,.2l-3,0c-1.53,0-3.14,0-4.82-.05l-4.73-.11-3.86-.11c-1.1,0-1.86-.06-2.27-.06a9.81,9.81,0,0,0-3.67.48A5.82,5.82,0,0,0,2.1,3.05,6.2,6.2,0,0,0,.78,5.21,18.36,18.36,0,0,0,.05,7.84l.73.44A9.1,9.1,0,0,1,3.52,5.8Z"/><path class="cls-1" d="M99.4,17.94,64.17.23a1,1,0,0,0-1,0,1,1,0,0,0-.48.85V18.84a1,1,0,0,0,1,1H99a1,1,0,0,0,1-.77A1,1,0,0,0,99.4,17.94Zm-34.68-.1V2.75l30,15.09Z"/><path class="cls-1" d="M74.41,84.57a1.53,1.53,0,0,1,1-.37,2.08,2.08,0,0,1,1.15.36l1-2.13a2.9,2.9,0,0,0-1-.41,5.46,5.46,0,0,0-1.27-.16,4,4,0,0,0-4.27,3.78l-.08.62H69.42l-.28,2.26h1.59l-1,7.49a1.74,1.74,0,0,1-.45,1.1,1.34,1.34,0,0,1-1,.37,1.85,1.85,0,0,1-1.17-.36l-1,2.13a2.7,2.7,0,0,0,1,.42,5.46,5.46,0,0,0,1.32.14,4.13,4.13,0,0,0,2.89-1A4.3,4.3,0,0,0,72.73,96l.94-7.52h2.51l.26-2.26h-2.6l.07-.59A1.77,1.77,0,0,1,74.41,84.57Z"/><path class="cls-1" d="M84.75,82h-3a17.11,17.11,0,0,0-3.16,5.58,19.68,19.68,0,0,0-1.13,6.62,15.72,15.72,0,0,0,.28,3,10.76,10.76,0,0,0,.73,2.47h2.7a16.89,16.89,0,0,1-.87-5.29A18.77,18.77,0,0,1,81.47,88,21.22,21.22,0,0,1,84.75,82Z"/><polygon class="cls-1" points="90.13 90.94 95.02 85.86 91.77 85.86 88.95 88.84 87.34 85.86 84.29 85.86 86.98 90.8 81.91 96.01 85.27 96.01 88.19 92.9 89.85 96.01 92.96 96.01 90.13 90.94"/><path class="cls-1" d="M98.68,82H96a16.94,16.94,0,0,1,.87,5.29,19,19,0,0,1-1.11,6.41,21.73,21.73,0,0,1-3.28,5.94H95.4a17.11,17.11,0,0,0,3.16-5.58,19.68,19.68,0,0,0,1.14-6.61,15.76,15.76,0,0,0-.29-3A10.76,10.76,0,0,0,98.68,82Z"/><polygon class="cls-1" points="19.48 81.71 13.9 81.71 9.96 87 6.13 81.71 0.24 81.71 6.97 90.69 0 99.81 5.72 99.81 9.83 94.26 13.8 99.81 19.75 99.81 12.75 90.56 19.48 81.71"/><path class="cls-1" d="M27.87,84.57a10.39,10.39,0,0,0,2.1-2.3,4,4,0,0,0,.55-2A3.65,3.65,0,0,0,29,77.17,7,7,0,0,0,24.67,76a8.66,8.66,0,0,0-3.74.74,5.75,5.75,0,0,0-2.39,2l2.7,1.61a3.14,3.14,0,0,1,1.29-1,4.24,4.24,0,0,1,1.84-.39,3.1,3.1,0,0,1,1.81.43,1.35,1.35,0,0,1,.61,1.15,2,2,0,0,1-.35,1.06,7,7,0,0,1-1.3,1.36l-5.82,5v2.25H31.06V87.39H24.63Z"/></svg>