<svg id="Layer_1" data-name="Layer 1" xmlns="http://www.w3.org/2000/svg" viewBox="0 0 100 100"><defs><style>.cls-1{fill:#231f20;}</style></defs><title> </title><polygon class="cls-1" points="99.97 58.95 89.77 48.26 74.45 63.68 59.15 48.26 48.95 58.95 64.02 74.13 48.95 89.31 59.15 100 74.45 84.58 89.77 100 99.97 89.31 84.9 74.13 99.97 58.95"/><path class="cls-1" d="M27.12,18.9a9.13,9.13,0,0,0,6.72-2.73,9.25,9.25,0,0,0,2.73-6.83,8.86,8.86,0,0,0-2.73-6.72A9.32,9.32,0,0,0,27.12,0a9.31,9.31,0,0,0-6.71,2.62,8.91,8.91,0,0,0-2.74,6.72,9.3,9.3,0,0,0,2.74,6.83A9.13,9.13,0,0,0,27.12,18.9Z"/><rect class="cls-1" x="0.03" y="26.18" width="54.19" height="13.9"/><path class="cls-1" d="M27.12,47.36A9.28,9.28,0,0,0,20.41,50a8.89,8.89,0,0,0-2.74,6.71,9.28,9.28,0,0,0,2.74,6.83,9.13,9.13,0,0,0,6.71,2.73,9.13,9.13,0,0,0,6.72-2.73,9.23,9.23,0,0,0,2.73-6.83A8.84,8.84,0,0,0,33.84,50,9.29,9.29,0,0,0,27.12,47.36Z"/></svg>