<svg id="Layer_1" data-name="Layer 1" xmlns="http://www.w3.org/2000/svg" viewBox="0 0 100 100"><defs><style>.cls-1{fill:#231f20;}</style></defs><title> </title><rect class="cls-1" x="41.58" y="19.84" width="16.76" height="4.29"/><rect class="cls-1" x="41.58" y="28.57" width="16.76" height="4.3"/><rect class="cls-1" x="41.58" y="63.32" width="16.76" height="4.29"/><rect class="cls-1" x="41.58" y="72.05" width="16.76" height="4.3"/><rect class="cls-1" x="6.25" y="6.88" width="9" height="1.75"/><polygon class="cls-1" points="18.31 2.59 22.49 2.59 17.97 12.81 21.14 12.81 25.82 2.1 25.82 0.21 15.72 0.21 15.72 4.64 18.31 4.64 18.31 2.59"/><path class="cls-1" d="M29.67,2.76a3.43,3.43,0,0,1,1.49-.31,2.37,2.37,0,0,1,1.5.4A1.38,1.38,0,0,1,33.18,4a2.35,2.35,0,0,1-.27,1.06,5.35,5.35,0,0,1-1,1.27L27,10.93v1.89H39.28l2.79-3,1.58,3h3L43.92,8l4.66-4.84H45.49L42.79,6,41.26,3.13H38.34l2.58,4.72-4.39,4.5V10.44H31.11L34,7.7a7.45,7.45,0,0,0,1.67-2,4.36,4.36,0,0,0,.43-1.93,3.36,3.36,0,0,0-.58-2A3.81,3.81,0,0,0,33.89.46,6,6,0,0,0,31.43,0a6.86,6.86,0,0,0-3,.62,5,5,0,0,0-2,1.72l2.12,1.37A2.84,2.84,0,0,1,29.67,2.76Z"/><polygon class="cls-1" points="57.06 10.67 59.38 10.67 59.38 7.61 62.52 7.61 62.52 5.42 59.38 5.42 59.38 2.36 57.06 2.36 57.06 5.42 53.95 5.42 53.95 7.61 57.06 7.61 57.06 10.67"/><path class="cls-1" d="M79.18,11.05a3.92,3.92,0,0,0,.63-2.21,3.73,3.73,0,0,0-.57-2.06A3.82,3.82,0,0,0,77.67,5.4a5,5,0,0,0-2.2-.49A4.17,4.17,0,0,0,72.36,6a4,4,0,0,1,1-2.72,3.44,3.44,0,0,1,2.54-.93A4.12,4.12,0,0,1,78.26,3L79.34.86A5.26,5.26,0,0,0,77.77.22,8.18,8.18,0,0,0,75.83,0a6.83,6.83,0,0,0-3.35.79,5.5,5.5,0,0,0-2.26,2.32,7.77,7.77,0,0,0-.81,3.67,6.61,6.61,0,0,0,1.49,4.63A5.36,5.36,0,0,0,75,13a5.61,5.61,0,0,0,2.42-.51A4.05,4.05,0,0,0,79.18,11.05Zm-2.78-.7a2.23,2.23,0,0,1-1.52.5,2.37,2.37,0,0,1-1.62-.52,1.83,1.83,0,0,1,0-2.71,2.32,2.32,0,0,1,1.56-.53,2.29,2.29,0,0,1,1.56.51A1.76,1.76,0,0,1,77,9,1.72,1.72,0,0,1,76.4,10.35Z"/><path class="cls-1" d="M83.48,12.26A5.15,5.15,0,0,0,91,10a8.18,8.18,0,0,0,.69-3.5A8.2,8.2,0,0,0,91,3,5.23,5.23,0,0,0,89.06.77a5.44,5.44,0,0,0-5.58,0A5.27,5.27,0,0,0,81.57,3a8.05,8.05,0,0,0-.7,3.51,8,8,0,0,0,.7,3.5A5.27,5.27,0,0,0,83.48,12.26Zm1-8.8a2.13,2.13,0,0,1,3.6,0,5.61,5.61,0,0,1,.66,3.06,5.65,5.65,0,0,1-.66,3.06,2.13,2.13,0,0,1-3.6,0,5.65,5.65,0,0,1-.66-3.06A5.61,5.61,0,0,1,84.48,3.46Z"/><path class="cls-1" d="M8.05,52.73a4.12,4.12,0,0,0,1.72-1.47,3.92,3.92,0,0,0,.63-2.21A3.65,3.65,0,0,0,9.82,47a3.73,3.73,0,0,0-1.56-1.38,4.84,4.84,0,0,0-2.2-.49A4.17,4.17,0,0,0,3,46.24a4,4,0,0,1,1-2.72,3.44,3.44,0,0,1,2.54-.93,4.12,4.12,0,0,1,2.35.63l1.08-2.15a5.53,5.53,0,0,0-1.57-.64,8.74,8.74,0,0,0-1.94-.22A6.83,6.83,0,0,0,3.07,41,5.5,5.5,0,0,0,.81,43.32,7.77,7.77,0,0,0,0,47a6.61,6.61,0,0,0,1.49,4.63,5.36,5.36,0,0,0,4.14,1.62A5.61,5.61,0,0,0,8.05,52.73Zm-4.2-2.19a1.74,1.74,0,0,1-.59-1.35,1.71,1.71,0,0,1,.61-1.36,2.32,2.32,0,0,1,1.56-.53A2.29,2.29,0,0,1,7,47.81a1.76,1.76,0,0,1,.59,1.38A1.72,1.72,0,0,1,7,50.56a2.28,2.28,0,0,1-1.52.5A2.37,2.37,0,0,1,3.85,50.54Z"/><path class="cls-1" d="M17,39.67H14.32a12.73,12.73,0,0,0-1.66,3.79,18.46,18.46,0,0,0,0,9.26,13,13,0,0,0,1.66,3.79H17a16.6,16.6,0,0,1-1.65-4,18.58,18.58,0,0,1,0-8.73A16.51,16.51,0,0,1,17,39.67Z"/><rect class="cls-1" x="17.18" y="47.08" width="9" height="1.75"/><polygon class="cls-1" points="26.31 42.77 28.83 42.77 28.83 53.02 31.74 53.02 31.74 40.43 26.31 40.43 26.31 42.77"/><path class="cls-1" d="M38.69,46.54l-4.86,4.59V53H46.1l2.79-3,1.59,3h3l-2.71-4.84,4.67-4.84h-3.1l-2.7,2.84-1.53-2.84H45.17l2.57,4.72-4.39,4.5V50.65H37.93l2.9-2.74a7.23,7.23,0,0,0,1.67-2,4.37,4.37,0,0,0,.44-1.93,3.37,3.37,0,0,0-.59-2,3.82,3.82,0,0,0-1.64-1.29,6,6,0,0,0-2.45-.46,6.83,6.83,0,0,0-3,.62,5,5,0,0,0-2,1.72l2.13,1.37a2.89,2.89,0,0,1,1.11-1,3.47,3.47,0,0,1,1.5-.31,2.37,2.37,0,0,1,1.5.4A1.4,1.4,0,0,1,40,44.22a2.35,2.35,0,0,1-.27,1.06A5.3,5.3,0,0,1,38.69,46.54Z"/><polygon class="cls-1" points="66.2 50.88 66.2 47.82 69.33 47.82 69.33 45.63 66.2 45.63 66.2 42.57 63.88 42.57 63.88 45.63 60.77 45.63 60.77 47.82 63.88 47.82 63.88 50.88 66.2 50.88"/><polygon class="cls-1" points="81.08 53.02 81.08 40.43 75.65 40.43 75.65 42.77 78.17 42.77 78.17 53.02 81.08 53.02"/><path class="cls-1" d="M88.68,40.21a5.13,5.13,0,0,0-2.79.77A5.23,5.23,0,0,0,84,43.22a9.22,9.22,0,0,0,0,7,5.11,5.11,0,0,0,1.92,2.24,5.38,5.38,0,0,0,5.58,0,5.16,5.16,0,0,0,1.91-2.24,9.1,9.1,0,0,0,0-7A5.27,5.27,0,0,0,91.47,41,5.18,5.18,0,0,0,88.68,40.21Zm1.81,9.57a2.07,2.07,0,0,1-1.81,1,2,2,0,0,1-1.79-1,5.61,5.61,0,0,1-.66-3.06,5.57,5.57,0,0,1,.66-3,2,2,0,0,1,1.79-1,2.07,2.07,0,0,1,1.81,1,5.67,5.67,0,0,1,.65,3A5.71,5.71,0,0,1,90.49,49.78Z"/><path class="cls-1" d="M99.34,43.44a12.28,12.28,0,0,0-1.68-3.77H95a16.55,16.55,0,0,1,1.66,4.06,18.24,18.24,0,0,1,0,8.73,16.64,16.64,0,0,1-1.66,4h2.68a12.54,12.54,0,0,0,1.69-3.78,18.09,18.09,0,0,0,.57-4.64A17.84,17.84,0,0,0,99.34,43.44Z"/><rect class="cls-1" x="4.81" y="90.57" width="9" height="1.75"/><polygon class="cls-1" points="13.94 86.25 16.46 86.25 16.46 96.51 19.37 96.51 19.37 83.91 13.94 83.91 13.94 86.25"/><path class="cls-1" d="M28.46,91.4a7.63,7.63,0,0,0,1.68-2.05,4.43,4.43,0,0,0,.43-1.93,3.35,3.35,0,0,0-.59-2,3.8,3.8,0,0,0-1.63-1.3,6.24,6.24,0,0,0-2.46-.46,6.83,6.83,0,0,0-3,.62,5,5,0,0,0-2,1.72L23,87.4a2.82,2.82,0,0,1,1.12-.94,3.43,3.43,0,0,1,1.49-.32,2.37,2.37,0,0,1,1.5.41,1.37,1.37,0,0,1,.52,1.16,2.31,2.31,0,0,1-.27,1.05A5.16,5.16,0,0,1,26.32,90l-4.86,4.59v1.89H31V94.13H25.57Z"/><path class="cls-1" d="M37.73,83.15H35.05a12.84,12.84,0,0,0-1.66,3.79,18.46,18.46,0,0,0,0,9.26,13,13,0,0,0,1.66,3.8h2.68a16.13,16.13,0,0,1-1.65-4.06,18.24,18.24,0,0,1,0-8.73A16.43,16.43,0,0,1,37.73,83.15Z"/><path class="cls-1" d="M48.44,90.47a3.87,3.87,0,0,0-1.56-1.38,5,5,0,0,0-2.2-.48,4.21,4.21,0,0,0-3.11,1.11,3.89,3.89,0,0,1,1-2.72,3.41,3.41,0,0,1,2.53-.93,4.13,4.13,0,0,1,2.36.63l1.08-2.14A5.11,5.11,0,0,0,47,83.92,8.24,8.24,0,0,0,45,83.69a6.9,6.9,0,0,0-3.36.8,5.56,5.56,0,0,0-2.26,2.32,7.86,7.86,0,0,0-.81,3.67,6.54,6.54,0,0,0,1.5,4.62,5.33,5.33,0,0,0,4.14,1.62,5.64,5.64,0,0,0,2.42-.51,4.05,4.05,0,0,0,1.72-1.47A3.9,3.9,0,0,0,49,92.53,3.65,3.65,0,0,0,48.44,90.47ZM45.61,94a2.24,2.24,0,0,1-1.52.51A2.39,2.39,0,0,1,42.47,94a1.82,1.82,0,0,1,0-2.71,2.62,2.62,0,0,1,3.13,0,1.73,1.73,0,0,1,.58,1.37A1.7,1.7,0,0,1,45.61,94Z"/><polygon class="cls-1" points="57.84 86.83 55.14 89.67 53.61 86.83 50.69 86.83 53.27 91.54 48.42 96.51 51.63 96.51 54.42 93.54 56 96.51 58.97 96.51 56.27 91.67 60.93 86.83 57.84 86.83"/><rect class="cls-1" x="65.18" y="90.57" width="9" height="1.75"/><path class="cls-1" d="M84.29,88.64h-1l.2-2.39h5.25V83.91H81L80.39,91h3.22a4.5,4.5,0,0,1,2.28.42,1.33,1.33,0,0,1,.65,1.22,1.39,1.39,0,0,1-.63,1.21,3.06,3.06,0,0,1-1.72.43,6.33,6.33,0,0,1-1.93-.3,5.76,5.76,0,0,1-1.66-.84l-1.15,2.23a6.5,6.5,0,0,0,2.19,1,9.67,9.67,0,0,0,2.62.35,6.83,6.83,0,0,0,2.91-.56,4,4,0,0,0,1.75-1.52,3.94,3.94,0,0,0,.58-2.09,3.55,3.55,0,0,0-1.27-2.85A6.12,6.12,0,0,0,84.29,88.64Z"/><path class="cls-1" d="M92.84,83.15H90.16a16.91,16.91,0,0,1,1.67,4.06,18.24,18.24,0,0,1,0,8.73A16.58,16.58,0,0,1,90.16,100h2.68a12.38,12.38,0,0,0,1.7-3.79,19,19,0,0,0,0-9.29A12.4,12.4,0,0,0,92.84,83.15Z"/></svg>