<?xml version="1.0" encoding="utf-8"?>
<!-- Generator: Adobe Illustrator 24.0.0, SVG Export Plug-In . SVG Version: 6.00 Build 0)  -->
<svg version="1.1" id="Layer_1" xmlns="http://www.w3.org/2000/svg" xmlns:xlink="http://www.w3.org/1999/xlink" x="0px" y="0px"
	 viewBox="0 0 100 100" style="enable-background:new 0 0 100 100;" xml:space="preserve">
<style type="text/css">
	.st0{fill:none;}
	.st1{fill:#FFFFFF;}
	.st2{fill:#FFFFFF;stroke:#FFFFFF;stroke-width:0.25;stroke-miterlimit:10;}
	.st3{fill:none;stroke:#000000;stroke-width:0.25;stroke-linecap:round;stroke-miterlimit:10;}
	.st4{fill:#D9D9D9;}
	.st5{fill:none;stroke:#000000;stroke-width:2;stroke-linejoin:round;stroke-miterlimit:10;}
	.st6{fill:none;stroke:#000000;stroke-width:0.4396;stroke-miterlimit:10;}
	.st7{fill:none;stroke:#000000;stroke-linecap:round;stroke-linejoin:round;}
	.st8{fill:none;stroke:#000000;stroke-linecap:round;stroke-linejoin:round;stroke-miterlimit:10;}
</style>
<polygon points="40.58,57.42 43.09,54.89 45.6,57.42 47.28,55.67 44.81,53.17 47.28,50.68 45.6,48.93 43.09,51.46 40.58,48.93 
	38.9,50.68 41.37,53.17 38.9,55.67 "/>
<path d="M2.84,99.18c0.89,0.56,1.9,0.84,3.04,0.84c1.14,0,2.15-0.28,3.04-0.84c0.89-0.56,1.58-1.37,2.09-2.44
	c0.5-1.06,0.75-2.33,0.75-3.81c0-1.48-0.25-2.75-0.75-3.81c-0.5-1.06-1.2-1.88-2.09-2.44c-0.89-0.56-1.9-0.84-3.04-0.84
	c-1.14,0-2.15,0.28-3.04,0.84c-0.89,0.56-1.58,1.37-2.09,2.44C0.25,90.18,0,91.46,0,92.93c0,1.48,0.25,2.75,0.75,3.81
	C1.26,97.81,1.95,98.62,2.84,99.18z M3.93,89.6c0.48-0.72,1.13-1.08,1.95-1.08c0.84,0,1.49,0.36,1.97,1.08
	c0.48,0.72,0.71,1.83,0.71,3.33c0,1.5-0.24,2.61-0.71,3.33c-0.48,0.72-1.13,1.08-1.97,1.08c-0.82,0-1.47-0.36-1.95-1.08
	c-0.48-0.72-0.72-1.83-0.72-3.33C3.21,91.43,3.45,90.32,3.93,89.6z"/>
<path d="M13.45,96.65c-0.37,0.34-0.55,0.8-0.55,1.36c0,0.55,0.18,1,0.55,1.37c0.36,0.37,0.81,0.55,1.35,0.55
	c0.53,0,0.98-0.18,1.35-0.55c0.36-0.36,0.55-0.82,0.55-1.37c0-0.56-0.18-1.01-0.55-1.36c-0.37-0.34-0.81-0.52-1.35-0.52
	C14.27,96.13,13.82,96.31,13.45,96.65z"/>
<polygon points="28.52,99.79 28.52,96.91 30.75,96.91 30.75,94.32 28.52,94.32 28.52,91.76 25.52,91.76 25.52,94.32 21.83,94.32 
	27.83,86.07 24.5,86.07 18.03,94.77 18.03,96.91 25.42,96.91 25.42,99.79 "/>
<polygon points="30.61,90.89 33.44,90.89 33.44,88.66 37.98,88.66 33.06,99.79 36.51,99.79 41.61,88.13 41.61,86.07 30.61,86.07 "/>
<polygon points="51.86,88.76 49.39,91.25 46.92,88.76 45.28,90.48 47.71,92.93 45.28,95.38 46.92,97.11 49.39,94.62 51.86,97.11 
	53.51,95.38 51.08,92.93 53.51,90.48 "/>
<path d="M66.19,86.68c-0.89-0.56-1.9-0.84-3.04-0.84c-1.14,0-2.15,0.28-3.04,0.84c-0.89,0.56-1.58,1.37-2.09,2.44
	c-0.5,1.07-0.75,2.34-0.75,3.81c0,1.48,0.25,2.75,0.75,3.81c0.5,1.07,1.2,1.88,2.09,2.44c0.89,0.56,1.9,0.84,3.04,0.84
	c1.14,0,2.15-0.28,3.04-0.84c0.89-0.56,1.58-1.37,2.09-2.44c0.5-1.06,0.75-2.33,0.75-3.81c0-1.48-0.25-2.75-0.75-3.81
	C67.78,88.06,67.08,87.24,66.19,86.68z M65.12,96.26c-0.48,0.72-1.13,1.08-1.97,1.08c-0.82,0-1.47-0.36-1.95-1.08
	c-0.48-0.72-0.72-1.83-0.72-3.33c0-1.5,0.24-2.61,0.72-3.33c0.48-0.72,1.13-1.08,1.95-1.08c0.84,0,1.49,0.36,1.97,1.08
	c0.48,0.72,0.71,1.83,0.71,3.33C65.84,94.44,65.6,95.55,65.12,96.26z"/>
<path d="M71.86,96.13c-0.53,0-0.98,0.17-1.35,0.52c-0.37,0.34-0.55,0.8-0.55,1.36c0,0.55,0.18,1,0.55,1.37
	c0.36,0.37,0.81,0.55,1.35,0.55c0.53,0,0.98-0.18,1.35-0.55c0.36-0.36,0.55-0.82,0.55-1.37c0-0.56-0.18-1.01-0.55-1.36
	C72.84,96.31,72.39,96.13,71.86,96.13z"/>
<path d="M78.05,99.18c0.89,0.56,1.9,0.84,3.04,0.84c1.14,0,2.15-0.28,3.04-0.84c0.89-0.56,1.58-1.37,2.09-2.44
	c0.5-1.06,0.75-2.33,0.75-3.81c0-1.48-0.25-2.75-0.75-3.81c-0.5-1.06-1.2-1.88-2.09-2.44c-0.89-0.56-1.9-0.84-3.04-0.84
	c-1.14,0-2.15,0.28-3.04,0.84c-0.89,0.56-1.58,1.37-2.09,2.44c-0.5,1.07-0.75,2.34-0.75,3.81c0,1.48,0.25,2.75,0.75,3.81
	C76.47,97.81,77.16,98.62,78.05,99.18z M79.14,89.6c0.48-0.72,1.13-1.08,1.95-1.08c0.84,0,1.49,0.36,1.97,1.08
	c0.48,0.72,0.71,1.83,0.71,3.33c0,1.5-0.24,2.61-0.71,3.33c-0.48,0.72-1.13,1.08-1.97,1.08c-0.82,0-1.47-0.36-1.95-1.08
	c-0.48-0.72-0.72-1.83-0.72-3.33C78.42,91.43,78.66,90.32,79.14,89.6z"/>
<path d="M97.9,92.58c0.52-0.31,0.92-0.71,1.2-1.19c0.27-0.48,0.41-1.02,0.41-1.64c0-0.8-0.22-1.49-0.67-2.08
	c-0.44-0.59-1.07-1.04-1.87-1.36c-0.8-0.32-1.73-0.48-2.77-0.48c-1.03,0-1.95,0.16-2.74,0.48c-0.8,0.32-1.42,0.78-1.86,1.36
	c-0.44,0.59-0.67,1.28-0.67,2.08c0,0.61,0.14,1.16,0.41,1.64c0.27,0.48,0.67,0.87,1.18,1.19c-0.67,0.34-1.18,0.78-1.54,1.33
	c-0.36,0.55-0.54,1.18-0.54,1.9c0,0.85,0.24,1.59,0.72,2.22c0.48,0.63,1.15,1.12,2.02,1.47c0.87,0.35,1.88,0.52,3.03,0.52
	c1.15,0,2.16-0.17,3.04-0.52c0.88-0.35,1.55-0.84,2.04-1.47c0.48-0.63,0.73-1.37,0.73-2.22c0-0.72-0.18-1.35-0.54-1.9
	C99.1,93.36,98.58,92.92,97.9,92.58z M92.66,88.63c0.39-0.31,0.9-0.46,1.54-0.46c0.65,0,1.18,0.15,1.57,0.46
	c0.39,0.31,0.59,0.73,0.59,1.26c0,0.52-0.19,0.93-0.59,1.23c-0.39,0.3-0.92,0.45-1.57,0.45c-0.65,0-1.17-0.15-1.55-0.45
	c-0.38-0.3-0.57-0.71-0.57-1.23C92.08,89.36,92.27,88.94,92.66,88.63z M96.09,97.16c-0.46,0.36-1.1,0.54-1.89,0.54
	c-0.78,0-1.4-0.18-1.86-0.53c-0.46-0.35-0.69-0.84-0.69-1.45c0-0.6,0.23-1.08,0.69-1.43c0.46-0.35,1.08-0.53,1.86-0.53
	c0.8,0,1.43,0.18,1.89,0.53c0.46,0.35,0.7,0.83,0.7,1.43C96.79,96.32,96.55,96.8,96.09,97.16z"/>
<g>
	<rect x="90.33" y="54.31" width="9.67" height="2.48"/>
	<rect x="90.33" y="49.27" width="9.67" height="2.48"/>
</g>
<polygon points="5.71,44.01 5.71,46.18 13.23,46.18 13.23,49.11 16.39,49.11 16.39,46.18 18.66,46.18 18.66,43.55 16.39,43.55 
	16.39,40.93 13.33,40.93 13.33,43.55 9.58,43.55 15.69,35.15 12.3,35.15 "/>
<polygon points="24.52,49.11 29.71,37.24 29.71,35.15 18.52,35.15 18.52,40.06 21.39,40.06 21.39,37.78 26.02,37.78 21.01,49.11 "/>
<path d="M66.16,35.16c-0.81,0.33-1.44,0.79-1.89,1.39c-0.45,0.6-0.68,1.31-0.68,2.12c0,0.62,0.14,1.18,0.42,1.67
	c0.28,0.49,0.68,0.89,1.2,1.21c-0.68,0.35-1.2,0.8-1.57,1.36c-0.37,0.56-0.55,1.2-0.55,1.93c0,0.86,0.24,1.62,0.73,2.26
	c0.49,0.65,1.17,1.15,2.06,1.5c0.88,0.35,1.91,0.53,3.08,0.53c1.17,0,2.2-0.18,3.09-0.53c0.89-0.35,1.58-0.85,2.07-1.5
	c0.49-0.64,0.74-1.4,0.74-2.26c0-0.73-0.18-1.38-0.55-1.93c-0.36-0.56-0.89-1.01-1.58-1.36c0.53-0.32,0.94-0.72,1.22-1.21
	c0.28-0.49,0.42-1.04,0.42-1.67c0-0.81-0.23-1.52-0.68-2.12c-0.45-0.6-1.09-1.06-1.91-1.39c-0.82-0.32-1.76-0.49-2.82-0.49
	C67.9,34.67,66.97,34.83,66.16,35.16z M70.88,46.19c-0.47,0.37-1.12,0.55-1.93,0.55c-0.8,0-1.43-0.18-1.9-0.54
	c-0.47-0.36-0.7-0.85-0.7-1.48c0-0.61,0.23-1.1,0.7-1.45c0.46-0.36,1.1-0.54,1.9-0.54c0.81,0,1.45,0.18,1.93,0.54
	c0.47,0.36,0.71,0.84,0.71,1.45C71.59,45.34,71.35,45.82,70.88,46.19z M71.15,38.8c0,0.53-0.2,0.95-0.6,1.26
	c-0.4,0.31-0.93,0.46-1.59,0.46c-0.67,0-1.19-0.15-1.58-0.46c-0.38-0.31-0.58-0.72-0.58-1.26c0-0.54,0.2-0.97,0.59-1.29
	c0.39-0.31,0.92-0.47,1.57-0.47c0.66,0,1.2,0.16,1.59,0.47C70.95,37.82,71.15,38.26,71.15,38.8z"/>
<polygon points="6.44,72.15 6.44,58.18 0.41,58.18 0.41,60.78 3.21,60.78 3.21,72.15 "/>
<path d="M17.95,58.8c-0.91-0.57-1.94-0.86-3.09-0.86c-1.16,0-2.19,0.29-3.09,0.86c-0.9,0.57-1.61,1.4-2.12,2.48
	c-0.51,1.08-0.77,2.38-0.77,3.88c0,1.5,0.26,2.8,0.77,3.88c0.51,1.08,1.22,1.91,2.12,2.48c0.9,0.57,1.94,0.86,3.09,0.86
	c1.16,0,2.19-0.29,3.09-0.86c0.9-0.57,1.61-1.4,2.12-2.48c0.51-1.08,0.77-2.38,0.77-3.88c0-1.5-0.26-2.8-0.77-3.88
	C19.56,60.2,18.85,59.37,17.95,58.8z M16.86,68.56c-0.49,0.73-1.15,1.1-2,1.1c-0.84,0-1.5-0.37-1.99-1.1
	c-0.49-0.73-0.73-1.86-0.73-3.39c0-1.53,0.24-2.66,0.73-3.39c0.49-0.73,1.15-1.1,1.99-1.1c0.85,0,1.52,0.37,2,1.1
	c0.49,0.73,0.73,1.86,0.73,3.39C17.59,66.7,17.35,67.83,16.86,68.56z"/>
<path d="M33.62,69.05c0.51-1.08,0.77-2.38,0.77-3.88c0-1.5-0.26-2.8-0.77-3.88c-0.51-1.08-1.22-1.91-2.13-2.48
	c-0.9-0.57-1.94-0.86-3.09-0.86c-1.16,0-2.19,0.29-3.09,0.86c-0.9,0.57-1.61,1.4-2.13,2.48c-0.51,1.08-0.77,2.38-0.77,3.88
	c0,1.5,0.26,2.8,0.77,3.88c0.51,1.08,1.22,1.91,2.13,2.48c0.9,0.57,1.94,0.86,3.09,0.86c1.16,0,2.19-0.29,3.09-0.86
	C32.4,70.96,33.11,70.13,33.62,69.05z M30.41,68.56c-0.49,0.73-1.15,1.1-2.01,1.1c-0.84,0-1.5-0.37-1.99-1.1
	c-0.49-0.73-0.73-1.86-0.73-3.39c0-1.53,0.24-2.66,0.73-3.39c0.49-0.73,1.15-1.1,1.99-1.1c0.85,0,1.52,0.37,2.01,1.1
	c0.49,0.73,0.73,1.86,0.73,3.39C31.14,66.7,30.89,67.83,30.41,68.56z"/>
<polygon points="51.98,60.78 54.78,60.78 54.78,72.15 58.01,72.15 58.01,58.18 51.98,58.18 "/>
<path d="M66.43,72.39c1.16,0,2.19-0.29,3.09-0.86c0.9-0.57,1.61-1.4,2.12-2.48c0.51-1.08,0.77-2.38,0.77-3.88
	c0-1.5-0.26-2.8-0.77-3.88c-0.51-1.08-1.22-1.91-2.12-2.48c-0.91-0.57-1.94-0.86-3.09-0.86c-1.16,0-2.19,0.29-3.09,0.86
	c-0.9,0.57-1.61,1.4-2.13,2.48c-0.51,1.08-0.77,2.38-0.77,3.88c0,1.5,0.26,2.8,0.77,3.88c0.51,1.08,1.22,1.91,2.13,2.48
	C64.24,72.1,65.27,72.39,66.43,72.39z M64.44,61.77c0.49-0.73,1.15-1.1,1.98-1.1c0.85,0,1.52,0.37,2.01,1.1
	c0.49,0.73,0.73,1.86,0.73,3.39c0,1.53-0.24,2.66-0.73,3.39c-0.49,0.73-1.15,1.1-2.01,1.1c-0.84,0-1.5-0.37-1.98-1.1
	c-0.49-0.73-0.73-1.86-0.73-3.39C63.71,63.64,63.96,62.51,64.44,61.77z"/>
<path d="M83.07,58.8c-0.9-0.57-1.94-0.86-3.09-0.86c-1.16,0-2.19,0.29-3.09,0.86c-0.9,0.57-1.61,1.4-2.13,2.48
	c-0.51,1.08-0.77,2.38-0.77,3.88c0,1.5,0.26,2.8,0.77,3.88c0.51,1.08,1.22,1.91,2.13,2.48c0.9,0.57,1.94,0.86,3.09,0.86
	c1.16,0,2.19-0.29,3.09-0.86c0.9-0.57,1.61-1.4,2.13-2.48c0.51-1.08,0.77-2.38,0.77-3.88c0-1.5-0.26-2.8-0.77-3.88
	C84.68,60.2,83.97,59.37,83.07,58.8z M81.98,68.56c-0.49,0.73-1.15,1.1-2.01,1.1c-0.84,0-1.5-0.37-1.99-1.1
	c-0.49-0.73-0.73-1.86-0.73-3.39c0-1.53,0.24-2.66,0.73-3.39c0.49-0.73,1.15-1.1,1.99-1.1c0.85,0,1.52,0.37,2.01,1.1
	c0.49,0.73,0.73,1.86,0.73,3.39C82.71,66.7,82.46,67.83,81.98,68.56z"/>
<rect x="0.03" y="52.46" width="34.36" height="1.44"/>
<rect x="51.79" y="52.46" width="34.36" height="1.44"/>
<path d="M0,0v3.41v0.03v21.89v3.44h100v-3.44V3.44V3.41V0H0z M80.95,15.99v-3.88h15.14v3.88H80.95z M91.16,20.63
	c0,0.76-0.25,1.4-0.76,1.91c-0.51,0.51-1.13,0.76-1.88,0.76c-0.74,0-1.37-0.26-1.88-0.76c-0.51-0.51-0.76-1.15-0.76-1.91
	c0-0.76,0.26-1.39,0.76-1.88c0.51-0.49,1.14-0.73,1.88-0.73c0.74,0,1.37,0.24,1.88,0.73C90.9,19.24,91.16,19.87,91.16,20.63z
	 M85.88,7.4c0-0.76,0.26-1.39,0.76-1.88c0.51-0.49,1.14-0.73,1.88-0.73c0.74,0,1.37,0.24,1.88,0.73c0.51,0.49,0.76,1.11,0.76,1.88
	s-0.25,1.4-0.76,1.91c-0.51,0.51-1.13,0.76-1.88,0.76c-0.74,0-1.37-0.25-1.88-0.76C86.13,8.8,85.88,8.17,85.88,7.4z M71.38,18.96
	l-3.3,3.46l-4.95-4.99l-4.95,4.99l-3.3-3.46l4.87-4.91l-4.87-4.91l3.3-3.46l4.95,4.99l4.95-4.99l3.3,3.46l-4.87,4.91L71.38,18.96z
	 M46.27,11.87v4.37H29.23v-4.37H46.27z M3.91,16.22v-4.33h6.14V5.85h4.58v6.04h6.18v4.33h-6.18v6.04h-4.58v-6.04H3.91z"/>
</svg>
