<?xml version="1.0" encoding="utf-8"?>
<!-- Generator: Adobe Illustrator 24.0.0, SVG Export Plug-In . SVG Version: 6.00 Build 0)  -->
<svg version="1.1" id="Layer_1" xmlns="http://www.w3.org/2000/svg" xmlns:xlink="http://www.w3.org/1999/xlink" x="0px" y="0px"
	 viewBox="0 0 100 100" style="enable-background:new 0 0 100 100;" xml:space="preserve">
<style type="text/css">
	.st0{fill:none;}
	.st1{fill:#FFFFFF;}
	.st2{fill:#FFFFFF;stroke:#FFFFFF;stroke-width:0.25;stroke-miterlimit:10;}
	.st3{fill:none;stroke:#000000;stroke-width:0.25;stroke-linecap:round;stroke-miterlimit:10;}
	.st4{fill:#D9D9D9;}
	.st5{fill:none;stroke:#000000;stroke-width:2;stroke-linejoin:round;stroke-miterlimit:10;}
	.st6{fill:none;stroke:#000000;stroke-width:0.4396;stroke-miterlimit:10;}
	.st7{fill:none;stroke:#000000;stroke-linecap:round;stroke-linejoin:round;}
	.st8{fill:none;stroke:#000000;stroke-linecap:round;stroke-linejoin:round;stroke-miterlimit:10;}
</style>
<g>
	<rect x="66.22" y="81.82" width="11.03" height="2.83"/>
	<rect x="66.22" y="76.07" width="11.03" height="2.83"/>
	<path d="M45.71,62.78l2.6,1.68c0.37-0.51,0.82-0.9,1.37-1.16s1.15-0.39,1.83-0.39c0.81,0,1.42,0.17,1.84,0.5
		c0.42,0.33,0.63,0.81,0.63,1.42c0,0.43-0.11,0.86-0.33,1.29c-0.22,0.43-0.65,0.95-1.28,1.56l-5.96,5.62v2.32h11.67v-2.91h-6.64
		l3.55-3.35c1.01-0.94,1.7-1.78,2.05-2.51c0.35-0.73,0.53-1.52,0.53-2.36c0-0.93-0.24-1.73-0.72-2.42s-1.15-1.21-2.01-1.59
		c-0.86-0.38-1.86-0.56-3.01-0.56c-1.37,0-2.58,0.25-3.64,0.76C47.14,61.18,46.31,61.88,45.71,62.78z"/>
	<path d="M53.75,90.58l3.49-3.97v-2.32H46.43v2.87H53l-3.18,3.6v2.36h1.63c1.93,0,2.89,0.63,2.89,1.9c0,0.63-0.26,1.12-0.77,1.47
		C53.06,96.83,52.35,97,51.45,97c-0.81,0-1.6-0.12-2.37-0.36c-0.77-0.24-1.45-0.58-2.04-1.03l-1.39,2.74
		c0.73,0.53,1.63,0.94,2.68,1.22c1.05,0.29,2.12,0.43,3.21,0.43c1.4,0,2.58-0.23,3.54-0.68c0.96-0.46,1.68-1.06,2.15-1.82
		s0.71-1.58,0.71-2.48c0-1.16-0.36-2.14-1.08-2.92C56.14,91.31,55.1,90.8,53.75,90.58z"/>
	<path d="M92.67,72.37c-0.52,0.34-1.22,0.52-2.12,0.52c-0.81,0-1.6-0.12-2.37-0.36c-0.77-0.24-1.45-0.58-2.04-1.03l-1.39,2.74
		c0.73,0.53,1.63,0.94,2.68,1.22c1.05,0.29,2.12,0.43,3.21,0.43c1.4,0,2.58-0.23,3.54-0.68c0.96-0.46,1.68-1.06,2.15-1.82
		c0.47-0.76,0.71-1.58,0.71-2.48c0-1.16-0.36-2.14-1.08-2.92c-0.72-0.79-1.76-1.29-3.11-1.51l3.49-3.97v-2.32H85.52v2.87h6.57
		l-3.18,3.6V69h1.63c1.93,0,2.89,0.63,2.89,1.9C93.44,71.53,93.18,72.02,92.67,72.37z"/>
	<polygon points="96.17,90.69 92.8,90.69 92.8,93.58 88.65,93.58 95.4,84.29 91.65,84.29 84.37,94.09 84.37,96.49 92.69,96.49 
		92.69,99.74 96.17,99.74 96.17,96.49 98.69,96.49 98.69,93.58 96.17,93.58 	"/>
	<rect x="43.48" y="79.7" width="17.43" height="1.25"/>
	<rect x="82.57" y="79.7" width="17.43" height="1.25"/>
	<polygon points="0.03,19.38 6.5,19.38 6.5,14.25 16.93,14.25 5.65,39.78 13.56,39.78 25.24,13.04 25.24,8.32 0.03,8.32 	"/>
	<path d="M8.62,76.56c0.44-0.23,0.94-0.35,1.5-0.35c0.59,0,1.06,0.13,1.41,0.39c0.35,0.26,0.53,0.61,0.53,1.05
		c0,0.31-0.09,0.59-0.28,0.84c-0.19,0.25-0.48,0.55-0.87,0.91c-0.54,0.49-0.95,0.94-1.23,1.35c-0.28,0.41-0.42,0.92-0.42,1.55h2.71
		c0-0.38,0.1-0.71,0.31-0.98c0.2-0.27,0.53-0.6,0.97-1c0.37-0.34,0.68-0.63,0.91-0.89c0.23-0.26,0.43-0.57,0.59-0.94
		c0.16-0.37,0.24-0.8,0.24-1.29c0-1.04-0.42-1.86-1.25-2.44c-0.83-0.59-1.94-0.88-3.32-0.88c-1.18,0-2.19,0.21-3.05,0.63
		c-0.86,0.42-1.54,1.01-2.04,1.78l2.18,1.28C7.82,77.12,8.19,76.79,8.62,76.56z"/>
	<path d="M10.63,83.56c-0.5,0-0.92,0.15-1.24,0.46C9.06,84.32,8.9,84.7,8.9,85.16c0,0.46,0.16,0.84,0.49,1.16
		c0.33,0.32,0.74,0.48,1.23,0.48c0.49,0,0.9-0.16,1.23-0.48c0.33-0.32,0.49-0.7,0.49-1.16c0-0.46-0.16-0.84-0.49-1.14
		C11.55,83.71,11.13,83.56,10.63,83.56z"/>
	<path d="M18.56,70.15H1.78C0.8,70.15,0,70.96,0,71.94v16.77c0,0.98,0.8,1.78,1.78,1.78h16.77c0.98,0,1.78-0.8,1.78-1.78V71.94
		C20.34,70.96,19.54,70.15,18.56,70.15z M18.01,88.16H2.33V72.48h15.68V88.16z"/>
	<rect x="25.87" y="78.9" width="11.11" height="2.85"/>
	<path d="M30.05,74.07c-0.37,0.36-0.56,0.82-0.56,1.38s0.19,1.03,0.56,1.4c0.37,0.37,0.83,0.56,1.38,0.56c0.55,0,1-0.19,1.38-0.56
		c0.37-0.37,0.56-0.84,0.56-1.4s-0.19-1.02-0.56-1.38c-0.37-0.36-0.83-0.54-1.38-0.54C30.88,73.53,30.42,73.71,30.05,74.07z"/>
	<path d="M31.42,83.24c-0.54,0-1,0.18-1.38,0.54c-0.37,0.36-0.56,0.82-0.56,1.38c0,0.56,0.19,1.03,0.56,1.4
		c0.37,0.37,0.83,0.56,1.38,0.56c0.55,0,1-0.19,1.38-0.56c0.37-0.37,0.56-0.84,0.56-1.4c0-0.56-0.19-1.02-0.56-1.38
		C32.43,83.42,31.97,83.24,31.42,83.24z"/>
	<path d="M91.85,14.37c-0.61,0.41-1.44,0.61-2.49,0.61c-0.95,0-1.88-0.14-2.79-0.43c-0.91-0.28-1.71-0.69-2.4-1.21l-1.64,3.22
		c0.87,0.62,1.92,1.1,3.15,1.44c1.23,0.34,2.49,0.5,3.77,0.5c1.64,0,3.03-0.27,4.16-0.8c1.13-0.54,1.98-1.25,2.53-2.14
		c0.55-0.89,0.83-1.86,0.83-2.92c0-1.37-0.42-2.51-1.27-3.44c-0.85-0.92-2.07-1.52-3.66-1.78l4.1-4.67V0.04H83.44v3.37h7.73
		l-3.74,4.23v2.77h1.92c2.27,0,3.4,0.74,3.4,2.23C92.75,13.39,92.45,13.96,91.85,14.37z"/>
	<polygon points="89.9,28.39 81.34,39.91 81.34,42.73 91.12,42.73 91.12,46.55 95.22,46.55 95.22,42.73 98.17,42.73 98.17,39.31 
		95.22,39.31 95.22,35.91 91.25,35.91 91.25,39.31 86.37,39.31 94.31,28.39 	"/>
	<polygon points="35.84,18.2 40.04,18.2 40.04,0.04 32.21,0.04 32.21,3.41 35.84,3.41 	"/>
	<path d="M45.56,43.12h-7.81l4.18-3.94c1.19-1.11,2-2.09,2.41-2.95c0.42-0.87,0.62-1.79,0.62-2.78c0-1.09-0.28-2.04-0.84-2.84
		c-0.56-0.8-1.35-1.43-2.36-1.87c-1.01-0.44-2.19-0.66-3.54-0.66c-1.61,0-3.03,0.3-4.28,0.89c-1.25,0.6-2.22,1.42-2.93,2.48
		l3.06,1.97c0.43-0.61,0.97-1.06,1.61-1.36c0.64-0.3,1.36-0.45,2.15-0.45c0.95,0,1.67,0.2,2.17,0.58c0.49,0.39,0.74,0.95,0.74,1.67
		c0,0.5-0.13,1.01-0.39,1.52c-0.26,0.51-0.76,1.12-1.5,1.83l-7,6.61v2.72h13.72V43.12z"/>
	<rect x="79.51" y="23.31" width="20.49" height="1.47"/>
	<rect x="28.05" y="23.31" width="20.49" height="1.47"/>
	<path d="M67.25,29.73c0-0.66-0.22-1.2-0.66-1.62c-0.44-0.42-0.98-0.63-1.62-0.63c-0.64,0-1.18,0.21-1.62,0.63
		c-0.44,0.42-0.66,0.96-0.66,1.62c0,0.66,0.22,1.21,0.66,1.65c0.44,0.44,0.98,0.66,1.62,0.66c0.64,0,1.18-0.22,1.62-0.66
		C67.03,30.94,67.25,30.39,67.25,29.73z"/>
	<path d="M64.97,20.62c0.64,0,1.18-0.22,1.62-0.66c0.44-0.44,0.66-0.99,0.66-1.65c0-0.66-0.22-1.2-0.66-1.62
		c-0.44-0.42-0.98-0.63-1.62-0.63c-0.64,0-1.18,0.21-1.62,0.63c-0.44,0.42-0.66,0.96-0.66,1.62c0,0.66,0.22,1.21,0.66,1.65
		C63.79,20.4,64.33,20.62,64.97,20.62z"/>
	<rect x="58.44" y="22.38" width="13.06" height="3.35"/>
</g>
</svg>
