<svg id="Layer_1" data-name="Layer 1" xmlns="http://www.w3.org/2000/svg" viewBox="0 0 100 100"><defs><style>.cls-1{fill:#231f20;}</style></defs><title> </title><path class="cls-1" d="M28.6,90.74a1,1,0,0,0-.67.23.92.92,0,0,0-.34.62h2a1,1,0,0,0-.33-.62A1,1,0,0,0,28.6,90.74Z"/><path class="cls-1" d="M15.06,90.82a1.11,1.11,0,0,0-.77.27,1,1,0,0,0-.3.72.92.92,0,0,0,.3.72,1.2,1.2,0,0,0,1.54,0,1,1,0,0,0,.29-.72,1,1,0,0,0-.29-.72A1.11,1.11,0,0,0,15.06,90.82Z"/><polygon class="cls-1" points="35.11 91.91 36.78 91.91 35.95 89.89 35.11 91.91"/><path class="cls-1" d="M99.22,97.29,2.57,30.82a1.73,1.73,0,0,0-1.69-.14A1.51,1.51,0,0,0,0,32V98.5A1.56,1.56,0,0,0,1.61,100H98.27a1.62,1.62,0,0,0,1.53-1A1.46,1.46,0,0,0,99.22,97.29Zm-89-7.62H7.4v1.4H9.84v1H7.4V94H6.18V88.69h4ZM12,94H10.84V89.91H12ZM12,89.16a.72.72,0,0,1-.53.19.71.71,0,0,1-.52-.19.61.61,0,0,1-.21-.47.59.59,0,0,1,.21-.46.71.71,0,0,1,.52-.19.76.76,0,0,1,.53.18.56.56,0,0,1,.2.45A.63.63,0,0,1,12,89.16Zm5.33,4.13a2.14,2.14,0,0,1-.58,1.65,2.34,2.34,0,0,1-1.69.55,4.15,4.15,0,0,1-1.12-.15,2.34,2.34,0,0,1-.87-.41l.47-.84a1.8,1.8,0,0,0,.65.33,2.66,2.66,0,0,0,.78.13,1.27,1.27,0,0,0,.9-.28,1.1,1.1,0,0,0,.29-.83v-.17a1.66,1.66,0,0,1-1.28.5,2.19,2.19,0,0,1-1-.24,1.87,1.87,0,0,1-1-1.72,1.92,1.92,0,0,1,.27-1,1.82,1.82,0,0,1,.74-.69,2.2,2.2,0,0,1,1-.25,1.45,1.45,0,0,1,1.34.58v-.52h1.11Zm5.18.68H21.34v-.49a1.59,1.59,0,0,1-.55.41,1.83,1.83,0,0,1-.71.14,1.74,1.74,0,0,1-1.26-.46,1.85,1.85,0,0,1-.47-1.37V89.91h1.18V92c0,.65.27,1,.82,1a.87.87,0,0,0,.68-.28,1.14,1.14,0,0,0,.25-.81v-2h1.18Zm3.6-3-.26,0a1.07,1.07,0,0,0-.79.29,1.12,1.12,0,0,0-.29.84V94H23.55V89.91h1.12v.54a1.28,1.28,0,0,1,.57-.45,2.1,2.1,0,0,1,.82-.15Zm4.61,1.33H27.61a.94.94,0,0,0,.39.6,1.34,1.34,0,0,0,.77.21,1.6,1.6,0,0,0,.56-.09,1.4,1.4,0,0,0,.46-.3l.62.68a2.09,2.09,0,0,1-1.67.66,2.6,2.6,0,0,1-1.21-.27,2,2,0,0,1-.82-.74,2.07,2.07,0,0,1-.28-1.08,2,2,0,0,1,1.05-1.82,2.37,2.37,0,0,1,2.18,0,1.79,1.79,0,0,1,.76.73A2.23,2.23,0,0,1,30.7,92S30.69,92.07,30.67,92.27Zm7,1.7-.46-1.13H34.72L34.25,94H33l2.35-5.28h1.21L38.91,94Z"/><path class="cls-1" d="M47.91,39.19a1.11,1.11,0,0,0,.77-.27,1,1,0,0,0,0-1.44,1.23,1.23,0,0,0-1.54,0,1,1,0,0,0,0,1.44A1.11,1.11,0,0,0,47.91,39.19Z"/><path class="cls-1" d="M69.65,37.08a.51.51,0,0,0,.24-.46.53.53,0,0,0-.24-.47A1.25,1.25,0,0,0,69,36H67.76v1.24H69A1.16,1.16,0,0,0,69.65,37.08Z"/><path class="cls-1" d="M62.11,37.36a1,1,0,0,0-.67-.23,1,1,0,0,0-.67.23,1,1,0,0,0-.33.61h2A1,1,0,0,0,62.11,37.36Z"/><path class="cls-1" d="M70.15,38.79c0-.44-.32-.66-1-.66H67.76v1.3h1.42a1.45,1.45,0,0,0,.73-.15A.55.55,0,0,0,70.15,38.79Z"/><path class="cls-1" d="M34.11,46.5H98.8a1.06,1.06,0,0,0,1-.69,1,1,0,0,0-.38-1.12L34.75.2A1.14,1.14,0,0,0,33.62.11,1,1,0,0,0,33,1V45.5A1,1,0,0,0,34.11,46.5Zm10.75-6.15H43.69V36.3h1.17Zm21.68-5.27h2.58a2.51,2.51,0,0,1,1.48.37,1.18,1.18,0,0,1,.51,1,1.31,1.31,0,0,1-.18.69,1.19,1.19,0,0,1-.52.47,1.41,1.41,0,0,1,.71.48,1.32,1.32,0,0,1,.26.82A1.22,1.22,0,0,1,70.84,40a2.74,2.74,0,0,1-1.57.37H66.54Zm-7,2.17a2.1,2.1,0,0,1,.77-.74,2.37,2.37,0,0,1,2.18,0,1.79,1.79,0,0,1,.76.73,2.23,2.23,0,0,1,.28,1.11s0,.12,0,.32H60.46a.9.9,0,0,0,.39.59,1.27,1.27,0,0,0,.77.22,1.6,1.6,0,0,0,.56-.09,1.27,1.27,0,0,0,.45-.3l.63.68a2.12,2.12,0,0,1-1.67.65,2.73,2.73,0,0,1-1.21-.26,1.93,1.93,0,0,1-.82-.75,2,2,0,0,1-.28-1.07A2.07,2.07,0,0,1,59.56,37.25Zm-3.16-1h1.12v.54a1.28,1.28,0,0,1,.57-.45,2.1,2.1,0,0,1,.82-.15v1.09l-.26,0a1.06,1.06,0,0,0-.79.28,1.15,1.15,0,0,0-.29.85v1.91H56.4Zm-5.2,0h1.18v2.12c0,.65.27,1,.82,1a.87.87,0,0,0,.68-.28,1.15,1.15,0,0,0,.25-.82v-2h1.18v4.05H54.19v-.48a1.41,1.41,0,0,1-.56.4,1.59,1.59,0,0,1-.7.14A1.7,1.7,0,0,1,51.67,40a1.82,1.82,0,0,1-.47-1.36Zm-5.28.87a1.87,1.87,0,0,1,.74-.68,2.08,2.08,0,0,1,1-.25,1.58,1.58,0,0,1,1.34.58V36.3h1.11v3.38a2.14,2.14,0,0,1-.58,1.65,2.38,2.38,0,0,1-1.69.54,4.14,4.14,0,0,1-1.12-.14,2.34,2.34,0,0,1-.87-.41l.47-.85a1.85,1.85,0,0,0,.64.34,2.76,2.76,0,0,0,.79.12,1.29,1.29,0,0,0,.9-.27,1.1,1.1,0,0,0,.29-.83v-.18a1.65,1.65,0,0,1-1.28.51,2.08,2.08,0,0,1-1-.25,1.82,1.82,0,0,1-.74-.69,1.89,1.89,0,0,1-.27-1A2,2,0,0,1,45.92,37.17Zm-2.17-2.56a.75.75,0,0,1,.52-.18.76.76,0,0,1,.53.18.56.56,0,0,1,.2.45.61.61,0,0,1-.2.48.72.72,0,0,1-.53.2.75.75,0,0,1-.52-.19.61.61,0,0,1-.21-.47A.62.62,0,0,1,43.75,34.61ZM39,35.08h4v1H40.25v1.39h2.44v1H40.25v1.92H39Z"/><polygon class="cls-1" points="67.84 58.22 65.28 60.93 63.82 58.22 61.05 58.22 63.5 62.7 58.9 67.42 61.94 67.42 64.59 64.6 66.09 67.42 68.92 67.42 66.35 62.82 70.78 58.22 67.84 58.22"/><path class="cls-1" d="M73.57,18.66a2.92,2.92,0,0,1-1.65.41,6,6,0,0,1-1.83-.28,5.41,5.41,0,0,1-1.57-.8l-1.09,2.12a6.38,6.38,0,0,0,2.07.95,9.57,9.57,0,0,0,2.49.33,6.44,6.44,0,0,0,2.76-.53,3.79,3.79,0,0,0,1.67-1.44,3.7,3.7,0,0,0,.55-2,3.32,3.32,0,0,0-1.21-2.7,5.69,5.69,0,0,0-3.73-1h-1l.19-2.28h5V9.22h-7.3L68.32,16h3.06a4.35,4.35,0,0,1,2.16.39,1.27,1.27,0,0,1,.62,1.16A1.33,1.33,0,0,1,73.57,18.66Z"/></svg>