<?xml version="1.0" encoding="utf-8"?>
<!-- Generator: Adobe Illustrator 24.0.0, SVG Export Plug-In . SVG Version: 6.00 Build 0)  -->
<svg version="1.1" id="Layer_1" xmlns="http://www.w3.org/2000/svg" xmlns:xlink="http://www.w3.org/1999/xlink" x="0px" y="0px"
	 viewBox="0 0 100 100" style="enable-background:new 0 0 100 100;" xml:space="preserve">
<style type="text/css">
	.st0{fill:none;}
	.st1{fill:#FFFFFF;}
	.st2{fill:#FFFFFF;stroke:#FFFFFF;stroke-width:0.25;stroke-miterlimit:10;}
	.st3{fill:none;stroke:#000000;stroke-width:0.25;stroke-linecap:round;stroke-miterlimit:10;}
	.st4{fill:#D9D9D9;}
	.st5{fill:none;stroke:#000000;stroke-width:2;stroke-linejoin:round;stroke-miterlimit:10;}
	.st6{fill:none;stroke:#000000;stroke-width:0.4396;stroke-miterlimit:10;}
	.st7{fill:none;stroke:#000000;stroke-linecap:round;stroke-linejoin:round;}
	.st8{fill:none;stroke:#000000;stroke-linecap:round;stroke-linejoin:round;stroke-miterlimit:10;}
</style>
<g>
	<polygon points="99.97,58.95 89.77,48.26 74.46,63.68 59.15,48.26 48.95,58.95 64.02,74.13 48.95,89.31 59.15,100 74.46,84.58 
		89.77,100 99.97,89.31 84.9,74.13 	"/>
	<path d="M27.12,18.9c2.66,0,4.9-0.91,6.72-2.73c1.83-1.83,2.73-4.1,2.73-6.83s-0.91-4.98-2.73-6.72C32.02,0.87,29.78,0,27.12,0
		c-2.65,0-4.89,0.87-6.72,2.62c-1.82,1.74-2.73,3.98-2.73,6.72s0.92,5,2.73,6.83C22.23,17.99,24.47,18.9,27.12,18.9z"/>
	<rect x="0.03" y="26.18" width="54.19" height="13.9"/>
	<path d="M27.12,47.36c-2.65,0-4.89,0.87-6.72,2.62c-1.82,1.74-2.73,3.98-2.73,6.72c0,2.72,0.92,5,2.73,6.83
		c1.83,1.82,4.07,2.73,6.72,2.73c2.66,0,4.9-0.92,6.72-2.73c1.83-1.83,2.73-4.1,2.73-6.83c0-2.73-0.91-4.98-2.73-6.72
		C32.02,48.23,29.78,47.36,27.12,47.36z"/>
</g>
</svg>
