<?xml version="1.0" encoding="utf-8"?>
<!-- Generator: Adobe Illustrator 24.0.0, SVG Export Plug-In . SVG Version: 6.00 Build 0)  -->
<svg version="1.1" id="Layer_1" xmlns="http://www.w3.org/2000/svg" xmlns:xlink="http://www.w3.org/1999/xlink" x="0px" y="0px"
	 viewBox="0 0 100 100" style="enable-background:new 0 0 100 100;" xml:space="preserve">
<style type="text/css">
	.st0{fill:none;}
	.st1{fill:#FFFFFF;}
	.st2{fill:#FFFFFF;stroke:#FFFFFF;stroke-width:0.25;stroke-miterlimit:10;}
	.st3{fill:none;stroke:#000000;stroke-width:0.25;stroke-linecap:round;stroke-miterlimit:10;}
	.st4{fill:#D9D9D9;}
	.st5{fill:none;stroke:#000000;stroke-width:2;stroke-linejoin:round;stroke-miterlimit:10;}
	.st6{fill:none;stroke:#000000;stroke-width:0.4396;stroke-miterlimit:10;}
	.st7{fill:none;stroke:#000000;stroke-linecap:round;stroke-linejoin:round;}
	.st8{fill:none;stroke:#000000;stroke-linecap:round;stroke-linejoin:round;stroke-miterlimit:10;}
</style>
<g>
	<path d="M7.3,89.38c0.92,0,1.67-0.75,1.67-1.67c0-16.4,4.96-29.42,14.74-38.69c12.65-11.99,32.82-17.53,59.93-16.53l-0.51,6.39
		c-0.07,0.85,0.81,1.46,1.59,1.09l14.56-6.92c0.77-0.37,0.86-1.44,0.15-1.92l-13.27-9.15c-0.71-0.49-1.67-0.03-1.74,0.83l-0.51,6.35
		C55.78,28.1,34.75,33.95,21.41,46.6C10.94,56.53,5.63,70.36,5.63,87.71C5.63,88.64,6.37,89.38,7.3,89.38z"/>
	<path d="M42.9,60.56c0.51-0.47,1.18-0.7,1.99-0.7c0.77,0,1.49,0.23,2.19,0.68l1.94-4.06c-0.48-0.34-1.11-0.6-1.9-0.79
		c-0.79-0.19-1.59-0.29-2.4-0.29c-2.32,0-4.2,0.65-5.62,1.94c-1.42,1.29-2.27,3.04-2.53,5.24l-0.14,1.18h-3.02l-0.54,4.31h3.02
		l-1.79,14.25c-0.1,0.93-0.38,1.63-0.86,2.1c-0.48,0.47-1.09,0.7-1.83,0.7c-0.89,0-1.63-0.23-2.23-0.68l-1.9,4.06
		c0.5,0.36,1.14,0.63,1.9,0.81c0.77,0.18,1.6,0.27,2.52,0.27c2.25,0,4.08-0.65,5.49-1.94c1.41-1.29,2.25-3.04,2.51-5.24l1.79-14.32
		h4.78l0.5-4.31h-4.96l0.14-1.11C42.07,61.73,42.39,61.03,42.9,60.56z"/>
	<path d="M62.58,55.7h-5.6c-2.59,2.99-4.6,6.53-6.03,10.63c-1.44,4.09-2.16,8.29-2.16,12.6c0,1.89,0.18,3.78,0.54,5.67
		c0.36,1.89,0.82,3.46,1.4,4.7h5.13c-1.1-3.37-1.65-6.74-1.65-10.09c0-4.16,0.7-8.23,2.12-12.21C57.74,63.04,59.83,59.26,62.58,55.7
		z"/>
	<polygon points="63.57,82.34 69.14,76.41 72.3,82.34 78.22,82.34 72.84,72.68 82.14,63.02 75.96,63.02 70.57,68.7 67.52,63.02 
		61.71,63.02 66.84,72.43 57.18,82.34 	"/>
	<path d="M88.89,78.68c1.44-4.09,2.16-8.29,2.16-12.6c0-1.89-0.18-3.78-0.54-5.67c-0.36-1.89-0.82-3.46-1.4-4.7h-5.13
		c1.1,3.37,1.65,6.74,1.65,10.09c0,4.17-0.71,8.24-2.12,12.21c-1.41,3.97-3.49,7.74-6.25,11.31h5.6
		C85.44,86.31,87.45,82.77,88.89,78.68z"/>
	<path d="M98.45,97H3V1.52c0-0.83-0.67-1.5-1.5-1.5S0,0.69,0,1.52v96.95c0,0.01,0,0.01,0,0.02c0,0,0,0.01,0,0.01
		c0,0.83,0.67,1.5,1.5,1.5h96.95c0.83,0,1.5-0.67,1.5-1.5S99.28,97,98.45,97z"/>
</g>
</svg>
