<?xml version="1.0" encoding="utf-8"?>
<!-- Generator: Adobe Illustrator 24.0.0, SVG Export Plug-In . SVG Version: 6.00 Build 0)  -->
<svg version="1.1" id="Layer_1" xmlns="http://www.w3.org/2000/svg" xmlns:xlink="http://www.w3.org/1999/xlink" x="0px" y="0px"
	 viewBox="0 0 100 100" style="enable-background:new 0 0 100 100;" xml:space="preserve">
<style type="text/css">
	.st0{fill:none;}
	.st1{fill:#FFFFFF;}
	.st2{fill:#FFFFFF;stroke:#FFFFFF;stroke-width:0.25;stroke-miterlimit:10;}
	.st3{fill:none;stroke:#000000;stroke-width:0.25;stroke-linecap:round;stroke-miterlimit:10;}
	.st4{fill:#D9D9D9;}
	.st5{fill:none;stroke:#000000;stroke-width:2;stroke-linejoin:round;stroke-miterlimit:10;}
	.st6{fill:none;stroke:#000000;stroke-width:0.4396;stroke-miterlimit:10;}
	.st7{fill:none;stroke:#000000;stroke-linecap:round;stroke-linejoin:round;}
	.st8{fill:none;stroke:#000000;stroke-linecap:round;stroke-linejoin:round;stroke-miterlimit:10;}
</style>
<g>
	<path d="M11.35,36.38c3.19,3.65,8.14,5.69,13.05,5.38c3.42-0.24,6.34-1.44,8.92-3.69c3.72-3.24,5.73-8.12,5.39-13.06
		c-0.23-3.42-1.43-6.34-3.68-8.91c-2.97-3.41-7.46-5.44-12.02-5.44c-0.35,0-0.7,0.01-1.05,0.04c-3.42,0.24-6.34,1.44-8.92,3.69
		c-3.71,3.24-5.73,8.12-5.39,13.06C7.89,30.88,9.1,33.8,11.35,36.38z"/>
	<path d="M61.42,69.56c-0.47,0-0.94,0.07-1.41,0.21l-13.15,5.27c-0.41-4.64-0.94-10.52-1.34-15.08c-0.02-0.21-0.04-0.45-0.06-0.65
		c-0.21-2.32-0.38-4.22-0.48-5.36c0-0.03,0-0.04-0.01-0.06c-0.06-0.67-0.1-1.08-0.1-1.08c-0.05-0.43-0.15-0.84-0.29-1.25
		c-0.11-0.32-0.27-0.63-0.43-0.93c-0.03-0.06-0.05-0.12-0.09-0.18c-0.53-0.92-1.3-1.72-2.39-2.27c-1.08-0.54-2.27-0.81-3.55-0.81
		c-0.42,0-0.86,0.03-1.3,0.09c-0.83,0.11-1.59,0.33-2.3,0.62h-8.92h-5.6h-8.43c-0.88-0.35-1.83-0.6-2.89-0.65
		c-0.17-0.01-0.33-0.01-0.5-0.01c-1.61,0-3.05,0.38-4.32,1.14c-1.9,1.13-2.84,3-2.96,4.87L0.09,96.05
		c7.58,6.19,42.51,3.83,42.4,0.98l0.07-0.06c0.39-0.02-0.8-8.13,1.55-10.11l18.71-7.71c2.59-0.77,4.06-3.5,3.29-6.09
		C65.47,70.94,63.52,69.56,61.42,69.56z"/>
	<path d="M97.92,2.05c-1.31-1.31-2.87-1.97-4.7-1.97H26.6c-1.83,0-3.4,0.66-4.7,1.97c-1.31,1.31-1.96,2.89-1.96,4.73v0.93
		c0.6-0.1,1.19-0.22,1.8-0.27c1.18-0.08,2.36-0.01,3.53,0.13V6.78c0-0.36,0.13-0.68,0.4-0.94c0.26-0.27,0.58-0.4,0.94-0.4h66.62
		c0.36,0,0.67,0.13,0.94,0.4c0.26,0.27,0.4,0.58,0.4,0.94v40.19c0,0.36-0.13,0.68-0.4,0.94c-0.26,0.27-0.58,0.4-0.94,0.4H46.61
		c0.7,1.14,1.19,2.42,1.35,3.84l-0.01,0c0.03,0.28,0.08,0.75,0.15,1.51h9.14v5.36h-8.66c0.13,1.46,0.29,3.24,0.47,5.36h28.17
		c0.39,0,0.71-0.13,0.96-0.38c0.25-0.25,0.37-0.57,0.37-0.96v-2.68c0-0.39-0.12-0.71-0.37-0.96c-0.25-0.25-0.57-0.38-0.96-0.38
		H62.57v-5.36h30.64c1.83,0,3.4-0.66,4.7-1.97c1.3-1.31,1.96-2.89,1.96-4.73V6.78C99.87,4.94,99.22,3.36,97.92,2.05z"/>
	<polygon points="45.65,15.21 45.65,40.32 79.05,40.32 79.05,38 47.97,38 47.97,15.21 	"/>
	<polygon points="61.4,21.43 51.22,31.62 53.35,33.74 61.4,25.68 66.24,30.51 72.77,23.81 75.98,26.93 78.92,15.34 67.4,18.59 
		70.62,21.71 66.21,26.24 	"/>
</g>
</svg>
