<?xml version="1.0" encoding="utf-8"?>
<!-- Generator: Adobe Illustrator 24.0.0, SVG Export Plug-In . SVG Version: 6.00 Build 0)  -->
<svg version="1.1" id="Layer_1" xmlns="http://www.w3.org/2000/svg" xmlns:xlink="http://www.w3.org/1999/xlink" x="0px" y="0px"
	 viewBox="0 0 100 100" style="enable-background:new 0 0 100 100;" xml:space="preserve">
<style type="text/css">
	.st0{fill:none;}
	.st1{fill:#FFFFFF;}
	.st2{fill:#FFFFFF;stroke:#FFFFFF;stroke-width:0.25;stroke-miterlimit:10;}
	.st3{fill:none;stroke:#000000;stroke-width:0.25;stroke-linecap:round;stroke-miterlimit:10;}
	.st4{fill:#D9D9D9;}
	.st5{fill:none;stroke:#000000;stroke-width:2;stroke-linejoin:round;stroke-miterlimit:10;}
	.st6{fill:none;stroke:#000000;stroke-width:0.4396;stroke-miterlimit:10;}
	.st7{fill:none;stroke:#000000;stroke-linecap:round;stroke-linejoin:round;}
	.st8{fill:none;stroke:#000000;stroke-linecap:round;stroke-linejoin:round;stroke-miterlimit:10;}
</style>
<g>
	<path d="M6.73,67.54l-0.01,0.33c-0.01,0.82,0.63,1.5,1.45,1.53c1,0.03,1.96,0.05,2.87,0.05c8.66,0,13.87-1.37,17.97-4.71
		c4.68-3.82,7.71-10.35,11.48-19.15c2.01-4.71,3.8-8.06,5.46-10.26c1.46-1.92,2.77-2.9,3.92-2.9c1.66,0,4.55,2.13,8.92,12.3
		c0.52,1.21,1.01,2.37,1.48,3.49c0.14,0.34,0.28,0.65,0.41,0.98h-2.28v1h2.71c2.77,6.5,5.03,11.32,8.96,14.57
		c4.46,3.69,10.79,5.06,21.16,4.59c0.82-0.04,1.46-0.72,1.43-1.54l-0.01-0.33c-0.01-0.4-0.18-0.78-0.48-1.06
		c-0.29-0.27-0.69-0.41-1.09-0.4c-9.49,0.43-15.17-0.72-18.95-3.85c-3.1-2.56-5.12-6.58-7.45-11.98h2.73v-1h-3v0.37
		c-0.37-0.86-0.74-1.75-1.14-2.68c-0.47-1.12-0.97-2.29-1.49-3.5c-2.01-4.68-3.85-8.06-5.61-10.34c-2.06-2.66-4.12-3.95-6.3-3.95
		c-2.24,0-4.36,1.37-6.5,4.19c-1.83,2.42-3.75,6-5.87,10.96c-0.75,1.75-1.46,3.4-2.17,4.95h-0.92v1h0.47
		c-2.48,5.37-4.85,9.44-7.9,11.93c-3.83,3.12-9.07,4.23-18.7,3.94c-0.4-0.02-0.79,0.14-1.08,0.41C6.9,66.76,6.73,67.14,6.73,67.54z"
		/>
	<rect x="70.41" y="49.2" width="3" height="1"/>
	<rect x="28.41" y="49.2" width="3" height="1"/>
	<rect x="94.41" y="49.2" width="3" height="1"/>
	<rect x="88.41" y="49.2" width="3" height="1"/>
	<rect x="82.41" y="49.2" width="3" height="1"/>
	<rect x="76.41" y="49.2" width="3" height="1"/>
	<rect x="22.41" y="49.2" width="3" height="1"/>
	<rect x="40.41" y="49.2" width="3" height="1"/>
	<rect x="4.41" y="49.2" width="3" height="1"/>
	<rect x="16.41" y="49.2" width="3" height="1"/>
	<rect x="46.41" y="49.2" width="3" height="1"/>
	<rect x="52.41" y="49.2" width="3" height="1"/>
	<rect x="10.41" y="49.2" width="3" height="1"/>
	<path d="M98.45,97H3V1.52c0-0.83-0.67-1.5-1.5-1.5S0,0.69,0,1.52v96.95c0,0.01,0,0.01,0,0.02c0,0,0,0.01,0,0.01
		c0,0.83,0.67,1.5,1.5,1.5h96.95c0.83,0,1.5-0.67,1.5-1.5C99.95,97.67,99.28,97,98.45,97z"/>
</g>
</svg>
