<?xml version="1.0" encoding="utf-8"?>
<!-- Generator: Adobe Illustrator 24.0.0, SVG Export Plug-In . SVG Version: 6.00 Build 0)  -->
<svg version="1.1" id="Layer_1" xmlns="http://www.w3.org/2000/svg" xmlns:xlink="http://www.w3.org/1999/xlink" x="0px" y="0px"
	 viewBox="0 0 100 100" style="enable-background:new 0 0 100 100;" xml:space="preserve">
<style type="text/css">
	.st0{fill:none;}
	.st1{fill:#FFFFFF;}
	.st2{fill:#FFFFFF;stroke:#FFFFFF;stroke-width:0.25;stroke-miterlimit:10;}
	.st3{fill:none;stroke:#000000;stroke-width:0.25;stroke-linecap:round;stroke-miterlimit:10;}
	.st4{fill:#D9D9D9;}
	.st5{fill:none;stroke:#000000;stroke-width:2;stroke-linejoin:round;stroke-miterlimit:10;}
	.st6{fill:none;stroke:#000000;stroke-width:0.4396;stroke-miterlimit:10;}
	.st7{fill:none;stroke:#000000;stroke-linecap:round;stroke-linejoin:round;}
	.st8{fill:none;stroke:#000000;stroke-linecap:round;stroke-linejoin:round;stroke-miterlimit:10;}
</style>
<g>
	<path d="M45.36,57.27c0.05,0.8-0.02,1.58-0.18,2.35h12.37c0.19-0.34,0.4-0.68,0.64-0.99c1.75-2.25,4.02-3.4,6.74-3.4
		c0.41,0,0.83,0.03,1.26,0.08c1.35,0.17,2.63,0.69,3.7,1.53c1.03,0.8,1.82,1.74,2.39,2.78h9.4c-0.33-0.8-0.53-1.66-0.59-2.57
		c-0.06-0.82,0.02-1.64,0.2-2.43H44.73C45.08,55.45,45.3,56.33,45.36,57.27z"/>
	<path d="M30.21,58.43c0.1,1.5,0.65,2.81,1.63,3.94c1.32,1.51,3.27,2.38,5.26,2.38c0.15,0,0.31-0.01,0.46-0.02
		c1.5-0.1,2.81-0.64,3.93-1.62c1.63-1.42,2.52-3.58,2.37-5.73c-0.1-1.49-0.64-2.8-1.62-3.93c-1.32-1.51-3.27-2.39-5.27-2.39
		c-0.15,0-0.31,0.01-0.46,0.02c-1.5,0.1-2.81,0.64-3.93,1.63C30.95,54.12,30.06,56.28,30.21,58.43z"/>
	<path d="M44.4,66.52c-0.43-0.22-0.9-0.32-1.41-0.32c-0.17,0-0.34,0.01-0.52,0.04c-0.33,0.04-0.63,0.13-0.91,0.25h-9.13
		c-0.35-0.14-0.73-0.24-1.15-0.26c-0.07,0-0.13,0-0.2,0c-0.64,0-1.21,0.15-1.72,0.45c-0.76,0.45-1.13,1.19-1.18,1.94l-0.33,15.05
		l1.38,0.09v8.31l15.65,0.14v-8.5L47,83.46c0,0,0,0.01,0,0.01c0.01,0-1.33-15.09-1.33-15.1C45.58,67.62,45.17,66.91,44.4,66.52z"/>
	<path d="M82.58,56.95c0.1,1.49,0.64,2.8,1.63,3.93c1.31,1.5,3.26,2.37,5.25,2.37c0.15,0,0.31-0.01,0.46-0.02
		c1.49-0.1,2.8-0.64,3.92-1.62c1.62-1.41,2.51-3.57,2.36-5.72c-0.1-1.49-0.64-2.8-1.62-3.92c-1.31-1.51-3.27-2.38-5.26-2.38
		c-0.15,0-0.31,0.01-0.46,0.02c-1.49,0.1-2.8,0.64-3.92,1.62C83.32,52.65,82.44,54.8,82.58,56.95z"/>
	<path d="M96.74,65.02c-0.43-0.22-0.9-0.32-1.41-0.32c-0.17,0-0.34,0.01-0.52,0.04c-0.33,0.04-0.63,0.13-0.91,0.25h-9.11
		c-0.35-0.14-0.72-0.24-1.15-0.26c-0.07,0-0.13,0-0.2,0c-0.64,0-1.21,0.15-1.72,0.45c-0.76,0.45-1.13,1.19-1.18,1.93l-0.33,15.01
		l1.37,0.09v12.99l15.61,0.14V82.16l2.13-0.24c0,0,0,0.01,0,0.01c0.01,0-1.33-15.05-1.33-15.06C97.92,66.12,97.51,65.41,96.74,65.02
		z"/>
	<path d="M68.97,58.03c-0.85-0.66-1.89-1.09-2.96-1.22c-0.37-0.05-0.73-0.07-1.08-0.07c-2.25,0-4.1,0.94-5.56,2.82
		c-0.66,0.85-1.09,1.89-1.22,2.96c-0.34,2.74,0.58,4.95,2.75,6.64c0.85,0.66,1.88,1.08,2.95,1.22c0.37,0.04,0.72,0.07,1.07,0.07
		c2.25,0,4.1-0.94,5.56-2.81c0.66-0.85,1.09-1.89,1.22-2.96C72.05,61.93,71.13,59.72,68.97,58.03z"/>
	<path d="M76.04,81.37c-1.1-3.8-2.25-7.78-2.25-7.79c-0.23-0.71-0.76-1.33-1.6-1.56c-0.26-0.07-0.53-0.11-0.81-0.11
		c-0.37,0-0.75,0.07-1.14,0.2c-0.05,0.02-0.08,0.04-0.13,0.06H59.45c-0.09,0-0.18-0.04-0.24-0.1l-6.65-6.65
		c-0.63-0.63-1.47-1.07-2.35-1.07c-0.07,0-0.13,0-0.2,0.01c-0.71,0.05-1.31,0.34-1.82,0.85c-0.51,0.51-0.79,1.12-0.85,1.82
		c-0.07,0.95,0.39,1.87,1.06,2.55l8.61,8.61c0.06,0.06,0.1,0.15,0.1,0.24v21.24l15.65,0.14V89.48c0.27,0.6,0.75,1.1,1.48,1.3
		c0.26,0.07,0.53,0.11,0.81,0.11c0.37,0,0.75-0.07,1.14-0.2c0.68-0.23,1.23-0.6,1.63-1.11c0.54-0.69,0.62-1.52,0.4-2.24L76.04,81.37
		z"/>
	<path d="M12.54,25.29c1.01,0.79,2.24,1.29,3.52,1.45c3.26,0.4,5.89-0.69,7.9-3.27c0.79-1.02,1.3-2.25,1.45-3.52
		c0.4-3.26-0.69-5.89-3.27-7.9c-1.02-0.79-2.25-1.3-3.53-1.46c-3.26-0.4-5.9,0.69-7.9,3.27c-0.79,1.02-1.29,2.25-1.45,3.52
		C8.86,20.64,9.95,23.28,12.54,25.29z"/>
	<path d="M94,0.11H36.36c-3.3,0-6,2.7-6,6v21.65l5-0.31V6.11c0-0.54,0.46-1,1-1H94c0.54,0,1,0.46,1,1v44.16
		c0.25,0.23,0.5,0.46,0.72,0.72c1.19,1.37,1.86,2.99,1.98,4.8c0.06,0.93-0.04,1.86-0.27,2.74c1.55-1.09,2.57-2.88,2.57-4.91V6.11
		C100,2.81,97.3,0.11,94,0.11z"/>
	<path d="M35.36,49.73V35.5l-5,0.43v16.98c0.36-0.48,0.76-0.94,1.22-1.34C32.69,50.61,33.96,50,35.36,49.73z"/>
	<path d="M37.99,34.43c0.89,0,1.69,0,2.37,0c1.31,0,2.14,0,2.18,0.03c0.42-0.01,1.23-0.15,1.74-0.97c0.33-0.54,0.48-1.15,0.46-1.89
		c-0.03-0.74-0.22-1.35-0.6-1.87v0c-0.41-0.57-1.05-0.92-1.73-0.92c-0.04,0-0.08,0-0.12,0L29.64,29.6c-3.05,0.05-5.43,0.09-5.54,0.1
		c-0.23,0.01-0.48,0.07-0.76,0.19l-0.3,0.06L9.38,29.91C9,29.8,8.65,29.74,8.3,29.74c-0.26,0-0.52,0.03-0.77,0.1
		c-0.04,0.02-0.09,0.05-0.14,0.07l-0.03,0.01l-0.04,0.02c-0.62,0.24-1.08,0.7-1.29,1.3L2.73,41.84c-1.37,3.55-2.55,6.6-2.59,6.72
		c-0.14,0.4-0.3,1.2,0.29,1.98c0.38,0.51,0.91,0.86,1.6,1.1c0.41,0.14,0.8,0.21,1.18,0.21c0.27,0,0.53-0.03,0.79-0.1
		c0.71-0.19,1.26-0.7,1.51-1.4l2.26-7.29v16.32l0.99,0.01v20.1h0.93v0.13c0,1.46,1.19,2.65,2.65,2.65h0.38
		c1.46,0,2.65-1.19,2.65-2.65v-0.13h0.55V59.45l1.15,0.01v20.03h0.65v0.13c0,1.46,1.19,2.65,2.65,2.65h0.38
		c1.46,0,2.65-1.19,2.65-2.65v-0.13h0.83V59.52l1.17,0.01V35.26l9.85-0.84C36.19,34.43,37.13,34.43,37.99,34.43z"/>
	<path d="M53.18,32.99c-0.45,0.85-0.67,1.87-0.67,3.06c0,1.67,0.41,2.95,1.24,3.85c0.83,0.9,1.98,1.35,3.45,1.35
		c0.74,0,1.41-0.14,2.02-0.43c0.6-0.28,1.08-0.69,1.43-1.22c0.35-0.53,0.52-1.14,0.52-1.84c0-0.65-0.16-1.22-0.48-1.72
		c-0.32-0.49-0.75-0.88-1.3-1.15c-0.55-0.27-1.16-0.4-1.83-0.4c-1.11,0-1.97,0.31-2.59,0.93c0.04-0.99,0.32-1.74,0.84-2.26
		c0.52-0.52,1.22-0.78,2.11-0.78c0.79,0,1.44,0.17,1.96,0.52l0.9-1.78c-0.36-0.23-0.8-0.41-1.31-0.53
		c-0.51-0.12-1.05-0.19-1.61-0.19c-1.06,0-1.99,0.22-2.79,0.66C54.25,31.5,53.63,32.15,53.18,32.99z M55.72,36.75
		c0.34-0.29,0.77-0.44,1.3-0.44c0.54,0,0.97,0.14,1.3,0.43c0.32,0.28,0.49,0.67,0.49,1.15c0,0.48-0.16,0.86-0.49,1.14
		c-0.32,0.28-0.75,0.42-1.27,0.42c-0.57,0-1.02-0.14-1.35-0.43c-0.33-0.29-0.5-0.66-0.5-1.12C55.22,37.42,55.39,37.04,55.72,36.75z"
		/>
	<rect x="66.63" y="34.91" width="7.13" height="1.83"/>
	<path d="M83.47,38.48l-2.26-5.47H78.8l3.49,8.12l-0.03,0.08c-0.16,0.36-0.34,0.62-0.54,0.77c-0.2,0.15-0.46,0.23-0.78,0.23
		c-0.23,0-0.46-0.05-0.7-0.13c-0.23-0.09-0.44-0.22-0.62-0.37l-0.85,1.66c0.26,0.23,0.59,0.41,1,0.54c0.41,0.13,0.82,0.19,1.24,0.19
		c0.77,0,1.43-0.19,1.97-0.57c0.55-0.38,1-1.03,1.37-1.96L88,33.01h-2.25L83.47,38.48z"/>
	<path d="M47.67,19.37c-0.35,0.24-0.83,0.36-1.44,0.36c-0.55,0-1.08-0.08-1.6-0.25c-0.52-0.16-0.98-0.4-1.38-0.7l-0.96,1.86
		c0.5,0.36,1.11,0.64,1.82,0.83c0.71,0.19,1.44,0.29,2.18,0.29c0.96,0,1.77-0.16,2.42-0.47c0.65-0.31,1.14-0.73,1.46-1.26
		c0.32-0.52,0.48-1.11,0.48-1.75c0-0.99-0.35-1.78-1.06-2.37c-0.7-0.59-1.79-0.88-3.27-0.88h-0.85l0.16-1.99h4.38V11.1h-6.4
		L43.07,17h2.68c0.9,0,1.53,0.11,1.9,0.34s0.55,0.57,0.55,1.02C48.19,18.8,48.02,19.13,47.67,19.37z"/>
	<polygon points="57.9,19.54 59.79,17.63 61.68,19.54 62.94,18.22 61.08,16.35 62.94,14.47 61.68,13.15 59.79,15.06 57.9,13.15 
		56.64,14.47 58.5,16.35 56.64,18.22 	"/>
	<polygon points="72.02,21.59 72.02,11.1 67.49,11.1 67.49,13.05 69.59,13.05 69.59,21.59 	"/>
	<path d="M81.73,15.63c0.24-0.5,0.36-1.03,0.36-1.6c0-0.63-0.16-1.18-0.49-1.64c-0.32-0.46-0.78-0.82-1.36-1.08
		c-0.59-0.25-1.27-0.38-2.05-0.38c-0.93,0-1.75,0.17-2.47,0.52s-1.28,0.82-1.69,1.43l1.77,1.14c0.25-0.35,0.56-0.61,0.93-0.79
		c0.37-0.17,0.78-0.26,1.24-0.26c0.55,0,0.97,0.11,1.25,0.34c0.29,0.22,0.43,0.55,0.43,0.97c0,0.29-0.07,0.58-0.22,0.88
		c-0.15,0.29-0.44,0.65-0.87,1.06l-4.04,3.82v1.57h7.93v-1.98h-4.51l2.41-2.28C81.02,16.69,81.49,16.13,81.73,15.63z"/>
</g>
</svg>
