<?xml version="1.0" encoding="utf-8"?>
<!-- Generator: Adobe Illustrator 24.0.0, SVG Export Plug-In . SVG Version: 6.00 Build 0)  -->
<svg version="1.1" id="Layer_1" xmlns="http://www.w3.org/2000/svg" xmlns:xlink="http://www.w3.org/1999/xlink" x="0px" y="0px"
	 viewBox="0 0 100 100" style="enable-background:new 0 0 100 100;" xml:space="preserve">
<style type="text/css">
	.st0{fill:none;}
	.st1{fill:#FFFFFF;}
	.st2{fill:#FFFFFF;stroke:#FFFFFF;stroke-width:0.25;stroke-miterlimit:10;}
	.st3{fill:none;stroke:#000000;stroke-width:0.25;stroke-linecap:round;stroke-miterlimit:10;}
	.st4{fill:#D9D9D9;}
	.st5{fill:none;stroke:#000000;stroke-width:2;stroke-linejoin:round;stroke-miterlimit:10;}
	.st6{fill:none;stroke:#000000;stroke-width:0.4396;stroke-miterlimit:10;}
	.st7{fill:none;stroke:#000000;stroke-linecap:round;stroke-linejoin:round;}
	.st8{fill:none;stroke:#000000;stroke-linecap:round;stroke-linejoin:round;stroke-miterlimit:10;}
</style>
<g>
	<path d="M100,13.23V0.35c-12.09,0-23,7.53-32.72,22.6C57.56,7.89,46.61,0.35,34.43,0.35c-9.55,0-17.67,3.35-24.38,10.05
		C3.35,17.11,0,25.23,0,34.78c0,9.55,3.35,17.67,10.05,24.38c6.7,6.7,14.83,10.05,24.38,10.05c12.18,0,23.13-7.53,32.85-22.6
		C77,61.68,87.91,69.21,100,69.21V56.33c-5.17,0-9.94-2.15-14.32-6.44c-2.89-2.8-6.61-7.84-11.17-15.11
		C83.53,20.42,92.03,13.23,100,13.23z M48.75,49.89c-4.38,4.29-9.15,6.44-14.32,6.44c-5.96,0-11.04-2.1-15.24-6.31
		c-4.2-4.2-6.31-9.29-6.31-15.24c0-5.96,2.1-11.04,6.31-15.24c4.21-4.21,9.29-6.31,15.24-6.31c7.97,0,16.47,7.18,25.49,21.55
		C55.37,42.05,51.64,47.09,48.75,49.89z"/>
	<polygon points="-0.04,84.74 3.65,84.74 3.65,99.79 7.93,99.79 7.93,81.31 -0.04,81.31 	"/>
	<path d="M14.49,85.41c-0.72,0-1.33,0.23-1.82,0.7c-0.49,0.47-0.74,1.08-0.74,1.83c0,0.74,0.25,1.36,0.74,1.85
		c0.49,0.49,1.1,0.74,1.82,0.74c0.72,0,1.33-0.25,1.82-0.74c0.49-0.49,0.74-1.11,0.74-1.85c0-0.76-0.25-1.37-0.74-1.83
		C15.82,85.64,15.21,85.41,14.49,85.41z"/>
	<path d="M14.49,94.88c-0.72,0-1.33,0.23-1.82,0.7c-0.49,0.47-0.74,1.08-0.74,1.83c0,0.74,0.25,1.36,0.74,1.85
		c0.49,0.49,1.1,0.74,1.82,0.74c0.72,0,1.33-0.25,1.82-0.74c0.49-0.49,0.74-1.11,0.74-1.85c0-0.76-0.25-1.37-0.74-1.83
		C15.82,95.11,15.21,94.88,14.49,94.88z"/>
	<path d="M29.86,92.29c1.22-1.13,2.03-2.13,2.46-3.01c0.42-0.88,0.63-1.82,0.63-2.82c0-1.11-0.29-2.07-0.86-2.89
		c-0.57-0.82-1.37-1.45-2.4-1.9c-1.03-0.45-2.23-0.67-3.6-0.67c-1.64,0-3.09,0.3-4.36,0.91c-1.27,0.61-2.26,1.45-2.98,2.52l3.11,2
		c0.44-0.61,0.98-1.08,1.64-1.38c0.65-0.31,1.38-0.46,2.19-0.46c0.97,0,1.7,0.2,2.2,0.59c0.5,0.4,0.75,0.96,0.75,1.7
		c0,0.51-0.13,1.03-0.4,1.54c-0.26,0.52-0.77,1.14-1.53,1.86l-7.13,6.73v2.77h13.96V96.3h-7.94L29.86,92.29z"/>
	<path d="M71.25,89.96l3.71-4.23v-2.47H63.45v3.06h7.01l-3.39,3.83v2.52h1.74c2.05,0,3.08,0.68,3.08,2.02c0,0.68-0.27,1.2-0.82,1.57
		c-0.55,0.37-1.3,0.55-2.26,0.55c-0.86,0-1.71-0.13-2.53-0.39c-0.82-0.26-1.55-0.62-2.17-1.09l-1.48,2.92c0.78,0.56,1.73,1,2.86,1.3
		c1.12,0.31,2.26,0.46,3.42,0.46c1.49,0,2.75-0.24,3.77-0.73s1.79-1.13,2.29-1.94c0.5-0.81,0.76-1.69,0.76-2.65
		c0-1.24-0.39-2.28-1.15-3.12C73.8,90.73,72.7,90.19,71.25,89.96z"/>
	<path d="M80.3,86.9c-0.64,0-1.18,0.21-1.62,0.62c-0.44,0.42-0.66,0.96-0.66,1.63c0,0.66,0.22,1.21,0.66,1.65
		c0.44,0.44,0.98,0.66,1.62,0.66s1.19-0.22,1.62-0.66c0.44-0.44,0.66-0.99,0.66-1.65c0-0.67-0.22-1.22-0.66-1.63
		C81.49,87.11,80.95,86.9,80.3,86.9z"/>
	<path d="M80.3,95.34c-0.64,0-1.18,0.21-1.62,0.62c-0.44,0.42-0.66,0.96-0.66,1.63c0,0.66,0.22,1.21,0.66,1.65
		c0.44,0.44,0.98,0.66,1.62,0.66s1.19-0.22,1.62-0.66c0.44-0.44,0.66-0.99,0.66-1.65c0-0.67-0.22-1.22-0.66-1.63
		C81.49,95.55,80.95,95.34,80.3,95.34z"/>
	<polygon points="97.32,90.08 93.72,90.08 93.72,93.16 89.3,93.16 96.49,83.25 92.5,83.25 84.74,93.7 84.74,96.26 93.6,96.26 
		93.6,99.72 97.32,99.72 97.32,96.26 100,96.26 100,93.16 97.32,93.16 	"/>
</g>
</svg>
