<svg id="Layer_1" data-name="Layer 1" xmlns="http://www.w3.org/2000/svg" viewBox="0 0 100 100"><defs><style>.cls-1{fill:#231f20;}</style></defs><title> </title><rect class="cls-1" x="35.38" y="49.83" width="5.77" height="2.55"/><path class="cls-1" d="M49.23,48.38l3.22-3.66V42.58h-10v2.65h6.07l-2.93,3.32v2.18h1.5c1.78,0,2.67.58,2.67,1.75a1.56,1.56,0,0,1-.71,1.36,3.57,3.57,0,0,1-2,.47A7.46,7.46,0,0,1,44.92,54,6.27,6.27,0,0,1,43,53l-1.29,2.53a8,8,0,0,0,2.48,1.13,11.4,11.4,0,0,0,3,.39,7.63,7.63,0,0,0,3.27-.63,4.51,4.51,0,0,0,2-1.68,4.2,4.2,0,0,0,.65-2.29,3.84,3.84,0,0,0-1-2.7A4.8,4.8,0,0,0,49.23,48.38Z"/><path class="cls-1" d="M56.5,53.05a2,2,0,0,0-1.4.54A1.86,1.86,0,0,0,54.53,55a2,2,0,1,0,3.95,0,1.86,1.86,0,0,0-.57-1.42A2,2,0,0,0,56.5,53.05Z"/><path class="cls-1" d="M71.14,53.67a9.08,9.08,0,0,0,.79-4,9.05,9.05,0,0,0-.79-4,5.82,5.82,0,0,0-10.65,0,9.05,9.05,0,0,0-.79,4,9.08,9.08,0,0,0,.79,4,5.84,5.84,0,0,0,2.17,2.54,6.16,6.16,0,0,0,6.31,0A5.84,5.84,0,0,0,71.14,53.67Zm-3.28-.5a2.32,2.32,0,0,1-2,1.12,2.3,2.3,0,0,1-2-1.12A6.3,6.3,0,0,1,63,49.71a6.3,6.3,0,0,1,.75-3.46,2.3,2.3,0,0,1,2-1.12,2.32,2.32,0,0,1,2,1.12,6.3,6.3,0,0,1,.75,3.46A6.3,6.3,0,0,1,67.86,53.17Z"/><polygon class="cls-1" points="76.13 45.27 80.85 45.27 75.74 56.84 79.32 56.84 84.62 44.72 84.62 42.58 73.19 42.58 73.19 47.59 76.13 47.59 76.13 45.27"/><path class="cls-1" d="M92.46,53.82a3.35,3.35,0,0,1-1.95.49A7.24,7.24,0,0,1,88.33,54,6.39,6.39,0,0,1,86.45,53l-1.3,2.53a7.93,7.93,0,0,0,2.47,1.13,11.48,11.48,0,0,0,3,.39,7.54,7.54,0,0,0,3.29-.64,4.54,4.54,0,0,0,2-1.71,4.41,4.41,0,0,0,.66-2.37,4,4,0,0,0-1.44-3.22,6.86,6.86,0,0,0-4.45-1.2H89.47l.22-2.71h6V42.58h-8.7l-.73,8h3.65a5.14,5.14,0,0,1,2.57.46,1.65,1.65,0,0,1,0,2.75Z"/><rect class="cls-1" x="78.38" width="21.62" height="5.54"/><rect class="cls-1" x="78.38" y="11.26" width="21.62" height="5.54"/><path class="cls-1" d="M98.05,70.13a5.61,5.61,0,0,1-1.4.46,10.66,10.66,0,0,1-2.07.2q-1.23,0-3.06,0c-1.57,0-3.22,0-4.94-.06l-4.84-.11-3.95-.11c-1.13,0-1.91-.06-2.33-.06a9.94,9.94,0,0,0-3.75.49,5.87,5.87,0,0,0-2.35,1.49A6.2,6.2,0,0,0,68,74.66a17.93,17.93,0,0,0-.74,2.69l.74.46a9.29,9.29,0,0,1,2.81-2.54,6.19,6.19,0,0,1,3.09-.84h1a61,61,0,0,1-.37,6.22q-.37,3.46-1.09,6.91A55,55,0,0,1,71.68,94a22.93,22.93,0,0,1-2.3,5l.29.45s.23.1.69.18A13.61,13.61,0,0,0,72,99.8q.91,0,1.89,0a3.23,3.23,0,0,0,1.49-.32,24.54,24.54,0,0,0,.94-3c.29-1.12.54-2.31.75-3.55s.36-2.51.46-3.81.14-2.56.14-3.78V74.43h11V100H90a40.85,40.85,0,0,0,4-.86,24.51,24.51,0,0,0,3.84-1.32v-1.2l-3.79-.46V74.43h.69a4.79,4.79,0,0,0,3.73-1.38,5.63,5.63,0,0,0,1.49-3.2l-.8-.52A5.58,5.58,0,0,1,98.05,70.13Z"/><polygon class="cls-1" points="11.07 34.69 17.03 34.69 28.4 0.04 23.03 0.04 14.07 27.47 9.11 12.29 0.01 12.29 0.01 16.77 4.86 16.77 11.07 34.69"/><path class="cls-1" d="M40,14.18,30,23.62v3.89H49.58V22.62H38.44l6-5.62a15.12,15.12,0,0,0,3.44-4.22,9,9,0,0,0,.89-4,6.92,6.92,0,0,0-1.2-4.06A7.79,7.79,0,0,0,44.16,2.1a12.54,12.54,0,0,0-5-.94A14,14,0,0,0,33,2.43,10.24,10.24,0,0,0,28.82,6l4.37,2.81a5.84,5.84,0,0,1,2.29-1.94,7.17,7.17,0,0,1,3.08-.65A5,5,0,0,1,41.65,7,2.88,2.88,0,0,1,42.7,9.41a4.68,4.68,0,0,1-.55,2.16A10.83,10.83,0,0,1,40,14.18Z"/><polygon class="cls-1" points="23.53 70.24 14.73 79.11 5.93 70.24 0.06 76.39 8.72 85.12 0.06 93.85 5.93 100 14.73 91.13 23.53 100 29.4 93.85 20.74 85.12 29.4 76.39 23.53 70.24"/></svg>