<?xml version="1.0" encoding="utf-8"?>
<!-- Generator: Adobe Illustrator 24.0.0, SVG Export Plug-In . SVG Version: 6.00 Build 0)  -->
<svg version="1.1" id="Layer_1" xmlns="http://www.w3.org/2000/svg" xmlns:xlink="http://www.w3.org/1999/xlink" x="0px" y="0px"
	 viewBox="0 0 100 100" style="enable-background:new 0 0 100 100;" xml:space="preserve">
<style type="text/css">
	.st0{fill:none;}
	.st1{fill:#FFFFFF;}
	.st2{fill:#FFFFFF;stroke:#FFFFFF;stroke-width:0.25;stroke-miterlimit:10;}
	.st3{fill:none;stroke:#000000;stroke-width:0.25;stroke-linecap:round;stroke-miterlimit:10;}
	.st4{fill:#D9D9D9;}
	.st5{fill:none;stroke:#000000;stroke-width:2;stroke-linejoin:round;stroke-miterlimit:10;}
	.st6{fill:none;stroke:#000000;stroke-width:0.4396;stroke-miterlimit:10;}
	.st7{fill:none;stroke:#000000;stroke-linecap:round;stroke-linejoin:round;}
	.st8{fill:none;stroke:#000000;stroke-linecap:round;stroke-linejoin:round;stroke-miterlimit:10;}
</style>
<g>
	<path d="M72.23,76.9c1.67,0,3.08-1.41,3.08-3.08c0-0.8-0.33-1.61-0.89-2.16L64.02,61.25l0.31-0.45c2.29-3.31,3.5-7.21,3.5-11.28
		c0-2.43-0.46-4.75-1.26-6.9c-0.89-2.39-2.22-4.56-3.9-6.42c-0.01-0.01-0.02-0.02-0.03-0.03c-1.5-1.65-3.26-3.06-5.23-4.14
		c-2.82-1.54-6.05-2.41-9.49-2.41c-10.98,0-19.91,8.93-19.91,19.91c0,0.72,0.04,1.42,0.12,2.12c0.24,2.27,0.89,4.43,1.83,6.41
		c0,0.01,0.01,0.02,0.01,0.03c1.18,2.47,2.85,4.65,4.89,6.43c3.5,3.05,8.06,4.92,13.06,4.92c4.01,0,8.01-1.25,11.28-3.51l0.45-0.31
		l10.41,10.38C70.63,76.57,71.41,76.9,72.23,76.9z M47.93,63.26c-4.33,0-8.15-2.05-10.67-5.19c-0.01-0.01-0.01-0.02-0.02-0.03
		c-1.46-1.82-2.46-4-2.84-6.41c-0.11-0.7-0.21-1.39-0.21-2.12c0-7.58,6.16-13.74,13.74-13.74c2.83,0,5.46,0.86,7.65,2.33
		c2.07,1.39,3.7,3.34,4.77,5.62c0.01,0.01,0.01,0.02,0.02,0.03c0.82,1.76,1.31,3.69,1.31,5.76C61.67,57.1,55.5,63.26,47.93,63.26z"
		/>
	<path d="M3.52,5.8C4.49,5.26,5.5,4.98,6.55,4.98H7.5c0,1.79-0.12,3.82-0.36,6.08c-0.24,2.26-0.6,4.51-1.06,6.75
		c-0.47,2.24-1.04,4.35-1.71,6.33c-0.67,1.98-1.42,3.6-2.24,4.87l0.28,0.45c0,0.04,0.22,0.09,0.67,0.17
		c0.45,0.07,0.97,0.12,1.57,0.14c0.6,0.02,1.21,0.02,1.85,0c0.63-0.02,1.12-0.12,1.45-0.31c0.34-0.86,0.65-1.84,0.92-2.94
		c0.28-1.1,0.52-2.26,0.73-3.47c0.21-1.21,0.36-2.46,0.45-3.72c0.09-1.27,0.14-2.5,0.14-3.7V4.98h10.7v24.97h1.4
		c1.19-0.19,2.5-0.46,3.92-0.84c1.42-0.38,2.67-0.8,3.75-1.29v-1.18l-3.7-0.45V4.98h0.67c1.6,0,2.82-0.45,3.64-1.35
		c0.82-0.89,1.31-1.94,1.46-3.13L31.24,0c-0.37,0.33-0.75,0.6-1.12,0.78c-0.37,0.19-0.83,0.34-1.37,0.45
		c-0.54,0.11-1.21,0.18-2.02,0.2c-0.8,0.02-1.8,0.03-2.99,0.03c-1.53,0-3.14-0.02-4.82-0.05c-1.68-0.04-3.26-0.08-4.73-0.11
		c-1.48-0.03-2.76-0.07-3.86-0.11c-1.1-0.04-1.86-0.05-2.27-0.05C6.57,1.08,5.35,1.24,4.39,1.6C3.44,1.95,2.68,2.43,2.1,3.05
		C1.52,3.66,1.08,4.39,0.78,5.21c-0.3,0.82-0.54,1.7-0.73,2.63l0.73,0.45C1.64,7.16,2.55,6.34,3.52,5.8z"/>
	<path d="M99.4,17.94L64.17,0.23c-0.31-0.16-0.68-0.14-0.97,0.04c-0.3,0.18-0.48,0.5-0.48,0.85v17.71c0,0.55,0.45,1,1,1h35.23
		c0.46,0,0.87-0.32,0.97-0.77C100.03,18.62,99.81,18.15,99.4,17.94z M64.72,17.84V2.75l30.02,15.09H64.72z"/>
	<path d="M74.41,84.57c0.27-0.25,0.62-0.37,1.05-0.37c0.4,0,0.78,0.12,1.15,0.36l1.02-2.13c-0.25-0.18-0.58-0.31-1-0.41
		c-0.41-0.1-0.83-0.15-1.26-0.15c-1.22,0-2.2,0.34-2.95,1.02c-0.75,0.68-1.19,1.6-1.33,2.75l-0.08,0.62h-1.59l-0.28,2.26h1.58
		l-0.94,7.49c-0.05,0.49-0.2,0.86-0.45,1.1c-0.25,0.25-0.57,0.37-0.96,0.37c-0.46,0-0.85-0.12-1.17-0.36l-1,2.13
		c0.26,0.19,0.6,0.33,1,0.42c0.4,0.1,0.84,0.14,1.32,0.14c1.18,0,2.14-0.34,2.88-1.02c0.74-0.68,1.18-1.6,1.32-2.75l0.94-7.52h2.51
		l0.26-2.26h-2.6l0.08-0.58C73.98,85.18,74.14,84.82,74.41,84.57z"/>
	<path d="M84.75,82.02H81.8c-1.36,1.57-2.41,3.43-3.17,5.58c-0.75,2.15-1.13,4.35-1.13,6.62c0,0.99,0.1,1.99,0.28,2.98
		c0.19,0.99,0.43,1.82,0.74,2.47h2.7c-0.58-1.77-0.87-3.54-0.87-5.3c0-2.19,0.37-4.32,1.11-6.41C82.21,85.87,83.3,83.89,84.75,82.02
		z"/>
	<polygon points="90.13,90.93 95.02,85.86 91.77,85.86 88.95,88.84 87.34,85.86 84.29,85.86 86.98,90.8 81.91,96.01 85.27,96.01 
		88.19,92.9 89.85,96.01 92.96,96.01 	"/>
	<path d="M98.68,82.02h-2.7c0.58,1.77,0.87,3.54,0.87,5.3c0,2.19-0.37,4.33-1.11,6.41c-0.74,2.09-1.84,4.07-3.28,5.94h2.94
		c1.36-1.57,2.41-3.43,3.17-5.58c0.75-2.15,1.13-4.36,1.13-6.62c0-0.99-0.1-1.99-0.28-2.98C99.22,83.49,98.98,82.67,98.68,82.02z"/>
	<polygon points="19.49,81.71 13.9,81.71 9.96,87 6.13,81.71 0.24,81.71 6.97,90.7 0,99.81 5.72,99.81 9.83,94.26 13.8,99.81 
		19.75,99.81 12.75,90.56 	"/>
	<path d="M27.87,84.57c1.03-0.9,1.73-1.67,2.1-2.3c0.37-0.64,0.56-1.32,0.56-2.03c0-1.26-0.52-2.28-1.57-3.06
		c-1.04-0.79-2.47-1.18-4.29-1.18c-1.46,0-2.71,0.25-3.74,0.74c-1.03,0.49-1.83,1.17-2.39,2.02l2.69,1.62
		c0.31-0.45,0.74-0.8,1.3-1.06s1.16-0.39,1.83-0.39c0.81,0,1.41,0.15,1.82,0.44c0.4,0.29,0.61,0.67,0.61,1.14
		c0,0.33-0.12,0.69-0.35,1.06c-0.24,0.37-0.67,0.82-1.3,1.36l-5.82,5.05v2.25h11.74v-2.83h-6.43L27.87,84.57z"/>
</g>
</svg>
