<svg id="Layer_1" data-name="Layer 1" xmlns="http://www.w3.org/2000/svg" viewBox="0 0 100 100"><defs><style>.cls-1{fill:#231f20;}</style></defs><title> </title><polygon class="cls-1" points="8.81 16.65 12.51 16.65 12.51 13.21 15.18 13.21 15.18 10.13 12.51 10.13 12.51 7.06 8.93 7.06 8.93 10.13 4.54 10.13 11.69 0.28 7.72 0.28 0 10.66 0 13.21 8.81 13.21 8.81 16.65"/><path class="cls-1" d="M17.08,9.63a4,4,0,0,0-.64,2.27,4.29,4.29,0,0,0,.85,2.66,5.46,5.46,0,0,0,2.41,1.75,9.78,9.78,0,0,0,3.61.62,9.93,9.93,0,0,0,3.63-.62,5.58,5.58,0,0,0,2.43-1.75,4.3,4.3,0,0,0,.86-2.66,4,4,0,0,0-.64-2.27A4.72,4.72,0,0,0,27.73,8a4,4,0,0,0,1.43-1.41,3.92,3.92,0,0,0,.49-1.95,4,4,0,0,0-.8-2.48A5.13,5.13,0,0,0,26.62.57,8.93,8.93,0,0,0,23.31,0,8.75,8.75,0,0,0,20,.57,5.16,5.16,0,0,0,17.82,2.2,4,4,0,0,0,17,4.68a3.92,3.92,0,0,0,.49,2A4,4,0,0,0,18.92,8,4.73,4.73,0,0,0,17.08,9.63Zm4.4-6.3a2.87,2.87,0,0,1,1.83-.55,3,3,0,0,1,1.87.55,1.81,1.81,0,0,1,.7,1.51,1.74,1.74,0,0,1-.7,1.47,3,3,0,0,1-1.87.54,2.91,2.91,0,0,1-1.85-.54,1.76,1.76,0,0,1-.67-1.47A1.83,1.83,0,0,1,21.48,3.33Zm-.39,6.75a3.57,3.57,0,0,1,2.22-.63,3.67,3.67,0,0,1,2.26.63,2,2,0,0,1,.83,1.7,2.06,2.06,0,0,1-.83,1.72,3.61,3.61,0,0,1-2.26.65,3.57,3.57,0,0,1-2.22-.63,2.08,2.08,0,0,1-.82-1.74A2,2,0,0,1,21.09,10.08Z"/><rect class="cls-1" x="36.94" y="4.14" width="11.13" height="2.85"/><rect class="cls-1" x="36.94" y="9.94" width="11.13" height="2.85"/><path class="cls-1" d="M55.69,12.23a6.91,6.91,0,0,0-.11,1.1,3.24,3.24,0,0,0,1.07,2.57,4.23,4.23,0,0,0,2.86.94,5.9,5.9,0,0,0,3.13-.75l-.54-2.6a2.85,2.85,0,0,1-1.47.45c-.89,0-1.34-.41-1.34-1.22a2.17,2.17,0,0,1,.05-.51l1-5.05h3.13L64,4.35H60.91l.61-3.06H57.87l-.61,3.06H55.32l-.56,2.81H56.7Z"/><rect class="cls-1" x="70" y="7.04" width="11.13" height="2.85"/><path class="cls-1" d="M95.37,13.2a4,4,0,0,1-2.24.55,8.29,8.29,0,0,1-2.52-.39,7.06,7.06,0,0,1-2.16-1.08L87,15.18a8.65,8.65,0,0,0,2.84,1.29,12.61,12.61,0,0,0,3.4.46A8.62,8.62,0,0,0,97,16.2a5.16,5.16,0,0,0,2.28-1.93,4.85,4.85,0,0,0,.75-2.63,4.37,4.37,0,0,0-1.15-3.09,5.5,5.5,0,0,0-3.29-1.61l3.69-4.2V.28H87.8v3h7L91.4,7.13v2.5h1.73q3.06,0,3.06,2A1.77,1.77,0,0,1,95.37,13.2Z"/><rect class="cls-1" y="93.51" width="5.16" height="2.28"/><path class="cls-1" d="M12.45,94.6a7.42,7.42,0,0,0,1.69-2.08,4.49,4.49,0,0,0,.44-2,3.44,3.44,0,0,0-.59-2,3.91,3.91,0,0,0-1.66-1.31,6.18,6.18,0,0,0-2.49-.47,6.86,6.86,0,0,0-3,.63,5,5,0,0,0-2.06,1.74l2.15,1.39a3,3,0,0,1,1.13-1,3.52,3.52,0,0,1,1.51-.32,2.47,2.47,0,0,1,1.53.41,1.45,1.45,0,0,1,.52,1.18,2.28,2.28,0,0,1-.28,1.07,5,5,0,0,1-1.05,1.28L5.35,97.87v1.91H15V97.37H9.51Z"/><polygon class="cls-1" points="27.37 96.57 26.25 89.97 23.81 89.97 20.13 96.57 19.05 89.97 16.46 89.97 18.19 99.78 20.96 99.78 24.34 93.67 25.47 99.78 28.28 99.78 33.7 89.97 31.02 89.97 27.37 96.57"/><polygon class="cls-1" points="42.3 89.18 39.95 89.18 39.95 92.28 36.8 92.28 36.8 94.51 39.95 94.51 39.95 97.61 42.3 97.61 42.3 94.51 45.48 94.51 45.48 92.28 42.3 92.28 42.3 89.18"/><polygon class="cls-1" points="48.59 89.38 51.14 89.38 51.14 99.78 54.1 99.78 54.1 87.01 48.59 87.01 48.59 89.38"/><polygon class="cls-1" points="56.09 91.5 58.71 91.5 58.71 89.42 62.95 89.42 58.37 99.78 61.58 99.78 66.32 88.93 66.32 87.01 56.09 87.01 56.09 91.5"/><polygon class="cls-1" points="69.92 94.58 78.61 97.88 78.61 95.6 72.53 93.4 78.61 91.17 78.61 88.91 69.92 92.21 69.92 94.58"/><polygon class="cls-1" points="82.83 89.38 85.39 89.38 85.39 99.78 88.34 99.78 88.34 87.01 82.83 87.01 82.83 89.38"/><path class="cls-1" d="M96.53,92.21l2.89-3.28V87H90.48v2.37h5.43l-2.62,3v2h1.35c1.59,0,2.39.52,2.39,1.57a1.38,1.38,0,0,1-.64,1.21,3.08,3.08,0,0,1-1.75.43,6.47,6.47,0,0,1-2-.3A5.37,5.37,0,0,1,91,96.37l-1.15,2.26a6.68,6.68,0,0,0,2.22,1,9.85,9.85,0,0,0,2.65.36,6.77,6.77,0,0,0,2.93-.57,4,4,0,0,0,1.78-1.5,3.81,3.81,0,0,0,.58-2.05,3.48,3.48,0,0,0-.89-2.42A4.32,4.32,0,0,0,96.53,92.21Z"/><path class="cls-1" d="M0,31.25V72.47H100V31.25ZM18.19,55.67H16v2.82H13V55.67H5.75V53.58l6.33-8.51h3.26L9.47,53.14h3.61V50.63H16v2.51h2.18Zm10.41.84a4.33,4.33,0,0,1-1.87,1.61,7.09,7.09,0,0,1-3.09.6,10.9,10.9,0,0,1-2.79-.37,7.26,7.26,0,0,1-2.33-1.07l1.23-2.38a6,6,0,0,0,1.76.9,6.75,6.75,0,0,0,2,.31,3.17,3.17,0,0,0,1.84-.46,1.57,1.57,0,0,0,0-2.59A4.84,4.84,0,0,0,23,52.62H19.52l.69-7.55h8.18v2.49h-5.6l-.21,2.55h1.1a6.49,6.49,0,0,1,4.19,1.13,3.77,3.77,0,0,1,1.35,3A4.24,4.24,0,0,1,28.6,56.51Zm16.88,2H36.35V56.15h9.13Zm0-6.83L36.35,54.9V52.57l5.94-2.11-5.94-2.11V46l9.13,3.24ZM62.38,53H53.26V50.61h9.12Zm6.7,5.54H66V47.56H63.29V45.07h5.79Zm11.86-2a4.33,4.33,0,0,1-1.87,1.61,7.12,7.12,0,0,1-3.09.6,10.9,10.9,0,0,1-2.79-.37,7.16,7.16,0,0,1-2.33-1.07l1.23-2.38a6,6,0,0,0,1.76.9,6.75,6.75,0,0,0,2.05.31,3.19,3.19,0,0,0,1.84-.46,1.57,1.57,0,0,0,0-2.59,4.84,4.84,0,0,0-2.42-.44H71.86l.69-7.55h8.18v2.49h-5.6l-.21,2.55H76a6.49,6.49,0,0,1,4.19,1.13,3.77,3.77,0,0,1,1.35,3A4.24,4.24,0,0,1,80.94,56.51Zm13.17-3.73L93,58.49H90L91.08,53a2.71,2.71,0,0,0,.08-.71A1.63,1.63,0,0,0,90.72,51a1.84,1.84,0,0,0-1.32-.42,2.79,2.79,0,0,0-1.91.66,3.42,3.42,0,0,0-1,2l-1,5.24h-3l2-10.31h2.84l-.23,1.11A4.81,4.81,0,0,1,90.49,48a4,4,0,0,1,2.74.91,3.32,3.32,0,0,1,1,2.6A5.84,5.84,0,0,1,94.11,52.78Z"/></svg>