<?xml version="1.0" encoding="utf-8"?>
<!-- Generator: Adobe Illustrator 24.0.0, SVG Export Plug-In . SVG Version: 6.00 Build 0)  -->
<svg version="1.1" id="Layer_1" xmlns="http://www.w3.org/2000/svg" xmlns:xlink="http://www.w3.org/1999/xlink" x="0px" y="0px"
	 viewBox="0 0 100 100" style="enable-background:new 0 0 100 100;" xml:space="preserve">
<style type="text/css">
	.st0{fill:none;}
	.st1{fill:#FFFFFF;}
	.st2{fill:#FFFFFF;stroke:#FFFFFF;stroke-width:0.25;stroke-miterlimit:10;}
	.st3{fill:none;stroke:#000000;stroke-width:0.25;stroke-linecap:round;stroke-miterlimit:10;}
	.st4{fill:#D9D9D9;}
	.st5{fill:none;stroke:#000000;stroke-width:2;stroke-linejoin:round;stroke-miterlimit:10;}
	.st6{fill:none;stroke:#000000;stroke-width:0.4396;stroke-miterlimit:10;}
	.st7{fill:none;stroke:#000000;stroke-linecap:round;stroke-linejoin:round;}
	.st8{fill:none;stroke:#000000;stroke-linecap:round;stroke-linejoin:round;stroke-miterlimit:10;}
</style>
<g>
	<rect x="0" y="79.99" width="9.42" height="4.16"/>
	<path d="M22.63,77.62l5.26-5.99v-3.5H11.58v4.33h9.92l-4.79,5.43v3.56h2.46c2.91,0,4.36,0.95,4.36,2.86c0,0.95-0.39,1.69-1.16,2.21
		c-0.78,0.52-1.84,0.78-3.2,0.78c-1.22,0-2.41-0.18-3.58-0.55c-1.16-0.37-2.19-0.88-3.08-1.55l-2.1,4.13
		c1.11,0.8,2.46,1.41,4.04,1.85c1.59,0.43,3.2,0.65,4.84,0.65c2.11,0,3.89-0.34,5.34-1.03c1.45-0.69,2.53-1.6,3.25-2.75
		c0.71-1.14,1.06-2.39,1.06-3.74c0-1.75-0.54-3.22-1.63-4.41C26.24,78.72,24.68,77.96,22.63,77.62z"/>
	<polygon points="34.4,42.3 37.64,42.3 37.64,55.5 41.39,55.5 41.39,39.29 34.4,39.29 	"/>
	<path d="M46.35,51.19c-0.63,0-1.17,0.21-1.6,0.61c-0.43,0.41-0.65,0.95-0.65,1.61c0,0.65,0.22,1.19,0.65,1.62
		c0.43,0.43,0.96,0.65,1.6,0.65c0.63,0,1.17-0.22,1.6-0.65c0.43-0.43,0.65-0.97,0.65-1.62c0-0.66-0.22-1.2-0.65-1.61
		C47.51,51.4,46.98,51.19,46.35,51.19z"/>
	<path d="M60.51,40.01c-1.05-0.66-2.25-1-3.59-1c-1.34,0-2.54,0.33-3.59,1c-1.05,0.66-1.87,1.62-2.46,2.88
		c-0.59,1.26-0.89,2.76-0.89,4.5c0,1.74,0.3,3.24,0.89,4.5c0.59,1.26,1.42,2.22,2.46,2.88c1.05,0.66,2.25,1,3.59,1
		c1.34,0,2.54-0.33,3.59-1c1.05-0.66,1.87-1.62,2.46-2.88c0.59-1.26,0.89-2.76,0.89-4.5c0-1.74-0.3-3.24-0.89-4.5
		C62.38,41.64,61.56,40.68,60.51,40.01z M59.25,51.33c-0.56,0.85-1.34,1.27-2.33,1.27c-0.97,0-1.74-0.42-2.3-1.27
		c-0.56-0.85-0.84-2.16-0.84-3.93c0-1.77,0.28-3.09,0.84-3.93c0.56-0.85,1.33-1.27,2.3-1.27c0.99,0,1.76,0.42,2.33,1.27
		c0.56,0.85,0.84,2.16,0.84,3.93C60.09,49.17,59.81,50.48,59.25,51.33z"/>
	<polygon points="72.27,55.5 78.28,41.73 78.28,39.29 65.3,39.29 65.3,44.99 68.63,44.99 68.63,42.35 74,42.35 68.19,55.5 	"/>
	<path d="M87.19,52.07c-0.54,0.37-1.28,0.56-2.22,0.56c-0.85,0-1.67-0.13-2.48-0.38c-0.8-0.25-1.51-0.61-2.13-1.08l-1.48,2.87
		c0.77,0.56,1.71,0.98,2.81,1.28c1.1,0.3,2.23,0.45,3.37,0.45c1.48,0,2.73-0.24,3.74-0.73c1.01-0.49,1.76-1.14,2.26-1.94
		c0.49-0.81,0.74-1.71,0.74-2.7c0-1.53-0.54-2.75-1.63-3.66s-2.77-1.37-5.06-1.37h-1.32l0.26-3.08h6.76v-3.01h-9.88l-0.83,9.12h4.14
		c1.39,0,2.36,0.18,2.93,0.53C87.72,49.3,88,49.83,88,50.52C88,51.18,87.73,51.7,87.19,52.07z"/>
	<path d="M10.77,31.25c-0.94,0.9-1.41,2.06-1.41,3.47c0,1.41,0.47,2.59,1.41,3.53c0.94,0.94,2.1,1.41,3.47,1.41
		c1.37,0,2.53-0.47,3.47-1.41c0.94-0.94,1.41-2.12,1.41-3.53c0-1.41-0.47-2.57-1.41-3.47c-0.94-0.9-2.1-1.35-3.47-1.35
		C12.87,29.9,11.71,30.35,10.77,31.25z"/>
	<rect x="0.23" y="18.95" width="28.01" height="7.18"/>
	<path d="M14.24,15.19c1.37,0,2.53-0.47,3.47-1.41c0.94-0.94,1.41-2.12,1.41-3.53c0-1.41-0.47-2.57-1.41-3.47
		c-0.94-0.9-2.1-1.35-3.47-1.35c-1.37,0-2.53,0.45-3.47,1.35c-0.94,0.9-1.41,2.06-1.41,3.47c0,1.41,0.47,2.59,1.41,3.53
		C11.71,14.72,12.87,15.19,14.24,15.19z"/>
	<rect x="74.48" y="0" width="25.52" height="6.54"/>
	<rect x="74.48" y="13.3" width="25.52" height="6.54"/>
	<polygon points="93.9,70.14 85.09,79.01 76.29,70.14 70.42,76.29 79.09,85.02 70.42,93.75 76.29,99.9 85.09,91.03 93.9,99.9 
		99.77,93.75 91.1,85.02 99.77,76.29 	"/>
</g>
</svg>
