<?xml version="1.0" encoding="utf-8"?>
<!-- Generator: Adobe Illustrator 24.0.0, SVG Export Plug-In . SVG Version: 6.00 Build 0)  -->
<svg version="1.1" id="Layer_1" xmlns="http://www.w3.org/2000/svg" xmlns:xlink="http://www.w3.org/1999/xlink" x="0px" y="0px"
	 viewBox="0 0 100 100" style="enable-background:new 0 0 100 100;" xml:space="preserve">
<style type="text/css">
	.st0{fill:none;}
	.st1{fill:#FFFFFF;}
	.st2{fill:#FFFFFF;stroke:#FFFFFF;stroke-width:0.25;stroke-miterlimit:10;}
	.st3{fill:none;stroke:#000000;stroke-width:0.25;stroke-linecap:round;stroke-miterlimit:10;}
	.st4{fill:#D9D9D9;}
	.st5{fill:none;stroke:#000000;stroke-width:2;stroke-linejoin:round;stroke-miterlimit:10;}
	.st6{fill:none;stroke:#000000;stroke-width:0.4396;stroke-miterlimit:10;}
	.st7{fill:none;stroke:#000000;stroke-linecap:round;stroke-linejoin:round;}
	.st8{fill:none;stroke:#000000;stroke-linecap:round;stroke-linejoin:round;stroke-miterlimit:10;}
</style>
<g>
	<polygon points="8.82,16.65 12.51,16.65 12.51,13.21 15.17,13.21 15.17,10.13 12.51,10.13 12.51,7.06 8.93,7.06 8.93,10.13 
		4.54,10.13 11.69,0.28 7.72,0.28 0,10.66 0,13.21 8.82,13.21 	"/>
	<path d="M17.08,9.63c-0.43,0.65-0.64,1.41-0.64,2.27c0,1.01,0.28,1.9,0.85,2.65c0.57,0.76,1.37,1.34,2.41,1.75
		c1.04,0.41,2.24,0.62,3.61,0.62c1.37,0,2.58-0.21,3.62-0.62c1.04-0.41,1.85-1,2.43-1.75c0.58-0.76,0.87-1.64,0.87-2.65
		c0-0.86-0.21-1.61-0.64-2.27c-0.43-0.66-1.05-1.18-1.86-1.59c0.62-0.37,1.1-0.84,1.43-1.41c0.33-0.57,0.49-1.22,0.49-1.95
		c0-0.95-0.27-1.78-0.8-2.48c-0.53-0.7-1.27-1.24-2.23-1.62C25.66,0.19,24.56,0,23.31,0c-1.23,0-2.32,0.19-3.27,0.57
		c-0.95,0.38-1.69,0.92-2.22,1.62c-0.53,0.7-0.8,1.53-0.8,2.48c0,0.73,0.16,1.38,0.49,1.95c0.33,0.57,0.8,1.04,1.4,1.41
		C18.12,8.45,17.51,8.98,17.08,9.63z M21.48,3.33c0.46-0.37,1.07-0.55,1.83-0.55c0.78,0,1.4,0.18,1.87,0.55
		c0.47,0.37,0.7,0.87,0.7,1.51c0,0.62-0.23,1.12-0.7,1.47c-0.47,0.36-1.09,0.54-1.87,0.54c-0.78,0-1.39-0.18-1.85-0.54
		c-0.45-0.36-0.68-0.85-0.68-1.47C20.79,4.2,21.02,3.7,21.48,3.33z M21.09,10.08c0.55-0.42,1.29-0.63,2.22-0.63
		c0.95,0,1.7,0.21,2.26,0.63c0.55,0.42,0.83,0.99,0.83,1.71c0,0.72-0.28,1.29-0.83,1.72c-0.55,0.43-1.31,0.64-2.26,0.64
		c-0.94,0-1.68-0.21-2.22-0.63c-0.55-0.42-0.82-1-0.82-1.73C20.27,11.07,20.54,10.5,21.09,10.08z"/>
	<rect x="36.94" y="4.14" width="11.13" height="2.85"/>
	<rect x="36.94" y="9.94" width="11.13" height="2.85"/>
	<path d="M55.69,12.23c-0.08,0.42-0.12,0.79-0.12,1.1c0,1.09,0.36,1.95,1.08,2.57c0.72,0.62,1.67,0.94,2.85,0.94
		c1.28,0,2.32-0.25,3.13-0.75l-0.54-2.6c-0.5,0.3-0.99,0.45-1.47,0.45c-0.89,0-1.33-0.41-1.33-1.22c0-0.22,0.02-0.39,0.05-0.51
		l1.01-5.05h3.13l0.56-2.81h-3.13l0.61-3.06h-3.65l-0.61,3.06h-1.94l-0.56,2.81h1.94L55.69,12.23z"/>
	<rect x="70" y="7.04" width="11.13" height="2.85"/>
	<path d="M95.37,13.2c-0.55,0.37-1.29,0.55-2.24,0.55c-0.86,0-1.7-0.13-2.51-0.39c-0.82-0.26-1.54-0.62-2.16-1.09l-1.47,2.9
		c0.78,0.56,1.73,0.99,2.84,1.3c1.11,0.3,2.25,0.46,3.4,0.46c1.48,0,2.73-0.24,3.75-0.72c1.02-0.48,1.78-1.13,2.28-1.93
		c0.5-0.8,0.75-1.68,0.75-2.63c0-1.23-0.38-2.26-1.15-3.1c-0.76-0.83-1.86-1.37-3.3-1.6l3.69-4.21V0.28H87.8v3.04h6.97L91.4,7.13
		v2.5h1.73c2.04,0,3.06,0.67,3.06,2.01C96.19,12.31,95.92,12.83,95.37,13.2z"/>
</g>
<g>
	<rect x="0" y="93.51" width="5.16" height="2.28"/>
	<path d="M12.45,94.6c0.84-0.78,1.4-1.47,1.7-2.08c0.29-0.61,0.44-1.26,0.44-1.95c0-0.77-0.2-1.43-0.59-2
		c-0.4-0.56-0.95-1-1.66-1.31c-0.71-0.31-1.54-0.46-2.49-0.46c-1.13,0-2.13,0.21-3.01,0.63c-0.88,0.42-1.56,1-2.06,1.74l2.15,1.39
		c0.3-0.43,0.68-0.75,1.13-0.96C8.5,89.38,9,89.27,9.56,89.27c0.67,0,1.18,0.14,1.52,0.41c0.35,0.27,0.52,0.67,0.52,1.18
		c0,0.35-0.09,0.71-0.27,1.07c-0.18,0.36-0.54,0.79-1.06,1.29l-4.92,4.65v1.92H15v-2.41H9.51L12.45,94.6z"/>
	<polygon points="27.37,96.57 26.25,89.97 23.81,89.97 20.12,96.57 19.05,89.97 16.46,89.97 18.19,99.78 20.96,99.78 24.34,93.67 
		25.47,99.78 28.28,99.78 33.7,89.97 31.02,89.97 	"/>
	<polygon points="42.3,89.18 39.95,89.18 39.95,92.28 36.8,92.28 36.8,94.51 39.95,94.51 39.95,97.61 42.3,97.61 42.3,94.51 
		45.48,94.51 45.48,92.28 42.3,92.28 	"/>
	<polygon points="48.59,89.38 51.14,89.38 51.14,99.78 54.1,99.78 54.1,87.01 48.59,87.01 	"/>
	<polygon points="56.09,91.5 58.71,91.5 58.71,89.42 62.95,89.42 58.37,99.78 61.58,99.78 66.32,88.93 66.32,87.01 56.09,87.01 	"/>
	<polygon points="69.92,94.58 78.61,97.88 78.61,95.6 72.53,93.4 78.61,91.17 78.61,88.91 69.92,92.21 	"/>
	<polygon points="82.84,89.38 85.39,89.38 85.39,99.78 88.34,99.78 88.34,87.01 82.84,87.01 	"/>
	<path d="M96.53,92.21l2.88-3.28v-1.92h-8.94v2.37h5.44l-2.63,2.97v1.95h1.35c1.59,0,2.39,0.52,2.39,1.57
		c0,0.52-0.21,0.93-0.64,1.21c-0.43,0.29-1.01,0.43-1.75,0.43c-0.67,0-1.32-0.1-1.96-0.3c-0.64-0.2-1.2-0.48-1.69-0.85l-1.15,2.26
		c0.61,0.44,1.35,0.77,2.22,1.01c0.87,0.24,1.75,0.36,2.65,0.36c1.15,0,2.13-0.19,2.93-0.57c0.8-0.38,1.39-0.88,1.78-1.5
		c0.39-0.63,0.58-1.31,0.58-2.05c0-0.96-0.3-1.77-0.89-2.42C98.51,92.81,97.65,92.39,96.53,92.21z"/>
</g>
<path d="M0.04,31.25v41.21H100V31.25H0.04z M18.19,55.67h-2.19v2.82h-3.03v-2.82H5.75v-2.09l6.33-8.51h3.26l-5.87,8.07h3.6v-2.51
	h2.93v2.51h2.19V55.67z M28.6,56.51c-0.41,0.67-1.03,1.21-1.87,1.61c-0.84,0.4-1.87,0.6-3.1,0.6c-0.95,0-1.88-0.12-2.79-0.37
	c-0.91-0.25-1.69-0.6-2.33-1.06l1.23-2.38c0.51,0.38,1.1,0.68,1.76,0.89c0.66,0.21,1.35,0.32,2.05,0.32c0.78,0,1.39-0.15,1.84-0.46
	c0.45-0.31,0.67-0.73,0.67-1.28c0-0.57-0.23-1.01-0.7-1.3c-0.47-0.29-1.27-0.44-2.43-0.44h-3.43l0.69-7.55h8.19v2.49h-5.6
	l-0.21,2.55h1.09c1.89,0,3.29,0.38,4.19,1.13s1.35,1.76,1.35,3.03C29.22,55.09,29.01,55.83,28.6,56.51z M45.48,58.49h-9.13v-2.34
	h9.13V58.49z M45.48,51.66l-9.13,3.24v-2.34l5.94-2.11l-5.94-2.11v-2.34l9.13,3.24V51.66z M62.38,52.95h-9.13v-2.34h9.13V52.95z
	 M69.08,58.49h-3.11V47.56h-2.68v-2.49h5.79V58.49z M80.94,56.51c-0.41,0.67-1.03,1.21-1.87,1.61c-0.84,0.4-1.87,0.6-3.1,0.6
	c-0.95,0-1.88-0.12-2.79-0.37c-0.91-0.25-1.69-0.6-2.33-1.06l1.23-2.38c0.51,0.38,1.1,0.68,1.76,0.89c0.66,0.21,1.35,0.32,2.05,0.32
	c0.78,0,1.39-0.15,1.84-0.46c0.45-0.31,0.67-0.73,0.67-1.28c0-0.57-0.23-1.01-0.7-1.3c-0.47-0.29-1.27-0.44-2.43-0.44h-3.43
	l0.69-7.55h8.19v2.49h-5.6l-0.21,2.55h1.09c1.89,0,3.29,0.38,4.19,1.13s1.35,1.76,1.35,3.03C81.56,55.09,81.35,55.83,80.94,56.51z
	 M94.11,52.78l-1.15,5.71h-2.99l1.11-5.52c0.05-0.22,0.08-0.45,0.08-0.71c0-0.54-0.15-0.95-0.44-1.23
	c-0.29-0.28-0.73-0.42-1.32-0.42c-0.77,0-1.4,0.22-1.91,0.66c-0.5,0.44-0.85,1.1-1.03,1.98l-1.04,5.23h-2.99l2.05-10.31h2.84
	l-0.23,1.11c0.92-0.84,2.05-1.27,3.39-1.27c1.15,0,2.06,0.3,2.74,0.91c0.68,0.61,1.02,1.47,1.02,2.6
	C94.25,51.95,94.2,52.37,94.11,52.78z"/>
</svg>
