<svg id="Layer_1" data-name="Layer 1" xmlns="http://www.w3.org/2000/svg" viewBox="0 0 100 100"><defs><style>.cls-1{fill:#231f20;}</style></defs><title> </title><path class="cls-1" d="M47.52,30.31a4,4,0,0,1,1.92-.45,3,3,0,0,1,1.8.49,1.58,1.58,0,0,1,.67,1.34,1.78,1.78,0,0,1-.35,1.07,10,10,0,0,1-1.11,1.16,9.77,9.77,0,0,0-1.57,1.71,3.4,3.4,0,0,0-.54,2H51.8a2,2,0,0,1,.39-1.25,9.35,9.35,0,0,1,1.24-1.28A13.88,13.88,0,0,0,54.58,34a4.48,4.48,0,0,0,.76-1.2,4.08,4.08,0,0,0,.31-1.65A3.61,3.61,0,0,0,54.06,28a7.22,7.22,0,0,0-4.23-1.12,8.72,8.72,0,0,0-3.89.8,6.37,6.37,0,0,0-2.6,2.27l2.77,1.63A4.09,4.09,0,0,1,47.52,30.31Z"/><path class="cls-1" d="M50.08,39.23a2.21,2.21,0,0,0-1.58.59,1.92,1.92,0,0,0-.62,1.45,2,2,0,0,0,.63,1.48,2.33,2.33,0,0,0,3.14,0,2,2,0,0,0,.63-1.48,1.92,1.92,0,0,0-.62-1.45A2.21,2.21,0,0,0,50.08,39.23Z"/><rect class="cls-1" y="33.14" width="24" height="2.36"/><rect class="cls-1" x="76" y="33.36" width="23.97" height="2.35"/><polygon class="cls-1" points="10.29 28.21 16.79 28.21 16.79 0.15 4.68 0.15 4.68 5.36 10.29 5.36 10.29 28.21"/><path class="cls-1" d="M12.86,53.43,2,63.65v4.21H23.25V62.57H11.18l6.45-6.1a16.45,16.45,0,0,0,3.73-4.56,9.83,9.83,0,0,0,1-4.29,7.49,7.49,0,0,0-1.3-4.4,8.41,8.41,0,0,0-3.65-2.88,13.62,13.62,0,0,0-5.47-1A15.11,15.11,0,0,0,5.29,40.7,11.11,11.11,0,0,0,.75,44.53l4.73,3A6.38,6.38,0,0,1,8,45.47a7.67,7.67,0,0,1,3.33-.7,5.33,5.33,0,0,1,3.35.9,3.09,3.09,0,0,1,1.14,2.58,5.16,5.16,0,0,1-.6,2.35A11.55,11.55,0,0,1,12.86,53.43Z"/><path class="cls-1" d="M90.93,22.29a6.77,6.77,0,0,1-3.84.94,14.24,14.24,0,0,1-4.3-.66,12.19,12.19,0,0,1-3.71-1.86l-2.52,5a15.31,15.31,0,0,0,4.87,2.23,22,22,0,0,0,5.82.78,15.08,15.08,0,0,0,6.43-1.24,8.93,8.93,0,0,0,3.9-3.31,8.38,8.38,0,0,0,1.28-4.5,7.61,7.61,0,0,0-2-5.31,9.48,9.48,0,0,0-5.65-2.74l6.33-7.2V.17H78V5.38H89.89L84.13,11.9v4.29h3c3.5,0,5.24,1.14,5.24,3.44A3,3,0,0,1,90.93,22.29Z"/><polygon class="cls-1" points="89.08 67.55 95.4 67.55 95.4 61.67 99.96 61.67 99.96 56.38 95.4 56.38 95.4 51.14 89.27 51.14 89.27 56.38 81.75 56.38 94 39.53 87.19 39.53 73.98 57.3 73.98 61.67 89.08 61.67 89.08 67.55"/><path class="cls-1" d="M40.07,47.1H60A2.12,2.12,0,0,0,62.07,45V25.1A2.12,2.12,0,0,0,60,23H40.07A2.12,2.12,0,0,0,38,25.1V45A2.12,2.12,0,0,0,40.07,47.1Zm-.71-22a.71.71,0,0,1,.71-.71H60a.71.71,0,0,1,.7.71V45a.71.71,0,0,1-.7.7H40.07a.71.71,0,0,1-.71-.7Z"/><path class="cls-1" d="M23.46,78.23H7.77a.56.56,0,0,0-.56.55v15.7a.56.56,0,0,0,.56.55H23.46a.56.56,0,0,0,.56-.55V78.78A.56.56,0,0,0,23.46,78.23ZM20.9,83.81l-7.75,2.82,7.75,2.84v2.89L9.82,88.14v-3L20.9,80.9Z"/><path class="cls-1" d="M57.85,78.23H42.15a.55.55,0,0,0-.55.55v15.7a.55.55,0,0,0,.55.55h15.7a.55.55,0,0,0,.55-.55V78.78A.55.55,0,0,0,57.85,78.23ZM55.63,91H44.37V88.12H55.63Zm0-5.87H44.37V82.25H55.63Z"/><path class="cls-1" d="M0,73.08V100H100V73.08Zm25.13,21.4a1.67,1.67,0,0,1-1.67,1.67H7.77A1.67,1.67,0,0,1,6.1,94.48V78.78a1.68,1.68,0,0,1,1.67-1.67H23.46a1.68,1.68,0,0,1,1.67,1.67Zm34.39,0a1.67,1.67,0,0,1-1.67,1.67H42.15a1.67,1.67,0,0,1-1.67-1.67V78.78a1.68,1.68,0,0,1,1.67-1.67h15.7a1.68,1.68,0,0,1,1.67,1.67Zm34.38,0a1.67,1.67,0,0,1-1.67,1.67H76.54a1.67,1.67,0,0,1-1.67-1.67V78.78a1.68,1.68,0,0,1,1.67-1.67H92.23a1.68,1.68,0,0,1,1.67,1.67Z"/><path class="cls-1" d="M92.23,78.23H76.54a.56.56,0,0,0-.56.55v15.7a.56.56,0,0,0,.56.55H92.23a.56.56,0,0,0,.56-.55V78.78A.56.56,0,0,0,92.23,78.23Zm-2.31,9.91L78.84,92.36V89.45l7.75-2.82-7.75-2.84V80.9l11.08,4.22Z"/></svg>