<svg id="Layer_1" data-name="Layer 1" xmlns="http://www.w3.org/2000/svg" viewBox="0 0 100 100"><defs><style>.cls-1{fill:#231f20;}</style></defs><title> </title><rect class="cls-1" x="44.23" y="52.15" width="19.19" height="4.92"/><polygon class="cls-1" points="33.13 45.56 27.97 45.56 27.97 52.36 21.05 52.36 21.05 57.23 27.97 57.23 27.97 64.03 33.13 64.03 33.13 57.23 40.09 57.23 40.09 52.36 33.13 52.36 33.13 45.56"/><polygon class="cls-1" points="36.38 22.46 30.8 28.07 25.23 22.46 21.51 26.35 27 31.88 21.51 37.41 25.23 41.3 30.8 35.68 36.38 41.3 40.09 37.41 34.6 31.88 40.09 26.35 36.38 22.46"/><path class="cls-1" d="M53.83,27a3.25,3.25,0,0,0,2.38-1,3.29,3.29,0,0,0,1-2.43,3.12,3.12,0,0,0-1-2.38,3.26,3.26,0,0,0-2.38-.93,3.3,3.3,0,0,0-2.39.93,3.16,3.16,0,0,0-1,2.38,3.33,3.33,0,0,0,1,2.43A3.29,3.29,0,0,0,53.83,27Z"/><rect class="cls-1" x="44.21" y="29.61" width="19.24" height="4.93"/><path class="cls-1" d="M56.21,42.87a3.27,3.27,0,0,0,1-2.42,3.16,3.16,0,0,0-1-2.39,3.3,3.3,0,0,0-2.38-.93,3.34,3.34,0,0,0-2.39.93,3.19,3.19,0,0,0-1,2.39,3.31,3.31,0,0,0,1,2.42,3.25,3.25,0,0,0,2.39,1A3.21,3.21,0,0,0,56.21,42.87Z"/><path class="cls-1" d="M98,88.92,76,67l.66-1a42,42,0,0,0-3.5-52L73.13,14a42.36,42.36,0,0,0-11-8.74A42,42,0,0,0,0,42.17a44,44,0,0,0,.24,4.48A41.55,41.55,0,0,0,4.13,60.18l0,0A42.34,42.34,0,0,0,14.47,73.82a41.91,41.91,0,0,0,51.4,3l.95-.66,22,21.91A6.35,6.35,0,0,0,93.37,100,6.51,6.51,0,0,0,98,88.92ZM42.05,71.19a28.83,28.83,0,0,1-22.52-11l-.05,0a28.74,28.74,0,0,1-6-13.53A28.7,28.7,0,0,1,13,42.17,28.94,28.94,0,0,1,68.27,30a.43.43,0,0,0,0,.07A28.87,28.87,0,0,1,42.05,71.19Z"/></svg>