<?xml version="1.0" encoding="utf-8"?>
<!-- Generator: Adobe Illustrator 24.0.0, SVG Export Plug-In . SVG Version: 6.00 Build 0)  -->
<svg version="1.1" id="Layer_1" xmlns="http://www.w3.org/2000/svg" xmlns:xlink="http://www.w3.org/1999/xlink" x="0px" y="0px"
	 viewBox="0 0 100 100" style="enable-background:new 0 0 100 100;" xml:space="preserve">
<style type="text/css">
	.st0{fill:none;}
	.st1{fill:#FFFFFF;}
	.st2{fill:#FFFFFF;stroke:#FFFFFF;stroke-width:0.25;stroke-miterlimit:10;}
	.st3{fill:none;stroke:#000000;stroke-width:0.25;stroke-linecap:round;stroke-miterlimit:10;}
	.st4{fill:#D9D9D9;}
	.st5{fill:none;stroke:#000000;stroke-width:2;stroke-linejoin:round;stroke-miterlimit:10;}
	.st6{fill:none;stroke:#000000;stroke-width:0.4396;stroke-miterlimit:10;}
	.st7{fill:none;stroke:#000000;stroke-linecap:round;stroke-linejoin:round;}
	.st8{fill:none;stroke:#000000;stroke-linecap:round;stroke-linejoin:round;stroke-miterlimit:10;}
</style>
<g>
	<path d="M65.83,36.39c1.14,0.72,2.45,1.08,3.91,1.08s2.76-0.36,3.91-1.08c1.14-0.72,2.04-1.77,2.69-3.14c0.65-1.37,0.97-3,0.97-4.9
		s-0.32-3.53-0.97-4.9c-0.65-1.37-1.54-2.42-2.69-3.14c-1.14-0.72-2.44-1.08-3.91-1.08s-2.76,0.36-3.91,1.08
		c-1.14,0.72-2.04,1.77-2.68,3.14c-0.65,1.37-0.97,3-0.97,4.9s0.32,3.53,0.97,4.9C63.79,34.62,64.68,35.67,65.83,36.39z
		 M67.23,24.07c0.61-0.92,1.45-1.39,2.51-1.39c1.08,0,1.92,0.46,2.53,1.39c0.61,0.92,0.92,2.35,0.92,4.29
		c0,1.93-0.31,3.36-0.92,4.29c-0.61,0.92-1.46,1.39-2.53,1.39c-1.06,0-1.9-0.46-2.51-1.39c-0.61-0.92-0.92-2.35-0.92-4.29
		C66.31,26.42,66.61,24.99,67.23,24.07z"/>
	<path d="M81.57,37.37c0.69,0,1.27-0.23,1.74-0.7c0.47-0.47,0.71-1.06,0.71-1.76c0-0.72-0.23-1.31-0.71-1.75
		c-0.47-0.44-1.05-0.67-1.74-0.67s-1.27,0.22-1.74,0.67c-0.47,0.45-0.7,1.03-0.7,1.75c0,0.71,0.23,1.29,0.7,1.76
		C80.3,37.14,80.88,37.37,81.57,37.37z"/>
	<path d="M90.3,23.1c0.62-0.29,1.32-0.44,2.09-0.44c0.92,0,1.63,0.19,2.11,0.57c0.48,0.38,0.72,0.92,0.72,1.62
		c0,0.49-0.12,0.98-0.38,1.48c-0.25,0.5-0.74,1.09-1.46,1.78l-6.81,6.43v2.65h13.33v-3.33h-7.59l4.06-3.83
		c1.16-1.07,1.94-2.03,2.34-2.87s0.6-1.74,0.6-2.7c0-1.06-0.27-1.98-0.82-2.76c-0.55-0.78-1.31-1.39-2.29-1.82
		c-0.98-0.43-2.13-0.64-3.44-0.64c-1.56,0-2.95,0.29-4.16,0.87c-1.21,0.58-2.16,1.38-2.85,2.41l2.97,1.92
		C89.16,23.83,89.68,23.39,90.3,23.1z"/>
	<rect x="0" y="27.19" width="32" height="2.16"/>
	<path d="M13.45,4.49c0.69-0.33,1.47-0.49,2.33-0.49c1.03,0,1.81,0.21,2.35,0.63c0.53,0.42,0.8,1.03,0.8,1.81
		c0,0.54-0.14,1.09-0.42,1.64c-0.28,0.55-0.83,1.21-1.63,1.98l-7.59,7.16v2.95h14.86v-3.71H15.7l4.53-4.27
		c1.29-1.2,2.16-2.26,2.61-3.2c0.45-0.94,0.67-1.94,0.67-3.01c0-1.18-0.3-2.21-0.91-3.08c-0.61-0.87-1.46-1.55-2.56-2.02
		c-1.1-0.48-2.37-0.72-3.84-0.72c-1.74,0-3.29,0.32-4.64,0.97c-1.35,0.65-2.41,1.54-3.18,2.68l3.32,2.14
		C12.18,5.31,12.76,4.82,13.45,4.49z"/>
	<polygon points="9.43,56.03 9.43,36.37 0.95,36.37 0.95,40.02 4.88,40.02 4.88,56.03 	"/>
	<path d="M25.77,37.24c-1.27-0.8-2.72-1.21-4.35-1.21c-1.63,0-3.08,0.4-4.36,1.21c-1.27,0.81-2.27,1.97-2.99,3.5
		c-0.72,1.53-1.08,3.35-1.08,5.46s0.36,3.94,1.08,5.46c0.72,1.53,1.72,2.69,2.99,3.5c1.27,0.81,2.73,1.21,4.36,1.21
		c1.63,0,3.08-0.4,4.35-1.21c1.27-0.8,2.27-1.97,2.99-3.5c0.72-1.53,1.08-3.35,1.08-5.46s-0.36-3.94-1.08-5.46
		C28.04,39.21,27.05,38.04,25.77,37.24z M24.24,50.98c-0.68,1.03-1.63,1.55-2.82,1.55c-1.18,0-2.11-0.52-2.8-1.55
		c-0.68-1.03-1.03-2.62-1.03-4.78c0-2.16,0.34-3.75,1.03-4.78s1.62-1.55,2.8-1.55c1.2,0,2.14,0.52,2.82,1.55
		c0.68,1.03,1.03,2.62,1.03,4.78C25.27,48.35,24.92,49.95,24.24,50.98z"/>
	<rect x="40.25" y="30.31" width="15.36" height="3.94"/>
	<rect x="40.25" y="22.3" width="15.36" height="3.94"/>
	<polygon points="13.97,92.25 15.79,92.25 15.79,99.66 17.9,99.66 17.9,90.56 13.97,90.56 	"/>
	<path d="M20.9,97.24c-0.36,0-0.65,0.12-0.9,0.34s-0.36,0.53-0.36,0.9c0,0.36,0.12,0.67,0.36,0.91c0.24,0.24,0.54,0.36,0.9,0.36
		s0.65-0.12,0.9-0.36c0.24-0.24,0.37-0.55,0.37-0.91c0-0.37-0.12-0.67-0.37-0.9C21.55,97.36,21.25,97.24,20.9,97.24z"/>
	<path d="M28.53,95.97c0.6-0.55,1-1.05,1.21-1.48c0.21-0.43,0.31-0.9,0.31-1.39c0-0.55-0.14-1.02-0.42-1.42
		c-0.28-0.4-0.68-0.71-1.18-0.94c-0.51-0.22-1.1-0.33-1.78-0.33c-0.8,0-1.52,0.15-2.14,0.45c-0.62,0.3-1.11,0.71-1.47,1.24
		l1.53,0.99c0.22-0.3,0.49-0.53,0.81-0.68c0.32-0.15,0.68-0.23,1.08-0.23c0.48,0,0.84,0.1,1.09,0.29c0.25,0.19,0.37,0.47,0.37,0.84
		c0,0.25-0.06,0.51-0.2,0.76c-0.13,0.26-0.38,0.56-0.75,0.92l-3.51,3.31v1.37h6.88v-1.72h-3.91L28.53,95.97z"/>
	<polygon points="68.97,92.2 70.79,92.2 70.79,99.61 72.9,99.61 72.9,90.51 68.97,90.51 	"/>
	<path d="M75.9,97.19c-0.36,0-0.65,0.12-0.9,0.34c-0.24,0.23-0.36,0.53-0.36,0.9c0,0.36,0.12,0.67,0.36,0.91
		c0.24,0.24,0.54,0.36,0.9,0.36s0.65-0.12,0.9-0.36c0.24-0.24,0.36-0.55,0.36-0.91c0-0.37-0.12-0.67-0.36-0.9
		C76.55,97.3,76.25,97.19,75.9,97.19z"/>
	<path d="M84.1,94.25c-0.48-0.23-1-0.35-1.59-0.35c-0.96,0-1.71,0.27-2.25,0.81c0.04-0.86,0.28-1.51,0.73-1.96
		c0.45-0.45,1.06-0.68,1.83-0.68c0.68,0,1.25,0.15,1.7,0.46l0.78-1.55c-0.31-0.2-0.69-0.35-1.14-0.46c-0.45-0.11-0.91-0.16-1.4-0.16
		c-0.92,0-1.73,0.19-2.42,0.57c-0.7,0.38-1.24,0.94-1.63,1.68c-0.39,0.74-0.58,1.62-0.58,2.65c0,1.45,0.36,2.56,1.08,3.34
		c0.72,0.78,1.72,1.17,2.99,1.17c0.64,0,1.22-0.12,1.75-0.37s0.94-0.6,1.24-1.06c0.3-0.46,0.46-0.99,0.46-1.6
		c0-0.56-0.14-1.06-0.42-1.49C84.95,94.82,84.58,94.48,84.1,94.25z M83.18,97.82c-0.28,0.24-0.65,0.36-1.1,0.36
		c-0.49,0-0.88-0.13-1.17-0.38s-0.43-0.58-0.43-0.97c0-0.4,0.15-0.73,0.44-0.98c0.29-0.25,0.67-0.38,1.13-0.38
		c0.47,0,0.84,0.12,1.12,0.37c0.28,0.25,0.42,0.58,0.42,1S83.47,97.58,83.18,97.82z"/>
	<polygon points="95.64,80.14 91.29,77.63 91.29,81.73 78.07,81.73 78.07,76.81 76.94,76.81 76.94,81.73 64.28,81.73 64.28,76.81 
		63.15,76.81 63.15,81.73 50.49,81.73 50.49,76.81 49.36,76.81 49.36,81.73 36.71,81.73 36.71,76.81 35.58,76.81 35.58,81.73 
		22.92,81.73 22.92,76.81 21.79,76.81 21.79,81.73 8.71,81.73 8.71,77.56 4.36,80.07 0,82.59 4.36,85.1 8.71,87.62 8.71,83.47 
		21.79,83.47 21.79,88.51 22.92,88.51 22.92,83.47 35.58,83.47 35.58,88.51 36.71,88.51 36.71,83.47 49.36,83.47 49.36,88.51 
		50.49,88.51 50.49,83.47 63.15,83.47 63.15,88.51 64.28,88.51 64.28,83.47 76.94,83.47 76.94,88.51 78.07,88.51 78.07,83.47 
		91.29,83.47 91.29,87.69 95.64,85.17 100,82.66 	"/>
	<path d="M51.19,73.45h1.5l0.71-3.55c0.06-0.32,0.08-0.58,0.08-0.77c0-0.69-0.21-1.22-0.63-1.6s-0.99-0.56-1.71-0.56
		c-0.9,0-1.63,0.26-2.21,0.78l0.14-0.71h-1.43l-1.27,6.41h1.5l0.67-3.32c0.13-0.62,0.37-1.08,0.73-1.39s0.82-0.46,1.37-0.46
		c0.86,0,1.28,0.39,1.28,1.16c0,0.17-0.02,0.33-0.05,0.49L51.19,73.45z"/>
</g>
</svg>
