<svg id="Layer_1" data-name="Layer 1" xmlns="http://www.w3.org/2000/svg" viewBox="0 0 100 100"><defs><style>.cls-1{fill:#231f20;}</style></defs><title> </title><path class="cls-1" d="M1.54,39.13H98.43a1.51,1.51,0,0,0,1.51-1.5V1.52A1.51,1.51,0,0,0,98.43,0H1.54A1.51,1.51,0,0,0,0,1.52V37.63A1.51,1.51,0,0,0,1.54,39.13Zm1.51-3V3H96.92V36.13Z"/><path class="cls-1" d="M99.79,97.59,71.64,48.85a1.65,1.65,0,0,0-2.78,0L40.72,97.59a1.6,1.6,0,0,0,0,1.61,1.63,1.63,0,0,0,1.39.8H98.4a1.63,1.63,0,0,0,1.39-.8A1.65,1.65,0,0,0,99.79,97.59Zm-54.9-.8L70.25,52.86,95.62,96.79Z"/><circle class="cls-1" cx="24.84" cy="67.13" r="24.93" transform="translate(-12.25 5.91) rotate(-10.9)"/></svg>