<svg id="Layer_1" data-name="Layer 1" xmlns="http://www.w3.org/2000/svg" viewBox="0 0 100 100"><defs><style>.cls-1{fill:#231f20;}</style></defs><title> </title><rect class="cls-1" y="79.99" width="9.42" height="4.16"/><path class="cls-1" d="M22.63,77.62l5.26-6V68.14H11.58v4.33H21.5l-4.79,5.42v3.56h2.46c2.91,0,4.36,1,4.36,2.86a2.53,2.53,0,0,1-1.16,2.22,5.72,5.72,0,0,1-3.2.78,11.78,11.78,0,0,1-3.58-.55,10.25,10.25,0,0,1-3.08-1.55l-2.09,4.13a12.65,12.65,0,0,0,4,1.85,18.45,18.45,0,0,0,4.84.65,12.6,12.6,0,0,0,5.35-1,7.46,7.46,0,0,0,3.24-2.75A7,7,0,0,0,29,84.31a6.33,6.33,0,0,0-1.63-4.41A7.93,7.93,0,0,0,22.63,77.62Z"/><polygon class="cls-1" points="34.4 42.3 37.65 42.3 37.65 55.49 41.39 55.49 41.39 39.3 34.4 39.3 34.4 42.3"/><path class="cls-1" d="M46.35,51.19a2.26,2.26,0,0,0-1.6.61,2.13,2.13,0,0,0-.65,1.61A2.2,2.2,0,0,0,44.75,55a2.28,2.28,0,0,0,3.19,0,2.2,2.2,0,0,0,.65-1.62,2.13,2.13,0,0,0-.65-1.61A2.25,2.25,0,0,0,46.35,51.19Z"/><path class="cls-1" d="M60.51,40a7,7,0,0,0-7.18,0,6.78,6.78,0,0,0-2.46,2.88,10.53,10.53,0,0,0-.89,4.5,10.55,10.55,0,0,0,.89,4.51,6.78,6.78,0,0,0,2.46,2.88,7,7,0,0,0,7.18,0A6.71,6.71,0,0,0,63,51.9a10.4,10.4,0,0,0,.9-4.51,10.38,10.38,0,0,0-.9-4.5A6.71,6.71,0,0,0,60.51,40ZM59.25,51.33a2.74,2.74,0,0,1-4.63,0,7.27,7.27,0,0,1-.85-3.94,7.26,7.26,0,0,1,.85-3.93,2.74,2.74,0,0,1,4.63,0,7.27,7.27,0,0,1,.84,3.93A7.28,7.28,0,0,1,59.25,51.33Z"/><polygon class="cls-1" points="72.27 55.49 78.28 41.73 78.28 39.3 65.3 39.3 65.3 44.99 68.63 44.99 68.63 42.35 74 42.35 68.19 55.49 72.27 55.49"/><path class="cls-1" d="M87.19,52.07a3.88,3.88,0,0,1-2.22.56,7.93,7.93,0,0,1-2.47-.39,6.87,6.87,0,0,1-2.13-1.07L78.88,54a8.83,8.83,0,0,0,2.82,1.28,12.73,12.73,0,0,0,3.37.45A8.49,8.49,0,0,0,88.8,55a5.18,5.18,0,0,0,2.26-1.94,5.12,5.12,0,0,0,.74-2.7,4.51,4.51,0,0,0-1.63-3.65,7.8,7.8,0,0,0-5.06-1.37H83.79l.26-3.08H90.8v-3H80.92l-.83,9.12h4.14a5.76,5.76,0,0,1,2.93.54A1.74,1.74,0,0,1,88,50.52,1.78,1.78,0,0,1,87.19,52.07Z"/><path class="cls-1" d="M10.77,31.25a4.6,4.6,0,0,0-1.41,3.47,4.78,4.78,0,0,0,1.41,3.53,4.69,4.69,0,0,0,3.47,1.42,4.69,4.69,0,0,0,3.47-1.42,4.74,4.74,0,0,0,1.41-3.53,4.56,4.56,0,0,0-1.41-3.47,4.83,4.83,0,0,0-3.47-1.35A4.83,4.83,0,0,0,10.77,31.25Z"/><rect class="cls-1" x="0.23" y="18.95" width="28.01" height="7.18"/><path class="cls-1" d="M14.24,15.19a4.69,4.69,0,0,0,3.47-1.42,4.74,4.74,0,0,0,1.41-3.53,4.56,4.56,0,0,0-1.41-3.47,4.83,4.83,0,0,0-3.47-1.35,4.83,4.83,0,0,0-3.47,1.35,4.6,4.6,0,0,0-1.41,3.47,4.78,4.78,0,0,0,1.41,3.53A4.69,4.69,0,0,0,14.24,15.19Z"/><rect class="cls-1" x="74.48" width="25.52" height="6.54"/><rect class="cls-1" x="74.48" y="13.3" width="25.52" height="6.54"/><polygon class="cls-1" points="93.9 70.14 85.09 79.01 76.29 70.14 70.42 76.29 79.09 85.02 70.42 93.75 76.29 99.9 85.09 91.03 93.9 99.9 99.77 93.75 91.1 85.02 99.77 76.29 93.9 70.14"/></svg>