<svg id="Layer_1" data-name="Layer 1" xmlns="http://www.w3.org/2000/svg" viewBox="0 0 100 100"><defs><style>.cls-1{fill:#231f20;}</style></defs><title> </title><path class="cls-1" d="M45.36,57.27a8.37,8.37,0,0,1-.18,2.35H57.55a6.87,6.87,0,0,1,.64-1,8.2,8.2,0,0,1,6.74-3.4,10.93,10.93,0,0,1,1.26.08,7.5,7.5,0,0,1,3.7,1.53,9,9,0,0,1,2.39,2.77h9.4a8.11,8.11,0,0,1-.59-2.57,8.25,8.25,0,0,1,.2-2.43H44.73A8.1,8.1,0,0,1,45.36,57.27Z"/><path class="cls-1" d="M30.21,58.43a6.47,6.47,0,0,0,1.63,3.94,7,7,0,0,0,5.26,2.38l.46,0a6.52,6.52,0,0,0,3.94-1.62,7.09,7.09,0,0,0,2.37-5.74,6.53,6.53,0,0,0-1.63-3.92A7,7,0,0,0,37,51.06h-.46a6.59,6.59,0,0,0-3.94,1.63A7,7,0,0,0,30.21,58.43Z"/><path class="cls-1" d="M44.4,66.52A3.22,3.22,0,0,0,43,66.2a3.12,3.12,0,0,0-.52,0,3.68,3.68,0,0,0-.91.24H32.42a3.58,3.58,0,0,0-1.15-.26h-.2a3.32,3.32,0,0,0-1.72.45,2.41,2.41,0,0,0-1.18,1.94l-.34,15,1.38.09v8.31l15.65.14V83.7L47,83.46h0s-1.33-15.09-1.33-15.1A2.34,2.34,0,0,0,44.4,66.52Z"/><path class="cls-1" d="M82.58,57a6.52,6.52,0,0,0,1.63,3.93,7,7,0,0,0,5.25,2.37l.46,0a6.46,6.46,0,0,0,3.92-1.62,7,7,0,0,0,2.37-5.72A6.43,6.43,0,0,0,94.59,52a7,7,0,0,0-5.26-2.39l-.46,0a6.51,6.51,0,0,0-3.93,1.62A7.06,7.06,0,0,0,82.58,57Z"/><path class="cls-1" d="M96.74,65a3.17,3.17,0,0,0-1.41-.32l-.52,0a4.19,4.19,0,0,0-.91.25H84.79a3.52,3.52,0,0,0-1.15-.26h-.2a3.26,3.26,0,0,0-1.71.45,2.39,2.39,0,0,0-1.18,1.93l-.33,15,1.37.09v13l15.61.14V82.16l2.13-.24h0S98,66.87,98,66.86A2.3,2.3,0,0,0,96.74,65Z"/><path class="cls-1" d="M69,58a6.06,6.06,0,0,0-3-1.22,8,8,0,0,0-1.08-.07,6.75,6.75,0,0,0-5.56,2.82,6,6,0,0,0-1.22,2.95,6.83,6.83,0,0,0,2.75,6.64,6.1,6.1,0,0,0,3,1.22,9.87,9.87,0,0,0,1.07.06,6.74,6.74,0,0,0,5.56-2.81,6,6,0,0,0,1.22-3A6.84,6.84,0,0,0,69,58Z"/><path class="cls-1" d="M76,81.37c-1.1-3.8-2.25-7.78-2.25-7.79A2.32,2.32,0,0,0,72.19,72a3.16,3.16,0,0,0-.81-.11,3.34,3.34,0,0,0-1.14.2.75.75,0,0,0-.13.06H59.45a.35.35,0,0,1-.24-.1l-6.66-6.66a3.45,3.45,0,0,0-2.35-1.07H50A2.94,2.94,0,0,0,47.33,67a3.34,3.34,0,0,0,1.07,2.55L57,78.18a.37.37,0,0,1,.1.24V99.66l15.65.14V89.48a2.23,2.23,0,0,0,1.48,1.3,2.73,2.73,0,0,0,.81.11,3.58,3.58,0,0,0,1.14-.19,3.35,3.35,0,0,0,1.63-1.12,2.38,2.38,0,0,0,.39-2.23Z"/><path class="cls-1" d="M12.54,25.29a7.16,7.16,0,0,0,3.52,1.44A8.13,8.13,0,0,0,24,23.46a7.19,7.19,0,0,0,1.46-3.52A8.15,8.15,0,0,0,22.14,12a7.22,7.22,0,0,0-3.52-1.45,8.16,8.16,0,0,0-7.91,3.27,7.22,7.22,0,0,0-1.45,3.52A8.15,8.15,0,0,0,12.54,25.29Z"/><path class="cls-1" d="M94,.11H36.36a6,6,0,0,0-6,6V27.77l5-.32V6.11a1,1,0,0,1,1-1H94a1,1,0,0,1,1,1V50.27a8.15,8.15,0,0,1,.72.72,8,8,0,0,1,2,4.8,8.12,8.12,0,0,1-.27,2.74A6,6,0,0,0,100,53.62V6.11A6,6,0,0,0,94,.11Z"/><path class="cls-1" d="M35.36,49.73V35.5l-5,.43v17a8.22,8.22,0,0,1,1.23-1.34A7.94,7.94,0,0,1,35.36,49.73Z"/><path class="cls-1" d="M38,34.43h2.37c1.31,0,2.14,0,2.18,0a2.07,2.07,0,0,0,1.74-1,3.19,3.19,0,0,0,.46-1.89,3.31,3.31,0,0,0-.61-1.87h0a2.15,2.15,0,0,0-1.72-.93h-.12l-12.65.79-5.54.1a2.17,2.17,0,0,0-.76.19l-.29.06-13.67,0a3.85,3.85,0,0,0-1.08-.17,2.86,2.86,0,0,0-.77.1l-.15.06h0l0,0A2.19,2.19,0,0,0,6,31.24L2.73,41.84C1.35,45.4.18,48.45.13,48.57a2,2,0,0,0,.29,2A3.21,3.21,0,0,0,2,51.64a3.63,3.63,0,0,0,1.18.21,3,3,0,0,0,.79-.1,2.19,2.19,0,0,0,1.51-1.4l2.26-7.29V59.38h1v20.1h.93v.12a2.65,2.65,0,0,0,2.64,2.65h.38a2.65,2.65,0,0,0,2.65-2.65v-.12h.55v-20h1.15v20h.65v.12a2.65,2.65,0,0,0,2.64,2.65h.38a2.65,2.65,0,0,0,2.65-2.65v-.12h.83v-20h1.17V35.26l9.85-.83Z"/><path class="cls-1" d="M53.18,33a6.46,6.46,0,0,0-.68,3.06,5.47,5.47,0,0,0,1.25,3.85,4.44,4.44,0,0,0,3.44,1.35,4.63,4.63,0,0,0,2-.43,3.41,3.41,0,0,0,1.43-1.22,3.25,3.25,0,0,0,.52-1.84A3.11,3.11,0,0,0,60.68,36a3.2,3.2,0,0,0-1.3-1.14,4.1,4.1,0,0,0-1.83-.41,3.5,3.5,0,0,0-2.59.93,3.25,3.25,0,0,1,.84-2.26,2.85,2.85,0,0,1,2.11-.78,3.46,3.46,0,0,1,2,.52l.89-1.78a4.13,4.13,0,0,0-1.31-.53,6.51,6.51,0,0,0-1.61-.19,5.7,5.7,0,0,0-2.79.66A4.61,4.61,0,0,0,53.18,33Zm2.54,3.76A1.92,1.92,0,0,1,57,36.31a1.89,1.89,0,0,1,1.29.42,1.45,1.45,0,0,1,.49,1.15A1.41,1.41,0,0,1,58.32,39a1.84,1.84,0,0,1-1.26.42A2,2,0,0,1,55.71,39a1.41,1.41,0,0,1-.49-1.12A1.44,1.44,0,0,1,55.72,36.75Z"/><rect class="cls-1" x="66.63" y="34.91" width="7.13" height="1.83"/><path class="cls-1" d="M83.47,38.48,81.21,33H78.8l3.49,8.12,0,.07a2,2,0,0,1-.54.78,1.27,1.27,0,0,1-.78.23,2,2,0,0,1-.7-.14,2,2,0,0,1-.62-.37l-.85,1.66a2.72,2.72,0,0,0,1,.54,4.13,4.13,0,0,0,1.25.2,3.39,3.39,0,0,0,2-.57,4.27,4.27,0,0,0,1.37-2L88,33H85.75Z"/><path class="cls-1" d="M47.67,19.37a2.51,2.51,0,0,1-1.44.36,5.1,5.1,0,0,1-1.6-.25,4.47,4.47,0,0,1-1.38-.69l-1,1.86a5.76,5.76,0,0,0,1.82.83,8.42,8.42,0,0,0,2.18.29,5.61,5.61,0,0,0,2.42-.47A3.38,3.38,0,0,0,50.17,20a3.31,3.31,0,0,0,.48-1.75,2.9,2.9,0,0,0-1.06-2.36A5,5,0,0,0,46.32,15h-.85l.16-2H50v-2h-6.4L43.07,17h2.68a3.79,3.79,0,0,1,1.9.35,1.23,1.23,0,0,1,0,2Z"/><polygon class="cls-1" points="57.9 19.54 59.79 17.63 61.68 19.54 62.94 18.22 61.08 16.34 62.94 14.47 61.68 13.15 59.79 15.06 57.9 13.15 56.64 14.47 58.5 16.34 56.64 18.22 57.9 19.54"/><polygon class="cls-1" points="72.02 21.59 72.02 11.1 67.49 11.1 67.49 13.05 69.59 13.05 69.59 21.59 72.02 21.59"/><path class="cls-1" d="M81.73,15.63A3.68,3.68,0,0,0,82.09,14a2.84,2.84,0,0,0-.49-1.64,3.28,3.28,0,0,0-1.36-1.08,5.21,5.21,0,0,0-2-.38,5.57,5.57,0,0,0-2.47.52A4.12,4.12,0,0,0,74,12.87L75.79,14a2.43,2.43,0,0,1,.93-.79A3,3,0,0,1,78,13a2,2,0,0,1,1.25.34,1.15,1.15,0,0,1,.42,1,1.94,1.94,0,0,1-.22.88,4.4,4.4,0,0,1-.87,1.06L74.5,20v1.57h7.93v-2H77.92l2.41-2.28A6.19,6.19,0,0,0,81.73,15.63Z"/></svg>