<?xml version="1.0" encoding="utf-8"?>
<!-- Generator: Adobe Illustrator 24.0.0, SVG Export Plug-In . SVG Version: 6.00 Build 0)  -->
<svg version="1.1" id="Layer_1" xmlns="http://www.w3.org/2000/svg" xmlns:xlink="http://www.w3.org/1999/xlink" x="0px" y="0px"
	 viewBox="0 0 100 100" style="enable-background:new 0 0 100 100;" xml:space="preserve">
<style type="text/css">
	.st0{fill:none;}
	.st1{fill:#FFFFFF;}
	.st2{fill:#FFFFFF;stroke:#FFFFFF;stroke-width:0.25;stroke-miterlimit:10;}
	.st3{fill:none;stroke:#000000;stroke-width:0.25;stroke-linecap:round;stroke-miterlimit:10;}
	.st4{fill:#D9D9D9;}
	.st5{fill:none;stroke:#000000;stroke-width:2;stroke-linejoin:round;stroke-miterlimit:10;}
	.st6{fill:none;stroke:#000000;stroke-width:0.4396;stroke-miterlimit:10;}
	.st7{fill:none;stroke:#000000;stroke-linecap:round;stroke-linejoin:round;}
	.st8{fill:none;stroke:#000000;stroke-linecap:round;stroke-linejoin:round;stroke-miterlimit:10;}
</style>
<g>
	<rect x="-0.07" y="32.7" width="23.38" height="2.29"/>
	<rect x="76.62" y="32.7" width="23.38" height="2.29"/>
	<polygon points="8.9,27.89 15.22,27.89 15.22,0.56 3.43,0.56 3.43,5.63 8.9,5.63 	"/>
	<path d="M12.46,52.47L1.92,62.42v4.1h20.66v-5.16H10.82l6.29-5.94c1.8-1.67,3.01-3.15,3.63-4.45c0.63-1.3,0.94-2.7,0.94-4.18
		c0-1.64-0.42-3.07-1.27-4.28c-0.85-1.21-2.03-2.15-3.55-2.81c-1.53-0.66-3.3-1-5.33-1c-2.42,0-4.57,0.45-6.44,1.35
		c-1.88,0.9-3.35,2.14-4.41,3.73l4.61,2.97c0.65-0.91,1.46-1.6,2.42-2.05c0.96-0.45,2.04-0.68,3.24-0.68c1.43,0,2.52,0.3,3.26,0.88
		c0.74,0.58,1.11,1.42,1.11,2.52c0,0.76-0.19,1.52-0.58,2.29C14.34,50.48,13.58,51.4,12.46,52.47z"/>
	<path d="M91.45,21.9c-0.91,0.61-2.16,0.92-3.75,0.92c-1.43,0-2.83-0.22-4.2-0.65c-1.37-0.43-2.57-1.04-3.61-1.82l-2.46,4.84
		c1.3,0.94,2.88,1.66,4.75,2.17c1.86,0.51,3.75,0.76,5.68,0.76c2.47,0,4.56-0.4,6.27-1.21c1.7-0.81,2.98-1.88,3.81-3.22
		s1.25-2.81,1.25-4.39c0-2.06-0.64-3.78-1.91-5.18c-1.27-1.39-3.11-2.28-5.51-2.67l6.17-7.03v-4.1H78.8V5.4h11.64l-5.63,6.37v4.18
		h2.89c3.41,0,5.12,1.12,5.12,3.36C92.82,20.42,92.36,21.29,91.45,21.9z"/>
	<polygon points="89.21,66.06 95.38,66.06 95.38,60.31 99.84,60.31 99.84,55.16 95.38,55.16 95.38,50.04 89.41,50.04 89.41,55.16 
		82.06,55.16 94.02,38.72 87.38,38.72 74.49,56.06 74.49,60.31 89.21,60.31 	"/>
	<polygon points="47.24,43.17 52.65,43.17 52.65,36.04 59.95,36.04 59.95,30.91 52.65,30.91 52.65,23.78 47.24,23.78 47.24,30.91 
		39.98,30.91 39.98,36.04 47.24,36.04 	"/>
	<path d="M9.31,92.35c0.79,0,1.41-0.34,1.87-1.02c0.45-0.68,0.68-1.73,0.68-3.16c0-1.42-0.23-2.47-0.68-3.16
		C10.72,84.34,10.1,84,9.31,84c-0.78,0-1.4,0.34-1.85,1.02c-0.45,0.68-0.68,1.73-0.68,3.16c0,1.42,0.23,2.47,0.68,3.16
		S8.53,92.35,9.31,92.35z"/>
	<path d="M-0.07,100h100V75.44h-100V100z M90.56,81.73h5.56v12.88h-2.98V84.12h-2.58V81.73z M17.75,86.36h1.77v1h16V82.7h0.38v4.66
		h16.69V82.7h0.38v4.66h16.69V82.7h0.38v4.66h16v-1h1.77v3.49h-1.77v-0.98h-16v4.78h-0.38v-4.78H52.97v4.78h-0.38v-4.78H35.9v4.78
		h-0.38v-4.78h-16v0.98h-1.77V86.36z M4.45,84.56c0.48-1.01,1.14-1.78,1.98-2.31c0.84-0.53,1.8-0.8,2.88-0.8
		c1.08,0,2.04,0.27,2.88,0.8c0.84,0.53,1.5,1.3,1.98,2.31c0.48,1.01,0.71,2.21,0.71,3.61c0,1.4-0.24,2.6-0.71,3.61
		c-0.48,1.01-1.14,1.78-1.98,2.31c-0.84,0.53-1.8,0.8-2.88,0.8c-1.08,0-2.04-0.27-2.88-0.8c-0.84-0.53-1.5-1.3-1.98-2.31
		c-0.48-1.01-0.71-2.21-0.71-3.61C3.74,86.77,3.98,85.57,4.45,84.56z"/>
</g>
</svg>
