<?xml version="1.0" encoding="utf-8"?>
<!-- Generator: Adobe Illustrator 24.0.0, SVG Export Plug-In . SVG Version: 6.00 Build 0)  -->
<svg version="1.1" id="Layer_1" xmlns="http://www.w3.org/2000/svg" xmlns:xlink="http://www.w3.org/1999/xlink" x="0px" y="0px"
	 viewBox="0 0 100 100" style="enable-background:new 0 0 100 100;" xml:space="preserve">
<style type="text/css">
	.st0{fill:none;}
	.st1{fill:#FFFFFF;}
	.st2{fill:#FFFFFF;stroke:#FFFFFF;stroke-width:0.25;stroke-miterlimit:10;}
	.st3{fill:none;stroke:#000000;stroke-width:0.25;stroke-linecap:round;stroke-miterlimit:10;}
	.st4{fill:#D9D9D9;}
	.st5{fill:none;stroke:#000000;stroke-width:2;stroke-linejoin:round;stroke-miterlimit:10;}
	.st6{fill:none;stroke:#000000;stroke-width:0.4396;stroke-miterlimit:10;}
	.st7{fill:none;stroke:#000000;stroke-linecap:round;stroke-linejoin:round;}
	.st8{fill:none;stroke:#000000;stroke-linecap:round;stroke-linejoin:round;stroke-miterlimit:10;}
</style>
<g>
	<polygon points="19.06,70.64 10.92,70.64 10.92,81.37 -0.01,81.37 -0.01,89.08 10.92,89.08 10.92,99.82 19.06,99.82 19.06,89.08 
		30.05,89.08 30.05,81.37 19.06,81.37 	"/>
	<path d="M5.5,44.51H3.18c-0.62,0.93-1.1,2.03-1.44,3.28c-0.34,1.25-0.51,2.59-0.51,4.01s0.17,2.76,0.51,4
		c0.34,1.25,0.82,2.34,1.44,3.29H5.5c-0.65-1.15-1.13-2.32-1.43-3.51s-0.45-2.45-0.45-3.78s0.15-2.59,0.45-3.78
		S4.84,45.66,5.5,44.51z"/>
	<path d="M11.68,53.76c-0.36,0.25-0.86,0.37-1.49,0.37c-0.57,0-1.13-0.08-1.67-0.26c-0.54-0.17-1.02-0.41-1.43-0.72l-1,1.93
		c0.52,0.37,1.15,0.66,1.89,0.86c0.74,0.2,1.5,0.3,2.27,0.3c1,0,1.83-0.16,2.51-0.49s1.19-0.76,1.52-1.31
		c0.33-0.54,0.5-1.15,0.5-1.81c0-1.03-0.37-1.85-1.1-2.46s-1.87-0.92-3.4-0.92H9.39l0.17-2.07h4.55v-2.02H7.46L6.9,51.3h2.79
		c0.93,0,1.59,0.12,1.97,0.36c0.38,0.24,0.57,0.59,0.57,1.06C12.23,53.16,12.04,53.51,11.68,53.76z"/>
	<polygon points="21.89,47.29 19.93,49.27 17.97,47.29 16.66,48.66 18.59,50.61 16.66,52.56 17.97,53.93 19.93,51.95 21.89,53.93 
		23.2,52.56 21.27,50.61 23.2,48.66 	"/>
	<path d="M29.98,49.6l2.46-2.8v-1.63h-7.63v2.02h4.64l-2.24,2.54v1.67h1.15c1.36,0,2.04,0.45,2.04,1.34c0,0.45-0.18,0.79-0.54,1.04
		c-0.36,0.24-0.86,0.37-1.49,0.37c-0.57,0-1.13-0.08-1.67-0.26c-0.54-0.17-1.03-0.41-1.44-0.72l-0.98,1.93
		c0.52,0.37,1.15,0.66,1.89,0.86c0.74,0.2,1.5,0.3,2.26,0.3c0.99,0,1.82-0.16,2.5-0.48s1.19-0.75,1.52-1.28s0.5-1.12,0.5-1.75
		c0-0.82-0.25-1.51-0.76-2.06C31.67,50.11,30.93,49.75,29.98,49.6z"/>
	<path d="M41.58,45.64c-0.71-0.45-1.51-0.67-2.41-0.67c-0.9,0-1.71,0.22-2.41,0.67s-1.26,1.09-1.66,1.94s-0.6,1.86-0.6,3.03
		c0,1.17,0.2,2.18,0.6,3.03s0.95,1.49,1.66,1.94s1.51,0.67,2.41,0.67c0.9,0,1.71-0.22,2.41-0.67s1.26-1.09,1.66-1.94
		s0.6-1.85,0.6-3.03c0-1.17-0.2-2.18-0.6-3.03S42.28,46.09,41.58,45.64z M40.73,53.26c-0.38,0.57-0.9,0.86-1.56,0.86
		c-0.65,0-1.17-0.29-1.55-0.86c-0.38-0.57-0.57-1.45-0.57-2.65c0-1.19,0.19-2.08,0.57-2.65c0.38-0.57,0.9-0.86,1.55-0.86
		c0.66,0,1.19,0.29,1.56,0.86c0.38,0.57,0.57,1.45,0.57,2.65C41.3,51.8,41.11,52.69,40.73,53.26z"/>
	<path d="M47.11,44.51h-2.32c0.65,1.15,1.13,2.32,1.44,3.51c0.31,1.19,0.46,2.45,0.46,3.78s-0.15,2.59-0.46,3.78
		c-0.31,1.19-0.79,2.36-1.44,3.51h2.32c0.64-0.95,1.13-2.04,1.46-3.28s0.5-2.58,0.5-4.01s-0.17-2.77-0.51-4.02
		S47.74,45.43,47.11,44.51z"/>
	<polygon points="55.91,47.01 53.9,47.01 53.9,49.66 51.21,49.66 51.21,51.56 53.9,51.56 53.9,54.21 55.91,54.21 55.91,51.56 
		58.62,51.56 58.62,49.66 55.91,49.66 	"/>
	<path d="M65.01,44.51h-2.32c-0.62,0.93-1.1,2.03-1.44,3.28c-0.34,1.25-0.51,2.59-0.51,4.01s0.17,2.76,0.51,4
		c0.34,1.25,0.82,2.34,1.44,3.29h2.32c-0.65-1.15-1.13-2.32-1.43-3.51s-0.45-2.45-0.45-3.78s0.15-2.59,0.45-3.78
		S64.36,45.66,65.01,44.51z"/>
	<path d="M73.8,54.45c0.33-0.54,0.5-1.15,0.5-1.81c0-1.03-0.37-1.85-1.1-2.46s-1.87-0.92-3.4-0.92h-0.89l0.17-2.07h4.55v-2.02h-6.65
		l-0.56,6.13h2.79c0.93,0,1.59,0.12,1.97,0.36c0.38,0.24,0.57,0.59,0.57,1.06c0,0.45-0.18,0.79-0.54,1.04s-0.86,0.37-1.49,0.37
		c-0.57,0-1.13-0.08-1.67-0.26c-0.54-0.17-1.02-0.41-1.43-0.72l-1,1.93c0.52,0.37,1.15,0.66,1.89,0.86c0.74,0.2,1.5,0.3,2.27,0.3
		c1,0,1.83-0.16,2.51-0.49S73.46,54.99,73.8,54.45z"/>
	<polygon points="81.4,47.29 79.44,49.27 77.48,47.29 76.17,48.66 78.1,50.61 76.17,52.56 77.48,53.93 79.44,51.95 81.4,53.93 
		82.71,52.56 80.78,50.61 82.71,48.66 	"/>
	<polygon points="89.27,56.06 93.32,46.8 93.32,45.16 84.58,45.16 84.58,48.99 86.82,48.99 86.82,47.22 90.44,47.22 86.53,56.06 	
		"/>
	<path d="M94.49,59.08h2.32c0.64-0.95,1.13-2.04,1.46-3.28s0.5-2.58,0.5-4.01s-0.17-2.77-0.51-4.02s-0.82-2.34-1.46-3.26h-2.32
		c0.65,1.15,1.13,2.32,1.44,3.51c0.31,1.19,0.46,2.45,0.46,3.78s-0.15,2.59-0.46,3.78C95.62,56.76,95.14,57.93,94.49,59.08z"/>
	<polygon points="99.87,76.39 94.01,70.24 85.2,79.11 76.4,70.24 70.53,76.39 79.2,85.12 70.53,93.85 76.4,100 85.2,91.13 
		94.01,100 99.87,93.85 91.21,85.12 	"/>
	<rect x="68.1" y="22.83" width="31.61" height="8.1"/>
	<rect x="68.1" y="6.36" width="31.61" height="8.1"/>
	<path d="M15.19,10.66c1.49,0,2.75-0.51,3.77-1.53c1.02-1.02,1.53-2.3,1.53-3.83s-0.51-2.79-1.53-3.77
		c-1.02-0.98-2.28-1.47-3.77-1.47c-1.49,0-2.74,0.49-3.77,1.47C10.41,2.51,9.89,3.77,9.89,5.3s0.51,2.81,1.53,3.83
		C12.45,10.15,13.71,10.66,15.19,10.66z"/>
	<path d="M18.96,35.69c1.02-1.02,1.53-2.3,1.53-3.83c0-1.53-0.51-2.79-1.53-3.77c-1.02-0.98-2.28-1.47-3.77-1.47
		c-1.49,0-2.74,0.49-3.77,1.47c-1.02,0.98-1.53,2.23-1.53,3.77c0,1.53,0.51,2.81,1.53,3.83c1.02,1.02,2.28,1.53,3.77,1.53
		C16.68,37.22,17.94,36.71,18.96,35.69z"/>
	<rect x="0" y="14.75" width="30.39" height="7.79"/>
</g>
</svg>
