<svg id="Layer_1" data-name="Layer 1" xmlns="http://www.w3.org/2000/svg" viewBox="0 0 100 100"><defs><style>.cls-1{fill:#231f20;}</style></defs><title> </title><path class="cls-1" d="M6.73,67.54v.34A1.49,1.49,0,0,0,8.17,69.4c1,0,2,0,2.88,0,8.66,0,13.86-1.37,18-4.72,4.69-3.82,7.72-10.34,11.48-19.15A50.56,50.56,0,0,1,46,35.33c1.46-1.93,2.78-2.9,3.92-2.9,1.66,0,4.55,2.13,8.92,12.3.52,1.21,1,2.37,1.48,3.49l.42,1H58.41v1h2.7c2.77,6.5,5,11.31,9,14.57,4.47,3.69,10.8,5.06,21.16,4.58a1.49,1.49,0,0,0,1.43-1.54v-.33a1.46,1.46,0,0,0-.48-1.06,1.53,1.53,0,0,0-1.08-.4c-9.5.43-15.17-.71-19-3.85C69,59.61,67,55.59,64.68,50.2h2.73v-1h-3v.37c-.37-.86-.75-1.75-1.14-2.68-.47-1.12-1-2.29-1.49-3.5A49,49,0,0,0,56.17,33c-2.06-2.66-4.12-3.95-6.3-3.95s-4.37,1.38-6.5,4.19a53.8,53.8,0,0,0-5.87,11c-.75,1.75-1.47,3.39-2.17,5h-.92v1h.46C32.39,55.57,30,59.63,27,62.13c-3.83,3.12-9.06,4.23-18.7,3.94a1.49,1.49,0,0,0-1.08.41A1.48,1.48,0,0,0,6.73,67.54Z"/><rect class="cls-1" x="70.41" y="49.2" width="3" height="1"/><rect class="cls-1" x="28.41" y="49.2" width="3" height="1"/><rect class="cls-1" x="94.41" y="49.2" width="3" height="1"/><rect class="cls-1" x="88.41" y="49.2" width="3" height="1"/><rect class="cls-1" x="82.41" y="49.2" width="3" height="1"/><rect class="cls-1" x="76.41" y="49.2" width="3" height="1"/><rect class="cls-1" x="22.41" y="49.2" width="3" height="1"/><rect class="cls-1" x="40.41" y="49.2" width="3" height="1"/><rect class="cls-1" x="4.41" y="49.2" width="3" height="1"/><rect class="cls-1" x="16.41" y="49.2" width="3" height="1"/><rect class="cls-1" x="46.41" y="49.2" width="3" height="1"/><rect class="cls-1" x="52.41" y="49.2" width="3" height="1"/><rect class="cls-1" x="10.41" y="49.2" width="3" height="1"/><path class="cls-1" d="M98.45,97H3V1.52a1.5,1.5,0,0,0-3,0v97H0A1.5,1.5,0,0,0,1.5,100h97a1.5,1.5,0,0,0,0-3Z"/></svg>