<?xml version="1.0" encoding="utf-8"?>
<!-- Generator: Adobe Illustrator 24.0.0, SVG Export Plug-In . SVG Version: 6.00 Build 0)  -->
<svg version="1.1" id="Layer_1" xmlns="http://www.w3.org/2000/svg" xmlns:xlink="http://www.w3.org/1999/xlink" x="0px" y="0px"
	 viewBox="0 0 100 100" style="enable-background:new 0 0 100 100;" xml:space="preserve">
<style type="text/css">
	.st0{fill:none;}
	.st1{fill:#FFFFFF;}
	.st2{fill:#FFFFFF;stroke:#FFFFFF;stroke-width:0.25;stroke-miterlimit:10;}
	.st3{fill:none;stroke:#000000;stroke-width:0.25;stroke-linecap:round;stroke-miterlimit:10;}
	.st4{fill:#D9D9D9;}
	.st5{fill:none;stroke:#000000;stroke-width:2;stroke-linejoin:round;stroke-miterlimit:10;}
	.st6{fill:none;stroke:#000000;stroke-width:0.4396;stroke-miterlimit:10;}
	.st7{fill:none;stroke:#000000;stroke-linecap:round;stroke-linejoin:round;}
	.st8{fill:none;stroke:#000000;stroke-linecap:round;stroke-linejoin:round;stroke-miterlimit:10;}
</style>
<g>
	<polygon points="85.24,76.89 78.12,76.89 73.1,83.63 68.21,76.89 60.7,76.89 69.28,88.34 60.4,99.97 67.7,99.97 72.93,92.89 
		77.99,99.97 85.58,99.97 76.66,88.17 	"/>
	<path d="M95.93,80.53c1.32-1.14,2.21-2.12,2.68-2.94s0.71-1.68,0.71-2.59c0-1.61-0.67-2.9-2-3.91c-1.33-1-3.15-1.5-5.47-1.5
		c-1.86,0-3.45,0.32-4.76,0.95c-1.32,0.63-2.33,1.49-3.05,2.57l3.43,2.06c0.4-0.57,0.95-1.02,1.65-1.35c0.7-0.33,1.48-0.5,2.34-0.5
		c1.03,0,1.8,0.19,2.32,0.56c0.51,0.37,0.77,0.86,0.77,1.46c0,0.43-0.15,0.88-0.45,1.35c-0.3,0.47-0.85,1.05-1.65,1.74l-7.42,6.44
		v2.87H100v-3.61h-8.19L95.93,80.53z"/>
	<path d="M77.6,48.52c-0.48-1.31-1.6-2.31-2.99-2.62c-1.12-10.3-3.42-14.03-7.64-15.35c-4.71-1.48-10.03,3.61-15.45,10.54V0.05h-3
		v45.04c-0.82,1.13-1.65,2.28-2.47,3.44H28.82c-0.42-1.03-1.26-1.85-2.3-2.26L26.47,29.3c0-0.83-0.68-1.51-1.52-1.51c0,0,0,0-0.01,0
		c-0.41,0-0.79,0.16-1.07,0.45c-0.29,0.29-0.44,0.67-0.44,1.07l0.05,16.96c-1.03,0.41-1.86,1.23-2.28,2.25H0.05v3h21.12
		c0.43,1.12,1.32,1.99,2.46,2.4c0.46,9.77,2.13,14.51,5.35,15.52c4.94,1.53,11.01-7.05,18.03-17.01c0.21-0.3,0.43-0.61,0.64-0.91
		h0.88V100h3V51.52h18.4c0.42,0.99,1.21,1.78,2.21,2.2c0.21,4.18,0.33,9.25,0.35,15.41c0,0.83,0.68,1.51,1.52,1.51c0,0,0,0,0.01,0
		c0.4,0,0.79-0.16,1.07-0.45c0.29-0.29,0.44-0.67,0.44-1.07c-0.02-5.99-0.12-11.05-0.32-15.36c1.05-0.4,1.91-1.21,2.34-2.24H100v-3
		H77.6z M29.89,66.56c-0.67-0.21-2.67-1.79-3.22-12.73c1.01-0.44,1.79-1.27,2.19-2.3h15.09C39.03,58.49,32.61,67.4,29.89,66.56z
		 M51.53,46.12c5.33-7.25,10.94-13.81,14.54-12.67c2.27,0.71,4.39,1.91,5.53,12.97c-0.8,0.48-1.41,1.22-1.74,2.11H51.53V46.12z"/>
</g>
</svg>
