<svg id="Layer_1" data-name="Layer 1" xmlns="http://www.w3.org/2000/svg" viewBox="0 0 100 100"><defs><style>.cls-1{fill:#231f20;}</style></defs><title> </title><polygon class="cls-1" points="99.19 87.9 97.95 87.9 97.95 91.23 88.03 91.23 88.03 87.9 87.03 87.9 87.03 91.23 76.8 91.23 76.8 87.9 75.8 87.9 75.8 91.23 65.57 91.23 65.57 87.9 64.57 87.9 64.57 91.23 54.77 91.23 54.77 87.9 53.52 87.9 53.52 95.38 54.77 95.38 54.77 92.91 64.57 92.91 64.57 95.38 65.57 95.38 65.57 92.91 75.8 92.91 75.8 95.38 76.8 95.38 76.8 92.91 87.03 92.91 87.03 95.38 88.03 95.38 88.03 92.91 97.95 92.91 97.95 95.38 99.19 95.38 99.19 92.91 99.2 92.91 99.2 91.23 99.19 91.23 99.19 87.9"/><rect class="cls-1" x="12.62" y="78.97" width="4.16" height="16.63"/><rect class="cls-1" x="18.85" y="83.13" width="4.16" height="12.47"/><rect class="cls-1" x="25.09" y="76.89" width="4.16" height="18.71"/><rect class="cls-1" x="6.38" y="87.29" width="4.16" height="8.32"/><polygon class="cls-1" points="2.22 74.81 0.14 74.81 0.14 99.76 33.41 99.76 33.41 97.68 2.22 97.68 2.22 74.81"/><path class="cls-1" d="M59.66,65.61,70.06,76a3,3,0,0,0,2.17.91,3.08,3.08,0,0,0,2.2-5.24L64,61.25l.31-.45a19.92,19.92,0,0,0-1.65-24.6l0,0A19.87,19.87,0,0,0,28,49.52a18.57,18.57,0,0,0,.12,2.12A19.57,19.57,0,0,0,30,58.05v0a19.87,19.87,0,0,0,29.23,7.85ZM47.93,63.26a13.66,13.66,0,0,1-10.67-5.19l0,0a13.63,13.63,0,0,1-2.84-6.41,13.48,13.48,0,0,1-.21-2.12,13.7,13.7,0,0,1,26.15-5.79.05.05,0,0,1,0,0,13.51,13.51,0,0,1,1.31,5.75A13.76,13.76,0,0,1,47.93,63.26Z"/><path class="cls-1" d="M1.09,23.19l.26,0,41.1-9.77a1.1,1.1,0,1,0-.51-2.15L7.63,19.39a5.26,5.26,0,0,0-5-4.37L3.5,1.22a1.11,1.11,0,0,0-2.21-.14L0,22a1.1,1.1,0,0,0,.4.92A1.09,1.09,0,0,0,1.09,23.19Zm4.1-6.53a4.46,4.46,0,0,1,1.72,2.9l-4.62,1.1.3-4.91A4.48,4.48,0,0,1,5.19,16.66Z"/><rect class="cls-1" x="5.79" y="0.92" width="1.24" height="2.71" transform="translate(2.49 7.84) rotate(-74.37)"/><rect class="cls-1" x="28.35" y="6.33" width="1.24" height="4.56" transform="translate(12.86 34.17) rotate(-74.34)"/><rect class="cls-1" x="20.53" y="4.14" width="1.24" height="4.56" transform="matrix(0.27, -0.96, 0.96, 0.27, 9.27, 25.05)"/><rect class="cls-1" x="12.72" y="1.94" width="1.24" height="4.56" transform="translate(5.67 15.92) rotate(-74.32)"/><rect class="cls-1" x="35.27" y="9.19" width="1.24" height="2.71" transform="translate(16.06 42.27) rotate(-74.37)"/><polygon class="cls-1" points="99.32 6.75 93.45 0.61 84.65 9.48 75.85 0.61 69.98 6.75 78.64 15.49 69.98 24.22 75.85 30.36 84.65 21.5 93.45 30.36 99.32 24.22 90.66 15.49 99.32 6.75"/></svg>