<svg id="Layer_1" data-name="Layer 1" xmlns="http://www.w3.org/2000/svg" viewBox="0 0 100 100"><defs><style>.cls-1{fill:#231f20;}</style></defs><title> </title><path class="cls-1" d="M11.35,36.38a16.2,16.2,0,0,0,13.06,5.38,14.66,14.66,0,0,0,8.92-3.68A16,16,0,0,0,38.72,25,14.57,14.57,0,0,0,35,16.1a16.15,16.15,0,0,0-12-5.44c-.35,0-.7,0-1.05,0A14.71,14.71,0,0,0,13,14.38,16,16,0,0,0,7.65,27.45,14.68,14.68,0,0,0,11.35,36.38Z"/><path class="cls-1" d="M61.42,69.56a4.92,4.92,0,0,0-1.41.21L46.86,75.05c-.41-4.64-.93-10.53-1.34-15.08l-.06-.66C45.25,57,45.08,55.09,45,54v-.07c-.06-.67-.09-1.07-.1-1.08a5.5,5.5,0,0,0-.28-1.25,7.07,7.07,0,0,0-.43-.93,1.51,1.51,0,0,0-.09-.18,5.6,5.6,0,0,0-2.39-2.27,7.82,7.82,0,0,0-3.55-.81,9.69,9.69,0,0,0-1.3.09,9.26,9.26,0,0,0-2.3.62h-23a8.92,8.92,0,0,0-2.89-.65h-.5a8.24,8.24,0,0,0-4.32,1.13,6,6,0,0,0-3,4.88L.09,96.05c7.58,6.19,42.51,3.82,42.41,1l.06-.06c.4,0-.79-8.13,1.55-10.11l18.7-7.71a4.9,4.9,0,0,0-1.39-9.59Z"/><path class="cls-1" d="M97.92,2.05a6.43,6.43,0,0,0-4.71-2H26.6a6.43,6.43,0,0,0-4.71,2,6.48,6.48,0,0,0-1.95,4.73v.93a17.32,17.32,0,0,1,1.8-.27,18.79,18.79,0,0,1,3.52.13V6.78a1.3,1.3,0,0,1,.4-.94,1.26,1.26,0,0,1,.94-.4H93.21a1.26,1.26,0,0,1,.94.4,1.3,1.3,0,0,1,.4.94V47a1.3,1.3,0,0,1-.4.94,1.26,1.26,0,0,1-.94.4H46.61A9.28,9.28,0,0,1,48,52.15h0c0,.28.08.74.15,1.51h9.14V59H48.58l.48,5.36H77.23a1.3,1.3,0,0,0,1.33-1.34V60.37a1.3,1.3,0,0,0-.38-1,1.26,1.26,0,0,0-1-.38H62.57V53.67H93.21A6.69,6.69,0,0,0,99.87,47V6.78A6.48,6.48,0,0,0,97.92,2.05Z"/><polygon class="cls-1" points="45.65 15.21 45.65 40.32 79.05 40.32 79.05 38 47.97 38 47.97 15.21 45.65 15.21"/><polygon class="cls-1" points="61.4 21.43 51.22 31.62 53.34 33.74 61.4 25.68 66.24 30.51 72.77 23.81 75.98 26.93 78.92 15.34 67.4 18.59 70.62 21.71 66.21 26.24 61.4 21.43"/></svg>