<svg id="Layer_1" data-name="Layer 1" xmlns="http://www.w3.org/2000/svg" viewBox="0 0 100 100"><defs><style>.cls-1{fill:#231f20;}</style></defs><title>IAB_icons_fall2019</title><polygon class="cls-1" points="3.3 32.63 8.58 32.63 2.87 45.54 6.87 45.54 12.78 32.02 12.78 29.63 0.03 29.63 0.03 35.22 3.3 35.22 3.3 32.63"/><polygon class="cls-1" points="19.58 32.33 19.58 36.2 15.65 36.2 15.65 38.97 19.58 38.97 19.58 42.84 22.51 42.84 22.51 38.97 26.47 38.97 26.47 36.2 22.51 36.2 22.51 32.33 19.58 32.33"/><path class="cls-1" d="M37.62,28.67H34.23a16.1,16.1,0,0,0-2.1,4.79,23.49,23.49,0,0,0,0,11.7A16.45,16.45,0,0,0,34.23,50h3.39a20.46,20.46,0,0,1-2.09-5.12,23.37,23.37,0,0,1,0-11A20.68,20.68,0,0,1,37.62,28.67Z"/><path class="cls-1" d="M44.14,45.82a8.36,8.36,0,0,0,3.67-.72,4.87,4.87,0,0,0,2.95-4.56A4.44,4.44,0,0,0,49.15,37c-1.06-.9-2.72-1.34-5-1.34h-1.3l.25-3h6.64V29.63H40.07l-.82,9h4.07a5.71,5.71,0,0,1,2.88.52A1.71,1.71,0,0,1,47,40.65a1.75,1.75,0,0,1-.8,1.53,3.84,3.84,0,0,1-2.18.54,8,8,0,0,1-2.43-.37,6.75,6.75,0,0,1-2.09-1.06l-1.46,2.82a8.36,8.36,0,0,0,2.76,1.26A12.4,12.4,0,0,0,44.14,45.82Z"/><polygon class="cls-1" points="64.16 32.74 61.29 35.63 58.43 32.74 56.52 34.74 59.34 37.59 56.52 40.43 58.43 42.43 61.29 39.54 64.16 42.43 66.07 40.43 63.25 37.59 66.07 34.74 64.16 32.74"/><polygon class="cls-1" points="74.53 45.54 78.22 45.54 78.22 29.63 71.35 29.63 71.35 32.58 74.53 32.58 74.53 45.54"/><path class="cls-1" d="M87,37.36l-6.13,5.8v2.38h12v-3H86l3.66-3.45a9.18,9.18,0,0,0,2.11-2.6,5.41,5.41,0,0,0,.55-2.43,4.28,4.28,0,0,0-.74-2.49,4.73,4.73,0,0,0-2.07-1.63,7.62,7.62,0,0,0-3.1-.58,8.61,8.61,0,0,0-3.75.78,6.31,6.31,0,0,0-2.57,2.17L82.81,34a3.58,3.58,0,0,1,1.41-1.19,4.29,4.29,0,0,1,1.89-.4A3,3,0,0,1,88,33a1.76,1.76,0,0,1,.64,1.47,2.82,2.82,0,0,1-.34,1.32A6.12,6.12,0,0,1,87,37.36Z"/><path class="cls-1" d="M93.75,50h3.39a15.44,15.44,0,0,0,2.13-4.78,23.77,23.77,0,0,0,0-11.73,15.54,15.54,0,0,0-2.12-4.77H93.75a21.51,21.51,0,0,1,2.1,5.13,23,23,0,0,1,0,11A21.28,21.28,0,0,1,93.75,50Z"/><path class="cls-1" d="M3.85,0H1.77A9.85,9.85,0,0,0,.48,2.94,13.87,13.87,0,0,0,0,6.54a13.85,13.85,0,0,0,.45,3.59,10.08,10.08,0,0,0,1.29,2.94H3.85A12.8,12.8,0,0,1,2.57,9.92a13.67,13.67,0,0,1-.41-3.38,13.75,13.75,0,0,1,.41-3.39A12.8,12.8,0,0,1,3.85,0Z"/><path class="cls-1" d="M11.33,2.4V.59h-6l-.5,5.5h2.5a3.58,3.58,0,0,1,1.77.32,1,1,0,0,1,.51,1,1.1,1.1,0,0,1-.49.94,2.39,2.39,0,0,1-1.34.33,5.05,5.05,0,0,1-1.5-.23A4.17,4.17,0,0,1,5,7.75l-.9,1.73a5.13,5.13,0,0,0,1.7.78,7.75,7.75,0,0,0,2,.27,5.23,5.23,0,0,0,2.26-.44,3.09,3.09,0,0,0,1.36-1.17,3.05,3.05,0,0,0,.45-1.63,2.73,2.73,0,0,0-1-2.21,4.67,4.67,0,0,0-3-.82h-.8L7.25,2.4Z"/><polygon class="cls-1" points="15.31 3.73 17.05 5.47 15.31 7.22 16.48 8.45 18.25 6.68 20 8.45 21.18 7.22 19.45 5.47 21.18 3.73 20 2.5 18.25 4.27 16.48 2.5 15.31 3.73"/><polygon class="cls-1" points="26.23 10.36 28.49 10.36 28.49 0.59 24.27 0.59 24.27 2.4 26.23 2.4 26.23 10.36"/><path class="cls-1" d="M32.18,2.56a2.7,2.7,0,0,1,1.16-.24,1.82,1.82,0,0,1,1.16.31,1.07,1.07,0,0,1,.4.9,1.78,1.78,0,0,1-.21.82,4.07,4.07,0,0,1-.81,1L30.11,8.9v1.46H37.5V8.52H33.29L35.54,6.4a5.75,5.75,0,0,0,1.3-1.6,3.43,3.43,0,0,0,.34-1.49,2.61,2.61,0,0,0-.46-1.53,2.85,2.85,0,0,0-1.27-1A4.68,4.68,0,0,0,33.54.42a5.29,5.29,0,0,0-2.3.48,3.91,3.91,0,0,0-1.58,1.33L31.31,3.3A2.22,2.22,0,0,1,32.18,2.56Z"/><path class="cls-1" d="M38,13.07h2.08a9.5,9.5,0,0,0,1.31-2.94,13.74,13.74,0,0,0,.45-3.59,13.89,13.89,0,0,0-.45-3.61A9.6,9.6,0,0,0,40.11,0H38a12.84,12.84,0,0,1,1.29,3.15,13.75,13.75,0,0,1,.41,3.39,13.67,13.67,0,0,1-.41,3.38A12.84,12.84,0,0,1,38,13.07Z"/><polygon class="cls-1" points="46.73 2.25 46.73 4.62 44.31 4.62 44.31 6.33 46.73 6.33 46.73 8.7 48.53 8.7 48.53 6.33 50.96 6.33 50.96 4.62 48.53 4.62 48.53 2.25 46.73 2.25"/><path class="cls-1" d="M53.4,6.54a13.85,13.85,0,0,0,.45,3.59,10.08,10.08,0,0,0,1.29,2.94h2.08a12.8,12.8,0,0,1-1.28-3.15,13.67,13.67,0,0,1-.41-3.38,13.75,13.75,0,0,1,.41-3.39A12.8,12.8,0,0,1,57.22,0H55.14a9.85,9.85,0,0,0-1.29,2.94A13.87,13.87,0,0,0,53.4,6.54Z"/><path class="cls-1" d="M59,.9a3.88,3.88,0,0,0-1.57,1.33L59,3.3a2.36,2.36,0,0,1,.87-.74,2.7,2.7,0,0,1,1.16-.24,1.87,1.87,0,0,1,1.17.31,1.09,1.09,0,0,1,.39.9,1.78,1.78,0,0,1-.21.82,4.07,4.07,0,0,1-.81,1L57.82,8.9v1.46h7.39V8.52H61L63.26,6.4a5.68,5.68,0,0,0,1.29-1.6,3.29,3.29,0,0,0,.34-1.49,2.61,2.61,0,0,0-.45-1.53,3,3,0,0,0-1.27-1A4.75,4.75,0,0,0,61.26.42,5.3,5.3,0,0,0,59,.9Z"/><polygon class="cls-1" points="67.95 2.43 71.19 2.43 67.68 10.36 70.14 10.36 73.77 2.05 73.77 0.59 65.94 0.59 65.94 4.02 67.95 4.02 67.95 2.43"/><path class="cls-1" d="M81,3.39a1.13,1.13,0,0,0,.33-.83A1.12,1.12,0,0,0,81,1.73a1.22,1.22,0,0,0-1.65,0,1.12,1.12,0,0,0-.33.83,1.13,1.13,0,0,0,.33.83,1.17,1.17,0,0,0,1.65,0Z"/><rect class="cls-1" x="76.85" y="4.62" width="6.65" height="1.7"/><path class="cls-1" d="M79.35,7.54a1.12,1.12,0,0,0-.33.83,1.13,1.13,0,0,0,.33.83A1.17,1.17,0,0,0,81,9.2a1.13,1.13,0,0,0,.33-.83A1.12,1.12,0,0,0,81,7.54a1.22,1.22,0,0,0-1.65,0Z"/><path class="cls-1" d="M88,2a3.12,3.12,0,0,0-.49,1.72,2.86,2.86,0,0,0,.45,1.6,3,3,0,0,0,1.21,1.07,3.87,3.87,0,0,0,1.71.38,3.32,3.32,0,0,0,2.43-.88A3.09,3.09,0,0,1,92.5,8a2.65,2.65,0,0,1-2,.74A3.19,3.19,0,0,1,88.7,8.2l-.84,1.66a4.15,4.15,0,0,0,1.22.5,6.54,6.54,0,0,0,1.49.17,5.35,5.35,0,0,0,2.61-.61,4.14,4.14,0,0,0,1.75-1.81,6,6,0,0,0,.62-2.84,5.11,5.11,0,0,0-1.15-3.6A4.2,4.2,0,0,0,91.18.42a4.31,4.31,0,0,0-1.88.4A3.19,3.19,0,0,0,88,2Zm2.17.55a1.77,1.77,0,0,1,1.18-.39,1.81,1.81,0,0,1,1.25.4A1.32,1.32,0,0,1,93,3.56a1.37,1.37,0,0,1-.47,1.06A1.79,1.79,0,0,1,91.35,5a1.77,1.77,0,0,1-1.21-.4,1.36,1.36,0,0,1-.45-1.07A1.33,1.33,0,0,1,90.14,2.5Z"/><path class="cls-1" d="M96.24,13.07h2.08a9.5,9.5,0,0,0,1.31-2.94,13.74,13.74,0,0,0,.45-3.59,13.89,13.89,0,0,0-.45-3.61A9.6,9.6,0,0,0,98.32,0H96.24a12.46,12.46,0,0,1,1.29,3.15,13.29,13.29,0,0,1,.41,3.39,13.21,13.21,0,0,1-.41,3.38A12.46,12.46,0,0,1,96.24,13.07Z"/><path class="cls-1" d="M100,66.49h0V61.55H0V100H100V94.85h0ZM93.65,77.42a15.34,15.34,0,0,0-1.56-3.79H94.6a11.45,11.45,0,0,1,1.57,3.52,16.4,16.4,0,0,1,.55,4.35,16.62,16.62,0,0,1-.54,4.33,11.67,11.67,0,0,1-1.58,3.54H92.09a15.34,15.34,0,0,0,1.56-3.79,17.23,17.23,0,0,0,0-8.16ZM84.2,85.58a14.92,14.92,0,0,0,1.55,3.79H83.24a12.36,12.36,0,0,1-1.56-3.55,17.59,17.59,0,0,1,0-8.65,12.18,12.18,0,0,1,1.56-3.54h2.51a14.92,14.92,0,0,0-1.55,3.79,17.23,17.23,0,0,0,0,8.16ZM62.94,83.26V79.75H76.62v3.51Zm9.23,4.19a2.37,2.37,0,0,1-2.39,2.42,2.36,2.36,0,0,1-2.39-2.42,2.23,2.23,0,0,1,.69-1.69,2.34,2.34,0,0,1,1.7-.67,2.3,2.3,0,0,1,1.69.67A2.2,2.2,0,0,1,72.17,87.45Zm-4.78-12a2.23,2.23,0,0,1,.69-1.69,2.37,2.37,0,0,1,1.7-.66,2.33,2.33,0,0,1,1.69.66,2.2,2.2,0,0,1,.7,1.69,2.32,2.32,0,0,1-.7,1.73,2.28,2.28,0,0,1-1.69.69,2.32,2.32,0,0,1-1.7-.69A2.35,2.35,0,0,1,67.39,75.49Zm-9,10.45-3,3.12L51,84.56l-4.48,4.5-3-3.12,4.41-4.44-4.41-4.44,3-3.12L51,78.45l4.47-4.51,3,3.12L54,81.5ZM39,79.53v4H23.59v-4ZM3.8,83.46V79.54H9.35V74.09h4.14v5.45h5.59v3.92H13.49v5.46H9.35V83.46Z"/></svg>