<?xml version="1.0" encoding="utf-8"?>
<!-- Generator: Adobe Illustrator 24.0.0, SVG Export Plug-In . SVG Version: 6.00 Build 0)  -->
<svg version="1.1" id="Layer_1" xmlns="http://www.w3.org/2000/svg" xmlns:xlink="http://www.w3.org/1999/xlink" x="0px" y="0px"
	 viewBox="0 0 100 100" style="enable-background:new 0 0 100 100;" xml:space="preserve">
<style type="text/css">
	.st0{fill:none;}
	.st1{fill:#FFFFFF;}
	.st2{fill:#FFFFFF;stroke:#FFFFFF;stroke-width:0.25;stroke-miterlimit:10;}
	.st3{fill:none;stroke:#000000;stroke-width:0.25;stroke-linecap:round;stroke-miterlimit:10;}
	.st4{fill:#D9D9D9;}
	.st5{fill:none;stroke:#000000;stroke-width:2;stroke-linejoin:round;stroke-miterlimit:10;}
	.st6{fill:none;stroke:#000000;stroke-width:0.4396;stroke-miterlimit:10;}
	.st7{fill:none;stroke:#000000;stroke-linecap:round;stroke-linejoin:round;}
	.st8{fill:none;stroke:#000000;stroke-linecap:round;stroke-linejoin:round;stroke-miterlimit:10;}
</style>
<g>
	<path d="M4.94,68.77l-0.07,3.59l1.6,0.05c1.08,0.03,2.11,0.05,3.09,0.05c9.33,0,14.94-1.47,19.36-5.08
		c5.05-4.12,8.31-11.15,12.37-20.63c2.17-5.07,4.1-8.69,5.89-11.05c1.57-2.07,2.99-3.12,4.22-3.13c1.78,0,4.9,2.3,9.61,13.26
		c0.55,1.29,1.07,2.52,1.6,3.76c3.43,8.12,5.9,13.98,10.56,17.83c4.81,3.98,11.62,5.46,22.8,4.94l1.59-0.07l-0.11-3.59l-1.64,0.08
		C85.57,69.23,79.47,68,75.39,64.62c-3.62-3-5.88-7.84-8.68-14.43h0.7v-1h-1.13c-0.15-0.35-0.29-0.68-0.44-1.04
		c-0.51-1.21-1.04-2.47-1.6-3.78c-2.17-5.04-4.15-8.68-6.05-11.15c-2.22-2.87-4.43-4.26-6.79-4.26c-2.41,0-4.7,1.48-7,4.52
		c-1.97,2.6-4.04,6.46-6.33,11.81c-0.58,1.35-1.14,2.65-1.69,3.89h-1.97v1h1.52c-2.94,6.54-5.63,11.46-9.21,14.38
		c-4.13,3.37-9.78,4.55-20.15,4.25L4.94,68.77z"/>
	<rect x="70.41" y="49.2" width="3" height="1"/>
	<rect x="28.41" y="49.2" width="3" height="1"/>
	<rect x="22.41" y="49.2" width="3" height="1"/>
	<rect x="76.41" y="49.2" width="3" height="1"/>
	<rect x="94.41" y="49.2" width="3" height="1"/>
	<rect x="16.41" y="49.2" width="3" height="1"/>
	<rect x="88.41" y="49.2" width="3" height="1"/>
	<rect x="82.41" y="49.2" width="3" height="1"/>
	<rect x="10.41" y="49.2" width="3" height="1"/>
	<rect x="4.41" y="49.2" width="3" height="1"/>
	<rect x="46.41" y="49.2" width="3" height="1"/>
	<rect x="40.41" y="49.2" width="3" height="1"/>
	<rect x="58.41" y="49.2" width="3" height="1"/>
	<rect x="52.41" y="49.2" width="3" height="1"/>
	<path d="M98.48,97H3.02V1.52c0-0.83-0.67-1.5-1.5-1.5s-1.5,0.67-1.5,1.5v96.95c0,0.01,0,0.01,0,0.02c0,0,0,0.01,0,0.01
		c0,0.83,0.67,1.5,1.5,1.5h96.95c0.83,0,1.5-0.67,1.5-1.5S99.3,97,98.48,97z"/>
</g>
</svg>
