<svg id="Layer_1" data-name="Layer 1" xmlns="http://www.w3.org/2000/svg" viewBox="0 0 100 100"><defs><style>.cls-1{fill:#231f20;}</style></defs><title> </title><path class="cls-1" d="M29.08,84.21l5.78-6.58V73.79H16.94v4.76h10.9l-5.27,6v3.91h2.71q4.78,0,4.79,3.15A2.76,2.76,0,0,1,28.79,94a6.28,6.28,0,0,1-3.51.86,13.21,13.21,0,0,1-3.94-.6A11.29,11.29,0,0,1,18,92.56l-2.3,4.53a13.47,13.47,0,0,0,4.44,2,19.94,19.94,0,0,0,5.32.71,13.57,13.57,0,0,0,5.87-1.13,8.15,8.15,0,0,0,3.57-3A7.61,7.61,0,0,0,36,91.57a6.94,6.94,0,0,0-1.79-4.85A8.7,8.7,0,0,0,29.08,84.21Z"/><polygon class="cls-1" points="61.01 78.14 56.29 78.14 56.29 84.36 49.96 84.36 49.96 88.83 56.29 88.83 56.29 95.04 61.01 95.04 61.01 88.83 67.38 88.83 67.38 84.36 61.01 84.36 61.01 78.14"/><path class="cls-1" d="M90.53,79.43A17.46,17.46,0,0,0,85.9,80,12.37,12.37,0,0,0,82,81.8l2,4a8.17,8.17,0,0,1,2.58-1.34A10.18,10.18,0,0,1,89.76,84a5,5,0,0,1,3.4,1,3.61,3.61,0,0,1,1.13,2.87H89.76q-4.32,0-6.39,1.57a5.15,5.15,0,0,0-2.06,4.32,5.49,5.49,0,0,0,.88,3.07,5.82,5.82,0,0,0,2.54,2.12,9.34,9.34,0,0,0,3.93.77q4.4,0,6-2.75V99.4H100V88.17q0-4.4-2.45-6.57C95.92,80.15,93.57,79.43,90.53,79.43Zm3.76,13.75a3.64,3.64,0,0,1-1.61,2,5,5,0,0,1-2.59.68,3.91,3.91,0,0,1-2.36-.64,2.07,2.07,0,0,1-.86-1.74c0-1.54,1.17-2.3,3.51-2.3h3.91Z"/><polygon class="cls-1" points="18.79 58.86 18.79 53.81 22.7 53.81 22.7 49.28 18.79 49.28 18.79 44.78 13.53 44.78 13.53 49.28 7.07 49.28 17.58 34.82 11.74 34.82 0.41 50.07 0.41 53.81 13.36 53.81 13.36 58.86 18.79 58.86"/><polygon class="cls-1" points="45.98 46.84 50.24 42.55 47.36 39.53 43.03 43.89 38.7 39.53 35.82 42.55 40.08 46.84 35.82 51.13 38.7 54.16 43.03 49.8 47.36 54.16 50.24 51.13 45.98 46.84"/><path class="cls-1" d="M81,48.56a6.87,6.87,0,0,0-2.73-2.34,5.79,5.79,0,0,0,2.1-2.07,5.69,5.69,0,0,0,.72-2.87,5.85,5.85,0,0,0-1.17-3.64,7.44,7.44,0,0,0-3.28-2.39,13.09,13.09,0,0,0-4.86-.84,12.86,12.86,0,0,0-4.81.84,7.49,7.49,0,0,0-3.26,2.39,5.85,5.85,0,0,0-1.17,3.64,5.69,5.69,0,0,0,.72,2.87,5.91,5.91,0,0,0,2.06,2.07,7,7,0,0,0-2.69,2.34,5.93,5.93,0,0,0-1,3.33,6.28,6.28,0,0,0,1.26,3.9,7.9,7.9,0,0,0,3.53,2.57,15.81,15.81,0,0,0,10.63,0,8,8,0,0,0,3.57-2.57,6.24,6.24,0,0,0,1.28-3.9A5.93,5.93,0,0,0,81,48.56ZM69,39.3a4.28,4.28,0,0,1,2.7-.81,4.41,4.41,0,0,1,2.75.81,2.66,2.66,0,0,1,1,2.22,2.55,2.55,0,0,1-1,2.16,4.4,4.4,0,0,1-2.75.79A4.2,4.2,0,0,1,69,43.68a2.58,2.58,0,0,1-1-2.16A2.7,2.7,0,0,1,69,39.3Zm6,14.94a5.3,5.3,0,0,1-3.32.95,5.2,5.2,0,0,1-3.26-.93,3.24,3.24,0,0,1,0-5,5.2,5.2,0,0,1,3.26-.92,5.36,5.36,0,0,1,3.32.92,3,3,0,0,1,1.21,2.51A3,3,0,0,1,75.06,54.24Z"/><path class="cls-1" d="M0,0V21.92H100V0ZM86.64,2.44a2.62,2.62,0,0,1,1.88-.74,2.58,2.58,0,0,1,1.87.74,2.46,2.46,0,0,1,.77,1.87,2.59,2.59,0,0,1-.77,1.91A2.52,2.52,0,0,1,88.52,7a2.6,2.6,0,0,1-2.64-2.67A2.46,2.46,0,0,1,86.64,2.44ZM20.82,13.12H14.64v6H10.06v-6H3.91V8.79h6.15v-6h4.58v6h6.18Zm25.45,0h-17V8.77h17Zm25.11,2.73-3.3,3.45-4.95-5-5,5-3.29-3.45L59.76,11,54.89,6.05l3.29-3.46,5,5,4.95-5,3.3,3.46L66.51,11Zm19,3.58a2.52,2.52,0,0,1-1.87.76,2.56,2.56,0,0,1-1.88-.76,2.59,2.59,0,0,1-.76-1.91,2.46,2.46,0,0,1,.76-1.87,2.62,2.62,0,0,1,1.88-.74,2.58,2.58,0,0,1,1.87.74,2.46,2.46,0,0,1,.77,1.87A2.6,2.6,0,0,1,90.39,19.45Zm5.7-6.55H81V9H96.09Z"/></svg>