<?xml version="1.0" encoding="utf-8"?>
<!-- Generator: Adobe Illustrator 24.0.0, SVG Export Plug-In . SVG Version: 6.00 Build 0)  -->
<svg version="1.1" id="Layer_1" xmlns="http://www.w3.org/2000/svg" xmlns:xlink="http://www.w3.org/1999/xlink" x="0px" y="0px"
	 viewBox="0 0 100 100" style="enable-background:new 0 0 100 100;" xml:space="preserve">
<style type="text/css">
	.st0{fill:none;}
	.st1{fill:#FFFFFF;}
	.st2{fill:#FFFFFF;stroke:#FFFFFF;stroke-width:0.25;stroke-miterlimit:10;}
	.st3{fill:none;stroke:#000000;stroke-width:0.25;stroke-linecap:round;stroke-miterlimit:10;}
	.st4{fill:#D9D9D9;}
	.st5{fill:none;stroke:#000000;stroke-width:2;stroke-linejoin:round;stroke-miterlimit:10;}
	.st6{fill:none;stroke:#000000;stroke-width:0.4396;stroke-miterlimit:10;}
	.st7{fill:none;stroke:#000000;stroke-linecap:round;stroke-linejoin:round;}
	.st8{fill:none;stroke:#000000;stroke-linecap:round;stroke-linejoin:round;stroke-miterlimit:10;}
</style>
<g>
	<path d="M29.08,84.21l5.78-6.58v-3.84H16.94v4.76h10.9l-5.27,5.96v3.91h2.71c3.2,0,4.79,1.05,4.79,3.15c0,1.05-0.43,1.86-1.28,2.43
		c-0.85,0.57-2.02,0.86-3.51,0.86c-1.34,0-2.65-0.2-3.93-0.6c-1.28-0.4-2.41-0.97-3.38-1.7l-2.3,4.54c1.22,0.88,2.7,1.55,4.44,2.03
		c1.74,0.47,3.52,0.71,5.32,0.71c2.32,0,4.27-0.38,5.87-1.13c1.6-0.76,2.79-1.76,3.57-3.02s1.17-2.63,1.17-4.12
		c0-1.93-0.6-3.54-1.79-4.85S31.32,84.58,29.08,84.21z"/>
	<polygon points="61.01,78.14 56.29,78.14 56.29,84.36 49.96,84.36 49.96,88.83 56.29,88.83 56.29,95.04 61.01,95.04 61.01,88.83 
		67.38,88.83 67.38,84.36 61.01,84.36 	"/>
	<path d="M90.53,79.43c-1.58,0-3.13,0.21-4.63,0.62c-1.5,0.42-2.79,1-3.86,1.76l2.05,3.99c0.71-0.56,1.57-1.01,2.58-1.34
		c1.01-0.33,2.04-0.49,3.09-0.49c1.51,0,2.65,0.34,3.4,1.01c0.76,0.67,1.13,1.63,1.13,2.87h-4.54c-2.88,0-5,0.52-6.38,1.57
		s-2.07,2.49-2.07,4.32c0,1.15,0.29,2.17,0.88,3.07c0.58,0.9,1.43,1.61,2.54,2.12c1.11,0.51,2.42,0.77,3.93,0.77
		c2.93,0,4.92-0.91,6-2.74v2.45H100V88.17c0-2.93-0.82-5.11-2.45-6.56C95.92,80.15,93.57,79.43,90.53,79.43z M94.29,93.18
		c-0.32,0.88-0.85,1.54-1.61,1.99c-0.76,0.45-1.62,0.68-2.6,0.68c-1,0-1.79-0.21-2.36-0.64c-0.57-0.43-0.86-1.01-0.86-1.74
		c0-1.54,1.17-2.3,3.51-2.3h3.91V93.18z"/>
	<polygon points="18.79,58.86 18.79,53.81 22.7,53.81 22.7,49.28 18.79,49.28 18.79,44.78 13.53,44.78 13.53,49.28 7.07,49.28 
		17.58,34.82 11.74,34.82 0.41,50.07 0.41,53.81 13.36,53.81 13.36,58.86 	"/>
	<polygon points="45.98,46.84 50.24,42.55 47.36,39.53 43.03,43.89 38.7,39.53 35.82,42.55 40.08,46.84 35.82,51.13 38.7,54.16 
		43.03,49.8 47.36,54.16 50.24,51.13 	"/>
	<path d="M80.96,48.56c-0.63-0.96-1.54-1.74-2.73-2.34c0.92-0.55,1.62-1.24,2.1-2.08c0.48-0.84,0.72-1.79,0.72-2.87
		c0-1.4-0.39-2.61-1.17-3.64c-0.78-1.03-1.87-1.83-3.28-2.39c-1.41-0.56-3.03-0.84-4.86-0.84c-1.81,0-3.41,0.28-4.81,0.84
		c-1.39,0.56-2.48,1.36-3.26,2.39c-0.78,1.03-1.17,2.24-1.17,3.64c0,1.08,0.24,2.03,0.72,2.87s1.17,1.53,2.06,2.08
		c-1.17,0.6-2.07,1.38-2.7,2.34c-0.63,0.96-0.94,2.07-0.94,3.33c0,1.49,0.42,2.79,1.26,3.9c0.84,1.11,2.01,1.97,3.54,2.58
		c1.52,0.61,3.29,0.91,5.31,0.91s3.79-0.3,5.32-0.91c1.53-0.61,2.73-1.46,3.57-2.58c0.85-1.11,1.27-2.41,1.27-3.9
		C81.91,50.63,81.59,49.52,80.96,48.56z M69.04,39.3c0.68-0.54,1.57-0.81,2.7-0.81c1.14,0,2.06,0.27,2.75,0.81
		c0.69,0.54,1.03,1.28,1.03,2.22c0,0.92-0.34,1.64-1.03,2.16c-0.69,0.53-1.6,0.79-2.75,0.79c-1.15,0-2.05-0.27-2.71-0.79
		c-0.67-0.53-0.99-1.25-0.99-2.16C68.03,40.58,68.37,39.84,69.04,39.3z M75.06,54.24c-0.81,0.63-1.92,0.94-3.32,0.94
		c-1.38,0-2.46-0.31-3.26-0.93c-0.8-0.62-1.2-1.47-1.2-2.54c0-1.05,0.4-1.89,1.2-2.51c0.8-0.62,1.89-0.93,3.26-0.93
		c1.39,0,2.5,0.31,3.32,0.93c0.81,0.62,1.22,1.46,1.22,2.51C76.27,52.77,75.87,53.61,75.06,54.24z"/>
	<path d="M0,0v21.92h100V0H0z M86.64,2.44c0.51-0.49,1.14-0.73,1.88-0.73c0.74,0,1.37,0.24,1.88,0.73c0.51,0.49,0.76,1.11,0.76,1.88
		s-0.25,1.4-0.76,1.91c-0.51,0.51-1.13,0.76-1.88,0.76c-0.74,0-1.37-0.25-1.88-0.76c-0.51-0.51-0.76-1.14-0.76-1.91
		S86.13,2.92,86.64,2.44z M20.82,13.12h-6.18v6.04h-4.58v-6.04H3.91V8.79h6.14V2.75h4.58v6.04h6.18V13.12z M46.27,13.14H29.23V8.77
		h17.04V13.14z M71.38,15.87l-3.3,3.46l-4.95-4.99l-4.95,4.99l-3.3-3.46l4.87-4.91l-4.87-4.91l3.3-3.46l4.95,4.99l4.95-4.99
		l3.3,3.46l-4.87,4.91L71.38,15.87z M90.39,19.45c-0.51,0.51-1.13,0.76-1.88,0.76c-0.74,0-1.37-0.26-1.88-0.76
		c-0.51-0.51-0.76-1.15-0.76-1.91c0-0.76,0.26-1.39,0.76-1.88c0.51-0.49,1.14-0.73,1.88-0.73c0.74,0,1.37,0.24,1.88,0.73
		c0.51,0.49,0.76,1.11,0.76,1.88C91.16,18.3,90.9,18.94,90.39,19.45z M96.09,12.9H80.95V9.02h15.14V12.9z"/>
</g>
</svg>
