<?xml version="1.0" encoding="utf-8"?>
<!-- Generator: Adobe Illustrator 24.0.0, SVG Export Plug-In . SVG Version: 6.00 Build 0)  -->
<svg version="1.1" id="Layer_1" xmlns="http://www.w3.org/2000/svg" xmlns:xlink="http://www.w3.org/1999/xlink" x="0px" y="0px"
	 viewBox="0 0 100 100" style="enable-background:new 0 0 100 100;" xml:space="preserve">
<style type="text/css">
	.st0{fill:none;}
	.st1{fill:#FFFFFF;}
	.st2{fill:#FFFFFF;stroke:#FFFFFF;stroke-width:0.25;stroke-miterlimit:10;}
	.st3{fill:none;stroke:#000000;stroke-width:0.25;stroke-linecap:round;stroke-miterlimit:10;}
	.st4{fill:#D9D9D9;}
	.st5{fill:none;stroke:#000000;stroke-width:2;stroke-linejoin:round;stroke-miterlimit:10;}
	.st6{fill:none;stroke:#000000;stroke-width:0.4396;stroke-miterlimit:10;}
	.st7{fill:none;stroke:#000000;stroke-linecap:round;stroke-linejoin:round;}
	.st8{fill:none;stroke:#000000;stroke-linecap:round;stroke-linejoin:round;stroke-miterlimit:10;}
</style>
<path d="M79.27,24.87c-0.01-0.03-0.02-0.06-0.04-0.09c-0.06-0.13-0.15-0.25-0.26-0.35c-0.01-0.01-0.01-0.01-0.01-0.02
	c-0.03-0.02-0.06-0.04-0.09-0.06c-0.03-0.02-0.06-0.05-0.1-0.07c0,0,0,0-0.01-0.01l-26-14.15c0,0,0,0,0,0l0,0c0,0,0,0,0,0l0,0
	c0,0-0.01,0-0.01,0c-0.04-0.02-0.09-0.03-0.13-0.05c-0.04-0.01-0.07-0.03-0.11-0.04c-0.06-0.02-0.13-0.02-0.19-0.03
	C52.24,10,52.19,10,52.14,10c-0.03,0-0.05-0.01-0.08,0c0,0,0,0,0,0c0,0,0,0,0,0c0,0,0,0,0,0c0,0,0,0-0.01,0L1.28,17.14
	c-0.01,0-0.01,0.01-0.02,0.01c-0.08,0.01-0.16,0.04-0.24,0.08c-0.06,0.02-0.12,0.03-0.17,0.06c-0.39,0.23-0.66,0.66-0.66,1.14
	l-0.1,54.79l0,0v0c0,0.01,0,0.02,0,0.03c0,0.15,0.04,0.29,0.09,0.43c0.01,0.02,0.02,0.05,0.03,0.07C0.27,73.88,0.36,74,0.47,74.1
	c0.01,0.01,0.01,0.02,0.02,0.02c0.03,0.03,0.07,0.04,0.1,0.07c0.02,0.01,0.04,0.03,0.06,0.04c0.01,0.01,0.02,0.02,0.03,0.03
	c0.01,0,0.01,0.01,0.02,0.01l26,14.14c0,0,0,0,0,0l0,0c0.01,0,0.02,0.01,0.03,0.01c0.01,0,0.01,0,0.02,0
	c0.02,0.01,0.04,0.01,0.06,0.02c0.03,0.01,0.06,0.02,0.09,0.03c0.12,0.04,0.24,0.07,0.36,0.07c0.02,0,0.04,0,0.06,0c0,0,0,0,0,0
	c0.01,0,0.05,0,0.08-0.01c0.01,0,0.01,0,0.02,0c0,0,0,0,0,0c0,0,0,0,0,0s0,0,0,0l50.77-7.13c0,0,0.01,0,0.01,0
	c0.09-0.01,0.17-0.04,0.25-0.08c0.49-0.18,0.84-0.65,0.84-1.2c0,0,0,0,0,0c0,0,0,0,0,0l0.1-54.79l0,0v0
	C79.36,25.16,79.32,25.01,79.27,24.87z M28.53,70.98l0-0.4l23.38-3.29l22.39,12.18L28.5,85.91L28.53,70.98z M28.53,68.1l0.06-34.51
	l22.33-3.14l-0.06,34.51L28.53,68.1z M53.36,13.52l20.6,11.21l-20.63,2.9L53.36,13.52z M26.12,70.92l-0.03,14.11L5.48,73.82
	l1.05-0.15L26.12,70.92z M50.93,27.96l-16.73,2.35l-6.67,0.94L5.18,19.08l45.78-6.43L50.93,27.96z M2.59,20.2l23.6,12.84
	l-0.06,34.34l0,1.06L2.5,71.76l0.05-25.71L2.59,20.2z M76.87,78.35L53.26,65.5l0.06-34.34l0-1.05l23.64-3.32l-0.05,25.71
	L76.87,78.35z M84.48,0.02v2.09h8.83v1.64h-8.83V6.1h3.8v0.24h-3.8v2.34h5.35v0.57h-5.35v2.34h3.8v0.24h-3.8v2.34h7.01v1.07h-7.01
	v2.34h3.8v0.24h-3.8v2.34h5.35v0.57h-5.35v2.34h3.8v0.24h-3.8v2.34h1.36h7.47v1.64h-7.47h-1.36v2.34h3.8v0.24h-3.8v2.34h5.35v0.57
	h-5.35v2.34h3.8v0.24h-3.8v2.34h7.01v1.07h-7.01v2.34h3.8v0.24h-3.8v2.34h5.35v0.57h-5.35v2.34h3.8v0.24h-3.8v2.34h1.36h7.47v1.64
	h-7.47h-1.36v2.34h3.8v0.24h-3.8v2.34h5.35v0.57h-5.35v2.34h3.8v0.24h-3.8v5.75h3.8v0.24h-3.8v2.34h5.35v0.57h-5.35v2.34h3.8v0.24
	h-3.8v2.34h8.83v1.64h-8.83v2.34h3.8v0.24h-3.8v2.34h5.35v0.57h-5.35v2.34h3.8v0.24h-3.8v2.34h7.01v1.07h-7.01v2.34h3.8v0.24h-3.8
	v2.34h5.35v0.57h-5.35v2.34h3.8v0.24h-3.8v2.34h8.7v1.64h-8.7v2.09h15.48V0.02H84.48z M92.24,61.2h-6.3v-0.98h6.3V61.2z"/>
</svg>
