<?xml version="1.0" encoding="utf-8"?>
<!-- Generator: Adobe Illustrator 24.0.0, SVG Export Plug-In . SVG Version: 6.00 Build 0)  -->
<svg version="1.1" id="Layer_1" xmlns="http://www.w3.org/2000/svg" xmlns:xlink="http://www.w3.org/1999/xlink" x="0px" y="0px"
	 viewBox="0 0 100 100" style="enable-background:new 0 0 100 100;" xml:space="preserve">
<style type="text/css">
	.st0{fill:none;}
	.st1{fill:#FFFFFF;}
	.st2{fill:#FFFFFF;stroke:#FFFFFF;stroke-width:0.25;stroke-miterlimit:10;}
	.st3{fill:none;stroke:#000000;stroke-width:0.25;stroke-linecap:round;stroke-miterlimit:10;}
	.st4{fill:#D9D9D9;}
	.st5{fill:none;stroke:#000000;stroke-width:2;stroke-linejoin:round;stroke-miterlimit:10;}
	.st6{fill:none;stroke:#000000;stroke-width:0.4396;stroke-miterlimit:10;}
	.st7{fill:none;stroke:#000000;stroke-linecap:round;stroke-linejoin:round;}
	.st8{fill:none;stroke:#000000;stroke-linecap:round;stroke-linejoin:round;stroke-miterlimit:10;}
</style>
<g>
	<path d="M97.84,84.56v8.79H96.2v-8.79h-2.34v3.78h-0.24v-3.78h-2.34v5.33h-0.57v-5.33h-2.34v3.78h-0.24v-3.78h-2.34v6.98h-1.07
		v-6.98h-2.34v3.78h-0.24v-3.78H79.8v5.33h-0.57v-5.33h-2.34v3.78h-0.24v-3.78h-2.34v1.35v7.43h-1.64v-7.43v-1.35h-2.34v3.78h-0.24
		v-3.78h-2.34v5.33h-0.57v-5.33h-2.34v3.78H64.6v-3.78h-2.34v6.98h-1.07v-6.98h-2.34v3.78h-0.24v-3.78h-2.34v5.33H55.7v-5.33h-2.34
		v3.78h-0.24v-3.78h-2.34v1.35v7.43h-1.64v-7.43v-1.35h-2.34v3.78h-0.24v-3.78h-2.34v5.33h-0.57v-5.33h-2.34v3.78h-0.24v-3.78h-5.75
		v3.78h-0.24v-3.78h-2.34v5.33h-0.57v-5.33h-2.34v3.78H29.6v-3.78h-2.34v8.79h-1.64v-8.79h-2.34v3.78h-0.24v-3.78H20.7v5.33h-0.57
		v-5.33h-2.34v3.78h-0.24v-3.78h-2.34v6.98h-1.07v-6.98h-2.34v3.78h-0.24v-3.78H9.23v5.33H8.65v-5.33H6.32v3.78H6.07v-3.78H3.74
		v8.66H2.09v-8.66H0v15.42h99.93V84.56H97.84z M38.74,91.54h-1.07v-6.89h1.07V91.54z"/>
	<path d="M1.11,72.7c0.05,0,0.1,0.01,0.14,0.01c0.59,0,1.1-0.44,1.17-1.03L9.8,13.02c0.11,0.03,0.21,0.07,0.33,0.09
		c0.65,0.15,1.32,0.22,1.98,0.22c3.87,0,7.34-2.56,8.53-6.19l21.12,9.45c0.29,0.13,0.61,0.14,0.9,0.03c0.3-0.11,0.53-0.33,0.66-0.62
		c0.13-0.29,0.14-0.61,0.03-0.9c-0.11-0.3-0.33-0.53-0.62-0.66L10.59,0.05C10.25-0.11,9.85-0.09,9.53,0.1
		C9.2,0.28,8.98,0.61,8.93,0.98L0.08,71.38C0,72.02,0.46,72.62,1.11,72.7z M10.47,11.61c-0.16-0.04-0.31-0.08-0.47-0.13l1.08-8.62
		l8.15,3.65c-0.52,1.71-1.62,3.17-3.15,4.14C14.4,11.7,12.41,12.05,10.47,11.61z"/>
	<rect x="37.61" y="19.8" transform="matrix(0.5902 -0.8073 0.8073 0.5902 -0.5519 39.543)" width="2.11" height="1.04"/>
	<rect x="26.5" y="34" transform="matrix(0.5908 -0.8068 0.8068 0.5908 -16.2768 36.9388)" width="3.55" height="1.04"/>
	<rect x="30.11" y="29.07" transform="matrix(0.5903 -0.8072 0.8072 0.5903 -10.8209 37.8579)" width="3.55" height="1.04"/>
	<rect x="33.71" y="24.14" transform="matrix(0.5903 -0.8072 0.8072 0.5903 -5.3668 38.7505)" width="3.55" height="1.04"/>
	<polygon points="9.62,60.89 11.72,58.02 10.88,57.41 8.78,60.28 	"/>
	<polygon points="13.22,55.96 15.32,53.1 14.48,52.48 12.38,55.35 	"/>
	<polygon points="24.04,41.18 26.14,38.32 25.3,37.7 23.2,40.57 	"/>
	<polygon points="15.99,50.42 16.83,51.04 18.93,48.17 18.09,47.56 	"/>
	<rect x="19.29" y="43.85" transform="matrix(0.5907 -0.8069 0.8069 0.5907 -27.1795 35.1608)" width="3.55" height="1.04"/>
	<polygon points="6.86,64.66 8.11,62.95 7.27,62.34 6.02,64.05 	"/>
	<rect x="85.17" y="33.45" width="7.25" height="32.64"/>
	<rect x="74.28" y="44.33" width="7.26" height="21.76"/>
	<rect x="52.52" y="51.58" width="7.25" height="14.51"/>
	<rect x="63.4" y="37.07" width="7.25" height="29.02"/>
	<polygon points="41.64,29.82 41.64,73.34 99.68,73.34 99.68,69.72 45.27,69.72 45.27,29.82 	"/>
</g>
</svg>
