<svg id="Layer_1" data-name="Layer 1" xmlns="http://www.w3.org/2000/svg" viewBox="0 0 100 100"><defs><style>.cls-1{fill:#231f20;}</style></defs><title> </title><polygon class="cls-1" points="40.58 57.42 43.09 54.89 45.6 57.42 47.28 55.67 44.8 53.17 47.28 50.68 45.6 48.93 43.09 51.46 40.58 48.93 38.9 50.68 41.38 53.17 38.9 55.67 40.58 57.42"/><path class="cls-1" d="M2.84,99.18a5.5,5.5,0,0,0,3,.85,5.5,5.5,0,0,0,3-.85A5.66,5.66,0,0,0,11,96.74a8.87,8.87,0,0,0,.75-3.81A8.9,8.9,0,0,0,11,89.12a5.71,5.71,0,0,0-2.09-2.44,5.58,5.58,0,0,0-3-.84,5.58,5.58,0,0,0-3,.84A5.71,5.71,0,0,0,.75,89.12a10.05,10.05,0,0,0,0,7.62A5.66,5.66,0,0,0,2.84,99.18ZM3.93,89.6a2.23,2.23,0,0,1,1.95-1.08,2.24,2.24,0,0,1,2,1.08,6.11,6.11,0,0,1,.71,3.33,6.06,6.06,0,0,1-.71,3.33,2.24,2.24,0,0,1-2,1.08,2.23,2.23,0,0,1-1.95-1.08,8.06,8.06,0,0,1,0-6.66Z"/><path class="cls-1" d="M13.45,96.65A1.81,1.81,0,0,0,12.91,98a1.85,1.85,0,0,0,.54,1.36,1.93,1.93,0,0,0,2.7,0A1.86,1.86,0,0,0,16.7,98a1.82,1.82,0,0,0-.55-1.36,2,2,0,0,0-2.7,0Z"/><polygon class="cls-1" points="28.52 99.79 28.52 96.91 30.75 96.91 30.75 94.32 28.52 94.32 28.52 91.76 25.52 91.76 25.52 94.32 21.83 94.32 27.83 86.07 24.5 86.07 18.03 94.78 18.03 96.91 25.42 96.91 25.42 99.79 28.52 99.79"/><polygon class="cls-1" points="30.61 90.89 33.44 90.89 33.44 88.66 37.98 88.66 33.06 99.79 36.51 99.79 41.61 88.13 41.61 86.07 30.61 86.07 30.61 90.89"/><polygon class="cls-1" points="51.86 88.76 49.39 91.25 46.92 88.76 45.28 90.48 47.71 92.93 45.28 95.38 46.92 97.11 49.39 94.62 51.86 97.11 53.51 95.38 51.08 92.93 53.51 90.48 51.86 88.76"/><path class="cls-1" d="M66.19,86.68a5.9,5.9,0,0,0-6.07,0A5.65,5.65,0,0,0,58,89.12a9.93,9.93,0,0,0,0,7.62,5.59,5.59,0,0,0,2.09,2.44,5.84,5.84,0,0,0,6.07,0,5.59,5.59,0,0,0,2.09-2.44,10.05,10.05,0,0,0,0-7.62A5.65,5.65,0,0,0,66.19,86.68Zm-1.07,9.58a2.32,2.32,0,0,1-3.92,0,8.16,8.16,0,0,1,0-6.66,2.32,2.32,0,0,1,3.92,0,8.06,8.06,0,0,1,0,6.66Z"/><path class="cls-1" d="M71.86,96.13a1.9,1.9,0,0,0-1.35.52A1.82,1.82,0,0,0,70,98a1.86,1.86,0,0,0,.55,1.36,1.8,1.8,0,0,0,1.35.55,1.83,1.83,0,0,0,1.35-.55A1.85,1.85,0,0,0,73.75,98a1.81,1.81,0,0,0-.54-1.36A1.93,1.93,0,0,0,71.86,96.13Z"/><path class="cls-1" d="M78.05,99.18a5.86,5.86,0,0,0,6.08,0,5.64,5.64,0,0,0,2.08-2.44,9.93,9.93,0,0,0,0-7.62,5.69,5.69,0,0,0-2.08-2.44,5.92,5.92,0,0,0-6.08,0A5.71,5.71,0,0,0,76,89.12a10.05,10.05,0,0,0,0,7.62A5.66,5.66,0,0,0,78.05,99.18Zm1.09-9.58a2.22,2.22,0,0,1,2-1.08,2.25,2.25,0,0,1,2,1.08,8.16,8.16,0,0,1,0,6.66,2.25,2.25,0,0,1-2,1.08,2.22,2.22,0,0,1-2-1.08,8.06,8.06,0,0,1,0-6.66Z"/><path class="cls-1" d="M97.9,92.58a3.14,3.14,0,0,0,1.61-2.82,3.32,3.32,0,0,0-.67-2.08A4.22,4.22,0,0,0,97,86.32a8.17,8.17,0,0,0-5.52,0,4.3,4.3,0,0,0-1.86,1.36,3.38,3.38,0,0,0-.66,2.08,3.14,3.14,0,0,0,.41,1.63,3.25,3.25,0,0,0,1.17,1.19A3.85,3.85,0,0,0,89,93.91a3.38,3.38,0,0,0-.54,1.9A3.6,3.6,0,0,0,89.15,98a4.64,4.64,0,0,0,2,1.47,8.29,8.29,0,0,0,3,.52,8.38,8.38,0,0,0,3-.52,4.67,4.67,0,0,0,2-1.47,3.55,3.55,0,0,0,.73-2.23,3.38,3.38,0,0,0-.54-1.9A3.88,3.88,0,0,0,97.9,92.58Zm-5.24-4a2.39,2.39,0,0,1,1.54-.46,2.48,2.48,0,0,1,1.57.46,1.52,1.52,0,0,1,.58,1.26,1.47,1.47,0,0,1-.58,1.24,2.54,2.54,0,0,1-1.57.45,2.44,2.44,0,0,1-1.55-.45,1.49,1.49,0,0,1-.57-1.24A1.52,1.52,0,0,1,92.66,88.63Zm3.43,8.53a3.05,3.05,0,0,1-1.89.53,3,3,0,0,1-1.86-.52,1.75,1.75,0,0,1-.69-1.46,1.72,1.72,0,0,1,.69-1.43,3,3,0,0,1,1.86-.52,3.05,3.05,0,0,1,1.89.52,1.73,1.73,0,0,1,.7,1.43A1.75,1.75,0,0,1,96.09,97.16Z"/><rect class="cls-1" x="90.33" y="54.31" width="9.67" height="2.48"/><rect class="cls-1" x="90.33" y="49.27" width="9.67" height="2.48"/><polygon class="cls-1" points="5.71 44.01 5.71 46.18 13.23 46.18 13.23 49.11 16.39 49.11 16.39 46.18 18.66 46.18 18.66 43.55 16.39 43.55 16.39 40.93 13.33 40.93 13.33 43.55 9.58 43.55 15.69 35.15 12.29 35.15 5.71 44.01"/><polygon class="cls-1" points="24.52 49.11 29.71 37.24 29.71 35.15 18.52 35.15 18.52 40.06 21.39 40.06 21.39 37.78 26.02 37.78 21.01 49.11 24.52 49.11"/><path class="cls-1" d="M66.16,35.16a4.49,4.49,0,0,0-1.9,1.38,3.44,3.44,0,0,0-.67,2.12,3.23,3.23,0,0,0,1.61,2.87,4,4,0,0,0-1.57,1.36,3.48,3.48,0,0,0-.54,1.93,3.65,3.65,0,0,0,.73,2.27,4.64,4.64,0,0,0,2.05,1.49,8.15,8.15,0,0,0,3.08.53,8.29,8.29,0,0,0,3.1-.53,4.76,4.76,0,0,0,2.07-1.49,3.66,3.66,0,0,0,.74-2.27,3.41,3.41,0,0,0-.55-1.93,4,4,0,0,0-1.59-1.36,3.18,3.18,0,0,0,1.64-2.87,3.44,3.44,0,0,0-.68-2.12,4.43,4.43,0,0,0-1.9-1.38A7.53,7.53,0,0,0,69,34.67,7.35,7.35,0,0,0,66.16,35.16Zm4.72,11a3.05,3.05,0,0,1-1.93.55,3,3,0,0,1-1.89-.54,1.75,1.75,0,0,1-.7-1.48,1.72,1.72,0,0,1,.7-1.45A3,3,0,0,1,69,42.73a3.12,3.12,0,0,1,1.93.54,1.73,1.73,0,0,1,.71,1.45A1.77,1.77,0,0,1,70.88,46.19Zm.27-7.39a1.51,1.51,0,0,1-.6,1.26,2.6,2.6,0,0,1-1.6.46,2.49,2.49,0,0,1-1.57-.46,1.52,1.52,0,0,1-.58-1.26,1.55,1.55,0,0,1,.59-1.29A2.44,2.44,0,0,1,69,37a2.54,2.54,0,0,1,1.6.47A1.55,1.55,0,0,1,71.15,38.8Z"/><polygon class="cls-1" points="6.44 72.15 6.44 58.18 0.41 58.18 0.41 60.78 3.21 60.78 3.21 72.15 6.44 72.15"/><path class="cls-1" d="M18,58.8a5.65,5.65,0,0,0-3.09-.86,5.56,5.56,0,0,0-5.22,3.35,10.16,10.16,0,0,0,0,7.76,5.72,5.72,0,0,0,2.13,2.48,5.65,5.65,0,0,0,3.09.86A5.65,5.65,0,0,0,18,71.53a5.85,5.85,0,0,0,2.13-2.48,10.28,10.28,0,0,0,0-7.76A5.82,5.82,0,0,0,18,58.8Zm-1.09,9.76a2.36,2.36,0,0,1-4,0,6.28,6.28,0,0,1-.72-3.39,6.35,6.35,0,0,1,.72-3.4,2.37,2.37,0,0,1,4,0,6.25,6.25,0,0,1,.73,3.4A6.18,6.18,0,0,1,16.86,68.56Z"/><path class="cls-1" d="M33.62,69.05a10.16,10.16,0,0,0,0-7.76,5.7,5.7,0,0,0-10.43,0,10.16,10.16,0,0,0,0,7.76,5.76,5.76,0,0,0,2.12,2.48,6,6,0,0,0,6.19,0A5.76,5.76,0,0,0,33.62,69.05Zm-3.21-.49a2.29,2.29,0,0,1-2,1.1,2.27,2.27,0,0,1-2-1.1,6.18,6.18,0,0,1-.73-3.39,6.25,6.25,0,0,1,.73-3.4,2.26,2.26,0,0,1,2-1.09,2.28,2.28,0,0,1,2,1.09,6.34,6.34,0,0,1,.73,3.4A6.27,6.27,0,0,1,30.41,68.56Z"/><polygon class="cls-1" points="51.98 60.78 54.78 60.78 54.78 72.15 58.01 72.15 58.01 58.18 51.98 58.18 51.98 60.78"/><path class="cls-1" d="M66.43,72.39a5.65,5.65,0,0,0,3.09-.86,5.85,5.85,0,0,0,2.13-2.48,10.28,10.28,0,0,0,0-7.76,5.82,5.82,0,0,0-2.13-2.49,5.71,5.71,0,0,0-8.31,2.49,10.16,10.16,0,0,0,0,7.76,5.72,5.72,0,0,0,2.13,2.48A5.65,5.65,0,0,0,66.43,72.39Zm-2-10.62a2.37,2.37,0,0,1,4,0,6.25,6.25,0,0,1,.73,3.4,6.18,6.18,0,0,1-.73,3.39,2.36,2.36,0,0,1-4,0,6.27,6.27,0,0,1-.73-3.39A6.34,6.34,0,0,1,64.44,61.77Z"/><path class="cls-1" d="M83.07,58.8a5.7,5.7,0,0,0-8.31,2.49,10.16,10.16,0,0,0,0,7.76,5.76,5.76,0,0,0,2.12,2.48,6,6,0,0,0,6.19,0,5.76,5.76,0,0,0,2.12-2.48,10.16,10.16,0,0,0,0-7.76A5.74,5.74,0,0,0,83.07,58.8ZM82,68.56a2.29,2.29,0,0,1-2,1.1,2.27,2.27,0,0,1-2-1.1,6.18,6.18,0,0,1-.73-3.39,6.25,6.25,0,0,1,.73-3.4,2.26,2.26,0,0,1,2-1.09,2.28,2.28,0,0,1,2,1.09,6.34,6.34,0,0,1,.73,3.4A6.27,6.27,0,0,1,82,68.56Z"/><rect class="cls-1" x="0.03" y="52.46" width="34.36" height="1.44"/><rect class="cls-1" x="51.79" y="52.46" width="34.36" height="1.44"/><path class="cls-1" d="M0,0V28.76H100V0ZM81,16V12.11H96.09V16Zm10.21,4.64a2.6,2.6,0,0,1-.77,1.91,2.52,2.52,0,0,1-1.87.76,2.56,2.56,0,0,1-1.88-.76,2.59,2.59,0,0,1-.76-1.91,2.46,2.46,0,0,1,.76-1.87A2.62,2.62,0,0,1,88.52,18a2.58,2.58,0,0,1,1.87.74A2.46,2.46,0,0,1,91.16,20.63ZM85.88,7.4a2.46,2.46,0,0,1,.76-1.87,2.62,2.62,0,0,1,1.88-.74,2.58,2.58,0,0,1,1.87.74,2.46,2.46,0,0,1,.77,1.87,2.59,2.59,0,0,1-.77,1.91,2.52,2.52,0,0,1-1.87.76A2.6,2.6,0,0,1,85.88,7.4ZM71.38,19l-3.3,3.45-4.95-5-5,5L54.89,19l4.87-4.91L54.89,9.14l3.29-3.46,5,5,4.95-5,3.3,3.46-4.87,4.91ZM46.27,11.87v4.36h-17V11.87ZM3.91,16.22V11.88h6.15v-6h4.58v6h6.18v4.34H14.64v6H10.06v-6Z"/></svg>