<svg id="Layer_1" data-name="Layer 1" xmlns="http://www.w3.org/2000/svg" viewBox="0 0 100 100"><defs><style>.cls-1{fill:#231f20;}</style></defs><title> </title><path class="cls-1" d="M100,51.52v-3H92.05V40.39H100v-.25H92.05V32.33H100v-.25H92.05v-7.8H100V24H92.05v-7.8H100V16H92.05V8.18H100V7.93H92.05V0H91.8V7.93H84V0h-.25V7.93H75.9V0h-.25V7.93H67.82V0h-.25V7.93H59.74V0h-.25V7.93h-8V.05h-3V7.93h-8V0h-.25V7.93H32.43V0h-.25V7.93H29.39L28.05,2.35H25.71l-1.36,2.1V0H24.1V4.84l-2,3.09H16.28V0H16V7.93H8.2V0H8V7.93H0v.25H8V16H0v.25H8V24H0v.25H8v.57l-.44,0H3.27L1.82,32.08H0v.25H1.77l-.18.9H6.21A6.16,6.16,0,0,0,8,33v4a3.22,3.22,0,0,0-3.1,3.11H0v.25H4.86a3.21,3.21,0,0,0,3.09,3v5.08H0v3H8v7.72H0v.25H8V67.3H0v.25H8v7.8H0v.25H8v7.8H0v.25H8v7.8H0v.25H8V100H8.2V91.7H16V100h.25V91.7H24.1V100h.25V91.7h7.83V100h.25V91.7h7.83V100h.25V91.7h8V100h3V91.7h8V100h.25V91.7h7.83V100h.25V91.7h4.67a3.22,3.22,0,0,0,3.16,3.2v5h.25V94.9a3.21,3.21,0,0,0,3-3.2h3.13l-1.6,2.5H83L83.72,93v7H84V92.57h3.57l.33,1.63h2.37l-.6-2.5H91.8V100h.25V91.7H100v-.25H92.05V89.3h.18l.85-3.5h-1V83.65H100V83.4H92.05V75.6H100v-.25H92.05V70.77a3.22,3.22,0,0,0,3.06-3.21H100V67.3H95.08a3.21,3.21,0,0,0-3-2.93V59.49H100v-.25H92.05v-.57h.69l.85-3.5H92.05V51.52Zm-8.18-3H84V40.39H91.8ZM80.07,83.4H75.9V75.6h7.82v2.34Zm3.65-1.87V83.4H82.48ZM21,16.23a3.21,3.21,0,0,0,.69,1.86l-4,5.94H16.28v-7.8Zm11.17,0V24H30.73l-4-5.94a3.21,3.21,0,0,0,.69-1.86ZM66,75.35,62.1,69.53a3.21,3.21,0,0,0,.53-1h4.94v6.8Zm1.58.25v2.11L66.16,75.6ZM23.37,19.19a2.93,2.93,0,0,0,.73.12V24h-4Zm1,.12a3,3,0,0,0,.74-.12L28.33,24h-4Zm4.14,5,3.69,5.51v2.29H24.35v-7.8Zm39.08,7.8H59.74v-7.8h7.83Zm.25-7.8h7.83v7.8H67.82ZM67.57,58v1.23H65.43a2,2,0,0,0-.83-.66,2.55,2.55,0,0,0,1.1-.84,2.06,2.06,0,0,0,.4-1.26A1.66,1.66,0,0,0,65.35,55a3.87,3.87,0,0,0-2.17-.51H59.74v-3h7.83v3H67.2L66.66,58ZM33.88,32.33l4,6a3.21,3.21,0,0,0-.53,1H32.43V32.33Zm-1.45-.25V30.17l1.28,1.91Zm16.07.25v7.81H43.6a3.22,3.22,0,0,0-3.09-3.09V33.52a5.25,5.25,0,0,0,1.88.32,5.4,5.4,0,0,0,2.08-.37A3.79,3.79,0,0,0,46,32.33ZM60.61,57.85l.33-1.62h1.68q1,0,1,.66a.83.83,0,0,1-.33.71,1.62,1.62,0,0,1-1,.25Zm2.49,1.81a.62.62,0,0,1,.26.54.84.84,0,0,1-.36.74,1.7,1.7,0,0,1-1,.25H59.94l.34-1.7h2.13A1.35,1.35,0,0,1,63.1,59.66Zm-4.17-5.15L58,59.24H51.5V51.52h8v3Zm-18.42-11a3.22,3.22,0,0,0,3.09-3.08h4.9v8.13h-8Zm8,8.05v7.72h-8V51.52Zm3-3V40.39h8v8.13Zm0-8.38V32.33h8v7.81ZM40.15,33.38l.11,0v3.63a3.47,3.47,0,0,0-.74.12l-3.24-4.84h2.61A3.51,3.51,0,0,0,40.15,33.38Zm-2.83,7.88a3.24,3.24,0,0,0,2.94,2.21v5.05H32.43V41.26Zm2.94,10.26v7.72H32.43V51.52Zm0,8V67.3H32.43V59.49Zm.25,0h8V67.3h-8Zm11,0h6.44l-.69,3.42h2.24v1.42a3.22,3.22,0,0,0-3.13,3H51.5Zm11.13,7.06a3.22,3.22,0,0,0-2.89-2.21V62.91h2.13a5.17,5.17,0,0,0,2.79-.68,2.19,2.19,0,0,0,1.06-2,1.88,1.88,0,0,0-.17-.76h2v7.06Zm-2.89-18V40.39h7.83v8.13Zm0-8.38V32.33h7.83v7.81Zm-.25-8.06h-8v-7.8h8Zm-11,0H45.87l-1.2-1.18a2.65,2.65,0,0,1-2.06,1,2.13,2.13,0,0,1-1.5-.51A1.82,1.82,0,0,1,40.56,30a3.37,3.37,0,0,1,.34-1.5,2.61,2.61,0,0,1,1-1,2.66,2.66,0,0,1,1.41-.38,2,2,0,0,1,1.85,1l1.72-1.37a2.88,2.88,0,0,0-1.35-1.17,4.8,4.8,0,0,0-2.06-.42,5.72,5.72,0,0,0-2.74.65l-.18.12V24.28h8Zm-8.24-6a4.62,4.62,0,0,0-1.43,1.52,5,5,0,0,0-.67,2.59,3.59,3.59,0,0,0,.52,1.94H36.12l-3.69-5.51V24.28h7.83Zm-8.08.17L30.9,24.28h1.28Zm0,6.13v6.93H24.35V32.33ZM24.1,39.26H16.28V32.33H24.1Zm8.08,2v7.26H24.35V41.26Zm0,10.26v7.72H24.35V51.52Zm0,8V67.3H24.35V59.49Zm0,8.06v7.8H24.35v-7.8Zm.25,0h7.83v7.8H32.43Zm8.08,0h8v7.8h-8Zm11,0h4.84a3.22,3.22,0,0,0,3.15,3.2v4.59h-8Zm8.24,3.2a3.11,3.11,0,0,0,.69-.12l3.15,4.72H59.74Zm8.08-2.2h7.83v6.8H67.82Zm8.08,0h7.82v6.8H75.9Zm-8.08-2V59.49h7.83v7.06Zm0-7.31V58h.46l.85-3.5H67.82v-3h7.83v7.72Zm0-10.72V40.39h7.83v8.13Zm0-8.38V32.33h7.83v7.81Zm8.08-7.81h7.82v7.81H75.9Zm0-.25v-7.8h7.82v7.8Zm0-8v-7.8h7.82V24Zm-.25,0H67.82v-7.8h7.83Zm-8.08,0H59.74v-7.8h7.83Zm-8.08,0h-8v-7.8h8Zm-11,0h-8v-7.8h8Zm-8.24,0H32.43v-7.8h7.83Zm-22.7.25L16.28,26.2V24.28Zm2.4,0H24.1v7.8H16.28V29.79ZM16,32.08H14.75L16,30.17Zm0,.25v6.93H11.14a3.1,3.1,0,0,0-.53-1l4-5.93Zm8.07,8.93v7.26H16.28V41.26Zm0,10.26v7.72H16.28V51.52Zm0,8V67.3H16.28V59.49Zm0,8.06v7.8H16.28v-7.8Zm0,8v7.8H16.28V75.6Zm.25,0h7.83v7.8H24.35Zm8.08,0h7.83v7.8H32.43Zm8.08,0h8v7.8h-8Zm11,0h8v7.8h-8Zm8.24,0h4l3.82,5.71V83.4H59.74Zm8.08,6.08L69,83.4H67.82Zm0-3.59V75.6h7.83v7.8H71.37Zm7.83,5.56v4.84a3.35,3.35,0,0,0-.79.12l-3.32-5Zm.93,5a3.11,3.11,0,0,0-.68-.11V83.65h4ZM84,75.6h1.32l-1.32,2Zm0-.25v-6.8h4.84a3.05,3.05,0,0,0,.53,1l-3.89,5.81Zm-8.07-8.8V59.49h6.58a4.91,4.91,0,0,0,0,.55A3.64,3.64,0,0,0,83,62a3.2,3.2,0,0,0,.76.84v3.74Zm7.82-9.92a4.48,4.48,0,0,0-.61.82,4.88,4.88,0,0,0-.61,1.79H75.9V51.52h7.82ZM75.9,48.52V40.39h7.82v8.13Zm15.9-8.38H84V32.33H91.8Zm0-8.06H84v-7.8H91.8Zm0-8H84v-7.8H91.8Zm0-15.85V16H84V8.18Zm-8.08,0V16H75.9V8.18Zm-8.07,0V16H67.82V8.18Zm-8.08,0V16H59.74V8.18Zm-8.08,0V16h-8V8.18Zm-11,0V16h-8V8.18Zm-8.24,0V16H32.43V8.18Zm-8.08,0V16H27.45a3.21,3.21,0,0,0-3.1-3.08V9.11h3l.34,1.64h2.36l-.62-2.57ZM26.45,4.64,27,7.36H24.84ZM22,8.18l-1.64,2.57h2.51l1-1.64h.3V12.9A3.21,3.21,0,0,0,21,16H16.28V8.18ZM8.2,8.18H16V16H8.2Zm0,8.05H16V24H8.2Zm0,8.05H16v2.29l-3.69,5.51H9.53a2.26,2.26,0,0,0,.53-1.51,1.69,1.69,0,0,0-.3-1,1.86,1.86,0,0,0-.83-.67,2.61,2.61,0,0,0,1.1-.83,2,2,0,0,0,.4-1.27,1.66,1.66,0,0,0-.75-1.46,3.16,3.16,0,0,0-1.48-.47ZM5.27,26.55H7c.66,0,1,.22,1,.66a.83.83,0,0,1-.33.71,1.58,1.58,0,0,1-1,.25H5Zm-.66,3.26h2.1a1.28,1.28,0,0,1,.72.18.57.57,0,0,1,.26.53.88.88,0,0,1-.35.75,1.83,1.83,0,0,1-1,.25H4.27ZM9,32.56a2,2,0,0,0,.27-.23h2.91L9,37.15A3.09,3.09,0,0,0,8.2,37V32.92A3.8,3.8,0,0,0,9,32.56ZM8.2,43.44a3.2,3.2,0,0,0,2.92-2.18H16v7.26H8.2Zm0,8.08H16v7.72H8.2Zm0,8H16V67.3H8.2Zm0,8.06H16v7.8H8.2Zm0,8H16v7.8H8.2Zm0,15.85v-7.8H16v7.8Zm8.08,0v-7.8H24.1v7.8Zm8.07,0v-7.8h7.83v7.8Zm8.08,0v-7.8h7.83v7.8Zm8.08,0v-7.8h8v7.8Zm11,0v-7.8h8v7.8Zm8.24,0v-7.8h7.83v7.8Zm8.08,0v-7.8h1.32l4,6.07a3.18,3.18,0,0,0-.67,1.73Zm11.11,0a3.11,3.11,0,0,0-.68-1.73l4.06-6.07h1.41v5.5l-1.48,2.3ZM85,90.81l1.6-2.72.57,2.72Zm6.79-5h-.65l-.54,3.5H91.8v2.15H89.58L88.21,85.8H85.87l-1.9,3V83.65H91.8Zm0-2.4H84V81.16l3.72-5.56H91.8Zm-3.94-8.05L91,70.66a3,3,0,0,0,.8.12v4.57Zm3.94-11a3.21,3.21,0,0,0-3,2.19H84V63a5.46,5.46,0,0,0,.47.31,5.19,5.19,0,0,0,2.23.46,5.69,5.69,0,0,0,2.09-.37,4,4,0,0,0,1.59-1.19L89,60.8a2.66,2.66,0,0,1-2,1,2.06,2.06,0,0,1-1.5-.52,1.77,1.77,0,0,1-.56-1.36,2.57,2.57,0,0,1,0-.4H91.8Zm0-9.19h-.14l-.54,3.5h.68v.57H84.91a3,3,0,0,1,.28-.85,2.51,2.51,0,0,1,1-1A2.67,2.67,0,0,1,87.56,57a2,2,0,0,1,1.84,1l1.72-1.37a3,3,0,0,0-1.34-1.17A5,5,0,0,0,87.71,55a5.68,5.68,0,0,0-2.73.65,4.62,4.62,0,0,0-1,.72V51.52H91.8Z"/></svg>