<?xml version="1.0" encoding="utf-8"?>
<!-- Generator: Adobe Illustrator 24.0.0, SVG Export Plug-In . SVG Version: 6.00 Build 0)  -->
<svg version="1.1" id="Layer_1" xmlns="http://www.w3.org/2000/svg" xmlns:xlink="http://www.w3.org/1999/xlink" x="0px" y="0px"
	 viewBox="0 0 100 100" style="enable-background:new 0 0 100 100;" xml:space="preserve">
<style type="text/css">
	.st0{fill:none;}
	.st1{fill:#FFFFFF;}
	.st2{fill:#FFFFFF;stroke:#FFFFFF;stroke-width:0.25;stroke-miterlimit:10;}
	.st3{fill:none;stroke:#000000;stroke-width:0.25;stroke-linecap:round;stroke-miterlimit:10;}
	.st4{fill:#D9D9D9;}
	.st5{fill:none;stroke:#000000;stroke-width:2;stroke-linejoin:round;stroke-miterlimit:10;}
	.st6{fill:none;stroke:#000000;stroke-width:0.4396;stroke-miterlimit:10;}
	.st7{fill:none;stroke:#000000;stroke-linecap:round;stroke-linejoin:round;}
	.st8{fill:none;stroke:#000000;stroke-linecap:round;stroke-linejoin:round;stroke-miterlimit:10;}
</style>
<g>
	<path d="M98.67,97H23.78c-0.74-11.09-9.63-19.97-20.71-20.71V37.04c0-0.83-0.67-1.5-1.5-1.5s-1.5,0.67-1.5,1.5V98.5
		c0,0.83,0.67,1.5,1.5,1.5h97.11c0.83,0,1.5-0.67,1.5-1.5S99.5,97,98.67,97z M3.07,77.81C13.32,78.55,21.52,86.75,22.26,97H3.07
		V77.81z"/>
	<rect x="4.18" y="37.18" transform="matrix(0.5318 -0.8469 0.8469 0.5318 -30.0462 21.5124)" width="0.5" height="1.5"/>
	<polygon points="57.24,70.55 54.23,68.66 53.7,69.51 56.71,71.4 	"/>
	<polygon points="58.87,72.76 61.88,74.65 62.41,73.8 59.4,71.91 	"/>
	<polygon points="67.58,77.05 64.57,75.16 64.04,76.01 67.05,77.9 	"/>
	<polygon points="43.36,63.01 46.37,64.9 46.9,64.05 43.89,62.16 	"/>
	<polygon points="52.07,67.3 49.06,65.41 48.53,66.26 51.54,68.15 	"/>
	<polygon points="41.73,60.8 38.72,58.91 38.19,59.75 41.2,61.65 	"/>
	<polygon points="77.92,83.56 74.91,81.67 74.38,82.51 77.38,84.4 	"/>
	<polygon points="83.09,86.81 80.08,84.92 79.55,85.76 82.55,87.66 	"/>
	<polygon points="93.42,93.31 90.42,91.42 89.88,92.27 92.89,94.16 	"/>
	<polygon points="72.22,81.15 72.75,80.3 69.74,78.41 69.21,79.26 	"/>
	<polygon points="88.25,90.06 85.25,88.17 84.72,89.02 87.72,90.91 	"/>
	<polygon points="26.22,51.04 23.21,49.15 22.68,50 25.69,51.89 	"/>
	<polygon points="21.05,47.79 18.04,45.9 17.51,46.75 20.52,48.64 	"/>
	<polygon points="31.39,54.3 28.38,52.4 27.85,53.25 30.86,55.14 	"/>
	<polygon points="15.88,44.54 12.87,42.65 12.34,43.5 15.35,45.39 	"/>
	<polygon points="10.71,41.29 7.71,39.4 7.17,40.25 10.18,42.14 	"/>
	<polygon points="36.56,57.55 33.55,55.66 33.02,56.5 36.03,58.39 	"/>
	<polygon points="96.93,95.81 95.66,95.01 95.4,95.44 96.67,96.24 	"/>
	<path d="M1.5,15.33h34.87c0.56,2.73,2.64,4.9,5.3,5.63v17.61c0,0.83,0.67,1.5,1.5,1.5s1.5-0.67,1.5-1.5V13.83
		c0-0.83-0.67-1.5-1.5-1.5H1.5C0.67,12.33,0,13,0,13.83S0.67,15.33,1.5,15.33z M41.67,19.39c-1.84-0.64-3.26-2.17-3.76-4.06h3.76
		V19.39z"/>
	<rect x="38.61" y="36.25" transform="matrix(0.5169 -0.8561 0.8561 0.5169 -12.9003 51.1435)" width="0.5" height="1.5"/>
	<polygon points="20.79,25.5 17.8,23.7 17.29,24.55 20.27,26.36 	"/>
	<polygon points="15.67,22.41 12.69,20.61 12.17,21.47 15.16,23.27 	"/>
	<polygon points="36.13,34.77 33.15,32.97 32.63,33.82 35.62,35.63 	"/>
	<polygon points="31.02,31.68 28.03,29.88 27.52,30.73 30.5,32.54 	"/>
	<polygon points="10.56,19.32 7.57,17.52 7.06,18.38 10.04,20.18 	"/>
	<polygon points="25.9,28.59 22.92,26.79 22.4,27.64 25.39,29.45 	"/>
	<polygon points="5.1,16.32 3.81,15.54 3.56,15.97 4.84,16.75 	"/>
	<path d="M58.05,60.29c0.83,0,1.5-0.67,1.5-1.5V13.2c5.34-0.51,9.61-4.73,10.22-10.04h28.72c0.83,0,1.5-0.67,1.5-1.5
		s-0.67-1.5-1.5-1.5H58.05c-0.83,0-1.5,0.67-1.5,1.5v57.13C56.55,59.61,57.22,60.29,58.05,60.29z M68.26,3.16
		c-0.59,4.49-4.19,8.03-8.7,8.54V3.16H68.26z"/>
	<rect x="96.44" y="3.86" transform="matrix(0.5735 -0.8192 0.8192 0.5735 38.0849 81.374)" width="1.5" height="0.5"/>
	<rect x="92.52" y="7.83" transform="matrix(0.5735 -0.8192 0.8192 0.5735 33.374 80.7547)" width="3.43" height="1"/>
	<polygon points="91.45,11.44 89.48,14.25 90.3,14.82 92.27,12.01 	"/>
	<rect x="65.64" y="46.23" transform="matrix(0.5732 -0.8194 0.8194 0.5732 -9.5433 75.1402)" width="3.43" height="1"/>
	<rect x="62.28" y="51.03" transform="matrix(0.5732 -0.8194 0.8194 0.5732 -14.9117 74.4358)" width="3.43" height="1"/>
	<rect x="69" y="41.43" transform="matrix(0.5735 -0.8192 0.8192 0.5735 -4.1881 75.8169)" width="3.43" height="1"/>
	<polygon points="82.19,26.41 81.37,25.84 79.4,28.65 80.22,29.22 	"/>
	<rect x="72.36" y="36.63" transform="matrix(0.5739 -0.8189 0.8189 0.5739 1.1558 76.4815)" width="3.43" height="1"/>
	<rect x="85.8" y="17.43" transform="matrix(0.5735 -0.8192 0.8192 0.5735 22.6366 79.3379)" width="3.43" height="1"/>
	<rect x="82.44" y="22.23" transform="matrix(0.5735 -0.8192 0.8192 0.5735 17.276 78.6387)" width="3.43" height="1"/>
	<rect x="75.72" y="31.83" transform="matrix(0.5732 -0.8194 0.8194 0.5732 6.5608 77.254)" width="3.43" height="1"/>
	<rect x="60.29" y="55.5" transform="matrix(0.5736 -0.8191 0.8191 0.5736 -19.6356 73.7696)" width="1.5" height="0.5"/>
</g>
</svg>
