<svg id="Layer_1" data-name="Layer 1" xmlns="http://www.w3.org/2000/svg" viewBox="0 0 100 100"><defs><style>.cls-1{fill:#231f20;}</style></defs><title> </title><path class="cls-1" d="M7.69,81.22a1.51,1.51,0,0,0,.65-.15L61.07,55.38A2.46,2.46,0,0,0,65,53.46L94.26,39.2A1.5,1.5,0,0,0,93,36.51L63.13,51a2.7,2.7,0,0,0-.58-.08,2.49,2.49,0,0,0-2.25,1.46l-9.8,4.78a2.39,2.39,0,0,0-.57-2.58,2.46,2.46,0,0,0-3.48,0,2.46,2.46,0,0,0,0,3.48,2.27,2.27,0,0,0,1,.59L7,78.37a1.5,1.5,0,0,0,.66,2.85Z"/><path class="cls-1" d="M13,70.56a2.47,2.47,0,1,0-2.47-2.47A2.47,2.47,0,0,0,13,70.56Z"/><path class="cls-1" d="M28.91,75.47A2.47,2.47,0,1,0,31.38,73,2.48,2.48,0,0,0,28.91,75.47Z"/><path class="cls-1" d="M52.75,75a2.47,2.47,0,0,0,1.19,3.28,2.54,2.54,0,0,0,1,.23A2.47,2.47,0,0,0,56,73.77h0A2.48,2.48,0,0,0,52.75,75Z"/><path class="cls-1" d="M41.73,69.21a2.47,2.47,0,1,0,2.46-2.46A2.47,2.47,0,0,0,41.73,69.21Z"/><path class="cls-1" d="M48.22,45.22a2.47,2.47,0,0,0,.92.18,2.47,2.47,0,0,0,2.29-1.55,2.43,2.43,0,0,0,0-1.89,2.46,2.46,0,0,0-4.55,0,2.48,2.48,0,0,0,1.36,3.21Z"/><path class="cls-1" d="M30.65,36.89a2.45,2.45,0,0,0,1.89,0,2.45,2.45,0,0,0,1.3-3.23,2.38,2.38,0,0,0-1.34-1.32,2.47,2.47,0,0,0-3.21,1.36A2.47,2.47,0,0,0,30.65,36.89Z"/><path class="cls-1" d="M60.59,30.13a2.47,2.47,0,0,0,.92.18,2.54,2.54,0,0,0,1-.19,2.49,2.49,0,0,0,1.32-1.35h0a2.47,2.47,0,1,0-4.56,0A2.43,2.43,0,0,0,60.59,30.13Z"/><path class="cls-1" d="M74.48,39.16a2.43,2.43,0,0,0,.92.18,2.49,2.49,0,0,0,2.29-1.55,2.5,2.5,0,0,0,0-1.88,2.43,2.43,0,0,0-1.35-1.32,2.46,2.46,0,0,0-3.19,3.25A2.49,2.49,0,0,0,74.48,39.16Z"/><path class="cls-1" d="M37.86,24.65a2.45,2.45,0,0,0,3.2-1.36h0a2.47,2.47,0,0,0-1.36-3.21,2.43,2.43,0,0,0-1.89,0,2.48,2.48,0,0,0-1.32,1.34,2.43,2.43,0,0,0,0,1.89A2.4,2.4,0,0,0,37.86,24.65Z"/><path class="cls-1" d="M61.08,46.35a2.47,2.47,0,1,0-1.74-.72A2.45,2.45,0,0,0,61.08,46.35Z"/><path class="cls-1" d="M75.71,54.42A2.47,2.47,0,1,0,74,53.7,2.45,2.45,0,0,0,75.71,54.42Z"/><path class="cls-1" d="M81.1,27.84a2.47,2.47,0,1,0-1.74-.72A2.45,2.45,0,0,0,81.1,27.84Z"/><path class="cls-1" d="M82.26,87a2.42,2.42,0,0,0,.79.13,2.5,2.5,0,0,0,1.1-.26,2.42,2.42,0,0,0,1.24-1.42,2.47,2.47,0,0,0-1.55-3.12h0a2.46,2.46,0,0,0-3,3.43A2.45,2.45,0,0,0,82.26,87Z"/><path class="cls-1" d="M62.55,61.81A2.47,2.47,0,1,0,65,64.27,2.47,2.47,0,0,0,62.55,61.81Z"/><path class="cls-1" d="M36.9,53.32a2.47,2.47,0,1,0-2.46-2.46A2.47,2.47,0,0,0,36.9,53.32Z"/><path class="cls-1" d="M24.3,80.29a2.44,2.44,0,0,0-.23,3.47,2.4,2.4,0,0,0,1.69.84h.17A2.47,2.47,0,0,0,27.55,84a2.47,2.47,0,0,0,.23-3.47A2.46,2.46,0,0,0,24.3,80.29Z"/><path class="cls-1" d="M90.63,44.92a2.46,2.46,0,0,0,1.46,4.31h.17a2.42,2.42,0,0,0,1.62-.61,2.53,2.53,0,0,0,.84-1.69,2.47,2.47,0,0,0-4.09-2Z"/><path class="cls-1" d="M14.65,82.81a2.47,2.47,0,0,0,3.25,3.71A2.48,2.48,0,0,0,18.13,83a2.48,2.48,0,0,0-3.48-.23Z"/><path class="cls-1" d="M82.57,62.85h.28a2.52,2.52,0,1,0-.28,0Z"/><path class="cls-1" d="M25.92,60.15a2.47,2.47,0,1,0-2.46-2.46A2.47,2.47,0,0,0,25.92,60.15Z"/><path class="cls-1" d="M71.88,64.12a2.47,2.47,0,0,0-1.22,4.78,2.54,2.54,0,0,0,.61.07,2.46,2.46,0,0,0,.61-4.85Z"/><path class="cls-1" d="M98.45,97H3V1.52a1.5,1.5,0,0,0-3,0v97H0A1.5,1.5,0,0,0,1.5,100h97a1.5,1.5,0,0,0,0-3Z"/></svg>