<?xml version="1.0" encoding="utf-8"?>
<!-- Generator: Adobe Illustrator 24.0.0, SVG Export Plug-In . SVG Version: 6.00 Build 0)  -->
<svg version="1.1" id="Layer_1" xmlns="http://www.w3.org/2000/svg" xmlns:xlink="http://www.w3.org/1999/xlink" x="0px" y="0px"
	 viewBox="0 0 100 100" style="enable-background:new 0 0 100 100;" xml:space="preserve">
<style type="text/css">
	.st0{fill:none;}
	.st1{fill:#FFFFFF;}
	.st2{fill:#FFFFFF;stroke:#FFFFFF;stroke-width:0.25;stroke-miterlimit:10;}
	.st3{fill:none;stroke:#000000;stroke-width:0.25;stroke-linecap:round;stroke-miterlimit:10;}
	.st4{fill:#D9D9D9;}
	.st5{fill:none;stroke:#000000;stroke-width:2;stroke-linejoin:round;stroke-miterlimit:10;}
	.st6{fill:none;stroke:#000000;stroke-width:0.4396;stroke-miterlimit:10;}
	.st7{fill:none;stroke:#000000;stroke-linecap:round;stroke-linejoin:round;}
	.st8{fill:none;stroke:#000000;stroke-linecap:round;stroke-linejoin:round;stroke-miterlimit:10;}
</style>
<g>
	<path d="M11.35,36.38c3.19,3.65,8.14,5.69,13.05,5.38c3.42-0.24,6.34-1.44,8.92-3.69c3.72-3.24,5.73-8.12,5.39-13.06
		c-0.23-3.42-1.43-6.34-3.68-8.91c-2.97-3.41-7.46-5.44-12.02-5.44c-0.35,0-0.7,0.01-1.05,0.04c-3.42,0.24-6.34,1.44-8.92,3.69
		c-3.71,3.24-5.73,8.12-5.39,13.06C7.89,30.88,9.1,33.8,11.35,36.38z"/>
	<path d="M97.87,2.05c-1.3-1.31-2.87-1.97-4.7-1.97H26.59c-1.83,0-3.4,0.66-4.7,1.97c-1.3,1.31-1.96,2.89-1.96,4.73v0.93
		c0.6-0.1,1.18-0.22,1.8-0.27c1.18-0.08,2.36-0.01,3.52,0.13V6.78c0-0.36,0.13-0.68,0.4-0.94c0.26-0.27,0.58-0.4,0.94-0.4h66.57
		c0.36,0,0.67,0.13,0.94,0.4c0.26,0.27,0.4,0.58,0.4,0.94v40.19c0,0.36-0.13,0.68-0.4,0.94c-0.26,0.27-0.58,0.4-0.94,0.4H46.59
		c0.7,1.14,1.19,2.42,1.35,3.84l-0.01,0c0.03,0.28,0.08,0.75,0.15,1.51h9.14v5.36h-8.65c0.13,1.46,0.29,3.24,0.47,5.36h28.15
		c0.39,0,0.71-0.13,0.96-0.38c0.25-0.25,0.37-0.57,0.37-0.96v-2.68c0-0.39-0.12-0.71-0.37-0.96c-0.25-0.25-0.57-0.38-0.96-0.38
		H62.54v-5.36h30.62c1.83,0,3.4-0.66,4.7-1.97c1.3-1.31,1.96-2.89,1.96-4.73V6.78C99.82,4.94,99.17,3.36,97.87,2.05z"/>
	<path d="M61.32,69.62c-0.47,0-0.94,0.07-1.41,0.21L46.77,75.1c-0.41-4.64-0.94-10.52-1.34-15.08c-0.02-0.21-0.04-0.45-0.06-0.65
		c-0.21-2.32-0.38-4.22-0.48-5.36c0-0.03,0-0.04-0.01-0.06c-0.06-0.67-0.1-1.08-0.1-1.08c-0.05-0.43-0.15-0.84-0.29-1.25
		c-0.11-0.32-0.27-0.63-0.43-0.93c-0.03-0.06-0.05-0.12-0.09-0.18c-0.53-0.92-1.3-1.72-2.39-2.27c-1.08-0.54-2.27-0.81-3.55-0.81
		c-0.42,0-0.86,0.03-1.3,0.09c-0.83,0.11-1.59,0.33-2.3,0.62h-8.92h-5.6h-8.43c-0.88-0.35-1.83-0.6-2.89-0.65
		c-0.17-0.01-0.33-0.01-0.5-0.01c-1.61,0-3.05,0.38-4.32,1.14c-1.9,1.13-2.84,3-2.96,4.87L0,96.1c7.58,6.19,42.51,3.83,42.4,0.98
		l0.07-0.06c0.39-0.02-0.8-8.13,1.55-10.11l18.71-7.71c2.59-0.77,4.06-3.5,3.29-6.09C65.38,70.99,63.43,69.62,61.32,69.62z"/>
	<path d="M91.46,10.91h-2.87c-3.78,0-7.07,2.09-8.79,5.17c1.24,1.36,2.16,3,2.65,4.83C87.51,20.39,91.46,16.11,91.46,10.91z"/>
	<path d="M71.35,13.78h-2.87c0,5.55,4.5,10.06,10.06,10.06v6.47c0,0.4,0.32,0.72,0.72,0.72h1.44c0.4,0,0.72-0.32,0.72-0.72v-6.47
		C81.4,18.29,76.9,13.78,71.35,13.78z"/>
	<rect x="45.83" y="17.12" transform="matrix(0.7997 -0.6004 0.6004 0.7997 -1.2053 31.5674)" width="1.77" height="0.95"/>
	<circle cx="43.88" cy="19.95" r="1.89"/>
	<path d="M58.99,16.65c1.04,0,1.89-0.85,1.89-1.89c0-1.04-0.85-1.89-1.89-1.89s-1.89,0.85-1.89,1.89
		C57.11,15.8,57.95,16.65,58.99,16.65z"/>
	<rect x="54.98" y="14.28" width="1.42" height="0.95"/>
	<path d="M43.88,8.61c-1.04,0-1.89,0.85-1.89,1.89c0,1.04,0.85,1.89,1.89,1.89c0.42,0,0.82-0.15,1.13-0.38l2.83,1.7
		c-0.11,0.33-0.19,0.68-0.19,1.05c0,1.83,1.48,3.31,3.31,3.31c0.25,0,0.49-0.03,0.72-0.09l1.2,2.58c-0.31,0.34-0.51,0.79-0.51,1.28
		c0,1.04,0.85,1.89,1.89,1.89s1.89-0.85,1.89-1.89s-0.85-1.89-1.89-1.89c-0.03,0-0.06,0.01-0.09,0.01l-1.21-2.59
		c0.79-0.6,1.3-1.54,1.3-2.61c0-1.83-1.48-3.31-3.31-3.31c-0.95,0-1.8,0.4-2.4,1.04l-2.83-1.7c0.01-0.09,0.03-0.19,0.03-0.29
		C45.77,9.46,44.92,8.61,43.88,8.61z M50.96,13.34c0.78,0,1.42,0.63,1.42,1.42c0,0.78-0.63,1.42-1.42,1.42
		c-0.78,0-1.42-0.63-1.42-1.42C49.55,13.97,50.18,13.34,50.96,13.34z"/>
	<path d="M64.02,44.64c4.99,0,9.04-4.05,9.04-9.04c0-4.99-4.05-9.04-9.04-9.04s-9.04,4.05-9.04,9.04
		C54.98,40.6,59.03,44.64,64.02,44.64z M69.01,33.95l0.71-1.07c0.08-0.13,0.2-0.23,0.34-0.3l0.47-0.24
		c0.49,0.98,0.78,2.08,0.78,3.26c0,0.32-0.03,0.63-0.07,0.93l-1.06-0.27c-0.21-0.05-0.4-0.18-0.52-0.36l-0.65-0.98
		c-0.08-0.12-0.15-0.34-0.15-0.49S68.93,34.07,69.01,33.95z M61.13,28.91l0.87,0.44c0.39,0.19,0.84-0.09,0.84-0.52v-0.41
		c0.29-0.05,0.59-0.08,0.89-0.09l1.03,1.03c0.23,0.23,0.23,0.6,0,0.82l-0.17,0.17l-0.38,0.38c-0.11,0.11-0.11,0.3,0,0.41l0.17,0.17
		c0.11,0.11,0.11,0.3,0,0.41l-0.29,0.29c-0.05,0.05-0.14,0.08-0.21,0.08h-0.33c-0.08,0-0.15,0.03-0.2,0.08l-0.36,0.35
		c-0.05,0.05-0.09,0.14-0.09,0.21c0,0.04,0.01,0.1,0.03,0.13l0.57,1.14c0.1,0.19-0.04,0.42-0.26,0.42h-0.21
		c-0.07,0-0.14-0.03-0.19-0.07l-0.34-0.29c-0.09-0.08-0.26-0.14-0.38-0.14c-0.05,0-0.14,0.01-0.19,0.03l-1.14,0.38
		c-0.17,0.06-0.3,0.24-0.3,0.41c0,0.17,0.09,0.32,0.24,0.39l0.4,0.2c0.34,0.17,0.72,0.26,1.1,0.26c0.38,0,0.82,1,1.17,1.17h2.43
		c0.31,0,0.61,0.12,0.82,0.34l0.5,0.5c0.18,0.18,0.33,0.53,0.33,0.79c0,0.39-0.22,0.93-0.5,1.2c-0.14,0.14-0.29,0.29-0.41,0.41
		c-0.11,0.11-0.19,0.24-0.23,0.39c-0.05,0.21-0.1,0.41-0.17,0.62l-0.63,1.71c-0.5,0.11-1.02,0.17-1.55,0.17v-1
		c0.06-0.46-0.28-1.32-0.82-1.87c-0.22-0.22-0.34-0.51-0.34-0.82v-1.17c0-0.42-0.23-0.82-0.6-1.02c-0.52-0.29-1.27-0.69-1.78-0.95
		c-0.42-0.21-0.81-0.48-1.15-0.79l-0.03-0.03c-0.21-0.19-0.5-0.53-0.66-0.76c-0.34-0.5-0.9-1.33-1.26-1.86
		C58.12,30.97,59.46,29.64,61.13,28.91z"/>
</g>
</svg>
