<svg id="Layer_1" data-name="Layer 1" xmlns="http://www.w3.org/2000/svg" viewBox="0 0 100 100"><defs><style>.cls-1{fill:#231f20;}</style></defs><title> </title><path class="cls-1" d="M11.35,36.38a16.2,16.2,0,0,0,13.06,5.38,14.66,14.66,0,0,0,8.92-3.68A16,16,0,0,0,38.72,25,14.57,14.57,0,0,0,35,16.1a16.15,16.15,0,0,0-12-5.44c-.35,0-.7,0-1.05,0A14.71,14.71,0,0,0,13,14.38,16,16,0,0,0,7.65,27.45,14.68,14.68,0,0,0,11.35,36.38Z"/><path class="cls-1" d="M97.87,2.05a6.41,6.41,0,0,0-4.7-2H26.59a6.39,6.39,0,0,0-4.7,2,6.48,6.48,0,0,0-1.95,4.73v.93a17.32,17.32,0,0,1,1.8-.27,18.82,18.82,0,0,1,3.52.13V6.78a1.26,1.26,0,0,1,.4-.94,1.24,1.24,0,0,1,.93-.4H93.17a1.24,1.24,0,0,1,.93.4,1.26,1.26,0,0,1,.4.94V47a1.26,1.26,0,0,1-.4.94,1.24,1.24,0,0,1-.93.4H46.59a9.28,9.28,0,0,1,1.35,3.84h0c0,.28.08.74.15,1.51h9.14V59H48.56L49,64.39H77.19a1.28,1.28,0,0,0,1.33-1.34V60.37a1.3,1.3,0,0,0-.37-1,1.27,1.27,0,0,0-1-.38H62.54V53.67H93.17a6.41,6.41,0,0,0,4.7-2A6.48,6.48,0,0,0,99.82,47V6.78A6.48,6.48,0,0,0,97.87,2.05Z"/><path class="cls-1" d="M61.32,69.62a4.9,4.9,0,0,0-1.4.21L46.77,75.1c-.41-4.64-.93-10.52-1.34-15.08,0-.21,0-.45-.06-.65-.21-2.32-.38-4.23-.48-5.36V54c-.06-.67-.1-1.08-.1-1.08a6.48,6.48,0,0,0-.28-1.25,6,6,0,0,0-.43-.93L44,50.5a5.63,5.63,0,0,0-2.39-2.26A7.85,7.85,0,0,0,38,47.42a9.58,9.58,0,0,0-1.3.09,9.14,9.14,0,0,0-2.3.62h-23a8.8,8.8,0,0,0-2.88-.65H8.1a8.31,8.31,0,0,0-4.33,1.14,6,6,0,0,0-3,4.87L0,96.1c7.58,6.19,42.51,3.83,42.4,1l.07,0c.4,0-.8-8.13,1.55-10.12l18.7-7.7a4.9,4.9,0,0,0-1.4-9.59Z"/><path class="cls-1" d="M91.46,10.91H88.59a10.06,10.06,0,0,0-8.79,5.17,11.68,11.68,0,0,1,2.65,4.83A10.06,10.06,0,0,0,91.46,10.91Z"/><path class="cls-1" d="M71.35,13.78H68.47A10.06,10.06,0,0,0,78.53,23.84v6.47a.72.72,0,0,0,.72.72h1.43a.72.72,0,0,0,.72-.72V23.84A10.06,10.06,0,0,0,71.35,13.78Z"/><rect class="cls-1" x="45.83" y="17.12" width="1.77" height="0.95" transform="translate(-1.21 31.57) rotate(-36.9)"/><circle class="cls-1" cx="43.88" cy="19.95" r="1.89"/><path class="cls-1" d="M59,16.65a1.89,1.89,0,1,0-1.88-1.89A1.89,1.89,0,0,0,59,16.65Z"/><rect class="cls-1" x="54.98" y="14.28" width="1.42" height="0.95"/><path class="cls-1" d="M43.88,8.61a1.89,1.89,0,0,0,0,3.78A1.88,1.88,0,0,0,45,12l2.83,1.7A3.29,3.29,0,0,0,51,18.07a3.38,3.38,0,0,0,.72-.09l1.21,2.58A1.88,1.88,0,1,0,54.27,20h-.09L53,17.37a3.3,3.3,0,0,0-2-5.92,3.27,3.27,0,0,0-2.39,1l-2.83-1.7a2.58,2.58,0,0,0,0-.29A1.89,1.89,0,0,0,43.88,8.61ZM51,13.34a1.42,1.42,0,1,1-1.41,1.42A1.41,1.41,0,0,1,51,13.34Z"/><path class="cls-1" d="M64,44.64a9,9,0,1,0-9-9A9,9,0,0,0,64,44.64ZM69,34l.71-1.07a.87.87,0,0,1,.34-.29l.47-.24a7,7,0,0,1,.71,4.19l-1.06-.27a.87.87,0,0,1-.52-.36l-.65-1a1,1,0,0,1-.15-.48A1,1,0,0,1,69,34Zm-7.88-5,.88.44a.58.58,0,0,0,.84-.52v-.41a6.54,6.54,0,0,1,.89-.09l1,1a.59.59,0,0,1,0,.83l-.17.17-.38.37a.31.31,0,0,0,0,.42l.18.17a.3.3,0,0,1,0,.41l-.3.29a.29.29,0,0,1-.2.09h-.33a.28.28,0,0,0-.2.08l-.36.35a.33.33,0,0,0-.09.21.28.28,0,0,0,0,.13L63.52,34a.3.3,0,0,1-.26.42h-.21a.32.32,0,0,1-.19-.07l-.34-.3a.66.66,0,0,0-.38-.14A.63.63,0,0,0,62,34l-1.13.38a.45.45,0,0,0-.3.41.42.42,0,0,0,.24.39l.4.2a2.41,2.41,0,0,0,1.11.26c.38,0,.82,1,1.17,1.17h2.43a1.15,1.15,0,0,1,.82.34l.5.5a1.28,1.28,0,0,1,.33.79,2,2,0,0,1-.5,1.2l-.41.41a.92.92,0,0,0-.23.39,6.29,6.29,0,0,1-.17.62l-.64,1.7A7.22,7.22,0,0,1,64,42.9v-1A2.74,2.74,0,0,0,63.19,40a1.22,1.22,0,0,1-.34-.83V38a1.15,1.15,0,0,0-.6-1c-.52-.29-1.27-.7-1.78-1a5,5,0,0,1-1.15-.8l0,0a5.29,5.29,0,0,1-.66-.76l-1.26-1.86A7.37,7.37,0,0,1,61.13,28.91Z"/></svg>