<?xml version="1.0" encoding="utf-8"?>
<!-- Generator: Adobe Illustrator 24.0.0, SVG Export Plug-In . SVG Version: 6.00 Build 0)  -->
<svg version="1.1" id="Layer_1" xmlns="http://www.w3.org/2000/svg" xmlns:xlink="http://www.w3.org/1999/xlink" x="0px" y="0px"
	 viewBox="0 0 100 100" style="enable-background:new 0 0 100 100;" xml:space="preserve">
<style type="text/css">
	.st0{fill:none;}
	.st1{fill:#FFFFFF;}
	.st2{fill:#FFFFFF;stroke:#FFFFFF;stroke-width:0.25;stroke-miterlimit:10;}
	.st3{fill:none;stroke:#000000;stroke-width:0.25;stroke-linecap:round;stroke-miterlimit:10;}
	.st4{fill:#D9D9D9;}
	.st5{fill:none;stroke:#000000;stroke-width:2;stroke-linejoin:round;stroke-miterlimit:10;}
	.st6{fill:none;stroke:#000000;stroke-width:0.4396;stroke-miterlimit:10;}
	.st7{fill:none;stroke:#000000;stroke-linecap:round;stroke-linejoin:round;}
	.st8{fill:none;stroke:#000000;stroke-linecap:round;stroke-linejoin:round;stroke-miterlimit:10;}
</style>
<g>
	<path d="M11.35,36.38c3.19,3.65,8.14,5.69,13.05,5.38c3.42-0.24,6.34-1.44,8.92-3.69c3.72-3.24,5.73-8.12,5.39-13.06
		c-0.23-3.42-1.43-6.34-3.68-8.91c-2.97-3.41-7.46-5.44-12.02-5.44c-0.35,0-0.7,0.01-1.05,0.04c-3.42,0.24-6.34,1.44-8.92,3.69
		c-3.71,3.24-5.73,8.12-5.39,13.06C7.89,30.88,9.1,33.8,11.35,36.38z"/>
	<path d="M97.87,2.05c-1.3-1.31-2.87-1.97-4.7-1.97H26.59c-1.83,0-3.4,0.66-4.7,1.97c-1.3,1.31-1.96,2.89-1.96,4.73v0.93
		c0.6-0.1,1.18-0.22,1.8-0.27c1.18-0.08,2.36-0.01,3.52,0.13V6.78c0-0.36,0.13-0.68,0.4-0.94c0.26-0.27,0.58-0.4,0.94-0.4h66.57
		c0.36,0,0.67,0.13,0.94,0.4c0.26,0.27,0.4,0.58,0.4,0.94v40.19c0,0.36-0.13,0.68-0.4,0.94c-0.26,0.27-0.58,0.4-0.94,0.4H46.59
		c0.7,1.14,1.19,2.42,1.35,3.84l-0.01,0c0.03,0.28,0.08,0.75,0.15,1.51h9.14v5.36h-8.65c0.13,1.46,0.29,3.24,0.47,5.36h28.15
		c0.39,0,0.71-0.13,0.96-0.38c0.25-0.25,0.37-0.57,0.37-0.96v-2.68c0-0.39-0.12-0.71-0.37-0.96c-0.25-0.25-0.57-0.38-0.96-0.38
		H62.54v-5.36h30.62c1.83,0,3.4-0.66,4.7-1.97c1.3-1.31,1.96-2.89,1.96-4.73V6.78C99.82,4.94,99.17,3.36,97.87,2.05z"/>
	<path d="M89.18,27.57H45.65c-0.21,0-0.38,0.17-0.38,0.38s0.17,0.38,0.38,0.38h43.53c0.21,0,0.38-0.17,0.38-0.38
		S89.38,27.57,89.18,27.57z"/>
	<path d="M45.27,22.13c0,0.21,0.17,0.38,0.38,0.38h43.53c0.21,0,0.38-0.17,0.38-0.38s-0.17-0.38-0.38-0.38H45.65
		C45.44,21.76,45.27,21.93,45.27,22.13z"/>
	<path d="M89.18,33.37H45.65c-0.21,0-0.38,0.17-0.38,0.38s0.17,0.38,0.38,0.38h43.53c0.21,0,0.38-0.17,0.38-0.38
		S89.38,33.37,89.18,33.37z"/>
	<path d="M89.18,39.18H45.65c-0.21,0-0.38,0.17-0.38,0.38s0.17,0.38,0.38,0.38h43.53c0.21,0,0.38-0.17,0.38-0.38
		S89.38,39.18,89.18,39.18z"/>
	<path d="M61.32,69.62c-0.47,0-0.94,0.07-1.41,0.21L46.77,75.1c-0.41-4.64-0.94-10.52-1.34-15.08c-0.02-0.21-0.04-0.45-0.06-0.65
		c-0.21-2.32-0.38-4.22-0.48-5.36c0-0.03,0-0.04-0.01-0.06c-0.06-0.67-0.1-1.08-0.1-1.08c-0.05-0.43-0.15-0.84-0.29-1.25
		c-0.11-0.32-0.27-0.63-0.43-0.93c-0.03-0.06-0.06-0.12-0.09-0.18c-0.53-0.92-1.3-1.72-2.39-2.27c-1.08-0.54-2.27-0.81-3.55-0.81
		c-0.42,0-0.86,0.03-1.3,0.09c-0.83,0.11-1.59,0.33-2.3,0.62h-8.92h-5.6h-8.43c-0.88-0.35-1.83-0.6-2.89-0.65
		c-0.17-0.01-0.33-0.01-0.5-0.01c-1.61,0-3.05,0.38-4.32,1.14c-1.9,1.13-2.84,3-2.96,4.87L0,96.1c7.58,6.19,42.51,3.83,42.4,0.98
		l0.07-0.06c0.39-0.02-0.8-8.13,1.55-10.11l18.71-7.71c2.59-0.77,4.06-3.5,3.29-6.09C65.38,70.99,63.43,69.62,61.32,69.62z"/>
	<path d="M40.84,13.47c0.21,0,0.38-0.06,0.51-0.19c0.13-0.13,0.2-0.28,0.2-0.48c0-0.19-0.07-0.35-0.2-0.48
		c-0.13-0.13-0.3-0.2-0.51-0.2c-0.2,0-0.37,0.06-0.5,0.2c-0.13,0.13-0.2,0.29-0.2,0.48c0,0.19,0.07,0.35,0.2,0.48
		C40.46,13.41,40.63,13.47,40.84,13.47z"/>
	<path d="M39.76,14.79c-0.15,0.14-0.28,0.26-0.37,0.36c-0.09,0.1-0.17,0.23-0.24,0.38c-0.07,0.15-0.1,0.32-0.1,0.52
		c0,0.42,0.17,0.75,0.51,0.99c0.34,0.24,0.8,0.36,1.36,0.36c0.49,0,0.91-0.09,1.26-0.26c0.35-0.17,0.63-0.42,0.84-0.73l-0.89-0.52
		c-0.12,0.18-0.27,0.31-0.45,0.41c-0.18,0.09-0.39,0.14-0.62,0.14c-0.24,0-0.43-0.05-0.57-0.15c-0.15-0.1-0.22-0.23-0.22-0.4
		c0-0.13,0.04-0.24,0.11-0.34c0.08-0.1,0.2-0.23,0.36-0.37c0.22-0.19,0.38-0.37,0.5-0.54c0.12-0.17,0.17-0.38,0.17-0.63h-1.12
		c0,0.15-0.04,0.29-0.13,0.4C40.07,14.5,39.93,14.64,39.76,14.79z"/>
	<path d="M44.8,12.14c0.25-0.14,0.54-0.21,0.86-0.21c0.52,0,0.95,0.2,1.3,0.61l0.77-0.71c-0.25-0.3-0.55-0.52-0.91-0.68
		c-0.36-0.16-0.77-0.24-1.22-0.24c-0.53,0-1.01,0.11-1.44,0.34c-0.43,0.23-0.76,0.55-1.01,0.95c-0.24,0.41-0.37,0.87-0.37,1.38
		c0,0.51,0.12,0.97,0.37,1.38c0.24,0.41,0.58,0.72,1.01,0.95c0.43,0.23,0.9,0.34,1.43,0.34c0.45,0,0.86-0.08,1.22-0.24
		c0.36-0.16,0.67-0.39,0.92-0.69l-0.77-0.71c-0.35,0.41-0.78,0.61-1.3,0.61c-0.32,0-0.61-0.07-0.86-0.21
		c-0.25-0.14-0.45-0.34-0.59-0.59C44.07,14.19,44,13.91,44,13.59s0.07-0.61,0.21-0.86C44.35,12.48,44.55,12.28,44.8,12.14z"/>
	<path d="M48.35,13.13c-0.19,0.31-0.28,0.66-0.28,1.06c0,0.39,0.09,0.75,0.28,1.06c0.19,0.31,0.45,0.55,0.78,0.73
		c0.33,0.17,0.71,0.26,1.13,0.26c0.42,0,0.79-0.09,1.12-0.26c0.33-0.17,0.59-0.42,0.78-0.73c0.19-0.31,0.28-0.66,0.28-1.06
		c0-0.39-0.09-0.75-0.28-1.06c-0.19-0.31-0.45-0.55-0.78-0.73c-0.33-0.17-0.7-0.26-1.12-0.26c-0.42,0-0.79,0.09-1.13,0.26
		C48.8,12.57,48.54,12.82,48.35,13.13z M49.52,13.38c0.19-0.2,0.44-0.3,0.73-0.3c0.3,0,0.54,0.1,0.73,0.3
		c0.19,0.2,0.28,0.47,0.28,0.8c0,0.34-0.09,0.6-0.28,0.8c-0.19,0.2-0.43,0.3-0.73,0.3c-0.3,0-0.54-0.1-0.73-0.3
		c-0.19-0.2-0.29-0.47-0.29-0.8C49.24,13.85,49.33,13.58,49.52,13.38z"/>
	<polygon points="51.81,10.62 50.57,10.62 49.57,11.69 50.47,11.69 	"/>
	<path d="M53.17,12.2v3.98h1.15v-2c0-0.34,0.08-0.61,0.24-0.78c0.16-0.17,0.37-0.26,0.64-0.26c0.5,0,0.75,0.31,0.75,0.94v2.1h1.15
		v-2c0-0.34,0.08-0.61,0.24-0.78c0.16-0.17,0.37-0.26,0.64-0.26c0.24,0,0.43,0.08,0.56,0.23c0.13,0.16,0.2,0.39,0.2,0.71v2.1h1.15
		V13.9c0-0.59-0.15-1.03-0.44-1.32c-0.29-0.29-0.69-0.44-1.19-0.44c-0.3,0-0.57,0.06-0.82,0.17s-0.45,0.27-0.62,0.48
		c-0.14-0.21-0.32-0.37-0.55-0.48c-0.23-0.11-0.48-0.17-0.76-0.17c-0.26,0-0.49,0.04-0.71,0.13c-0.21,0.09-0.4,0.22-0.54,0.38V12.2
		H53.17z"/>
	<path d="M61.64,15.97c0.33,0.17,0.71,0.26,1.13,0.26c0.42,0,0.79-0.09,1.12-0.26c0.33-0.17,0.59-0.42,0.78-0.73
		c0.19-0.31,0.28-0.66,0.28-1.06c0-0.39-0.09-0.75-0.28-1.06c-0.19-0.31-0.45-0.55-0.78-0.73c-0.33-0.17-0.7-0.26-1.12-0.26
		c-0.42,0-0.79,0.09-1.13,0.26s-0.59,0.42-0.78,0.73c-0.19,0.31-0.28,0.66-0.28,1.06c0,0.39,0.09,0.75,0.28,1.06
		C61.05,15.55,61.31,15.79,61.64,15.97z M62.03,13.38c0.19-0.2,0.44-0.3,0.73-0.3c0.3,0,0.54,0.1,0.73,0.3
		c0.19,0.2,0.28,0.47,0.28,0.8c0,0.34-0.09,0.6-0.28,0.8c-0.19,0.2-0.43,0.3-0.73,0.3c-0.3,0-0.54-0.1-0.73-0.3
		c-0.19-0.2-0.29-0.47-0.29-0.8C61.74,13.85,61.84,13.58,62.03,13.38z"/>
	<path d="M71.7,14.2c0-0.41-0.09-0.78-0.27-1.09c-0.18-0.31-0.43-0.55-0.74-0.72c-0.32-0.17-0.67-0.25-1.06-0.25
		c-0.4,0-0.76,0.09-1.08,0.26c-0.32,0.17-0.58,0.42-0.76,0.73c-0.18,0.31-0.28,0.66-0.28,1.05c0,0.39,0.09,0.75,0.28,1.06
		c0.19,0.31,0.45,0.55,0.8,0.73c0.34,0.17,0.74,0.26,1.19,0.26c0.72,0,1.27-0.21,1.64-0.64l-0.61-0.67
		c-0.14,0.13-0.29,0.23-0.45,0.29c-0.16,0.06-0.34,0.09-0.55,0.09c-0.3,0-0.55-0.07-0.75-0.21c-0.2-0.14-0.33-0.34-0.38-0.58h3.01
		C71.69,14.32,71.7,14.21,71.7,14.2z M68.66,13.84c0.04-0.26,0.15-0.46,0.33-0.61c0.18-0.15,0.4-0.22,0.66-0.22
		c0.26,0,0.47,0.08,0.65,0.23c0.18,0.15,0.29,0.35,0.33,0.6H68.66z"/>
	<path d="M73.86,15.36c-0.24,0-0.49-0.04-0.74-0.11c-0.25-0.07-0.47-0.16-0.64-0.28l-0.38,0.83c0.19,0.12,0.44,0.23,0.75,0.31
		c0.32,0.08,0.64,0.12,0.97,0.12c0.39,0,0.73-0.05,1.01-0.16c0.28-0.11,0.5-0.25,0.65-0.45s0.22-0.41,0.22-0.66
		c0-0.29-0.08-0.52-0.23-0.68c-0.15-0.16-0.33-0.27-0.54-0.34c-0.21-0.06-0.47-0.12-0.8-0.17c-0.29-0.04-0.5-0.09-0.64-0.14
		c-0.13-0.05-0.2-0.14-0.2-0.26c0-0.11,0.06-0.2,0.18-0.27c0.12-0.07,0.31-0.1,0.55-0.1c0.41,0,0.8,0.1,1.15,0.3l0.38-0.82
		c-0.18-0.11-0.41-0.19-0.69-0.25c-0.28-0.06-0.56-0.09-0.84-0.09c-0.38,0-0.71,0.05-0.99,0.16c-0.28,0.11-0.49,0.26-0.64,0.45
		c-0.15,0.19-0.22,0.42-0.22,0.67c0,0.3,0.08,0.53,0.23,0.69c0.16,0.16,0.34,0.28,0.55,0.34c0.21,0.06,0.48,0.12,0.81,0.17
		c0.28,0.03,0.48,0.08,0.61,0.13c0.13,0.05,0.2,0.13,0.2,0.24C74.59,15.24,74.35,15.36,73.86,15.36z"/>
	<path d="M76.6,11.32v0.97h-0.61v0.89h0.61v1.63c0,0.47,0.13,0.82,0.39,1.06c0.26,0.24,0.62,0.36,1.1,0.36
		c0.18,0,0.36-0.02,0.52-0.06c0.17-0.04,0.3-0.1,0.42-0.19l-0.31-0.81c-0.13,0.1-0.28,0.15-0.47,0.15c-0.16,0-0.28-0.05-0.37-0.14
		c-0.09-0.09-0.13-0.22-0.13-0.39v-1.62h0.99v-0.89h-0.99v-0.97H76.6z"/>
	<polygon points="82.9,10.62 81.66,10.62 80.66,11.69 81.56,11.69 	"/>
	<path d="M79.77,14.15c-0.28,0.21-0.42,0.5-0.42,0.87c0,0.23,0.06,0.44,0.18,0.62c0.12,0.18,0.29,0.33,0.51,0.43
		s0.49,0.15,0.79,0.15c0.59,0,1-0.18,1.21-0.55v0.5h1.08V13.9c0-0.59-0.16-1.03-0.5-1.33c-0.33-0.29-0.8-0.44-1.42-0.44
		c-0.32,0-0.63,0.04-0.94,0.13s-0.56,0.2-0.78,0.35l0.41,0.81c0.14-0.11,0.32-0.2,0.52-0.27c0.2-0.07,0.41-0.1,0.62-0.1
		c0.31,0,0.53,0.07,0.69,0.2c0.15,0.14,0.23,0.33,0.23,0.58h-0.92C80.48,13.84,80.05,13.94,79.77,14.15z M81.98,14.51v0.41
		c-0.06,0.18-0.17,0.31-0.32,0.4c-0.15,0.09-0.33,0.14-0.53,0.14c-0.2,0-0.36-0.04-0.48-0.13c-0.12-0.09-0.17-0.2-0.17-0.35
		c0-0.31,0.24-0.47,0.71-0.47H81.98z"/>
	<path d="M85.55,15.36c-0.24,0-0.49-0.04-0.74-0.11c-0.25-0.07-0.47-0.16-0.64-0.28l-0.38,0.83c0.19,0.12,0.44,0.23,0.75,0.31
		c0.32,0.08,0.64,0.12,0.97,0.12c0.39,0,0.73-0.05,1.01-0.16c0.28-0.11,0.5-0.25,0.65-0.45s0.22-0.41,0.22-0.66
		c0-0.29-0.08-0.52-0.23-0.68c-0.15-0.16-0.33-0.27-0.54-0.34c-0.21-0.06-0.47-0.12-0.8-0.17c-0.29-0.04-0.5-0.09-0.64-0.14
		c-0.13-0.05-0.2-0.14-0.2-0.26c0-0.11,0.06-0.2,0.18-0.27c0.12-0.07,0.31-0.1,0.55-0.1c0.41,0,0.8,0.1,1.15,0.3l0.38-0.82
		c-0.18-0.11-0.41-0.19-0.69-0.25c-0.28-0.06-0.56-0.09-0.84-0.09c-0.38,0-0.71,0.05-0.99,0.16c-0.28,0.11-0.49,0.26-0.64,0.45
		c-0.15,0.19-0.22,0.42-0.22,0.67c0,0.3,0.08,0.53,0.23,0.69c0.16,0.16,0.34,0.28,0.55,0.34c0.21,0.06,0.48,0.12,0.81,0.17
		c0.28,0.03,0.48,0.08,0.61,0.13c0.13,0.05,0.2,0.13,0.2,0.24C86.28,15.24,86.04,15.36,85.55,15.36z"/>
	<path d="M89.63,14.9c-0.21,0-0.38,0.06-0.51,0.19c-0.13,0.13-0.2,0.28-0.2,0.47c0,0.19,0.07,0.35,0.2,0.48
		c0.14,0.13,0.3,0.2,0.51,0.2s0.37-0.06,0.51-0.2s0.2-0.29,0.2-0.48c0-0.19-0.07-0.34-0.2-0.47C90,14.96,89.83,14.9,89.63,14.9z"/>
	<path d="M90.71,13.56c0.15-0.14,0.28-0.26,0.37-0.37c0.1-0.11,0.18-0.24,0.24-0.39c0.07-0.15,0.1-0.33,0.1-0.53
		c0-0.43-0.17-0.76-0.51-1.01s-0.8-0.36-1.36-0.36c-0.48,0-0.9,0.09-1.25,0.26c-0.35,0.17-0.63,0.42-0.84,0.73l0.89,0.52
		c0.12-0.17,0.27-0.31,0.45-0.4s0.39-0.14,0.62-0.14c0.24,0,0.43,0.05,0.58,0.16c0.15,0.11,0.22,0.25,0.22,0.43
		c0,0.13-0.04,0.24-0.11,0.34c-0.08,0.1-0.2,0.23-0.36,0.37c-0.22,0.2-0.39,0.39-0.51,0.55c-0.12,0.17-0.17,0.38-0.17,0.64h1.12
		c0-0.16,0.04-0.29,0.13-0.4C90.39,13.86,90.52,13.73,90.71,13.56z"/>
</g>
</svg>
