<svg id="Layer_1" data-name="Layer 1" xmlns="http://www.w3.org/2000/svg" viewBox="0 0 100 100"><defs><style>.cls-1{fill:#231f20;}</style></defs><title> </title><path class="cls-1" d="M11.35,36.38a16.2,16.2,0,0,0,13.06,5.38,14.66,14.66,0,0,0,8.92-3.68A16,16,0,0,0,38.72,25,14.57,14.57,0,0,0,35,16.1a16.15,16.15,0,0,0-12-5.44c-.35,0-.7,0-1.05,0A14.71,14.71,0,0,0,13,14.38,16,16,0,0,0,7.65,27.45,14.68,14.68,0,0,0,11.35,36.38Z"/><path class="cls-1" d="M97.87,2.05a6.41,6.41,0,0,0-4.7-2H26.59a6.39,6.39,0,0,0-4.7,2,6.48,6.48,0,0,0-1.95,4.73v.93a17.32,17.32,0,0,1,1.8-.27,18.82,18.82,0,0,1,3.52.13V6.78a1.26,1.26,0,0,1,.4-.94,1.24,1.24,0,0,1,.93-.4H93.17a1.24,1.24,0,0,1,.93.4,1.26,1.26,0,0,1,.4.94V47a1.26,1.26,0,0,1-.4.94,1.24,1.24,0,0,1-.93.4H46.59a9.28,9.28,0,0,1,1.35,3.84h0c0,.28.08.74.15,1.51h9.14V59H48.57c.12,1.46.28,3.23.47,5.36H77.19a1.28,1.28,0,0,0,1.33-1.34V60.37a1.3,1.3,0,0,0-.37-1,1.27,1.27,0,0,0-1-.38H62.54V53.67H93.17a6.41,6.41,0,0,0,4.7-2A6.48,6.48,0,0,0,99.82,47V6.78A6.48,6.48,0,0,0,97.87,2.05Z"/><path class="cls-1" d="M89.18,27.57H45.65a.37.37,0,0,0-.38.37.38.38,0,0,0,.38.38H89.18a.38.38,0,0,0,.37-.38A.37.37,0,0,0,89.18,27.57Z"/><path class="cls-1" d="M45.27,22.13a.38.38,0,0,0,.38.38H89.18a.38.38,0,0,0,0-.75H45.65A.38.38,0,0,0,45.27,22.13Z"/><path class="cls-1" d="M89.18,33.37H45.65a.38.38,0,1,0,0,.75H89.18a.38.38,0,0,0,0-.75Z"/><path class="cls-1" d="M89.18,39.18H45.65a.38.38,0,1,0,0,.75H89.18a.38.38,0,0,0,0-.75Z"/><path class="cls-1" d="M61.32,69.62a4.9,4.9,0,0,0-1.4.21L46.77,75.1c-.41-4.64-.93-10.52-1.34-15.08,0-.21,0-.45-.06-.65-.21-2.32-.38-4.23-.48-5.36V54c-.06-.67-.1-1.08-.1-1.08a6.48,6.48,0,0,0-.28-1.25,6,6,0,0,0-.43-.93L44,50.5a5.63,5.63,0,0,0-2.39-2.26A7.85,7.85,0,0,0,38,47.42a9.58,9.58,0,0,0-1.3.09,9.14,9.14,0,0,0-2.3.62h-23a8.8,8.8,0,0,0-2.88-.65H8.1a8.31,8.31,0,0,0-4.33,1.14,6,6,0,0,0-3,4.87L0,96.1c7.58,6.19,42.51,3.83,42.4,1l.07,0c.4,0-.8-8.13,1.55-10.12l18.7-7.7a4.9,4.9,0,0,0-1.4-9.59Z"/><path class="cls-1" d="M40.84,13.47a.76.76,0,0,0,.51-.18.68.68,0,0,0,0-1,.72.72,0,0,0-.51-.19.7.7,0,0,0-.51.19.68.68,0,0,0,0,1A.72.72,0,0,0,40.84,13.47Z"/><path class="cls-1" d="M39.76,14.79a4.36,4.36,0,0,0-.37.36,1.32,1.32,0,0,0-.25.38,1.21,1.21,0,0,0-.1.52,1.13,1.13,0,0,0,.51,1,2.36,2.36,0,0,0,1.37.36,2.71,2.71,0,0,0,1.25-.26A2.05,2.05,0,0,0,43,16.4l-.9-.52a1.09,1.09,0,0,1-.45.4,1.26,1.26,0,0,1-.62.14,1,1,0,0,1-.57-.15.45.45,0,0,1-.22-.39.55.55,0,0,1,.12-.35,2.74,2.74,0,0,1,.35-.37,2.68,2.68,0,0,0,.5-.54A1.07,1.07,0,0,0,41.4,14H40.28a.62.62,0,0,1-.13.4A2.81,2.81,0,0,1,39.76,14.79Z"/><path class="cls-1" d="M44.8,12.14a1.7,1.7,0,0,1,.85-.21,1.65,1.65,0,0,1,1.31.61l.76-.71a2.28,2.28,0,0,0-.91-.68,3.2,3.2,0,0,0-2.65.1,2.59,2.59,0,0,0-1,1,2.81,2.81,0,0,0,0,2.75,2.59,2.59,0,0,0,1,1,2.93,2.93,0,0,0,1.43.34A3.19,3.19,0,0,0,46.81,16a2.4,2.4,0,0,0,.91-.69L47,14.63a1.65,1.65,0,0,1-1.31.61A1.7,1.7,0,0,1,44.8,15a1.52,1.52,0,0,1-.59-.59,1.7,1.7,0,0,1-.21-.85,1.74,1.74,0,0,1,.21-.86A1.52,1.52,0,0,1,44.8,12.14Z"/><path class="cls-1" d="M48.35,13.13a2.13,2.13,0,0,0,0,2.11,2,2,0,0,0,.78.73,2.56,2.56,0,0,0,2.25,0,2,2,0,0,0,.78-.73,2.13,2.13,0,0,0,0-2.11,2,2,0,0,0-.78-.73,2.56,2.56,0,0,0-2.25,0A2,2,0,0,0,48.35,13.13Zm1.17.25a1,1,0,0,1,.74-.3,1,1,0,0,1,.72.3A1.26,1.26,0,0,1,51,15a1,1,0,0,1-.72.3,1,1,0,0,1-.74-.3,1.3,1.3,0,0,1,0-1.61Z"/><polygon class="cls-1" points="51.81 10.62 50.57 10.62 49.57 11.69 50.47 11.69 51.81 10.62"/><path class="cls-1" d="M53.17,12.2v4h1.15v-2a1.1,1.1,0,0,1,.24-.78.79.79,0,0,1,.63-.27c.5,0,.76.32.76.94v2.1H57.1v-2a1.1,1.1,0,0,1,.24-.78.8.8,0,0,1,.64-.27.68.68,0,0,1,.56.24,1.06,1.06,0,0,1,.19.7v2.1h1.16V13.9a1.8,1.8,0,0,0-.44-1.32,1.59,1.59,0,0,0-1.19-.44,1.85,1.85,0,0,0-.82.17,1.52,1.52,0,0,0-.61.48,1.44,1.44,0,0,0-.55-.49,1.73,1.73,0,0,0-.76-.16,1.83,1.83,0,0,0-.71.13,1.6,1.6,0,0,0-.54.38V12.2Z"/><path class="cls-1" d="M61.64,16a2.56,2.56,0,0,0,2.25,0,2,2,0,0,0,.78-.73,2.13,2.13,0,0,0,0-2.11,2,2,0,0,0-.78-.73,2.56,2.56,0,0,0-2.25,0,2.06,2.06,0,0,0-.78,2.84A2,2,0,0,0,61.64,16ZM62,13.38a1,1,0,0,1,.73-.3,1,1,0,0,1,.73.3,1.26,1.26,0,0,1,0,1.61,1,1,0,0,1-.73.3A1,1,0,0,1,62,15a1.26,1.26,0,0,1,0-1.61Z"/><path class="cls-1" d="M71.7,14.2a2.15,2.15,0,0,0-.27-1.09,1.9,1.9,0,0,0-.74-.72,2.21,2.21,0,0,0-1.06-.25,2.16,2.16,0,0,0-1.08.26,1.91,1.91,0,0,0-.76.73,2.13,2.13,0,0,0,0,2.11,2,2,0,0,0,.8.73,2.64,2.64,0,0,0,1.19.26,2,2,0,0,0,1.64-.64l-.61-.67a1.42,1.42,0,0,1-.45.3,1.55,1.55,0,0,1-.55.09,1.21,1.21,0,0,1-.75-.22.91.91,0,0,1-.39-.58h3C71.69,14.32,71.7,14.21,71.7,14.2Zm-3-.36a.94.94,0,0,1,.32-.61,1,1,0,0,1,.66-.22.94.94,0,0,1,1,.83Z"/><path class="cls-1" d="M73.86,15.36a2.76,2.76,0,0,1-.74-.11,2.37,2.37,0,0,1-.64-.27l-.39.82a2.35,2.35,0,0,0,.76.31,3.91,3.91,0,0,0,1,.12,2.76,2.76,0,0,0,1-.16,1.37,1.37,0,0,0,.65-.44,1.07,1.07,0,0,0,.22-.66.92.92,0,0,0-.23-.68,1.19,1.19,0,0,0-.54-.34,6.15,6.15,0,0,0-.79-.17,3.8,3.8,0,0,1-.64-.14.27.27,0,0,1-.2-.26.3.3,0,0,1,.19-.27A1.12,1.12,0,0,1,74,13a2.39,2.39,0,0,1,1.15.29l.38-.82a2.5,2.5,0,0,0-.69-.25,4,4,0,0,0-.84-.09,2.71,2.71,0,0,0-1,.16,1.39,1.39,0,0,0-.63.45,1.08,1.08,0,0,0-.22.67,1,1,0,0,0,.23.7,1.37,1.37,0,0,0,.55.34,6.56,6.56,0,0,0,.81.17,2.7,2.7,0,0,1,.61.12.25.25,0,0,1,.2.25C74.59,15.24,74.35,15.36,73.86,15.36Z"/><path class="cls-1" d="M76.6,11.32v1H76v.89h.62v1.64A1.41,1.41,0,0,0,77,15.87a1.57,1.57,0,0,0,1.1.36,2.18,2.18,0,0,0,.52-.06A1.16,1.16,0,0,0,79,16l-.31-.81a.73.73,0,0,1-.46.15.5.5,0,0,1-.37-.14.53.53,0,0,1-.13-.39V13.17h1v-.89h-1v-1Z"/><polygon class="cls-1" points="82.9 10.62 81.66 10.62 80.66 11.69 81.56 11.69 82.9 10.62"/><path class="cls-1" d="M79.77,14.15a1.06,1.06,0,0,0-.42.88,1.1,1.1,0,0,0,.18.62,1.28,1.28,0,0,0,.51.43,2,2,0,0,0,.8.15,1.28,1.28,0,0,0,1.21-.55v.49h1.08V13.9a1.66,1.66,0,0,0-.49-1.32,2,2,0,0,0-1.42-.44,3.67,3.67,0,0,0-.94.12,2.55,2.55,0,0,0-.78.36l.41.8a1.88,1.88,0,0,1,.53-.27,2.17,2.17,0,0,1,.62-.1,1,1,0,0,1,.69.21.74.74,0,0,1,.23.58h-.92A2.15,2.15,0,0,0,79.77,14.15Zm2.21.36v.41a.77.77,0,0,1-.33.4,1,1,0,0,1-.52.14.85.85,0,0,1-.48-.13.41.41,0,0,1-.17-.35c0-.32.23-.47.71-.47Z"/><path class="cls-1" d="M85.55,15.36a2.76,2.76,0,0,1-.74-.11,2.37,2.37,0,0,1-.64-.27l-.39.82a2.35,2.35,0,0,0,.76.31,3.83,3.83,0,0,0,1,.12,2.78,2.78,0,0,0,1-.16,1.37,1.37,0,0,0,.65-.44,1.07,1.07,0,0,0,.22-.66,1,1,0,0,0-.23-.68,1.19,1.19,0,0,0-.54-.34,6,6,0,0,0-.8-.17,3.88,3.88,0,0,1-.63-.14.27.27,0,0,1-.2-.26.31.31,0,0,1,.18-.27,1.19,1.19,0,0,1,.56-.1,2.36,2.36,0,0,1,1.14.29l.39-.82a2.5,2.5,0,0,0-.69-.25,4,4,0,0,0-.84-.09,2.71,2.71,0,0,0-1,.16,1.39,1.39,0,0,0-.63.45,1.08,1.08,0,0,0-.22.67,1,1,0,0,0,.23.7,1.37,1.37,0,0,0,.55.34,6.56,6.56,0,0,0,.81.17,2.7,2.7,0,0,1,.61.12.26.26,0,0,1,.2.25C86.28,15.24,86,15.36,85.55,15.36Z"/><path class="cls-1" d="M89.63,14.9a.69.69,0,0,0-.51.19.6.6,0,0,0-.2.47.62.62,0,0,0,.2.48.7.7,0,0,0,.51.19.68.68,0,0,0,.5-.19.65.65,0,0,0,0-.95A.72.72,0,0,0,89.63,14.9Z"/><path class="cls-1" d="M90.71,13.56c.15-.13.27-.26.37-.36a1.28,1.28,0,0,0,.24-.39,1.25,1.25,0,0,0,.1-.53,1.17,1.17,0,0,0-.51-1,2.33,2.33,0,0,0-1.36-.36,2.86,2.86,0,0,0-1.26.26,2.05,2.05,0,0,0-.84.73l.9.53A1.26,1.26,0,0,1,88.8,12a1.38,1.38,0,0,1,.62-.14A1,1,0,0,1,90,12a.49.49,0,0,1,.22.43.52.52,0,0,1-.12.34,2.34,2.34,0,0,1-.36.38,3,3,0,0,0-.5.55,1.07,1.07,0,0,0-.17.64h1.11a.63.63,0,0,1,.13-.41A2.9,2.9,0,0,1,90.71,13.56Z"/></svg>