<svg xmlns="http://www.w3.org/2000/svg" width="100" height="80" viewBox="0 0 100 80">
  <g fill="none" fill-rule="evenodd">
    <path fill="currentColor" fill-rule="nonzero" d="M60.48,79.92 L3.48,79.92 C2.55928839,79.968955 1.67456959,79.5565861 1.12,78.82 C0.611041838,78.0456295 0.51033797,77.0721588 0.85,76.21 L26.17,3.81 C26.9173856,1.90430045 28.7243122,0.623739386 30.77,0.55 L87.77,0.55 C88.6896747,0.50635226 89.5720327,0.91762084 90.13,1.65 C90.6355268,2.42239197 90.7325674,3.39279861 90.39,4.25 L65.08,76.65 C64.3335919,78.5579443 62.5272649,79.8420072 60.48,79.92 Z M30.77,1.92 C29.2879083,2.00122955 27.9845145,2.92722274 27.42,4.3 L2.08,76.65 C1.88167792,77.1037343 1.9152132,77.6253941 2.17,78.05 C2.48673747,78.429839 2.96663011,78.6344444 3.46,78.6 L60.46,78.6 C61.9427994,78.5122538 63.2445365,77.5835518 63.81,76.21 L89.16,3.81 C89.3635358,3.36062393 89.329786,2.83937681 89.07,2.42 C88.7659712,2.03492149 88.2888556,1.8282966 87.8,1.87 L30.77,1.92 Z"/>
    <path stroke="currentColor" stroke-linecap="round" stroke-width=".25" d="M31.01 13.79L79.07 13.79M28.49 20.97L76.54 20.97M25.96 28.16L74.01 28.16M23.43 35.34L71.49 35.34"/>
    <polygon fill="#FFF" fill-rule="nonzero" points="89.82 35.59 53.1 59.31 53.1 64.56 58.12 67.19 90.91 45.99"/>
    <path fill="currentColor" fill-rule="nonzero" d="M88.57,47.51 L58.12,67.19 L48,68.17 L53.11,59.31 L83.55,39.63 L88.57,47.51 Z M61.73,62.43 L58.89,58 L55.56,60.15 L54.25,62.43 L57.36,62.13 L55.79,64.86 L58.4,64.6 L61.73,62.43 Z M82.24,43.17 C82.0608079,43.1935184 81.8895899,43.2585812 81.74,43.36 L61.9,56.18 C61.7475188,56.2745924 61.6204933,56.405051 61.53,56.56 C61.36,56.84 61.47,57.01 61.79,56.98 C61.9691921,56.9564816 62.1404101,56.8914188 62.29,56.79 L82.13,44 C82.2829217,43.9026342 82.4126342,43.7729217 82.51,43.62 C82.66,43.31 82.56,43.14 82.24,43.17 Z M97,42.07 L90.91,46 L85.91,38.13 L92,34.21 C92.7981185,33.6768391 93.7083103,33.3346617 94.66,33.21 C95.3075867,33.0673364 95.9809819,33.2943668 96.41,33.8 L99.25,38.23 C99.4968175,38.8412053 99.4017101,39.5373914 99,40.06 C98.4944539,40.8730525 97.810521,41.5604051 97,42.07 Z"/>
  </g>
</svg>
