<svg xmlns="http://www.w3.org/2000/svg" width="100" height="100" viewBox="0 0 100 100">
  <g fill="none" fill-rule="evenodd" transform="translate(0 10)">
    <path fill="currentColor" fill-rule="nonzero" d="M30.66,1.87 C29.1779083,1.95122955 27.8745145,2.87722274 27.31,4.25 L2,76.65 C1.80167792,77.1037343 1.8352132,77.6253941 2.09,78.05 C2.40673747,78.429839 2.88663011,78.6344444 3.38,78.6 L60.38,78.6 C61.8627994,78.5122538 63.1645365,77.5835518 63.73,76.21 L89.05,3.81 C89.2656534,3.36720939 89.2469103,2.84615163 89,2.42 C88.694845,2.0363887 88.218556,1.83012178 87.73,1.87 L30.66,1.87 Z M60.37,79.92 L3.37,79.92 C2.44582954,79.9723573 1.55658287,79.5596268 1,78.82 C0.491041838,78.0456295 0.39033797,77.0721588 0.73,76.21 L26.06,3.81 C26.8073856,1.90430045 28.6143122,0.623739386 30.66,0.55 L87.66,0.55 C88.5796747,0.50635226 89.4620327,0.91762084 90.02,1.65 C90.5255268,2.42239197 90.6225674,3.39279861 90.28,4.25 L65,76.65 C64.2492893,78.5676827 62.4283213,79.8537659 60.37,79.92 Z"/>
    <path stroke="currentColor" stroke-linecap="round" stroke-width=".25" d="M30.9 13.79L78.96 13.79M28.38 20.97L76.43 20.97M25.85 28.16L73.9 28.16M23.32 35.34L71.38 35.34M20.8 42.52L68.85 42.52M18.27 49.71L66.33 49.71M15.75 56.89L54.74 56.89M13.22 64.07L61.27 64.07M10.69 71.25L58.75 71.25"/>
    <path fill="currentColor" fill-rule="nonzero" d="M30.48 39.89C25.62 39.89 21.81 37.56 21.81 34.58 21.81 31.6 25.62 29.27 30.48 29.27 35.34 29.27 39.16 31.61 39.16 34.58 39.16 37.55 35.35 39.89 30.48 39.89zM30.48 30.58C26.48 30.58 23.12 32.41 23.12 34.58 23.12 36.75 26.49 38.58 30.48 38.58 34.47 38.58 37.85 36.75 37.85 34.58 37.85 32.41 34.48 30.58 30.48 30.58zM39.7 68.6C36.52 68.6 33.94 66.49 33.94 63.91 33.94 61.33 36.52 59.21 39.7 59.21 42.88 59.21 45.46 61.32 45.46 63.91 45.46 66.5 42.87 68.6 39.7 68.6zM39.7 60.52C37.24 60.52 35.24 62.04 35.24 63.91 35.24 65.78 37.24 67.29 39.7 67.29 42.16 67.29 44.15 65.77 44.15 63.91 44.15 62.05 42.15 60.52 39.7 60.52zM47.39 24.78C44.21 24.78 41.63 22.67 41.63 20.08 41.63 17.49 44.21 15.39 47.39 15.39 50.57 15.39 53.15 17.5 53.15 20.08 53.15 22.66 50.57 24.78 47.39 24.78zM47.39 16.7C44.93 16.7 42.93 18.22 42.93 20.08 42.93 21.94 44.93 23.47 47.39 23.47 49.85 23.47 51.84 21.95 51.84 20.08 51.84 18.21 49.84 16.7 47.39 16.7z"/>
    <polygon fill="currentColor" fill-rule="nonzero" points="67.66 17.12 69.57 19.38 72.57 17.12 73.21 17.89 70.21 20.14 72.11 22.39 71.11 23.15 69.22 20.91 66.22 23.15 65.57 22.39 68.57 20.14 66.68 17.89"/>
    <polygon fill="currentColor" fill-rule="nonzero" points="53.87 38.83 55.78 41.09 58.78 38.83 59.42 39.6 56.42 41.85 58.32 44.09 57.32 44.86 55.42 42.61 52.42 44.86 51.76 44.09 54.76 41.85 52.86 39.6"/>
    <polygon fill="#FFF" fill-rule="nonzero" points="89.82 35.59 53.1 59.31 53.1 64.56 58.12 67.19 90.91 45.99"/>
    <path fill="currentColor" fill-rule="nonzero" d="M88.57,47.51 L58.12,67.19 L48,68.17 L53.1,59.31 L83.55,39.63 L88.57,47.51 Z M61.73,62.43 L58.9,58 L55.57,60.15 L54.25,62.43 L57.37,62.13 L55.8,64.84 L58.4,64.58 L61.73,62.43 Z M82.24,43.17 C82.0616563,43.1968199 81.8911482,43.261613 81.74,43.36 L61.91,56.18 C61.754861,56.2745746 61.6245746,56.404861 61.53,56.56 C61.37,56.84 61.48,57.01 61.79,56.98 C61.9691921,56.9564816 62.1404101,56.8914188 62.29,56.79 L82.13,44 C82.2874856,43.9084414 82.4184414,43.7774856 82.51,43.62 C82.67,43.31 82.56,43.14 82.24,43.17 Z M97,42.07 L90.91,46 L85.91,38.13 L92,34.21 C92.7938368,33.6756818 93.7010728,33.3333286 94.65,33.21 C95.297711,33.0650075 95.9722931,33.292438 96.4,33.8 L99.25,38.23 C99.4906977,38.8419541 99.3960154,39.5350286 99,40.06 C98.4955659,40.8739321 97.8114061,41.5615127 97,42.07 Z"/>
  </g>
</svg>
