<svg xmlns="http://www.w3.org/2000/svg" xmlns:xlink="http://www.w3.org/1999/xlink" width="100" height="100" viewBox="0 0 100 100">
  <defs>
    <polygon id="edit---revise-a" points="0 .624 89.978 .624 89.978 80 0 80"/>
  </defs>
  <g fill="none" fill-rule="evenodd" transform="translate(1 10)">
    <g transform="translate(0 .376)">
      <mask id="edit---revise-b" fill="#fff">
        <use xlink:href="#edit---revise-a"/>
      </mask>
      <path fill="currentColor" d="M59.8426,79.9998 L2.8186,79.9998 C1.8016,79.9998 0.9626,79.6058 0.4576,78.8958 C-0.0414,78.1908 -0.1364,77.2438 0.1946,76.2918 L25.5316,3.8908 C26.1736,2.0608 28.1926,0.6238 30.1306,0.6238 L87.1576,0.6238 C88.1746,0.6238 89.0136,1.0148 89.5176,1.7268 C90.0226,2.4408 90.1156,3.3648 89.7796,4.3298 L64.4446,76.7308 C63.8016,78.5628 61.7806,79.9998 59.8426,79.9998 Z M30.1306,1.9488 C28.7676,1.9488 27.2356,3.0388 26.7846,4.3298 L1.4466,76.7308 C1.2546,77.2768 1.2856,77.7738 1.5366,78.1288 C1.7876,78.4808 2.2436,78.6748 2.8186,78.6748 L59.8426,78.6748 C61.2056,78.6748 62.7406,77.5828 63.1916,76.2918 L88.5266,3.8908 C88.7186,3.3448 88.6876,2.8478 88.4366,2.4948 C88.1876,2.1438 87.7326,1.9488 87.1576,1.9488 L30.1306,1.9488 Z" mask="url(#edit---revise-b)"/>
    </g>
    <path stroke="currentColor" stroke-linecap="round" stroke-width=".25" d="M30.3748 14.2448L78.4288 14.2448M27.8494 21.4284L75.9034 21.4284M25.323 28.611L73.377 28.611M22.7976 35.7946L70.8516 35.7946M20.2703 42.9772L68.3253 42.9772M17.7449 50.1608L65.7999 50.1608M15.2185 57.3434L54.2175 57.3434M12.6922 64.527L60.7472 64.527M10.1668 71.7096L58.2208 71.7096"/>
    <path fill="currentColor" d="M17.7449,68.3258 C15.2889,68.3258 13.2909,69.8438 13.2909,71.7098 C13.2909,73.5768 15.2889,75.0948 17.7449,75.0948 C20.2009,75.0948 22.1999,73.5768 22.1999,71.7098 C22.1999,69.8438 20.2009,68.3258 17.7449,68.3258 M17.7449,76.4018 C14.5679,76.4018 11.9829,74.2968 11.9829,71.7098 C11.9829,69.1228 14.5679,67.0168 17.7449,67.0168 C20.9229,67.0168 23.5079,69.1228 23.5079,71.7098 C23.5079,74.2968 20.9229,76.4018 17.7449,76.4018"/>
    <polygon fill="currentColor" points="67.134 17.577 69.042 19.837 72.024 17.577 72.664 18.345 69.697 20.595 71.595 22.841 70.576 23.609 68.679 21.361 65.712 23.609 65.06 22.841 68.027 20.595 66.129 18.345"/>
    <polygon fill="currentColor" points="60.565 32.287 62.471 34.548 65.455 32.287 66.093 33.058 63.127 35.306 65.026 37.552 64.005 38.322 62.108 36.072 59.141 38.322 58.489 37.552 61.454 35.306 59.557 33.058"/>
    <polygon fill="#FFFFFF" points="89.294 36.041 52.574 59.763 52.574 65.012 57.593 67.641 90.385 46.449"/>
    <path fill="currentColor" d="M96.4607 42.5231L90.3847 46.4491 85.3647 38.5721 91.4287 34.6671C92.2827 34.1011 93.2577 33.7251 94.0847 33.6461 94.9117 33.5651 95.5437 33.7861 95.8337 34.2391L98.6817 38.6691C98.9457 39.1261 98.8827 39.7941 98.4657 40.5181 98.0487 41.2421 97.3027 41.9781 96.4607 42.5231zM81.7177 43.6291C81.5697 43.6431 81.4007 43.7001 81.2157 43.8191L61.3817 56.6361C61.1987 56.7541 61.0757 56.8881 61.0027 57.0151 60.8417 57.2931 60.9517 57.4621 61.2667 57.4321 61.4137 57.4181 61.5837 57.3611 61.7667 57.2431L81.6037 44.4241C81.7877 44.3061 81.9077 44.1731 81.9817 44.0451 82.1427 43.7681 82.0327 43.5981 81.7177 43.6291zM61.2037 62.8871L58.3697 58.4361 55.0387 60.5881 53.7257 62.8671 56.8397 62.5661 55.2707 65.2921 57.8737 65.0391 61.2037 62.8871zM88.0437 47.9621L57.5927 67.6401 47.4707 68.6211 52.5737 59.7621 83.0227 40.0851 88.0437 47.9621zM43.5418 10.5944C36.7368 10.5944 31.2018 14.0204 31.2018 18.2314 31.2018 22.4414 36.7368 25.8664 43.5418 25.8664 50.3458 25.8664 55.8808 22.4414 55.8808 18.2314 55.8808 14.0204 50.3458 10.5944 43.5418 10.5944M43.5418 26.8574C36.1908 26.8574 30.2118 22.9884 30.2118 18.2314 30.2118 13.4744 36.1908 9.6044 43.5418 9.6044 50.8918 9.6044 56.8708 13.4744 56.8708 18.2314 56.8708 22.9884 50.8918 26.8574 43.5418 26.8574M34.7244 43.4069C23.9284 43.4069 14.8074 46.9039 14.8074 51.0449 14.8074 55.1829 23.9284 58.6789 34.7244 58.6789 45.5204 58.6789 54.6414 55.1829 54.6414 51.0449 54.6414 46.9039 45.5204 43.4069 34.7244 43.4069M34.7244 59.6699C23.0004 59.6699 13.8174 55.8809 13.8174 51.0449 13.8174 46.2069 23.0004 42.4169 34.7244 42.4169 46.4484 42.4169 55.6314 46.2069 55.6314 51.0449 55.6314 55.8809 46.4484 59.6699 34.7244 59.6699M29.1414 25.8043L30.2914 26.8563 31.1384 23.0183 27.3904 24.2033 28.5564 25.2693C25.6554 29.2983 25.0534 34.4843 26.9854 38.7773L25.6484 39.6183 29.1254 41.4503 28.9744 37.5233 27.6584 38.3533C25.9074 34.3613 26.4734 29.5633 29.1414 25.8043"/>
  </g>
</svg>
