<svg xmlns="http://www.w3.org/2000/svg" xmlns:xlink="http://www.w3.org/1999/xlink" width="100" height="100" viewBox="0 0 100 100">
  <defs>
    <polygon id="ica-a" points=".114 .238 31.118 .238 31.118 27 .114 27"/>
    <polygon id="ica-c" points="0 .41 43.529 .41 43.529 22.83 0 22.83"/>
  </defs>
  <g fill="none" fill-rule="evenodd" transform="translate(1 4)">
    <g transform="translate(0 .993)">
      <path fill="currentColor" d="M80.0765 54.5177L43.5195 54.5177C43.8715 55.3437 44.0865 56.2267 44.1505 57.1657 44.2045 57.9617 44.1315 58.7507 43.9665 59.5177L56.3355 59.5177C56.5245 59.1737 56.7325 58.8407 56.9745 58.5297 58.7255 56.2767 60.9955 55.1337 63.7195 55.1337 64.1285 55.1337 64.5525 55.1617 64.9785 55.2137 66.3295 55.3797 67.6085 55.9087 68.6795 56.7427 69.7125 57.5467 70.5025 58.4827 71.0665 59.5177L80.4685 59.5177C80.1355 58.7137 79.9365 57.8547 79.8745 56.9447 79.8185 56.1227 79.8985 55.3077 80.0765 54.5177M42.6537 57.2687C42.5517 55.7747 42.0107 54.4647 41.0317 53.3387 39.7157 51.8277 37.7577 50.9517 35.7587 50.9517 35.6047 50.9517 35.4507 50.9567 35.2967 50.9667 33.7997 51.0697 32.4887 51.6117 31.3627 52.5927 29.7367 54.0107 28.8477 56.1717 28.9957 58.3247 29.0967 59.8227 29.6407 61.1357 30.6257 62.2627 31.9417 63.7697 33.8957 64.6417 35.8897 64.6417 36.0447 64.6417 36.1987 64.6357 36.3527 64.6257 37.8477 64.5237 39.1587 63.9827 40.2847 63.0007 41.9117 61.5827 42.8007 59.4217 42.6537 57.2687M43.1849 66.4191C42.7539 66.2031 42.2829 66.0951 41.7709 66.0951 41.6029 66.0951 41.4299 66.1071 41.2519 66.1301 40.9219 66.1741 40.6219 66.2621 40.3379 66.3761L31.2039 66.3761C30.8529 66.2361 30.4769 66.1381 30.0549 66.1171 29.9889 66.1141 29.9219 66.1121 29.8569 66.1121 29.2169 66.1121 28.6439 66.2641 28.1359 66.5651 27.3789 67.0171 27.0039 67.7601 26.9559 68.5051L26.6219 83.5531 27.9989 83.6451 27.9989 85.1741 43.6499 85.3151 43.6499 83.5961 45.7869 83.3551C45.7869 83.3581 45.7879 83.3601 45.7879 83.3601 45.7999 83.3601 44.4579 68.2741 44.4549 68.2601 44.3699 67.5191 43.9599 66.8061 43.1849 66.4191M94.9955 55.7882C94.8935 54.2992 94.3545 52.9922 93.3785 51.8692 92.0645 50.3602 90.1105 49.4872 88.1185 49.4872 87.9645 49.4872 87.8105 49.4922 87.6565 49.5032 86.1645 49.6042 84.8555 50.1452 83.7325 51.1252 82.1105 52.5402 81.2245 54.6952 81.3715 56.8422 81.4735 58.3362 82.0155 59.6462 82.9975 60.7702 84.3095 62.2732 86.2605 63.1432 88.2485 63.1432 88.4025 63.1432 88.5565 63.1382 88.7105 63.1282 90.2015 63.0252 91.5095 62.4852 92.6325 61.5072 94.2555 60.0932 95.1415 57.9362 94.9955 55.7882M98.1214 81.8156C98.1344 81.8156 96.7964 66.7676 96.7924 66.7526 96.7074 66.0136 96.2984 65.3026 95.5254 64.9166 95.0954 64.7016 94.6254 64.5926 94.1144 64.5926 93.9464 64.5926 93.7744 64.6046 93.5984 64.6286 93.2674 64.6716 92.9684 64.7586 92.6854 64.8746L83.5744 64.8746C83.2244 64.7346 82.8494 64.6356 82.4284 64.6156 82.3614 64.6126 82.2954 64.6116 82.2304 64.6116 81.5924 64.6116 81.0194 64.7616 80.5144 65.0626 79.7594 65.5126 79.3854 66.2536 79.3374 66.9976L79.0044 82.0066 80.3774 82.0986 80.3774 83.6246 95.9894 83.7646 95.9894 82.0496 98.1204 81.8096C98.1204 81.8136 98.1214 81.8156 98.1214 81.8156"/>
      <path fill="currentColor" d="M69.2777,67.5157 C69.9407,66.6627 70.3667,65.6287 70.4987,64.5567 C70.8357,61.8217 69.9207,59.6117 67.7567,57.9257 C66.9037,57.2607 65.8687,56.8347 64.7967,56.7027 C64.4267,56.6577 64.0687,56.6337 63.7187,56.6337 C61.4707,56.6337 59.6177,57.5737 58.1587,59.4507 C57.4967,60.3027 57.0717,61.3357 56.9397,62.4077 C56.6027,65.1457 57.5207,67.3607 59.6927,69.0447 C60.5447,69.7057 61.5767,70.1297 62.6467,70.2617 C63.0137,70.3067 63.3717,70.3287 63.7187,70.3287 C65.9647,70.3287 67.8177,69.3917 69.2777,67.5157"/>
      <g transform="translate(46 64)">
        <mask id="ica-b" fill="#fff">
          <use xlink:href="#ica-a"/>
        </mask>
        <path fill="currentColor" d="M11.9945,7.9611 L5.3415,1.3081 C4.7125,0.6791 3.8735,0.2381 2.9915,0.2381 C2.9245,0.2381 2.8575,0.2411 2.7905,0.2461 C2.0855,0.3011 1.4775,0.5831 0.9685,1.0921 C0.4575,1.6031 0.1765,2.2101 0.1215,2.9161 C0.0485,3.8691 0.5075,4.7891 1.1825,5.4651 L9.7935,14.0751 C9.8575,14.1401 9.8935,14.2271 9.8935,14.3171 L9.8935,26.8581 L25.5445,27.0001 L25.5445,25.3751 C25.8105,25.9711 26.2985,26.4751 27.0265,26.6771 C27.2905,26.7501 27.5605,26.7871 27.8375,26.7871 C28.2075,26.7871 28.5875,26.7221 28.9775,26.5901 C29.6615,26.3611 30.2035,25.9891 30.6035,25.4771 C31.1465,24.7821 31.2255,23.9531 31.0005,23.2411 L28.8255,17.2641 C27.7305,13.4661 26.5805,9.4841 26.5765,9.4781 C26.3505,8.7671 25.8125,8.1461 24.9775,7.9131 C24.7135,7.8401 24.4425,7.8031 24.1665,7.8031 C23.7975,7.8031 23.4175,7.8681 23.0255,8.0001 C22.9785,8.0161 22.9445,8.0451 22.8985,8.0621 L12.2365,8.0621 C12.1455,8.0621 12.0585,8.0251 11.9945,7.9611" mask="url(#ica-b)"/>
      </g>
      <path fill="currentColor" d="M11.3275 25.1793C12.3425 25.9663 13.5705 26.4713 14.8455 26.6273 18.1025 27.0273 20.7335 25.9373 22.7405 23.3583 23.5305 22.3433 24.0375 21.1113 24.1945 19.8343 24.5965 16.5773 23.5065 13.9453 20.9305 11.9383 19.9145 11.1463 18.6815 10.6393 17.4045 10.4813 14.1425 10.0803 11.5085 11.1713 9.5015 13.7533 8.7125 14.7683 8.2065 15.9993 8.0495 17.2753 7.6485 20.5363 8.7405 23.1723 11.3275 25.1793M92.7884.007L35.1524.007C31.8524.007 29.1524 2.707 29.1524 6.007L29.1524 27.659 34.1524 27.347 34.1524 6.007C34.1524 5.465 34.6104 5.007 35.1524 5.007L92.7884 5.007C93.3304 5.007 93.7884 5.465 93.7884 6.007L93.7884 50.163C94.0424 50.39 94.2854 50.628 94.5094 50.885 95.7014 52.255 96.3684 53.87 96.4924 55.687 96.5564 56.617 96.4544 57.542 96.2194 58.428 97.7674 57.34 98.7884 55.543 98.7884 53.518L98.7884 6.007C98.7884 2.707 96.0884.007 92.7884.007M29.1527 52.8009C29.5107 52.3169 29.9167 51.8639 30.3767 51.4629 31.4807 50.4999 32.7527 49.8949 34.1527 49.6229L34.1527 35.3959 29.1527 35.8209 29.1527 52.8009z"/>
      <g transform="translate(0 28)">
        <mask id="ica-d" fill="#fff">
          <use xlink:href="#ica-c"/>
        </mask>
        <path fill="currentColor" d="M28.8412,1.1818 C25.8752,1.2338 23.5622,1.2738 23.4472,1.2768 C23.2262,1.2858 22.9842,1.3468 22.7122,1.4608 L22.4232,1.5188 L9.1272,1.4858 C8.7612,1.3728 8.4122,1.3168 8.0752,1.3168 C7.8202,1.3168 7.5702,1.3488 7.3222,1.4128 C7.2842,1.4368 7.2362,1.4588 7.1832,1.4768 L7.1522,1.4878 L7.1122,1.5058 C6.5102,1.7348 6.0622,2.1858 5.8522,2.7748 L2.6522,13.0938 C1.3182,16.5528 0.1722,19.5198 0.1282,19.6348 C-0.0108,20.0258 -0.1638,20.8048 0.4112,21.5588 C0.7832,22.0508 1.2932,22.3998 1.9672,22.6278 C2.3652,22.7628 2.7442,22.8298 3.1122,22.8298 C3.3742,22.8298 3.6292,22.7958 3.8822,22.7288 C4.5742,22.5458 5.1102,22.0498 5.3552,21.3668 L7.5502,14.2778 L7.5502,22.4138 L24.6942,22.5678 L24.6942,6.6938 L34.2742,5.8798 C35.2142,5.8838 36.1232,5.8848 36.9592,5.8848 C37.8212,5.8848 38.6052,5.8838 39.2662,5.8838 C40.5382,5.8838 41.3532,5.8878 41.3852,5.9118 C41.7962,5.9038 42.5792,5.7698 43.0812,4.9648 C43.4062,4.4428 43.5532,3.8418 43.5252,3.1288 C43.4982,2.4138 43.3072,1.8178 42.9402,1.3058 L42.9402,1.3048 C42.5452,0.7538 41.9212,0.4098 41.2582,0.4098 C41.2192,0.4098 41.1802,0.4108 41.1412,0.4128 L28.8412,1.1818 Z" mask="url(#ica-d)"/>
      </g>
    </g>
    <text fill="currentColor" font-family="PTSans-Caption, PT Sans Caption" font-size="12">
      <tspan x="43.032" y="23.208">AaBb</tspan> <tspan x="72.996" y="23.208" letter-spacing="-.42">C</tspan> <tspan x="79.644" y="23.208">c</tspan>
    </text>
  </g>
</svg>
