<svg xmlns="http://www.w3.org/2000/svg" width="100" height="100" viewBox="0 0 100 100">
  <g fill="none" transform="translate(0 4)">
    <path fill="currentColor" d="M98.92,29.33 L82.61,83 C80.9436569,88.1709385 76.2375116,91.7603713 70.81,92 L16.09,92 C10.09,92 3.58,87.2 1.39,81 C0.465269084,78.5823019 0.422777203,75.9159364 1.27,73.47 C1.39,72.28 1.63,71.1 1.68,69.68 C1.75,68.73 1.21,67.96 1.33,67.25 C1.57,65.82 2.81,64.82 3.76,63.25 C5.73758084,59.8563423 7.23516748,56.2049232 8.21,52.4 C8.5,51.27 7.91,49.96 8.21,48.96 C8.51,47.96 9.63,46.96 10.21,45.96 C11.81,43.22 13.89,37.96 14.21,35.16 C14.32,33.92 13.73,32.55 14.08,31.61 C14.5,30.24 15.8,29.61 16.7,28.47 C18.734978,25.1781564 20.1389261,21.53603 20.84,17.73 C20.96,16.73 20.37,15.73 20.55,14.65 C20.73,13.57 22.2,12.32 23.15,11 C25.64,7.33 26.15,-0.8 33.64,1.34 L33.58,1.52 C34.5562253,1.22656119 35.5627261,1.04539106 36.58,0.98 L81.72,0.98 C84.3779576,0.926914421 86.8970946,2.16412372 88.48,4.3 C90.0213534,6.55804248 90.4172823,9.407251 89.55,12 L73.3,65.68 C70.52,74.81 69,76.82 61.45,76.82 L9.93,76.82 C9.08005577,76.7544692 8.24703223,77.0825183 7.67,77.71 C7.2,78.42 7.14,78.96 7.61,80.26 C8.8,83.7 12.89,84.41 16.15,84.41 L70.87,84.41 C73.07,84.41 75.61,83.17 76.27,81.03 L94.05,22.52 C94.3546533,21.4209409 94.4563165,20.2755357 94.35,19.14 C95.7321671,19.6459858 96.9447419,20.5294332 97.85,21.69 C99.3619824,23.9368417 99.7565654,26.7542386 98.92,29.33 Z"/>
    <path fill="#FFF" d="M73.32,65.76 C70.53,74.83 69,76.84 61.47,76.84 L10,76.84 C9.15418173,76.7689987 8.32321318,77.0939997 7.75,77.72 C7.28,78.42 7.22,78.96 7.69,80.26 C8.88,83.67 12.97,84.38 16.23,84.38 L70.89,84.38 C73.08,84.38 75.63,83.14 76.28,81.02 L94.06,22.85 C94.3653595,21.7647383 94.4670749,20.6323067 94.36,19.51 L89.69,11.67 C89.69,11.9 89.63,12.13 89.56,12.36 L73.32,65.76 Z"/>
    <path fill="currentColor" d="M78.43 54.11C79.16 54.33 79.43 55.52 79.06 56.77 78.69 58.02 77.79 58.85 77.06 58.63L78.43 54.11zM77.89 59.58C78.62 59.8 78.89 60.99 78.52 62.23 78.15 63.47 77.25 64.32 76.52 64.1L77.89 59.58zM76.8 65C77.53 65.22 77.8 66.41 77.44 67.66 77.08 68.91 76.17 69.74 75.44 69.52L76.8 65zM76.26 70.51C76.99 70.73 77.26 71.92 76.9 73.16 76.54 74.4 75.62 75.25 74.9 75.03L76.26 70.51zM84 34.91C84.73 35.13 85 36.32 84.64 37.57 84.28 38.82 83.36 39.65 82.64 39.43L84 34.91zM83.49 40.38C84.22 40.6 84.49 41.79 84.12 43.04 83.75 44.29 82.85 45.12 82.12 44.9L83.49 40.38zM82.41 45.84C83.13 46.06 83.41 47.25 83.04 48.5 82.67 49.75 81.77 50.58 81.04 50.36L82.41 45.84zM81.87 51.31C82.59 51.53 82.87 52.72 82.5 53.97 82.13 55.22 81.23 56.05 80.5 55.83L81.87 51.31zM89.74 16.24C90.47 16.46 90.74 17.65 90.38 18.9 90.02 20.15 89.1 20.98 88.38 20.76L89.74 16.24zM89.2 21.7C89.93 21.92 90.2 23.11 89.84 24.36 89.48 25.61 88.56 26.44 87.84 26.22L89.2 21.7zM88.12 27.17C88.85 27.39 89.12 28.58 88.75 29.83 88.38 31.08 87.48 31.91 86.75 31.69L88.12 27.17zM87.58 32.63C88.3 32.85 88.58 34.04 88.21 35.29 87.84 36.54 86.94 37.37 86.21 37.15L87.58 32.63z"/>
    <path fill="#FFF" d="M23.43 34.66C23.7475717 34.6437648 24.0594387 34.5691879 24.35 34.44 24.6043113 34.229806 24.794811 33.9527155 24.9 33.64L27.18 28.64C27.37 28.23 27.42 27.97 27.35 27.85 27.28 27.73 27.04 27.66 26.62 27.63L26.72 27.42 29.84 27.42C30.6839113 27.3740476 31.525145 27.5498793 32.28 27.93 33.28 28.53 33.48 29.62 32.77 31.18 32.5020695 31.7700106 32.1369968 32.3108591 31.69 32.78 31.2033919 33.2968113 30.6317779 33.7263674 30 34.05 29.6300477 34.2530417 29.2416345 34.4204612 28.84 34.55 28.0833393 34.7708714 27.2981902 34.878703 26.51 34.87L23.33 34.87 23.43 34.66zM25.9 34.36C26.063766 34.4420983 26.248313 34.4734364 26.43 34.45 27.2817829 34.4627575 28.1256606 34.2850991 28.9 33.93 30.0730411 33.3593655 30.9949899 32.3769027 31.49 31.17 32.02 30.01 32.05 29.17 31.57 28.56 30.993486 27.9942551 30.1925592 27.7187068 29.39 27.81 29.1999144 27.8001599 29.0097269 27.8273296 28.83 27.89 28.6882155 27.9752171 28.5790729 28.1054841 28.52 28.26L25.92 34C25.84 34.18 25.83 34.3 25.9 34.36zM31.81 34.71C32.1050607 34.7105971 32.3961627 34.6421025 32.66 34.51 32.8961714 34.2938698 33.0748701 34.0223853 33.18 33.72L34.37 31.09C34.4511495 30.935232 34.5116648 30.7704958 34.55 30.6 34.55 30.45 34.47 30.37 34.29 30.37L34.16 30.37 33.78 30.46 33.86 30.29 34.14 30.21C34.89 30 35.42 29.85 35.73 29.74L35.97 29.67 35.97 29.75 34.18 33.75C33.99 34.17 33.92 34.43 33.98 34.54 34.04 34.65 34.24 34.71 34.59 34.74L34.52 34.9 31.74 34.9 31.81 34.71zM36.05 27.34C36.1925462 27.2353946 36.3632973 27.1761545 36.54 27.17 36.676452 27.1573352 36.8082606 27.2232395 36.88 27.34 36.9493492 27.4678691 36.9493492 27.6221309 36.88 27.75 36.8030703 27.9165777 36.6775819 28.0560093 36.52 28.15 36.3780531 28.2557418 36.2069359 28.315109 36.03 28.32 35.893548 28.3326648 35.7617394 28.2667605 35.69 28.15 35.6258911 28.0243728 35.6258911 27.8756272 35.69 27.75 35.7696753 27.5826054 35.8943152 27.4406545 36.05 27.34zM41 30C41.230123 30.1856751 41.2971034 30.5080181 41.16 30.77 41.0969968 30.9052361 41.0006455 31.0222341 40.88 31.11 40.7456629 31.2144455 40.5801608 31.2707866 40.41 31.27 40.295184 31.2789157 40.1844328 31.2254495 40.12 31.13 40.069991 31.0082693 40.069991 30.8717307 40.12 30.75L40.12 30.48C40.1728661 30.3407634 40.146069 30.1838086 40.05 30.07 39.920932 29.9825088 39.7650558 29.9435398 39.61 29.96 39.1156191 29.985561 38.6439655 30.1756303 38.27 30.5 37.798357 30.9070976 37.4313973 31.4215271 37.2 32 36.9580217 32.460781 36.8905518 32.9934383 37.01 33.5 37.1383272 33.9340222 37.5604756 34.2126402 38.01 34.16 38.4426664 34.1494042 38.8643355 34.021521 39.23 33.79 39.5427629 33.5815478 39.8401908 33.3509576 40.12 33.1L40.24 33.19C39.8866558 33.5563304 39.5018465 33.8909472 39.09 34.19 38.5459423 34.6362261 37.8728069 34.8956637 37.17 34.93 36.6523243 34.9732067 36.1580242 34.7064416 35.91 34.25 35.674736 33.6450946 35.7338558 32.9652177 36.07 32.41 36.4290085 31.6122143 36.9910546 30.9225871 37.7 30.41 38.3636824 29.9156657 39.1725776 29.6554125 40 29.67 40.3637127 29.6445921 40.7228468 29.7631064 41 30zM45.12 29.79L44.94 30.18 43.79 30.18 42.34 33.36C42.2353814 33.5568301 42.1644032 33.7697648 42.13 33.99 42.13 34.24 42.22 34.37 42.48 34.37 42.6183683 34.3701302 42.7550221 34.3393831 42.88 34.28 43.049307 34.1957256 43.210057 34.0952569 43.36 33.98L43.45 34.1 43.25 34.27C42.9900581 34.4944358 42.6964815 34.6766558 42.38 34.81 42.1560147 34.9090719 41.9148293 34.9634236 41.67 34.97 41.23 34.97 41.02 34.78 41.03 34.39 41.0674769 34.0862361 41.1589129 33.791609 41.3 33.52L42.81 30.18 42.19 30.18C42.19 30.18 42.19 30.18 42.19 30.18 42.2050189 30.1443698 42.2291631 30.1133273 42.26 30.09L42.48 29.95C42.7531051 29.7956365 43.016894 29.6253424 43.27 29.44 43.45 29.31 43.88 28.97 44.55 28.44L44.64 28.44C44.6472422 28.4661749 44.6472422 28.4938251 44.64 28.52L44 29.79 45.12 29.79zM43.39 34.71C43.6850607 34.7105971 43.9761627 34.6421025 44.24 34.51 44.4761714 34.2938698 44.6548701 34.0223853 44.76 33.72L46 31.09C46.0811495 30.935232 46.1416648 30.7704958 46.18 30.6 46.18 30.45 46.1 30.37 45.92 30.37L45.79 30.37 45.41 30.46 45.49 30.29 45.77 30.21C46.52 30 47.05 29.85 47.36 29.74L47.6 29.67 47.6 29.75 45.81 33.75C45.62 34.17 45.55 34.43 45.61 34.54 45.67 34.65 45.87 34.71 46.22 34.74L46.15 34.9 43.32 34.9 43.39 34.71zM47.63 27.34C47.7725462 27.2353946 47.9432973 27.1761545 48.12 27.17 48.256452 27.1573352 48.3882606 27.2232395 48.46 27.34 48.5293492 27.4678691 48.5293492 27.6221309 48.46 27.75 48.3830703 27.9165777 48.2575819 28.0560093 48.1 28.15 47.9574538 28.2546054 47.7867027 28.3138455 47.61 28.32 47.473548 28.3326648 47.3417394 28.2667605 47.27 28.15 47.2058911 28.0243728 47.2058911 27.8756272 47.27 27.75 47.3496753 27.5826054 47.4743152 27.4406545 47.63 27.34zM49.32 30.46C49.9500842 29.9792519 50.7175619 29.7129126 51.51 29.7 52.1147351 29.6336803 52.7056475 29.9117567 53.04 30.42 53.3078762 31.0368493 53.2593974 31.7453852 52.91 32.32 52.5545994 33.0808412 52.0107418 33.7382893 51.33 34.23 50.7026159 34.7359733 49.925759 35.0207037 49.12 35.04 48.5116329 35.1034823 47.9244837 34.7961155 47.63 34.26 47.3725465 33.6243704 47.4204492 32.9058293 47.76 32.31 48.1026191 31.5632804 48.641861 30.9237947 49.32 30.46zM50.32 30.32C49.7096636 30.75136 49.2400803 31.3531222 48.97 32.05 48.6909085 32.6145792 48.5601354 33.2409135 48.59 33.87 48.5771217 34.1062951 48.6682224 34.336405 48.8393578 34.4998489 49.0104932 34.6632928 49.2445463 34.7437231 49.48 34.72 49.9476764 34.7022927 50.3895631 34.5011085 50.71 34.16 51.1344073 33.7309165 51.4737187 33.2253426 51.71 32.67 51.980263 32.1095235 52.1106519 31.4918919 52.09 30.87 52.1033394 30.6344099 52.011991 30.4049479 51.8403862 30.2429837 51.6687813 30.0810196 51.4344264 30.0030763 51.2 30.03 50.8744161 30.0330214 50.5572978 30.134081 50.29 30.32L50.32 30.32zM52.38 34.71C52.6116145 34.69785 52.8373771 34.6328578 53.04 34.52 53.2429884 34.3452646 53.3978996 34.121504 53.49 33.87L54.76 31.07C54.8441636 30.9148191 54.8984375 30.7452133 54.92 30.57 54.92 30.44 54.79 30.37 54.57 30.37L54.46 30.37 54.32 30.37 54.41 30.17C54.58 30.17 55 30.02 55.66 29.83L56.27 29.66C56.27 29.66 56.27 29.66 56.27 29.66 56.2668518 29.6865738 56.2668518 29.7134262 56.27 29.74L55.9 30.55C56.2535613 30.34155 56.6211032 30.157779 57 30 57.3101687 29.8394698 57.6511849 29.7473955 58 29.73 58.2197874 29.718698 58.435232 29.7941036 58.6 29.94 58.88 30.22 58.86 30.72 58.53 31.43L57.43 34C57.3238199 34.1697698 57.2879506 34.374225 57.33 34.57 57.38 34.69 57.54 34.75 57.79 34.75L57.72 34.91 55.31 34.91 55.38 34.75C55.618197 34.7337476 55.8485339 34.6581146 56.05 34.53 56.2735635 34.3309587 56.4451922 34.0803808 56.55 33.8L57.62 31.45C57.7469094 31.2068292 57.8056521 30.9338485 57.79 30.66 57.79 30.45 57.59 30.35 57.27 30.35 56.9995989 30.3617292 56.7357824 30.4371053 56.5 30.57 56.26181 30.6960792 56.0313963 30.836331 55.81 30.99L54.41 34C54.29 34.2666667 54.27 34.4466667 54.35 34.54 54.4946585 34.6525505 54.6781531 34.7029216 54.86 34.68L54.79 34.84 52.31 34.84 52.38 34.71zM60.24 32.44C61.0499034 32.08707 61.8816109 31.7864529 62.73 31.54L62.94 31.07C63.0727592 30.8292587 63.1544598 30.5637318 63.18 30.29 63.18 30.04 62.95 29.92 62.55 29.92 62.3393657 29.9255254 62.1319641 29.9731258 61.94 30.06 61.7455192 30.1380144 61.5857298 30.2836004 61.49 30.47 61.46245 30.5419243 61.4390778 30.61538 61.42 30.69 61.4030785 30.7619766 61.3796487 30.8322658 61.35 30.9 61.2747405 31.0856517 61.131762 31.2357792 60.95 31.32 60.8545064 31.3709589 60.7482277 31.3983857 60.64 31.4 60.47 31.4 60.36 31.34 60.32 31.23 60.2710936 31.114983 60.2710936 30.985017 60.32 30.87 60.522274 30.5260332 60.8166899 30.2454721 61.17 30.06 61.6635926 29.7708739 62.2281482 29.6254056 62.8 29.64 63.53 29.64 63.92 29.87 63.97 30.34 63.9656974 30.7281664 63.8661132 31.1093337 63.68 31.45L62.68 33.65C62.6063526 33.7919833 62.552518 33.943393 62.52 34.1 62.52 34.24 62.59 34.31 62.73 34.31 62.8058409 34.3259136 62.8841591 34.3259136 62.96 34.31 63.0902086 34.2577819 63.2171109 34.1976703 63.34 34.13L63.21 34.41C63.0384449 34.5442184 62.8542448 34.6614367 62.66 34.76 62.43347 34.887676 62.1798269 34.9596558 61.92 34.97 61.66 34.97 61.52 34.89 61.47 34.73 61.4382044 34.5330151 61.4660655 34.3310222 61.55 34.15 61.2272819 34.349 60.8933985 34.529297 60.55 34.69 60.2016878 34.8670502 59.8201758 34.9692409 59.43 34.99 59.1573739 35.0121816 58.8938578 34.8861521 58.74 34.66 58.5959582 34.3949738 58.5959582 34.0750262 58.74 33.81 59.0547451 33.1845869 59.5886929 32.6969146 60.24 32.44zM62.6 31.82C62.1598437 31.9328268 61.7312864 32.0868396 61.32 32.28 60.766933 32.4897359 60.3015096 32.8811147 60 33.39 59.85 33.72 59.85 33.97 60 34.13 60.113817 34.2349677 60.2654381 34.2891181 60.42 34.28 60.7017067 34.2758806 60.9787513 34.2074745 61.23 34.08 61.479803 33.9824242 61.6858327 33.7977079 61.81 33.56L62.6 31.82zM63.17 34.69C63.4363758 34.684077 63.6986031 34.6227772 63.94 34.51 64.1390187 34.3649321 64.2890322 34.1625884 64.37 33.93L65.5 31.45C65.6321748 31.2046903 65.7169852 30.9366895 65.75 30.66 65.75 30.51 65.66 30.43 65.47 30.43L65.32 30.43 65.11 30.43 65.19 30.25 65.95 30.02 66.49 29.86 67.18 29.62C67.18 29.62 67.18 29.62 67.18 29.62 67.1865574 29.6563735 67.1865574 29.6936265 67.18 29.73L66.77 30.64C67.083955 30.3591039 67.4181944 30.1017395 67.77 29.87 68.0180478 29.7084482 68.3043778 29.6153047 68.6 29.6 68.7492896 29.5795086 68.8981158 29.6405655 68.99 29.76 69.0648073 29.8935726 69.0648073 30.0564274 68.99 30.19 68.919809 30.3404337 68.8132722 30.4710273 68.68 30.57 68.5594044 30.663192 68.4123472 30.7157124 68.26 30.72 68.1208903 30.7218429 67.9913324 30.6494429 67.92 30.53 67.83 30.4 67.75 30.34 67.66 30.34 67.4304258 30.3833691 67.2164754 30.4868934 67.04 30.64 66.7937935 30.8029612 66.593976 31.0268947 66.46 31.29L65.33 33.77C65.19 34.09 65.16 34.31 65.26 34.43 65.36 34.55 65.58 34.61 65.93 34.61L65.85 34.79 63.09 34.79 63.17 34.69zM69.35 29.8L71.74 29.8 71.67 29.96C71.5217304 29.9563204 71.3736635 29.9731462 71.23 30.01 71.0593373 30.0345281 70.9126221 30.1436241 70.84 30.3 70.8299901 30.3528637 70.8299901 30.4071363 70.84 30.46 70.8335466 30.5398699 70.8335466 30.6201301 70.84 30.7L70.9 33.46 73.24 30.68 73.38 30.48C73.4325026 30.4105478 73.4793209 30.3369762 73.52 30.26 73.52 30.16 73.52 30.09 73.52 30.05 73.4594027 29.9965044 73.3808053 29.9679236 73.3 29.97L73.13 29.97 73.2 29.81 74.76 29.81 74.68 29.97C74.5282924 29.9851611 74.3833423 30.0403801 74.26 30.13 74.1251541 30.2341742 74.0041742 30.3551541 73.9 30.49L70 35.08C69.5017917 35.7073325 68.9423664 36.2835071 68.33 36.8 67.96999 37.127769 67.5064082 37.3188638 67.02 37.34 66.8309104 37.3436783 66.6454673 37.2876955 66.49 37.18 66.36 37.08 66.34 36.92 66.49 36.69 66.5573995 36.5369632 66.6733905 36.4104276 66.82 36.33 66.9640076 36.2399162 67.1301437 36.1914598 67.3 36.19 67.4320336 36.1978744 67.5611933 36.2318637 67.68 36.29 67.7934049 36.3542292 67.9199249 36.3918433 68.05 36.4 68.25 36.4 68.59 36.15 69.05 35.65 69.3546961 35.3489552 69.6231823 35.0133475 69.85 34.65 69.85 34.65 69.85 34.58 69.85 34.53 69.8545429 34.490129 69.8545429 34.449871 69.85 34.41L69.77 30.65C69.7889394 30.4684302 69.7578147 30.2851399 69.68 30.12 69.5951282 30.0132161 69.4664021 29.950692 69.33 29.95L69.35 29.8z"/>
  </g>
</svg>
