<svg xmlns="http://www.w3.org/2000/svg" width="100" height="100" viewBox="0 0 100 100">
  <g fill="none" fill-rule="evenodd" transform="translate(3 1)">
    <path fill="currentColor" fill-rule="nonzero" d="M68.27,57.05 C64.76,60.92 60.13,66.37 59.72,71.82 C61.1949836,72.697392 62.1020467,74.2838035 62.11,76 C62.1128596,77.2079279 61.6592398,78.3723378 60.84,79.26 C61.6603182,80.1429815 62.1143126,81.3047782 62.11,82.51 C62.1060466,84.1884453 61.24154,85.7475773 59.82,86.64 C60.2359295,87.3582399 60.4630016,88.1701946 60.48,89 C60.48,92.31 57.88,93.89 54.94,93.89 C53.6405773,96.8745868 50.6951894,98.8046669 47.44,98.8046669 C44.1848106,98.8046669 41.2394227,96.8745868 39.94,93.89 C36.99,93.89 34.39,92.31 34.39,89 C34.4058477,88.1605558 34.6328264,87.3386178 35.05,86.61 C33.6326877,85.71358 32.7695832,84.1569768 32.76,82.48 C32.7556874,81.2747782 33.2096818,80.1129815 34.03,79.23 C33.2286812,78.345426 32.7864763,77.1935537 32.79,76 C32.8015713,74.2848152 33.7127559,72.7016321 35.19,71.83 C34.78,66.38 30.19,60.93 26.63,57.06 C23.1887013,53.3598248 21.3111607,48.4724863 21.39,43.42 C21.39,29.58 34.57,20.62 47.45,20.62 C60.33,20.62 73.51,29.62 73.51,43.42 C73.5862479,48.4690466 71.7088875,53.3523334 68.27,57.05 Z M47.45,27.12 C38.24,27.12 27.91,33.23 27.91,43.41 C27.9664926,46.7751398 29.1894413,50.0163072 31.37,52.58 C32.37,53.7 33.45,54.77 34.47,55.93 C38.09,60.26 41.14,65.35 41.65,71.1 L53.25,71.1 C53.76,65.35 56.82,60.26 60.43,55.93 C61.43,54.77 62.57,53.7 63.54,52.58 C65.7169443,50.0141772 66.9393868,46.7743512 67,43.41 C67,33.23 56.66,27.12 47.45,27.12 Z M57.22,45 C56.3325714,44.973664 55.6208744,44.2575739 55.6,43.37 C55.6,39.86 50.15,38.48 47.45,38.48 C46.8390123,38.5279667 46.2527567,38.2291591 45.932568,37.7065829 C45.6123793,37.1840067 45.6123793,36.5259933 45.932568,36.0034171 C46.2527567,35.4808409 46.8390123,35.1820333 47.45,35.23 C52.19,35.23 58.85,37.72 58.85,43.37 C58.8288945,44.2613356 58.1113356,44.9788945 57.22,45 Z"/>
    <path stroke="currentColor" d="M47.28.64L47.28 14.07M94.12 39.18L80.69 39.18M80.46 14.21L70.96 23.71M13.87 39.18L.44 39.18M23.6 23.71L14.1 14.21"/>
  </g>
</svg>
