<svg xmlns="http://www.w3.org/2000/svg" width="100" height="100" viewBox="0 0 100 100">
  <g fill="none" fill-rule="evenodd" transform="translate(1 3)">
    <path fill="currentColor" fill-rule="nonzero" d="M69.05,94.68 L30.9,94.68 C30.2838321,94.7074457 29.6933932,94.430911 29.32,93.94 C28.9772903,93.4212519 28.9100626,92.767649 29.14,92.19 L46.14,43.75 C46.6430931,42.4765138 47.8516941,41.6210754 49.22,41.57 L87.33,41.57 C87.9443746,41.54021 88.534466,41.8128472 88.91,42.3 C89.2493988,42.8204468 89.3128829,43.4739601 89.08,44.05 L72.08,92.49 C71.5852656,93.7497938 70.4014015,94.6054579 69.05,94.68 Z M49.17,42.45 C48.1774162,42.5071791 47.3060074,43.129614 46.93,44.05 L30,92.49 C29.8654993,92.7909419 29.887944,93.1388359 30.06,93.42 C30.2676645,93.6781948 30.5897381,93.8167614 30.92,93.79 L69.05,93.79 C70.0425838,93.7328209 70.9139926,93.110386 71.29,92.19 L88.24,43.75 C88.397637,43.4543882 88.3759164,43.0952978 88.1837973,42.8208419 C87.9916782,42.5463861 87.6617124,42.4030673 87.33,42.45 L49.17,42.45 Z"/>
    <path stroke="currentColor" stroke-linecap="round" stroke-width=".25" d="M49.33 50.43L81.49 50.43M47.65 55.23L79.8 55.23M45.95 60.04L78.11 60.04M44.27 64.85L76.42 64.85M42.57 69.65L74.73 69.65M40.89 74.46L73.04 74.46M39.19 79.27L71.35 79.27M37.5 84.07L69.66 84.07M35.81 88.88L67.97 88.88"/>
    <polygon fill="#FFF" fill-rule="nonzero" points="91.74 63.08 67.22 78.97 67.22 82.49 70.57 84.25 92.47 70.05"/>
    <path fill="currentColor" fill-rule="nonzero" d="M90.91,71.07 L70.57,84.25 L63.81,84.9 L67.22,79 L87.56,65.79 L90.91,71.07 Z M73,81.06 L71.11,78.06 L68.88,79.5 L68,81.05 L70.08,80.85 L69.08,82.67 L70.82,82.5 L73,81.06 Z M86.7,68.16 C86.5814765,68.1774168 86.4685574,68.2219001 86.37,68.29 L73.1,76.88 C72.997691,76.9419095 72.9119095,77.027691 72.85,77.13 C72.74,77.32 72.85,77.43 73.02,77.41 C73.1421907,77.3948479 73.2588705,77.350235 73.36,77.28 L86.61,68.7 C86.7129898,68.6346504 86.7987379,68.5454724 86.86,68.44 C87,68.26 86.89,68.14 86.68,68.16 L86.7,68.16 Z M96.55,67.42 L92.49,70.05 L89.14,64.77 L93.14,62.16 C93.6692218,61.7971991 94.2748617,61.5611022 94.91,61.47 C95.3440981,61.3743481 95.7953175,61.5286112 96.08,61.87 L97.98,64.87 C98.1577414,65.2787331 98.1044,65.7511861 97.84,66.11 C97.5042103,66.6370699 97.0570699,67.0842103 96.53,67.42 L96.55,67.42 Z"/>
    <path fill="#D9D9D9" fill-rule="nonzero" d="M3.06,1.67 C3.32477141,1.67237874 3.58893554,1.69578569 3.85,1.74 C3.58957343,1.69100407 3.32498423,1.66755946 3.06,1.67 Z"/>
    <path fill="currentColor" fill-rule="nonzero" d="M55.49,16.9 L55.55,16.67 C56.0216901,15.2140624 55.8006099,13.6222848 54.95,12.35 C54.4321933,11.6912863 53.738938,11.1921425 52.95,10.91 C52.95,11.07 52.95,11.23 52.95,11.4 C52.9898573,11.9373929 52.9425808,12.4776954 52.81,13 L52.38,14.41 L52.64,14.56 C53.6731296,15.232863 54.6289063,16.0176061 55.49,16.9 Z"/>
    <polygon fill="currentColor" fill-rule="nonzero" points="10.21 47.79 10.21 47.8 10.21 52.09 10.21 55.86 10.89 55.52 13.14 54.36 15.39 55.51 16.07 55.86 16.07 52.09 16.07 47.8 16.07 47.79 16.07 46.51 10.21 46.51"/>
    <path fill="currentColor" fill-rule="nonzero" d="M16.33,52.59 L16.33,47.3 L39.7,47.3 C40.5409189,47.3064001 41.34741,46.9664442 41.93,46.36 C42.0896215,46.1807118 42.2089678,45.9692983 42.28,45.74 L42.64,44.56 L43.44,44.56 L43.75,44.56 C44.8191976,44.5526904 45.8848068,44.4354063 46.93,44.21 L47.75,44.05 L46.82,47.12 C45.8022663,50.2409254 42.9500615,52.3990273 39.67,52.53 L16.33,52.59 Z"/>
    <path fill="#FFF" fill-rule="nonzero" d="M47,44.76 L46.34,47 C45.3933424,49.9153691 42.7326171,51.9338503 39.67,52.06 L16.83,52.06 L16.83,47.8 L39.7,47.8 C40.682967,47.8059236 41.6243889,47.4040089 42.3,46.69 C42.5115782,46.4613447 42.6688184,46.1878833 42.76,45.89 L43.01,45.08 L43.3,45.08 L43.74,45.08 C44.8347232,45.0845131 45.927049,44.977291 47,44.76 Z M48.44,43.45 L46.8,43.78 C45.7840828,43.9971323 44.7488234,44.1110443 43.71,44.12 L43.2,44.12 L43.02,44.12 L42.25,44.12 L42.02,44.86 L41.77,45.67 C41.7199496,45.8302597 41.6345095,45.9772165 41.52,46.1 C41.0362786,46.6013524 40.3665909,46.8800873 39.67,46.87 L15.83,46.87 L15.83,53.16 L39.67,53.16 C43.1738102,53.0241189 46.2205016,50.7161403 47.3,47.38 L48,45.05 L48.49,43.45 L48.44,43.45 Z"/>
    <path fill="currentColor" fill-rule="nonzero" d="M50.1 21.89L45.29 37.62C46.5180824 37.4144402 47.69173 36.9619905 48.74 36.29 49.134337 36.0280998 49.508698 35.7373015 49.86 35.42L52.66 26.2C52.5431678 25.7428716 52.3927594 25.2949886 52.21 24.86 51.7077589 23.7414844 50.9908772 22.7324139 50.1 21.89zM46.37 19.7C45.5172822 19.4413736 44.6310753 19.3099589 43.74 19.31 39.1698913 19.3002547 35.280749 22.636373 34.59486 27.1547294 33.908971 31.6730858 36.6328769 36.0130686 41 37.36L41 37.22 46.37 19.7z"/>
    <path fill="currentColor" fill-rule="nonzero" d="M62.39,50.28 C61.5630196,50.2851046 60.7706116,49.9486026 60.2,49.35 L52.66,41.83 C51.0900031,42.8876881 49.3419783,43.6532959 47.5,44.09 C46.2723854,44.3899759 45.0137213,44.544372 43.75,44.55 L43.47,44.55 L43.32,44.55 C41.4016111,44.5066465 39.5072412,44.1135394 37.73,43.39 C29.6072684,40.3123565 25.4237474,31.3160125 28.3046146,23.1214251 C31.1854818,14.9268378 40.078323,10.5275847 48.34,13.21 C51.0854182,14.0443018 53.5575818,15.5980359 55.5,17.71 C60.4993407,23.1537369 61.1193722,31.3133518 57,37.45 L64.59,45 C65.4721356,45.8861318 65.7332982,47.2165472 65.2516144,48.3703988 C64.7699306,49.5242504 63.6403504,50.2740901 62.39,50.27 L62.39,50.28 Z M43.75,18.73 C38.3320866,18.73 33.94,23.1220866 33.94,28.54 C33.94,33.9579134 38.3320866,38.35 43.75,38.35 C44.1277341,38.3494893 44.5050909,38.3261132 44.88,38.28 C46.3684645,38.107594 47.7962459,37.5905797 49.05,36.77 C53.0907732,34.1758712 54.6536639,29.0340031 52.74,24.63 C51.1785123,21.050009 47.645709,18.7340602 43.74,18.73 L43.75,18.73 Z"/>
    <path fill="#FFF" fill-rule="nonzero" d="M43.74,13 C52.3085011,13.0220395 59.244518,19.9714723 59.25,28.54 C59.2599059,31.6801757 58.3071177,34.7479442 56.52,37.33 L56.39,37.51 L64.24,45.36 C64.9719541,46.1067355 65.1853484,47.2192978 64.7816287,48.1838604 C64.3779091,49.1484231 63.4356401,49.7772802 62.39,49.78 C61.699558,49.7784694 61.0392475,49.4970255 60.56,49 L52.72,41.18 L52.53,41.3 C50.9720355,42.3793699 49.2250225,43.1561971 47.38,43.59 C46.1889771,43.8847488 44.9669454,44.0358242 43.74,44.04 C43.6,44.04 43.47,44.04 43.33,44.04 C34.7695864,43.9267816 27.9217816,36.8954136 28.035,28.335 C28.1482184,19.7745864 35.1795864,12.9267816 43.74,13.04 L43.74,13 Z M43.74,38.86 C44.1412835,38.8585715 44.542078,38.8318519 44.94,38.78 C46.5013763,38.6007499 48.0002948,38.0634663 49.32,37.21 C53.5707516,34.4766883 55.2136794,29.065189 53.2,24.43 C52.5690332,23.0080089 51.6296856,21.7441595 50.45,20.73 C49.3554198,19.7843567 48.0744392,19.079136 46.69,18.66 C45.7317472,18.3788062 44.7386501,18.2340497 43.74,18.23 C38.0459442,18.23 33.43,22.8459442 33.43,28.54 C33.43,34.2340558 38.0459442,38.85 43.74,38.85 L43.74,38.86 Z M43.74,12.03 C35.8506916,12.0436583 29.0734483,17.6370171 27.563706,25.3805339 C26.0539638,33.1240507 30.2336462,40.8536654 37.54,43.83 C39.3734336,44.565165 41.3250391,44.9615849 43.3,45 L43.44,45 L43.74,45 C45.0440287,44.9966248 46.3430715,44.8388599 47.61,44.53 C49.3826885,44.1104716 51.0726877,43.3972919 52.61,42.42 L59.88,49.67 C60.5452984,50.3509141 61.4580258,50.7333216 62.41,50.73 C63.8647648,50.7352671 65.1788927,49.8620653 65.7376432,48.5188728 C66.2963938,47.1756802 65.9892928,45.6280685 64.96,44.6 L57.7,37.34 C61.7007938,31.0339872 60.9579072,22.8252954 55.89,17.34 C53.8832763,15.1634922 51.3322272,13.561751 48.5,12.7 C46.9620431,12.2392206 45.3654959,12.0034436 43.76,12 L43.74,12.03 Z M43.74,37.85 C42.8105895,37.8505883 41.8865617,37.708949 41,37.43 C36.8264075,36.1448322 34.1069725,32.1314741 34.4603982,27.7788173 C34.8138239,23.4261606 38.145117,19.9041076 42.4713748,19.3091082 C46.7976325,18.7141087 50.956048,21.206086 52.4713863,25.3017277 C53.9867245,29.3973694 52.4516945,33.9958532 48.78,36.36 C47.5765697,37.1406616 46.2062896,37.627111 44.78,37.78 C44.4218577,37.8263056 44.0611233,37.8496865 43.7,37.85 L43.74,37.85 Z"/>
    <path fill="currentColor" fill-rule="nonzero" d="M27.16,28.54 C27.1930178,19.4033123 34.6032592,12.0109485 43.74,12 C45.3524722,11.9977704 46.9564369,12.2336475 48.5,12.7 L50.26,6.9 C50.7561239,5.43183976 50.5300026,3.81562878 49.65,2.54 C48.7594503,1.33323925 47.3395331,0.632597706 45.84,0.66 L20.34,0.66 C19.7606806,0.696630796 19.187192,0.797242825 18.63,0.96 L18.63,0.86 C14.4,-0.38 14.14,4.21 12.73,6.29 C12.19,7.06 11.39,7.73 11.26,8.36 C11.13,8.99 11.49,9.54 11.42,10.11 C11.0212034,12.2572515 10.2277984,14.311967 9.08,16.17 C8.57,16.84 7.84,17.17 7.6,17.95 C7.4,18.48 7.74,19.26 7.67,19.95 C7.25323104,22.0897269 6.49701926,24.1490536 5.43,26.05 C5.09,26.65 4.43,27.12 4.28,27.76 C4.13,28.4 4.45,29.06 4.28,29.7 C3.7382382,31.8520151 2.89310607,33.9160231 1.77,35.83 C1.24,36.74 0.53,37.31 0.4,38.11 C0.33,38.51 0.63,38.95 0.6,39.48 C0.6,40.29 0.43,40.96 0.36,41.63 C-0.111381217,43.0117371 -0.0866292358,44.514536 0.43,45.88 C1.67,49.37 5.33,52.08 8.74,52.08 L9.45,52.08 L9.45,47.8 L8.78,47.8 C6.93,47.8 4.62,47.4 3.95,45.46 C3.68,44.72 3.72,44.46 3.95,44.02 C4.27719617,43.6655416 4.74917709,43.481174 5.23,43.52 L34.38,43.52 C35.0493156,43.5261521 35.7180688,43.4793394 36.38,43.38 C30.7283971,40.5960769 27.1522208,34.8400621 27.16,28.54 Z"/>
  </g>
</svg>
