<svg xmlns="http://www.w3.org/2000/svg" width="100" height="100" viewBox="0 0 100 100">
  <g fill="none" transform="translate(0 1)">
    <polygon fill="#A7A9AC" points="29.28 98.54 29.28 98.51 28.07 97.89"/>
    <path fill="#A7A9AC" d="M30.63,84.22 L71.09,84.22 C72.8340691,84.2187965 74.4996037,83.4946511 75.69,82.22 C74.4919953,83.464509 72.8374227,84.1653542 71.11,84.16 L30.63,84.22 Z"/>
    <polygon fill="#A7A9AC" points="18.92 98.54 20.11 97.89 18.92 98.51"/>
    <polygon fill="currentColor" points="18.92 81.95 18.92 84.22 18.92 84.25 18.92 91.84 18.92 98.51 20.11 97.89 24.1 95.85 28.07 97.89 29.28 98.51 29.28 91.84 29.28 84.25 29.28 84.22 29.28 81.95"/>
    <path fill="currentColor" d="M54.14 23.34L50.56 23.34C50.2115713 23.3478521 49.9158472 23.5977598 49.85 23.94L49.29 26.94C49.255276 27.0867206 49.2915087 27.2412307 49.3878381 27.3572192 49.4841675 27.4732077 49.6293981 27.5371942 49.78 27.53L53.36 27.53C53.7026809 27.5160618 53.9935677 27.274339 54.07 26.94L54.63 23.94C54.6684781 23.791862 54.6340035 23.634255 54.5371918 23.51571 54.4403801 23.397165 54.2928389 23.3318957 54.14 23.34zM53.39 40.08L51.6 40.08 53.4 30.51C53.434724 30.3632794 53.3984913 30.2087693 53.3021619 30.0927808 53.2058325 29.9767923 53.0606019 29.9128058 52.91 29.92L46.91 29.92C46.5646355 29.926847 46.2699522 30.1717246 46.2 30.51L45.64 33.51C45.6021247 33.6563726 45.6354281 33.8120354 45.7298779 33.9300977 45.8243277 34.04816 45.9688834 34.1148209 46.12 34.11L48 34.11 46.88 40.11 45 40.11C44.6529802 40.121542 44.3592504 40.3697643 44.29 40.71L43.73 43.71C43.6915219 43.858138 43.7259965 44.015745 43.8228082 44.13429 43.9196199 44.252835 44.0671611 44.3181043 44.22 44.31L52.58 44.31C52.9284287 44.3021479 53.2241528 44.0522402 53.29 43.71L53.85 40.71C53.8983421 40.5630713 53.8729178 40.4018505 53.7817055 40.2769293 53.6904932 40.1520081 53.5446715 40.0786965 53.39 40.08zM98.07 21.53C97.1594968 20.3794881 95.9480134 19.5037586 94.57 19 94.57 19.28 94.57 19.57 94.57 19.86 94.5878291 20.7118416 94.4765679 21.5614723 94.24 22.38L76.49 80.87C76.3278596 81.3920729 76.0549842 81.8730158 75.69 82.28 74.4996037 83.5546511 72.8340691 84.2787965 71.09 84.28L30.63 84.28 30.63 91.87 71 91.87C76.4275116 91.6303713 81.1336569 88.0409385 82.8 82.87L99.1 29.17C99.9451934 26.600017 99.5656017 23.7844046 98.07 21.53z"/>
    <path fill="currentColor" d="M7.84,80.1 C7.37,78.8 7.43,78.26 7.9,77.55 C8.47218237,76.921596 9.3027678,76.5930533 10.15,76.66 L61.67,76.66 C69.2,76.66 70.74,74.66 73.52,65.52 L89.77,11.81 C90.6358574,9.21382454 90.2401167,6.36227244 88.7,4.1 C87.1170946,1.96412372 84.5979576,0.726914421 81.94,0.78 L36.83,0.78 C35.8134751,0.845163042 34.8073191,1.02291728 33.83,1.31 L33.89,1.14 C26.36,-1 25.89,7.14 23.39,10.8 C22.44,12.17 21.02,13.35 20.79,14.48 C20.56,15.61 21.2,16.55 21.08,17.56 C20.3695089,21.361788 18.9625501,24.9995395 16.93,28.29 C16.04,29.48 14.74,30.07 14.32,31.43 C13.97,32.43 14.56,33.74 14.44,34.99 C14.14,37.77 12.07,43.05 10.44,45.78 C9.85,46.84 8.72,47.68 8.44,48.78 C8.16,49.88 8.74,51.09 8.44,52.22 C7.47240901,56.0320845 5.97802207,59.6906399 4,63.09 C3,64.69 1.8,65.7 1.56,67.12 C1.44,67.83 1.97,68.6 1.91,69.55 C1.86,71 1.62,72.16 1.5,73.34 C0.652777203,75.7859364 0.695269084,78.4523019 1.62,80.87 C3.81,87.04 10.27,91.87 16.32,91.87 L17.56,91.87 L17.56,84.25 L16.38,84.25 C13.12,84.25 9,83.54 7.84,80.1 Z M35.89,34.7 C37.37,26.78 45,20.35 52.89,20.35 C60.78,20.35 66,26.78 64.56,34.7 C63.12,42.62 55.45,49 47.53,49 C39.61,49 34.4,42.62 35.89,34.7 Z"/>
  </g>
</svg>
