<svg xmlns="http://www.w3.org/2000/svg" width="100" height="100" viewBox="0 0 100 100">
  <g fill="none" fill-rule="evenodd">
    <polygon points="16.28 97.9 16.9 97.56 16.28 97.88"/>
    <path d="M30.28,85.0000126 L71,85 C72.7537512,85.0034991 74.4303577,84.279263 75.63,83 C74.4275541,84.2752683 72.7527646,84.9987195 71,85 L30.28,85.0000126 Z"/>
    <polygon points="21.7 97.9 21.7 97.88 21.06 97.56"/>
    <path fill="currentColor" fill-rule="nonzero" d="M15.93,85 C12.65,85 8.53,84.28 7.33,80.83 C6.86,79.51 6.92,78.97 7.39,78.26 C7.96735862,77.6259485 8.8050225,77.293835 9.66,77.36 L61.52,77.36 C69.1,77.36 70.65,75.36 73.46,66.14 L89.81,12.09 C90.6881864,9.47392631 90.2883607,6.59740306 88.73,4.32 C87.1322675,2.18039837 84.5997378,0.943927996 81.93,1 L36.52,1 C35.4860656,1.06308671 34.4627442,1.24426493 33.47,1.54 L33.53,1.36 C25.95,-0.79 25.53,7.36 22.97,11.09 C22.02,12.46 20.58,13.65 20.35,14.79 C20.12,15.93 20.76,16.88 20.64,17.89 C19.9319958,21.7221944 18.5143478,25.3884084 16.46,28.7 C15.57,29.89 14.25,30.48 13.84,31.86 C13.48,32.81 14.08,34.19 13.96,35.44 C13.66,38.24 11.57,43.55 9.96,46.3 C9.37,47.37 8.23,48.21 7.96,49.3 C7.69,50.39 8.26,51.63 7.96,52.77 C6.97541675,56.6063861 5.45727671,60.2856036 3.45,63.7 C2.45,65.32 1.25,66.33 1.01,67.76 C0.89,68.48 1.43,69.26 1.37,70.21 C1.31,71.64 1.07,72.84 1,74 C0.140571173,76.461067 0.183098413,79.147371 1.12,81.58 C3.33,87.79 9.83,92.58 15.92,92.58 L17.17,92.58 L17.17,85 L15.93,85 Z"/>
    <path fill="currentColor" fill-rule="nonzero" d="M98.17,21.87 C97.2558085,20.7077508 96.0373772,19.8216189 94.65,19.31 C94.65,19.59 94.65,19.88 94.65,20.17 C94.7114841,21.1228984 94.6134705,22.0793761 94.36,23 L76.45,81.6 C76.2824586,82.1188819 76.0063342,82.5961339 75.64,83 C74.4379837,84.28181 72.7572253,85.0062749 71,85 L30.28,85 L30.28,92.64 L71,92.64 C76.4511257,92.4158819 81.1885664,88.8269117 82.88,83.64 L99.24,29.57 C100.086992,26.9754087 99.692334,24.1353473 98.17,21.87 Z"/>
    <path fill="#FFF" fill-rule="nonzero" d="M76.44,81.61 C76.2757659,82.1341549 76.0032089,82.6179436 75.64,83.03 C76.0100351,82.6173744 76.2863629,82.1295364 76.45,81.6 L94.36,23 C94.6246793,22.0677067 94.7294958,21.0973088 94.67,20.13 C94.696313,20.9881674 94.5883435,21.8451751 94.35,22.67 L76.44,81.61 Z"/>
    <polygon fill="currentColor" fill-rule="nonzero" points="18.48 82.7 18.48 84.98 18.48 85.01 18.48 92.65 18.48 99.36 19.69 98.75 23.7 96.69 27.7 98.74 28.92 99.36 28.92 92.65 28.92 85.01 28.92 84.98 28.92 82.7"/>
    <path stroke="#FFF" fill="#FFF" fill-rule="nonzero" d="M38.89,28 C38.89,28.42 38.24,29.24 37.07,30.45 C36.0440168,31.5311519 34.9116213,32.5060841 33.69,33.36 C33.0013244,34.6933408 32.0917956,35.9004107 31,36.93 C30.001907,37.7414132 28.8269227,38.3066389 27.57,38.58 C29.9233333,39.2466667 31.3333333,39.6166667 31.8,39.69 C32.2423475,39.7950837 32.6953436,39.8487722 33.15,39.85 C33.8062564,39.8471894 34.4390245,39.6054577 34.93,39.17 L35.04,39.17 C35.0563978,39.1657661 35.0736022,39.1657661 35.09,39.17 C35.09,39.27 34.9,39.43 34.56,39.65 C33.7489894,40.1011265 32.8265418,40.3126652 31.9,40.26 C31.0997814,40.2563755 30.3021265,40.1692367 29.52,40 C28.3597506,39.7276963 27.214801,39.3938917 26.09,39 C25.0487467,39.2012597 23.9905239,39.3017239 22.93,39.3 C21.03,39.3 20.1,39.01 20.16,38.44 C20.22,37.87 20.96,37.63 22.42,37.63 C24.115222,37.7142305 25.7940561,38.0029899 27.42,38.49 C28.1158376,38.2271344 28.7567305,37.8371731 29.31,37.34 C30.1174489,36.564815 30.8568322,35.7217172 31.52,34.82 C29.56,36.38 27.7933333,37.16 26.22,37.16 C25.3026908,37.2168786 24.4056341,36.8741008 23.76,36.22 C23.1547417,35.5410684 22.8770314,34.6312017 23,33.73 C23.2810314,31.8836068 24.2802426,30.2230473 25.78,29.11 C27.1897404,27.7602567 29.0492158,26.9801319 31,26.92 C31.6748664,26.8805338 32.33958,27.0985313 32.86,27.53 C33.3051884,27.9592014 33.5108371,28.5798865 33.41,29.19 C33.1540117,30.6721999 32.3903688,32.0191811 31.25,33 C30.3742423,34.1159715 29.0890551,34.8359643 27.68,35 C27.2602727,35.0178833 26.8516577,34.8623926 26.55,34.57 C26.2602869,34.2987312 26.1220257,33.9026314 26.18,33.51 C26.2050013,33.1942967 26.339395,32.8972159 26.56,32.67 C26.7500027,32.4478622 27.0276882,32.3199808 27.32,32.32 C27.7,32.32 27.87,32.5 27.83,32.86 C27.8085677,33.063956 27.7123864,33.2527564 27.56,33.39 C27.426648,33.5304515 27.2435478,33.6130261 27.05,33.62 C26.75,33.62 26.62,33.48 26.66,33.21 C26.7,32.94 26.66,32.95 26.66,32.95 C26.66,32.95 26.44,33.14 26.41,33.51 C26.3394512,33.8799402 26.4685796,34.2597294 26.75,34.51 C27.0237104,34.7567453 27.3816026,34.8891654 27.75,34.88 C28.75,34.88 29.88,34.24 31.14,32.95 C32.1917999,31.9837489 32.8949021,30.6970718 33.14,29.29 C33.2186141,28.730146 33.0340526,28.1653877 32.64,27.76 C32.2199349,27.3485954 31.6472603,27.131124 31.06,27.16 C29.1902357,27.2815128 27.4454635,28.1413078 26.21,29.55 C24.7321743,30.8317216 23.775191,32.6105009 23.52,34.55 C23.4036323,35.2429128 23.6267919,35.9495848 24.12,36.45 C24.7010005,36.9499014 25.4552587,37.2013208 26.22,37.15 C27.0561125,37.1354733 27.8788295,36.937475 28.63,36.57 C29.7223979,36.0158815 30.751708,35.3453211 31.7,34.57 C32.81,33 33.61,31.9 34.1,31.29 C34.608766,30.6597348 35.160053,30.0650131 35.75,29.51 C37,28.22 38,27.64 38.55,27.64 C38.8,27.64 38.91,27.75 38.89,28 Z M25.8,39 C24.4342318,38.4900559 23.0096981,38.154081 21.56,38 C20.76,38 20.35,38.18 20.31,38.53 C20.27,38.88 21.18,39.23 23.04,39.23 C23.9650097,39.2355783 24.8886723,39.1586064 25.8,39 Z M38.74,28 C38.74,27.86 38.68,27.8 38.54,27.8 C38.09,27.8 37.43,28.25 36.54,29.16 C35.4872754,30.3604404 34.5778252,31.679311 33.83,33.09 C34.9914956,32.2183297 36.0785675,31.251672 37.08,30.2 C37.7965421,29.605405 38.3648669,28.8522035 38.74,28 Z"/>
    <path stroke="#FFF" fill="#FFF" fill-rule="nonzero" d="M37.69,36.52 L37.59,36.66 L37.14,37.19 C35.85,38.76 34.9,39.55 34.3,39.55 C34.0341606,39.5603419 33.7788129,39.4456204 33.61,39.24 C33.4415202,39.0286528 33.3657673,38.7581067 33.4,38.49 C33.5373881,37.9112027 33.8040561,37.3710292 34.18,36.91 L35.83,34.53 C35.9742025,34.5651336 36.1216555,34.5852409 36.27,34.59 C36.5043355,34.5842373 36.738102,34.5642002 36.97,34.53 L34.58,37.88 C34.3018941,38.2029429 34.1032601,38.586512 34,39 C34,39.27 34.11,39.4 34.39,39.4 C34.93,39.4 35.98,38.45 37.52,36.54 C37.52,36.48 37.59,36.45 37.62,36.45 C37.65,36.45 37.69,36.48 37.69,36.52 Z M37.92,32.8 C37.8869712,33.0307847 37.769359,33.241061 37.59,33.39 C37.428174,33.5539698 37.2101798,33.650459 36.98,33.66 C36.7,33.66 36.58,33.53 36.61,33.26 C36.644029,33.0351291 36.7619314,32.8314795 36.94,32.69 C37.1044605,32.5225331 37.3256236,32.422653 37.56,32.41 C37.6651989,32.3938335 37.7715509,32.4310295 37.8437428,32.5092374 C37.9159348,32.5874453 37.9445174,32.6964285 37.92,32.8 Z"/>
    <path stroke="#FFF" fill="#FFF" fill-rule="nonzero" d="M41.26,34.45 L41.18,34.59 L40,34.59 L37.62,38 C37.3886667,38.2916056 37.230893,38.6345918 37.16,39 C37.16,39.27 37.26,39.4 37.55,39.4 C38.1,39.4 39.12,38.45 40.62,36.54 C40.6733333,36.48 40.7133333,36.45 40.74,36.45 C40.74,36.45 40.74,36.45 40.74,36.51 L40.63,36.65 L40.19,37.18 C39,38.76 38,39.55 37.43,39.55 C37.1679345,39.5556984 36.9175777,39.4415651 36.75,39.24 C36.5753045,39.0276836 36.4957345,38.7528051 36.53,38.48 C36.6264132,37.9840809 36.838875,37.5180358 37.15,37.12 L38.92,34.59 L38,34.59 L38.1,34.45 L39,34.45 L40.23,32.71 C40.3960118,32.756484 40.5676031,32.7800358 40.74,32.78 C40.9222679,32.780088 41.1037789,32.7565588 41.28,32.71 L40.06,34.45 L41.26,34.45 Z"/>
    <path stroke="#FFF" fill="#FFF" fill-rule="nonzero" d="M45.38,36.53 L45.19,36.76 L44.75,37.25 C43.35,38.78 42.19,39.55 41.29,39.55 C40.9046947,39.5537121 40.5379032,39.384988 40.29,39.09 C40.0308346,38.78889 39.9045813,38.3957012 39.94,38 C40.05,36.92 40.94,36 42.5,35.15 C43.1116362,34.790849 43.7940822,34.569054 44.5,34.5 C44.7018518,34.4957921 44.897999,34.5671183 45.05,34.7 C45.185303,34.81637 45.2529562,34.9930201 45.23,35.17 C45.23,35.6 44.87,35.97 44.23,36.27 C43.2896713,36.6759165 42.3018628,36.9615074 41.29,37.12 C40.9016032,37.5600373 40.6360199,38.0946529 40.52,38.67 C40.52,39.18 40.73,39.44 41.29,39.44 C42.29,39.44 43.52,38.52 45.09,36.67 C45.17,36.57 45.24,36.52 45.29,36.52 C45.302773,36.5082334 45.3200177,36.5025784 45.3372782,36.5044962 C45.3545387,36.506414 45.3701215,36.5157166 45.38,36.53 Z M44.77,34.86 C44.77,34.67 44.69,34.57 44.48,34.57 C43.9776546,34.6518992 43.5111245,34.8816827 43.14,35.23 C42.5123835,35.7359824 41.9422927,36.3094267 41.44,36.94 C42.2539579,36.7479489 43.0332151,36.4308486 43.75,36 C44.39,35.6 44.73,35.22 44.77,34.86 Z"/>
    <path stroke="#FFF" fill="#FFF" fill-rule="nonzero" d="M50.57,36.52 C50.3960487,36.7654413 50.1910059,36.9872909 49.96,37.18 C49.6123338,37.5966638 49.1187439,37.8649191 48.58,37.93 C48.12,37.93 47.91,37.67 47.96,37.14 C47.9958929,36.9216831 48.0528248,36.7073512 48.13,36.5 C47.7657113,36.8008698 47.4308698,37.1357113 47.13,37.5 C46.86,37.82 46.38,38.5 45.69,39.5 L45.13,39.5 L44.57,39.5 L46.3,37.11 C46.8609377,36.4434299 47.3100979,35.6903267 47.63,34.88 C47.63,34.71 47.63,34.63 47.45,34.63 C47.1,34.63 46.45,35.27 45.45,36.57 C45.38,36.65 45.33,36.69 45.29,36.69 C45.25,36.69 45.29,36.69 45.29,36.69 C45.29,36.69 45.29,36.63 45.29,36.62 L45.48,36.39 C46.48,35.16 47.23,34.54 47.56,34.54 C48.05,34.54 48.26,34.85 48.2,35.47 C48.0534403,36.1511145 47.7369558,36.7840835 47.28,37.31 C47.5914969,36.9896714 47.9256977,36.6922327 48.28,36.42 C48.5446531,35.9259697 48.8817158,35.4743056 49.28,35.08 C49.5354241,34.7829502 49.8915235,34.5906565 50.28,34.54 C50.47,34.54 50.56,34.62 50.54,34.79 C50.52,34.96 50.05,35.49 49.16,36.02 L48.52,36.39 L48.4,36.48 C48.3018948,36.6954817 48.2377999,36.9248742 48.21,37.16 C48.21,37.66 48.33,37.92 48.71,37.92 C49.09,37.92 49.71,37.53 50.37,36.75 C50.51,36.62 50.59,36.55 50.62,36.55 C50.65,36.55 50.57,36.48 50.57,36.52 Z"/>
    <path stroke="#FFF" fill="#FFF" fill-rule="nonzero" d="M57,36.52 C56.5696967,37.1596359 56.0662997,37.7469324 55.5,38.27 C54.7,39.12 54.1,39.55 53.68,39.55 C53.4260962,39.5571713 53.184231,39.4418202 53.03,39.24 C52.8678329,39.0145138 52.7996989,38.7348054 52.84,38.46 C52.8877816,38.0816262 53.021158,37.7191158 53.23,37.4 C52.7597854,38.0104425 52.2414636,38.5822685 51.68,39.11 C51.4086161,39.369453 51.0546336,39.5252053 50.68,39.55 C50.3693603,39.5571166 50.0774985,39.4017096 49.91,39.14 C49.7148646,38.845475 49.6331473,38.4901823 49.68,38.14 C49.79,36.99 50.68,35.96 52.44,35.08 C52.9869728,34.7465966 53.6023797,34.541461 54.24,34.48 C54.62,34.48 54.79,34.66 54.76,35.02 C54.7387456,35.161469 54.6983767,35.2993961 54.64,35.43 L55.19,34.56 C55.347365,34.5972683 55.5083032,34.6173856 55.67,34.62 C55.8844988,34.6154196 56.0983875,34.5953675 56.31,34.56 L54.45,37.19 C54.0007147,37.7290851 53.6610247,38.3507179 53.45,39.02 C53.45,39.3 53.52,39.44 53.76,39.44 C54,39.44 54.42,39.17 55.01,38.62 C55.6651597,37.9991298 56.2734868,37.3306385 56.83,36.62 C56.88,36.56 56.91,36.53 56.94,36.53 C56.97,36.53 57,36.48 57,36.52 Z M54.6,35 C54.6,34.7 54.5,34.56 54.23,34.56 C53.67,34.56 52.89,35.1 51.87,36.18 C51.0847983,36.8738529 50.524263,37.7860283 50.26,38.8 C50.26,39.19 50.38,39.38 50.73,39.38 C51.08,39.38 51.94,38.69 53.11,37.32 C53.776128,36.6696274 54.2856403,35.8762928 54.6,35 Z"/>
    <path stroke="#FFF" fill="#FFF" fill-rule="nonzero" d="M60.54,34.45 L60.45,34.59 L59.26,34.59 L56.9,38 C56.6626487,38.2890852 56.5011113,38.632782 56.43,39 C56.43,39.27 56.53,39.4 56.82,39.4 C57.37,39.4 58.39,38.45 59.89,36.54 C59.9366667,36.48 59.9766667,36.45 60.01,36.45 C60.01,36.45 60.06,36.45 60.06,36.51 L59.95,36.65 L59.51,37.18 C58.22,38.75 57.28,39.54 56.7,39.54 C56.4379345,39.5456984 56.1875777,39.4315651 56.02,39.23 C55.8488651,39.0161202 55.7729563,38.7414028 55.81,38.47 C55.8956839,37.9725684 56.1054929,37.5047976 56.42,37.11 L58.19,34.58 L57.26,34.58 L57.37,34.44 L58.28,34.44 L59.51,32.7 C59.6760118,32.746484 59.8476031,32.7700358 60.02,32.77 C60.2022679,32.770088 60.3837789,32.7465588 60.56,32.7 L59.34,34.44 L60.54,34.45 Z"/>
    <path stroke="#FFF" fill="#FFF" fill-rule="nonzero" d="M65.9,36.52 C65.4766258,37.1619647 64.9762355,37.7496715 64.41,38.27 C63.6,39.12 62.98,39.55 62.55,39.55 C62.2946812,39.5531769 62.0531834,39.4342857 61.9,39.23 C61.7368484,39.0085772 61.6652263,38.732832 61.7,38.46 C61.7690408,38.0958438 61.9232386,37.753182 62.15,37.46 L61.94,37.7 C61.5172961,38.2017469 61.063042,38.6760417 60.58,39.12 C60.3536526,39.3523094 60.0527113,39.4974694 59.73,39.53 C59.4771229,39.5324253 59.2372729,39.4180353 59.08,39.22 C58.9124115,39.0045755 58.8401578,38.7300115 58.88,38.46 C58.9537156,38.0220262 59.1359231,37.609481 59.41,37.26 L61.33,34.51 C61.4877678,34.5449885 61.648474,34.5650768 61.81,34.57 C62.0176072,34.5613356 62.2245839,34.5413056 62.43,34.51 L59.93,38.03 C59.7005622,38.3182837 59.555217,38.6643435 59.51,39.03 C59.51,39.3 59.58,39.43 59.81,39.43 C60.43,39.43 61.5233333,38.3 63.09,36.04 L64.09,34.55 C64.2408304,34.5859376 64.3949977,34.6060464 64.55,34.61 C64.7710682,34.6043303 64.9915335,34.584288 65.21,34.55 L63.52,36.89 C63.0001755,37.518084 62.5940711,38.232151 62.32,39 C62.32,39.26 62.41,39.39 62.66,39.39 C63.14,39.39 64,38.63 65.24,37.12 L65.57,36.73 L65.75,36.53 C65.75,36.47 65.82,36.44 65.85,36.44 C65.88,36.44 65.9,36.48 65.9,36.52 Z"/>
    <path stroke="#FFF" fill="#FFF" fill-rule="nonzero" d="M71.09,36.52 C70.9121056,36.7622165 70.707481,36.9836136 70.48,37.18 C70.1323338,37.5966638 69.6387439,37.8649191 69.1,37.93 C68.64,37.93 68.43,37.67 68.48,37.14 C68.5158929,36.9216831 68.5728248,36.7073512 68.65,36.5 C68.2857113,36.8008698 67.9508698,37.1357113 67.65,37.5 C67.37,37.82 66.9,38.5 66.21,39.5 L65.65,39.5 L65.09,39.5 L66.82,37.11 C67.3809377,36.4434299 67.8300979,35.6903267 68.15,34.88 C68.15,34.71 68.15,34.63 67.96,34.63 C67.62,34.63 66.96,35.27 65.96,36.57 C65.89,36.65 65.84,36.69 65.8,36.69 C65.76,36.69 65.8,36.69 65.8,36.69 C65.78925,36.6679048 65.78925,36.6420952 65.8,36.62 L65.98,36.39 C67,35.07 67.69,34.45 68,34.45 C68.31,34.45 68.7,34.76 68.64,35.38 C68.4934403,36.0611145 68.1769558,36.6940835 67.72,37.22 C68.0314969,36.8996714 68.3656977,36.6022327 68.72,36.33 C68.9811853,35.8337731 69.3186231,35.3816063 69.72,34.99 C69.9754241,34.6929502 70.3315235,34.5006565 70.72,34.45 C70.91,34.45 70.99,34.53 70.98,34.7 C70.97,34.87 70.49,35.4 69.59,35.93 L68.96,36.3 L68.84,36.39 C68.7418948,36.6054817 68.6777999,36.8348742 68.65,37.07 C68.65,37.57 68.77,37.83 69.15,37.83 C69.53,37.83 70.15,37.44 70.81,36.66 C70.95,36.53 71.03,36.46 71.06,36.46 C71.09,36.46 71.09,36.48 71.09,36.52 Z"/>
    <path stroke="#FFF" fill="#FFF" fill-rule="nonzero" d="M75.67,36.53 L75.48,36.76 L75.04,37.25 C73.64,38.78 72.49,39.55 71.59,39.55 C71.2049953,39.5523133 70.8387698,39.3838495 70.59,39.09 C70.3266413,38.7912557 70.1997947,38.396219 70.24,38 C70.34,36.92 71.19,35.97 72.79,35.15 C73.4016362,34.790849 74.0840822,34.569054 74.79,34.5 C74.9918518,34.4957921 75.187999,34.5671183 75.34,34.7 C75.475303,34.81637 75.5429562,34.9930201 75.52,35.17 C75.52,35.6 75.16,35.97 74.52,36.27 C73.5796713,36.6759165 72.5918628,36.9615074 71.58,37.12 C71.1916032,37.5600373 70.9260199,38.0946529 70.81,38.67 C70.76,39.18 71.02,39.44 71.59,39.44 C72.55,39.44 73.8133333,38.5166667 75.38,36.67 C75.46,36.57 75.53,36.52 75.58,36.52 C75.592773,36.5082334 75.6100177,36.5025784 75.6272782,36.5044962 C75.6445387,36.506414 75.6601215,36.5157166 75.67,36.53 Z M75.06,34.86 C75.06,34.67 74.98,34.57 74.77,34.57 C74.2676546,34.6518992 73.8011245,34.8816827 73.43,35.23 C72.8023835,35.7359824 72.2322927,36.3094267 71.73,36.94 C72.5301108,36.7440638 73.2956033,36.4270757 74,36 C74.68,35.6 75,35.22 75.06,34.86 Z"/>
  </g>
</svg>
