<svg xmlns="http://www.w3.org/2000/svg" width="100" height="100" viewBox="0 0 100 100">
  <g transform="translate(1 8)">
    <path d="M84.19,25.38 L84.29,25.04 C85.0094179,22.8394264 84.6736533,20.4300384 83.38,18.51 C82.6077222,17.5127634 81.567006,16.7565097 80.38,16.33 C80.38,16.56 80.38,16.81 80.38,17.06 C80.4329745,17.8828552 80.3415973,18.7086344 80.11,19.5 L79.46,21.63 L79.85,21.86 C81.4245587,22.8662205 82.8804501,24.0470357 84.19,25.38 Z"/>
    <polygon points="15.68 72.13 15.68 72.15 15.68 78.64 15.68 84.35 16.7 83.82 20.11 82.08 23.51 83.82 24.54 84.35 24.54 78.64 24.54 72.15 24.54 72.13 24.54 70.19 15.68 70.19"/>
    <path d="M66 68.08L65.79 68.08C65.64 68.08 65.5 68.08 65.35 68.08L64.97 69.3C64.8283198 69.7506501 64.5932052 70.16636 64.28 70.52 63.2588839 71.5996536 61.8360241 72.207899 60.35 72.2L25.7 72.2 25.7 78.69 60.26 78.69C64.9042566 78.4992203 68.9346913 75.4274618 70.35 71L71.35 67.57C69.7062706 67.9222522 68.0309958 68.1065325 66.35 68.12L66 68.08zM76 32.93L68.76 56.74C70.6184411 56.4372425 72.3950433 55.756552 73.98 54.74 74.5779104 54.3417843 75.146075 53.9006212 75.68 53.42L79.92 39.47C79.7431908 38.7861537 79.5124687 38.1173938 79.23 37.47 78.46839 35.7555405 77.3699739 34.2116367 76 32.93zM70.4 29.62C63.2388333 28.0045103 56.0459973 32.1949311 53.9194245 39.2212961 51.7928516 46.247661 55.4548617 53.7233682 62.31 56.35 62.3287799 56.2752949 62.3521578 56.2018216 62.38 56.13L70.4 29.62z"/>
    <path d="M79,23.23 C70.6462132,17.9068181 59.8480132,18.4095729 52.0249792,24.4859334 C44.2019451,30.5622939 41.0430927,40.9003565 44.1338389,50.3114832 C47.2245852,59.72261 55.8976291,66.1749115 65.8,66.43 C66.01,66.43 66.21,66.43 66.42,66.43 C71.1675555,66.4206604 75.8022136,64.9814771 79.72,62.3 L80,62.11 L91.87,74 C92.5952282,74.7513059 93.5957773,75.1739205 94.64,75.17 C96.7948015,75.1326097 98.5326097,73.3948015 98.57,71.24 C98.5668643,70.2060569 98.1574241,69.2147806 97.43,68.48 L85.56,56.58 L85.76,56.3 C91.9706476,47.2828174 91.0982339,35.1645754 83.66,27.13 C82.2812215,25.6346163 80.7149075,24.3237526 79,23.23 Z M74.87,56.1 C69.2799286,59.7145605 62.0120934,59.3836598 56.7736068,55.2760809 C51.5351203,51.168502 49.4802827,44.1893497 51.6572074,37.8984877 C53.8341321,31.6076257 59.7631337,27.3912452 66.42,27.4 C67.9310696,27.3989877 69.4339862,27.6213924 70.88,28.06 C76.698121,29.8031949 80.9728638,34.7685606 81.8318081,40.7811703 C82.6907523,46.7937799 79.9773015,52.757459 74.88,56.06 L74.87,56.1 Z"/>
    <path d="M41.33,43 C41.3465184,29.1484035 52.5684112,17.9220381 66.42,17.9 C68.8609775,17.9113378 71.2869881,18.2819783 73.62,19 L76.27,10.22 C77.0187294,8.00234858 76.6817117,5.56174832 75.36,3.63 C74.0090378,1.80064798 71.8536057,0.741577564 69.58,0.79 L31,0.79 C30.1258099,0.842466164 29.2603332,0.993421401 28.42,1.24 L28.42,1.09 C21.97,-0.74 21.57,6.21 19.42,9.35 C18.61,10.52 17.42,11.54 17.19,12.5 C16.96,13.46 17.55,14.27 17.44,15.14 C16.8686395,18.3763777 15.7022667,21.4787936 14,24.29 C13.24,25.29 12.13,25.81 11.77,26.97 C11.47,27.78 11.97,28.97 11.87,30.02 C11.2476694,33.2600507 10.1027353,36.3773786 8.48,39.25 C7.97,40.15 7.01,40.87 6.75,41.83 C6.49,42.79 7.01,43.83 6.75,44.77 C5.91814453,48.024035 4.639312,51.1470787 2.95,54.05 C2.1,55.42 1,56.28 0.83,57.5 C0.73,58.11 1.19,58.76 1.13,59.58 C1.13,60.79 0.88,61.81 0.78,62.82 C0.0539096811,64.9114616 0.0893231774,67.1920907 0.88,69.26 C2.76,74.54 8.29,78.64 13.46,78.64 L14.52,78.64 L14.52,72.15 L13.52,72.15 C10.73,72.15 7.23,71.54 6.22,68.6 C5.81,67.49 5.86,67.03 6.22,66.42 C6.70667268,65.8814167 7.41655499,65.6004216 8.14,65.66 L52.25,65.66 C53.2540329,65.6712214 54.257322,65.6009911 55.25,65.45 C46.7125503,61.2290178 41.3149843,52.5238917 41.33,43 Z"/>
  </g>
</svg>
