<svg xmlns="http://www.w3.org/2000/svg" width="100" height="100" viewBox="0 0 100 100">
  <g fill="none" fill-rule="evenodd" transform="translate(0 10)">
    <path fill="currentColor" fill-rule="nonzero" d="M60.55,79.92 L3.55,79.92 C2.62928839,79.968955 1.74456959,79.5565861 1.19,78.82 C0.679388124,78.0456968 0.582174161,77.0698181 0.93,76.21 L26.24,3.81 C26.9895263,1.90597675 28.7951845,0.626314597 30.84,0.55 L87.84,0.55 C88.7600189,0.504599194 89.6431539,0.916229908 90.2,1.65 C90.7105333,2.42061539 90.8078266,3.39354863 90.46,4.25 L65.15,76.65 C64.4035919,78.5579443 62.5972649,79.8420072 60.55,79.92 Z M30.84,1.92 C29.3734015,1.99608417 28.0778271,2.89988301 27.5,4.25 L2.16,76.65 C1.96167792,77.1037343 1.9952132,77.6253941 2.25,78.05 C2.56258625,78.4295829 3.03948699,78.6345012 3.53,78.6 L60.53,78.6 C62.0136361,78.5146266 63.316508,77.585115 63.88,76.21 L89.24,3.81 C89.4399888,3.35998382 89.4063511,2.84046899 89.15,2.42 C88.8405926,2.03620477 88.3613809,1.83029349 87.87,1.87 L30.84,1.92 Z"/>
    <path stroke="currentColor" stroke-linecap="round" stroke-width=".25" d="M31.09 13.79L79.14 13.79M28.56 20.97L76.61 20.97M26.03 28.16L74.09 28.16M23.51 35.34L71.56 35.34M20.98 42.52L69.04 42.52M18.46 49.71L66.51 49.71M15.93 56.89L63.98 56.89M13.4 64.07L61.46 64.07M10.88 71.25L58.93 71.25"/>
    <path fill="currentColor" fill-rule="nonzero" d="M50.25 31.94C40.54 31.94 32.64 26.83 32.64 20.54 32.64 14.25 40.54 9.15 50.25 9.15 59.96 9.15 67.86 14.26 67.86 20.54 67.86 26.82 60 31.94 50.25 31.94zM50.25 10.46C41.25 10.46 33.95 14.98 33.95 20.54 33.95 26.1 41.26 30.63 50.25 30.63 59.24 30.63 66.55 26.11 66.55 20.54 66.55 14.97 59.24 10.46 50.25 10.46zM38.6 75.28C23.12 75.28 10.99 70.28 10.99 63.89 10.99 57.5 23.12 52.49 38.6 52.49 54.08 52.49 66.22 57.49 66.22 63.89 66.22 70.29 54.09 75.28 38.6 75.28zM38.6 53.8C24.34 53.8 12.29 58.42 12.29 63.89 12.29 69.36 24.34 74 38.6 74 52.86 74 64.91 69.39 64.91 63.92 64.91 58.45 52.86 53.8 38.6 53.8z"/>
    <path fill="currentColor" fill-rule="nonzero" d="M27.77,27.19 L29.68,28.93 L31.08,22.56 L24.86,24.56 L26.8,26.3 C22.0087541,32.7751509 21.0150777,41.3070625 24.19,48.71 L22,50.11 L27.77,53.11 L27.52,46.59 L25.31,48 C22.4333203,41.1105929 23.3662319,33.2187679 27.77,27.19 Z"/>
    <polygon fill="#FFF" fill-rule="nonzero" points="89.89 35.59 53.17 59.31 53.17 64.56 58.19 67.19 90.98 45.99"/>
    <path fill="currentColor" fill-rule="nonzero" d="M88.64,47.51 L58.19,67.19 L48.07,68.19 L53.17,59.33 L83.62,39.63 L88.64,47.51 Z M61.8,62.43 L59,58 L55.67,60.15 L54.35,62.43 L57.47,62.13 L55.9,64.86 L58.5,64.6 L61.8,62.43 Z M82.31,43.17 C82.1316563,43.1968199 81.9611482,43.261613 81.81,43.36 L62,56.18 C61.844861,56.2745746 61.7145746,56.404861 61.62,56.56 C61.46,56.84 61.57,57.01 61.88,56.98 C62.0591921,56.9564816 62.2304101,56.8914188 62.38,56.79 L82.2,44 C82.355139,43.9054254 82.4854254,43.775139 82.58,43.62 C82.74,43.31 82.63,43.14 82.31,43.17 Z M97.06,42.07 L91,46 L86,38.13 L92,34.21 C92.7938368,33.6756818 93.7010728,33.3333286 94.65,33.21 C95.297711,33.0650075 95.9722931,33.292438 96.4,33.8 L99.25,38.23 C99.5068055,38.8424878 99.4232849,39.5448202 99.03,40.08 C98.5317459,40.88336 97.8582863,41.5636568 97.06,42.07 Z"/>
  </g>
</svg>
