<svg xmlns="http://www.w3.org/2000/svg" xmlns:xlink="http://www.w3.org/1999/xlink" width="100" height="100" viewBox="0 0 100 100">
  <defs>
    <polygon id="summative-a" points="0 .217 66.232 .217 66.232 40 0 40"/>
    <polygon id="summative-c" points=".859 .212 81.243 .212 81.243 64.521 .859 64.521"/>
  </defs>
  <g fill="none" fill-rule="evenodd" transform="translate(0 6)">
    <path fill="currentColor" d="M11.2766,37.3005 C14.4626,40.9545 19.4176,42.9945 24.3306,42.6855 C27.7526,42.4495 30.6716,41.2445 33.2496,38.9985 C36.9646,35.7615 38.9816,30.8765 38.6436,25.9355 C38.4116,22.5125 37.2096,19.5975 34.9656,17.0235 C32.0006,13.6165 27.5066,11.5805 22.9476,11.5805 C22.5936,11.5805 22.2436,11.5935 21.8926,11.6155 C18.4706,11.8515 15.5516,13.0555 12.9676,15.3055 C9.2556,18.5455 7.2396,23.4275 7.5766,28.3655 C7.8126,31.8005 9.0206,34.7225 11.2766,37.3005"/>
    <g transform="translate(0 47.788)">
      <mask id="summative-b" fill="#fff">
        <use xlink:href="#summative-a"/>
      </mask>
      <path fill="currentColor" d="M61.3401,22.4104 C60.8741,22.4104 60.4021,22.4774 59.9341,22.6194 L46.7871,27.8924 C46.3761,23.2554 45.8511,17.3704 45.4431,12.8134 C45.4231,12.6014 45.4021,12.3674 45.3841,12.1614 C45.1761,9.8414 45.0051,7.9374 44.9031,6.8024 C44.9001,6.7754 44.9001,6.7654 44.8971,6.7404 C44.8361,6.0684 44.7991,5.6624 44.7981,5.6584 C44.7491,5.2324 44.6511,4.8144 44.5121,4.4094 C44.4041,4.0854 44.2461,3.7824 44.0841,3.4784 C44.0511,3.4194 44.0291,3.3544 43.9941,3.2954 C43.4611,2.3774 42.6911,1.5714 41.6081,1.0304 C40.5241,0.4884 39.3391,0.2174 38.0541,0.2174 C37.6311,0.2174 37.1961,0.2464 36.7511,0.3054 C35.9201,0.4154 35.1641,0.6364 34.4531,0.9244 L25.5321,0.9244 L19.9351,0.9244 L11.4991,0.9244 C10.6171,0.5724 9.6741,0.3244 8.6121,0.2734 C8.4441,0.2654 8.2781,0.2624 8.1141,0.2624 C6.5081,0.2624 5.0661,0.6404 3.7901,1.4004 C1.8881,2.5324 0.9461,4.4014 0.8251,6.2734 L0.0161,38.8934 C0.0161,38.8934 -0.4059,40.0004 3.0911,40.0004 C6.5881,40.0004 42.4201,39.8784 42.4201,39.8784 L42.4861,39.8194 C42.8811,39.8034 43.2781,39.7654 43.6741,39.6474 L62.7371,32.0004 C65.3281,31.2254 66.8001,28.4984 66.0261,25.9074 C65.3921,23.7864 63.4441,22.4104 61.3401,22.4104" mask="url(#summative-b)"/>
    </g>
    <g transform="translate(19 .787)">
      <mask id="summative-d" fill="#fff">
        <use xlink:href="#summative-c"/>
      </mask>
      <path fill="currentColor" d="M79.2756,2.18 C77.9636,0.868 76.3866,0.212 74.5446,0.212 L7.5576,0.212 C5.7146,0.212 4.1376,0.868 2.8266,2.18 C1.5136,3.492 0.8586,5.069 0.8586,6.911 L0.8586,7.839 C1.4606,7.741 2.0506,7.615 2.6726,7.572 C3.8586,7.492 5.0446,7.56 6.2176,7.705 L6.2176,6.911 C6.2176,6.549 6.3496,6.235 6.6156,5.97 C6.8796,5.704 7.1946,5.572 7.5576,5.572 L74.5446,5.572 C74.9076,5.572 75.2206,5.704 75.4866,5.97 C75.7516,6.235 75.8836,6.549 75.8836,6.911 L75.8836,47.104 C75.8836,47.466 75.7516,47.781 75.4866,48.045 C75.2206,48.311 74.9076,48.444 74.5446,48.444 L27.6766,48.444 C28.3826,49.582 28.8776,50.867 29.0396,52.286 L29.0246,52.288 C29.0576,52.57 29.1056,53.034 29.1786,53.802 L38.3716,53.802 L38.3716,59.161 L29.6666,59.161 C29.7966,60.622 29.9546,62.397 30.1436,64.521 L58.4676,64.521 C58.8586,64.521 59.1796,64.395 59.4306,64.143 C59.6816,63.892 59.8076,63.571 59.8076,63.18 L59.8076,60.501 C59.8076,60.11 59.6816,59.789 59.4306,59.538 C59.1796,59.287 58.8586,59.161 58.4676,59.161 L43.7306,59.161 L43.7306,53.802 L74.5446,53.802 C76.3866,53.802 77.9636,53.147 79.2756,51.834 C80.5876,50.523 81.2436,48.946 81.2436,47.104 L81.2436,6.911 C81.2436,5.069 80.5876,3.492 79.2756,2.18" mask="url(#summative-d)"/>
    </g>
    <path stroke="currentColor" stroke-linecap="round" stroke-width=".75" d="M45.5725 16.2458L89.0995 16.2458M45.5725 22.0534L89.0995 22.0534M45.5725 27.8601L89.0995 27.8601M45.5725 33.6677L89.0995 33.6677M45.5725 39.4743L89.0995 39.4743"/>
  </g>
</svg>
