<svg xmlns="http://www.w3.org/2000/svg" width="100" height="100" viewBox="0 0 100 100">
  <g fill="currentColor" transform="translate(6 11)">
    <path d="M11.28,15.8 L0.91,15.8 L0.91,13.65 L3.08,11.8 C3.8,11.18 4.48,10.57 5.08,9.96 C6.08396139,9.05869898 6.98906675,8.05302635 7.78,6.96 C8.2594052,6.24054042 8.51355184,5.39454544 8.51,4.53 C8.54733539,3.8205827 8.26037669,3.13261761 7.73,2.66 C7.10509633,2.18745258 6.33207143,1.95341752 5.55,2 C4.87096865,2.01363979 4.19741984,2.12477535 3.55,2.33 C2.79806779,2.55743654 2.08373522,2.89438586 1.43,3.33 L1.29,3.33 L1.29,1.13 C1.93157665,0.840214713 2.60196028,0.618988113 3.29,0.47 C4.06176613,0.275596759 4.85414081,0.174871165 5.65,0.17 C6.97736484,0.0914572323 8.28824292,0.496443956 9.34,1.31 C10.2420575,2.07188078 10.7374964,3.21065097 10.68,4.39 C10.6673015,4.93680241 10.576379,5.47897009 10.41,6 C10.2618448,6.50493105 10.0430104,6.98636674 9.76,7.43 C9.48087682,7.87446926 9.16653451,8.29582173 8.82,8.69 C8.46,9.1 8.02,9.55 7.51,10.05 C6.77,10.77 6.01,11.47 5.23,12.15 C4.45,12.84 3.72,13.47 3,14 L11.24,14 L11.28,15.8 Z"/>
    <polygon points="25.55 15.8 23.11 15.8 19.85 11.39 16.57 15.8 14.32 15.8 18.8 10.07 14.36 4.31 16.8 4.31 20 8.66 23.25 4.31 25.51 4.31 21 10"/>
    <path d="M41.94 7.76L29.74 7.76 29.74 6.11 41.94 6.11 41.94 7.76zM41.94 12.08L29.74 12.08 29.74 10.43 41.94 10.43 41.94 12.08zM57.64 11.53C57.6640729 12.8116764 57.0959024 14.0328741 56.1 14.84 53.7645663 16.5669207 50.5754337 16.5669207 48.24 14.84 47.2768175 14.021847 46.7332354 12.8134787 46.76 11.55 46.754855 10.7209167 47.0140631 9.91176707 47.5 9.24 48.0360342 8.51487009 48.758193 7.94820003 49.59 7.6L49.59 7.53C48.8859101 7.1924024 48.2645956 6.70422668 47.77 6.1 47.3484316 5.52093787 47.1367982 4.81549321 47.17 4.1 47.1636961 2.97001926 47.6897872 1.90301761 48.59 1.22 49.6207856.424318799 50.8989099.0171600757 52.2.07 53.5104339.00290712591 54.8036797.391587564 55.86 1.17 56.7489266 1.83505922 57.2597291 2.89022051 57.23 4 57.2130674 4.71579931 56.9871231 5.4110126 56.58 6 56.1152037 6.69911868 55.4541988 7.24531744 54.68 7.57L54.68 7.63C55.5225927 7.95673973 56.2763054 8.47748673 56.88 9.15 57.4235297 9.81957763 57.6948803 10.6693334 57.64 11.53zM55.52 11.73C55.5498776 11.1924751 55.4061379 10.6595865 55.11 10.21 54.6634817 9.70754767 54.1051417 9.31705217 53.48 9.07 53.16 8.92 52.8 8.78 52.42 8.64 52.04 8.5 51.52 8.33 50.89 8.1 50.2840936 8.42137315 49.7709995 8.89314417 49.4 9.47 49.0169985 10.0654265 48.8218848 10.7622609 48.84 11.47 48.8215043 12.3459048 49.1868189 13.1861285 49.84 13.77 50.4951987 14.3793727 51.3658409 14.7031653 52.26 14.67 53.1301554 14.714287 53.9867212 14.4406124 54.67 13.9 55.2745501 13.3476428 55.5885519 12.5460146 55.52 11.73zM55.21 4.06C55.2319923 3.37231565 54.9141144 2.71786113 54.36 2.31 53.0568812 1.45808412 51.3731188 1.45808412 50.07 2.31 49.5378018 2.69369866 49.22764 3.31402226 49.24 3.97 49.2303306 4.43508782 49.3783622 4.8897564 49.66 5.26 49.9991983 5.6841028 50.4299505 6.02596966 50.92 6.26L52.01 6.74C52.4664193 6.93125772 52.9339303 7.09488657 53.41 7.23 53.9888725 6.8831958 54.4731958 6.39887248 54.82 5.82 55.1027799 5.27793555 55.2373201 4.67077981 55.21 4.06zM16.55 77.58L14.72 77.58 14.72 76.42 14.06 76.89C13.8031334 77.0682806 13.5322476 77.2254612 13.25 77.36 12.9144282 77.520985 12.5623636 77.6450458 12.2 77.73 11.7424498 77.8449412 11.2716855 77.8987429 10.8 77.89 9.8666593 77.9033731 8.96664456 77.5433672 8.3 76.89 7.62903573 76.2391014 7.26561073 75.3341731 7.3 74.4 7.26824046 73.6934654 7.4569513 72.9945364 7.84 72.4 8.22544729 71.8642692 8.75148593 71.4455147 9.36 71.19 10.1220518 70.8730114 10.9279781 70.6740589 11.75 70.6 12.68 70.49 13.68 70.42 14.75 70.36L14.75 70.08C14.7578742 69.7338519 14.682421 69.3908831 14.53 69.08 14.3819664 68.8134509 14.164185 68.5922126 13.9 68.44 13.6092892 68.2795161 13.2899311 68.1775933 12.96 68.14 12.574628 68.0605326 12.1832416 68.0137 11.79 68 11.2480645 68.0052874 10.7082786 68.0689888 10.18 68.19 9.55367396 68.3266683 8.93858529 68.5105263 8.34 68.74L8.24 68.74 8.24 66.9C8.6 66.81 9.12 66.7 9.79 66.58 10.4510799 66.4701959 11.1198714 66.4133486 11.79 66.41 12.4616004 66.4002153 13.132256 66.4639276 13.79 66.6 14.3216105 66.7066462 14.8233845 66.928519 15.26 67.25 15.6746724 67.5421966 16.0000881 67.9437734 16.2 68.41 16.4375808 68.9689294 16.5502057 69.5730087 16.53 70.18L16.55 77.58zM14.72 74.9L14.72 71.9 12.72 72.04C12.11237 72.0812074 11.5098258 72.1782839 10.92 72.33 10.4403263 72.449608 9.9995165 72.6906759 9.64 73.03 8.95690768 73.8163429 8.99171147 74.9953215 9.72 75.74 10.2217612 76.0995437 10.8347158 76.269612 11.45 76.22 12.0576105 76.2256444 12.6588447 76.0958325 13.21 75.84 13.7467093 75.583769 14.2531722 75.2684875 14.72 74.9z"/>
    <polygon points="33.6 72 28.27 72 28.27 77.33 26.65 77.33 26.65 72 21.33 72 21.33 70.43 26.65 70.43 26.65 65.11 28.27 65.11 28.27 70.43 33.6 70.43"/>
    <path d="M48.06,72 C48.0708634,72.8386869 47.9424519,73.6733616 47.68,74.47 C47.4646283,75.1374214 47.1253714,75.7582615 46.68,76.3 C46.2544735,76.786992 45.7337931,77.1817562 45.15,77.46 C44.5767605,77.7249751 43.9514646,77.8582349 43.32,77.85 C42.7722076,77.8553115 42.2265367,77.781208 41.7,77.63 C41.2296049,77.4752661 40.7743701,77.2777746 40.34,77.04 L40.22,77.54 L38.46,77.54 L38.46,62.38 L40.3,62.38 L40.3,67.81 C40.802724,67.4094343 41.3536877,67.0734809 41.94,66.81 C42.5679142,66.5273704 43.2516831,66.3906166 43.94,66.41 C45.1224072,66.3805565 46.2438442,66.9337987 46.94,67.89 C47.742593,69.1052727 48.135079,70.5455563 48.06,72 Z M46.17,72 C46.2407772,70.9586979 46.0154279,69.9186244 45.52,69 C45.0604825,68.3127856 44.2636991,67.9297167 43.44,68 C42.8827054,68.0039405 42.3318545,68.1195512 41.82,68.34 C41.2734605,68.566887 40.7617327,68.8698838 40.3,69.24 L40.3,75.49 C40.7313437,75.6925275 41.1797582,75.8564999 41.64,75.98 C42.0567787,76.0729368 42.4830357,76.1165694 42.91,76.11 C43.8169562,76.1555735 44.6957439,75.7878799 45.3,75.11 C45.9286962,74.2333503 46.2359575,73.1667651 46.17,72.09 L46.17,72 Z"/>
    <polygon points="54.79 46.34 52 46.34 48.24 41.25 44.45 46.34 41.85 46.34 47 39.73 41.87 33.09 44.68 33.09 48.42 38.09 52.17 33.09 54.78 33.09 49.57 39.61"/>
    <polygon points="70.86 38.78 59.39 43.88 59.39 42.09 68.39 38.16 59.39 34.24 59.39 32.45 70.86 37.55"/>
    <polygon points="88.06 33.09 80.32 51.23 77.94 51.23 80.41 45.7 75.13 33.09 77.55 33.09 81.62 42.91 85.72 33.09"/>
  </g>
</svg>
