<svg xmlns="http://www.w3.org/2000/svg" width="100" height="100" viewBox="0 0 100 100">
  <g fill="none" fill-rule="evenodd" transform="translate(1 2)">
    <polyline stroke="currentColor" stroke-linecap="round" stroke-linejoin="round" stroke-width="1.5" points="38.77 95.35 97.88 95.35 97.88 53.51"/>
    <g stroke="currentColor" stroke-linejoin="round" stroke-width=".5" transform="translate(41 55)" style="mix-blend-mode:multiply">
      <path d="M53.35,0.37 L52.13,1.23"/>
      <path stroke-dasharray="2.907 2.907" d="M49.75,2.91 L3.38,35.52"/>
      <path d="M2.2,36.36 L0.97,37.22"/>
    </g>
    <path stroke="currentColor" stroke-linejoin="round" stroke-width=".5" d="M97.88,84.81 C92.0959307,84.8485394 87.436756,89.5658979 87.47,95.35"/>
    <polyline stroke="currentColor" stroke-linecap="round" stroke-linejoin="round" stroke-width="1.5" points="75.75 .86 53.51 10.65 85.43 47.75"/>
    <path stroke="currentColor" stroke-linejoin="round" stroke-width=".5" d="M60.47,7.46 L60.75,7.82 C62.5529294,10.3799028 61.9395971,13.9166366 59.38,15.72 C59.0647025,15.9371909 58.7299346,16.124661 58.38,16.28"/>
    <g stroke="currentColor" stroke-linejoin="round" stroke-width=".5" transform="translate(76 5)" style="mix-blend-mode:multiply">
      <path d="M0.69,0.46 L1.02,1.92"/>
      <path stroke-dasharray="3.145 3.145" d="M1.7,4.99 L8.2,34.15"/>
      <path d="M8.54,35.69 L8.86,37.15"/>
    </g>
    <path fill="currentColor" fill-rule="nonzero" d="M64.28,63.74 C64.2840045,63.6800668 64.2840045,63.6199332 64.28,63.56 C64.2753989,63.4756873 64.2514469,63.393566 64.21,63.32 C64.21,63.32 64.21,63.32 64.21,63.32 L31.54,16.09 C31.54,16.04 31.45,16.03 31.4,15.99 C31.35,15.95 31.31,15.87 31.24,15.84 C31.17,15.81 31.24,15.84 31.19,15.84 C31.1170256,15.8297391 31.0429744,15.8297391 30.97,15.84 C30.8911864,15.8205153 30.8088136,15.8205153 30.73,15.84 L30.67,15.84 C30.62,15.84 30.6,15.92 30.56,15.95 C30.5060363,15.9809304 30.4557204,16.0178287 30.41,16.06 L0.46,57.89 C0.46,57.89 0.46,57.96 0.46,57.99 C0.418769545,58.0488518 0.38516821,58.1126944 0.36,58.18 C0.350466522,58.2396213 0.350466522,58.3003787 0.36,58.36 C0.36,58.36 0.36,58.42 0.36,58.45 C0.36,58.48 0.36,58.45 0.36,58.45 C0.401287444,58.6212213 0.509299165,58.7688373 0.66,58.86 L22.15,70.58 C22.2525589,70.6312132 22.3653743,70.6585624 22.48,70.66 L22.59,70.66 L63.7,64.35 C63.8527278,64.3193902 63.9923621,64.2425914 64.1,64.13 C64.1056528,64.0835045 64.1056528,64.0364955 64.1,63.99 C64.1500468,63.927867 64.1874191,63.8565199 64.21,63.78 L64.28,63.74 Z M3.17,58.67 L24.08,55.46 L22,68.89 L19,67.29 L3.17,58.67 Z M25.52,55.24 L42,52.71 L61.46,63.29 L23.32,69.14 L25.52,55.24 Z M25.75,53.8 L31.2,19.51 L41.2,51.43 L25.75,53.8 Z M61.37,61.66 L57.74,59.66 L42.74,51.48 L33,20.66 L61.37,61.66 Z M24.31,54 L2.55,57.36 L29.83,19.28 L24.31,54 Z"/>
  </g>
</svg>
