<svg xmlns="http://www.w3.org/2000/svg" width="100" height="100" viewBox="0 0 100 100">
  <g fill="none" fill-rule="evenodd" transform="translate(4 2)">
    <path fill="currentColor" fill-rule="nonzero" d="M16.14,14.93 C14.38,12.13 12.73,10.74 11.14,10.74 C8.84318269,10.7619733 6.99439987,12.6330844 7,14.93 C7.00549775,17.241792 8.87820797,19.1145023 11.19,19.12 C12.2558202,19.0944599 13.2673442,18.6444937 14,17.87 C14.8129314,16.966518 15.5300915,15.9812606 16.14,14.93 Z M17.57,12.63 C19.4633333,9.69666667 21.5833333,8.23 23.93,8.23 L23.93,10.74 C22.38,10.74 20.73,12.13 18.98,14.93 C19.5956023,15.9851188 20.3231374,16.9708115 21.15,17.87 C21.8707689,18.6436932 22.8729057,19.0942943 23.93,19.12 L23.93,21.6200677 C21.5766667,21.62 19.4566667,20.1566667 17.57,17.23 C15.6766667,20.1566667 13.5466667,21.62 11.18,21.62 C9.40234239,21.6280036 7.69503613,20.9260582 6.43709123,19.6699908 C5.17914632,18.4139235 4.47465162,16.7076676 4.48,14.93 C4.46162786,13.1412371 5.18580508,11.4249371 6.48,10.19 C7.71212487,8.89173586 9.43028437,8.16677405 11.22,8.19 C13.5666667,8.21666667 15.6833333,9.69666667 17.57,12.63 Z"/>
    <polygon fill="currentColor" fill-rule="nonzero" points="73.88 92.65 72.46 92.65 70.56 90.08 68.64 92.65 67.32 92.65 69.94 89.31 67.35 86 68.77 86 70.66 88.53 72.56 86 73.88 86 71.25 89.3"/>
    <polygon fill="currentColor" fill-rule="nonzero" points="82 88.83 76.2 91.41 76.2 90.5 80.78 88.5 76.2 86.5 76.2 85.59 82 88.2"/>
    <polygon fill="currentColor" fill-rule="nonzero" points="90.72 86 86.8 95.13 85.6 95.13 86.85 92.33 84.17 86 85.4 86 87.46 91 89.54 86"/>
    <path fill="currentColor" fill-rule="nonzero" d="M92.52 23.13C92.5300407 23.1042785 92.5300407 23.0757215 92.52 23.05 92.5245429 23.010129 92.5245429 22.969871 92.52 22.93L77.34 1C77.34 1 77.34 1 77.28 1 77.22 1 77.28.94 77.2.93L76.94.93C76.94.93 76.94.93 76.94.93 76.94.93 76.88.93 76.87.93L62.93 20.42C62.93 20.42 62.93 20.42 62.93 20.42 62.9266973 20.4499091 62.9266973 20.4800909 62.93 20.51 62.9243223 20.5363645 62.9243223 20.5636355 62.93 20.59 62.93 20.59 62.93 20.59 62.93 20.64 62.93 20.69 62.93 20.64 62.93 20.64 62.9531916 20.7205316 63.0070495 20.7887517 63.08 20.83L73 26.3C73.0489142 26.3147363 73.1010858 26.3147363 73.15 26.3L92.22 23.37C92.2893788 23.3574086 92.3526562 23.3222545 92.4 23.27 92.4 23.27 92.4 23.27 92.4 23.21 92.4 23.15 92.4 23.15 92.4 23.11 92.4 23.07 92.52 23.14 92.52 23.13zM64.18 20.78L73.88 19.29 72.88 25.52 71.52 24.78 64.18 20.78zM74.55 19.19L82.2 18 91.2 22.9 73.53 25.63 74.55 19.19zM74.66 18.52L77.18 2.62 81.84 17.42 74.66 18.52zM91.17 22.16L89.49 21.25 82.49 17.46 78 3.15 91.17 22.16zM74 18.62L63.9 20.17 76.55 2.51 74 18.62zM70.43 69.66L60 59.25 60.31 58.8C65.5103289 51.2038233 64.8281834 41.0336545 58.66 34.2 53.1558723 28.0649964 44.4356534 25.9649717 36.7420412 28.9216628 29.048429 31.8783539 23.9789155 39.2778373 24 47.52 23.9995322 48.228377 24.0395976 48.9362005 24.12 49.64 24.3746767 51.8686199 25.0106055 54.0368667 26 56.05 28.4953262 61.3140472 33.1750165 65.2178767 38.8011907 66.7288404 44.4273648 68.239804 50.433192 67.2056739 55.23 63.9L55.68 63.59 66.06 74C66.6292252 74.5861904 67.412924 74.9148383 68.23 74.91 69.471954 74.9117625 70.5934539 74.1674335 71.0742307 73.0223106 71.5550075 71.8771876 71.3009829 70.5553484 70.43 69.67L70.43 69.66zM33.24 56.05C31.7506003 54.1975229 30.771544 51.9877517 30.4 49.64 30.2741815 48.93998 30.2039622 48.2311001 30.19 47.52 30.1555583 41.0675678 34.6282031 35.4657297 40.9281489 34.0708278 47.2280946 32.6759258 53.6474261 35.8661179 56.34 41.73 57.1947713 43.5268113 57.642094 45.4902507 57.65 47.48 57.6774508 53.315612 54.0000024 58.5261355 48.4924078 60.4552602 42.9848132 62.3843849 36.859847 60.6073167 33.24 56.03L33.24 56.05z"/>
    <path stroke="currentColor" stroke-width="1.25" d="M3.08,67.31 L3.08,93.83"/>
    <polygon fill="currentColor" fill-rule="nonzero" points=".58 68.04 3.08 63.72 5.57 68.04"/>
    <path stroke="currentColor" stroke-width="1.25" d="M19.47,76.99 L3.08,93.38"/>
    <polygon fill="currentColor" fill-rule="nonzero" points="17.19 75.74 22 74.45 20.71 79.27"/>
    <path stroke="currentColor" stroke-width="1.25" d="M35.11,93.38 L3.08,93.38"/>
    <polygon fill="currentColor" fill-rule="nonzero" points="34.38 90.88 38.7 93.38 34.38 95.87"/>
  </g>
</svg>
