<svg xmlns="http://www.w3.org/2000/svg" width="100" height="100" viewBox="0 0 100 100">
  <path fill="currentColor" d="M55.7257935,32.0110587 C47.3407741,18.6692777 39.4402224,11.9983872 32.0241385,11.9983872 C26.6899203,11.9197538 21.5600583,14.0454266 17.8478656,17.8726423 C14.0183119,21.5811504 11.8940342,26.7061694 11.978352,32.0333942 C11.8926936,37.3608743 14.017183,42.4864043 17.8478656,46.1941462 C21.5596714,50.0206347 26.6908193,52.1427982 32.0241385,52.0572335 C36.8315497,52.0572335 41.27002,50.0619225 45.3395494,46.0713005 C48.0376623,43.4580387 51.4997437,38.7712915 55.7257935,32.0110587 Z M62.5679694,21.0331256 C71.6163371,7.0138323 81.7603473,0.00418564313 93,0.00418564313 L93,11.9983872 C85.5839161,11.9983872 77.6796378,18.6692777 69.287165,32.0110587 C73.5281215,38.7712915 76.9902029,43.4505935 79.6734091,46.048965 C83.7503919,50.0321418 88.1925888,52.0274528 93,52.0348979 L93,63.9955961 C81.7528939,63.9955961 71.6088837,56.9971173 62.5679694,43.0001595 C53.5270551,56.9971173 43.3457781,63.9955961 32.0241385,63.9955961 C23.5010365,64.1392925 15.2968141,60.7609786 9.35104593,54.6593275 C3.2427071,48.7200691 -0.139309613,40.5248292 0.00454424156,32.0110587 C-0.141561535,23.5001341 3.24105176,15.3074903 9.35104593,9.37395762 C15.2880209,3.25548255 23.4950241,-0.136103689 32.0241385,0.00418564313 C43.3532315,0.00418564313 53.5345084,7.0138323 62.5679694,21.0331256 Z" transform="translate(4 18)"/>
</svg>
