<svg xmlns="http://www.w3.org/2000/svg" width="100" height="100" viewBox="0 0 100 100">
  <g fill="currentColor" transform="translate(5 6)">
    <polygon points="10.73 74.61 2.14 74.61 2.14 72.12 10.73 72.12"/>
    <path d="M27.12 72.47C27.5815651 72.9023513 27.9521445 73.4225223 28.21 74 28.5189734 74.7297606 28.6656912 75.5179425 28.64 76.31 28.6507278 77.1960591 28.47705 78.0746644 28.13 78.89 27.7945075 79.6470934 27.3078931 80.327673 26.7 80.89 26.0049748 81.5395102 25.175276 82.0277692 24.27 82.32 23.2778391 82.6364711 22.2413446 82.7917765 21.2 82.78 20.0708856 82.7789239 18.9460475 82.6412572 17.85 82.37 16.9186766 82.1591987 16.0083079 81.8646676 15.13 81.49L15.13 78.59 15.34 78.59C16.1959586 79.1365282 17.1207097 79.5669578 18.09 79.87 19.0772606 80.1981409 20.1096807 80.3702109 21.15 80.38 21.7773501 80.3721616 22.4003433 80.2745033 23 80.09 23.5854308 79.9329622 24.1263359 79.641969 24.58 79.24 24.9859557 78.8638621 25.3094418 78.4075764 25.53 77.9 25.7519491 77.3126466 25.857247 76.6876527 25.84 76.06 25.8597926 75.4316472 25.7402675 74.806702 25.49 74.23 25.2650788 73.7697716 24.9194591 73.3792214 24.49 73.1 24.0369519 72.8002336 23.5258681 72.5992073 22.99 72.51 22.3619922 72.4068192 21.7264187 72.3566423 21.09 72.36L19.87 72.36 19.87 70.07 20.87 70.07C22.0463556 70.130823 23.2128046 69.8269875 24.21 69.2 25.0361061 68.616719 25.5044559 67.6498032 25.45 66.64 25.4872667 65.7411601 25.0309214 64.8936617 24.26 64.43 23.8684379 64.1918058 23.4388521 64.0226775 22.99 63.93 22.4854567 63.8368984 21.9730183 63.7933578 21.46 63.8 20.5152517 63.8101462 19.5776617 63.965287 18.68 64.26 17.699684 64.576757 16.7650709 65.0205301 15.9 65.58L15.77 65.58 15.77 62.71C16.6038227 62.3248817 17.4750836 62.0266424 18.37 61.82 19.4027632 61.555453 20.463921 61.4177711 21.53 61.41 22.4178627 61.4010147 23.3037747 61.4949751 24.17 61.69 24.905896 61.860812 25.6063817 62.1586031 26.24 62.57 27.533486 63.3827794 28.2957007 64.8233652 28.24 66.35 28.2579059 67.472288 27.8215395 68.5541883 27.03 69.35 26.2776124 70.173746 25.2832177 70.7374698 24.19 70.96L24.19 71.15C24.7119822 71.2472118 25.2217061 71.4014703 25.71 71.61 26.2225823 71.8201786 26.6985152 72.1104639 27.12 72.47zM47.74 48.35L40.42 48.35 40.42 47 43.23 47 43.23 37.9 40.42 37.9 40.42 36.67C40.8284649 36.6643927 41.2360741 36.6309822 41.64 36.57 41.9870756 36.5355072 42.3254777 36.4407546 42.64 36.29 42.9022784 36.1553081 43.1285649 35.9598788 43.3 35.72 43.4727217 35.4360059 43.5691694 35.112217 43.58 34.78L45 34.78 45 47 47.76 47 47.74 48.35z"/>
    <polygon points="54.18 48.35 52 48.35 52 45.76 54.17 45.76"/>
    <path d="M67.08,41.58 C67.2152421,43.4321704 66.819796,45.2845231 65.94,46.92 C65.0849194,48.0072436 63.778207,48.6419765 62.395,48.6419765 C61.011793,48.6419765 59.7050806,48.0072436 58.85,46.92 C57.9901816,45.2921806 57.6022662,43.4565097 57.73,41.62 C57.596931,39.7723508 57.988646,37.924704 58.86,36.29 C59.7126469,35.1954443 61.0225351,34.5554114 62.41,34.5554114 C63.7974649,34.5554114 65.1073531,35.1954443 65.96,36.29 C66.8179887,37.9148763 67.2058493,39.7468253 67.08,41.58 Z M64.69,45.7 C64.916929,45.1578211 65.0618517,44.5848705 65.12,44 C65.2069625,43.2063862 65.2470321,42.4083332 65.24,41.61 C65.2461723,40.8083583 65.2061058,40.0070278 65.12,39.21 C65.070523,38.6160999 64.9217935,38.0347029 64.68,37.49 C64.5007913,37.0586546 64.1981189,36.6898814 63.81,36.43 C63.3832281,36.1806822 62.8938227,36.0591986 62.4,36.08 C61.9126835,36.0547228 61.4279435,36.1655205 61,36.4 C60.6086618,36.6632885 60.3027928,37.0351975 60.12,37.47 C59.8842378,38.0301507 59.7390905,38.624242 59.69,39.23 C59.62,39.95 59.58,40.74 59.58,41.6 C59.5716931,42.3912079 59.6050727,43.1823041 59.68,43.97 C59.7383405,44.5580655 59.8832381,45.1342861 60.11,45.68 C60.2917292,46.1210574 60.6018037,46.4973276 61,46.76 C61.8946157,47.2472866 62.9753843,47.2472866 63.87,46.76 C64.2451016,46.4986269 64.5312444,46.128735 64.69,45.7 Z"/>
    <polygon points="79 36.85 72.88 48.35 70.88 48.35 77.4 36.41 69.7 36.41 69.7 34.82 79 34.82"/>
    <path d="M90.64,44.05 C90.6398802,44.6701377 90.5210765,45.2845224 90.29,45.86 C90.0810838,46.4035311 89.7609098,46.8974165 89.35,47.31 C88.902525,47.7448307 88.3719467,48.084945 87.79,48.31 C87.118686,48.5451123 86.4112216,48.6602022 85.7,48.65 C84.9798378,48.6520652 84.2618141,48.5715392 83.56,48.41 C82.9663743,48.2850471 82.3867991,48.1007891 81.83,47.86 L81.83,45.92 L82,45.92 C82.5494749,46.2552522 83.1369523,46.5238133 83.75,46.72 C84.3935676,46.9420211 85.0692189,47.0568818 85.75,47.06 C86.1741046,47.0633356 86.596041,46.9992012 87,46.87 C87.3757697,46.7364295 87.7172843,46.5212753 88,46.24 C88.2653847,45.9735514 88.4700559,45.6529 88.6,45.3 C88.7439655,44.8959701 88.8117781,44.4687511 88.8,44.04 C88.8130688,43.6333366 88.7308816,43.2292498 88.56,42.86 C88.4098093,42.5508916 88.1825015,42.2856992 87.9,42.09 C87.5541899,41.8497767 87.1627969,41.6830092 86.75,41.6 C86.2491382,41.503686 85.7400281,41.4567943 85.23,41.46 C84.7180374,41.4603563 84.2067481,41.4971157 83.7,41.57 C83.2,41.64 82.78,41.72 82.42,41.79 L82.42,34.79 L90.56,34.79 L90.56,36.38 L84.16,36.38 L84.16,40 C84.42,40 84.69,40 84.96,39.94 L85.67,39.94 C86.3149593,39.9343521 86.9586571,39.9980513 87.59,40.13 C88.1331544,40.2540099 88.6485581,40.4778036 89.11,40.79 C89.5922138,41.1146716 89.9816408,41.5592387 90.24,42.08 C90.5211735,42.6977803 90.6579655,43.3714808 90.64,44.05 Z"/>
    <polygon points="81.6 85.72 79.3 88.28 70.3 78.11 61.19 88.28 58.89 85.72 68 75.64 58.89 65.57 61.19 63 70.25 73.17 79.3 63 81.6 65.57 72.47 75.64"/>
    <path d="M28.52 22.8L.84 22.8.84 19.28 28.52 19.28 28.52 22.8zM17.31 12.89L12.06 12.89 12.06 6.83 17.31 6.83 17.31 12.89zM17.31 35.25L12.06 35.25 12.06 29.19 17.31 29.19 17.31 35.25zM90.43 4.43L63.43 4.43 63.43.79 90.43.79 90.43 4.43zM90.43 13.98L63.43 13.98 63.43 10.34 90.43 10.34 90.43 13.98z"/>
  </g>
</svg>
