<svg xmlns="http://www.w3.org/2000/svg" width="100" height="100" viewBox="0 0 100 100">
  <g fill="none" fill-rule="evenodd" transform="translate(0 1)">
    <polyline stroke="currentColor" stroke-linecap="round" stroke-linejoin="round" stroke-width="1.5" points="99.05 98.36 .69 98.36 .69 .17"/>
    <path stroke="currentColor" stroke-linecap="round" stroke-linejoin="round" stroke-width="2" d="M4.37,80.34 L93.6,36.86"/>
    <circle cx="13" cy="67.09" r="1.47" fill="currentColor" fill-rule="nonzero"/>
    <circle cx="31.38" cy="74.48" r="1.47" fill="currentColor" fill-rule="nonzero"/>
    <circle cx="54.98" cy="75" r="1.47" fill="currentColor" fill-rule="nonzero"/>
    <circle cx="44.19" cy="68.22" r="1.47" fill="currentColor" fill-rule="nonzero"/>
    <circle cx="49.14" cy="41.93" r="1.47" fill="currentColor" fill-rule="nonzero"/>
    <circle cx="75.4" cy="35.87" r="1.47" fill="currentColor" fill-rule="nonzero"/>
    <circle cx="38.78" cy="21.37" r="1.47" fill="currentColor" fill-rule="nonzero"/>
    <circle cx="61.08" cy="42.88" r="1.47" fill="currentColor" fill-rule="nonzero"/>
    <circle cx="75.71" cy="50.95" r="1.47" fill="currentColor" fill-rule="nonzero"/>
    <circle cx="81.1" cy="24.38" r="1.47" fill="currentColor" fill-rule="nonzero"/>
    <circle cx="48.19" cy="55.35" r="1.47" fill="currentColor" fill-rule="nonzero"/>
    <circle cx="83.05" cy="83.67" r="1.47" fill="currentColor" fill-rule="nonzero"/>
    <circle cx="62.55" cy="52.42" r="1.47" fill="currentColor" fill-rule="nonzero"/>
    <circle cx="62.55" cy="63.27" r="1.47" fill="currentColor" fill-rule="nonzero"/>
    <circle cx="36.9" cy="49.86" r="1.47" fill="currentColor" fill-rule="nonzero"/>
    <circle cx="25.92" cy="81.14" r="1.47" fill="currentColor" fill-rule="nonzero"/>
    <circle cx="92.26" cy="45.77" r="1.47" fill="currentColor" fill-rule="nonzero"/>
    <circle cx="16.27" cy="83.67" r="1.47" fill="currentColor" fill-rule="nonzero"/>
    <circle cx="82.57" cy="59.39" r="1.47" fill="currentColor" fill-rule="nonzero"/>
    <circle cx="25.92" cy="56.69" r="1.47" fill="currentColor" fill-rule="nonzero"/>
    <circle cx="71.27" cy="65.51" r="1.47" fill="currentColor" fill-rule="nonzero"/>
  </g>
</svg>
