<svg xmlns="http://www.w3.org/2000/svg" width="100" height="100" viewBox="0 0 100 100">
  <g fill="currentColor" transform="translate(0 3)">
    <path d="M74.1 74.56L76.86 78.72C77.57 79.8 78.18 80.8 78.86 81.88L78.98 81.88C79.62 80.72 80.26 79.73 80.9 78.68L83.62 74.56 87.42 74.56 80.82 83.93 87.62 93.93 83.62 93.93 80.78 89.57C80.02 88.45 79.38 87.37 78.7 86.21L78.62 86.21C77.98 87.37 77.3 88.41 76.62 89.57L73.82 93.93 69.85 93.93 76.74 84 70.18 74.52 74.1 74.56zM87.61 80.18L89.61 78.27C92.3 75.85 93.69 74.27 93.69 72.67 93.7150625 72.0264837 93.4569 71.4042991 92.9836098 70.9675638 92.5103196 70.5308285 91.8694327 70.3234026 91.23 70.4 90.2434986 70.4526935 89.2957072 70.8011462 88.51 71.4L87.87 70C88.9949933 69.1141948 90.3881767 68.6380435 91.82 68.65 94.82 68.65 96.12 70.55 96.12 72.3 96.12 74.73 94.28 76.51 91.82 78.68L90.82 79.59 90.82 79.65 96.36 79.65 96.36 81.43 87.61 81.43 87.61 80.18z"/>
    <rect width="99.21" height="3.04" x=".408" y="35.183" transform="rotate(-.18 50.013 36.703)"/>
    <rect width="3.05" height="72.55" x="48.08" y=".01"/>
    <ellipse cx="25.069" cy="36.781" rx="3.23" ry="3.22" transform="rotate(-.18 25.069 36.781)"/>
    <ellipse cx="73.778" cy="36.618" rx="3.23" ry="3.22" transform="rotate(-.18 73.778 36.618)"/>
    <path d="M75.05,62.84 C74.4977153,62.84 74.05,62.3922847 74.05,61.84 C74,35.44 71.34,21.26 66.27,19.67 C61.2,18.08 53.51,29.13 46.65,38.86 C39.79,48.59 33.77,57.1 29.18,55.67 C25.67,54.57 24.09,48.14 24.04,34.81 L24,16 C24,15.4477153 24.4477153,15 25,15 C25.5522847,15 26,15.4477153 26,16 L26.06,34.8 C26.11,50.28 28.41,53.31 29.77,53.74 C32.94,54.74 39.33,45.68 44.96,37.74 C52.58,26.94 60.46,15.74 66.86,17.74 C70.77,19 76,24.85 76.07,61.82 C76.0755001,62.0921697 75.9698032,62.3548186 75.7773109,62.5473109 C75.5848186,62.7398032 75.3221697,62.8455001 75.05,62.84 Z"/>
  </g>
</svg>
