<svg xmlns="http://www.w3.org/2000/svg" width="100" height="100" viewBox="0 0 100 100">
  <g fill="none" fill-rule="evenodd">
    <path fill="currentColor" fill-rule="nonzero" d="M79.4 79.93C79.2458176 80.1307644 79.0028073 80.242923 78.75 80.23 78.5302712 80.2365701 78.3173088 80.1535508 78.16 80 78.0094712 79.8604294 77.922729 79.6652594 77.92 79.46 77.948999 79.2046649 78.0164274 78.9551801 78.12 78.72 78.1209335 78.6202342 78.0722083 78.5265321 77.99 78.47 77.9053909 78.4014709 77.7988048 78.3659422 77.69 78.37 77.16 78.37 76.69 78.95 76.36 80.09 76.0620549 81.1876256 75.8349206 82.3032556 75.68 83.43L78.05 83.43 77.9 84.15 75.48 84.15 73.48 91.15C73.1549541 92.722406 72.5702883 94.2296947 71.75 95.61 71.1978811 96.6414281 70.129771 97.2922479 68.96 97.31 68.5015014 97.3278227 68.0515263 97.1825551 67.69 96.9 67.3908677 96.6819141 67.2069373 96.3398036 67.19 95.97 67.1928757 95.7524824 67.2666023 95.5418349 67.4 95.37 67.5500059 95.1839315 67.781595 95.0830782 68.02 95.1 68.2474454 95.0940863 68.467561 95.1806892 68.63 95.34 68.7962206 95.4902061 68.8877004 95.7060985 68.88 95.93 68.8814258 96.06785 68.8432469 96.2032115 68.77 96.32 68.7164739 96.4021739 68.6791381 96.4938163 68.66 96.59 68.6664221 96.6617741 68.7128951 96.723738 68.78 96.75 68.8807897 96.7938347 68.9901766 96.8143447 69.1 96.81 69.7 96.81 70.21 96.34 70.63 95.38 70.9052472 94.7374224 71.1097834 94.0668119 71.24 93.38L73.77 84.24 71.77 84.24 71.92 83.52 74 83.52C74.2466462 82.2383441 74.6848934 81.0011386 75.3 79.85 75.7577945 78.7455475 76.8064692 77.9998233 78 77.93 78.4400346 77.9131788 78.8708291 78.0591504 79.21 78.34 79.5197522 78.5781715 79.6979167 78.9493474 79.69 79.34 79.6625896 79.5637296 79.5603978 79.7716371 79.4 79.93zM84.41 78.46C83.8185185 79.0779928 83.2830824 79.7472879 82.81 80.46 82.0495481 81.61227 81.4600894 82.8686591 81.06 84.19 80.6784053 85.3708163 80.397403 86.5818022 80.22 87.81 80.0797325 88.7469322 80.0062141 89.6926467 80 90.64 79.9863441 91.6204949 80.0532356 92.6004553 80.2 93.57 80.4020718 94.5891556 80.6795003 95.5919095 81.03 96.57L80.66 96.7C79.2471354 94.3247057 78.4977293 91.6137203 78.49 88.85 78.4615038 87.2709489 78.754087 85.7025669 79.35 84.24 80.4965337 81.8791253 82.1409122 79.7946537 84.17 78.13L84.41 78.46zM82.29 91.41C82.4399672 91.2965765 82.6220043 91.2335636 82.81 91.23 82.8927134 91.2156244 82.9772866 91.2156244 83.06 91.23 83.1592371 91.2545098 83.2538121 91.2950419 83.34 91.35L83.71 91.55 83.86 91.61 84.01 91.61C84.1585228 91.6229712 84.3060869 91.5761826 84.42 91.48 84.6853529 91.1818392 84.9324688 90.8679352 85.16 90.54 85.43 90.2 86.02 89.35 86.95 88 86.95 88 86.87 87.57 86.71 86.85 86.55 86.13 86.39 85.53 86.26 85.04 86.1850158 84.6921373 86.0639474 84.355836 85.9 84.04 85.7532189 83.8640073 85.527664 83.7737854 85.3 83.8 85.1037378 83.8190502 84.9096087 83.8558678 84.72 83.91L84.12 84.06 84.02 83.73 85.21 83.32C85.51 83.21 85.79 83.13 86.05 83.06 86.2692291 83.0048526 86.4939891 82.9746609 86.72 82.97 86.9710046 82.9519291 87.2168884 83.0473467 87.39 83.23 87.7277794 83.7647426 87.93661 84.3706938 88 85L88.23 86.21C88.6760353 85.4880965 89.1740173 84.7996114 89.72 84.15 89.977923 83.8329373 90.2851835 83.5594417 90.63 83.34 90.8681439 83.1734344 91.1495455 83.0796339 91.44 83.07 91.6390553 83.0637579 91.8370526 83.1013091 92.02 83.18 92.2949016 83.3094431 92.458951 83.5975297 92.43 83.9 92.4410702 84.1107499 92.3651546 84.3168066 92.22 84.47 92.0805279 84.6037453 91.8931488 84.6758142 91.7 84.67 91.627035 84.6803938 91.552965 84.6803938 91.48 84.67 91.4009478 84.6507621 91.3239272 84.6239723 91.25 84.59L90.98 84.47 90.75 84.38 90.59 84.38C90.27 84.38 89.83 84.79 89.26 85.62 88.8980549 86.0344617 88.5982559 86.4993184 88.37 87 88.4122647 87.3377526 88.4791087 87.6719727 88.57 88 88.7 88.59 88.84 89.2 89 89.86 89.087361 90.29518 89.2077084 90.7230818 89.36 91.14 89.52 91.52 89.71 91.71 89.91 91.71 90.1440673 91.6949806 90.3597522 91.577999 90.5 91.39 90.8236331 91.0257641 91.1242174 90.6416841 91.4 90.24L91.69 90.42C91.4236368 90.9228032 91.1088094 91.3983935 90.75 91.84 90.3651656 92.4647467 89.7252997 92.8888864 89 93 88.6457107 93.0038908 88.3199899 92.8061318 88.16 92.49 87.9926284 92.1756718 87.8713846 91.8388835 87.8 91.49L87.14 88.86 84.94 91.7C84.6409766 92.0659629 84.3059629 92.4009766 83.94 92.7 83.6927615 92.8773653 83.3941538 92.9687042 83.09 92.96 82.7245401 92.9984299 82.3674457 92.8333217 82.16 92.53 82.0578515 92.3719113 82.0023925 92.1882037 82 92 81.9869042 91.766165 82.0968588 91.5424642 82.29 91.41zM91.25 96.31C91.8632612 95.665859 92.4281298 94.977321 92.94 94.25 93.6567465 93.1193823 94.2121087 91.8942197 94.59 90.61 94.9541711 89.4726303 95.2316321 88.3092998 95.42 87.13 95.5951776 86.0587948 95.6854584 84.9754248 95.69 83.89 95.7024402 82.775071 95.5951589 81.6620279 95.37 80.57 95.208402 79.7579261 94.956851 78.9663791 94.62 78.21L95.03 78.08C96.4433191 80.4551005 97.1927603 83.1662126 97.2 85.93 97.2229603 87.3682167 96.9823239 88.798478 96.49 90.15 95.385882 92.6936483 93.6678896 94.9236025 91.49 96.64L91.25 96.31zM13.59 3.31L13.59 5 5.72 7.43 13.59 9.87 13.59 11.57 3.7 8.24 3.7 6.64 13.59 3.31zM13.59 13.37L3.7 13.37 3.7 11.84 13.59 11.84 13.59 13.37zM21 3.31L30.9 6.64 30.9 8.24 21 11.57 21 9.87 28.88 7.43 21 5 21 3.31zM30.9 11.84L30.9 13.37 21 13.37 21 11.84 30.9 11.84z"/>
    <polygon fill="currentColor" fill-rule="nonzero" points="48.1 5.51 48.1 7.09 44.56 7.09 43.45 9.56 48.1 9.56 48.1 11.18 42.73 11.18 41.73 13.45 40.06 13.45 41.06 11.18 38.25 11.18 38.25 9.56 41.8 9.56 42.9 7.09 38.25 7.09 38.25 5.51 43.61 5.51 44.61 3.22 46.26 3.22 45.26 5.51"/>
    <path stroke="currentColor" d="M51.85 0L51.85 100M.81 50L100.86 50"/>
    <path fill="currentColor" fill-rule="nonzero" stroke="currentColor" stroke-linecap="round" stroke-linejoin="round" stroke-width="2" d="M21.9,63.37 L78.86,6.11"/>
    <circle cx="69.87" cy="15.14" r="3.89" fill="currentColor" fill-rule="nonzero"/>
    <circle cx="35.24" cy="49.92" r="3.89" fill="currentColor" fill-rule="nonzero"/>
    <path fill="currentColor" fill-rule="nonzero" d="M28.35,94 C28.34454,94.9145215 27.6045215,95.65454 26.69,95.66 L8.46,95.66 C7.54938601,95.6491096 6.81538805,94.9106632 6.81,94 L6.81,74.06 C6.8154596,73.1510012 7.55100121,72.4154596 8.46,72.41 L26.69,72.41 C27.6006632,72.415388 28.3391096,73.149386 28.35,74.06 L28.35,94 Z M26.69,74.89 C26.69,74.4316037 26.3183963,74.06 25.86,74.06 L9.29,74.06 C8.83385858,74.0653987 8.46539869,74.4338586 8.46,74.89 L8.46,78.21 C8.46547614,78.6644863 8.83548067,79.030033 9.29,79.03 L25.86,79.03 C26.3145193,79.030033 26.6845239,78.6644863 26.69,78.21 L26.69,74.89 Z M10.12,80.69 C9.20320732,80.69 8.46,81.4332073 8.46,82.35 C8.46,83.2667927 9.20320732,84.01 10.12,84.01 C11.0367927,84.01 11.78,83.2667927 11.78,82.35 C11.78,81.4332073 11.0367927,80.69 10.12,80.69 Z M10.12,85.69 C9.20320732,85.69 8.46,86.4332073 8.46,87.35 C8.46,88.2667927 9.20320732,89.01 10.12,89.01 C11.0367927,89.01 11.78,88.2667927 11.78,87.35 C11.7880513,86.9045659 11.6167198,86.4745902 11.3045325,86.156761 C10.9923452,85.8389317 10.5655068,85.6599272 10.12,85.66 L10.12,85.69 Z M10.12,90.69 C9.20320732,90.69 8.46,91.4332073 8.46,92.35 C8.46,93.2667927 9.20320732,94.01 10.12,94.01 C11.0367927,94.01 11.78,93.2667927 11.78,92.35 C11.7962961,91.8994395 11.6286246,91.4616314 11.3155304,91.1372206 C11.0024363,90.8128099 10.570855,90.6297054 10.12,90.63 L10.12,90.69 Z M15.12,80.75 C14.2032073,80.75 13.46,81.4932073 13.46,82.41 C13.46,83.3267927 14.2032073,84.07 15.12,84.07 C16.0367927,84.07 16.78,83.3267927 16.78,82.41 C16.7965662,81.9541833 16.6248474,81.5116319 16.3051733,81.1862832 C15.9854993,80.8609344 15.5460376,80.681456 15.09,80.69 L15.12,80.75 Z M15.12,85.75 C14.2032073,85.75 13.46,86.4932073 13.46,87.41 C13.46,88.3267927 14.2032073,89.07 15.12,89.07 C16.0367927,89.07 16.78,88.3267927 16.78,87.41 C16.8051136,86.9491041 16.6371922,86.4985623 16.3165477,86.166534 C15.9959031,85.8345056 15.5514914,85.6509745 15.09,85.66 L15.12,85.75 Z M15.12,90.75 C14.2032073,90.75 13.46,91.4932073 13.46,92.41 C13.46,93.3267927 14.2032073,94.07 15.12,94.07 C16.0367927,94.07 16.78,93.3267927 16.78,92.41 C16.81387,91.94408 16.6498545,91.4854537 16.3282056,91.1466756 C16.0065567,90.8078975 15.5570493,90.6203281 15.09,90.63 L15.12,90.75 Z M20.12,80.81 C19.2032073,80.81 18.46,81.5532073 18.46,82.47 C18.46,83.3867927 19.2032073,84.13 20.12,84.13 C21.0367927,84.13 21.78,83.3867927 21.78,82.47 C21.817808,81.9978979 21.6509246,81.5323121 21.3218187,81.1917257 C20.9927128,80.8511394 20.5331205,80.6683958 20.06,80.69 L20.12,80.81 Z M20.12,85.81 C19.2032073,85.81 18.46,86.5532073 18.46,87.47 C18.46,88.3867927 19.2032073,89.13 20.12,89.13 C21.0367927,89.13 21.78,88.3867927 21.78,87.47 C21.8270188,86.9929506 21.6642505,86.5190356 21.3340405,86.1715471 C21.0038305,85.8240587 20.5388256,85.637352 20.06,85.66 L20.12,85.81 Z M20.12,90.81 C19.4485927,90.81 18.8432964,91.214446 18.58636,91.8347455 C18.3294235,92.455045 18.4714461,93.1690406 18.9462027,93.6437973 C19.4209594,94.1185539 20.134955,94.2605765 20.7552545,94.00364 C21.375554,93.7467036 21.78,93.1414073 21.78,92.47 C21.8364628,91.9880683 21.6779328,91.5057141 21.3465784,91.1512419 C21.015224,90.7967698 20.54464,90.6061183 20.06,90.63 L20.12,90.81 Z M25.12,80.87 C24.2032073,80.87 23.46,81.6132073 23.46,82.53 C23.46,83.4467927 24.2032073,84.19 25.12,84.19 C26.0367927,84.19 26.78,83.4467927 26.78,82.53 C26.8390136,82.036962 26.6728472,81.5435638 26.3275953,81.1866741 C25.9823434,80.8297845 25.4947229,80.6473581 25,80.69 L25.12,80.87 Z M26.78,87.5 C26.8283848,86.878015 26.5239504,86.2814193 25.9919205,85.9556117 C25.4598906,85.6298042 24.7901094,85.6298042 24.2580795,85.9556117 C23.7260496,86.2814193 23.4216152,86.878015 23.47,87.5 L23.47,92.5 C23.4216152,93.121985 23.7260496,93.7185807 24.2580795,94.0443883 C24.7901094,94.3701958 25.4598906,94.3701958 25.9919205,94.0443883 C26.5239504,93.7185807 26.8283848,93.121985 26.78,92.5 L26.78,87.5 Z"/>
  </g>
</svg>
