<svg xmlns="http://www.w3.org/2000/svg" width="100" height="100" viewBox="0 0 100 100">
  <g fill="none" fill-rule="evenodd" transform="translate(3 5)">
    <path fill="currentColor" fill-rule="nonzero" d="M80.34 77.25C80.2299512 77.3972794 80.05359 77.4798314 79.87 77.47 79.7097111 77.4730563 79.5548655 77.4118383 79.44 77.3 79.3323527 77.1987402 79.2709111 77.0577858 79.27 76.91 79.2911713 76.7232085 79.3417987 76.5409499 79.42 76.37 79.4154066 76.2980221 79.3786866 76.2319261 79.32 76.19 79.2557009 76.1444155 79.1788183 76.1199529 79.1 76.12 78.72 76.12 78.39 76.54 78.1 77.37 77.891037 78.166752 77.7274409 78.9747167 77.61 79.79L79.34 79.79 79.23 80.31 77.5 80.31 76.02 85.31C75.7879236 86.4539758 75.3617718 87.5497946 74.76 88.55 74.3637324 89.290487 73.5996221 89.7604148 72.76 89.78 72.4272998 89.7934195 72.100836 89.686964 71.84 89.48 71.6223953 89.3247518 71.4893528 89.0771448 71.48 88.81 71.4806735 88.653954 71.5334688 88.5026073 71.63 88.38 71.7357449 88.2405342 71.905619 88.1650346 72.08 88.18 72.2437248 88.1742205 72.4026928 88.2356399 72.52 88.35 72.6374939 88.4618537 72.7027743 88.6178014 72.7 88.78 72.7017051 88.8792035 72.6738571 88.9766714 72.62 89.06 72.5814867 89.1212948 72.5543833 89.1890532 72.54 89.26 72.54 89.26 72.54 89.34 72.63 89.37 72.7050964 89.3919445 72.7849036 89.3919445 72.86 89.37 73.3 89.37 73.67 89.03 73.97 88.37 74.1680737 87.8891405 74.3187868 87.3901126 74.42 86.88L76.25 80.25 74.8 80.25 74.91 79.73 76.41 79.73C76.6067556 78.7978233 76.9439328 77.9009317 77.41 77.07 77.7515502 76.2985991 78.497543 75.7845211 79.34 75.74 79.6571631 75.7286876 79.9672193 75.8356035 80.21 76.04 80.4281443 76.2026161 80.5576483 76.4579239 80.56 76.73 80.5641879 76.9267775 80.4841418 77.1159774 80.34 77.25zM84 76.18C83.5725345 76.6247429 83.1812895 77.1029313 82.83 77.61 82.2826065 78.4498253 81.8551471 79.3619633 81.56 80.32 81.2909445 81.1767166 81.0870304 82.0525448 80.95 82.94 80.8441556 83.6220803 80.7807005 84.3100666 80.76 85 80.746333 85.7126819 80.7931677 86.4252382 80.9 87.13 81.0491656 87.8674773 81.2530632 88.5928178 81.51 89.3L81.24 89.4C80.6964363 88.5228177 80.2790105 87.5735107 80 86.58 79.7548086 85.6464239 79.6304593 84.6852373 79.63 83.72 79.608217 82.5752005 79.8226807 81.4382023 80.26 80.38 81.0999928 78.6808444 82.3013876 77.185927 83.78 76L84 76.18zM82.44 85.58C82.5460186 85.4977741 82.6758494 85.4521579 82.81 85.45 82.8729028 85.4395559 82.9370972 85.4395559 83 85.45L83.2 85.54 83.47 85.68 83.58 85.73 83.69 85.73C83.7994906 85.7392881 83.9079804 85.7031248 83.99 85.63 84.05 85.57 84.23 85.34 84.52 84.96 84.81 84.58 85.15 84.09 85.82 83.11 85.82 83.11 85.76 82.8 85.64 82.28 85.52 81.76 85.42 81.28 85.32 80.96 85.2638132 80.7100629 85.1764632 80.4681706 85.06 80.24 84.9542112 80.1081059 84.787899 80.0400691 84.62 80.06 84.4779653 80.0745756 84.3374474 80.1013409 84.2 80.14L83.76 80.25 83.7 80.01 84.55 79.72C84.77 79.64 84.98 79.58 85.17 79.53 85.3263748 79.4863615 85.4876753 79.4628386 85.65 79.46 85.8332125 79.4489302 86.0121428 79.5183113 86.14 79.65 86.3598826 80.0246233 86.502679 80.4394128 86.56 80.87L86.72 81.76C87.0420573 81.2337454 87.4030664 80.7323437 87.8 80.26 87.9880445 80.0302702 88.2107114 79.8312195 88.46 79.67 88.6307877 79.5517018 88.8323209 79.4856823 89.04 79.48 89.1867359 79.471448 89.333553 79.4953485 89.47 79.55 89.6656962 79.6510043 89.7804501 79.860727 89.76 80.08 89.7660258 80.2293332 89.7161017 80.3755395 89.62 80.49 89.5191011 80.5897472 89.381826 80.6439347 89.24 80.64L89.07 80.64 88.91 80.58 88.71 80.49 88.55 80.43 88.43 80.43C88.2033333 80.43 87.87 80.73 87.43 81.33 87.1766671 81.6320353 86.9678821 81.9687852 86.81 82.33 86.8420768 82.5825043 86.8888225 82.8329278 86.95 83.08L87.26 84.43C87.3299254 84.745479 87.4201124 85.0561229 87.53 85.36 87.65 85.64 87.78 85.78 87.93 85.78 88.0958524 85.7649427 88.2479859 85.6816315 88.35 85.55 88.5813939 85.2817121 88.7983665 85.0013167 89 84.71L89.22 84.84C89.0236258 85.1953251 88.7924945 85.5302979 88.53 85.84 88.2431186 86.2833275 87.7742087 86.5763962 87.25 86.64 86.9930981 86.6418 86.7571136 86.4986618 86.64 86.27 86.5220754 86.0459796 86.4346339 85.8071973 86.38 85.56L85.9 83.65 84.32 85.73C84.1034195 85.9920934 83.8659773 86.2362241 83.61 86.46 83.4239889 86.584402 83.2036557 86.6473543 82.98 86.64 82.7159001 86.6724034 82.4562643 86.5522735 82.31 86.33 82.2382618 86.2166833 82.203332 86.0839499 82.21 85.95 82.2214248 85.7964356 82.30735 85.6582082 82.44 85.58zM88.93 89.14C89.3783571 88.6727234 89.789603 88.1712039 90.16 87.64 90.6855263 86.8226412 91.0897333 85.9333859 91.36 85 91.6261718 84.1771453 91.8267983 83.3345142 91.96 82.48 92.0877523 81.703069 92.1546224 80.9173459 92.16 80.13 92.169092 79.3207801 92.0919907 78.5128925 91.93 77.72 91.8183592 77.1261639 91.6336205 76.5484356 91.38 76L91.68 75.9C92.1846368 76.7362579 92.571611 77.638076 92.83 78.58 93.1103133 79.5555314 93.2550047 80.5650064 93.26 81.58 93.2752641 82.6232178 93.0990135 83.6603849 92.74 84.64 91.9422936 86.483032 90.7064801 88.1033208 89.14 89.36L88.93 89.14zM72.43 64.66L62 54.25 62.31 53.8C67.5103289 46.2038233 66.8281834 36.0336545 60.66 29.2 55.1558723 23.0649964 46.4356534 20.9649717 38.7420412 23.9216628 31.048429 26.8783539 25.9789155 34.2778373 26 42.52 25.9995322 43.228377 26.0395976 43.9362005 26.12 44.64 26.3746767 46.8686199 27.0106055 49.0368667 28 51.05 30.4953262 56.3140472 35.1750165 60.2178767 40.8011907 61.7288404 46.4273648 63.239804 52.433192 62.2056739 57.23 58.9L57.68 58.59 68.06 69C68.6292252 69.5861904 69.412924 69.9148383 70.23 69.91 71.471954 69.9117625 72.5934539 69.1674335 73.0742307 68.0223106 73.5550075 66.8771876 73.3009829 65.5553484 72.43 64.67L72.43 64.66zM35.24 51.05C33.7506003 49.1975229 32.771544 46.9877517 32.4 44.64 32.2741815 43.93998 32.2039622 43.2311001 32.19 42.52 32.1555583 36.0675678 36.6282031 30.4657297 42.9281489 29.0708278 49.2280946 27.6759258 55.6474261 30.8661179 58.34 36.73 59.1947713 38.5268113 59.642094 40.4902507 59.65 42.48 59.6774508 48.315612 56.0000024 53.5261355 50.4924078 55.4552602 44.9848132 57.3843849 38.859847 55.6073167 35.24 51.03L35.24 51.05zM5.06 71.79L7.77 75.88C8.47 76.94 9.06 77.88 9.69 78.98L9.81 78.98C10.44 77.84 11.07 76.86 11.69 75.83L14.37 71.83 18.1 71.83 11.62 81 18.29 90.82 14.37 90.82 11.58 86.54C10.83 85.44 10.2 84.37 9.58 83.24L9.49 83.24C8.87 84.37 8.2 85.39 7.49 86.54L4.7 90.8.89 90.8 7.65 81.09 1.21 71.79 5.06 71.79zM18.32 77.31L20.32 75.43C22.96 73.05 24.32 71.56 24.32 69.94 24.3447655 69.3090001 24.0921596 68.6987635 23.6286583 68.2698805 23.1651569 67.8409975 22.5371849 67.6364256 21.91 67.71 20.9399114 67.7682987 20.0097094 68.116689 19.24 68.71L18.57 67.28C19.6742119 66.4078911 21.0429711 65.9387031 22.45 65.95 25.45 65.95 26.67 67.82 26.67 69.54 26.67 71.92 24.86 73.67 22.45 75.79L21.45 76.68 21.45 76.75 26.88 76.75 26.88 78.49 18.32 78.49 18.32 77.31zM24.91 15.65L24.91 16.33C24.2037501 16.6358141 23.4749112 16.8865614 22.73 17.08 21.9 17.29 21.15 17.45 20.45 17.56L19.64 17.56 19.64 3.07 13.43 3.07 13.43 9.25C13.43 9.94 13.43 10.65 13.35 11.39 13.3002714 12.1139671 13.2134911 12.8349117 13.09 13.55 12.97 14.25 12.83 14.93 12.67 15.55 12.5285876 16.1314749 12.3481794 16.7027673 12.13 17.26 11.8685023 17.3865408 11.5803878 17.4482796 11.29 17.44 10.92 17.44 10.56 17.44 10.22 17.44 9.91529986 17.4322534 9.61137808 17.405535 9.31 17.36 9.05 17.31 8.92 17.28 8.92 17.26L8.75 17C9.30099823 16.1139193 9.74096531 15.1634561 10.06 14.17 10.4586439 12.9654057 10.7924557 11.7403162 11.06 10.5 11.33 9.2 11.53 7.9 11.67 6.59 11.8019137 5.41783519 11.8720108 4.23953709 11.88 3.06L11.33 3.06C10.7160746 3.06445181 10.1135486 3.22627307 9.58 3.53 8.9566881 3.90459359 8.41852216 4.40529227 8 5L7.57 4.74C7.67233012 4.21609064 7.81611567 3.70113773 8 3.2 8.16195404 2.75357729 8.4138182 2.34514893 8.74 2 9.1108614 1.6190018 9.5666097 1.33116077 10.07 1.16 10.7558343.93250169 11.4786705.837480974 12.2.88L13.52.88 15.76.95 18.5 1 21.3 1 23 1C23.3929214.997165376 23.7846837.956984632 24.17.88 24.4575316.838279525 24.7372588.754024352 25 .63 25.2381805.51374055 25.4573416.362013662 25.65.18L26.11.47C26.0266278 1.15139458 25.7289854 1.78869947 25.26 2.29 24.7028942 2.84342391 23.9331238 3.12798358 23.15 3.07L22.76 3.07 22.76 15.39 24.91 15.65z"/>
    <polygon stroke="currentColor" stroke-linejoin="round" points="93.63 14.08 66.25 14.08 66.25 .32"/>
  </g>
</svg>
