<svg xmlns="http://www.w3.org/2000/svg" width="100" height="100" viewBox="0 0 100 100">
  <g fill="currentColor" transform="translate(5 4)">
    <polygon points="33.15 49.63 28.15 49.63 28.15 48.19 33.15 48.19"/>
    <path d="M42.64,48.39 C42.9026934,48.6317932 43.1136124,48.9243583 43.26,49.25 C43.4450505,49.6715663 43.5305918,50.1300676 43.51,50.59 C43.5134409,51.1010155 43.4148482,51.6075777 43.22,52.08 C43.0243862,52.5215961 42.7421482,52.9194497 42.39,53.25 C41.9876233,53.6281484 41.5059104,53.9117099 40.98,54.08 C40.4078627,54.2614687 39.810155,54.3492676 39.21,54.34 C38.5563196,54.3436877 37.904697,54.2664335 37.27,54.11 C36.7335056,53.9835592 36.2083836,53.8129781 35.7,53.6 L35.7,51.93 L35.82,51.93 C36.3119276,52.251357 36.8473704,52.5005568 37.41,52.67 C37.9803247,52.8633615 38.5778122,52.9646305 39.18,52.97 C39.5429085,52.9641861 39.9031599,52.9069498 40.25,52.8 C40.5861908,52.7068506 40.897174,52.5393981 41.16,52.31 C41.3965373,52.0919142 41.5840137,51.8260384 41.71,51.53 C41.8407206,51.1923798 41.9019433,50.8318461 41.89,50.47 C41.90329,50.1051511 41.8313893,49.7422237 41.68,49.41 C41.5582113,49.1449579 41.3641079,48.9196593 41.12,48.76 C40.8616921,48.5850531 40.5681069,48.4689845 40.26,48.42 C39.896634,48.358182 39.5285819,48.3280687 39.16,48.33 L38.44,48.33 L38.44,47 L39,47 C39.6795633,47.0369644 40.3538665,46.8622745 40.93,46.5 C41.415004,46.1596397 41.6878033,45.5913078 41.65,45 C41.6559374,44.7386332 41.593914,44.4802025 41.47,44.25 C41.342885,44.0365672 41.1683878,43.855227 40.96,43.72 C40.7305281,43.5841788 40.4806533,43.4862549 40.22,43.43 C39.9298879,43.3753392 39.635213,43.3485505 39.34,43.35 C38.7927095,43.3574239 38.2497706,43.4484758 37.73,43.62 C37.161038,43.8028197 36.6194512,44.0618395 36.12,44.39 L36,44.39 L36,42.74 C36.4862061,42.5229718 36.9917718,42.3522178 37.51,42.23 C38.1209874,42.0739699 38.749413,41.9966769 39.38,42 C39.8945952,41.9912308 40.4083524,42.0449571 40.91,42.16 C41.335445,42.2529173 41.7393047,42.4260001 42.1,42.67 C42.4605964,42.9012383 42.7592516,43.2170576 42.97,43.59 C43.1733072,43.9781118 43.2731843,44.4120608 43.26,44.85 C43.2667102,45.4950147 43.0187738,46.1166523 42.57,46.58 C42.1309111,47.0550767 41.553791,47.3803625 40.92,47.51 L40.92,47.62 C41.2219303,47.6743451 41.5170159,47.7615295 41.8,47.88 C42.1051066,48.0047107 42.3885998,48.1768316 42.64,48.39 Z"/>
    <polygon points="48.65 54.1 46.75 54.1 46.75 51.83 48.65 51.83"/>
    <path d="M60,48.17 C60.1195084,49.7934237 59.7725503,51.4171872 59,52.85 C58.2405616,53.7889082 57.0975989,54.3344682 55.89,54.3344682 C54.6824011,54.3344682 53.5394384,53.7889082 52.78,52.85 C52.0237064,51.4220674 51.6775847,49.8126012 51.78,48.2 C51.665745,46.5801414 52.0124487,44.961035 52.78,43.53 C53.5241896,42.5667241 54.6727413,42.0026652 55.89,42.0026652 C57.1072587,42.0026652 58.2558104,42.5667241 59,43.53 C59.7549757,44.9548072 60.1010732,46.5606996 60,48.17 Z M57.91,51.78 C58.1079827,51.2944705 58.2326793,50.7822038 58.28,50.26 C58.3539893,49.5658739 58.3873795,48.8680193 58.38,48.17 C58.3867937,47.4653378 58.3534062,46.7608613 58.28,46.06 C58.235658,45.5394568 58.107331,45.0295261 57.9,44.55 C57.7399817,44.1768898 57.4761969,43.8575714 57.14,43.63 C56.7655457,43.4084312 56.3346685,43.3007119 55.9,43.32 C55.4654482,43.3018635 55.0348932,43.4095023 54.66,43.63 C54.3182876,43.8627763 54.0509422,44.189146 53.89,44.57 C53.68261,45.0559316 53.5575673,45.5730002 53.52,46.1 C53.4490842,46.7910153 53.4157018,47.4853686 53.42,48.18 C53.42,49.01 53.42,49.7 53.5,50.26 C53.5503993,50.7762844 53.6785118,51.2819914 53.88,51.76 C54.0249819,52.1414958 54.2832035,52.4695072 54.62,52.7 C55.0035103,52.9368336 55.4497876,53.0518895 55.9,53.03 C56.3345518,53.0481365 56.7651068,52.9404977 57.14,52.72 C57.4730852,52.4880062 57.7276948,52.1601528 57.87,51.78 L57.91,51.78 Z"/>
    <polygon points="70.37 44 65 54.1 63.3 54.1 69 43.64 62.26 43.64 62.26 42.24 70.37 42.24"/>
    <path d="M80.61,50.33 C80.611034,50.8741643 80.509249,51.413625 80.31,51.92 C80.1232589,52.3957239 79.8407492,52.8279979 79.48,53.19 C79.0913761,53.5680871 78.6281855,53.860987 78.12,54.05 C77.5291746,54.2568403 76.9058034,54.355089 76.28,54.34 C75.6510505,54.3454487 75.0235712,54.2783386 74.41,54.14 C73.8870398,54.0323598 73.3773653,53.8680569 72.89,53.65 L72.89,52 L73,52 C73.4805088,52.2956307 73.994012,52.533923 74.53,52.71 C75.0844231,52.8968838 75.6649503,52.9947634 76.25,53 C76.6222681,52.9973506 76.992403,52.9435128 77.35,52.84 C77.703342,52.7305931 78.0255592,52.5386339 78.29,52.28 C78.5238058,52.0481444 78.7046177,51.7683976 78.82,51.46 C78.9496958,51.0943283 79.0107199,50.7078426 79,50.32 C79.0055258,49.9751698 78.9337705,49.633478 78.79,49.32 C78.6552288,49.0462705 78.4519879,48.8120267 78.2,48.64 C77.9012602,48.4287925 77.5599595,48.2854462 77.2,48.22 C76.7662851,48.1271887 76.3234877,48.0835799 75.88,48.09 C75.428044,48.0870037 74.9765819,48.1204453 74.53,48.19 C74.1,48.25 73.72,48.32 73.41,48.38 L73.41,42.24 L80.54,42.24 L80.54,43.64 L74.94,43.64 L74.94,46.79 L75.64,46.79 L76.26,46.79 C76.8274894,46.7813708 77.3942128,46.8350251 77.95,46.95 C78.4260868,47.0572904 78.8774341,47.2541186 79.28,47.53 C79.7072048,47.8118278 80.0522175,48.2016923 80.28,48.66 C80.517253,49.1837888 80.630194,49.7553385 80.61,50.33 Z"/>
    <polygon points="21.88 90 19.7 92.43 11.14 82.82 2.57 92.43 .39 90 9 80.48 .39 71 2.57 68.58 11.14 78.19 19.7 68.58 21.88 71 13.24 80.53"/>
    <path d="M89.08 8.09L71.08 8.09 71.08 5.67 89.08 5.67 89.08 8.09zM89.08 14.45L71.08 14.45 71.08 12 89.08 12 89.08 14.45zM84.93 89.61L84.93 90.61C83.9568789 91.0191221 82.9539701 91.353425 81.93 91.61 80.8920743 91.8867444 79.8407084 92.1103682 78.78 92.28L77.63 92.28 77.63 72.18 69 72.18 69 80.74C69 81.74 69 82.74 68.89 83.74 68.78 84.74 68.69 85.74 68.53 86.74 68.37 87.74 68.17 88.64 67.94 89.53 67.7450429 90.3319569 67.4978488 91.1203058 67.2 91.89 66.8354696 92.0653053 66.4343427 92.1510162 66.03 92.14 65.52 92.14 65.03 92.14 64.55 92.14 64.1338848 92.1226016 63.7195194 92.0758184 63.31 92 62.95 91.94 62.77 91.9 62.77 91.86L62.55 91.5C63.3065698 90.2746068 63.9110232 88.9615997 64.35 87.59 64.9106412 85.9230412 65.3681726 84.2231621 65.72 82.5 66.1 80.69 66.38 78.89 66.58 77.07 66.7606194 75.4460652 66.8574144 73.8139 66.87 72.18L66.11 72.18C65.2530681 72.1837525 64.4119765 72.4112609 63.67 72.84 62.8067181 73.347991 62.0577237 74.028895 61.47 74.84L60.88 74.48C61.0229809 73.7594796 61.2202092 73.050795 61.47 72.36 61.6979587 71.7153103 62.0591289 71.1258532 62.53 70.63 63.0440772 70.1023105 63.6740783 69.7017119 64.37 69.46 65.321599 69.1530035 66.3216655 69.0241814 67.32 69.08 67.65 69.08 68.26 69.08 69.15 69.08L72.25 69.17 76.06 69.26C77.41 69.26 78.7 69.26 79.93 69.26L82.34 69.26C82.8948948 69.2780571 83.4503101 69.2479442 84 69.17 84.3840009 69.0984658 84.7571094 68.9774576 85.11 68.81 85.4369036 68.6413252 85.7396204 68.4294234 86.01 68.18L86.64 68.58C86.5296281 69.5235349 86.1195432 70.4067946 85.47 71.1 84.6946264 71.8654476 83.626673 72.259096 82.54 72.18L82 72.18 82 89.25 84.93 89.61zM8.91 22.39C9.05341809 22.7817074 9.17034825 23.1826108 9.26 23.59 9.32 23.91 9.39 24.31 9.45 24.8 9.56 24.33 9.66 23.9 9.75 23.48 9.84 23.06 9.95 22.69 10.05 22.33L17.05.42 24.45.42 24.45 2.07 18.18 2.07 9.45 28.81 8.6 28.81 3 14.27C2.25692559 14.134167 1.54719104 13.8557065.91 13.45L.91 12.63 5.47 12.63 8.91 22.39z"/>
    <path d="M18.73,25.6 L21.81,22.72 C25.81,19.07 27.94,16.77 27.94,14.28 C27.94,12.43 26.78,10.87 24.25,10.87 C22.7603008,10.953313 21.3293044,11.4790562 20.14,12.38 L19.14,10.19 C20.8386664,8.86699681 22.9370948,8.16164273 25.09,8.19 C29.68,8.19 31.58,11.06 31.58,13.69 C31.58,17.35 28.8,20.03 25.09,23.3 L23.58,24.67 L23.58,24.76 L31.9,24.76 L31.9,27.4 L18.73,27.4 L18.73,25.6 Z"/>
  </g>
</svg>
