<svg xmlns="http://www.w3.org/2000/svg" width="100" height="100" viewBox="0 0 100 100">
  <g fill="currentColor" transform="translate(3 5)">
    <polygon points="88.75 16.23 87.14 18 80.82 10.9 74.49 18 72.88 16.21 79.26 9.21 72.88 2.21 74.49 .42 80.82 7.52 87.14 .42 88.75 2.21 82.37 9.21"/>
    <rect width="45.47" height="1" x="48.65" y="86.61"/>
    <rect width="1" height="5.5" x="48.63" y="83.89"/>
    <rect width="1" height="5.5" x="71.19" y="83.89"/>
    <rect width="1" height="5.5" x="82.56" y="83.89"/>
    <rect width="1" height="5.5" x="59.83" y="83.89"/>
    <rect width="1" height="5.5" x="93.62" y="83.89"/>
    <path d="M27.11 90.89L.21 90.89.21 70.71 1.89 70.71 1.89 89.21 27.11 89.21 27.11 90.89zM8.61 87.52L5.25 87.52 5.25 80.8 8.61 80.8 8.61 87.52zM13.66 87.52L10.29 87.52 10.29 74.07 13.66 74.07 13.66 87.52zM18.66 87.52L15.34 87.52 15.34 77.44 18.7 77.44 18.66 87.52zM23.71 87.52L20.38 87.52 20.38 72.39 23.75 72.39 23.71 87.52zM71.43 66.66L61 56.25 61.31 55.8C66.5103289 48.2038233 65.8281834 38.0336545 59.66 31.2 54.1558723 25.0649964 45.4356534 22.9649717 37.7420412 25.9216628 30.048429 28.8783539 24.9789155 36.2778373 25 44.52 24.9995322 45.228377 25.0395976 45.9362005 25.12 46.64 25.3746767 48.8686199 26.0106055 51.0368667 27 53.05 29.4953262 58.3140472 34.1750165 62.2178767 39.8011907 63.7288404 45.4273648 65.239804 51.433192 64.2056739 56.23 60.9L56.68 60.59 67.06 71C67.6292252 71.5861904 68.412924 71.9148383 69.23 71.91 70.471954 71.9117625 71.5934539 71.1674335 72.0742307 70.0223106 72.5550075 68.8771876 72.3009829 67.5553484 71.43 66.67L71.43 66.66zM34.24 53.05C32.7506003 51.1975229 31.771544 48.9877517 31.4 46.64 31.2741815 45.93998 31.2039622 45.2311001 31.19 44.52 31.1555583 38.0675678 35.6282031 32.4657297 41.9281489 31.0708278 48.2280946 29.6759258 54.6474261 32.8661179 57.34 38.73 58.1947713 40.5268113 58.642094 42.4902507 58.65 44.48 58.6774508 50.315612 55.0000024 55.5261355 49.4924078 57.4552602 43.9848132 59.3843849 37.859847 57.6073167 34.24 53.03L34.24 53.05zM2.49 18.08C2.2946839 18.0811442 2.10586814 18.0098929 1.96 17.88 1.75833036 17.7184828 1.64973078 17.4675803 1.67 17.21L2.67 1.69C2.70206111 1.23520059 3.09496947.891405779 3.55.92 3.99928113.952048445 4.3386064 1.34048659 4.31 1.79L3.37 16.2 32.77 9.2C33.0634754 9.10456141 33.3856824 9.18197515 33.6037675 9.40032176 33.8218526 9.61866837 33.8988801 9.94096785 33.8030899 10.2343287 33.7072996 10.5276895 33.454915 10.742427 33.15 10.79L2.68 18.06 2.49 18.08z"/>
    <path d="M7.39,16.16 L6.84,16.16 C6.86485477,15.9340147 6.86485477,15.7059853 6.84,15.48 C6.73165176,14.5787388 6.26113593,13.7603992 5.53675047,13.2133373 C4.81236501,12.6662754 3.89651489,12.4376198 3,12.58 L2.74,12.63 L2.62,12.1 L3,12 C4.02508388,11.8606262 5.06354382,12.1342427 5.88686046,12.7606385 C6.71017711,13.3870343 7.25088568,14.3148809 7.39,15.34 C7.42288662,15.6123441 7.42288662,15.8876559 7.39,16.16 Z"/>
    <g transform="translate(5 1)" style="mix-blend-mode:multiply">
      <rect width="1" height="1.64" x=".994" y=".538" transform="rotate(-74.36 1.494 1.358)"/>
      <path d="M19.53,6.93 L16.63,6.12 L16.78,5.59 L19.68,6.41 L19.53,6.93 Z M13.73,5.31 L10.84,4.5 L11,4 L13.89,4.81 L13.73,5.31 Z M7.94,3.68 L5.05,2.87 L5.19,2.34 L8.09,3.16 L7.94,3.68 Z"/>
      <rect width="1" height="1.64" x="22.848" y="6.67" transform="rotate(-74.36 23.348 7.49)"/>
    </g>
  </g>
</svg>
