<svg xmlns="http://www.w3.org/2000/svg" width="100" height="100" viewBox="0 0 100 100">
  <g fill="none" fill-rule="evenodd" transform="translate(2 3)">
    <path fill="currentColor" fill-rule="nonzero" d="M94.6,78.75 L92.6,78.75 L92.6,87 L91.09,87 L91.09,78.75 L88.9,78.75 L88.9,82.32 L88.67,82.32 L88.67,78.75 L86.47,78.75 L86.47,83.75 L85.93,83.75 L85.93,78.75 L83.74,78.75 L83.74,82.32 L83.51,82.32 L83.51,78.75 L81.31,78.75 L81.31,85.34 L80.31,85.34 L80.31,78.75 L78.11,78.75 L78.11,82.32 L77.88,82.32 L77.88,78.75 L75.69,78.75 L75.69,83.75 L75.15,83.75 L75.15,78.75 L73,78.75 L73,82.32 L72.78,82.32 L72.78,78.75 L70.58,78.75 L70.58,87 L69,87 L69,78.75 L66.8,78.75 L66.8,82.32 L66.57,82.32 L66.57,78.75 L64.37,78.75 L64.37,83.75 L63.83,83.75 L63.83,78.75 L61.63,78.75 L61.63,82.32 L61.41,82.32 L61.41,78.75 L59.21,78.75 L59.21,85.34 L58.21,85.34 L58.21,78.75 L56,78.75 L56,82.32 L55.77,82.32 L55.77,78.75 L53.57,78.75 L53.57,83.75 L53,83.75 L53,78.75 L50.85,78.75 L50.85,82.32 L50.62,82.32 L50.62,78.75 L48.43,78.75 L48.43,87 L46.88,87 L46.88,78.75 L44.69,78.75 L44.69,82.32 L44.46,82.32 L44.46,78.75 L42.26,78.75 L42.26,83.75 L41.72,83.75 L41.72,78.75 L39.53,78.75 L39.53,82.32 L39.3,82.32 L39.3,78.75 L33.9,78.75 L33.9,82.32 L33.68,82.32 L33.68,78.75 L31.48,78.75 L31.48,83.75 L30.94,83.75 L30.94,78.75 L28.75,78.75 L28.75,82.32 L28.52,82.32 L28.52,78.75 L26.32,78.75 L26.32,87 L24.78,87 L24.78,78.75 L22.58,78.75 L22.58,82.32 L22.36,82.32 L22.36,78.75 L20.16,78.75 L20.16,83.75 L19.62,83.75 L19.62,78.75 L17.43,78.75 L17.43,82.32 L17.2,82.32 L17.2,78.75 L15,78.75 L15,85.34 L14,85.34 L14,78.75 L11.8,78.75 L11.8,82.32 L11.57,82.32 L11.57,78.75 L9.38,78.75 L9.38,83.75 L8.84,83.75 L8.84,78.75 L6.64,78.75 L6.64,82.32 L6.41,82.32 L6.41,78.75 L4.22,78.75 L4.22,86.92 L2.68,86.92 L2.68,78.75 L0.68,78.75 L0.68,93.3 L94.6,93.3 L94.6,78.75 Z M36.1,85.34 L36.1,78.84 L37.1,78.84 L37.1,85.34 L36.1,85.34 Z"/>
    <polyline stroke="currentColor" stroke-linecap="round" stroke-linejoin="round" stroke-width="1.5" points="42.47 13.44 12.6 .08 4.38 65.48"/>
    <path stroke="currentColor" stroke-linejoin="round" stroke-width=".5" d="M22.07,4.15 C22.07,4.35 22.01,4.56 21.97,4.76 C21.0364086,8.86883557 16.948951,11.4430832 12.84,10.51 C12.3363474,10.3932111 11.846826,10.2222139 11.38,10"/>
    <g stroke="currentColor" stroke-linejoin="round" stroke-width=".5" transform="translate(9 17)" style="mix-blend-mode:multiply">
      <path d="M30.64,0.3 L29.76,1.51"/>
      <path stroke-dasharray="2.836 2.836" d="M28.08,3.8 L2.12,39.28"/>
      <path d="M1.28,40.42 L0.39,41.63"/>
    </g>
    <path fill="currentColor" fill-rule="nonzero" d="M95.15,69.34 L43.2,69.34 L43.2,30.34 L46.45,30.34 L46.45,66.1 L95.15,66.1 L95.15,69.34 Z M59.44,62.85 L52.94,62.85 L52.94,49.85 L59.44,49.85 L59.44,62.85 Z M69.18,62.85 L62.68,62.85 L62.68,36.85 L69.18,36.85 L69.18,62.85 Z M78.92,62.85 L72.42,62.85 L72.42,43.37 L78.92,43.37 L78.92,62.85 Z M88.66,62.85 L82.17,62.85 L82.17,33.63 L88.66,33.63 L88.66,62.85 Z"/>
  </g>
</svg>
