<svg xmlns="http://www.w3.org/2000/svg" width="100" height="100" viewBox="0 0 100 100">
  <g fill="none" fill-rule="evenodd" transform="translate(2 5)">
    <polygon fill="currentColor" fill-rule="nonzero" points="56 27.1 49.7 27.1 49.7 33.4 47.78 33.4 47.78 27.1 41.48 27.1 41.48 25.25 47.78 25.25 47.78 18.94 49.7 18.94 49.7 25.25 56 25.25"/>
    <path fill="currentColor" fill-rule="nonzero" d="M27.06 18.58L17.74 18.58 17.74 16.82 21.32 16.82 21.32 5.28 17.74 5.28 17.74 3.71C18.2624003 3.70320224 18.7836801 3.65976226 19.3 3.58 19.7359876 3.53132641 20.1613709 3.41316439 20.56 3.23 20.8912916 3.05287021 21.1784045 2.80335542 21.4 2.5 21.6206139 2.13793716 21.7413767 1.72389342 21.75 1.3L23.54 1.3 23.54 16.82 27.06 16.82 27.06 18.58zM28.23 45.84L16.57 45.84 16.57 43.42 19 41.34C19.82 40.64 20.57 39.95 21.28 39.27 22.3911338 38.2324949 23.3961002 37.0868332 24.28 35.85 24.8175302 35.0375028 25.1028226 34.0842086 25.1 33.11 25.1380876 32.3110852 24.8105537 31.5382526 24.21 31.01 23.5047749 30.4680249 22.6279181 30.1982228 21.74 30.25 20.9695489 30.2643225 20.2051207 30.3889209 19.47 30.62 18.6199603 30.8841965 17.8118551 31.2680465 17.07 31.76L17 31.76 17 29.33C17.704534 29.0047999 18.4421499 28.7566927 19.2 28.59 20.0659146 28.3677259 20.9560194 28.2535237 21.85 28.25 23.3418644 28.1668827 24.8141432 28.6209831 26 29.53 27.0064089 30.3948961 27.559484 31.6743432 27.5 33 27.5060144 33.6189061 27.4217959 34.2353849 27.25 34.83 27.0874935 35.399766 26.8414907 35.94232 26.52 36.44 26.2016708 36.9384823 25.8473971 37.4130754 25.46 37.86 25.05 38.32 24.56 38.86 23.98 39.39 23.16 40.2 22.31 40.99 21.43 41.75L19 43.86 28.27 43.86 28.23 45.84z"/>
    <path stroke="currentColor" stroke-width=".75" d="M13.79,23.75 L31,23.75"/>
    <path fill="currentColor" fill-rule="nonzero" d="M79.49 10.29C79.8733125 10.6421197 80.1826622 11.0670507 80.4 11.54 80.661721 12.1521682 80.7846629 12.8146884 80.76 13.48 80.7713026 14.2223318 80.6247323 14.9585918 80.33 15.64 80.0560915 16.2917191 79.6470958 16.8779464 79.13 17.36 78.5585324 17.8983557 77.8757743 18.3045968 77.13 18.55 76.2999152 18.8175078 75.432076 18.9492033 74.56 18.94 73.6063471 18.9422272 72.6559871 18.8280497 71.73 18.6 70.9497014 18.4165458 70.1868293 18.165601 69.45 17.85L69.45 15.44 69.63 15.44C70.3463151 15.9026801 71.1238555 16.2628395 71.94 16.51 72.768438 16.7887347 73.635949 16.9338825 74.51 16.94 75.0152435 16.927845 75.5164937 16.8471067 76 16.7 76.4997099 16.5785333 76.9627846 16.3384205 77.35 16 77.6872723 15.6847224 77.9561658 15.3035063 78.14 14.88 78.3312241 14.386405 78.4196962 13.8589752 78.4 13.33 78.4159686 12.801725 78.3170218 12.2762833 78.11 11.79 77.9265801 11.4056754 77.643402 11.0776032 77.29 10.84 76.9020093 10.5785827 76.4618605 10.4045704 76 10.33 75.4716441 10.2387746 74.9361526 10.1952659 74.4 10.2L73.4 10.2 73.4 8.27 74.21 8.27C75.1928417 8.31840378 76.1668133 8.06356534 77 7.54 77.681036 7.04311204 78.0587701 6.2309838 78 5.39 78.0081488 5.00916365 77.9149705 4.63299944 77.73 4.3 77.5509889 3.98594988 77.2966921 3.72134371 76.99 3.53 76.6856567 3.3381452 76.3508749 3.19949818 76 3.12 75.5721848 3.03376258 75.1363724 2.99353375 74.7 3 73.9047472 3.01071051 73.1157398 3.14221174 72.36 3.39 71.5272625 3.65286899 70.7335258 4.02619432 70 4.5L69.88 4.5 69.88 2.09C70.5828147 1.76672357 71.316557 1.51544197 72.07 1.34 72.9490209 1.1151497 73.8526772 1.00093292 74.76 1 75.5132511.985058834 76.2655023 1.06229891 77 1.23 77.6114514 1.38236752 78.1906198 1.64316265 78.71 2 79.2394831 2.32608105 79.682103 2.77556318 80 3.31 80.289702 3.87927406 80.4339926 4.51140435 80.42 5.15 80.4338252 6.08637851 80.0739493 6.98966711 79.42 7.66 78.7788149 8.35578449 77.9299927 8.82579346 77 9L77 9.17C77.4388352 9.25133242 77.867873 9.37870303 78.28 9.55 78.7218512 9.72731802 79.1308521 9.97745082 79.49 10.29zM81.6 42.4L79 42.4 79 47.25 76.82 47.25 76.82 42.4 68.57 42.4 68.57 39.74 76.92 30 79 30 79 40.55 81.6 40.55 81.6 42.4zM76.82 40.55L76.82 32.78 70.15 40.55 76.82 40.55z"/>
    <path stroke="currentColor" stroke-width=".75" d="M66.48,23.75 L83.69,23.75"/>
    <path fill="currentColor" fill-rule="nonzero" d="M9.89 83.19C10.0199539 84.9591265 9.64178128 86.7285581 8.8 88.29 8.04024447 89.392106 6.75546207 90.0116904 5.42 89.92 4.06601532 90.0261777 2.75957264 89.3958764 2 88.27 1.20558327 86.7045262.859498397 84.9498759 1 83.2.84768952 81.4430348 1.19430689 79.6787524 2 78.11 2.75464509 77.0009162 4.04179535 76.3763818 5.38 76.47 6.73227777 76.3691232 8.03322455 77.0081176 8.78 78.14 9.60830633 79.6888781 9.99244602 81.4365407 9.89 83.19zM7.61 87.12C7.82039837 86.5921603 7.95181183 86.0361803 8 85.47 8.0781135 84.7125668 8.11483476 83.9514351 8.11 83.19 8.11398899 82.4219285 8.07727083 81.6541852 8 80.89 7.94846881 80.3211932 7.80669382 79.76422 7.58 79.24 7.40823146 78.8319706 7.11940706 78.4839894 6.75 78.24 6.34324486 77.9963312 5.87364856 77.8780625 5.4 77.9 4.92664948 77.8809816 4.4578753 77.9990433 4.05 78.24 3.67808766 78.4838522 3.38599708 78.831579 3.21 79.24 2.98210661 79.7737195 2.84358954 80.3413016 2.8 80.92 2.72521638 81.6709942 2.68850272 82.425293 2.69 83.18 2.69 84.08 2.69 84.84 2.79 85.45 2.84091558 86.0113748 2.97925135 86.5613439 3.2 87.08 3.36837571 87.4841966 3.64957849 87.8313605 4.01 88.08 4.42599295 88.3384442 4.91085113 88.464019 5.4 88.44 5.87299865 88.4556807 6.34085369 88.3378506 6.75 88.1 7.12789577 87.8663038 7.42736536 87.5250478 7.61 87.12zM96.53 89.65L89.53 89.65 89.53 88.33 92.22 88.33 92.22 79.67 89.54 79.67 89.54 78.49C89.9316335 78.4876079 90.3226081 78.4575329 90.71 78.4 91.0569885 78.3716151 91.3958786 78.2801148 91.71 78.13 91.9609183 77.999622 92.1769479 77.8110247 92.34 77.58 92.5055693 77.3123101 92.5954264 77.0047223 92.6 76.69L93.9 76.69 93.9 88.33 96.53 88.33 96.53 89.65z"/>
    <rect width="88.84" height="1.48" x="4.51" y="67.08" fill="currentColor" fill-rule="nonzero"/>
    <rect width="1" height="10.75" x="4.47" y="61.76" fill="currentColor" fill-rule="nonzero"/>
    <rect width="1" height="10.75" x="48.55" y="61.76" fill="currentColor" fill-rule="nonzero"/>
    <rect width="1" height="10.75" x="70.76" y="61.76" fill="currentColor" fill-rule="nonzero"/>
    <rect width="1" height="10.75" x="26.34" y="61.76" fill="currentColor" fill-rule="nonzero"/>
    <rect width="1" height="10.75" x="92.36" y="61.76" fill="currentColor" fill-rule="nonzero"/>
  </g>
</svg>
