<svg xmlns="http://www.w3.org/2000/svg" width="100" height="100" viewBox="0 0 100 100">
  <g fill="currentColor" transform="translate(7 7)">
    <path d="M24.7,76.48 C25.1619115,76.9081596 25.5326479,77.4251498 25.79,78 C26.0970985,78.7300638 26.2404617,79.5185616 26.21,80.31 C26.2199226,81.1927514 26.0462493,82.0679286 25.7,82.88 C25.3680302,83.6390997 24.8809309,84.3203575 24.27,84.88 C23.5774459,85.5305229 22.7467181,86.0159688 21.84,86.3 C20.8514648,86.6172792 19.8181275,86.7726175 18.78,86.76 C17.647947,86.7630039 16.5197085,86.6286898 15.42,86.36 C14.4918558,86.1450196 13.584883,85.8471576 12.71,85.47 L12.71,82.6 L12.92,82.6 C13.7737756,83.1504954 14.6990798,83.5811824 15.67,83.88 C16.6572606,84.2081409 17.6896807,84.3802109 18.73,84.39 C19.3544129,84.3862399 19.9747001,84.2884772 20.57,84.1 C21.1569623,83.9468403 21.698728,83.6553841 22.15,83.25 C22.5728808,82.8816684 22.9135851,82.4285316 23.15,81.92 C23.3717493,81.3291163 23.4770191,80.7008935 23.46,80.07 C23.4796392,79.4448931 23.3600897,78.823236 23.11,78.25 C22.882482,77.78883 22.5375975,77.3956617 22.11,77.11 C21.6562675,76.8134958 21.1451762,76.6158739 20.61,76.53 C19.9828803,76.4187668 19.3468901,76.3652097 18.71,76.37 L17.45,76.37 L17.45,74.08 L18.45,74.08 C19.6263556,74.140823 20.7928046,73.8369875 21.79,73.21 C22.6061516,72.6255896 23.0634777,71.6618031 23,70.66 C23.0126427,70.2069603 22.905722,69.7585835 22.69,69.36 C22.4751395,68.986863 22.173224,68.6712241 21.81,68.44 C21.4119086,68.220596 20.9788532,68.0717332 20.53,68 C20.0275035,67.886424 19.5150134,67.8227815 19,67.81 C18.0547752,67.8238472 17.1172439,67.9823507 16.22,68.28 C15.2372426,68.5905782 14.301826,69.0347329 13.44,69.6 L13.31,69.6 L13.31,66.72 C14.1455726,66.3392635 15.016386,66.0411774 15.91,65.83 C16.9431236,65.5685311 18.0043112,65.4342036 19.07,65.43 C19.9574588,65.4180911 20.8433249,65.508691 21.71,65.7 C22.4444206,65.8753156 23.1441624,66.1727904 23.78,66.58 C24.4027198,66.9833611 24.9176112,67.5325785 25.28,68.18 C25.6329997,68.8549265 25.8085032,69.6085591 25.79,70.37 C25.8067669,71.4920761 25.3705722,72.5735507 24.58,73.37 C23.8313198,74.2022152 22.8362339,74.7733385 21.74,75 L21.74,75.19 C22.2621804,75.2912062 22.7718321,75.4487959 23.26,75.66 C23.7822683,75.8513359 24.2689508,76.1284746 24.7,76.48 Z"/>
    <polygon points="78.58 83.88 77 85.67 70.68 78.57 64.35 85.67 62.74 83.88 69.13 76.88 62.74 69.88 64.32 68 70.65 75.11 77 68 78.61 69.8 72.23 76.8"/>
    <path d="M28.5 16.82L.82 16.82.82 13.29 28.5 13.29 28.5 16.82zM17.28 6.9L12 6.9 12 .84 17.24.84 17.28 6.9zM17.28 29.27L12 29.27 12 23.21 17.24 23.21 17.28 29.27zM84.4 18.44L57.4 18.44 57.4 14.81 84.4 14.81 84.4 18.44zM84.4 28L57.4 28 57.4 24.36 84.4 24.36 84.4 28zM7.24 53.55L6 53.55C5.36705553 52.8374635 4.85983161 52.0225237 4.5 51.14 3.77994631 49.2426867 3.77994631 47.1473133 4.5 45.25 4.8596948 44.3643854 5.36687576 43.5461335 6 42.83L7.25 42.83 7.25 42.89C6.94267619 43.170555 6.66151712 43.4784911 6.41 43.81 6.12034246 44.1802421 5.86905205 44.5789562 5.66 45 5.42963494 45.4689433 5.25188593 45.9619452 5.13 46.47 4.98830519 47.0254898 4.91774051 47.5967276 4.92 48.17 4.91604965 48.7460581 4.98322427 49.3204011 5.12 49.88 5.24896884 50.3872664 5.42992677 50.879874 5.66 51.35 5.86413305 51.7778526 6.11212876 52.1833591 6.4 52.56 6.65210048 52.8910226 6.93321346 53.1989082 7.24 53.48L7.24 53.55zM14.35 48.73C14.350839 49.1034659 14.279533 49.4735782 14.14 49.82 13.8763471 50.4995951 13.3281396 51.029529 12.64 51.27 12.236614 51.4173684 11.8093765 51.4885746 11.38 51.48 10.9495466 51.4793835 10.5204094 51.4324466 10.1 51.34 9.75615877 51.260311 9.42115604 51.1464101 9.1 51L9.1 49.86 9.18 49.86C9.49659515 50.0527581 9.83157724 50.2135495 10.18 50.34 10.560503 50.4677696 10.958646 50.5352514 11.36 50.54 11.6139591 50.5391885 11.8665036 50.5021487 12.11 50.43 12.3522083 50.353199 12.5742568 50.223386 12.76 50.05 12.9206258 49.8889206 13.0435714 49.6942566 13.12 49.48 13.2041922 49.2391025 13.2448262 48.9851404 13.24 48.73 13.2491127 48.4792125 13.2012462 48.2296228 13.1 48 13.0084847 47.8147922 12.8707059 47.6563465 12.7 47.54 12.493553 47.392772 12.2584748 47.2905641 12.01 47.24 11.7097064 47.1858963 11.4051273 47.1591201 11.1 47.16 10.791906 47.1572861 10.4841367 47.1807033 10.18 47.23 9.88 47.23 9.63 47.31 9.41 47.36L9.41 43.2 14.29 43.2 14.29 44.15 10.46 44.15 10.46 46.31C10.6198459 46.300068 10.7801541 46.300068 10.94 46.31L11.37 46.31C11.7563196 46.3014714 12.1423022 46.3383915 12.52 46.42 12.8459781 46.4890521 13.1551843 46.621569 13.43 46.81 13.7169175 47.0064133 13.9505749 47.270996 14.11 47.58 14.2747068 47.9406561 14.3567063 48.3335707 14.35 48.73z"/>
    <polygon points="22.68 50.13 22.08 50.74 19.7 48.34 17.33 50.74 16.72 50.13 19.12 47.76 16.72 45.38 17.33 44.78 19.7 47.17 22.08 44.78 22.68 45.38 20.28 47.76"/>
    <path d="M29.92 47.4C30.1015062 47.5657892 30.2477493 47.7664483 30.35 47.99 30.4722743 48.2808412 30.5302641 48.5946681 30.52 48.91 30.519737 49.2532416 30.4517732 49.5930605 30.32 49.91 30.1813123 50.2097404 29.9880171 50.4810319 29.75 50.71 29.463844 50.9728812 29.1220043 51.1677299 28.75 51.28 28.3586843 51.4034409 27.9503024 51.4641919 27.54 51.46 27.0920841 51.4564794 26.6459711 51.4028117 26.21 51.3 25.8595642 51.2262306 25.5152399 51.1259419 25.18 51L25.18 49.83 25.26 49.83C25.5987516 50.0457412 25.965506 50.2139771 26.35 50.33 26.7390987 50.4658403 27.1478834 50.5367864 27.56 50.54 27.8079777 50.5368742 28.0540707 50.4964206 28.29 50.42 28.5209545 50.3580576 28.733609 50.2414406 28.91 50.08 29.0688291 49.9326284 29.197838 49.7560899 29.29 49.56 29.3762851 49.323102 29.4170002 49.0720254 29.41 48.82 29.4169342 48.5726179 29.3691283 48.3267589 29.27 48.1 29.1857489 47.9187843 29.0545453 47.7634117 28.89 47.65 28.7076112 47.5335481 28.5034956 47.4553038 28.29 47.42 28.0421838 47.3785248 27.7912582 47.3584507 27.54 47.36L27.05 47.36 27.05 46.46 27.43 46.46C27.8954947 46.4815864 28.3563548 46.3593886 28.75 46.11 29.0745948 45.8832491 29.259711 45.5054608 29.24 45.11 29.2441292 44.9293575 29.2028696 44.7505659 29.12 44.59 29.0329379 44.4443984 28.9130919 44.3211282 28.77 44.23 28.6158746 44.1376093 28.4465874 44.0732802 28.27 44.04 28.0727792 43.998226 27.8715875 43.9781069 27.67 43.98 27.2921698 43.9830032 26.9173187 44.0471669 26.56 44.17 26.1711153 44.2917961 25.8009422 44.466787 25.46 44.69L25.41 44.69 25.41 43.54C25.7308317 43.3902876 26.0658321 43.2730375 26.41 43.19 26.8266353 43.0714892 27.2569045 43.0076212 27.69 43 28.0430451 42.9965996 28.3953249 43.0335051 28.74 43.11 29.0313843 43.1787725 29.3087638 43.2971662 29.56 43.46 29.8078821 43.6153916 30.0111792 43.8324716 30.15 44.09 30.2874615 44.3590441 30.3561724 44.6579366 30.35 44.96 30.3551188 45.3989239 30.1819034 45.8211364 29.87 46.13 29.5748107 46.457736 29.1822225 46.6820721 28.75 46.77L28.75 46.84C28.9567228 46.8797273 29.1580905 46.9434937 29.35 47.03 29.5574891 47.1240339 29.7496417 47.2487645 29.92 47.4zM37.72 47.25C37.7925584 48.3668874 37.5426413 49.4811013 37 50.46 36.4860021 51.1094476 35.7032366 51.4881929 34.875 51.4881929 34.0467634 51.4881929 33.2639979 51.1094476 32.75 50.46 32.2309373 49.4842568 31.9953829 48.3826936 32.07 47.28 31.9904765 46.1725806 32.2299255 45.0655628 32.76 44.09 33.2672738 43.4299024 34.0525004 43.0430263 34.885 43.0430263 35.7174996 43.0430263 36.5027262 43.4299024 37.01 44.09 37.5318601 45.058335 37.7774758 46.1514978 37.72 47.25zM36.28 49.72C36.4174047 49.4019616 36.5050957 49.0646884 36.54 48.72 36.5923174 48.2418482 36.6156933 47.7609718 36.61 47.28 36.6151669 46.799038 36.5917925 46.3181931 36.54 45.84 36.5075554 45.4948745 36.4197657 45.157222 36.28 44.84 36.1716108 44.5839059 35.9909031 44.3649716 35.76 44.21 35.5056944 44.0517878 35.2091293 43.9750298 34.91 43.99 34.6111301 43.9775223 34.315288 44.0540932 34.06 44.21 33.8234694 44.3657131 33.6388983 44.5885914 33.53 44.85 33.3907945 45.184295 33.3063786 45.5388414 33.28 45.9 33.2297242 46.3716203 33.206353 46.8457215 33.21 47.32 33.205772 47.7940468 33.2257982 48.2679995 33.27 48.74 33.3061266 49.0844679 33.3937702 49.421559 33.53 49.74 33.633871 50.0012512 33.8109627 50.2269563 34.04 50.39 34.3030764 50.5448225 34.6049513 50.6211587 34.91 50.61 35.2075145 50.6220193 35.5023129 50.5491868 35.76 50.4 36.0040595 50.2373919 36.1870182 49.9981382 36.28 49.72zM42.53 48.19C42.5514509 49.2150552 42.3713765 50.2343443 42 51.19 41.6356375 52.0702035 41.1288621 52.8844228 40.5 53.6L39.25 53.6C39.5567865 53.3189082 39.8378995 53.0110226 40.09 52.68 40.3846331 52.3061023 40.6362187 51.9002109 40.84 51.47 41.0625019 50.9977577 41.2399548 50.505577 41.37 50 41.511271 49.4412193 41.5785131 48.8662993 41.57 48.29 41.5755283 47.7171538 41.5083246 47.1459223 41.37 46.59 41.2569096 46.040885 41.0789967 45.5071462 40.84 45 40.631769 44.5722274 40.3804698 44.1667981 40.09 43.79 39.8441455 43.4538165 39.5624929 43.1453398 39.25 42.87L39.25 42.81 40.5 42.81C41.1309218 43.5352058 41.6377414 44.3596324 42 45.25 42.3639538 46.1868358 42.5439035 47.1850471 42.53 48.19z"/>
    <polygon points="51.5 48.19 48.5 48.19 48.5 51.19 47.59 51.19 47.59 48.19 44.59 48.19 44.59 47.32 47.59 47.32 47.59 44.32 48.5 44.32 48.5 47.32 51.5 47.32"/>
    <path d="M56.91 53.55L55.67 53.55C55.0341861 52.8396109 54.5266379 52.0241501 54.17 51.14 53.4499463 49.2426867 53.4499463 47.1473133 54.17 45.25 54.5265181 44.3627742 55.0340195 43.5440053 55.67 42.83L56.91 42.83 56.91 42.89C56.6026762 43.170555 56.3215171 43.4784911 56.07 43.81 55.7872121 44.1830309 55.5394927 44.5813905 55.33 45 55.0996349 45.4689433 54.9218859 45.9619452 54.8 46.47 54.6583052 47.0254898 54.5877405 47.5967276 54.59 48.17 54.5860497 48.7460581 54.6532243 49.3204011 54.79 49.88 54.9189688 50.3872664 55.0999268 50.879874 55.33 51.35 55.534133 51.7778526 55.7821288 52.1833591 56.07 52.56 56.3221005 52.8910226 56.6032135 53.1989082 56.91 53.48L56.91 53.55zM64 48.73C64.000839 49.1034659 63.929533 49.4735782 63.79 49.82 63.5263471 50.4995951 62.9781396 51.029529 62.29 51.27 61.886614 51.4173684 61.4593765 51.4885746 61.03 51.48 60.5995466 51.4793835 60.1704094 51.4324466 59.75 51.34 59.4061588 51.260311 59.071156 51.1464101 58.75 51L58.75 49.86 58.83 49.86C59.147548 50.0509966 59.4823556 50.2117043 59.83 50.34 60.210503 50.4677696 60.608646 50.5352514 61.01 50.54 61.2639591 50.5391885 61.5165036 50.5021487 61.76 50.43 62.0022083 50.353199 62.2242568 50.223386 62.41 50.05 62.5706258 49.8889206 62.6935714 49.6942566 62.77 49.48 62.8541922 49.2391025 62.8948262 48.9851404 62.89 48.73 62.896116 48.4859174 62.8483135 48.2434908 62.75 48.02 62.6584847 47.8347922 62.5207059 47.6763465 62.35 47.56 62.143553 47.412772 61.9084748 47.3105641 61.66 47.26 61.3597064 47.2058963 61.0551273 47.1791201 60.75 47.18 60.441906 47.1772861 60.1341367 47.2007033 59.83 47.25 59.53 47.25 59.28 47.33 59.06 47.38L59.06 43.2 64.0000073 43.2 64 44.15 60.13 44.15 60.13 46.31C60.2898459 46.300068 60.4501541 46.300068 60.61 46.31L61 46.31C61.3863196 46.3014714 61.7723022 46.3383915 62.15 46.42 62.476629 46.4869862 62.7862314 46.6196729 63.06 46.81 63.3469175 47.0064133 63.5805749 47.270996 63.74 47.58 63.9115999 47.9390581 64.0004489 48.3320439 64 48.73z"/>
    <polygon points="72.35 50.13 71.75 50.74 69.37 48.34 67 50.74 66.39 50.13 68.79 47.76 66.39 45.38 67 44.78 69.37 47.17 71.75 44.78 72.35 45.38 70 47.76"/>
    <polygon points="80.33 44.41 76.66 51.31 75.49 51.31 79.39 44.15 74.78 44.15 74.78 43.2 80.33 43.2"/>
    <path d="M85.11,48.19 C85.1314509,49.2150552 84.9513765,50.2343443 84.58,51.19 C84.2156375,52.0702035 83.7088621,52.8844228 83.08,53.6 L81.83,53.6 C82.1367865,53.3189082 82.4178995,53.0110226 82.67,52.68 C82.9611679,52.3036859 83.212513,51.8981824 83.42,51.47 C83.6657398,50.9675463 83.8600608,50.4415393 84,49.9 C84.1367757,49.3404011 84.2039503,48.7660581 84.2,48.19 C84.2006031,47.6174293 84.13347,47.0467974 84,46.49 C83.8588279,45.9745746 83.6644496,45.4752235 83.42,45 C83.211769,44.5722274 82.9604698,44.1667981 82.67,43.79 C82.4212871,43.4561657 82.139894,43.1479733 81.83,42.87 L81.83,42.81 L83.08,42.81 C83.7090593,43.529148 84.215797,44.3466849 84.58,45.23 C84.9464941,46.1730883 85.126488,47.1783372 85.11,48.19 Z"/>
  </g>
</svg>
