<svg xmlns="http://www.w3.org/2000/svg" width="100" height="100" viewBox="0 0 100 100">
  <g fill="currentColor" transform="translate(4 6)">
    <path d="M86.47 4.44L56.29 4.44 56.29.37 86.47.37 86.47 4.44zM86.47 15.13L56.29 15.13 56.29 11.06 86.47 11.06 86.47 15.13zM39.18 78.16C39.6460124 78.5851592 40.0232619 79.0983544 40.29 79.67 40.5999867 80.4064788 40.7466867 81.2013883 40.72 82 40.7322725 82.9001318 40.5551051 83.7927828 40.2 84.62 39.8652804 85.4084346 39.3677476 86.1172485 38.74 86.7 38.0329273 87.3585713 37.1896803 87.8535948 36.27 88.15 35.2614242 88.4707838 34.2083187 88.6294247 33.15 88.62 31.9945209 88.6187067 30.8432295 88.4810888 29.72 88.21 28.7891582 87.9974462 27.878944 87.7029651 27 87.33L27 84.4 27.21 84.4C28.0786687 84.9568732 29.0166824 85.3973026 30 85.71 31.0042152 86.0391508 32.0532547 86.2111798 33.11 86.22 33.7508744 86.2173269 34.387807 86.1195965 35 85.93 35.5957513 85.7659773 36.1463345 85.4684572 36.61 85.06 37.0334129 84.6803507 37.3738565 84.2173474 37.61 83.7 37.8400336 83.1006863 37.9488025 82.4616687 37.93 81.82 37.9245854 81.1888092 37.7776444 80.5668728 37.5 80 37.2770524 79.5304385 36.9315877 79.1296994 36.5 78.84 36.0499946 78.5266202 35.5388163 78.3119253 35 78.21 34.3628895 78.0979423 33.7168657 78.0443859 33.07 78.05L31.79 78.05 31.79 75.72 32.79 75.72C33.9877661 75.7788342 35.1746778 75.4681427 36.19 74.83 37.0309424 74.2382571 37.5102269 73.2570448 37.46 72.23 37.4692713 71.7665477 37.3590676 71.3085136 37.14 70.9 36.9208067 70.520884 36.6117276 70.2015022 36.24 69.97 35.8409128 69.7303365 35.4050814 69.5580311 34.95 69.46 34.435709 69.3632973 33.9132913 69.3164136 33.39 69.32 32.4274812 69.3322564 31.4727293 69.4941931 30.56 69.8 29.5570781 70.1206089 28.6018449 70.5746811 27.72 71.15L27.58 71.15 27.58 68.22C28.4332724 67.8266457 29.32459 67.5217213 30.24 67.31 31.2921851 67.0403691 32.3738198 66.9026454 33.46 66.9 34.3646258 66.8856911 35.2677135 66.9796927 36.15 67.18 36.9003324 67.34986 37.6146819 67.6511733 38.26 68.07 38.892667 68.4835733 39.4172564 69.0424496 39.79 69.7 40.1453134 70.3888073 40.3239948 71.155076 40.31 71.93 40.3082346 73.0523998 39.8666614 74.1294075 39.08 74.93 38.3089514 75.7649741 37.2941119 76.3353839 36.18 76.56L36.18 76.76C36.7102245 76.854755 37.2272242 77.0125406 37.72 77.23 38.2560144 77.4547138 38.749764 77.7692255 39.18 78.16z"/>
    <polygon points="68.86 80.19 61.22 80.19 61.22 87.84 58.89 87.84 58.89 80.19 51.25 80.19 51.25 78 58.89 78 58.89 70.3 61.22 70.3 61.22 78 68.86 78"/>
    <path d="M92 88.22L89.38 88.22 89.38 86.55 88.43 87.21C88.0680401 87.4764005 87.679268 87.7043014 87.27 87.89 86.7883128 88.12559 86.2818475 88.30671 85.76 88.43 85.1052488 88.5872112 84.4332686 88.661129 83.76 88.65 82.4243499 88.681709 81.1315627 88.177558 80.17 87.25 79.192971 86.3201622 78.6583367 85.0181277 78.7 83.67 78.6503326 82.6546025 78.9157848 81.6486785 79.46 80.79 80.0157144 80.0216617 80.7738836 79.4227427 81.65 79.06 82.7431594 78.6012124 83.899699 78.3112345 85.08 78.2 86.42 78.05 87.85 77.94 89.39 77.86L89.39 77.46C89.3996985 76.9538065 89.2864607 76.4528151 89.06 76 88.8545744 75.6132678 88.5421245 75.2938746 88.16 75.08 87.7413579 74.8504721 87.2834911 74.7012414 86.81 74.64 86.2663945 74.5668369 85.7185068 74.5300883 85.17 74.53 84.3927399 74.5399531 83.6186043 74.6304365 82.86 74.8 81.961329 74.99635 81.0788083 75.2604377 80.22 75.59L80.08 75.59 80.08 72.89C80.59 72.75 81.34 72.59 82.31 72.42 83.2576274 72.2537544 84.2179006 72.1701069 85.18 72.17 86.1502098 72.1565714 87.1190678 72.2470875 88.07 72.44 88.833 72.6066309 89.5542313 72.9264221 90.19 73.38 90.7803771 73.8068415 91.2463608 74.3832806 91.54 75.05 91.8716621 75.8509792 92.028491 76.7135384 92 77.58L92 88.22zM89.38 84.36L89.38 80C88.57 80 87.63 80.11 86.54 80.21 85.66681 80.2689636 84.8002946 80.4027884 83.95 80.61 83.2628574 80.7846403 82.6303219 81.1284095 82.11 81.61 81.6228114 82.1063538 81.3684958 82.7857398 81.41 83.48 81.3650413 84.2346289 81.6625946 84.9693286 82.22 85.48 82.9470264 85.9864342 83.8264806 86.2266064 84.71 86.16 85.586164 86.1698664 86.4536267 85.9854452 87.25 85.62 88.0010997 85.2737152 88.7148132 84.8515184 89.38 84.36zM15.05 46.88L12.26 46.88 12.26 52.18 9.83 52.18 9.83 46.88.83 46.88.83 44 9.95 33.37 12.28 33.37 12.28 44.86 15.07 44.86 15.05 46.88zM9.83 44.88L9.83 36.35 2.53 44.86 9.83 44.88z"/>
    <polygon points="38.62 49.45 37.21 50.85 31.7 45.29 26.18 50.85 24.78 49.45 30.34 43.93 24.78 38.42 26.18 37 31.7 42.57 37.21 37 38.62 38.41 33.05 43.92"/>
    <path d="M62,46.93 C62.0327721,48.5058331 61.3350764,50.0082784 60.11,51 C58.7653214,52.1078741 57.0610966,52.6842508 55.32,52.62 C53.5523853,52.6994022 51.8178346,52.1224059 50.45,51 C49.275197,50.006295 48.6073676,48.5385381 48.63,47 C48.6198726,45.9800817 48.9390071,44.9841015 49.54,44.16 C50.2052254,43.2782822 51.0918947,42.5882672 52.11,42.16 L52.11,42.09 C51.2437081,41.6650548 50.4769663,41.0618846 49.86,40.32 C49.3617908,39.6175634 49.1087598,38.7706123 49.14,37.91 C49.1289604,36.5215552 49.7739374,35.2093606 50.88,34.37 C52.1492743,33.3936701 53.7197362,32.8914052 55.32,32.95 C56.9353044,32.868703 58.5289234,33.3492622 59.83,34.31 C60.9065368,35.1231438 61.5306228,36.4010342 61.51,37.75 C61.4943202,38.646863 61.2161962,39.5194769 60.71,40.26 C60.1338124,41.116775 59.3207599,41.7873696 58.37,42.19 L58.37,42.26 C59.4073281,42.667232 60.3352797,43.310977 61.08,44.14 C61.7085627,44.9310733 62.0347286,45.920207 62,46.93 Z M59.4,47.17 C59.4328446,46.5083296 59.2542218,45.8533796 58.89,45.3 C58.3365412,44.6870527 57.6532682,44.2053453 56.89,43.89 C56.4656999,43.6978175 56.0317931,43.5275925 55.59,43.38 L53.7,42.7 C52.9608501,43.1012946 52.334872,43.68256 51.88,44.39 C51.4187494,45.1046293 51.1787189,45.9395178 51.19,46.79 C51.1585254,47.8541101 51.5844577,48.880716 52.36,49.61 C53.1738586,50.3621752 54.2525578,50.7612939 55.36,50.72 C56.4248602,50.7753308 57.4734585,50.4412012 58.31,49.78 C59.055189,49.1230466 59.460161,48.1621584 59.41,47.17 L59.4,47.17 Z M59,37.73 C59.0386705,36.8928544 58.6651508,36.0897869 58,35.58 C57.2313839,35.0150867 56.2930188,34.7293439 55.34,34.77 C54.4107063,34.7344317 53.4949262,35.0010956 52.73,35.53 C52.0915159,35.994595 51.7185855,36.7404557 51.73,37.53 C51.7174322,38.0990406 51.8971119,38.6556952 52.24,39.11 C52.66386,39.6122635 53.1930354,40.0151197 53.79,40.29 C54.1,40.44 54.55,40.64 55.14,40.88 C55.6975163,41.1167634 56.268507,41.3204501 56.85,41.49 C57.562145,41.0635278 58.1594304,40.4696752 58.59,39.76 C58.8884779,39.1263332 59.0291494,38.4298378 59,37.73 Z"/>
  </g>
</svg>
