<svg xmlns="http://www.w3.org/2000/svg" xmlns:xlink="http://www.w3.org/1999/xlink" width="24" height="24" viewBox="0 0 24 24">
  <defs>
    <path id="sbac-insufficient-data-a" d="M10.8454687,0.846923828 C9.85887891,0.846923828 9.06063803,1.58133761 9.06063803,2.47895445 L9.05166903,18.5272555 L12.6392685,15.2631943 L22.2062003,15.2631943 C23.1927901,15.2631943 24,14.5287805 24,13.6311637 L24,2.47895445 C24,1.58133761 23.1927901,0.846923828 22.2062003,0.846923828 L10.8454687,0.846923828 Z M15.2727273,11.9599621 L15.2727273,9.77086435 L17.4545455,9.77086435 L17.4545455,11.9599621 L15.2727273,11.9599621 Z M15.2727273,8.67631546 L15.2727273,3.20357098 L17.4545455,3.20357098 L17.4545455,8.67631546 L15.2727273,8.67631546 Z M0,14.1490599 L2.18181818,14.1490599 L2.18181818,24 L0,24 L0,14.1490599 Z M4.36363636,17.4327066 L6.54545455,17.4327066 L6.54545455,24 L4.36363636,24 L4.36363636,17.4327066 Z M8.72727273,19.6218044 L10.9090909,19.6218044 L10.9090909,24 L8.72727273,24 L8.72727273,19.6218044 Z"/>
  </defs>
  <g fill="none" fill-rule="evenodd">
    <mask id="sbac-insufficient-data-b" fill="currentColor">
      <use xlink:href="#sbac-insufficient-data-a"/>
    </mask>
    <use fill="currentColor" xlink:href="#sbac-insufficient-data-a"/>
    <g fill="currentColor" mask="url(#sbac-insufficient-data-b)">
      <rect width="24" height="24"/>
    </g>
  </g>
</svg>
