<svg xmlns="http://www.w3.org/2000/svg" xmlns:xlink="http://www.w3.org/1999/xlink" width="24" height="24" viewBox="0 0 24 24">
  <defs>
    <path id="sbac-below-average-a" d="M21.625,14.6368367 L2.375,14.6368367 C1.61302083,14.6368367 1,13.9477513 1,13.0912245 L1,11.5456122 C1,10.6890855 1.61302083,10 2.375,10 L21.625,10 C22.3869792,10 23,10.6890855 23,11.5456122 L23,13.0912245 C23,13.9477513 22.3869792,14.6368367 21.625,14.6368367 Z M7.9658097,19.3044643 C7.62957776,19.6383603 7.33605228,19.6383603 6.99506005,19.3044643 C6.78264824,19.096473 5.97512199,18.2077715 4.57248129,16.6383599 C4.30330587,16.3357848 3.8680435,16.3357848 3.60173165,16.6383599 L3.11492504,17.1855703 C2.84574962,17.4881454 2.84574962,17.9774159 3.11492504,18.2767721 L6.99506005,22.6383606 C7.26423547,22.9409358 7.69949785,22.9409358 7.9658097,22.6383606 L11.8459447,18.2767721 C12.1151201,17.974197 12.1151201,17.4849266 11.8459447,17.1855703 L11.3591381,16.6383599 C11.0928263,16.3357848 10.6575639,16.3357848 10.391252,16.6383599 C8.978741,18.2127328 8.17026023,19.1014343 7.9658097,19.3044643 Z"/>
  </defs>
  <g fill="none" fill-rule="evenodd">
    <mask id="sbac-below-average-b" fill="currentColor">
      <use xlink:href="#sbac-below-average-a"/>
    </mask>
    <use fill="currentColor" fill-rule="nonzero" xlink:href="#sbac-below-average-a"/>
    <g fill="currentColor" mask="url(#sbac-below-average-b)">
      <rect width="24" height="24"/>
    </g>
  </g>
</svg>
