<svg xmlns="http://www.w3.org/2000/svg" xmlns:xlink="http://www.w3.org/1999/xlink" width="24" height="24" viewBox="0 0 24 24">
  <defs>
    <path id="sbac-average-a" d="M21.625,14.218254 L2.375,14.218254 C1.61302083,14.218254 1,13.5145311 1,12.6398101 L1,11.8470805 C1,10.9723595 1.61302083,10.2686366 2.375,10.2686366 L21.625,10.2686366 C22.3869792,10.2686366 23,10.9723595 23,11.8470805 L23,12.6398101 C23,13.5145311 22.3869792,14.218254 21.625,14.218254 Z M12.4404257,5.21509335 C12.5937101,5.05964052 13.199859,4.37919379 14.2588724,3.17375317 C14.4585366,2.94208228 14.7848694,2.94208228 14.9845336,3.17375317 L15.3495111,3.59273245 C15.5513222,3.82193876 15.5513222,4.19655552 15.3495111,4.42822642 L12.4404257,7.76773771 C12.2407615,7.99940861 11.9144287,7.99940861 11.7126176,7.76773771 L8.80353223,4.42822642 C8.60172114,4.19902011 8.60172114,3.82440334 8.80353223,3.59273245 L9.16850973,3.17375317 C9.3681739,2.94208228 9.69450672,2.94208228 9.89631781,3.17375317 C10.9479311,4.37539512 11.5533644,5.05584185 11.7126176,5.21509335 C11.9682725,5.47074544 12.1883398,5.47074544 12.4404257,5.21509335 Z M11.7126176,19.1271912 C11.5593333,19.282644 10.9531843,19.9630907 9.89417089,21.1685314 C9.69450672,21.4002023 9.3681739,21.4002023 9.16850973,21.1685314 L8.80353223,20.7495521 C8.60172114,20.5203458 8.60172114,20.145729 8.80353223,19.9140581 L11.7126176,16.5745468 C11.9122818,16.3428759 12.2386146,16.3428759 12.4404257,16.5745468 L15.3495111,19.9140581 C15.5513222,20.1432644 15.5513222,20.5178812 15.3495111,20.7495521 L14.9845336,21.1685314 C14.7848694,21.4002023 14.4585366,21.4002023 14.2567255,21.1685314 C13.2051122,19.9668894 12.599679,19.2864427 12.4404257,19.1271912 C12.1847708,18.8715391 11.9647036,18.8715391 11.7126176,19.1271912 Z"/>
  </defs>
  <g fill="none" fill-rule="evenodd">
    <mask id="sbac-average-b" fill="currentColor">
      <use xlink:href="#sbac-average-a"/>
    </mask>
    <use fill="currentColor" fill-rule="nonzero" xlink:href="#sbac-average-a"/>
    <g fill="currentColor" mask="url(#sbac-average-b)">
      <rect width="24" height="24"/>
    </g>
  </g>
</svg>
