<svg xmlns="http://www.w3.org/2000/svg" xmlns:xlink="http://www.w3.org/1999/xlink" width="24" height="24" viewBox="0 0 24 24">
  <defs>
    <path id="sbac-above-average-a" d="M16.0820166,4.56082764 C15.877566,4.76385773 15.0690853,5.65255921 13.6565742,7.22693206 C13.3902624,7.52950721 12.955,7.52950721 12.6886882,7.22693206 L12.2018816,6.6797217 C11.9327061,6.38036544 11.9327061,5.891095 12.2018816,5.58851985 L16.0820166,1.22693136 C16.3483284,0.924356214 16.7835908,0.924356214 17.0527662,1.22693136 L20.9329012,5.58851985 C21.2020766,5.88787611 21.2020766,6.37714656 20.9329012,6.6797217 L20.4460946,7.22693206 C20.1797828,7.52950721 19.7445204,7.52950721 19.475345,7.22693206 C18.0727043,5.65752048 17.265178,4.76881901 17.0527662,4.56082764 C16.711774,4.22693171 16.4182485,4.22693171 16.0820166,4.56082764 Z M2.375,9.22845526 L21.625,9.22845526 C22.3869792,9.22845526 23,9.91754072 23,10.7740675 L23,12.3196797 C23,13.1762065 22.3869792,13.865292 21.625,13.865292 L2.375,13.865292 C1.61302083,13.865292 1,13.1762065 1,12.3196797 L1,10.7740675 C1,9.91754072 1.61302083,9.22845526 2.375,9.22845526 Z"/>
  </defs>
  <g fill="none" fill-rule="evenodd">
    <mask id="sbac-above-average-b" fill="currentColor">
      <use xlink:href="#sbac-above-average-a"/>
    </mask>
    <use fill="currentColor" xlink:href="#sbac-above-average-a"/>
    <g fill="currentColor" mask="url(#sbac-above-average-b)">
      <rect width="24" height="24"/>
    </g>
  </g>
</svg>
