<svg xmlns="http://www.w3.org/2000/svg" width="100" height="100" viewBox="0 0 100 100">
  <g fill="none" fill-rule="evenodd">
    <path fill="currentColor" fill-rule="nonzero" d="M76 70.4C75.8730876 70.5549743 75.6800412 70.6403603 75.48 70.63 75.3053258 70.6367031 75.1355109 70.5716677 75.01 70.45 74.8877565 70.3406741 74.818525 70.1839922 74.82 70.02 74.8391081 69.8156138 74.8932306 69.6160374 74.98 69.43 74.9794109 69.349048 74.9380509 69.273848 74.87 69.23 74.8041849 69.178825 74.7233667 69.1507144 74.64 69.15 74.21 69.15 73.85 69.61 73.57 70.53 73.3211102 71.4064022 73.1306913 72.2983644 73 73.2L74.9 73.2 74.78 73.77 72.82 73.77 71.18 79.34C70.9231944 80.5988917 70.4567011 81.8056897 69.8 82.91 69.3580092 83.733916 68.5048501 84.2542283 67.57 84.27 67.2081202 84.2817893 66.8537859 84.164859 66.57 83.94 66.3343588 83.7641355 66.1880572 83.4934775 66.17 83.2 66.1728734 83.0257547 66.2325652 82.8572132 66.34 82.72 66.4583851 82.5663789 66.6467591 82.4834943 66.84 82.5 67.022002 82.4962158 67.1981253 82.5645085 67.33 82.69 67.4595438 82.8158891 67.5318285 82.9893725 67.53 83.17 67.5269802 83.2793259 67.4959947 83.386054 67.44 83.48 67.3948028 83.5424623 67.3640609 83.6141935 67.35 83.69 67.3528721 83.7469106 67.3877427 83.7972792 67.44 83.82 67.5205992 83.859727 67.610415 83.8769992 67.7 83.87 68.18 83.87 68.59 83.49 68.93 82.73 69.1386849 82.198775 69.2993278 81.6499117 69.41 81.09L71.41 73.77 69.84 73.77 70 73.2 71.65 73.2C71.8341706 72.1754381 72.1712683 71.184371 72.65 70.26 73.0277684 69.4090162 73.8503501 68.8413189 74.78 68.79 75.1430417 68.769804 75.500284 68.8876939 75.78 69.12 76.0133495 69.3042459 76.1526129 69.5827729 76.16 69.88 76.1690541 70.0667027 76.1124452 70.2506817 76 70.4zM80 69.22C79.5241436 69.7048388 79.0955421 70.2338939 78.72 70.8 78.1079444 71.7254885 77.6361708 72.736432 77.32 73.8 77.0194648 74.7444444 76.7921257 75.7106357 76.64 76.69 76.510067 77.4537629 76.4332162 78.2256116 76.41 79 76.3958199 79.7864728 76.4493507 80.5727071 76.57 81.35 76.7250055 82.1675207 76.9491438 82.9704043 77.24 83.75L76.94 83.85C76.3553582 82.8725287 75.9078372 81.8193403 75.61 80.72 75.3410988 79.6914804 75.2033394 78.6330848 75.2 77.57 75.1758908 76.3090522 75.4107322 75.0565647 75.89 73.89 76.8053489 72.0012267 78.1187667 70.3330156 79.74 69L80 69.22zM78.26 79.58C78.3835399 79.4937477 78.5294167 79.4451221 78.68 79.44 78.7463129 79.4302869 78.8136871 79.4302869 78.88 79.44 78.9577699 79.4625553 79.0318699 79.4962371 79.1 79.54L79.4 79.7 79.52 79.7 79.64 79.7C79.759751 79.7049257 79.8771546 79.6657911 79.97 79.59 80.1799778 79.3542465 80.3769372 79.1072128 80.56 78.85 80.77 78.57 81.25 77.85 81.99 76.85 81.99 76.85 81.93 76.5 81.8 75.93 81.67 75.36 81.55 74.93 81.44 74.48 81.3800819 74.2014097 81.2825196 73.9322723 81.15 73.68 81.0349537 73.5361098 80.8523605 73.4638334 80.67 73.49 80.5107896 73.5047172 80.3533844 73.5348586 80.2 73.58L79.73 73.7 79.65 73.43 80.6 73.11C80.8192287 73.0275204 81.0429138 72.9574102 81.27 72.9 81.4466795 72.8558212 81.6278957 72.8323302 81.81 72.83 82.0095773 72.8146599 82.2050917 72.8921279 82.34 73.04 82.5942071 73.4490657 82.7515475 73.9108254 82.8 74.39L82.98 75.39C83.3387208 74.8079679 83.7398048 74.253135 84.18 73.73 84.3854198 73.4806786 84.6283144 73.2647724 84.9 73.09 85.0900884 72.9538943 85.3163234 72.8773224 85.55 72.87 85.7078173 72.8792349 85.8615707 72.9236526 86 73 86.2174375 73.1074163 86.3450853 73.338778 86.32 73.58 86.3300452 73.7455118 86.2722784 73.907981 86.16 74.03 86.0478232 74.1386068 85.8960051 74.1964423 85.74 74.19L85.56 74.19 85.38 74.13 85.16 74.03 85 73.92 84.88 73.92C84.62 73.92 84.27 74.25 83.81 74.92 83.5394309 75.2504132 83.3110108 75.6131982 83.13 76 83.1630751 76.2801899 83.2165504 76.5575931 83.29 76.83 83.39 77.3 83.51 77.83 83.63 78.32 83.7054632 78.6591201 83.8023236 78.9931217 83.92 79.32 84.05 79.63 84.2 79.78 84.36 79.78 84.5451726 79.7675853 84.7162075 79.6766093 84.83 79.53 85.0863925 79.2365231 85.3267428 78.9294089 85.55 78.61L85.79 78.75C85.5638711 79.1670061 85.2993957 79.5620454 85 79.93 84.679775 80.4202341 84.1607966 80.7455093 83.58 80.82 83.2985093 80.8160877 83.0415916 80.6588694 82.91 80.41 82.7799326 80.1646897 82.6856433 79.9020267 82.63 79.63L82.1 77.52 80.35 79.81C80.1148958 80.1061614 79.8501922 80.3775663 79.56 80.62 79.3603434 80.7572289 79.12216 80.8272828 78.88 80.82 78.5890525 80.8546513 78.3032279 80.7233265 78.14 80.48 78.0607897 80.3510475 78.0224435 80.2011486 78.03 80.05 78.0143305 79.8629446 78.1026813 79.6824016 78.26 79.58zM85.43 83.51C85.9224651 82.9925991 86.3738333 82.4375833 86.78 81.85 87.35254 80.9658233 87.8001092 80.0067464 88.11 79 88.3987955 78.0876296 88.6194028 77.1550625 88.77 76.21 88.9152426 75.3373251 88.9921428 74.4546441 89 73.57 89.0132598 72.6768955 88.9294345 71.7849942 88.75 70.91 88.6188287 70.2601839 88.4176554 69.6264878 88.15 69.02L88.48 68.92C89.0408124 69.8560603 89.4682671 70.865796 89.75 71.92 90.0560997 73.000075 90.2109081 74.1173878 90.21 75.24 90.2305995 76.3922171 90.0373315 77.5382624 89.64 78.62 88.7625311 80.6605806 87.3872328 82.4484685 85.64 83.82L85.43 83.51zM68.29 89.93L68.29 91.21 62.39 93 68.29 94.83 68.29 96.11 60.88 93.61 60.88 92.41 68.29 89.93zM68.29 97.47L60.88 97.47 60.88 96.33 68.29 96.33 68.29 97.47zM73.83 89.93L81.24 92.43 81.24 93.63 73.83 96.13 73.83 94.85 79.73 93 73.83 91.19 73.83 89.93zM81.24 96.33L81.24 97.47 73.83 97.47 73.83 96.33 81.24 96.33z"/>
    <polygon fill="currentColor" fill-rule="nonzero" points="94.17 91.58 94.17 92.77 91.51 92.77 90.68 94.62 94.17 94.62 94.17 95.83 90.17 95.83 89.41 97.54 88.14 97.54 88.9 95.83 86.78 95.83 86.78 94.62 89.44 94.62 90.27 92.77 86.78 92.77 86.78 91.58 90.78 91.58 91.55 89.86 92.79 89.86 92 91.58"/>
    <path stroke="currentColor" d="M51.85 0L51.85 100M.81 50L100.86 50"/>
    <path fill="currentColor" fill-rule="nonzero" stroke="currentColor" stroke-linecap="round" stroke-linejoin="round" stroke-width="2" d="M21.9 63.37L78.86 6.11M59.98 74.5L2.72 17.55"/>
    <circle cx="52.1" cy="33.37" r="3.89" fill="currentColor" fill-rule="nonzero"/>
    <circle cx="35.24" cy="49.92" r="3.89" fill="currentColor" fill-rule="nonzero"/>
    <path fill="currentColor" fill-rule="nonzero" d="M28.35,94 C28.34454,94.9145215 27.6045215,95.65454 26.69,95.66 L8.46,95.66 C7.54938601,95.6491096 6.81538805,94.9106632 6.81,94 L6.81,74.06 C6.8154596,73.1510012 7.55100121,72.4154596 8.46,72.41 L26.69,72.41 C27.6006632,72.415388 28.3391096,73.149386 28.35,74.06 L28.35,94 Z M26.69,74.89 C26.69,74.4316037 26.3183963,74.06 25.86,74.06 L9.29,74.06 C8.83385858,74.0653987 8.46539869,74.4338586 8.46,74.89 L8.46,78.21 C8.46547614,78.6644863 8.83548067,79.030033 9.29,79.03 L25.86,79.03 C26.3145193,79.030033 26.6845239,78.6644863 26.69,78.21 L26.69,74.89 Z M10.12,80.69 C9.20320732,80.69 8.46,81.4332073 8.46,82.35 C8.46,83.2667927 9.20320732,84.01 10.12,84.01 C11.0367927,84.01 11.78,83.2667927 11.78,82.35 C11.78,81.4332073 11.0367927,80.69 10.12,80.69 Z M10.12,85.69 C9.20320732,85.69 8.46,86.4332073 8.46,87.35 C8.46,88.2667927 9.20320732,89.01 10.12,89.01 C11.0367927,89.01 11.78,88.2667927 11.78,87.35 C11.7880513,86.9045659 11.6167198,86.4745902 11.3045325,86.156761 C10.9923452,85.8389317 10.5655068,85.6599272 10.12,85.66 L10.12,85.69 Z M10.12,90.69 C9.20320732,90.69 8.46,91.4332073 8.46,92.35 C8.46,93.2667927 9.20320732,94.01 10.12,94.01 C11.0367927,94.01 11.78,93.2667927 11.78,92.35 C11.7962961,91.8994395 11.6286246,91.4616314 11.3155304,91.1372206 C11.0024363,90.8128099 10.570855,90.6297054 10.12,90.63 L10.12,90.69 Z M15.12,80.75 C14.2032073,80.75 13.46,81.4932073 13.46,82.41 C13.46,83.3267927 14.2032073,84.07 15.12,84.07 C16.0367927,84.07 16.78,83.3267927 16.78,82.41 C16.7965662,81.9541833 16.6248474,81.5116319 16.3051733,81.1862832 C15.9854993,80.8609344 15.5460376,80.681456 15.09,80.69 L15.12,80.75 Z M15.12,85.75 C14.2032073,85.75 13.46,86.4932073 13.46,87.41 C13.46,88.3267927 14.2032073,89.07 15.12,89.07 C16.0367927,89.07 16.78,88.3267927 16.78,87.41 C16.8051136,86.9491041 16.6371922,86.4985623 16.3165477,86.166534 C15.9959031,85.8345056 15.5514914,85.6509745 15.09,85.66 L15.12,85.75 Z M15.12,90.75 C14.2032073,90.75 13.46,91.4932073 13.46,92.41 C13.46,93.3267927 14.2032073,94.07 15.12,94.07 C16.0367927,94.07 16.78,93.3267927 16.78,92.41 C16.81387,91.94408 16.6498545,91.4854537 16.3282056,91.1466756 C16.0065567,90.8078975 15.5570493,90.6203281 15.09,90.63 L15.12,90.75 Z M20.12,80.81 C19.2032073,80.81 18.46,81.5532073 18.46,82.47 C18.46,83.3867927 19.2032073,84.13 20.12,84.13 C21.0367927,84.13 21.78,83.3867927 21.78,82.47 C21.817808,81.9978979 21.6509246,81.5323121 21.3218187,81.1917257 C20.9927128,80.8511394 20.5331205,80.6683958 20.06,80.69 L20.12,80.81 Z M20.12,85.81 C19.2032073,85.81 18.46,86.5532073 18.46,87.47 C18.46,88.3867927 19.2032073,89.13 20.12,89.13 C21.0367927,89.13 21.78,88.3867927 21.78,87.47 C21.8270188,86.9929506 21.6642505,86.5190356 21.3340405,86.1715471 C21.0038305,85.8240587 20.5388256,85.637352 20.06,85.66 L20.12,85.81 Z M20.12,90.81 C19.4485927,90.81 18.8432964,91.214446 18.58636,91.8347455 C18.3294235,92.455045 18.4714461,93.1690406 18.9462027,93.6437973 C19.4209594,94.1185539 20.134955,94.2605765 20.7552545,94.00364 C21.375554,93.7467036 21.78,93.1414073 21.78,92.47 C21.8364628,91.9880683 21.6779328,91.5057141 21.3465784,91.1512419 C21.015224,90.7967698 20.54464,90.6061183 20.06,90.63 L20.12,90.81 Z M25.12,80.87 C24.2032073,80.87 23.46,81.6132073 23.46,82.53 C23.46,83.4467927 24.2032073,84.19 25.12,84.19 C26.0367927,84.19 26.78,83.4467927 26.78,82.53 C26.8390136,82.036962 26.6728472,81.5435638 26.3275953,81.1866741 C25.9823434,80.8297845 25.4947229,80.6473581 25,80.69 L25.12,80.87 Z M26.78,87.5 C26.8283848,86.878015 26.5239504,86.2814193 25.9919205,85.9556117 C25.4598906,85.6298042 24.7901094,85.6298042 24.2580795,85.9556117 C23.7260496,86.2814193 23.4216152,86.878015 23.47,87.5 L23.47,92.5 C23.4216152,93.121985 23.7260496,93.7185807 24.2580795,94.0443883 C24.7901094,94.3701958 25.4598906,94.3701958 25.9919205,94.0443883 C26.5239504,93.7185807 26.8283848,93.121985 26.78,92.5 L26.78,87.5 Z"/>
  </g>
</svg>
