<svg xmlns="http://www.w3.org/2000/svg" width="100" height="100" viewBox="0 0 100 100">
  <g fill="none" fill-rule="evenodd">
    <path fill="currentColor" fill-rule="nonzero" d="M30.34 93.55C30.3291096 94.460614 29.5906632 95.194612 28.68 95.2L10.45 95.2C9.53933683 95.194612 8.8008904 94.460614 8.79 93.55L8.79 73.66C8.80079738 72.7477172 9.53771716 72.0107974 10.45 72L28.68 72C29.5922828 72.0107974 30.3292026 72.7477172 30.34 73.66L30.34 93.55zM28.68 74.49C28.6746013 74.0338586 28.3061414 73.6653987 27.85 73.66L11.28 73.66C10.8238586 73.6653987 10.4553987 74.0338586 10.45 74.49L10.45 77.8C10.45 78.2583963 10.8216037 78.63 11.28 78.63L27.85 78.63C28.3083963 78.63 28.68 78.2583963 28.68 77.8L28.68 74.49zM12.11 80.29C11.1998082 80.290413 10.4596963 81.0236843 10.4508319 81.933833 10.4419675 82.8439816 11.1676569 83.5915292 12.077668 83.6096701 12.987679 83.627811 13.7425845 82.9097789 13.77 82 13.783526 81.5511428 13.6146232 81.115955 13.3018347 80.7937452 12.9890463 80.4715354 12.559061 80.2897962 12.11 80.29zM12.11 85.29C11.4385927 85.29 10.8332964 85.694446 10.57636 86.3147455 10.3194235 86.935045 10.4614461 87.6490406 10.9362027 88.1237973 11.4109594 88.5985539 12.124955 88.7405765 12.7452545 88.48364 13.365554 88.2267036 13.77 87.6214073 13.77 86.95 13.7780513 86.5045659 13.6067198 86.0745902 13.2945325 85.756761 12.9823452 85.4389317 12.5555068 85.2599272 12.11 85.26L12.11 85.29zM12.11 90.29C11.1932073 90.29 10.45 91.0332073 10.45 91.95 10.45 92.8667927 11.1932073 93.61 12.11 93.61 13.0267927 93.61 13.77 92.8667927 13.77 91.95 13.7862961 91.4994395 13.6186246 91.0616314 13.3055304 90.7372206 12.9924363 90.4128099 12.560855 90.2297054 12.11 90.23L12.11 90.29zM17.11 80.35C16.4350881 80.3378124 15.8200042 80.7355263 15.554172 81.3560002 15.2883397 81.9764741 15.4247026 82.6961336 15.8990959 83.1763477 16.3734893 83.6565618 17.0914323 83.8016905 17.7151018 83.5434445 18.3387713 83.2851985 18.7439564 82.6750104 18.74 82 18.753526 81.5511428 18.5846232 81.115955 18.2718347 80.7937452 17.9590463 80.4715354 17.529061 80.2897962 17.08 80.29L17.11 80.35zM17.11 85.35C16.4385927 85.35 15.8332964 85.754446 15.57636 86.3747455 15.3194235 86.995045 15.4614461 87.7090406 15.9362027 88.1837973 16.4109594 88.6585539 17.124955 88.8005765 17.7452545 88.54364 18.365554 88.2867036 18.77 87.6814073 18.77 87.01 18.7951136 86.5491041 18.6271922 86.0985623 18.3065477 85.766534 17.9859031 85.4345056 17.5414914 85.2509745 17.08 85.26L17.11 85.35zM17.11 90.35C16.1932073 90.35 15.45 91.0932073 15.45 92.01 15.45 92.9267927 16.1932073 93.67 17.11 93.67 18.0267927 93.67 18.77 92.9267927 18.77 92.01 18.80387 91.54408 18.6398545 91.0854537 18.3182056 90.7466756 17.9965567 90.4078975 17.5470493 90.2203281 17.08 90.23L17.11 90.35zM22.11 80.41C21.4273922 80.3859018 20.7997002 80.7823825 20.5282039 81.4091391 20.2567075 82.0358957 20.3968325 82.7649767 20.8813214 83.2464376 21.3658103 83.7278985 22.0957556 83.8634496 22.7207977 83.5880292 23.3458398 83.3126087 23.7383774 82.6824433 23.71 82 23.723526 81.5511428 23.5546232 81.115955 23.2418347 80.7937452 22.9290463 80.4715354 22.499061 80.2897962 22.05 80.29L22.11 80.41zM22.11 85.41C21.1932073 85.41 20.45 86.1532073 20.45 87.07 20.45 87.9867927 21.1932073 88.73 22.11 88.73 23.0267927 88.73 23.77 87.9867927 23.77 87.07 23.8136034 86.5937487 23.6496871 86.1218302 23.320247 85.775152 22.9908069 85.4284738 22.5278545 85.2407222 22.05 85.26L22.11 85.41zM22.11 90.41C21.1932073 90.41 20.45 91.1532073 20.45 92.07 20.45 92.9867927 21.1932073 93.73 22.11 93.73 23.0267927 93.73 23.77 92.9867927 23.77 92.07 23.8229182 91.5888429 23.6631797 91.108556 23.3326241 90.7549383 23.0020685 90.4013207 22.5336284 90.2096027 22.05 90.23L22.11 90.41zM27.11 80.47C26.4200645 80.4345956 25.7803256 80.8301944 25.5037564 81.4632616 25.2271872 82.0963287 25.3716112 82.8345061 25.8663732 83.3166628 26.3611353 83.7988194 27.1027934 83.9241487 27.7285137 83.6313371 28.3542339 83.3385255 28.7331944 82.6887923 28.68 82 28.6965703 81.5468357 28.5259067 81.1068256 28.2081071 80.7833509 27.8903074 80.4598763 27.4533866 80.2814523 27 80.29L27.11 80.47zM28.77 87.1C28.8183848 86.478015 28.5139504 85.8814193 27.9819205 85.5556117 27.4498906 85.2298042 26.7801094 85.2298042 26.2480795 85.5556117 25.7160496 85.8814193 25.4116152 86.478015 25.46 87.1L25.46 92.1C25.4116152 92.721985 25.7160496 93.3185807 26.2480795 93.6443883 26.7801094 93.9701958 27.4498906 93.9701958 27.9819205 93.6443883 28.5139504 93.3185807 28.8183848 92.721985 28.77 92.1L28.77 87.1zM74.88 72.4C74.7521081 72.553682 74.559744 72.6387662 74.36 72.63 74.1826445 72.6349178 74.0103904 72.5703225 73.88 72.45 73.759391 72.331985 73.6940521 72.1686378 73.7 72 73.7191081 71.7956138 73.7732306 71.5960374 73.86 71.41 73.8594109 71.329048 73.8180509 71.253848 73.75 71.21 73.6814852 71.1567047 73.596789 71.1284727 73.51 71.13 73.09 71.13 72.73 71.59 72.44 72.51 72.2074072 73.3885496 72.027091 74.2801129 71.9 75.18L73.8 75.18 73.68 75.75 71.74 75.75 70.11 81.32C69.8547574 82.5808874 69.3845715 83.7884872 68.72 84.89 68.2813487 85.7123419 67.4318603 86.2327492 66.5 86.25 66.1381202 86.2617893 65.7837859 86.144859 65.5 85.92 65.2643588 85.7441355 65.1180572 85.4734775 65.1 85.18 65.0992686 85.0067859 65.1554865 84.8381324 65.26 84.7 65.3806364 84.5492811 65.5673778 84.4671149 65.76 84.48 65.9425933 84.4727684 66.1200127 84.5415637 66.25 84.67 66.3837842 84.7929618 66.456893 84.9684227 66.45 85.15 66.4469802 85.2593259 66.4159947 85.366054 66.36 85.46 66.3148028 85.5224623 66.2840609 85.5941935 66.27 85.67 66.2768998 85.7284219 66.3153025 85.7783455 66.37 85.8 66.4474616 85.838434 66.5337146 85.8556846 66.62 85.85 67.1133333 85.85 67.5233333 85.47 67.85 84.71 68.0672132 84.1808994 68.2313518 83.6315377 68.34 83.07L70.34 75.75 68.77 75.75 68.89 75.18 70.54 75.18C70.7241706 74.1554381 71.0612683 73.164371 71.54 72.24 71.9177684 71.3890162 72.7403501 70.8213189 73.67 70.77 74.033308 70.7477699 74.3912806 70.8659009 74.67 71.1 74.9071051 71.2822699 75.0501859 71.5610939 75.06 71.86 75.0682306 72.0559802 75.0041726 72.2481542 74.88 72.4zM78.89 71.22C78.4141676 71.7075229 77.9824788 72.236258 77.6 72.8 76.9913151 73.7260126 76.5229153 74.7369475 76.21 75.8 75.9047486 76.743135 75.6773205 77.7097048 75.53 78.69 75.4134675 79.4546966 75.3499826 80.2265396 75.34 81 75.3283418 81.7860538 75.3784963 82.5718076 75.49 83.35 75.6546024 84.1652455 75.8785315 84.9673796 76.16 85.75L75.87 85.85C75.2853582 84.8725287 74.8378372 83.8193403 74.54 82.72 74.2662981 81.6924222 74.1284575 80.6334032 74.13 79.57 74.1058908 78.3090522 74.3407322 77.0565647 74.82 75.89 75.7320838 73.9991857 77.0460165 72.3303206 78.67 71L78.89 71.22zM77.19 81.58C77.3121327 81.4909824 77.4588833 81.4420656 77.61 81.44L77.81 81.44C77.8877699 81.4625553 77.9618699 81.4962371 78.03 81.54L78.33 81.7 78.45 81.7 78.57 81.7C78.689751 81.7049257 78.8071546 81.6657911 78.9 81.59 78.97 81.52 79.17 81.27 79.49 80.85 79.81 80.43 80.18 79.85 80.92 78.85 80.92 78.85 80.86 78.5 80.73 77.93 80.6 77.36 80.48 76.93 80.37 76.48 80.3053911 76.2027794 80.2080407 75.9342266 80.08 75.68 79.9625948 75.5393359 79.7818723 75.4677999 79.6 75.49 79.4407896 75.5047172 79.2833844 75.5348586 79.13 75.58L78.65 75.7 78.58 75.43 79.52 75.11C79.7445204 75.0611147 79.9715178 75.0243945 80.2 75 80.3734124 74.9564961 80.5512393 74.9330096 80.73 74.93 80.9325263 74.9145284 81.1311371 74.9917659 81.27 75.14 81.519905 75.5510898 81.6769045 76.0118492 81.73 76.49L81.91 77.49C82.269593 76.911008 82.6671293 76.3564616 83.1 75.83 83.3111685 75.5825516 83.5570526 75.3669819 83.83 75.19 84.0200884 75.0538943 84.2463234 74.9773224 84.48 74.97 84.6531306 74.9365951 84.8318596 74.9469064 85 75 85.2174375 75.1074163 85.3450853 75.338778 85.32 75.58 85.3300452 75.7455118 85.2722784 75.907981 85.16 76.03 85.0478232 76.1386068 84.8960051 76.1964423 84.74 76.19L84.56 76.19 84.38 76.13 84.16 76.03 83.98 75.96 83.85 75.96C83.6 75.96 83.24 76.29 82.79 76.96 82.5009041 77.2721796 82.2553463 77.6220154 82.06 78 82.0927003 78.2795154 82.1427975 78.5567199 82.21 78.83 82.32 79.3 82.43 79.83 82.56 80.32 82.6307755 80.6603028 82.7277305 80.9946305 82.85 81.32 82.98 81.63 83.13 81.78 83.29 81.78 83.4751726 81.7675853 83.6462075 81.6766093 83.76 81.53 84.0163925 81.2365231 84.2567428 80.9294089 84.48 80.61L84.72 80.75C84.5161494 81.1642816 84.2751632 81.5592311 84 81.93 83.679775 82.4202341 83.1607966 82.7455093 82.58 82.82 82.2978783 82.8182856 82.0399217 82.6604316 81.91 82.41 81.7799326 82.1646897 81.6856433 81.9020267 81.63 81.63L81.1 79.52 79.35 81.81C79.1148958 82.1061614 78.8501922 82.3775663 78.56 82.62 78.3603434 82.7572289 78.12216 82.8272828 77.88 82.82 77.58603 82.8562264 77.2964942 82.7249702 77.13 82.48 77.0549785 82.3493099 77.0169521 82.2006613 77.02 82.05 76.9927256 81.8745859 77.056822 81.6973781 77.19 81.58zM84.36 85.51C84.8524651 84.9925991 85.3038333 84.4375833 85.71 83.85 86.2726236 82.9657901 86.7069516 82.0062281 87 81 87.2965698 80.0891268 87.5206023 79.1562156 87.67 78.21 87.8059756 77.3532887 87.8761807 76.4874266 87.88 75.62 87.8932598 74.7268955 87.8094345 73.8349942 87.63 72.96 87.4988287 72.3101839 87.2976554 71.6764878 87.03 71.07L87.35 70.97C87.9140606 71.9056304 88.344877 72.9153562 88.63 73.97 88.9360997 75.050075 89.0909081 76.1673878 89.09 77.29 89.1105995 78.4422171 88.9173315 79.5882624 88.52 80.67 87.6388558 82.7084204 86.2642021 84.4954703 84.52 85.87L84.36 85.51zM69.22 89.93L69.22 91.21 63.32 93 69.22 94.83 69.22 96.11 61.8 93.61 61.8 92.41 69.22 89.93zM69.22 97.47L61.8 97.47 61.8 96.33 69.22 96.33 69.22 97.47zM74.75 89.93L82.17 92.43 82.17 93.63 74.75 96.13 74.75 94.85 80.66 93 74.75 91.19 74.75 89.93zM82.17 96.33L82.17 97.47 74.75 97.47 74.75 96.33 82.17 96.33z"/>
    <polygon fill="currentColor" fill-rule="nonzero" points="95.09 91.58 95.09 92.77 92.44 92.77 91.61 94.62 95.09 94.62 95.09 95.83 91.09 95.83 90.33 97.54 89.07 97.54 89.83 95.83 87.71 95.83 87.71 94.62 90.37 94.62 91.2 92.77 87.71 92.77 87.71 91.58 91.71 91.58 92.47 89.86 93.71 89.86 93 91.58"/>
    <path stroke="currentColor" d="M49.28 0L49.28 100M.18 50L99.83 50"/>
    <ellipse cx="20.39" cy="50" fill="currentColor" fill-rule="nonzero" rx="3.37" ry="3.36"/>
    <ellipse cx="72" cy="50" fill="currentColor" fill-rule="nonzero" rx="3.37" ry="3.36"/>
    <path fill="currentColor" fill-rule="nonzero" d="M72.3,65.66 C71.7145782,65.66 71.24,65.1854218 71.24,64.6 C71.24,37.07 68.56,25.85 63.24,24.18 C57.92,22.51 49.92,34 42.73,44.14 C35.54,54.28 29.24,63.14 24.46,61.62 C20.8,60.46 19.16,53.75 19.16,39.84 L19.16,20.22 C19.2131977,19.6716486 19.6740742,19.2533199 20.225,19.2533199 C20.7759258,19.2533199 21.2368023,19.6716486 21.29,20.22 L21.29,39.84 C21.29,55.99 23.68,59.16 25.1,59.61 C28.4,60.61 35.1,51.23 41,42.92 C49,31.68 57.25,20.05 63.92,22.17 C67.92,23.45 73.36,26.02 73.36,64.6 C73.36,65.1854218 72.8854218,65.66 72.3,65.66 Z"/>
  </g>
</svg>
