<svg xmlns="http://www.w3.org/2000/svg" width="100" height="100" viewBox="0 0 100 100">
  <g fill="none" fill-rule="evenodd" stroke="currentColor" stroke-linejoin="round" transform="translate(1 5)">
    <polyline stroke-linecap="round" stroke-width="1.5" points="97.49 90.99 .39 90.99 .39 29.53"/>
    <g stroke-width=".5" transform="translate(2 30)" style="mix-blend-mode:multiply">
      <path d="M0.62,0.02 L1.89,0.82"/>
      <path stroke-dasharray="3.053 3.053" d="M4.47,2.45 L91.06,56.91"/>
      <path d="M92.35,57.72 L93.62,58.52"/>
    </g>
    <path stroke-width=".5" d="M.39 69.47C12.2767852 69.475521 21.9100013 79.1132135 21.91 91M68.62 1.11C68.6200233 6.98013675 63.8701135 11.7434644 58 11.76"/>
    <polyline stroke-linecap="round" stroke-width="1.5" points=".94 9.83 42.62 9.83 42.62 34.57"/>
    <g stroke-width=".5" transform="translate(3 11)" style="mix-blend-mode:multiply">
      <path d="M35.95,22.39 L34.66,21.61"/>
      <path stroke-dasharray="2.988 2.988" d="M32.11,20.07 L2.69,2.3"/>
      <path d="M1.41,1.53 L0.13,0.76"/>
    </g>
    <polyline stroke-linecap="round" stroke-width="1.5" points="57.57 58.03 57.57 .91 98.01 .91"/>
    <g stroke-width=".5" transform="translate(60 2)" style="mix-blend-mode:multiply">
      <path d="M37.14,0.75 L36.28,1.98"/>
      <path stroke-dasharray="2.93 2.93" d="M34.6,4.38 L1.83,51.18"/>
      <path d="M0.99,52.38 L0.13,53.61"/>
    </g>
    <path stroke-width=".5" d="M42.62,16.48 C38.9590276,16.4634842 35.9999627,13.4910097 36,9.83"/>
  </g>
</svg>
