<svg xmlns="http://www.w3.org/2000/svg" width="100" height="100" viewBox="0 0 100 100">
  <g fill="none" fill-rule="evenodd" transform="translate(1 5)">
    <g stroke="currentColor" stroke-linejoin="round" stroke-width=".75" transform="translate(0 7)">
      <path d="M47.79,0.28 C47.893935,0.264009946 47.99942,0.297012735 48.0757082,0.369388693 C48.1519963,0.441764651 48.1905014,0.545367863 48.18,0.65 L48.09,51.65 C48.0977132,51.8882958 47.9257802,52.0946153 47.69,52.13 L0.48,58.72 C0.376877805,58.7320784 0.273715647,58.6977487 0.19839283,58.6262886 C0.123070012,58.5548285 0.0833620807,58.4536147 0.09,58.35 L0.18,7.35 C0.184639926,7.11613209 0.350802697,6.91673676 0.58,6.87 L47.79,0.28 Z M47.31,51.28 L47.4,1.17 L1,7.71 L0.88,57.82 L47.31,51.3 L47.31,51.28 Z"/>
      <path d="M47.79,0.28 C47.893935,0.264009946 47.99942,0.297012735 48.0757082,0.369388693 C48.1519963,0.441764651 48.1905014,0.545367863 48.18,0.65 L48.09,51.65 C48.0977132,51.8882958 47.9257802,52.0946153 47.69,52.13 L0.48,58.72 C0.376877805,58.7320784 0.273715647,58.6977487 0.19839283,58.6262886 C0.123070012,58.5548285 0.0833620807,58.4536147 0.09,58.35 L0.18,7.35 C0.184639926,7.11613209 0.350802697,6.91673676 0.58,6.87 L47.79,0.28 Z M47.31,51.28 L47.4,1.17 L1,7.71 L0.88,57.82 L47.31,51.3 L47.31,51.28 Z"/>
      <g transform="translate(24 13)">
        <path d="M48,0.43 C48.1047211,0.414636629 48.2107699,0.447487171 48.2884685,0.519358387 C48.3661671,0.591229603 48.4071691,0.694400993 48.4,0.8 L48.3,51.8 C48.3033079,52.0367584 48.1334736,52.2405595 47.9,52.28 L0.66,58.87 C0.556065007,58.8859901 0.450580009,58.8529873 0.374291837,58.7806113 C0.298003665,58.7082353 0.259498555,58.6046321 0.27,58.5 L0.36,7.55 C0.367243734,7.31502708 0.531234286,7.11413865 0.76,7.06 L48,0.43 Z M47.52,51.43 L47.62,1.32 L1.16,7.87 L1.06,58 L47.49,51.47 L47.52,51.43 Z"/>
        <path d="M48,0.43 C48.1047211,0.414636629 48.2107699,0.447487171 48.2884685,0.519358387 C48.3661671,0.591229603 48.4071691,0.694400993 48.4,0.8 L48.3,51.8 C48.3033079,52.0367584 48.1334736,52.2405595 47.9,52.28 L0.66,58.87 C0.556065007,58.8859901 0.450580009,58.8529873 0.374291837,58.7806113 C0.298003665,58.7082353 0.259498555,58.6046321 0.27,58.5 L0.36,7.55 C0.367243734,7.31502708 0.531234286,7.11413865 0.76,7.06 L48,0.43 Z M47.52,51.43 L47.62,1.32 L1.16,7.87 L1.06,58 L47.49,51.47 L47.52,51.43 Z"/>
      </g>
      <g transform="translate(47)">
        <path d="M25 13.43L.79.28C.893934993.264009946.999419991.297012735 1.07570816.369388693 1.15199634.441764651 1.19050145.545367863 1.18.65L25.37 13.8C25.3758873 13.7001812 25.3387998 13.6026107 25.2680946 13.5319054 25.1973893 13.4612002 25.0998188 13.4241127 25 13.43zM25.31 13.6L1.13.44"/>
        <path d="M25.18,13.47 C25.2994206,13.5364663 25.3724755,13.6633511 25.370061,13.8 L1.18,0.65 C1.18603894,0.512423548 1.11717431,0.382345907 1,0.31 L25.18,13.47 Z"/>
        <path d="M25.18,13.47 C25.2994206,13.5364663 25.3724755,13.6633511 25.370061,13.8 L1.18,0.65 C1.18603894,0.512423548 1.11717431,0.382345907 1,0.31 L25.18,13.47 Z"/>
      </g>
      <g transform="translate(47)">
        <path d="M25 13.43L.79.28C.893934993.264009946.999419991.297012735 1.07570816.369388693 1.15199634.441764651 1.19050145.545367863 1.18.65L25.37 13.8C25.3758873 13.7001812 25.3387998 13.6026107 25.2680946 13.5319054 25.1973893 13.4612002 25.0998188 13.4241127 25 13.43zM25.17 13.46L.99.31"/>
        <path d="M1,0.31 L25.18,13.47 C25.1122861,13.4446999 25.0377139,13.4446999 24.97,13.47 L0.79,0.28 C0.861317585,0.264091682 0.935989448,0.274759091 1,0.31 Z"/>
        <path d="M1,0.31 L25.18,13.47 C25.1122861,13.4446999 25.0377139,13.4446999 24.97,13.47 L0.79,0.28 C0.861317585,0.264091682 0.935989448,0.274759091 1,0.31 Z"/>
      </g>
      <g transform="translate(48)">
        <polygon points="24.36 13.8 24.27 64.76 .09 51.6 .18 .65"/>
        <polygon points="24.36 13.8 24.27 64.76 .09 51.6 .18 .65"/>
      </g>
      <g transform="translate(47 51)">
        <path d="M25.27 13.76L1.09.6C1.09771317.838295798.925780208 1.04461535.69 1.08L24.87 14.24C25.1034736 14.2005595 25.2733079 13.9967584 25.27 13.76zM25.22 13.98L1.04.83M25.08 14.15L.9 1"/>
        <path d="M25.27,13.76 C25.2733079,13.9967584 25.1034736,14.2005595 24.87,14.24 L0.69,1.08 C0.925780208,1.04461535 1.09771317,0.838295798 1.09,0.6 L25.27,13.76 Z"/>
        <path d="M25.27,13.76 C25.2733079,13.9967584 25.1034736,14.2005595 24.87,14.24 L0.69,1.08 C0.925780208,1.04461535 1.09771317,0.838295798 1.09,0.6 L25.27,13.76 Z"/>
      </g>
      <g transform="translate(0 52)">
        <polygon points="71.87 13.24 24.66 19.87 .48 6.72 47.69 .09"/>
        <polygon points="71.87 13.24 24.66 19.87 .48 6.72 47.69 .09"/>
      </g>
      <g transform="translate(0 58)">
        <path d="M24.66 13.87L.48.72C.376877805.732078365.273715647.697748748.19839283.626288639.123070012.55482853.0833620807.453614729.09.35L24.27 13.5C24.2594986 13.6046321 24.2980037 13.7082353 24.3742918 13.7806113 24.45058 13.8529873 24.556065 13.8859901 24.66 13.87zM24.32 13.71L.14.56"/>
        <path d="M24.45,13.84 L0.27,0.68 C0.152775114,0.612544942 0.0832481042,0.485078757 0.09,0.35 L24.27,13.5 C24.2617328,13.6380689 24.3311658,13.76922 24.45,13.84 Z"/>
        <path d="M24.45,13.84 L0.27,0.68 C0.152775114,0.612544942 0.0832481042,0.485078757 0.09,0.35 L24.27,13.5 C24.2617328,13.6380689 24.3311658,13.76922 24.45,13.84 Z"/>
      </g>
      <g transform="translate(0 58)">
        <path d="M24.66 13.87L.48.72C.376877805.732078365.273715647.697748748.19839283.626288639.123070012.55482853.0833620807.453614729.09.35L24.27 13.5C24.2594986 13.6046321 24.2980037 13.7082353 24.3742918 13.7806113 24.45058 13.8529873 24.556065 13.8859901 24.66 13.87zM24.47 13.85L.29.69"/>
        <path d="M0.27,0.68 C0.337868178,0.704431746 0.412131822,0.704431746 0.48,0.68 L24.66,13.87 C24.5914691,13.8902818 24.5185309,13.8902818 24.45,13.87 L0.27,0.68 Z"/>
        <path d="M0.27,0.68 C0.337868178,0.704431746 0.412131822,0.704431746 0.48,0.68 L24.66,13.87 C24.5914691,13.8902818 24.5185309,13.8902818 24.45,13.87 L0.27,0.68 Z"/>
      </g>
      <g transform="translate(0 7)">
        <polygon points="24.27 64.5 .09 51.35 .18 .39 24.36 13.55"/>
        <polygon points="24.27 64.5 .09 51.35 .18 .39 24.36 13.55"/>
      </g>
      <g transform="translate(0 6)">
        <path d="M24.36 14.55L.18 1.39C.184639926 1.15613209.350802697.956736764.58.91L24.76 14.06C24.5312343 14.1141387 24.3672437 14.3150271 24.36 14.55zM24.42 14.33L.24 1.17M24.56 14.15L.38 1"/>
        <path d="M24.36,14.55 L0.18,1.39 C0.184639926,1.15613209 0.350802697,0.956736764 0.58,0.91 L24.76,14.06 C24.5312343,14.1141387 24.3672437,14.3150271 24.36,14.55 Z"/>
        <path d="M24.36,14.55 L0.18,1.39 C0.184639926,1.15613209 0.350802697,0.956736764 0.58,0.91 L24.76,14.06 C24.5312343,14.1141387 24.3672437,14.3150271 24.36,14.55 Z"/>
      </g>
      <polygon points="24.76 20.07 .58 6.91 47.79 .28 71.97 13.43"/>
      <polygon points="24.76 20.07 .58 6.91 47.79 .28 71.97 13.43"/>
      <g transform="translate(47 1)">
        <polygon points="24.49 63.45 .31 50.3 .4 .19 24.58 13.34"/>
        <polygon points="24.49 63.45 .31 50.3 .4 .19 24.58 13.34"/>
      </g>
      <g transform="translate(0 1)">
        <polygon points="71.58 13.34 25.16 19.86 .98 6.71 47.4 .19"/>
        <polygon points="71.58 13.34 25.16 19.86 .98 6.71 47.4 .19"/>
      </g>
      <g transform="translate(0 7)">
        <polygon points="25.16 13.86 25.06 63.98 .88 50.82 .98 .71"/>
        <polygon points="25.16 13.86 25.06 63.98 .88 50.82 .98 .71"/>
      </g>
      <g transform="translate(0 51)">
        <polygon points="25.06 19.98 .88 6.82 47.31 .3 71.49 13.45"/>
        <polygon points="25.06 19.98 .88 6.82 47.31 .3 71.49 13.45"/>
      </g>
    </g>
    <path fill="currentColor" fill-rule="nonzero" d="M84.26,0.31 L84.26,2.18 L92.12,2.18 L92.12,3.65 L84.26,3.65 L84.26,5.73 L87.64,5.73 L87.64,5.94 L84.26,5.94 L84.26,8 L89,8 L89,8.51 L84.26,8.51 L84.26,10.59 L87.64,10.59 L87.64,10.81 L84.26,10.81 L84.26,12.89 L90.51,12.89 L90.51,13.89 L84.26,13.89 L84.26,16 L87.64,16 L87.64,16.22 L84.26,16.22 L84.26,18.3 L89,18.3 L89,18.81 L84.26,18.81 L84.26,20.9 L87.64,20.9 L87.64,21.11 L84.26,21.11 L84.26,23.19 L92.12,23.19 L92.12,24.66 L84.26,24.66 L84.26,26.7 L87.64,26.7 L87.64,26.92 L84.26,26.92 L84.26,29 L89,29 L89,29.51 L84.26,29.51 L84.26,31.6 L87.64,31.6 L87.64,31.81 L84.26,31.81 L84.26,33.89 L90.51,33.89 L90.51,34.89 L84.26,34.89 L84.26,36.97 L87.64,36.97 L87.64,37.19 L84.26,37.19 L84.26,39.27 L89,39.27 L89,39.78 L84.26,39.78 L84.26,41.87 L87.64,41.87 L87.64,42 L84.26,42 L84.26,44.09 L92.12,44.09 L92.12,45.55 L84.26,45.55 L84.26,47.63 L87.64,47.63 L87.64,47.85 L84.26,47.85 L84.26,50 L89,50 L89,50.52 L84.26,50.52 L84.26,52.6 L87.64,52.6 L87.64,52.81 L84.26,52.81 L84.26,57.94 L87.64,57.94 L87.64,58.15 L84.26,58.15 L84.26,60.24 L89,60.24 L89,60.75 L84.26,60.75 L84.26,62.8 L87.64,62.8 L87.64,63 L84.26,63 L84.26,65.1 L92.12,65.1 L92.12,66.56 L84.26,66.56 L84.26,68.65 L87.64,68.65 L87.64,68.86 L84.26,68.86 L84.26,71 L89,71 L89,71.51 L84.26,71.51 L84.26,73.59 L87.64,73.59 L87.64,73.81 L84.26,73.81 L84.26,75.89 L90.51,75.89 L90.51,76.89 L84.26,76.89 L84.26,78.97 L87.64,78.97 L87.64,79.18 L84.26,79.18 L84.26,81.27 L89,81.27 L89,81.78 L84.26,81.78 L84.26,83.86 L87.64,83.86 L87.64,84 L84.26,84 L84.26,86.08 L92,86.08 L92,87.55 L84.26,87.55 L84.26,89.4 L98.06,89.4 L98.06,0.31 L84.26,0.31 Z M90.51,55.82 L84.34,55.82 L84.34,54.82 L90.51,54.82 L90.51,55.82 Z"/>
  </g>
</svg>
