<svg xmlns="http://www.w3.org/2000/svg" width="100" height="100" viewBox="0 0 100 100">
  <g fill="none" fill-rule="evenodd" transform="translate(1 2)">
    <path stroke="currentColor" stroke-linecap="round" stroke-linejoin="round" stroke-width="2" d="M6.3,85.71 C6.3,48.77 33.7,31.71 79.91,34.84"/>
    <polygon fill="currentColor" fill-rule="nonzero" points="77.23 38.17 90.5 35.86 77.85 31.23"/>
    <path fill="currentColor" fill-rule="nonzero" d="M27.9 69.56C27.7270553 69.7926741 27.4495747 69.923915 27.16 69.91 26.9059644 69.9166854 26.6602578 69.8191254 26.48 69.64 26.307622 69.4841168 26.2094887 69.262408 26.21 69.03 26.2431568 68.7354834 26.3242254 68.4483657 26.45 68.18 26.4422866 68.0671114 26.3833418 67.9639581 26.29 67.9 26.1920697 67.8265111 26.0724178 67.7878002 25.95 67.79 25.35 67.79 24.84 68.44 24.43 69.79 24.095614 71.0430476 23.8384637 72.3154405 23.66 73.6L26.37 73.6 26.2 74.42 23.43 74.42 21.11 82.35C20.7351163 84.1473041 20.0589109 85.8682468 19.11 87.44 18.4832531 88.5796802 17.3001064 89.302503 16 89.34 15.4756112 89.3647448 14.9601587 89.1976671 14.55 88.87 14.2078165 88.6224963 13.9977987 88.231937 13.98 87.81 13.9820918 87.56294 14.0665507 87.3236397 14.22 87.13 14.3909661 86.9157771 14.6566659 86.7997673 14.93 86.82 15.1895319 86.8157407 15.4405512 86.9125625 15.63 87.09 15.8143414 87.2633699 15.9161637 87.507016 15.91 87.76 15.9059737 87.9173538 15.8648587 88.0715348 15.79 88.21 15.7234594 88.3019924 15.6789785 88.4080622 15.66 88.52 15.66 88.59 15.71 88.65 15.8 88.7 15.9122255 88.7531706 16.0360274 88.7772432 16.16 88.77 16.85 88.77 17.43 88.23 17.91 87.14 18.218896 86.3854657 18.4500905 85.6014149 18.6 84.8L21.49 74.38 19.19 74.38 19.36 73.56 21.72 73.56C22.0057233 72.097059 22.5079075 70.6848765 23.21 69.37 23.7467767 68.1723396 24.9005426 67.3685494 26.21 67.28 26.7127493 67.2574643 27.2055154 67.4252904 27.59 67.75 27.9292867 68.0110082 28.1316298 68.4120156 28.14 68.84 28.1470818 69.1007441 28.0621119 69.3556538 27.9 69.56zM33.62 67.89C32.9439584 68.5864531 32.3284047 69.3391683 31.78 70.14 30.9144298 71.4542434 30.2409657 72.8853546 29.78 74.39 29.3391928 75.7349995 29.0048289 77.1125786 28.78 78.51 28.6108114 79.5888139 28.51725 80.6781361 28.5 81.77 28.4836988 82.8911109 28.5606304 84.0116366 28.73 85.12 28.9564757 86.2831524 29.2741226 87.4266814 29.68 88.54L29.26 88.69C27.6322438 85.9705037 26.7749675 82.8594204 26.78 79.69 26.7492564 77.8931345 27.0896905 76.10926 27.78 74.45 29.0805137 71.7460231 30.9538529 69.3574302 33.27 67.45L33.62 67.89zM31.19 82.66C31.444233 82.4679191 31.7747851 82.408494 32.08 82.5 32.1895042 82.5315814 32.2939038 82.5787296 32.39 82.64L32.82 82.87 32.98 82.94 33.16 82.94C33.3299202 82.9505996 33.497635 82.8970736 33.63 82.79 33.9319713 82.4546481 34.2125264 82.1006142 34.47 81.73 34.77 81.33 35.4366667 80.36 36.47 78.82 36.47 78.82 36.38 78.33 36.19 77.52 36 76.71 35.84 76.01 35.68 75.45 35.5974312 75.0526642 35.459414 74.668909 35.27 74.31 35.1044183 74.1096385 34.8479242 74.0077953 34.59 74.04 34.3633934 74.0588682 34.1390687 74.0990457 33.92 74.16 33.71 74.16 33.48 74.26 33.24 74.33L33.17 74 34.52 73.54C34.87 73.42 35.19 73.32 35.52 73.25 35.7682076 73.1839714 36.0232569 73.1470563 36.28 73.14 36.5658204 73.1189126 36.8456468 73.2293705 37.04 73.44 37.3943831 74.0256198 37.6194162 74.6802616 37.7 75.36L37.95 76.75C38.466486 75.9283746 39.0342798 75.1401431 39.65 74.39 39.9389883 74.0383788 40.275557 73.7287356 40.65 73.47 40.9217806 73.282941 41.2404346 73.1755684 41.57 73.16 41.8000838 73.1546422 42.0286156 73.1989841 42.24 73.29 42.5525127 73.4372672 42.7372257 73.7665381 42.7 74.11 42.7126581 74.3486078 42.629912 74.5824555 42.47 74.76 42.3089929 74.9141156 42.0927687 74.9970015 41.87 74.99 41.7869948 75.0004577 41.7030052 75.0004577 41.62 74.99L41.36 74.9 41.05 74.76 40.79 74.66C40.7304226 74.6499296 40.6695774 74.6499296 40.61 74.66 40.24 74.66 39.74 75.13 39.09 76.07 38.6775274 76.5642983 38.3405379 77.116961 38.09 77.71 38.1369929 78.1077908 38.2104896 78.5020006 38.31 78.89 38.46 79.56 38.63 80.26 38.81 81.01 38.9072923 81.5068743 39.0444013 81.9951159 39.22 82.47 39.41 82.91 39.61 83.12 39.85 83.12 40.1120326 83.0929321 40.3528011 82.9635639 40.52 82.76 40.8768242 82.3417759 41.21065 81.904464 41.52 81.45L41.86 81.65C41.5517548 82.222767 41.1901522 82.765171 40.78 83.27 40.3262083 83.9587424 39.5971646 84.41804 38.78 84.53 38.3625429 84.5463553 37.9730952 84.3204757 37.78 83.95 37.5954332 83.5969964 37.4608126 83.2200587 37.38 82.83L36.63 79.83 34.22 83C33.8855472 83.4196391 33.5066761 83.801863 33.09 84.14 32.7997145 84.3483361 32.4467083 84.450708 32.09 84.43 31.6948854 84.4599597 31.3137638 84.2770213 31.09 83.95 30.9777261 83.7668739 30.9220627 83.5546569 30.93 83.34 30.8934688 83.0836483 30.9917576 82.8265853 31.19 82.66zM41.41 88.25C42.1111571 87.51245 42.7562826 86.7235918 43.34 85.89 44.1587655 84.6055624 44.7917035 83.211752 45.22 81.75 45.6555177 80.4443131 45.9898394 79.1070262 46.22 77.75 46.4148206 76.526195 46.5151171 75.2892053 46.52 74.05 46.5332386 72.7780222 46.415958 71.5080415 46.17 70.26 45.9825642 69.3378103 45.6941598 68.4390618 45.31 67.58L45.77 67.43C46.5652717 68.7440505 47.1775826 70.16044 47.59 71.64 48.0268596 73.1787313 48.2489608 74.7704566 48.25 76.37 48.2801439 78.0137824 48.0020114 79.6486589 47.43 81.19 46.1881131 84.0917897 44.2428709 86.638476 41.77 88.6L41.41 88.25z"/>
    <polyline stroke="currentColor" stroke-linecap="round" stroke-linejoin="round" stroke-width="1.5" points="97.4 96.39 .22 96.39 .22 .35"/>
  </g>
</svg>
