<svg xmlns="http://www.w3.org/2000/svg" width="100" height="100" viewBox="0 0 100 100">
  <g fill="currentColor" transform="translate(1 2)">
    <path d="M61.85,25.28 C62.0168518,25.7296155 62.1505429,26.1908498 62.25,26.66 C62.32,27.02 62.4,27.48 62.47,28.03 L62.81,26.53 C62.92,26.06 63.04,25.62 63.16,25.21 L71.16,0.1 L79.64,0.1 L79.64,2 L72.47,2 L62.47,32.65 L61.47,32.65 L55,16 C54.1584826,15.824592 53.3598782,15.4847603 52.65,15 L52.65,14.06 L57.9,14.06 L61.85,25.28 Z"/>
    <polygon points="73.31 20.9 83.52 20.9 83.52 23.15 73.31 23.15"/>
    <path d="M94.73 32.2L84.15 32.2 84.15 31.15C84.76 30.89 85.37 30.65 85.98 30.44 86.59 30.23 87.22 30.07 87.85 29.92L87.85 12.13 88 10C87.3246866 10.2714319 86.6198738 10.4627382 85.9 10.57 85.1578647 10.6711197 84.408691 10.711254 83.66 10.69L83.48 9.82C84.6527156 9.43554491 85.8014267 8.98140329 86.92 8.46 88.0964589 7.93443557 89.2018645 7.26245651 90.21 6.46L91.12 6.46 91.12 29.92C91.72 30.07 92.33 30.24 92.93 30.44 93.53 30.64 94.14 30.89 94.74 31.15L94.73 32.2zM49 74L49 75.89C47.0601451 76.7539148 45.0536059 77.4595477 43 78 40.9242417 78.5565011 38.8215263 79.0070829 36.7 79.35L34.4 79.35 34.4 39.17 17.21 39.17 17.21 56.27C17.21 58.18 17.13 60.17 16.98 62.21 16.83 64.25 16.59 66.21 16.26 68.21 15.93 70.21 15.55 72.01 15.1 73.78 14.7023646 75.3861699 14.2047278 76.9659163 13.61 78.51 12.8781793 78.8514662 12.0773373 79.0191639 11.27 79 10.25 79.04 9.25 79.04 8.27 79 7.42636027 78.977058 6.58485273 78.9035931 5.75 78.78 5.03 78.66 4.67 78.57 4.67 78.51L4.22 77.79C5.73308519 75.335646 6.94196548 72.7063313 7.82 69.96 8.94887539 66.6217592 9.87719758 63.2190242 10.6 59.77 11.35 56.17 11.91 52.56 12.31 48.93 12.6759099 45.6892226 12.8695156 42.4313048 12.89 39.17L11.36 39.17C9.65388594 39.1783931 7.9792068 39.6297983 6.5 40.48 4.76931166 41.4941676 3.26770539 42.8561687 2.09 44.48L.93 43.75C1.20468119 42.3149219 1.59255994 40.9038458 2.09 39.53 2.55155538 38.2403461 3.27313816 37.0592649 4.21 36.06 5.24252747 35.0075132 6.50585769 34.2098006 7.9 33.73 9.80026835 33.1198448 11.7982721 32.8722144 13.79 33 14.45 33 15.67 33 17.44 33.09L23.64 33.27 31.25 33.45C45.76 33.78 24.63 33.54 38.99 33.54 40.9 33.54 42.51 33.54 43.8 33.54 44.8766558 33.5048217 45.9478128 33.3709271 47 33.14 47.761269 32.9957013 48.500717 32.7537001 49.2 32.42 49.8538072 32.0826504 50.4592408 31.6588469 51 31.16L52.3 32C52.080853 33.8678088 51.2756756 35.6181944 50 37 48.4569787 38.5374925 46.3224241 39.3292846 44.15 39.17L43 39.17 43 73.27 49 74zM60.22 61.94L65 69.13C66.23 70.99 67.28 72.72 68.38 74.59L68.59 74.59C69.69 72.59 70.8 70.86 71.9 69.05L76.6 61.94 83.17 61.94 71.76 78.11 83.5 95.39 76.59 95.39 71.69 87.86C70.37 85.92 69.26 84.05 68.1 82.05L68 82.05C66.9 84.05 65.72 85.85 64.48 87.86L59.64 95.39 52.94 95.39 64.77 78.31 53.45 61.94 60.22 61.94zM83.55 71.65L87.07 68.34C91.71 64.16 94.07 61.53 94.07 58.68 94.07 56.55 92.74 54.76 89.83 54.76 88.1243186 54.8556797 86.4867904 55.4619135 85.13 56.5L84 54C85.9408949 52.4667862 88.3466481 51.6413518 90.82 51.66 96.07 51.66 98.25 54.96 98.25 57.97 98.25 62.16 95.06 65.24 90.82 68.97L89.08 70.54 89.08 70.65 98.64 70.65 98.64 73.72 83.55 73.72 83.55 71.65z"/>
  </g>
</svg>
