<svg xmlns="http://www.w3.org/2000/svg" xmlns:xlink="http://www.w3.org/1999/xlink" width="100" height="100" viewBox="0 0 100 100">
  <defs>
    <polygon id="mathematics-performance-task-a" points=".183 .832 14.458 .832 14.458 18.131 .183 18.131"/>
    <path id="mathematics-performance-task-c" d="M14.238,0.832 C14.231,0.832 14.224,0.833 14.217,0.834 L0.422,2.772 C0.307,2.789 0.212,2.901 0.212,3.022 L0.183,17.911 C0.183,17.978 0.211,18.04 0.258,18.081 C0.296,18.113 0.344,18.132 0.395,18.132 C0.404,18.132 0.414,18.13 0.425,18.128 L14.22,16.19 C14.339,16.173 14.43,16.066 14.43,15.941 L14.458,1.052 C14.458,0.985 14.43,0.922 14.383,0.882 C14.347,0.851 14.304,0.834 14.257,0.832 L14.238,0.832 Z M0.431,3.023 C0.431,3.008 0.445,2.991 0.452,2.988 L14.239,1.052 L14.211,15.94 C14.211,15.958 14.199,15.972 14.189,15.974 L0.403,17.911 L0.431,3.023 Z M14.105,1.099 L0.538,3.006 C0.483,3.014 0.443,3.06 0.443,3.114 L0.416,17.758 C0.416,17.791 0.43,17.82 0.453,17.841 C0.473,17.859 0.499,17.868 0.525,17.868 C0.53,17.868 0.535,17.868 0.54,17.867 L14.108,15.96 C14.162,15.953 14.202,15.907 14.202,15.852 L14.23,1.208 C14.23,1.177 14.216,1.146 14.193,1.125 C14.171,1.107 14.145,1.098 14.119,1.098 C14.114,1.098 14.109,1.099 14.105,1.099 Z M0.662,3.211 L14.01,1.334 L13.983,15.757 L0.635,17.632 L0.662,3.211 Z"/>
    <path id="mathematics-performance-task-e" d="M14.283,0.678 L0.489,2.617 C0.373,2.632 0.278,2.745 0.277,2.866 L0.25,17.755 C0.25,17.822 0.277,17.883 0.324,17.924 C0.363,17.958 0.411,17.975 0.461,17.975 C0.471,17.975 0.481,17.974 0.49,17.973 L14.285,16.033 C14.405,16.018 14.496,15.911 14.496,15.785 L14.524,0.895 C14.524,0.829 14.497,0.767 14.449,0.726 C14.412,0.693 14.364,0.675 14.314,0.675 C14.304,0.675 14.293,0.676 14.283,0.678 Z M0.497,2.867 C0.497,2.852 0.512,2.836 0.518,2.833 L14.305,0.896 L14.278,15.783 C14.278,15.802 14.266,15.816 14.256,15.817 L0.469,17.756 L0.497,2.867 Z M14.171,0.944 L0.604,2.85 C0.55,2.858 0.509,2.904 0.509,2.958 L0.482,17.602 C0.482,17.635 0.496,17.663 0.519,17.685 C0.54,17.703 0.565,17.713 0.592,17.713 C0.597,17.713 0.601,17.711 0.607,17.71 L14.175,15.804 C14.228,15.797 14.269,15.751 14.269,15.696 L14.296,1.052 C14.296,1.02 14.282,0.99 14.258,0.969 C14.239,0.952 14.213,0.943 14.187,0.943 C14.182,0.943 14.176,0.943 14.171,0.944 Z M0.728,3.055 L14.076,1.178 L14.05,15.601 L0.701,17.476 L0.728,3.055 Z"/>
    <path id="mathematics-performance-task-g" d="M0.198,0.9 C0.169,0.953 0.188,1.018 0.24,1.047 L0.239,1.052 C0.239,1.091 0.26,1.128 0.296,1.147 L7.362,4.991 C7.378,5 7.396,5.004 7.414,5.004 C7.433,5.004 7.453,5 7.471,4.989 C7.503,4.969 7.524,4.933 7.524,4.895 C7.524,4.812 7.481,4.738 7.413,4.701 L0.347,0.856 C0.33,0.847 0.312,0.843 0.295,0.843 C0.256,0.843 0.218,0.864 0.198,0.9"/>
    <path id="mathematics-performance-task-i" d="M0.198,0.9 C0.169,0.953 0.188,1.018 0.24,1.047 L0.239,1.052 C0.239,1.091 0.26,1.128 0.296,1.147 L7.362,4.991 C7.378,5 7.396,5.004 7.414,5.004 C7.433,5.004 7.453,5 7.471,4.989 C7.503,4.969 7.524,4.933 7.524,4.895 C7.524,4.812 7.481,4.738 7.413,4.701 L0.347,0.856 C0.33,0.847 0.312,0.843 0.295,0.843 C0.256,0.843 0.218,0.864 0.198,0.9 Z"/>
    <path id="mathematics-performance-task-k" d="M0.198,0.9 C0.169,0.953 0.188,1.018 0.24,1.047 L0.239,1.052 C0.239,1.091 0.26,1.128 0.296,1.147 L7.362,4.991 C7.378,5 7.396,5.004 7.414,5.004 C7.433,5.004 7.453,5 7.471,4.989 C7.503,4.969 7.524,4.933 7.524,4.895 C7.524,4.812 7.481,4.738 7.413,4.701 L0.347,0.856 C0.33,0.847 0.312,0.843 0.295,0.843 C0.256,0.843 0.218,0.864 0.198,0.9"/>
    <polygon id="mathematics-performance-task-m" points=".123 .832 7.47 .832 7.47 4.907 .123 4.907"/>
    <path id="mathematics-performance-task-o" d="M0.235,0.832 C0.229,0.832 0.223,0.833 0.216,0.834 C0.17,0.84 0.133,0.876 0.124,0.924 C0.116,0.97 0.139,1.016 0.179,1.039 L7.246,4.882 C7.268,4.894 7.285,4.896 7.307,4.893 C7.325,4.902 7.342,4.907 7.36,4.907 C7.399,4.907 7.437,4.887 7.457,4.85 C7.486,4.796 7.466,4.73 7.413,4.701 L7.412,4.7 L0.347,0.856 C0.319,0.842 0.291,0.834 0.261,0.832"/>
    <path id="mathematics-performance-task-q" d="M0.235,0.832 C0.229,0.832 0.223,0.833 0.216,0.834 C0.17,0.84 0.133,0.876 0.124,0.924 C0.116,0.97 0.139,1.016 0.179,1.039 L7.246,4.882 C7.268,4.894 7.285,4.896 7.307,4.893 C7.325,4.902 7.342,4.907 7.36,4.907 C7.399,4.907 7.437,4.887 7.457,4.85 C7.486,4.796 7.466,4.73 7.413,4.701 L7.412,4.7 L0.347,0.856 C0.319,0.842 0.291,0.834 0.261,0.832 L0.235,0.832 Z"/>
    <path id="mathematics-performance-task-s" d="M0.235,0.832 C0.229,0.832 0.223,0.833 0.216,0.834 C0.17,0.84 0.133,0.876 0.124,0.924 C0.116,0.97 0.139,1.016 0.179,1.039 L7.246,4.882 C7.268,4.894 7.285,4.896 7.307,4.893 C7.325,4.902 7.342,4.907 7.36,4.907 C7.399,4.907 7.437,4.887 7.457,4.85 C7.486,4.796 7.466,4.73 7.413,4.701 L7.412,4.7 L0.347,0.856 C0.319,0.842 0.291,0.834 0.261,0.832"/>
    <path id="mathematics-performance-task-u" d="M0.292,0.956 C0.258,0.976 0.239,1.012 0.239,1.051 L0.211,15.94 C0.211,15.98 0.232,16.017 0.268,16.037 L7.334,19.88 C7.35,19.889 7.369,19.894 7.387,19.894 C7.406,19.894 7.426,19.889 7.442,19.879 C7.476,19.859 7.496,19.823 7.496,19.785 L7.524,4.895 C7.524,4.855 7.502,4.818 7.467,4.798 L0.401,0.954 C0.384,0.946 0.366,0.941 0.348,0.941 C0.328,0.941 0.309,0.946 0.292,0.956 Z M0.43,15.876 L0.457,1.235 L7.305,4.959 L7.278,19.601 L0.43,15.876 Z"/>
    <path id="mathematics-performance-task-w" d="M0.265,0.846 C0.232,0.866 0.211,0.901 0.211,0.94 C0.211,0.958 0.199,0.972 0.188,0.974 C0.141,0.98 0.105,1.016 0.096,1.062 C0.087,1.109 0.11,1.155 0.152,1.178 L7.219,5.022 C7.234,5.031 7.252,5.035 7.27,5.035 C7.276,5.035 7.28,5.034 7.285,5.033 C7.405,5.018 7.496,4.911 7.496,4.785 C7.496,4.745 7.475,4.708 7.439,4.688 L0.373,0.844 C0.356,0.835 0.338,0.831 0.32,0.831 C0.301,0.831 0.282,0.836 0.265,0.846"/>
    <path id="mathematics-performance-task-y" d="M0.265,0.846 C0.232,0.866 0.211,0.901 0.211,0.94 C0.211,0.958 0.199,0.972 0.188,0.974 C0.141,0.98 0.105,1.016 0.096,1.062 C0.087,1.109 0.11,1.155 0.152,1.178 L7.219,5.022 C7.234,5.031 7.252,5.035 7.27,5.035 C7.276,5.035 7.28,5.034 7.285,5.033 C7.405,5.018 7.496,4.911 7.496,4.785 C7.496,4.745 7.475,4.708 7.439,4.688 L0.373,0.844 C0.356,0.835 0.338,0.831 0.32,0.831 C0.301,0.831 0.282,0.836 0.265,0.846 Z"/>
    <path id="mathematics-performance-task-A" d="M0.265,0.846 C0.232,0.866 0.211,0.901 0.211,0.94 C0.211,0.958 0.199,0.972 0.188,0.974 C0.141,0.98 0.105,1.016 0.096,1.062 C0.087,1.109 0.11,1.155 0.152,1.178 L7.219,5.022 C7.234,5.031 7.252,5.035 7.27,5.035 C7.276,5.035 7.28,5.034 7.285,5.033 C7.405,5.018 7.496,4.911 7.496,4.785 C7.496,4.745 7.475,4.708 7.439,4.688 L0.373,0.844 C0.356,0.835 0.338,0.831 0.32,0.831 C0.301,0.831 0.282,0.836 0.265,0.846 Z"/>
    <path id="mathematics-performance-task-C" d="M0.265,0.846 C0.232,0.866 0.211,0.901 0.211,0.94 C0.211,0.958 0.199,0.972 0.188,0.974 C0.141,0.98 0.105,1.016 0.096,1.062 C0.087,1.109 0.11,1.155 0.152,1.178 L7.219,5.022 C7.234,5.031 7.252,5.035 7.27,5.035 C7.276,5.035 7.28,5.034 7.285,5.033 C7.405,5.018 7.496,4.911 7.496,4.785 C7.496,4.745 7.475,4.708 7.439,4.688 L0.373,0.844 C0.356,0.835 0.338,0.831 0.32,0.831 C0.301,0.831 0.282,0.836 0.265,0.846"/>
    <path id="mathematics-performance-task-E" d="M14.189,0.974 L0.395,2.911 C0.346,2.919 0.309,2.954 0.302,3.001 C0.293,3.047 0.316,3.094 0.357,3.117 L7.423,6.96 C7.439,6.969 7.457,6.974 7.475,6.974 C7.481,6.974 7.485,6.974 7.49,6.973 L21.286,5.033 C21.333,5.028 21.37,4.992 21.378,4.945 C21.387,4.899 21.364,4.852 21.324,4.829 L14.257,0.986 C14.241,0.977 14.222,0.972 14.205,0.972 C14.199,0.972 14.194,0.973 14.189,0.974 Z M0.753,3.082 L14.184,1.195 L20.927,4.863 L7.496,6.751 L0.753,3.082 Z"/>
    <path id="mathematics-performance-task-G" d="M0.238,0.817 C0.205,0.837 0.184,0.873 0.183,0.911 C0.183,0.995 0.226,1.069 0.295,1.106 L7.359,4.949 C7.36,4.95 7.36,4.95 7.361,4.95 C7.378,4.959 7.395,4.963 7.413,4.963 C7.452,4.963 7.49,4.941 7.509,4.906 C7.538,4.853 7.519,4.788 7.468,4.759 L7.469,4.755 C7.469,4.716 7.447,4.679 7.412,4.66 L0.345,0.816 C0.329,0.807 0.311,0.802 0.294,0.802 C0.275,0.802 0.256,0.807 0.238,0.817"/>
    <path id="mathematics-performance-task-I" d="M0.238,0.817 C0.205,0.837 0.184,0.873 0.183,0.911 C0.183,0.995 0.226,1.069 0.295,1.106 L7.359,4.949 C7.36,4.95 7.36,4.95 7.361,4.95 C7.378,4.959 7.395,4.963 7.413,4.963 C7.452,4.963 7.49,4.941 7.509,4.906 C7.538,4.853 7.519,4.788 7.468,4.759 L7.469,4.755 C7.469,4.716 7.447,4.679 7.412,4.66 L0.345,0.816 C0.329,0.807 0.311,0.802 0.294,0.802 C0.275,0.802 0.256,0.807 0.238,0.817 Z"/>
    <path id="mathematics-performance-task-K" d="M0.238,0.817 C0.205,0.837 0.184,0.873 0.183,0.911 C0.183,0.995 0.226,1.069 0.295,1.106 L7.359,4.949 C7.36,4.95 7.36,4.95 7.361,4.95 C7.378,4.959 7.395,4.963 7.413,4.963 C7.452,4.963 7.49,4.941 7.509,4.906 C7.538,4.853 7.519,4.788 7.468,4.759 L7.469,4.755 C7.469,4.716 7.447,4.679 7.412,4.66 L0.345,0.816 C0.329,0.807 0.311,0.802 0.294,0.802 C0.275,0.802 0.256,0.807 0.238,0.817"/>
    <path id="mathematics-performance-task-M" d="M0.251,0.957 C0.222,1.01 0.241,1.077 0.295,1.106 L7.36,4.95 C7.391,4.967 7.425,4.975 7.46,4.975 C7.471,4.975 7.481,4.974 7.49,4.973 C7.537,4.967 7.575,4.93 7.583,4.884 C7.592,4.837 7.57,4.79 7.527,4.768 L0.461,0.925 C0.443,0.914 0.417,0.91 0.397,0.911 C0.381,0.904 0.364,0.9 0.348,0.9 C0.309,0.9 0.271,0.921 0.251,0.957"/>
    <path id="mathematics-performance-task-O" d="M0.251,0.957 C0.222,1.01 0.241,1.077 0.295,1.106 L7.36,4.95 C7.391,4.967 7.425,4.975 7.46,4.975 C7.471,4.975 7.481,4.974 7.49,4.973 C7.537,4.967 7.575,4.93 7.583,4.884 C7.592,4.837 7.57,4.79 7.527,4.768 L0.461,0.925 C0.443,0.914 0.417,0.91 0.397,0.911 C0.381,0.904 0.364,0.9 0.348,0.9 C0.309,0.9 0.271,0.921 0.251,0.957 Z"/>
    <path id="mathematics-performance-task-Q" d="M0.251,0.957 C0.222,1.01 0.241,1.077 0.295,1.106 L7.36,4.95 C7.391,4.967 7.425,4.975 7.46,4.975 C7.471,4.975 7.481,4.974 7.49,4.973 C7.537,4.967 7.575,4.93 7.583,4.884 C7.592,4.837 7.57,4.79 7.527,4.768 L0.461,0.925 C0.443,0.914 0.417,0.91 0.397,0.911 C0.381,0.904 0.364,0.9 0.348,0.9 C0.309,0.9 0.271,0.921 0.251,0.957 Z"/>
    <path id="mathematics-performance-task-S" d="M0.264,0.928 C0.232,0.948 0.212,0.984 0.212,1.022 L0.183,15.911 C0.183,15.952 0.206,15.989 0.241,16.008 L7.308,19.852 C7.323,19.861 7.342,19.865 7.359,19.865 C7.379,19.865 7.399,19.86 7.416,19.851 C7.448,19.831 7.469,19.795 7.469,19.756 L7.497,4.867 C7.497,4.827 7.474,4.79 7.439,4.77 L0.373,0.926 C0.357,0.917 0.339,0.913 0.32,0.913 C0.301,0.913 0.282,0.918 0.264,0.928 Z M0.403,15.846 L0.431,1.206 L7.277,4.931 L7.25,19.572 L0.403,15.846 Z"/>
    <path id="mathematics-performance-task-U" d="M0.422,0.772 C0.307,0.789 0.212,0.901 0.212,1.022 C0.211,1.062 0.234,1.099 0.269,1.119 L7.335,4.963 C7.352,4.971 7.369,4.976 7.388,4.976 C7.407,4.976 7.426,4.97 7.444,4.96 C7.477,4.941 7.497,4.906 7.497,4.867 C7.497,4.852 7.512,4.836 7.518,4.833 C7.565,4.827 7.602,4.792 7.611,4.745 C7.62,4.698 7.598,4.65 7.555,4.629 L0.489,0.785 C0.473,0.776 0.455,0.771 0.437,0.771 C0.432,0.771 0.427,0.772 0.422,0.772"/>
    <path id="mathematics-performance-task-W" d="M0.422,0.772 C0.307,0.789 0.212,0.901 0.212,1.022 C0.211,1.062 0.234,1.099 0.269,1.119 L7.335,4.963 C7.352,4.971 7.369,4.976 7.388,4.976 C7.407,4.976 7.426,4.97 7.444,4.96 C7.477,4.941 7.497,4.906 7.497,4.867 C7.497,4.852 7.512,4.836 7.518,4.833 C7.565,4.827 7.602,4.792 7.611,4.745 C7.62,4.698 7.598,4.65 7.555,4.629 L0.489,0.785 C0.473,0.776 0.455,0.771 0.437,0.771 C0.432,0.771 0.427,0.772 0.422,0.772 Z"/>
    <path id="mathematics-performance-task-Y" d="M0.422,0.772 C0.307,0.789 0.212,0.901 0.212,1.022 C0.211,1.062 0.234,1.099 0.269,1.119 L7.335,4.963 C7.352,4.971 7.369,4.976 7.388,4.976 C7.407,4.976 7.426,4.97 7.444,4.96 C7.477,4.941 7.497,4.906 7.497,4.867 C7.497,4.852 7.512,4.836 7.518,4.833 C7.565,4.827 7.602,4.792 7.611,4.745 C7.62,4.698 7.598,4.65 7.555,4.629 L0.489,0.785 C0.473,0.776 0.455,0.771 0.437,0.771 C0.432,0.771 0.427,0.772 0.422,0.772 Z"/>
    <path id="mathematics-performance-task-aa" d="M0.422,0.772 C0.307,0.789 0.212,0.901 0.212,1.022 C0.211,1.062 0.234,1.099 0.269,1.119 L7.335,4.963 C7.352,4.971 7.369,4.976 7.388,4.976 C7.407,4.976 7.426,4.97 7.444,4.96 C7.477,4.941 7.497,4.906 7.497,4.867 C7.497,4.852 7.512,4.836 7.518,4.833 C7.565,4.827 7.602,4.792 7.611,4.745 C7.62,4.698 7.598,4.65 7.555,4.629 L0.489,0.785 C0.473,0.776 0.455,0.771 0.437,0.771 C0.432,0.771 0.427,0.772 0.422,0.772"/>
    <path id="mathematics-performance-task-ac" d="M14.217,0.834 L0.422,2.772 C0.375,2.779 0.338,2.815 0.329,2.861 C0.321,2.907 0.344,2.954 0.385,2.977 L7.451,6.821 C7.467,6.83 7.485,6.834 7.504,6.834 C7.508,6.834 7.514,6.834 7.518,6.833 L21.314,4.895 C21.36,4.888 21.397,4.852 21.406,4.805 C21.415,4.76 21.393,4.713 21.35,4.69 L14.285,0.846 C14.269,0.837 14.251,0.833 14.233,0.833 C14.227,0.833 14.222,0.833 14.217,0.834 Z M0.781,2.943 L14.212,1.056 L20.955,4.725 L7.525,6.612 L0.781,2.943 Z"/>
    <path id="mathematics-performance-task-ae" d="M1.064,0.114 C1.031,0.133 1.011,0.169 1.011,0.207 L0.983,14.851 C0.983,14.891 1.005,14.929 1.041,14.947 L8.107,18.791 C8.123,18.8 8.142,18.805 8.159,18.805 C8.179,18.805 8.198,18.8 8.215,18.79 C8.248,18.77 8.269,18.735 8.269,18.696 L8.296,4.052 C8.296,4.012 8.274,3.976 8.238,3.956 L1.172,0.112 C1.156,0.103 1.138,0.098 1.12,0.098 C1.101,0.098 1.081,0.103 1.064,0.114 Z M1.202,14.786 L1.23,0.392 L8.077,4.117 L8.05,18.512 L1.202,14.786 Z"/>
    <path id="mathematics-performance-task-ag" d="M14.105,0.099 L0.538,2.006 C0.49,2.014 0.453,2.049 0.445,2.096 C0.436,2.142 0.459,2.188 0.501,2.211 L7.566,6.055 C7.583,6.064 7.6,6.068 7.619,6.068 C7.624,6.068 7.629,6.068 7.634,6.067 L21.201,4.161 C21.249,4.154 21.286,4.118 21.294,4.071 C21.303,4.025 21.28,3.978 21.238,3.956 L14.172,0.112 C14.156,0.103 14.138,0.098 14.119,0.098 C14.114,0.098 14.109,0.099 14.105,0.099 Z M0.896,2.177 L14.099,0.322 L20.843,3.99 L7.64,5.845 L0.896,2.177 Z"/>
    <path id="mathematics-performance-task-ai" d="M0.497,0.021 C0.464,0.041 0.443,0.076 0.443,0.114 L0.416,14.758 C0.416,14.799 0.437,14.836 0.472,14.855 L7.539,18.699 C7.555,18.708 7.573,18.713 7.592,18.713 C7.611,18.713 7.631,18.707 7.647,18.697 C7.68,18.677 7.701,18.641 7.701,18.603 L7.728,3.958 C7.728,3.919 7.707,3.882 7.671,3.863 L0.605,0.019 C0.588,0.01 0.57,0.005 0.552,0.005 C0.533,0.005 0.514,0.01 0.497,0.021 Z M0.635,14.693 L0.662,0.298 L7.509,4.024 L7.482,18.419 L0.635,14.693 Z"/>
    <path id="mathematics-performance-task-ak" d="M14.079,0.744 L0.51,2.65 C0.463,2.657 0.426,2.692 0.417,2.738 C0.409,2.785 0.432,2.833 0.472,2.855 L7.539,6.699 C7.555,6.708 7.573,6.713 7.592,6.713 C7.597,6.713 7.601,6.711 7.607,6.71 L21.175,4.804 C21.222,4.798 21.259,4.763 21.268,4.716 C21.276,4.668 21.253,4.621 21.212,4.599 L14.145,0.756 C14.13,0.748 14.112,0.743 14.095,0.743 C14.089,0.743 14.084,0.743 14.079,0.744 Z M0.869,2.821 L14.072,0.965 L20.815,4.633 L7.612,6.489 L0.869,2.821 Z"/>
  </defs>
  <g fill="none" fill-rule="evenodd" transform="translate(3 3)">
    <polygon fill="currentColor" points="13.967 92.984 14.243 92.984 14.243 65.352 13.967 65.352"/>
    <polygon fill="currentColor" points="0 79.307 27.647 79.307 27.647 79.031 0 79.031"/>
    <path fill="currentColor" d="M5.8291,82.8632 L21.5671,67.0422"/>
    <g transform="translate(0 .168)">
      <path fill="currentColor" d="M5.8291 82.9712C5.7591 82.9712 5.6881 82.9452 5.6351 82.8912 5.5261 82.7832 5.5251 82.6082 5.6341 82.5002L21.3721 66.6792C21.4791 66.5712 21.6541 66.5702 21.7631 66.6782 21.8701 66.7852 21.8711 66.9602 21.7641 67.0692L6.0251 82.8902C5.9721 82.9442 5.9001 82.9712 5.8291 82.9712M16.3496 85.772L.5286 70.034"/>
      <path fill="currentColor" d="M16.3496 86.0484C16.2796 86.0484 16.2076 86.0224 16.1546 85.9684L.3326 70.2304C.2246 70.1214.2246 69.9464.3316 69.8394.4396 69.7314.6146 69.7304.7226 69.8374L16.5436 85.5754C16.6526 85.6844 16.6536 85.8594 16.5446 85.9664 16.4916 86.0214 16.4196 86.0484 16.3496 86.0484M15.248 74.4058C15.248 74.9998 14.767 75.4808 14.173 75.4808 13.579 75.4808 13.098 74.9998 13.098 74.4058 13.098 73.8118 13.579 73.3308 14.173 73.3308 14.767 73.3308 15.248 73.8118 15.248 74.4058"/>
      <path fill="currentColor" d="M10.5889 78.9781C10.5889 79.5721 10.1079 80.0531 9.5139 80.0531 8.9199 80.0531 8.4389 79.5721 8.4389 78.9781 8.4389 78.3841 8.9199 77.9031 9.5139 77.9031 10.1079 77.9031 10.5889 78.3841 10.5889 78.9781M33.2031 54.4712C31.7451 52.6472 30.7431 50.4702 30.3661 48.0642 30.2581 47.3672 30.1521 46.6702 30.1521 45.9442 30.1521 38.3672 36.3161 32.2032 43.8921 32.2032 46.7211 32.2032 49.3501 33.0662 51.5381 34.5372 53.6041 35.9272 55.2421 37.8812 56.3071 40.1552 56.3121 40.1662 56.3201 40.1772 56.3251 40.1892 57.1421 41.9462 57.6311 43.8832 57.6311 45.9442 57.6311 53.5212 51.4671 59.6852 43.8921 59.6852 39.5651 59.6852 35.7451 57.6342 33.2241 54.4962 33.2181 54.4882 33.2101 54.4802 33.2031 54.4712M70.3891 68.0832L59.9831 57.6752 60.2931 57.2252C62.5871 53.9122 63.7971 50.0122 63.7971 45.9442 63.7971 43.5142 63.3381 41.1952 62.5371 39.0392 61.6491 36.6492 60.3191 34.4792 58.6401 32.6202 58.6291 32.6092 58.6181 32.5982 58.6081 32.5862 57.1081 30.9362 55.3521 29.5222 53.3801 28.4482 50.5581 26.9102 47.3261 26.0372 43.8921 26.0372 32.9171 26.0372 23.9851 34.9682 23.9851 45.9442 23.9851 46.6602 24.0281 47.3672 24.1021 48.0642 24.3441 50.3382 24.9871 52.4892 25.9321 54.4712 25.9351 54.4802 25.9401 54.4882 25.9441 54.4962 27.1251 56.9642 28.7921 59.1512 30.8321 60.9302 34.3321 63.9852 38.8931 65.8512 43.8921 65.8512 47.9011 65.8512 51.9071 64.6052 55.1711 62.3442L55.6211 62.0332 66.0271 72.4092C66.5901 72.9982 67.3761 73.3282 68.1921 73.3282 69.8641 73.3282 71.2741 71.9152 71.2741 70.2432 71.2741 69.4432 70.9441 68.6342 70.3891 68.0832"/>
      <g transform="translate(2)">
        <mask id="mathematics-performance-task-b" fill="#fff">
          <use xlink:href="#mathematics-performance-task-a"/>
        </mask>
        <path fill="currentColor" d="M0.6621,3.2105 L0.6351,17.6325 L13.9831,15.7565 L14.0101,1.3345 L0.6621,3.2105 Z M0.5251,17.8675 C0.4991,17.8675 0.4741,17.8585 0.4531,17.8415 C0.4301,17.8195 0.4161,17.7905 0.4161,17.7585 L0.4431,3.1145 C0.4431,3.0605 0.4831,3.0145 0.5381,3.0065 L14.1041,1.0995 C14.1351,1.0955 14.1681,1.1045 14.1921,1.1255 C14.2161,1.1465 14.2291,1.1765 14.2291,1.2085 L14.2021,15.8525 C14.2021,15.9065 14.1621,15.9525 14.1081,15.9605 L0.5401,17.8665 C0.5351,17.8675 0.5301,17.8675 0.5251,17.8675 Z M14.2381,1.0525 L0.4521,2.9885 C0.4451,2.9905 0.4311,3.0085 0.4311,3.0235 L0.4031,17.9115 L14.1891,15.9735 C14.1991,15.9725 14.2111,15.9585 14.2111,15.9395 L14.2381,1.0525 Z M0.3941,18.1315 C0.3441,18.1315 0.2961,18.1125 0.2581,18.0805 C0.2111,18.0395 0.1831,17.9785 0.1831,17.9115 L0.2121,3.0225 C0.2121,2.9005 0.3071,2.7885 0.4221,2.7725 L14.2171,0.8335 C14.2781,0.8255 14.3371,0.8425 14.3831,0.8815 C14.4311,0.9225 14.4581,0.9845 14.4581,1.0515 L14.4301,15.9405 C14.4301,16.0655 14.3391,16.1735 14.2201,16.1895 L0.4251,18.1285 C0.4141,18.1305 0.4041,18.1315 0.3941,18.1315 Z" mask="url(#mathematics-performance-task-b)"/>
      </g>
    </g>
    <g transform="translate(2 .168)">
      <mask id="mathematics-performance-task-d" fill="#fff">
        <use xlink:href="#mathematics-performance-task-c"/>
      </mask>
      <path fill="currentColor" d="M0.6621,3.2105 L0.6351,17.6325 L13.9831,15.7565 L14.0101,1.3345 L0.6621,3.2105 Z M0.5251,17.8675 C0.4991,17.8675 0.4741,17.8585 0.4531,17.8415 C0.4301,17.8195 0.4161,17.7905 0.4161,17.7585 L0.4431,3.1145 C0.4431,3.0605 0.4831,3.0145 0.5381,3.0065 L14.1041,1.0995 C14.1351,1.0955 14.1681,1.1045 14.1921,1.1255 C14.2161,1.1465 14.2291,1.1765 14.2291,1.2085 L14.2021,15.8525 C14.2021,15.9065 14.1621,15.9525 14.1081,15.9605 L0.5401,17.8665 C0.5351,17.8675 0.5301,17.8675 0.5251,17.8675 Z M14.2381,1.0525 L0.4521,2.9885 C0.4451,2.9905 0.4311,3.0085 0.4311,3.0235 L0.4031,17.9115 L14.1891,15.9735 C14.1991,15.9725 14.2111,15.9585 14.2111,15.9395 L14.2381,1.0525 Z M0.3941,18.1315 C0.3441,18.1315 0.2961,18.1125 0.2581,18.0805 C0.2111,18.0395 0.1831,17.9785 0.1831,17.9115 L0.2121,3.0225 C0.2121,2.9005 0.3071,2.7885 0.4221,2.7725 L14.2171,0.8335 C14.2781,0.8255 14.3371,0.8425 14.3831,0.8815 C14.4311,0.9225 14.4581,0.9845 14.4581,1.0515 L14.4301,15.9405 C14.4301,16.0655 14.3391,16.1735 14.2201,16.1895 L0.4251,18.1285 C0.4141,18.1305 0.4041,18.1315 0.3941,18.1315 Z" mask="url(#mathematics-performance-task-d)"/>
    </g>
    <path fill="currentColor" d="M9.7285,7.2225 L9.7015,21.6445 L23.0495,19.7685 L23.0765,5.3465 L9.7285,7.2225 Z M9.5915,21.8805 C9.5655,21.8805 9.5405,21.8705 9.5195,21.8535 C9.4965,21.8315 9.4825,21.8025 9.4825,21.7705 L9.5095,7.1265 C9.5095,7.0725 9.5495,7.0265 9.6035,7.0185 L23.1705,5.1125 C23.2015,5.1075 23.2345,5.1175 23.2575,5.1375 C23.2825,5.1585 23.2955,5.1885 23.2955,5.2205 L23.2685,19.8645 C23.2685,19.9185 23.2285,19.9645 23.1745,19.9725 L9.6065,21.8785 C9.6015,21.8795 9.5965,21.8805 9.5915,21.8805 Z M23.3045,5.0645 L9.5185,7.0015 C9.5115,7.0035 9.4975,7.0205 9.4975,7.0355 L9.4685,21.9245 L23.2555,19.9855 C23.2655,19.9845 23.2775,19.9705 23.2775,19.9515 L23.3045,5.0645 Z M9.4605,22.1435 C9.4115,22.1435 9.3625,22.1255 9.3245,22.0925 C9.2775,22.0515 9.2495,21.9905 9.2495,21.9235 L9.2775,7.0345 C9.2785,6.9125 9.3735,6.8005 9.4885,6.7855 L23.2835,4.8455 C23.3435,4.8365 23.4045,4.8545 23.4495,4.8945 C23.4975,4.9355 23.5245,4.9965 23.5245,5.0635 L23.4965,19.9525 C23.4965,20.0785 23.4055,20.1865 23.2855,20.2015 L9.4905,22.1415 C9.4805,22.1425 9.4705,22.1435 9.4605,22.1435 Z"/>
    <g transform="translate(9 4.168)">
      <mask id="mathematics-performance-task-f" fill="#fff">
        <use xlink:href="#mathematics-performance-task-e"/>
      </mask>
      <path fill="currentColor" d="M0.7285,3.0542 L0.7015,17.4762 L14.0495,15.6002 L14.0765,1.1782 L0.7285,3.0542 Z M0.5915,17.7122 C0.5655,17.7122 0.5405,17.7022 0.5195,17.6852 C0.4965,17.6632 0.4825,17.6342 0.4825,17.6022 L0.5095,2.9582 C0.5095,2.9042 0.5495,2.8582 0.6035,2.8502 L14.1705,0.9442 C14.2015,0.9392 14.2345,0.9492 14.2575,0.9692 C14.2825,0.9902 14.2955,1.0202 14.2955,1.0522 L14.2685,15.6962 C14.2685,15.7502 14.2285,15.7962 14.1745,15.8042 L0.6065,17.7102 C0.6015,17.7112 0.5965,17.7122 0.5915,17.7122 Z M14.3045,0.8962 L0.5185,2.8332 C0.5115,2.8352 0.4975,2.8522 0.4975,2.8672 L0.4685,17.7562 L14.2555,15.8172 C14.2655,15.8162 14.2775,15.8022 14.2775,15.7832 L14.3045,0.8962 Z M0.4605,17.9752 C0.4115,17.9752 0.3625,17.9572 0.3245,17.9242 C0.2775,17.8832 0.2495,17.8222 0.2495,17.7552 L0.2775,2.8662 C0.2785,2.7442 0.3735,2.6322 0.4885,2.6172 L14.2835,0.6772 C14.3435,0.6682 14.4045,0.6862 14.4495,0.7262 C14.4975,0.7672 14.5245,0.8282 14.5245,0.8952 L14.4965,15.7842 C14.4965,15.9102 14.4055,16.0182 14.2855,16.0332 L0.4905,17.9732 C0.4805,17.9742 0.4705,17.9752 0.4605,17.9752 Z" mask="url(#mathematics-performance-task-f)"/>
    </g>
    <path fill="currentColor" d="M23.4141,5.1727 C23.3961,5.1727 23.3781,5.1677 23.3621,5.1587 L16.2961,1.3157 C16.2611,1.2967 16.2381,1.2597 16.2381,1.2197 L16.2401,1.2157 C16.1881,1.1867 16.1691,1.1207 16.1981,1.0687 C16.2271,1.0157 16.2941,0.9957 16.3471,1.0247 L23.4131,4.8687 C23.4811,4.9057 23.5241,4.9807 23.5241,5.0637 C23.5241,5.1017 23.5041,5.1377 23.4711,5.1567 C23.4531,5.1677 23.4341,5.1727 23.4141,5.1727"/>
    <g transform="translate(16 .168)">
      <mask id="mathematics-performance-task-h" fill="#fff">
        <use xlink:href="#mathematics-performance-task-g"/>
      </mask>
      <path fill="currentColor" d="M7.4141,5.0044 C7.3961,5.0044 7.3781,4.9994 7.3621,4.9904 L0.2961,1.1474 C0.2671,1.1314 0.2461,1.1034 0.2401,1.0714 L0.1801,1.0384 C0.1391,1.0164 0.1161,0.9694 0.1241,0.9224 C0.1331,0.8764 0.1701,0.8404 0.2171,0.8334 C0.2781,0.8254 0.3371,0.8424 0.3831,0.8814 C0.3951,0.8924 0.4061,0.9034 0.4151,0.9174 L7.3251,4.6754 C7.3711,4.6784 7.4141,4.6944 7.4491,4.7264 C7.4971,4.7674 7.5241,4.8284 7.5241,4.8954 C7.5241,4.9334 7.5041,4.9694 7.4711,4.9884 C7.4531,4.9994 7.4341,5.0044 7.4141,5.0044" mask="url(#mathematics-performance-task-h)"/>
      <g>
        <mask id="mathematics-performance-task-j" fill="#fff">
          <use xlink:href="#mathematics-performance-task-i"/>
        </mask>
        <polygon fill="currentColor" points="7.347 4.931 .281 1.087 .385 .895 7.451 4.739" mask="url(#mathematics-performance-task-j)"/>
      </g>
      <g>
        <mask id="mathematics-performance-task-l" fill="#fff">
          <use xlink:href="#mathematics-performance-task-k"/>
        </mask>
        <path fill="currentColor" d="M7.4141,5.0044 C7.3961,5.0044 7.3781,4.9994 7.3621,4.9904 L0.2961,1.1474 C0.2611,1.1284 0.2381,1.0914 0.2381,1.0514 L0.2401,1.0474 C0.1881,1.0184 0.1691,0.9524 0.1981,0.9004 C0.2271,0.8474 0.2941,0.8274 0.3471,0.8564 L7.4131,4.7004 C7.4811,4.7374 7.5241,4.8124 7.5241,4.8954 C7.5241,4.9334 7.5041,4.9694 7.4711,4.9884 C7.4531,4.9994 7.4341,5.0044 7.4141,5.0044" mask="url(#mathematics-performance-task-l)"/>
      </g>
    </g>
    <g transform="translate(16 .168)">
      <mask id="mathematics-performance-task-n" fill="#fff">
        <use xlink:href="#mathematics-performance-task-m"/>
      </mask>
      <path fill="currentColor" d="M7.3604,4.9068 C7.3424,4.9068 7.3254,4.9018 7.3074,4.8928 C7.2854,4.8958 7.2674,4.8938 7.2464,4.8828 L0.1794,1.0388 C0.1384,1.0158 0.1164,0.9688 0.1244,0.9238 C0.1324,0.8768 0.1704,0.8408 0.2154,0.8338 C0.2624,0.8278 0.3064,0.8348 0.3464,0.8558 L7.4124,4.6998 L7.4134,4.7008 C7.4654,4.7298 7.4854,4.7968 7.4574,4.8488 C7.4364,4.8858 7.3994,4.9068 7.3604,4.9068" mask="url(#mathematics-performance-task-n)"/>
    </g>
    <g transform="translate(16 .168)">
      <mask id="mathematics-performance-task-p" fill="#fff">
        <use xlink:href="#mathematics-performance-task-o"/>
      </mask>
      <path fill="currentColor" d="M7.4141,5.0044 C7.3961,5.0044 7.3781,4.9994 7.3621,4.9904 L0.2961,1.1474 C0.2671,1.1314 0.2461,1.1034 0.2401,1.0714 L0.1801,1.0384 C0.1391,1.0164 0.1161,0.9694 0.1241,0.9224 C0.1331,0.8764 0.1701,0.8404 0.2171,0.8334 C0.2781,0.8254 0.3371,0.8424 0.3831,0.8814 C0.3951,0.8924 0.4061,0.9034 0.4151,0.9174 L7.3251,4.6754 C7.3711,4.6784 7.4141,4.6944 7.4491,4.7264 C7.4971,4.7674 7.5241,4.8284 7.5241,4.8954 C7.5241,4.9334 7.5041,4.9694 7.4711,4.9884 C7.4531,4.9994 7.4341,5.0044 7.4141,5.0044" mask="url(#mathematics-performance-task-p)"/>
      <g>
        <mask id="mathematics-performance-task-r" fill="#fff">
          <use xlink:href="#mathematics-performance-task-q"/>
        </mask>
        <polygon fill="currentColor" points="7.306 4.891 .24 1.047 .344 .855 7.411 4.699" mask="url(#mathematics-performance-task-r)"/>
      </g>
      <g>
        <mask id="mathematics-performance-task-t" fill="#fff">
          <use xlink:href="#mathematics-performance-task-s"/>
        </mask>
        <path fill="currentColor" d="M7.3604,4.9068 C7.3424,4.9068 7.3254,4.9018 7.3074,4.8928 C7.2854,4.8958 7.2674,4.8938 7.2464,4.8828 L0.1794,1.0388 C0.1384,1.0158 0.1164,0.9688 0.1244,0.9238 C0.1324,0.8768 0.1704,0.8408 0.2154,0.8338 C0.2624,0.8278 0.3064,0.8348 0.3464,0.8558 L7.4124,4.6998 L7.4134,4.7008 C7.4654,4.7298 7.4854,4.7968 7.4574,4.8488 C7.4364,4.8858 7.3994,4.9068 7.3604,4.9068" mask="url(#mathematics-performance-task-t)"/>
      </g>
    </g>
    <path fill="currentColor" d="M16.4297,16.0438 L23.2777,19.7688 L23.3047,5.1278 L16.4567,1.4028 L16.4297,16.0438 Z M23.3867,20.0628 C23.3687,20.0628 23.3507,20.0578 23.3337,20.0488 L16.2687,16.2048 C16.2327,16.1858 16.2107,16.1478 16.2107,16.1078 L16.2387,1.2188 C16.2387,1.1808 16.2587,1.1448 16.2917,1.1248 C16.3257,1.1058 16.3667,1.1048 16.4007,1.1228 L23.4667,4.9668 C23.5017,4.9858 23.5247,5.0228 23.5247,5.0638 L23.4957,19.9528 C23.4957,19.9908 23.4757,20.0268 23.4427,20.0468 C23.4257,20.0578 23.4067,20.0628 23.3867,20.0628 Z"/>
    <g transform="translate(16 .168)">
      <mask id="mathematics-performance-task-v" fill="#fff">
        <use xlink:href="#mathematics-performance-task-u"/>
      </mask>
      <path fill="currentColor" d="M0.4297,15.8755 L7.2777,19.6005 L7.3047,4.9595 L0.4567,1.2345 L0.4297,15.8755 Z M7.3867,19.8945 C7.3687,19.8945 7.3507,19.8895 7.3337,19.8805 L0.2687,16.0365 C0.2327,16.0175 0.2107,15.9795 0.2107,15.9395 L0.2387,1.0505 C0.2387,1.0125 0.2587,0.9765 0.2917,0.9565 C0.3257,0.9375 0.3667,0.9365 0.4007,0.9545 L7.4667,4.7985 C7.5017,4.8175 7.5247,4.8545 7.5247,4.8955 L7.4957,19.7845 C7.4957,19.8225 7.4757,19.8585 7.4427,19.8785 C7.4257,19.8895 7.4067,19.8945 7.3867,19.8945 Z" mask="url(#mathematics-performance-task-v)"/>
    </g>
    <path fill="currentColor" d="M23.2705,20.204 C23.2515,20.204 23.2345,20.199 23.2185,20.19 L16.1525,16.347 C16.1105,16.324 16.0875,16.277 16.0965,16.23 C16.1045,16.184 16.1415,16.148 16.1885,16.142 C16.1995,16.141 16.2105,16.127 16.2105,16.108 C16.2105,16.069 16.2315,16.034 16.2645,16.015 C16.2975,15.995 16.3385,15.994 16.3735,16.013 L23.4385,19.856 C23.4745,19.876 23.4965,19.913 23.4965,19.953 C23.4965,20.079 23.4055,20.186 23.2855,20.202 C23.2805,20.203 23.2755,20.204 23.2705,20.204"/>
    <g transform="translate(16 15.168)">
      <mask id="mathematics-performance-task-x" fill="#fff">
        <use xlink:href="#mathematics-performance-task-w"/>
      </mask>
      <path fill="currentColor" d="M7.2705,5.0357 C7.2515,5.0357 7.2345,5.0307 7.2185,5.0217 L0.1525,1.1787 C0.1105,1.1557 0.0875,1.1087 0.0965,1.0617 C0.1045,1.0157 0.1415,0.9797 0.1885,0.9737 C0.1995,0.9727 0.2105,0.9587 0.2105,0.9397 C0.2105,0.9007 0.2315,0.8657 0.2645,0.8467 C0.2975,0.8267 0.3385,0.8257 0.3735,0.8447 L7.4385,4.6877 C7.4745,4.7077 7.4965,4.7447 7.4965,4.7847 C7.4965,4.9107 7.4055,5.0177 7.2855,5.0337 C7.2805,5.0347 7.2755,5.0357 7.2705,5.0357" mask="url(#mathematics-performance-task-x)"/>
      <mask id="mathematics-performance-task-z" fill="#fff">
        <use xlink:href="#mathematics-performance-task-y"/>
      </mask>
      <polygon fill="currentColor" points="7.318 4.947 .253 1.103 .357 .911 7.422 4.755" mask="url(#mathematics-performance-task-z)"/>
      <g>
        <mask id="mathematics-performance-task-B" fill="#fff">
          <use xlink:href="#mathematics-performance-task-A"/>
        </mask>
        <polygon fill="currentColor" points="7.277 4.997 .211 1.153 .315 .961 7.382 4.805" mask="url(#mathematics-performance-task-B)"/>
      </g>
      <g>
        <mask id="mathematics-performance-task-D" fill="#fff">
          <use xlink:href="#mathematics-performance-task-C"/>
        </mask>
        <path fill="currentColor" d="M7.2705,5.0357 C7.2515,5.0357 7.2345,5.0307 7.2185,5.0217 L0.1525,1.1787 C0.1105,1.1557 0.0875,1.1087 0.0965,1.0617 C0.1045,1.0157 0.1415,0.9797 0.1885,0.9737 C0.1995,0.9727 0.2105,0.9587 0.2105,0.9397 C0.2105,0.9007 0.2315,0.8657 0.2645,0.8467 C0.2975,0.8267 0.3385,0.8257 0.3735,0.8447 L7.4385,4.6877 C7.4745,4.7077 7.4965,4.7447 7.4965,4.7847 C7.4965,4.9107 7.4055,5.0177 7.2855,5.0337 C7.2805,5.0347 7.2755,5.0357 7.2705,5.0357" mask="url(#mathematics-performance-task-D)"/>
      </g>
    </g>
    <path fill="currentColor" d="M2.7529,18.2509 L9.4959,21.9189 L22.9269,20.0319 L16.1839,16.3629 L2.7529,18.2509 Z M9.4759,22.1429 C9.4569,22.1429 9.4399,22.1379 9.4229,22.1289 L2.3569,18.2849 C2.3159,18.2629 2.2929,18.2159 2.3019,18.1699 C2.3099,18.1229 2.3469,18.0869 2.3949,18.0799 L16.1899,16.1419 C16.2119,16.1389 16.2359,16.1429 16.2569,16.1539 L23.3229,19.9979 C23.3639,20.0209 23.3869,20.0669 23.3779,20.1129 C23.3699,20.1599 23.3329,20.1959 23.2859,20.2019 L9.4899,22.1419 C9.4849,22.1429 9.4809,22.1429 9.4759,22.1429 Z"/>
    <g transform="translate(2 15.168)">
      <mask id="mathematics-performance-task-F" fill="#fff">
        <use xlink:href="#mathematics-performance-task-E"/>
      </mask>
      <path fill="currentColor" d="M0.7529,3.0826 L7.4959,6.7506 L20.9269,4.8636 L14.1839,1.1946 L0.7529,3.0826 Z M7.4759,6.9746 C7.4569,6.9746 7.4399,6.9696 7.4229,6.9606 L0.3569,3.1166 C0.3159,3.0946 0.2929,3.0476 0.3019,3.0016 C0.3099,2.9546 0.3469,2.9186 0.3949,2.9116 L14.1899,0.9736 C14.2119,0.9706 14.2359,0.9746 14.2569,0.9856 L21.3229,4.8296 C21.3639,4.8526 21.3869,4.8986 21.3779,4.9446 C21.3699,4.9916 21.3329,5.0276 21.2859,5.0336 L7.4899,6.9736 C7.4849,6.9746 7.4809,6.9746 7.4759,6.9746 Z" mask="url(#mathematics-performance-task-F)"/>
    </g>
    <path fill="currentColor" d="M9.4131,22.1317 C9.3951,22.1317 9.3781,22.1267 9.3611,22.1177 C9.3601,22.1177 9.3601,22.1177 9.3591,22.1167 L2.2951,18.2747 C2.2261,18.2367 2.1841,18.1627 2.1841,18.0797 C2.1841,18.0407 2.2051,18.0057 2.2381,17.9857 C2.2711,17.9667 2.3111,17.9657 2.3461,17.9847 L9.4121,21.8277 C9.4471,21.8467 9.4691,21.8837 9.4691,21.9237 L9.4681,21.9267 C9.5191,21.9557 9.5381,22.0217 9.5101,22.0737 C9.4901,22.1107 9.4521,22.1317 9.4131,22.1317"/>
    <g transform="translate(2 17.168)">
      <mask id="mathematics-performance-task-H" fill="#fff">
        <use xlink:href="#mathematics-performance-task-G"/>
      </mask>
      <path fill="currentColor" d="M7.4609,4.9751 C7.4099,4.9751 7.3619,4.9571 7.3239,4.9241 C7.3129,4.9131 7.3019,4.9021 7.2919,4.8891 L0.3829,1.1311 C0.3369,1.1281 0.2929,1.1111 0.2579,1.0801 C0.2109,1.0391 0.1839,0.9781 0.1839,0.9121 C0.1849,0.8721 0.2049,0.8371 0.2369,0.8181 C0.2719,0.7981 0.3129,0.7971 0.3459,0.8161 L7.4119,4.6601 C7.4409,4.6751 7.4609,4.7041 7.4669,4.7351 L7.5269,4.7681 C7.5689,4.7901 7.5919,4.8371 7.5829,4.8831 C7.5749,4.9301 7.5379,4.9661 7.4909,4.9731 C7.4809,4.9741 7.4709,4.9751 7.4609,4.9751" mask="url(#mathematics-performance-task-H)"/>
      <g>
        <mask id="mathematics-performance-task-J" fill="#fff">
          <use xlink:href="#mathematics-performance-task-I"/>
        </mask>
        <polygon fill="currentColor" points="7.323 4.914 .257 1.07 .362 .878 7.428 4.722" mask="url(#mathematics-performance-task-J)"/>
      </g>
      <g>
        <mask id="mathematics-performance-task-L" fill="#fff">
          <use xlink:href="#mathematics-performance-task-K"/>
        </mask>
        <path fill="currentColor" d="M7.4131,4.9634 C7.3951,4.9634 7.3781,4.9584 7.3611,4.9494 C7.3601,4.9494 7.3601,4.9494 7.3591,4.9484 L0.2951,1.1064 C0.2261,1.0684 0.1841,0.9944 0.1841,0.9114 C0.1841,0.8724 0.2051,0.8374 0.2381,0.8174 C0.2711,0.7984 0.3111,0.7974 0.3461,0.8164 L7.4121,4.6594 C7.4471,4.6784 7.4691,4.7154 7.4691,4.7554 L7.4681,4.7584 C7.5191,4.7874 7.5381,4.8534 7.5101,4.9054 C7.4901,4.9424 7.4521,4.9634 7.4131,4.9634" mask="url(#mathematics-performance-task-L)"/>
      </g>
    </g>
    <path fill="currentColor" d="M9.4604,22.1439 C9.4244,22.1439 9.3904,22.1349 9.3604,22.1179 L2.2954,18.2739 C2.2414,18.2449 2.2214,18.1789 2.2514,18.1259 C2.2794,18.0729 2.3434,18.0539 2.3964,18.0799 C2.4174,18.0779 2.4434,18.0819 2.4614,18.0929 L9.5274,21.9359 C9.5694,21.9589 9.5914,22.0059 9.5834,22.0529 C9.5754,22.0989 9.5374,22.1349 9.4904,22.1419 C9.4804,22.1429 9.4704,22.1439 9.4604,22.1439 Z"/>
    <g transform="translate(2 17.168)">
      <mask id="mathematics-performance-task-N" fill="#fff">
        <use xlink:href="#mathematics-performance-task-M"/>
      </mask>
      <path fill="currentColor" d="M7.4609,4.9751 C7.4099,4.9751 7.3619,4.9571 7.3239,4.9241 C7.3129,4.9131 7.3019,4.9021 7.2919,4.8891 L0.3829,1.1311 C0.3369,1.1281 0.2929,1.1111 0.2579,1.0801 C0.2109,1.0391 0.1839,0.9781 0.1839,0.9121 C0.1849,0.8721 0.2049,0.8371 0.2369,0.8181 C0.2719,0.7981 0.3129,0.7971 0.3459,0.8161 L7.4119,4.6601 C7.4409,4.6751 7.4609,4.7041 7.4669,4.7351 L7.5269,4.7681 C7.5689,4.7901 7.5919,4.8371 7.5829,4.8831 C7.5749,4.9301 7.5379,4.9661 7.4909,4.9731 C7.4809,4.9741 7.4709,4.9751 7.4609,4.9751" mask="url(#mathematics-performance-task-N)"/>
      <g>
        <mask id="mathematics-performance-task-P" fill="#fff">
          <use xlink:href="#mathematics-performance-task-O"/>
        </mask>
        <polygon fill="currentColor" points="7.365 4.953 .299 1.108 .404 .916 7.47 4.761" mask="url(#mathematics-performance-task-P)"/>
      </g>
      <g>
        <mask id="mathematics-performance-task-R" fill="#fff">
          <use xlink:href="#mathematics-performance-task-Q"/>
        </mask>
        <path fill="currentColor" d="M7.4604,4.9756 C7.4244,4.9756 7.3904,4.9666 7.3604,4.9496 L0.2954,1.1056 C0.2414,1.0766 0.2214,1.0106 0.2514,0.9576 C0.2794,0.9046 0.3434,0.8856 0.3964,0.9116 C0.4174,0.9096 0.4434,0.9136 0.4614,0.9246 L7.5274,4.7676 C7.5694,4.7906 7.5914,4.8376 7.5834,4.8846 C7.5754,4.9306 7.5374,4.9666 7.4904,4.9736 C7.4804,4.9746 7.4704,4.9756 7.4604,4.9756 Z" mask="url(#mathematics-performance-task-R)"/>
      </g>
    </g>
    <path fill="currentColor" d="M2.4033,18.0145 L9.2503,21.7405 L9.2773,7.0995 L2.4303,3.3745 L2.4033,18.0145 Z M9.3593,22.0335 C9.3413,22.0335 9.3233,22.0295 9.3073,22.0205 L2.2413,18.1765 C2.2063,18.1575 2.1833,18.1195 2.1833,18.0795 L2.2123,3.1905 C2.2123,3.1525 2.2323,3.1165 2.2643,3.0965 C2.2983,3.0765 2.3393,3.0765 2.3733,3.0945 L9.4393,6.9385 C9.4743,6.9575 9.4973,6.9945 9.4973,7.0355 L9.4683,21.9245 C9.4683,21.9625 9.4483,21.9985 9.4163,22.0185 C9.3983,22.0285 9.3793,22.0335 9.3593,22.0335 Z"/>
    <g transform="translate(2 2.168)">
      <mask id="mathematics-performance-task-T" fill="#fff">
        <use xlink:href="#mathematics-performance-task-S"/>
      </mask>
      <path fill="currentColor" d="M0.4033,15.8462 L7.2503,19.5722 L7.2773,4.9312 L0.4303,1.2062 L0.4033,15.8462 Z M7.3593,19.8652 C7.3413,19.8652 7.3233,19.8612 7.3073,19.8522 L0.2413,16.0082 C0.2063,15.9892 0.1833,15.9512 0.1833,15.9112 L0.2123,1.0222 C0.2123,0.9842 0.2323,0.9482 0.2643,0.9282 C0.2983,0.9082 0.3393,0.9082 0.3733,0.9262 L7.4393,4.7702 C7.4743,4.7892 7.4973,4.8262 7.4973,4.8672 L7.4683,19.7562 C7.4683,19.7942 7.4483,19.8302 7.4163,19.8502 C7.3983,19.8602 7.3793,19.8652 7.3593,19.8652 Z" mask="url(#mathematics-performance-task-T)"/>
    </g>
    <path fill="currentColor" d="M9.3877,7.1444 C9.3687,7.1444 9.3517,7.1394 9.3347,7.1304 L2.2687,3.2874 C2.2337,3.2674 2.2107,3.2304 2.2117,3.1904 C2.2117,3.0694 2.3067,2.9574 2.4217,2.9404 C2.4457,2.9374 2.4687,2.9424 2.4897,2.9534 L9.5557,6.7964 C9.5977,6.8194 9.6197,6.8664 9.6117,6.9134 C9.6027,6.9594 9.5657,6.9954 9.5187,7.0014 C9.5117,7.0034 9.4967,7.0204 9.4967,7.0354 C9.4967,7.0744 9.4767,7.1094 9.4437,7.1284 C9.4257,7.1384 9.4077,7.1444 9.3877,7.1444"/>
    <g transform="translate(2 2.168)">
      <mask id="mathematics-performance-task-V" fill="#fff">
        <use xlink:href="#mathematics-performance-task-U"/>
      </mask>
      <path fill="currentColor" d="M7.3877,4.9761 C7.3687,4.9761 7.3517,4.9711 7.3347,4.9621 L0.2687,1.1191 C0.2337,1.0991 0.2107,1.0621 0.2117,1.0221 C0.2117,0.9011 0.3067,0.7891 0.4217,0.7721 C0.4457,0.7691 0.4687,0.7741 0.4897,0.7851 L7.5557,4.6281 C7.5977,4.6511 7.6197,4.6981 7.6117,4.7451 C7.6027,4.7911 7.5657,4.8271 7.5187,4.8331 C7.5117,4.8351 7.4967,4.8521 7.4967,4.8671 C7.4967,4.9061 7.4767,4.9411 7.4437,4.9601 C7.4257,4.9701 7.4077,4.9761 7.3877,4.9761" mask="url(#mathematics-performance-task-V)"/>
      <mask id="mathematics-performance-task-X" fill="#fff">
        <use xlink:href="#mathematics-performance-task-W"/>
      </mask>
      <polygon fill="currentColor" points="7.352 4.898 .286 1.054 .39 .862 7.456 4.706" mask="url(#mathematics-performance-task-X)"/>
      <g>
        <mask id="mathematics-performance-task-Z" fill="#fff">
          <use xlink:href="#mathematics-performance-task-Y"/>
        </mask>
        <polygon fill="currentColor" points="7.394 4.846 .328 1.002 .432 .81 7.498 4.654" mask="url(#mathematics-performance-task-Z)"/>
      </g>
      <g>
        <mask id="mathematics-performance-task-ab" fill="#fff">
          <use xlink:href="#mathematics-performance-task-aa"/>
        </mask>
        <path fill="currentColor" d="M7.3877,4.9761 C7.3687,4.9761 7.3517,4.9711 7.3347,4.9621 L0.2687,1.1191 C0.2337,1.0991 0.2107,1.0621 0.2117,1.0221 C0.2117,0.9011 0.3067,0.7891 0.4217,0.7721 C0.4457,0.7691 0.4687,0.7741 0.4897,0.7851 L7.5557,4.6281 C7.5977,4.6511 7.6197,4.6981 7.6117,4.7451 C7.6027,4.7911 7.5657,4.8271 7.5187,4.8331 C7.5117,4.8351 7.4967,4.8521 7.4967,4.8671 C7.4967,4.9061 7.4767,4.9411 7.4437,4.9601 C7.4257,4.9701 7.4077,4.9761 7.3877,4.9761" mask="url(#mathematics-performance-task-ab)"/>
      </g>
    </g>
    <path fill="currentColor" d="M2.7812,3.1112 L9.5242,6.7802 L22.9552,4.8922 L16.2122,1.2242 L2.7812,3.1112 Z M9.5042,7.0032 C9.4852,7.0032 9.4672,6.9982 9.4512,6.9892 L2.3852,3.1452 C2.3442,3.1232 2.3212,3.0762 2.3292,3.0302 C2.3382,2.9832 2.3752,2.9472 2.4222,2.9402 L16.2172,1.0022 C16.2392,0.9992 16.2642,1.0032 16.2842,1.0142 L23.3502,4.8582 C23.3922,4.8812 23.4152,4.9272 23.4062,4.9732 C23.3972,5.0202 23.3602,5.0562 23.3132,5.0632 L9.5182,7.0022 C9.5132,7.0032 9.5092,7.0032 9.5042,7.0032 Z"/>
    <g transform="translate(2 .168)">
      <mask id="mathematics-performance-task-ad" fill="#fff">
        <use xlink:href="#mathematics-performance-task-ac"/>
      </mask>
      <path fill="currentColor" d="M0.7812,2.9429 L7.5242,6.6119 L20.9552,4.7239 L14.2122,1.0559 L0.7812,2.9429 Z M7.5042,6.8349 C7.4852,6.8349 7.4672,6.8299 7.4512,6.8209 L0.3852,2.9769 C0.3442,2.9549 0.3212,2.9079 0.3292,2.8619 C0.3382,2.8149 0.3752,2.7789 0.4222,2.7719 L14.2172,0.8339 C14.2392,0.8309 14.2642,0.8349 14.2842,0.8459 L21.3502,4.6899 C21.3922,4.7129 21.4152,4.7589 21.4062,4.8049 C21.3972,4.8519 21.3602,4.8879 21.3132,4.8949 L7.5182,6.8339 C7.5132,6.8349 7.5092,6.8349 7.5042,6.8349 Z" mask="url(#mathematics-performance-task-ad)"/>
    </g>
    <path fill="currentColor" d="M16.2021,15.955 L23.0501,19.68 L23.0771,5.285 L16.2291,1.56 L16.2021,15.955 Z M23.1591,19.974 C23.1411,19.974 23.1231,19.969 23.1071,19.96 L16.0411,16.116 C16.0051,16.097 15.9831,16.059 15.9831,16.019 L16.0111,1.376 C16.0111,1.338 16.0311,1.302 16.0641,1.282 C16.0981,1.263 16.1391,1.262 16.1721,1.28 L23.2381,5.124 C23.2741,5.143 23.2961,5.181 23.2961,5.221 L23.2681,19.864 C23.2681,19.903 23.2481,19.938 23.2151,19.958 C23.1981,19.969 23.1791,19.974 23.1591,19.974 Z"/>
    <g transform="translate(15 1.168)">
      <mask id="mathematics-performance-task-af" fill="#fff">
        <use xlink:href="#mathematics-performance-task-ae"/>
      </mask>
      <path fill="currentColor" d="M1.2021,14.7867 L8.0501,18.5117 L8.0771,4.1167 L1.2291,0.3917 L1.2021,14.7867 Z M8.1591,18.8057 C8.1411,18.8057 8.1231,18.8007 8.1071,18.7917 L1.0411,14.9477 C1.0051,14.9287 0.9831,14.8907 0.9831,14.8507 L1.0111,0.2077 C1.0111,0.1697 1.0311,0.1337 1.0641,0.1137 C1.0981,0.0947 1.1391,0.0937 1.1721,0.1117 L8.2381,3.9557 C8.2741,3.9747 8.2961,4.0127 8.2961,4.0527 L8.2681,18.6957 C8.2681,18.7347 8.2481,18.7697 8.2151,18.7897 C8.1981,18.8007 8.1791,18.8057 8.1591,18.8057 Z" mask="url(#mathematics-performance-task-af)"/>
    </g>
    <path fill="currentColor" d="M2.8965,3.3456 L9.6395,7.0136 L22.8425,5.1576 L16.0995,1.4906 L2.8965,3.3456 Z M9.6195,7.2366 C9.6005,7.2366 9.5835,7.2326 9.5665,7.2236 L2.5005,3.3786 C2.4595,3.3566 2.4365,3.3106 2.4455,3.2636 C2.4535,3.2166 2.4905,3.1816 2.5385,3.1746 L16.1045,1.2676 C16.1275,1.2646 16.1525,1.2686 16.1715,1.2806 L23.2385,5.1236 C23.2805,5.1466 23.3025,5.1936 23.2935,5.2396 C23.2865,5.2856 23.2495,5.3226 23.2015,5.3286 L9.6335,7.2356 C9.6285,7.2366 9.6245,7.2366 9.6195,7.2366 Z"/>
    <g transform="translate(2 1.168)">
      <mask id="mathematics-performance-task-ah" fill="#fff">
        <use xlink:href="#mathematics-performance-task-ag"/>
      </mask>
      <path fill="currentColor" d="M0.8965,2.1773 L7.6395,5.8453 L20.8425,3.9893 L14.0995,0.3223 L0.8965,2.1773 Z M7.6195,6.0683 C7.6005,6.0683 7.5835,6.0643 7.5665,6.0553 L0.5005,2.2103 C0.4595,2.1883 0.4365,2.1423 0.4455,2.0953 C0.4535,2.0483 0.4905,2.0133 0.5385,2.0063 L14.1045,0.0993 C14.1275,0.0963 14.1525,0.1003 14.1715,0.1123 L21.2385,3.9553 C21.2805,3.9783 21.3025,4.0253 21.2935,4.0713 C21.2865,4.1173 21.2495,4.1543 21.2015,4.1603 L7.6335,6.0673 C7.6285,6.0683 7.6245,6.0683 7.6195,6.0683 Z" mask="url(#mathematics-performance-task-ah)"/>
    </g>
    <path fill="currentColor" d="M2.6348,17.8622 L9.4828,21.5872 L9.5098,7.1922 L2.6618,3.4662 L2.6348,17.8622 Z M9.5918,21.8812 C9.5728,21.8812 9.5558,21.8762 9.5388,21.8672 L2.4728,18.0232 C2.4378,18.0042 2.4158,17.9662 2.4158,17.9262 L2.4438,3.2832 C2.4438,3.2442 2.4638,3.2092 2.4968,3.1892 C2.5298,3.1692 2.5718,3.1692 2.6048,3.1872 L9.6708,7.0312 C9.7068,7.0492 9.7288,7.0872 9.7288,7.1272 L9.7008,21.7712 C9.7008,21.8092 9.6808,21.8452 9.6478,21.8652 C9.6308,21.8752 9.6118,21.8812 9.5918,21.8812 Z"/>
    <g transform="translate(2 3.168)">
      <mask id="mathematics-performance-task-aj" fill="#fff">
        <use xlink:href="#mathematics-performance-task-ai"/>
      </mask>
      <path fill="currentColor" d="M0.6348,14.6939 L7.4828,18.4189 L7.5098,4.0239 L0.6618,0.2979 L0.6348,14.6939 Z M7.5918,18.7129 C7.5728,18.7129 7.5558,18.7079 7.5388,18.6989 L0.4728,14.8549 C0.4378,14.8359 0.4158,14.7979 0.4158,14.7579 L0.4438,0.1149 C0.4438,0.0759 0.4638,0.0409 0.4968,0.0209 C0.5298,0.0009 0.5718,0.0009 0.6048,0.0189 L7.6708,3.8629 C7.7068,3.8809 7.7288,3.9189 7.7288,3.9589 L7.7008,18.6029 C7.7008,18.6409 7.6808,18.6769 7.6478,18.6969 C7.6308,18.7069 7.6118,18.7129 7.5918,18.7129 Z" mask="url(#mathematics-performance-task-aj)"/>
    </g>
    <path fill="currentColor" d="M2.8691,17.9891 L9.6121,21.6571 L22.8151,19.8011 L16.0721,16.1341 L2.8691,17.9891 Z M9.5921,21.8811 C9.5731,21.8811 9.5561,21.8761 9.5391,21.8671 L2.4731,18.0231 C2.4321,18.0011 2.4091,17.9541 2.4171,17.9071 C2.4261,17.8601 2.4631,17.8251 2.5101,17.8181 L16.0781,15.9121 C16.1001,15.9081 16.1251,15.9131 16.1451,15.9241 L23.2121,19.7671 C23.2531,19.7901 23.2751,19.8371 23.2671,19.8841 C23.2591,19.9301 23.2221,19.9661 23.1751,19.9721 L9.6061,21.8791 C9.6011,21.8801 9.5971,21.8811 9.5921,21.8811 Z"/>
    <g transform="translate(2 15.168)">
      <mask id="mathematics-performance-task-al" fill="#fff">
        <use xlink:href="#mathematics-performance-task-ak"/>
      </mask>
      <path fill="currentColor" d="M0.8691,2.8208 L7.6121,6.4888 L20.8151,4.6328 L14.0721,0.9658 L0.8691,2.8208 Z M7.5921,6.7128 C7.5731,6.7128 7.5561,6.7078 7.5391,6.6988 L0.4731,2.8548 C0.4321,2.8328 0.4091,2.7858 0.4171,2.7388 C0.4261,2.6918 0.4631,2.6568 0.5101,2.6498 L14.0781,0.7438 C14.1001,0.7398 14.1251,0.7448 14.1451,0.7558 L21.2121,4.5988 C21.2531,4.6218 21.2751,4.6688 21.2671,4.7158 C21.2591,4.7618 21.2221,4.7978 21.1751,4.8038 L7.6061,6.7108 C7.6011,6.7118 7.5971,6.7128 7.5921,6.7128 Z" mask="url(#mathematics-performance-task-al)"/>
    </g>
    <g fill="currentColor" transform="translate(70 2.168)">
      <path d="M9.5557 78.6929C9.4367 78.8449 9.2697 78.9219 9.0567 78.9219 8.8717 78.9219 8.7187 78.8629 8.5997 78.7459 8.4797 78.6279 8.4197 78.4889 8.4197 78.3309 8.4197 78.2199 8.4717 78.0309 8.5757 77.7629 8.5757 77.6919 8.5387 77.6289 8.4687 77.5739 8.4067 77.5239 8.3317 77.4999 8.2437 77.4999 7.8347 77.4999 7.4927 77.9389 7.2177 78.8189 7.0627 79.3269 6.8897 80.1809 6.6987 81.3819L8.5207 81.3819 8.4067 81.9299 6.5467 81.9299 4.9827 87.2689C4.6527 88.6809 4.2087 89.8229 3.6527 90.6939 3.0957 91.5649 2.3837 91.9999 1.5157 91.9999 1.1177 91.9999.7927 91.8939.5377 91.6809.2847 91.4679.1567 91.2319.1567 90.9699.1567 90.8059.2087 90.6549.3157 90.5119.4217 90.3709.5807 90.2999.7937 90.2999.9787 90.2999 1.1357 90.3609 1.2637 90.4839 1.3917 90.6059 1.4557 90.7569 1.4557 90.9369 1.4557 91.0359 1.4267 91.1339 1.3697 91.2359 1.3127 91.3369 1.2847 91.4069 1.2847 91.4439 1.2847 91.4939 1.3157 91.5339 1.3777 91.5669 1.4407 91.5989 1.5217 91.6159 1.6187 91.6159 2.0827 91.6159 2.4767 91.2519 2.7977 90.5209 2.9677 90.1389 3.1227 89.6129 3.2647 88.9429L5.2067 81.9299 3.6957 81.9299 3.8097 81.3819 5.3927 81.3819C5.6907 80.1129 6.0247 79.1719 6.3957 78.5619 6.9477 77.6259 7.6287 77.1569 8.4397 77.1569 8.8097 77.1569 9.1187 77.2629 9.3657 77.4749 9.6127 77.6879 9.7357 77.9299 9.7357 78.2029 9.7357 78.3779 9.6747 78.5409 9.5557 78.6929M13.4004 77.565C12.8824 78.11 12.4714 78.615 12.1664 79.078 11.6154 79.895 11.1694 80.848 10.8254 81.938 10.5204 82.908 10.3054 83.834 10.1794 84.713 10.0544 85.593 9.9924 86.325 9.9924 86.908 9.9924 87.823 10.0424 88.574 10.1434 89.16 10.2444 89.745 10.4584 90.512 10.7854 91.461L10.4994 91.558C9.9154 90.567 9.4924 89.565 9.2274 88.555 8.9634 87.544 8.8314 86.537 8.8314 85.535 8.8314 84.206 9.0514 83.029 9.4934 82.003 10.1524 80.472 11.3844 78.909 13.1874 77.312L13.4004 77.565zM11.7676 87.5005C11.8986 87.4105 12.0326 87.3655 12.1676 87.3655 12.2336 87.3655 12.2986 87.3745 12.3646 87.3945 12.4296 87.4135 12.4996 87.4435 12.5776 87.4875L12.8636 87.6435C12.9006 87.6645 12.9376 87.6805 12.9736 87.6875 13.0086 87.6965 13.0476 87.7005 13.0916 87.7005 13.2276 87.7005 13.3326 87.6665 13.4066 87.5985 13.4806 87.5295 13.6686 87.2915 13.9746 86.8835 14.1756 86.6165 14.6336 85.9645 15.3476 84.9305 15.3476 84.8925 15.2856 84.5995 15.1606 84.0515 15.0346 83.5035 14.9196 83.0385 14.8166 82.6575 14.7126 82.2705 14.6206 82.0165 14.5386 81.8935 14.4566 81.7715 14.3046 81.7095 14.0806 81.7095 14.0036 81.7095 13.8556 81.7365 13.6306 81.7915 13.4896 81.8235 13.3366 81.8615 13.1736 81.9055L13.0996 81.6515 14.0066 81.3415C14.2416 81.2605 14.4576 81.1945 14.6576 81.1455 14.8566 81.0965 15.0266 81.0715 15.1676 81.0715 15.3966 81.0715 15.5686 81.1405 15.6826 81.2755 15.8576 81.4935 16.0046 81.9255 16.1236 82.5675L16.2956 83.4995C16.7866 82.7475 17.1666 82.2195 17.4406 81.9135 17.6856 81.6365 17.9166 81.4285 18.1346 81.2925 18.3526 81.1565 18.5596 81.0885 18.7556 81.0885 18.9416 81.0885 19.0906 81.1155 19.2056 81.1695 19.4136 81.2685 19.5166 81.4525 19.5166 81.7265 19.5166 81.9105 19.4636 82.0565 19.3616 82.1585 19.2576 82.2625 19.1236 82.3135 18.9606 82.3135 18.9006 82.3135 18.8426 82.3075 18.7886 82.2935 18.7346 82.2805 18.6776 82.2605 18.6176 82.2325L18.4046 82.1425C18.3446 82.1145 18.2876 82.0925 18.2336 82.0725 18.1786 82.0535 18.1376 82.0445 18.1106 82.0445 17.8656 82.0445 17.5256 82.3615 17.0886 82.9965 16.6526 83.6315 16.4346 83.9975 16.4346 84.0965 16.4346 84.1785 16.4856 84.4435 16.5856 84.8935 16.6876 85.3425 16.7976 85.8175 16.9166 86.3185 17.0266 86.7935 17.1186 87.1205 17.1956 87.3005 17.3206 87.5945 17.4616 87.7415 17.6206 87.7415 17.7676 87.7415 17.9166 87.6595 18.0696 87.4965 18.2216 87.3325 18.4506 87.0385 18.7556 86.6135L18.9856 86.7525C18.7506 87.1775 18.5076 87.5405 18.2576 87.8395 17.7836 88.4065 17.3306 88.6895 16.9006 88.6895 16.6276 88.6895 16.4136 88.5595 16.2546 88.2975 16.1626 88.1455 16.0726 87.8945 15.9856 87.5455L15.4786 85.5265 13.8026 87.7255C13.4756 88.1055 13.2236 88.3625 13.0466 88.4935 12.8706 88.6245 12.6506 88.6895 12.3886 88.6895 12.0396 88.6895 11.8036 88.5805 11.6776 88.3625 11.6076 88.2485 11.5716 88.1125 11.5716 87.9535 11.5716 87.7415 11.6366 87.5905 11.7676 87.5005M18.6406 91.2642C19.2076 90.6552 19.6406 90.1252 19.9406 89.6782 20.4526 88.8942 20.8746 87.9652 21.2066 86.8912 21.4956 85.9762 21.7086 85.0852 21.8446 84.2182 21.9806 83.3522 22.0486 82.5242 22.0486 81.7342 22.0486 80.7692 21.9686 79.9192 21.8076 79.1842 21.6476 78.4482 21.4546 77.8462 21.2316 77.3772L21.5416 77.2792C22.0606 78.1182 22.4666 79.0622 22.7646 80.1122 23.0616 81.1602 23.2096 82.2212 23.2096 83.2952 23.2096 84.5102 23.0276 85.5882 22.6616 86.5322 22.0026 88.2432 20.7336 89.9052 18.8536 91.5182L18.6406 91.2642zM19.2842 16.3306L19.2842 17.0286C18.6412 17.3166 17.8982 17.5706 17.0572 17.7946 16.2162 18.0156 15.4402 18.1806 14.7312 18.2906L13.9002 18.2906 13.9002 3.4726 7.5542 3.4726 7.5542 9.7866C7.5542 10.4936 7.5262 11.2266 7.4712 11.9796 7.4162 12.7326 7.3272 13.4696 7.2052 14.1886 7.0842 14.9066 6.9402 15.5946 6.7732 16.2466 6.6082 16.9016 6.4252 17.4826 6.2252 17.9916 6.0252 18.1016 5.7382 18.1646 5.3622 18.1746 4.9842 18.1866 4.6192 18.1866 4.2652 18.1746 3.9102 18.1646 3.6002 18.1356 3.3342 18.0926 3.0702 18.0476 2.9362 18.0156 2.9362 17.9916L2.7692 17.7266C3.2572 16.9736 3.7012 16.0096 4.0992 14.8356 4.4972 13.6606 4.8352 12.4116 5.1122 11.0806 5.3892 9.7506 5.5992 8.4166 5.7432 7.0766 5.8882 5.7366 5.9592 4.5366 5.9592 3.4726L5.3942 3.4726C4.7752 3.4726 4.1772 3.6346 3.6002 3.9556 3.0242 4.2766 2.4822 4.7676 1.9732 5.4326L1.5422 5.1656C1.6522 4.6136 1.7952 4.0916 1.9732 3.6046 2.1502 3.1186 2.4092 2.6896 2.7542 2.3266 3.0972 1.9596 3.5522 1.6746 4.1162 1.4636 4.6802 1.2526 5.4062 1.1586 6.2922 1.1816 6.5352 1.1816 6.9842 1.1906 7.6382 1.2136 8.2912 1.2366 9.0552 1.2596 9.9302 1.2786 10.8052 1.3016 11.7412 1.3236 12.7372 1.3476 18.0972 1.4686 10.2962 1.3796 15.5962 1.3796 16.3042 1.3796 16.8972 1.3726 17.3732 1.3626 17.8492 1.3526 18.2472 1.3136 18.5702 1.2456 18.8892 1.1816 19.1622 1.0906 19.3832.9796 19.6052.8696 19.8252.7146 20.0482.5166L20.5132.8146C20.4252 1.5216 20.1362 2.1446 19.6482 2.6736 19.1622 3.2056 18.4412 3.4726 17.4892 3.4726L17.0912 3.4726 17.0912 16.0646 19.2842 16.3306z"/>
    </g>
  </g>
</svg>
