<svg xmlns="http://www.w3.org/2000/svg" width="100" height="100" viewBox="0 0 100 100">
  <g fill="none" fill-rule="evenodd">
    <polygon fill="currentColor" fill-rule="nonzero" points="63.33 26.41 62 26.41 60.25 24 58.48 26.38 57.26 26.38 59.68 23.29 57.28 20.17 58.6 20.17 60.35 22.52 62.11 20.17 63.33 20.17 60.89 23.23"/>
    <path fill="currentColor" fill-rule="nonzero" d="M71 22.06L64.38 22.06 64.38 21.18 71 21.18 71 22.06zM71 24.4L64.38 24.4 64.38 23.51 71 23.51 71 24.4zM78 26.41L72.37 26.41 72.37 25.25 73.54 24.25C73.93 23.92 74.3 23.58 74.64 23.25 75.1853897 22.7585818 75.6750071 22.2086007 76.1 21.61 76.3563725 21.2213626 76.4920645 20.7655767 76.49 20.3 76.5079742 19.9203842 76.3536457 19.5529354 76.07 19.3 75.7321727 19.0348248 75.3086297 18.903135 74.88 18.93 74.5065048 18.9358951 74.1358938 18.9965405 73.78 19.11 73.3723595 19.2374517 72.985089 19.4226679 72.63 19.66L72.63 18.48C72.9503238 18.326545 73.285367 18.2059295 73.63 18.12 74.050926 18.0328537 74.4802111 17.9926083 74.91 18 75.6294934 17.9597531 76.3394343 18.1798348 76.91 18.62 77.4046223 19.0248855 77.6759181 19.6418046 77.64 20.28 77.6462725 20.8684348 77.4793466 21.4457202 77.16 21.94 77.009781 22.1783127 76.8426869 22.4055607 76.66 22.62 76.46 22.84 76.22 23.08 75.95 23.36 75.68 23.64 75.14 24.12 74.72 24.49L73.53 25.49 78 25.49 78 26.41z"/>
    <polygon fill="currentColor" fill-rule="nonzero" points="81.49 24.83 79.92 28.47 79.11 28.47 80.11 24.83"/>
    <polygon fill="currentColor" fill-rule="nonzero" points="86.31 23.29 82.84 23.29 82.84 22.29 86.31 22.29"/>
    <path fill="currentColor" fill-rule="nonzero" d="M91.51,22.43 C91.7089317,22.5862382 91.8753889,22.7798721 92,23 C92.1221853,23.2943751 92.1801427,23.6114359 92.17,23.93 C92.1672178,24.2729865 92.0993497,24.612327 91.97,24.93 C91.8366652,25.2411814 91.639004,25.5206334 91.39,25.75 C91.1011682,26.0115122 90.7604153,26.2091489 90.39,26.33 C89.9884005,26.4534895 89.5701359,26.5142053 89.15,26.51 C88.691873,26.5117084 88.2352219,26.4579847 87.79,26.35 C87.4164835,26.2633666 87.0516409,26.1428681 86.7,25.99 L86.7,24.9 L86.78,24.9 C87.1259884,25.1205465 87.4990942,25.2953348 87.89,25.42 C88.2912489,25.5472831 88.7090804,25.6146753 89.13,25.62 C89.3803908,25.6155502 89.6291412,25.5785738 89.87,25.51 C90.1069032,25.4428583 90.3256468,25.3232329 90.51,25.16 C90.6747056,25.0100196 90.8044328,24.8256704 90.89,24.62 C90.9813911,24.3842311 91.0255612,24.1328011 91.02,23.88 C91.0289835,23.6249618 90.9775877,23.3714089 90.87,23.14 C90.7853918,22.9533287 90.6503148,22.794007 90.48,22.68 C90.2983977,22.5619965 90.0939478,22.4836241 89.88,22.45 C89.6263809,22.4005478 89.3683791,22.3770931 89.11,22.38 L88.61,22.38 L88.61,21.46 L89,21.46 C89.4749184,21.4813723 89.9452882,21.3594246 90.35,21.11 C90.6712538,20.8794119 90.8582818,20.5053559 90.85,20.11 C90.8547932,19.9280664 90.8098451,19.7482741 90.72,19.59 C90.6372228,19.4385259 90.5166453,19.3110583 90.37,19.22 C90.210072,19.1226707 90.0339301,19.0549238 89.85,19.02 C89.649475,18.9777375 89.4449163,18.957617 89.24,18.96 C88.8561669,18.9687745 88.4755963,19.0327643 88.11,19.15 C87.7149184,19.28089 87.3384535,19.4623998 86.99,19.69 L86.99,18.48 C87.310882,18.3304112 87.6458698,18.2131654 87.99,18.13 C88.3999426,18.0366768 88.8196269,17.9930296 89.24,18 C89.5963489,17.9966186 89.9519386,18.0335194 90.3,18.11 C90.5973761,18.1845266 90.8809455,18.3060564 91.14,18.47 C91.6817277,18.7874723 92.0103907,19.3721867 92,20 C92.0060357,20.4498749 91.8292043,20.8829315 91.51,21.2 C91.2043752,21.5319782 90.8020457,21.7593818 90.36,21.85 L90.36,21.93 C90.5722538,21.968744 90.7799976,22.0290567 90.98,22.11 C91.169846,22.1931354 91.3480197,22.300712 91.51,22.43 Z"/>
    <path stroke="currentColor" stroke-linecap="square" d="M49.93.25L49.93 99.19M.39 50.78L99.48 50.78"/>
    <path stroke="currentColor" stroke-linecap="round" stroke-linejoin="round" stroke-width="2" d="M65.12,34.74 L65.12,55.55 C65.12,67.63 56.49,77.55 45.93,77.55 C35.38,77.55 26.74,67.66 26.74,55.55 L26.74,34.74"/>
    <path fill="currentColor" fill-rule="nonzero" d="M29.13 48.39C25.65 45.71 21.67 49.69 24.35 53.17 27.83 55.85 31.81 51.87 29.13 48.39zM67.51 48.39C64.03 45.71 60.05 49.69 62.73 53.17 66.21 55.85 70.19 51.87 67.51 48.39z"/>
  </g>
</svg>
